;TYPE=PLATED
;Layer: PTH_Through
;EasyEDA Pro v3.2.148, 2026-09-01 12:52:02
;Gerber Generator version 0.3
M48
METRIC,LZ,0000.00000
;Hole size 1 = 1.00000 METRIC
T01C1.00000
;Hole size 2 = 1.10002 METRIC
T02C1.10002
;Hole size 3 = 1.20000 METRIC
T03C1.20000
%
G05
G90
T01
X8.43501Y15.0
X10.935Y15.0
X13.435Y15.0
X15.93502Y15.0
X18.43502Y15.0
X20.93501Y15.0
X23.43501Y15.0
X25.935Y15.0
X28.43502Y15.0
X30.93502Y15.0
T02
X36.576Y15.0
X39.116Y15.0
X41.656Y15.0
X44.196Y15.0
X46.736Y15.0
T03
X63.5Y7.0
X63.5Y23.0
X52.0Y23.0
X6.0Y23.0
X17.5Y7.0
X17.5Y23.0
X29.0Y7.0
X29.0Y23.0
X40.5Y7.0
X40.5Y23.0
X52.0Y7.0
X6.0Y7.0
M30