G04 Layer: DrillDrawingLayer*
G04 EasyEDA Pro v3.2.148, 2026-09-01 12:52:02*
G04 Gerber Generator version 0.3*
G04 Scale: 100 percent, Rotated: No, Reflected: No*
G04 Dimensions in millimeters*
G04 Leading zeros omitted, absolute positions, 4 integers and 5 decimals*
G04 Generated by one-click*
G04 Object Configs: Pad,Via,Track,Text,Image,Dimension,BoardOutline,BoardCutout,CopperFilled,SolidRegion,FPCStiffener,Line,PlaneZone,ComponentProperty,ComponentSilkscreen,TearDrop*
G04 Layer Configs: 1,2,3,4,5,6,7,8,9,10,11,13,14,56*
G04 Copper Areas: 0*
%FSLAX45Y45*%
%MOMM*%
%AMIconRect*4,1,4,0.28,-0.28,-0.28,-0.28,-0.28,0.28,0.28,0.28,0.28,-0.28,0*4,0,4,0.233333,-0.233333,0.233333,0.233333,-0.233333,0.233333,-0.233333,-0.233333,0.233333,-0.233333,0*%
%AMIconTriangle*4,1,3,-0.339593,0.240473,0.339593,0.240473,0,-0.37884,-0.339593,0.240473,0*4,0,3,-0.265673,0.19404,0,-0.27342,0.266233,0.19404,-0.265673,0.19404,0*%
%AMIconStar6*4,1,12,0.12068,0.20888,0.298527,0.172713,0.241313,0,0.298527,-0.17206,0.12068,-0.208227,0,-0.344073,-0.120073,-0.208227,-0.298573,-0.17206,-0.240707,0,-0.298573,0.17206,-0.120073,0.20888,0,0.344073,0.12068,0.20888,0*4,0,12,-0.000467,0.273467,-0.090067,0.171733,-0.237533,0.136733,-0.193667,-0.007467,-0.237533,-0.1372,-0.090067,-0.171733,-0.000467,-0.273933,0.090067,-0.171733,0.237533,-0.1372,0.194133,0.007,0.237533,0.1372,0.090067,0.171267,-0.000467,0.273467,0*%
%AMIconStar4*4,1,8,-0.311733,0.311733,0,0.202533,0.311733,0.311733,0.202533,0,0.311733,-0.311733,0,-0.202533,-0.304407,-0.311733,-0.202533,0,-0.311733,0.311733,0*4,0,8,0.233333,-0.233333,0.1512,0,0.233333,0.233333,0,0.1512,-0.233333,0.233333,-0.1512,0,-0.233333,-0.233333,0,-0.1512,0.233333,-0.233333,0*%
%ADD10IconRect*%
%ADD11C,0.616X0.522667*%
%ADD12IconTriangle*%
%ADD13IconStar6*%
%ADD14IconStar4*%
%ADD15C,0.2032*%
%ADD16C,0.254*%
G75*


G04 Drill Drawing Start*
G54D10*
G01X350000Y1500000D03*
G01X6650000Y1500000D03*
G54D11*
G01X683489Y1700000D03*
G01X3497605Y1700000D03*
G54D12*
G01X3657600Y1500000D03*
G01X3911600Y1500000D03*
G01X4165600Y1500000D03*
G01X4419600Y1500000D03*
G01X4673600Y1500000D03*
G54D13*
G01X843501Y1500000D03*
G01X1093500Y1500000D03*
G01X1343500Y1500000D03*
G01X1593502Y1500000D03*
G01X1843502Y1500000D03*
G01X2093501Y1500000D03*
G01X2343501Y1500000D03*
G01X2593500Y1500000D03*
G01X2843502Y1500000D03*
G01X3093502Y1500000D03*
G54D14*
G01X600000Y700000D03*
G01X600000Y2300000D03*
G01X1750000Y2300000D03*
G01X1750000Y700000D03*
G01X2900000Y700000D03*
G01X2900000Y2300000D03*
G01X4050000Y700000D03*
G01X4050000Y2300000D03*
G01X5200000Y700000D03*
G01X5200000Y2300000D03*
G01X6350000Y700000D03*
G01X6350000Y2300000D03*
G04 Drill Drawing End*

G04 Text Start*
G54D15*
G01X9300446Y2778294D02*
G01X9300446Y2658152D01*
G01X9300446Y2778294D02*
G01X9346166Y2658152D01*
G01X9391886Y2778294D02*
G01X9346166Y2658152D01*
G01X9391886Y2778294D02*
G01X9391886Y2658152D01*
G01X9508218Y2738162D02*
G01X9508218Y2658152D01*
G01X9508218Y2721144D02*
G01X9496788Y2732574D01*
G01X9485358Y2738162D01*
G01X9468340Y2738162D01*
G01X9456910Y2732574D01*
G01X9445480Y2721144D01*
G01X9439638Y2703872D01*
G01X9439638Y2692442D01*
G01X9445480Y2675424D01*
G01X9456910Y2663994D01*
G01X9468340Y2658152D01*
G01X9485358Y2658152D01*
G01X9496788Y2663994D01*
G01X9508218Y2675424D01*
G01X9555970Y2738162D02*
G01X9555970Y2658152D01*
G01X9555970Y2703872D02*
G01X9561812Y2721144D01*
G01X9573242Y2732574D01*
G01X9584672Y2738162D01*
G01X9601690Y2738162D01*
G01X9649442Y2778294D02*
G01X9649442Y2658152D01*
G01X9706592Y2738162D02*
G01X9649442Y2681012D01*
G01X9672302Y2703872D02*
G01X9712434Y2658152D01*
G01X10837726Y2749592D02*
G01X10831884Y2761022D01*
G01X10820454Y2772452D01*
G01X10809024Y2778294D01*
G01X10786164Y2778294D01*
G01X10774734Y2772452D01*
G01X10763304Y2761022D01*
G01X10757716Y2749592D01*
G01X10751874Y2732574D01*
G01X10751874Y2703872D01*
G01X10757716Y2686854D01*
G01X10763304Y2675424D01*
G01X10774734Y2663994D01*
G01X10786164Y2658152D01*
G01X10809024Y2658152D01*
G01X10820454Y2663994D01*
G01X10831884Y2675424D01*
G01X10837726Y2686854D01*
G01X10914180Y2738162D02*
G01X10902750Y2732574D01*
G01X10891320Y2721144D01*
G01X10885478Y2703872D01*
G01X10885478Y2692442D01*
G01X10891320Y2675424D01*
G01X10902750Y2663994D01*
G01X10914180Y2658152D01*
G01X10931198Y2658152D01*
G01X10942628Y2663994D01*
G01X10954058Y2675424D01*
G01X10959900Y2692442D01*
G01X10959900Y2703872D01*
G01X10954058Y2721144D01*
G01X10942628Y2732574D01*
G01X10931198Y2738162D01*
G01X10914180Y2738162D01*
G01X11007652Y2738162D02*
G01X11007652Y2681012D01*
G01X11013494Y2663994D01*
G01X11024924Y2658152D01*
G01X11041942Y2658152D01*
G01X11053372Y2663994D01*
G01X11070644Y2681012D01*
G01X11070644Y2738162D02*
G01X11070644Y2658152D01*
G01X11118396Y2738162D02*
G01X11118396Y2658152D01*
G01X11118396Y2715302D02*
G01X11135668Y2732574D01*
G01X11147098Y2738162D01*
G01X11164116Y2738162D01*
G01X11175546Y2732574D01*
G01X11181388Y2715302D01*
G01X11181388Y2658152D01*
G01X11246412Y2778294D02*
G01X11246412Y2681012D01*
G01X11252000Y2663994D01*
G01X11263430Y2658152D01*
G01X11274860Y2658152D01*
G01X11229140Y2738162D02*
G01X11269272Y2738162D01*
G01X12246047Y2761022D02*
G01X12234617Y2772452D01*
G01X12217599Y2778294D01*
G01X12194739Y2778294D01*
G01X12177467Y2772452D01*
G01X12166037Y2761022D01*
G01X12166037Y2749592D01*
G01X12171879Y2738162D01*
G01X12177467Y2732574D01*
G01X12188897Y2726732D01*
G01X12223187Y2715302D01*
G01X12234617Y2709714D01*
G01X12240459Y2703872D01*
G01X12246047Y2692442D01*
G01X12246047Y2675424D01*
G01X12234617Y2663994D01*
G01X12217599Y2658152D01*
G01X12194739Y2658152D01*
G01X12177467Y2663994D01*
G01X12166037Y2675424D01*
G01X12293799Y2778294D02*
G01X12299641Y2772452D01*
G01X12305229Y2778294D01*
G01X12299641Y2783882D01*
G01X12293799Y2778294D01*
G01X12299641Y2738162D02*
G01X12299641Y2658152D01*
G01X12415973Y2738162D02*
G01X12352981Y2658152D01*
G01X12352981Y2738162D02*
G01X12415973Y2738162D01*
G01X12352981Y2658152D02*
G01X12415973Y2658152D01*
G01X12463725Y2703872D02*
G01X12532305Y2703872D01*
G01X12532305Y2715302D01*
G01X12526717Y2726732D01*
G01X12520875Y2732574D01*
G01X12509445Y2738162D01*
G01X12492427Y2738162D01*
G01X12480997Y2732574D01*
G01X12469567Y2721144D01*
G01X12463725Y2703872D01*
G01X12463725Y2692442D01*
G01X12469567Y2675424D01*
G01X12480997Y2663994D01*
G01X12492427Y2658152D01*
G01X12509445Y2658152D01*
G01X12520875Y2663994D01*
G01X12532305Y2675424D01*
G01X15968563Y2778294D02*
G01X15968563Y2658152D01*
G01X15968563Y2778294D02*
G01X16020125Y2778294D01*
G01X16037143Y2772452D01*
G01X16042985Y2766864D01*
G01X16048573Y2755434D01*
G01X16048573Y2738162D01*
G01X16042985Y2726732D01*
G01X16037143Y2721144D01*
G01X16020125Y2715302D01*
G01X15968563Y2715302D01*
G01X16096325Y2778294D02*
G01X16096325Y2658152D01*
G01X16212657Y2738162D02*
G01X16212657Y2658152D01*
G01X16212657Y2721144D02*
G01X16201227Y2732574D01*
G01X16189797Y2738162D01*
G01X16172779Y2738162D01*
G01X16161349Y2732574D01*
G01X16149919Y2721144D01*
G01X16144077Y2703872D01*
G01X16144077Y2692442D01*
G01X16149919Y2675424D01*
G01X16161349Y2663994D01*
G01X16172779Y2658152D01*
G01X16189797Y2658152D01*
G01X16201227Y2663994D01*
G01X16212657Y2675424D01*
G01X16277681Y2778294D02*
G01X16277681Y2681012D01*
G01X16283269Y2663994D01*
G01X16294699Y2658152D01*
G01X16306129Y2658152D01*
G01X16260409Y2738162D02*
G01X16300541Y2738162D01*
G01X16353881Y2703872D02*
G01X16422461Y2703872D01*
G01X16422461Y2715302D01*
G01X16416873Y2726732D01*
G01X16411031Y2732574D01*
G01X16399601Y2738162D01*
G01X16382583Y2738162D01*
G01X16371153Y2732574D01*
G01X16359723Y2721144D01*
G01X16353881Y2703872D01*
G01X16353881Y2692442D01*
G01X16359723Y2675424D01*
G01X16371153Y2663994D01*
G01X16382583Y2658152D01*
G01X16399601Y2658152D01*
G01X16411031Y2663994D01*
G01X16422461Y2675424D01*
G01X16538793Y2778294D02*
G01X16538793Y2658152D01*
G01X16538793Y2721144D02*
G01X16527363Y2732574D01*
G01X16515933Y2738162D01*
G01X16498915Y2738162D01*
G01X16487485Y2732574D01*
G01X16476055Y2721144D01*
G01X16470213Y2703872D01*
G01X16470213Y2692442D01*
G01X16476055Y2675424D01*
G01X16487485Y2663994D01*
G01X16498915Y2658152D01*
G01X16515933Y2658152D01*
G01X16527363Y2663994D01*
G01X16538793Y2675424D01*
G01X17509980Y2761022D02*
G01X17498550Y2772452D01*
G01X17481532Y2778294D01*
G01X17458672Y2778294D01*
G01X17441400Y2772452D01*
G01X17429970Y2761022D01*
G01X17429970Y2749592D01*
G01X17435812Y2738162D01*
G01X17441400Y2732574D01*
G01X17452830Y2726732D01*
G01X17487120Y2715302D01*
G01X17498550Y2709714D01*
G01X17504392Y2703872D01*
G01X17509980Y2692442D01*
G01X17509980Y2675424D01*
G01X17498550Y2663994D01*
G01X17481532Y2658152D01*
G01X17458672Y2658152D01*
G01X17441400Y2663994D01*
G01X17429970Y2675424D01*
G01X17557732Y2778294D02*
G01X17557732Y2658152D01*
G01X17557732Y2715302D02*
G01X17575004Y2732574D01*
G01X17586434Y2738162D01*
G01X17603452Y2738162D01*
G01X17614882Y2732574D01*
G01X17620724Y2715302D01*
G01X17620724Y2658152D01*
G01X17737056Y2738162D02*
G01X17737056Y2658152D01*
G01X17737056Y2721144D02*
G01X17725626Y2732574D01*
G01X17714196Y2738162D01*
G01X17697178Y2738162D01*
G01X17685748Y2732574D01*
G01X17674318Y2721144D01*
G01X17668476Y2703872D01*
G01X17668476Y2692442D01*
G01X17674318Y2675424D01*
G01X17685748Y2663994D01*
G01X17697178Y2658152D01*
G01X17714196Y2658152D01*
G01X17725626Y2663994D01*
G01X17737056Y2675424D01*
G01X17784808Y2738162D02*
G01X17784808Y2618274D01*
G01X17784808Y2721144D02*
G01X17796238Y2732574D01*
G01X17807668Y2738162D01*
G01X17824940Y2738162D01*
G01X17836370Y2732574D01*
G01X17847800Y2721144D01*
G01X17853388Y2703872D01*
G01X17853388Y2692442D01*
G01X17847800Y2675424D01*
G01X17836370Y2663994D01*
G01X17824940Y2658152D01*
G01X17807668Y2658152D01*
G01X17796238Y2663994D01*
G01X17784808Y2675424D01*
G01X17901140Y2703872D02*
G01X17969720Y2703872D01*
G01X17969720Y2715302D01*
G01X17964132Y2726732D01*
G01X17958290Y2732574D01*
G01X17946860Y2738162D01*
G01X17929842Y2738162D01*
G01X17918412Y2732574D01*
G01X17906982Y2721144D01*
G01X17901140Y2703872D01*
G01X17901140Y2692442D01*
G01X17906982Y2675424D01*
G01X17918412Y2663994D01*
G01X17929842Y2658152D01*
G01X17946860Y2658152D01*
G01X17958290Y2663994D01*
G01X17969720Y2675424D01*
G01X18861151Y2778294D02*
G01X18906871Y2658152D01*
G01X18952591Y2778294D02*
G01X18906871Y2658152D01*
G01X19000343Y2778294D02*
G01X19006185Y2772452D01*
G01X19011773Y2778294D01*
G01X19006185Y2783882D01*
G01X19000343Y2778294D01*
G01X19006185Y2738162D02*
G01X19006185Y2658152D01*
G01X19128105Y2738162D02*
G01X19128105Y2658152D01*
G01X19128105Y2721144D02*
G01X19116675Y2732574D01*
G01X19105245Y2738162D01*
G01X19088227Y2738162D01*
G01X19076797Y2732574D01*
G01X19065367Y2721144D01*
G01X19059525Y2703872D01*
G01X19059525Y2692442D01*
G01X19065367Y2675424D01*
G01X19076797Y2663994D01*
G01X19088227Y2658152D01*
G01X19105245Y2658152D01*
G01X19116675Y2663994D01*
G01X19128105Y2675424D01*
G01X19278727Y2801154D02*
G01X19175857Y2618274D01*
G01X19326479Y2778294D02*
G01X19326479Y2658152D01*
G01X19326479Y2778294D02*
G01X19378041Y2778294D01*
G01X19395059Y2772452D01*
G01X19400901Y2766864D01*
G01X19406489Y2755434D01*
G01X19406489Y2738162D01*
G01X19400901Y2726732D01*
G01X19395059Y2721144D01*
G01X19378041Y2715302D01*
G01X19326479Y2715302D01*
G01X19522821Y2738162D02*
G01X19522821Y2658152D01*
G01X19522821Y2721144D02*
G01X19511391Y2732574D01*
G01X19499961Y2738162D01*
G01X19482943Y2738162D01*
G01X19471513Y2732574D01*
G01X19460083Y2721144D01*
G01X19454241Y2703872D01*
G01X19454241Y2692442D01*
G01X19460083Y2675424D01*
G01X19471513Y2663994D01*
G01X19482943Y2658152D01*
G01X19499961Y2658152D01*
G01X19511391Y2663994D01*
G01X19522821Y2675424D01*
G01X19639153Y2778294D02*
G01X19639153Y2658152D01*
G01X19639153Y2721144D02*
G01X19627723Y2732574D01*
G01X19616293Y2738162D01*
G01X19599275Y2738162D01*
G01X19587845Y2732574D01*
G01X19576415Y2721144D01*
G01X19570573Y2703872D01*
G01X19570573Y2692442D01*
G01X19576415Y2675424D01*
G01X19587845Y2663994D01*
G01X19599275Y2658152D01*
G01X19616293Y2658152D01*
G01X19627723Y2663994D01*
G01X19639153Y2675424D01*
G01X20530330Y2778294D02*
G01X20530330Y2658152D01*
G01X20530330Y2778294D02*
G01X20581892Y2778294D01*
G01X20598910Y2772452D01*
G01X20604752Y2766864D01*
G01X20610340Y2755434D01*
G01X20610340Y2738162D01*
G01X20604752Y2726732D01*
G01X20598910Y2721144D01*
G01X20581892Y2715302D01*
G01X20530330Y2715302D01*
G01X20726672Y2738162D02*
G01X20726672Y2658152D01*
G01X20726672Y2721144D02*
G01X20715242Y2732574D01*
G01X20703812Y2738162D01*
G01X20686794Y2738162D01*
G01X20675364Y2732574D01*
G01X20663934Y2721144D01*
G01X20658092Y2703872D01*
G01X20658092Y2692442D01*
G01X20663934Y2675424D01*
G01X20675364Y2663994D01*
G01X20686794Y2658152D01*
G01X20703812Y2658152D01*
G01X20715242Y2663994D01*
G01X20726672Y2675424D01*
G01X20843004Y2778294D02*
G01X20843004Y2658152D01*
G01X20843004Y2721144D02*
G01X20831574Y2732574D01*
G01X20820144Y2738162D01*
G01X20803126Y2738162D01*
G01X20791696Y2732574D01*
G01X20780266Y2721144D01*
G01X20774424Y2703872D01*
G01X20774424Y2692442D01*
G01X20780266Y2675424D01*
G01X20791696Y2663994D01*
G01X20803126Y2658152D01*
G01X20820144Y2658152D01*
G01X20831574Y2663994D01*
G01X20843004Y2675424D01*
G01X21098782Y2761022D02*
G01X21087352Y2772452D01*
G01X21070334Y2778294D01*
G01X21047474Y2778294D01*
G01X21030202Y2772452D01*
G01X21018772Y2761022D01*
G01X21018772Y2749592D01*
G01X21024614Y2738162D01*
G01X21030202Y2732574D01*
G01X21041632Y2726732D01*
G01X21075922Y2715302D01*
G01X21087352Y2709714D01*
G01X21093194Y2703872D01*
G01X21098782Y2692442D01*
G01X21098782Y2675424D01*
G01X21087352Y2663994D01*
G01X21070334Y2658152D01*
G01X21047474Y2658152D01*
G01X21030202Y2663994D01*
G01X21018772Y2675424D01*
G01X21146534Y2778294D02*
G01X21146534Y2658152D01*
G01X21146534Y2715302D02*
G01X21163806Y2732574D01*
G01X21175236Y2738162D01*
G01X21192254Y2738162D01*
G01X21203684Y2732574D01*
G01X21209526Y2715302D01*
G01X21209526Y2658152D01*
G01X21325858Y2738162D02*
G01X21325858Y2658152D01*
G01X21325858Y2721144D02*
G01X21314428Y2732574D01*
G01X21302998Y2738162D01*
G01X21285980Y2738162D01*
G01X21274550Y2732574D01*
G01X21263120Y2721144D01*
G01X21257278Y2703872D01*
G01X21257278Y2692442D01*
G01X21263120Y2675424D01*
G01X21274550Y2663994D01*
G01X21285980Y2658152D01*
G01X21302998Y2658152D01*
G01X21314428Y2663994D01*
G01X21325858Y2675424D01*
G01X21373610Y2738162D02*
G01X21373610Y2618274D01*
G01X21373610Y2721144D02*
G01X21385040Y2732574D01*
G01X21396470Y2738162D01*
G01X21413742Y2738162D01*
G01X21425172Y2732574D01*
G01X21436602Y2721144D01*
G01X21442190Y2703872D01*
G01X21442190Y2692442D01*
G01X21436602Y2675424D01*
G01X21425172Y2663994D01*
G01X21413742Y2658152D01*
G01X21396470Y2658152D01*
G01X21385040Y2663994D01*
G01X21373610Y2675424D01*
G01X21489942Y2703872D02*
G01X21558522Y2703872D01*
G01X21558522Y2715302D01*
G01X21552934Y2726732D01*
G01X21547092Y2732574D01*
G01X21535662Y2738162D01*
G01X21518644Y2738162D01*
G01X21507214Y2732574D01*
G01X21495784Y2721144D01*
G01X21489942Y2703872D01*
G01X21489942Y2692442D01*
G01X21495784Y2675424D01*
G01X21507214Y2663994D01*
G01X21518644Y2658152D01*
G01X21535662Y2658152D01*
G01X21547092Y2663994D01*
G01X21558522Y2675424D01*
G01X22449699Y2778294D02*
G01X22449699Y2658152D01*
G01X22449699Y2658152D02*
G01X22518279Y2658152D01*
G01X22634611Y2738162D02*
G01X22634611Y2658152D01*
G01X22634611Y2721144D02*
G01X22623181Y2732574D01*
G01X22611751Y2738162D01*
G01X22594733Y2738162D01*
G01X22583303Y2732574D01*
G01X22571873Y2721144D01*
G01X22566031Y2703872D01*
G01X22566031Y2692442D01*
G01X22571873Y2675424D01*
G01X22583303Y2663994D01*
G01X22594733Y2658152D01*
G01X22611751Y2658152D01*
G01X22623181Y2663994D01*
G01X22634611Y2675424D01*
G01X22688205Y2738162D02*
G01X22722495Y2658152D01*
G01X22756785Y2738162D02*
G01X22722495Y2658152D01*
G01X22711065Y2635292D01*
G01X22699635Y2623862D01*
G01X22688205Y2618274D01*
G01X22682363Y2618274D01*
G01X22804537Y2703872D02*
G01X22873117Y2703872D01*
G01X22873117Y2715302D01*
G01X22867529Y2726732D01*
G01X22861687Y2732574D01*
G01X22850257Y2738162D01*
G01X22833239Y2738162D01*
G01X22821809Y2732574D01*
G01X22810379Y2721144D01*
G01X22804537Y2703872D01*
G01X22804537Y2692442D01*
G01X22810379Y2675424D01*
G01X22821809Y2663994D01*
G01X22833239Y2658152D01*
G01X22850257Y2658152D01*
G01X22861687Y2663994D01*
G01X22873117Y2675424D01*
G01X22920869Y2738162D02*
G01X22920869Y2658152D01*
G01X22920869Y2703872D02*
G01X22926711Y2721144D01*
G01X22938141Y2732574D01*
G01X22949571Y2738162D01*
G01X22966589Y2738162D01*
G01X23142357Y2778294D02*
G01X23142357Y2658152D01*
G01X23142357Y2778294D02*
G01X23193919Y2778294D01*
G01X23210937Y2772452D01*
G01X23216779Y2766864D01*
G01X23222367Y2755434D01*
G01X23222367Y2738162D01*
G01X23216779Y2726732D01*
G01X23210937Y2721144D01*
G01X23193919Y2715302D01*
G01X23142357Y2715302D01*
G01X23338699Y2738162D02*
G01X23338699Y2658152D01*
G01X23338699Y2721144D02*
G01X23327269Y2732574D01*
G01X23315839Y2738162D01*
G01X23298821Y2738162D01*
G01X23287391Y2732574D01*
G01X23275961Y2721144D01*
G01X23270119Y2703872D01*
G01X23270119Y2692442D01*
G01X23275961Y2675424D01*
G01X23287391Y2663994D01*
G01X23298821Y2658152D01*
G01X23315839Y2658152D01*
G01X23327269Y2663994D01*
G01X23338699Y2675424D01*
G01X23386451Y2778294D02*
G01X23392293Y2772452D01*
G01X23397881Y2778294D01*
G01X23392293Y2783882D01*
G01X23386451Y2778294D01*
G01X23392293Y2738162D02*
G01X23392293Y2658152D01*
G01X23445633Y2738162D02*
G01X23445633Y2658152D01*
G01X23445633Y2703872D02*
G01X23451475Y2721144D01*
G01X23462905Y2732574D01*
G01X23474335Y2738162D01*
G01X23491353Y2738162D01*
G01X10757716Y2169021D02*
G01X10757716Y2174863D01*
G01X10763304Y2186293D01*
G01X10769146Y2191881D01*
G01X10780576Y2197723D01*
G01X10803436Y2197723D01*
G01X10814866Y2191881D01*
G01X10820454Y2186293D01*
G01X10826296Y2174863D01*
G01X10826296Y2163433D01*
G01X10820454Y2152003D01*
G01X10809024Y2134731D01*
G01X10751874Y2077581D01*
G01X10831884Y2077581D01*
G01X12166037Y2174863D02*
G01X12177467Y2180451D01*
G01X12194739Y2197723D01*
G01X12194739Y2077581D01*
G01X12248333Y2169021D02*
G01X12248333Y2174863D01*
G01X12253921Y2186293D01*
G01X12259763Y2191881D01*
G01X12271193Y2197723D01*
G01X12294053Y2197723D01*
G01X12305483Y2191881D01*
G01X12311071Y2186293D01*
G01X12316913Y2174863D01*
G01X12316913Y2163433D01*
G01X12311071Y2152003D01*
G01X12299641Y2134731D01*
G01X12242491Y2077581D01*
G01X12322501Y2077581D01*
G01X12438833Y2180451D02*
G01X12433245Y2191881D01*
G01X12415973Y2197723D01*
G01X12404543Y2197723D01*
G01X12387525Y2191881D01*
G01X12376095Y2174863D01*
G01X12370253Y2146161D01*
G01X12370253Y2117713D01*
G01X12376095Y2094853D01*
G01X12387525Y2083423D01*
G01X12404543Y2077581D01*
G01X12410385Y2077581D01*
G01X12427403Y2083423D01*
G01X12438833Y2094853D01*
G01X12444675Y2111871D01*
G01X12444675Y2117713D01*
G01X12438833Y2134731D01*
G01X12427403Y2146161D01*
G01X12410385Y2152003D01*
G01X12404543Y2152003D01*
G01X12387525Y2146161D01*
G01X12376095Y2134731D01*
G01X12370253Y2117713D01*
G01X12498269Y2106283D02*
G01X12492427Y2100441D01*
G01X12498269Y2094853D01*
G01X12503857Y2100441D01*
G01X12498269Y2106283D01*
G01X12585899Y2197723D02*
G01X12568881Y2191881D01*
G01X12557451Y2174863D01*
G01X12551609Y2146161D01*
G01X12551609Y2129143D01*
G01X12557451Y2100441D01*
G01X12568881Y2083423D01*
G01X12585899Y2077581D01*
G01X12597329Y2077581D01*
G01X12614601Y2083423D01*
G01X12626031Y2100441D01*
G01X12631619Y2129143D01*
G01X12631619Y2146161D01*
G01X12626031Y2174863D01*
G01X12614601Y2191881D01*
G01X12597329Y2197723D01*
G01X12585899Y2197723D01*
G01X12679371Y2157591D02*
G01X12679371Y2077581D01*
G01X12679371Y2134731D02*
G01X12696643Y2152003D01*
G01X12708073Y2157591D01*
G01X12725091Y2157591D01*
G01X12736521Y2152003D01*
G01X12742363Y2134731D01*
G01X12742363Y2077581D01*
G01X12742363Y2134731D02*
G01X12759381Y2152003D01*
G01X12770811Y2157591D01*
G01X12788083Y2157591D01*
G01X12799513Y2152003D01*
G01X12805101Y2134731D01*
G01X12805101Y2077581D01*
G01X12852853Y2197723D02*
G01X12858695Y2191881D01*
G01X12864283Y2197723D01*
G01X12858695Y2203311D01*
G01X12852853Y2197723D01*
G01X12858695Y2157591D02*
G01X12858695Y2077581D01*
G01X12912035Y2197723D02*
G01X12912035Y2077581D01*
G01X12999919Y2220583D02*
G01X12988489Y2209153D01*
G01X12977059Y2191881D01*
G01X12965629Y2169021D01*
G01X12959787Y2140573D01*
G01X12959787Y2117713D01*
G01X12965629Y2089011D01*
G01X12977059Y2066151D01*
G01X12988489Y2049133D01*
G01X12999919Y2037703D01*
G01X13059101Y2197723D02*
G01X13122093Y2197723D01*
G01X13087803Y2152003D01*
G01X13104821Y2152003D01*
G01X13116251Y2146161D01*
G01X13122093Y2140573D01*
G01X13127681Y2123301D01*
G01X13127681Y2111871D01*
G01X13122093Y2094853D01*
G01X13110663Y2083423D01*
G01X13093391Y2077581D01*
G01X13076373Y2077581D01*
G01X13059101Y2083423D01*
G01X13053513Y2089011D01*
G01X13047671Y2100441D01*
G01X13181275Y2106283D02*
G01X13175433Y2100441D01*
G01X13181275Y2094853D01*
G01X13186863Y2100441D01*
G01X13181275Y2106283D01*
G01X13240457Y2169021D02*
G01X13240457Y2174863D01*
G01X13246045Y2186293D01*
G01X13251887Y2191881D01*
G01X13263317Y2197723D01*
G01X13286177Y2197723D01*
G01X13297607Y2191881D01*
G01X13303195Y2186293D01*
G01X13309037Y2174863D01*
G01X13309037Y2163433D01*
G01X13303195Y2152003D01*
G01X13291765Y2134731D01*
G01X13234615Y2077581D01*
G01X13314625Y2077581D01*
G01X13396667Y2197723D02*
G01X13379649Y2191881D01*
G01X13368219Y2174863D01*
G01X13362377Y2146161D01*
G01X13362377Y2129143D01*
G01X13368219Y2100441D01*
G01X13379649Y2083423D01*
G01X13396667Y2077581D01*
G01X13408097Y2077581D01*
G01X13425369Y2083423D01*
G01X13436799Y2100441D01*
G01X13442387Y2129143D01*
G01X13442387Y2146161D01*
G01X13436799Y2174863D01*
G01X13425369Y2191881D01*
G01X13408097Y2197723D01*
G01X13396667Y2197723D01*
G01X13524429Y2197723D02*
G01X13507411Y2191881D01*
G01X13495981Y2174863D01*
G01X13490139Y2146161D01*
G01X13490139Y2129143D01*
G01X13495981Y2100441D01*
G01X13507411Y2083423D01*
G01X13524429Y2077581D01*
G01X13535859Y2077581D01*
G01X13553131Y2083423D01*
G01X13564561Y2100441D01*
G01X13570149Y2129143D01*
G01X13570149Y2146161D01*
G01X13564561Y2174863D01*
G01X13553131Y2191881D01*
G01X13535859Y2197723D01*
G01X13524429Y2197723D01*
G01X13617901Y2157591D02*
G01X13617901Y2077581D01*
G01X13617901Y2134731D02*
G01X13635173Y2152003D01*
G01X13646603Y2157591D01*
G01X13663621Y2157591D01*
G01X13675051Y2152003D01*
G01X13680893Y2134731D01*
G01X13680893Y2077581D01*
G01X13680893Y2134731D02*
G01X13697911Y2152003D01*
G01X13709341Y2157591D01*
G01X13726613Y2157591D01*
G01X13738043Y2152003D01*
G01X13743631Y2134731D01*
G01X13743631Y2077581D01*
G01X13791383Y2157591D02*
G01X13791383Y2077581D01*
G01X13791383Y2134731D02*
G01X13808655Y2152003D01*
G01X13820085Y2157591D01*
G01X13837103Y2157591D01*
G01X13848533Y2152003D01*
G01X13854375Y2134731D01*
G01X13854375Y2077581D01*
G01X13854375Y2134731D02*
G01X13871393Y2152003D01*
G01X13882823Y2157591D01*
G01X13900095Y2157591D01*
G01X13911525Y2152003D01*
G01X13917113Y2134731D01*
G01X13917113Y2077581D01*
G01X13964865Y2220583D02*
G01X13976295Y2209153D01*
G01X13987725Y2191881D01*
G01X13999155Y2169021D01*
G01X14004997Y2140573D01*
G01X14004997Y2117713D01*
G01X13999155Y2089011D01*
G01X13987725Y2066151D01*
G01X13976295Y2049133D01*
G01X13964865Y2037703D01*
G01X15968563Y2197723D02*
G01X15968563Y2077581D01*
G01X15968563Y2197723D02*
G01X16048573Y2077581D01*
G01X16048573Y2197723D02*
G01X16048573Y2077581D01*
G01X16096325Y2197723D02*
G01X16096325Y2077581D01*
G01X16096325Y2197723D02*
G01X16147887Y2197723D01*
G01X16164905Y2191881D01*
G01X16170747Y2186293D01*
G01X16176335Y2174863D01*
G01X16176335Y2157591D01*
G01X16170747Y2146161D01*
G01X16164905Y2140573D01*
G01X16147887Y2134731D01*
G01X16096325Y2134731D01*
G01X16264219Y2197723D02*
G01X16264219Y2077581D01*
G01X16224087Y2197723D02*
G01X16304097Y2197723D01*
G01X16351849Y2197723D02*
G01X16351849Y2077581D01*
G01X16431859Y2197723D02*
G01X16431859Y2077581D01*
G01X16351849Y2140573D02*
G01X16431859Y2140573D01*
G01X17429970Y2197723D02*
G01X17429970Y2077581D01*
G01X17429970Y2197723D02*
G01X17481532Y2197723D01*
G01X17498550Y2191881D01*
G01X17504392Y2186293D01*
G01X17509980Y2174863D01*
G01X17509980Y2163433D01*
G01X17504392Y2152003D01*
G01X17498550Y2146161D01*
G01X17481532Y2140573D01*
G01X17429970Y2140573D01*
G01X17470102Y2140573D02*
G01X17509980Y2077581D01*
G01X17586434Y2157591D02*
G01X17575004Y2152003D01*
G01X17563574Y2140573D01*
G01X17557732Y2123301D01*
G01X17557732Y2111871D01*
G01X17563574Y2094853D01*
G01X17575004Y2083423D01*
G01X17586434Y2077581D01*
G01X17603452Y2077581D01*
G01X17614882Y2083423D01*
G01X17626312Y2094853D01*
G01X17632154Y2111871D01*
G01X17632154Y2123301D01*
G01X17626312Y2140573D01*
G01X17614882Y2152003D01*
G01X17603452Y2157591D01*
G01X17586434Y2157591D01*
G01X17679906Y2157591D02*
G01X17679906Y2100441D01*
G01X17685748Y2083423D01*
G01X17697178Y2077581D01*
G01X17714196Y2077581D01*
G01X17725626Y2083423D01*
G01X17742898Y2100441D01*
G01X17742898Y2157591D02*
G01X17742898Y2077581D01*
G01X17790650Y2157591D02*
G01X17790650Y2077581D01*
G01X17790650Y2134731D02*
G01X17807922Y2152003D01*
G01X17819352Y2157591D01*
G01X17836370Y2157591D01*
G01X17847800Y2152003D01*
G01X17853642Y2134731D01*
G01X17853642Y2077581D01*
G01X17969974Y2197723D02*
G01X17969974Y2077581D01*
G01X17969974Y2140573D02*
G01X17958544Y2152003D01*
G01X17947114Y2157591D01*
G01X17930096Y2157591D01*
G01X17918666Y2152003D01*
G01X17907236Y2140573D01*
G01X17901394Y2123301D01*
G01X17901394Y2111871D01*
G01X17907236Y2094853D01*
G01X17918666Y2083423D01*
G01X17930096Y2077581D01*
G01X17947114Y2077581D01*
G01X17958544Y2083423D01*
G01X17969974Y2094853D01*
G01X18861151Y2197723D02*
G01X18906871Y2077581D01*
G01X18952591Y2197723D02*
G01X18906871Y2077581D01*
G01X19000343Y2197723D02*
G01X19006185Y2191881D01*
G01X19011773Y2197723D01*
G01X19006185Y2203311D01*
G01X19000343Y2197723D01*
G01X19006185Y2157591D02*
G01X19006185Y2077581D01*
G01X19128105Y2157591D02*
G01X19128105Y2077581D01*
G01X19128105Y2140573D02*
G01X19116675Y2152003D01*
G01X19105245Y2157591D01*
G01X19088227Y2157591D01*
G01X19076797Y2152003D01*
G01X19065367Y2140573D01*
G01X19059525Y2123301D01*
G01X19059525Y2111871D01*
G01X19065367Y2094853D01*
G01X19076797Y2083423D01*
G01X19088227Y2077581D01*
G01X19105245Y2077581D01*
G01X19116675Y2083423D01*
G01X19128105Y2094853D01*
G01X22489831Y2197723D02*
G01X22489831Y2077581D01*
G01X22449699Y2197723D02*
G01X22529709Y2197723D01*
G01X22606163Y2157591D02*
G01X22594733Y2152003D01*
G01X22583303Y2140573D01*
G01X22577461Y2123301D01*
G01X22577461Y2111871D01*
G01X22583303Y2094853D01*
G01X22594733Y2083423D01*
G01X22606163Y2077581D01*
G01X22623181Y2077581D01*
G01X22634611Y2083423D01*
G01X22646041Y2094853D01*
G01X22651883Y2111871D01*
G01X22651883Y2123301D01*
G01X22646041Y2140573D01*
G01X22634611Y2152003D01*
G01X22623181Y2157591D01*
G01X22606163Y2157591D01*
G01X22699635Y2157591D02*
G01X22699635Y2037703D01*
G01X22699635Y2140573D02*
G01X22711065Y2152003D01*
G01X22722495Y2157591D01*
G01X22739767Y2157591D01*
G01X22751197Y2152003D01*
G01X22762627Y2140573D01*
G01X22768215Y2123301D01*
G01X22768215Y2111871D01*
G01X22762627Y2094853D01*
G01X22751197Y2083423D01*
G01X22739767Y2077581D01*
G01X22722495Y2077581D01*
G01X22711065Y2083423D01*
G01X22699635Y2094853D01*
G01X22943983Y2197723D02*
G01X22943983Y2077581D01*
G01X22943983Y2077581D02*
G01X23012563Y2077581D01*
G01X23128895Y2157591D02*
G01X23128895Y2077581D01*
G01X23128895Y2140573D02*
G01X23117465Y2152003D01*
G01X23106035Y2157591D01*
G01X23089017Y2157591D01*
G01X23077587Y2152003D01*
G01X23066157Y2140573D01*
G01X23060315Y2123301D01*
G01X23060315Y2111871D01*
G01X23066157Y2094853D01*
G01X23077587Y2083423D01*
G01X23089017Y2077581D01*
G01X23106035Y2077581D01*
G01X23117465Y2083423D01*
G01X23128895Y2094853D01*
G01X23182489Y2157591D02*
G01X23216779Y2077581D01*
G01X23251069Y2157591D02*
G01X23216779Y2077581D01*
G01X23205349Y2054721D01*
G01X23193919Y2043291D01*
G01X23182489Y2037703D01*
G01X23176647Y2037703D01*
G01X23298821Y2123301D02*
G01X23367401Y2123301D01*
G01X23367401Y2134731D01*
G01X23361813Y2146161D01*
G01X23355971Y2152003D01*
G01X23344541Y2157591D01*
G01X23327523Y2157591D01*
G01X23316093Y2152003D01*
G01X23304663Y2140573D01*
G01X23298821Y2123301D01*
G01X23298821Y2111871D01*
G01X23304663Y2094853D01*
G01X23316093Y2083423D01*
G01X23327523Y2077581D01*
G01X23344541Y2077581D01*
G01X23355971Y2083423D01*
G01X23367401Y2094853D01*
G01X23415153Y2157591D02*
G01X23415153Y2077581D01*
G01X23415153Y2123301D02*
G01X23420995Y2140573D01*
G01X23432425Y2152003D01*
G01X23443855Y2157591D01*
G01X23460873Y2157591D01*
G01X23508625Y2129143D02*
G01X23611495Y2129143D01*
G01X23659247Y2197723D02*
G01X23659247Y2077581D01*
G01X23659247Y2197723D02*
G01X23710809Y2197723D01*
G01X23727827Y2191881D01*
G01X23733669Y2186293D01*
G01X23739257Y2174863D01*
G01X23739257Y2163433D01*
G01X23733669Y2152003D01*
G01X23727827Y2146161D01*
G01X23710809Y2140573D01*
G01X23659247Y2140573D02*
G01X23710809Y2140573D01*
G01X23727827Y2134731D01*
G01X23733669Y2129143D01*
G01X23739257Y2117713D01*
G01X23739257Y2100441D01*
G01X23733669Y2089011D01*
G01X23727827Y2083423D01*
G01X23710809Y2077581D01*
G01X23659247Y2077581D01*
G01X23815711Y2157591D02*
G01X23804281Y2152003D01*
G01X23792851Y2140573D01*
G01X23787009Y2123301D01*
G01X23787009Y2111871D01*
G01X23792851Y2094853D01*
G01X23804281Y2083423D01*
G01X23815711Y2077581D01*
G01X23832729Y2077581D01*
G01X23844159Y2083423D01*
G01X23855589Y2094853D01*
G01X23861431Y2111871D01*
G01X23861431Y2123301D01*
G01X23855589Y2140573D01*
G01X23844159Y2152003D01*
G01X23832729Y2157591D01*
G01X23815711Y2157591D01*
G01X23926455Y2197723D02*
G01X23926455Y2100441D01*
G01X23932043Y2083423D01*
G01X23943473Y2077581D01*
G01X23954903Y2077581D01*
G01X23909183Y2157591D02*
G01X23949315Y2157591D01*
G01X24019927Y2197723D02*
G01X24019927Y2100441D01*
G01X24025515Y2083423D01*
G01X24036945Y2077581D01*
G01X24048375Y2077581D01*
G01X24002655Y2157591D02*
G01X24042787Y2157591D01*
G01X24124829Y2157591D02*
G01X24113399Y2152003D01*
G01X24101969Y2140573D01*
G01X24096127Y2123301D01*
G01X24096127Y2111871D01*
G01X24101969Y2094853D01*
G01X24113399Y2083423D01*
G01X24124829Y2077581D01*
G01X24141847Y2077581D01*
G01X24153277Y2083423D01*
G01X24164707Y2094853D01*
G01X24170549Y2111871D01*
G01X24170549Y2123301D01*
G01X24164707Y2140573D01*
G01X24153277Y2152003D01*
G01X24141847Y2157591D01*
G01X24124829Y2157591D01*
G01X24218301Y2157591D02*
G01X24218301Y2077581D01*
G01X24218301Y2134731D02*
G01X24235573Y2152003D01*
G01X24247003Y2157591D01*
G01X24264021Y2157591D01*
G01X24275451Y2152003D01*
G01X24281293Y2134731D01*
G01X24281293Y2077581D01*
G01X24281293Y2134731D02*
G01X24298311Y2152003D01*
G01X24309741Y2157591D01*
G01X24327013Y2157591D01*
G01X24338443Y2152003D01*
G01X24344031Y2134731D01*
G01X24344031Y2077581D01*
G01X24519799Y2197723D02*
G01X24519799Y2077581D01*
G01X24519799Y2077581D02*
G01X24588379Y2077581D01*
G01X24704711Y2157591D02*
G01X24704711Y2077581D01*
G01X24704711Y2140573D02*
G01X24693281Y2152003D01*
G01X24681851Y2157591D01*
G01X24664833Y2157591D01*
G01X24653403Y2152003D01*
G01X24641973Y2140573D01*
G01X24636131Y2123301D01*
G01X24636131Y2111871D01*
G01X24641973Y2094853D01*
G01X24653403Y2083423D01*
G01X24664833Y2077581D01*
G01X24681851Y2077581D01*
G01X24693281Y2083423D01*
G01X24704711Y2094853D01*
G01X24758305Y2157591D02*
G01X24792595Y2077581D01*
G01X24826885Y2157591D02*
G01X24792595Y2077581D01*
G01X24781165Y2054721D01*
G01X24769735Y2043291D01*
G01X24758305Y2037703D01*
G01X24752463Y2037703D01*
G01X24874637Y2123301D02*
G01X24943217Y2123301D01*
G01X24943217Y2134731D01*
G01X24937629Y2146161D01*
G01X24931787Y2152003D01*
G01X24920357Y2157591D01*
G01X24903339Y2157591D01*
G01X24891909Y2152003D01*
G01X24880479Y2140573D01*
G01X24874637Y2123301D01*
G01X24874637Y2111871D01*
G01X24880479Y2094853D01*
G01X24891909Y2083423D01*
G01X24903339Y2077581D01*
G01X24920357Y2077581D01*
G01X24931787Y2083423D01*
G01X24943217Y2094853D01*
G01X24990969Y2157591D02*
G01X24990969Y2077581D01*
G01X24990969Y2123301D02*
G01X24996811Y2140573D01*
G01X25008241Y2152003D01*
G01X25019671Y2157591D01*
G01X25036689Y2157591D01*
G01X10757716Y1588450D02*
G01X10757716Y1594292D01*
G01X10763304Y1605722D01*
G01X10769146Y1611310D01*
G01X10780576Y1617152D01*
G01X10803436Y1617152D01*
G01X10814866Y1611310D01*
G01X10820454Y1605722D01*
G01X10826296Y1594292D01*
G01X10826296Y1582862D01*
G01X10820454Y1571432D01*
G01X10809024Y1554160D01*
G01X10751874Y1497010D01*
G01X10831884Y1497010D01*
G01X12223187Y1617152D02*
G01X12166037Y1537142D01*
G01X12251889Y1537142D01*
G01X12223187Y1617152D02*
G01X12223187Y1497010D01*
G01X12311071Y1617152D02*
G01X12374063Y1617152D01*
G01X12339773Y1571432D01*
G01X12356791Y1571432D01*
G01X12368221Y1565590D01*
G01X12374063Y1560002D01*
G01X12379651Y1542730D01*
G01X12379651Y1531300D01*
G01X12374063Y1514282D01*
G01X12362633Y1502852D01*
G01X12345361Y1497010D01*
G01X12328343Y1497010D01*
G01X12311071Y1502852D01*
G01X12305483Y1508440D01*
G01X12299641Y1519870D01*
G01X12433245Y1525712D02*
G01X12427403Y1519870D01*
G01X12433245Y1514282D01*
G01X12438833Y1519870D01*
G01X12433245Y1525712D01*
G01X12498015Y1617152D02*
G01X12561007Y1617152D01*
G01X12526717Y1571432D01*
G01X12543735Y1571432D01*
G01X12555165Y1565590D01*
G01X12561007Y1560002D01*
G01X12566595Y1542730D01*
G01X12566595Y1531300D01*
G01X12561007Y1514282D01*
G01X12549577Y1502852D01*
G01X12532305Y1497010D01*
G01X12515287Y1497010D01*
G01X12498015Y1502852D01*
G01X12492427Y1508440D01*
G01X12486585Y1519870D01*
G01X12614347Y1577020D02*
G01X12614347Y1497010D01*
G01X12614347Y1554160D02*
G01X12631619Y1571432D01*
G01X12643049Y1577020D01*
G01X12660067Y1577020D01*
G01X12671497Y1571432D01*
G01X12677339Y1554160D01*
G01X12677339Y1497010D01*
G01X12677339Y1554160D02*
G01X12694357Y1571432D01*
G01X12705787Y1577020D01*
G01X12723059Y1577020D01*
G01X12734489Y1571432D01*
G01X12740077Y1554160D01*
G01X12740077Y1497010D01*
G01X12787829Y1617152D02*
G01X12793671Y1611310D01*
G01X12799259Y1617152D01*
G01X12793671Y1622740D01*
G01X12787829Y1617152D01*
G01X12793671Y1577020D02*
G01X12793671Y1497010D01*
G01X12847011Y1617152D02*
G01X12847011Y1497010D01*
G01X12934895Y1640012D02*
G01X12923465Y1628582D01*
G01X12912035Y1611310D01*
G01X12900605Y1588450D01*
G01X12894763Y1560002D01*
G01X12894763Y1537142D01*
G01X12900605Y1508440D01*
G01X12912035Y1485580D01*
G01X12923465Y1468562D01*
G01X12934895Y1457132D01*
G01X12982647Y1594292D02*
G01X12994077Y1599880D01*
G01X13011349Y1617152D01*
G01X13011349Y1497010D01*
G01X13064943Y1525712D02*
G01X13059101Y1519870D01*
G01X13064943Y1514282D01*
G01X13070531Y1519870D01*
G01X13064943Y1525712D01*
G01X13118283Y1594292D02*
G01X13129713Y1599880D01*
G01X13146985Y1617152D01*
G01X13146985Y1497010D01*
G01X13229027Y1617152D02*
G01X13212009Y1611310D01*
G01X13200579Y1594292D01*
G01X13194737Y1565590D01*
G01X13194737Y1548572D01*
G01X13200579Y1519870D01*
G01X13212009Y1502852D01*
G01X13229027Y1497010D01*
G01X13240457Y1497010D01*
G01X13257729Y1502852D01*
G01X13269159Y1519870D01*
G01X13274747Y1548572D01*
G01X13274747Y1565590D01*
G01X13269159Y1594292D01*
G01X13257729Y1611310D01*
G01X13240457Y1617152D01*
G01X13229027Y1617152D01*
G01X13356789Y1617152D02*
G01X13339771Y1611310D01*
G01X13328341Y1594292D01*
G01X13322499Y1565590D01*
G01X13322499Y1548572D01*
G01X13328341Y1519870D01*
G01X13339771Y1502852D01*
G01X13356789Y1497010D01*
G01X13368219Y1497010D01*
G01X13385491Y1502852D01*
G01X13396921Y1519870D01*
G01X13402509Y1548572D01*
G01X13402509Y1565590D01*
G01X13396921Y1594292D01*
G01X13385491Y1611310D01*
G01X13368219Y1617152D01*
G01X13356789Y1617152D01*
G01X13450261Y1577020D02*
G01X13450261Y1497010D01*
G01X13450261Y1554160D02*
G01X13467533Y1571432D01*
G01X13478963Y1577020D01*
G01X13495981Y1577020D01*
G01X13507411Y1571432D01*
G01X13513253Y1554160D01*
G01X13513253Y1497010D01*
G01X13513253Y1554160D02*
G01X13530271Y1571432D01*
G01X13541701Y1577020D01*
G01X13558973Y1577020D01*
G01X13570403Y1571432D01*
G01X13575991Y1554160D01*
G01X13575991Y1497010D01*
G01X13623743Y1577020D02*
G01X13623743Y1497010D01*
G01X13623743Y1554160D02*
G01X13641015Y1571432D01*
G01X13652445Y1577020D01*
G01X13669463Y1577020D01*
G01X13680893Y1571432D01*
G01X13686735Y1554160D01*
G01X13686735Y1497010D01*
G01X13686735Y1554160D02*
G01X13703753Y1571432D01*
G01X13715183Y1577020D01*
G01X13732455Y1577020D01*
G01X13743885Y1571432D01*
G01X13749473Y1554160D01*
G01X13749473Y1497010D01*
G01X13797225Y1640012D02*
G01X13808655Y1628582D01*
G01X13820085Y1611310D01*
G01X13831515Y1588450D01*
G01X13837357Y1560002D01*
G01X13837357Y1537142D01*
G01X13831515Y1508440D01*
G01X13820085Y1485580D01*
G01X13808655Y1468562D01*
G01X13797225Y1457132D01*
G01X15968563Y1617152D02*
G01X15968563Y1497010D01*
G01X15968563Y1617152D02*
G01X16048573Y1497010D01*
G01X16048573Y1617152D02*
G01X16048573Y1497010D01*
G01X16096325Y1617152D02*
G01X16096325Y1497010D01*
G01X16096325Y1617152D02*
G01X16147887Y1617152D01*
G01X16164905Y1611310D01*
G01X16170747Y1605722D01*
G01X16176335Y1594292D01*
G01X16176335Y1577020D01*
G01X16170747Y1565590D01*
G01X16164905Y1560002D01*
G01X16147887Y1554160D01*
G01X16096325Y1554160D01*
G01X16264219Y1617152D02*
G01X16264219Y1497010D01*
G01X16224087Y1617152D02*
G01X16304097Y1617152D01*
G01X16351849Y1617152D02*
G01X16351849Y1497010D01*
G01X16431859Y1617152D02*
G01X16431859Y1497010D01*
G01X16351849Y1560002D02*
G01X16431859Y1560002D01*
G01X17429970Y1617152D02*
G01X17429970Y1497010D01*
G01X17429970Y1617152D02*
G01X17481532Y1617152D01*
G01X17498550Y1611310D01*
G01X17504392Y1605722D01*
G01X17509980Y1594292D01*
G01X17509980Y1582862D01*
G01X17504392Y1571432D01*
G01X17498550Y1565590D01*
G01X17481532Y1560002D01*
G01X17429970Y1560002D01*
G01X17470102Y1560002D02*
G01X17509980Y1497010D01*
G01X17586434Y1577020D02*
G01X17575004Y1571432D01*
G01X17563574Y1560002D01*
G01X17557732Y1542730D01*
G01X17557732Y1531300D01*
G01X17563574Y1514282D01*
G01X17575004Y1502852D01*
G01X17586434Y1497010D01*
G01X17603452Y1497010D01*
G01X17614882Y1502852D01*
G01X17626312Y1514282D01*
G01X17632154Y1531300D01*
G01X17632154Y1542730D01*
G01X17626312Y1560002D01*
G01X17614882Y1571432D01*
G01X17603452Y1577020D01*
G01X17586434Y1577020D01*
G01X17679906Y1577020D02*
G01X17679906Y1519870D01*
G01X17685748Y1502852D01*
G01X17697178Y1497010D01*
G01X17714196Y1497010D01*
G01X17725626Y1502852D01*
G01X17742898Y1519870D01*
G01X17742898Y1577020D02*
G01X17742898Y1497010D01*
G01X17790650Y1577020D02*
G01X17790650Y1497010D01*
G01X17790650Y1554160D02*
G01X17807922Y1571432D01*
G01X17819352Y1577020D01*
G01X17836370Y1577020D01*
G01X17847800Y1571432D01*
G01X17853642Y1554160D01*
G01X17853642Y1497010D01*
G01X17969974Y1617152D02*
G01X17969974Y1497010D01*
G01X17969974Y1560002D02*
G01X17958544Y1571432D01*
G01X17947114Y1577020D01*
G01X17930096Y1577020D01*
G01X17918666Y1571432D01*
G01X17907236Y1560002D01*
G01X17901394Y1542730D01*
G01X17901394Y1531300D01*
G01X17907236Y1514282D01*
G01X17918666Y1502852D01*
G01X17930096Y1497010D01*
G01X17947114Y1497010D01*
G01X17958544Y1502852D01*
G01X17969974Y1514282D01*
G01X18861151Y1617152D02*
G01X18906871Y1497010D01*
G01X18952591Y1617152D02*
G01X18906871Y1497010D01*
G01X19000343Y1617152D02*
G01X19006185Y1611310D01*
G01X19011773Y1617152D01*
G01X19006185Y1622740D01*
G01X19000343Y1617152D01*
G01X19006185Y1577020D02*
G01X19006185Y1497010D01*
G01X19128105Y1577020D02*
G01X19128105Y1497010D01*
G01X19128105Y1560002D02*
G01X19116675Y1571432D01*
G01X19105245Y1577020D01*
G01X19088227Y1577020D01*
G01X19076797Y1571432D01*
G01X19065367Y1560002D01*
G01X19059525Y1542730D01*
G01X19059525Y1531300D01*
G01X19065367Y1514282D01*
G01X19076797Y1502852D01*
G01X19088227Y1497010D01*
G01X19105245Y1497010D01*
G01X19116675Y1502852D01*
G01X19128105Y1514282D01*
G01X22489831Y1617152D02*
G01X22489831Y1497010D01*
G01X22449699Y1617152D02*
G01X22529709Y1617152D01*
G01X22606163Y1577020D02*
G01X22594733Y1571432D01*
G01X22583303Y1560002D01*
G01X22577461Y1542730D01*
G01X22577461Y1531300D01*
G01X22583303Y1514282D01*
G01X22594733Y1502852D01*
G01X22606163Y1497010D01*
G01X22623181Y1497010D01*
G01X22634611Y1502852D01*
G01X22646041Y1514282D01*
G01X22651883Y1531300D01*
G01X22651883Y1542730D01*
G01X22646041Y1560002D01*
G01X22634611Y1571432D01*
G01X22623181Y1577020D01*
G01X22606163Y1577020D01*
G01X22699635Y1577020D02*
G01X22699635Y1457132D01*
G01X22699635Y1560002D02*
G01X22711065Y1571432D01*
G01X22722495Y1577020D01*
G01X22739767Y1577020D01*
G01X22751197Y1571432D01*
G01X22762627Y1560002D01*
G01X22768215Y1542730D01*
G01X22768215Y1531300D01*
G01X22762627Y1514282D01*
G01X22751197Y1502852D01*
G01X22739767Y1497010D01*
G01X22722495Y1497010D01*
G01X22711065Y1502852D01*
G01X22699635Y1514282D01*
G01X22943983Y1617152D02*
G01X22943983Y1497010D01*
G01X22943983Y1497010D02*
G01X23012563Y1497010D01*
G01X23128895Y1577020D02*
G01X23128895Y1497010D01*
G01X23128895Y1560002D02*
G01X23117465Y1571432D01*
G01X23106035Y1577020D01*
G01X23089017Y1577020D01*
G01X23077587Y1571432D01*
G01X23066157Y1560002D01*
G01X23060315Y1542730D01*
G01X23060315Y1531300D01*
G01X23066157Y1514282D01*
G01X23077587Y1502852D01*
G01X23089017Y1497010D01*
G01X23106035Y1497010D01*
G01X23117465Y1502852D01*
G01X23128895Y1514282D01*
G01X23182489Y1577020D02*
G01X23216779Y1497010D01*
G01X23251069Y1577020D02*
G01X23216779Y1497010D01*
G01X23205349Y1474150D01*
G01X23193919Y1462720D01*
G01X23182489Y1457132D01*
G01X23176647Y1457132D01*
G01X23298821Y1542730D02*
G01X23367401Y1542730D01*
G01X23367401Y1554160D01*
G01X23361813Y1565590D01*
G01X23355971Y1571432D01*
G01X23344541Y1577020D01*
G01X23327523Y1577020D01*
G01X23316093Y1571432D01*
G01X23304663Y1560002D01*
G01X23298821Y1542730D01*
G01X23298821Y1531300D01*
G01X23304663Y1514282D01*
G01X23316093Y1502852D01*
G01X23327523Y1497010D01*
G01X23344541Y1497010D01*
G01X23355971Y1502852D01*
G01X23367401Y1514282D01*
G01X23415153Y1577020D02*
G01X23415153Y1497010D01*
G01X23415153Y1542730D02*
G01X23420995Y1560002D01*
G01X23432425Y1571432D01*
G01X23443855Y1577020D01*
G01X23460873Y1577020D01*
G01X23508625Y1548572D02*
G01X23611495Y1548572D01*
G01X23659247Y1617152D02*
G01X23659247Y1497010D01*
G01X23659247Y1617152D02*
G01X23710809Y1617152D01*
G01X23727827Y1611310D01*
G01X23733669Y1605722D01*
G01X23739257Y1594292D01*
G01X23739257Y1582862D01*
G01X23733669Y1571432D01*
G01X23727827Y1565590D01*
G01X23710809Y1560002D01*
G01X23659247Y1560002D02*
G01X23710809Y1560002D01*
G01X23727827Y1554160D01*
G01X23733669Y1548572D01*
G01X23739257Y1537142D01*
G01X23739257Y1519870D01*
G01X23733669Y1508440D01*
G01X23727827Y1502852D01*
G01X23710809Y1497010D01*
G01X23659247Y1497010D01*
G01X23815711Y1577020D02*
G01X23804281Y1571432D01*
G01X23792851Y1560002D01*
G01X23787009Y1542730D01*
G01X23787009Y1531300D01*
G01X23792851Y1514282D01*
G01X23804281Y1502852D01*
G01X23815711Y1497010D01*
G01X23832729Y1497010D01*
G01X23844159Y1502852D01*
G01X23855589Y1514282D01*
G01X23861431Y1531300D01*
G01X23861431Y1542730D01*
G01X23855589Y1560002D01*
G01X23844159Y1571432D01*
G01X23832729Y1577020D01*
G01X23815711Y1577020D01*
G01X23926455Y1617152D02*
G01X23926455Y1519870D01*
G01X23932043Y1502852D01*
G01X23943473Y1497010D01*
G01X23954903Y1497010D01*
G01X23909183Y1577020D02*
G01X23949315Y1577020D01*
G01X24019927Y1617152D02*
G01X24019927Y1519870D01*
G01X24025515Y1502852D01*
G01X24036945Y1497010D01*
G01X24048375Y1497010D01*
G01X24002655Y1577020D02*
G01X24042787Y1577020D01*
G01X24124829Y1577020D02*
G01X24113399Y1571432D01*
G01X24101969Y1560002D01*
G01X24096127Y1542730D01*
G01X24096127Y1531300D01*
G01X24101969Y1514282D01*
G01X24113399Y1502852D01*
G01X24124829Y1497010D01*
G01X24141847Y1497010D01*
G01X24153277Y1502852D01*
G01X24164707Y1514282D01*
G01X24170549Y1531300D01*
G01X24170549Y1542730D01*
G01X24164707Y1560002D01*
G01X24153277Y1571432D01*
G01X24141847Y1577020D01*
G01X24124829Y1577020D01*
G01X24218301Y1577020D02*
G01X24218301Y1497010D01*
G01X24218301Y1554160D02*
G01X24235573Y1571432D01*
G01X24247003Y1577020D01*
G01X24264021Y1577020D01*
G01X24275451Y1571432D01*
G01X24281293Y1554160D01*
G01X24281293Y1497010D01*
G01X24281293Y1554160D02*
G01X24298311Y1571432D01*
G01X24309741Y1577020D01*
G01X24327013Y1577020D01*
G01X24338443Y1571432D01*
G01X24344031Y1554160D01*
G01X24344031Y1497010D01*
G01X24519799Y1617152D02*
G01X24519799Y1497010D01*
G01X24519799Y1497010D02*
G01X24588379Y1497010D01*
G01X24704711Y1577020D02*
G01X24704711Y1497010D01*
G01X24704711Y1560002D02*
G01X24693281Y1571432D01*
G01X24681851Y1577020D01*
G01X24664833Y1577020D01*
G01X24653403Y1571432D01*
G01X24641973Y1560002D01*
G01X24636131Y1542730D01*
G01X24636131Y1531300D01*
G01X24641973Y1514282D01*
G01X24653403Y1502852D01*
G01X24664833Y1497010D01*
G01X24681851Y1497010D01*
G01X24693281Y1502852D01*
G01X24704711Y1514282D01*
G01X24758305Y1577020D02*
G01X24792595Y1497010D01*
G01X24826885Y1577020D02*
G01X24792595Y1497010D01*
G01X24781165Y1474150D01*
G01X24769735Y1462720D01*
G01X24758305Y1457132D01*
G01X24752463Y1457132D01*
G01X24874637Y1542730D02*
G01X24943217Y1542730D01*
G01X24943217Y1554160D01*
G01X24937629Y1565590D01*
G01X24931787Y1571432D01*
G01X24920357Y1577020D01*
G01X24903339Y1577020D01*
G01X24891909Y1571432D01*
G01X24880479Y1560002D01*
G01X24874637Y1542730D01*
G01X24874637Y1531300D01*
G01X24880479Y1514282D01*
G01X24891909Y1502852D01*
G01X24903339Y1497010D01*
G01X24920357Y1497010D01*
G01X24931787Y1502852D01*
G01X24943217Y1514282D01*
G01X24990969Y1577020D02*
G01X24990969Y1497010D01*
G01X24990969Y1542730D02*
G01X24996811Y1560002D01*
G01X25008241Y1571432D01*
G01X25019671Y1577020D01*
G01X25036689Y1577020D01*
G01X10820454Y1036580D02*
G01X10763304Y1036580D01*
G01X10757716Y985018D01*
G01X10763304Y990860D01*
G01X10780576Y996448D01*
G01X10797594Y996448D01*
G01X10814866Y990860D01*
G01X10826296Y979430D01*
G01X10831884Y962158D01*
G01X10831884Y950728D01*
G01X10826296Y933710D01*
G01X10814866Y922280D01*
G01X10797594Y916438D01*
G01X10780576Y916438D01*
G01X10763304Y922280D01*
G01X10757716Y927868D01*
G01X10751874Y939298D01*
G01X12223187Y1036580D02*
G01X12166037Y956570D01*
G01X12251889Y956570D01*
G01X12223187Y1036580D02*
G01X12223187Y916438D01*
G01X12311071Y1036580D02*
G01X12374063Y1036580D01*
G01X12339773Y990860D01*
G01X12356791Y990860D01*
G01X12368221Y985018D01*
G01X12374063Y979430D01*
G01X12379651Y962158D01*
G01X12379651Y950728D01*
G01X12374063Y933710D01*
G01X12362633Y922280D01*
G01X12345361Y916438D01*
G01X12328343Y916438D01*
G01X12311071Y922280D01*
G01X12305483Y927868D01*
G01X12299641Y939298D01*
G01X12433245Y945140D02*
G01X12427403Y939298D01*
G01X12433245Y933710D01*
G01X12438833Y939298D01*
G01X12433245Y945140D01*
G01X12498015Y1036580D02*
G01X12561007Y1036580D01*
G01X12526717Y990860D01*
G01X12543735Y990860D01*
G01X12555165Y985018D01*
G01X12561007Y979430D01*
G01X12566595Y962158D01*
G01X12566595Y950728D01*
G01X12561007Y933710D01*
G01X12549577Y922280D01*
G01X12532305Y916438D01*
G01X12515287Y916438D01*
G01X12498015Y922280D01*
G01X12492427Y927868D01*
G01X12486585Y939298D01*
G01X12614347Y996448D02*
G01X12677339Y916438D01*
G01X12677339Y996448D02*
G01X12614347Y916438D01*
G01X12782241Y1036580D02*
G01X12725091Y956570D01*
G01X12810943Y956570D01*
G01X12782241Y1036580D02*
G01X12782241Y916438D01*
G01X12870125Y1036580D02*
G01X12933117Y1036580D01*
G01X12898827Y990860D01*
G01X12915845Y990860D01*
G01X12927275Y985018D01*
G01X12933117Y979430D01*
G01X12938705Y962158D01*
G01X12938705Y950728D01*
G01X12933117Y933710D01*
G01X12921687Y922280D01*
G01X12904415Y916438D01*
G01X12887397Y916438D01*
G01X12870125Y922280D01*
G01X12864537Y927868D01*
G01X12858695Y939298D01*
G01X12992299Y945140D02*
G01X12986457Y939298D01*
G01X12992299Y933710D01*
G01X12997887Y939298D01*
G01X12992299Y945140D01*
G01X13057069Y1036580D02*
G01X13120061Y1036580D01*
G01X13085771Y990860D01*
G01X13102789Y990860D01*
G01X13114219Y985018D01*
G01X13120061Y979430D01*
G01X13125649Y962158D01*
G01X13125649Y950728D01*
G01X13120061Y933710D01*
G01X13108631Y922280D01*
G01X13091359Y916438D01*
G01X13074341Y916438D01*
G01X13057069Y922280D01*
G01X13051481Y927868D01*
G01X13045639Y939298D01*
G01X13173401Y996448D02*
G01X13173401Y916438D01*
G01X13173401Y973588D02*
G01X13190673Y990860D01*
G01X13202103Y996448D01*
G01X13219121Y996448D01*
G01X13230551Y990860D01*
G01X13236393Y973588D01*
G01X13236393Y916438D01*
G01X13236393Y973588D02*
G01X13253411Y990860D01*
G01X13264841Y996448D01*
G01X13282113Y996448D01*
G01X13293543Y990860D01*
G01X13299131Y973588D01*
G01X13299131Y916438D01*
G01X13346883Y1036580D02*
G01X13352725Y1030738D01*
G01X13358313Y1036580D01*
G01X13352725Y1042168D01*
G01X13346883Y1036580D01*
G01X13352725Y996448D02*
G01X13352725Y916438D01*
G01X13406065Y1036580D02*
G01X13406065Y916438D01*
G01X13493949Y1059440D02*
G01X13482519Y1048010D01*
G01X13471089Y1030738D01*
G01X13459659Y1007878D01*
G01X13453817Y979430D01*
G01X13453817Y956570D01*
G01X13459659Y927868D01*
G01X13471089Y905008D01*
G01X13482519Y887990D01*
G01X13493949Y876560D01*
G01X13541701Y1013720D02*
G01X13553131Y1019308D01*
G01X13570403Y1036580D01*
G01X13570403Y916438D01*
G01X13623997Y945140D02*
G01X13618155Y939298D01*
G01X13623997Y933710D01*
G01X13629585Y939298D01*
G01X13623997Y945140D01*
G01X13677337Y1013720D02*
G01X13688767Y1019308D01*
G01X13706039Y1036580D01*
G01X13706039Y916438D01*
G01X13788081Y1036580D02*
G01X13771063Y1030738D01*
G01X13759633Y1013720D01*
G01X13753791Y985018D01*
G01X13753791Y968000D01*
G01X13759633Y939298D01*
G01X13771063Y922280D01*
G01X13788081Y916438D01*
G01X13799511Y916438D01*
G01X13816783Y922280D01*
G01X13828213Y939298D01*
G01X13833801Y968000D01*
G01X13833801Y985018D01*
G01X13828213Y1013720D01*
G01X13816783Y1030738D01*
G01X13799511Y1036580D01*
G01X13788081Y1036580D01*
G01X13915843Y1036580D02*
G01X13898825Y1030738D01*
G01X13887395Y1013720D01*
G01X13881553Y985018D01*
G01X13881553Y968000D01*
G01X13887395Y939298D01*
G01X13898825Y922280D01*
G01X13915843Y916438D01*
G01X13927273Y916438D01*
G01X13944545Y922280D01*
G01X13955975Y939298D01*
G01X13961563Y968000D01*
G01X13961563Y985018D01*
G01X13955975Y1013720D01*
G01X13944545Y1030738D01*
G01X13927273Y1036580D01*
G01X13915843Y1036580D01*
G01X14009315Y996448D02*
G01X14072307Y916438D01*
G01X14072307Y996448D02*
G01X14009315Y916438D01*
G01X14120059Y1013720D02*
G01X14131489Y1019308D01*
G01X14148761Y1036580D01*
G01X14148761Y916438D01*
G01X14202355Y945140D02*
G01X14196513Y939298D01*
G01X14202355Y933710D01*
G01X14207943Y939298D01*
G01X14202355Y945140D01*
G01X14255695Y1013720D02*
G01X14267125Y1019308D01*
G01X14284397Y1036580D01*
G01X14284397Y916438D01*
G01X14366439Y1036580D02*
G01X14349421Y1030738D01*
G01X14337991Y1013720D01*
G01X14332149Y985018D01*
G01X14332149Y968000D01*
G01X14337991Y939298D01*
G01X14349421Y922280D01*
G01X14366439Y916438D01*
G01X14377869Y916438D01*
G01X14395141Y922280D01*
G01X14406571Y939298D01*
G01X14412159Y968000D01*
G01X14412159Y985018D01*
G01X14406571Y1013720D01*
G01X14395141Y1030738D01*
G01X14377869Y1036580D01*
G01X14366439Y1036580D01*
G01X14494201Y1036580D02*
G01X14477183Y1030738D01*
G01X14465753Y1013720D01*
G01X14459911Y985018D01*
G01X14459911Y968000D01*
G01X14465753Y939298D01*
G01X14477183Y922280D01*
G01X14494201Y916438D01*
G01X14505631Y916438D01*
G01X14522903Y922280D01*
G01X14534333Y939298D01*
G01X14539921Y968000D01*
G01X14539921Y985018D01*
G01X14534333Y1013720D01*
G01X14522903Y1030738D01*
G01X14505631Y1036580D01*
G01X14494201Y1036580D01*
G01X14587673Y996448D02*
G01X14587673Y916438D01*
G01X14587673Y973588D02*
G01X14604945Y990860D01*
G01X14616375Y996448D01*
G01X14633393Y996448D01*
G01X14644823Y990860D01*
G01X14650665Y973588D01*
G01X14650665Y916438D01*
G01X14650665Y973588D02*
G01X14667683Y990860D01*
G01X14679113Y996448D01*
G01X14696385Y996448D01*
G01X14707815Y990860D01*
G01X14713403Y973588D01*
G01X14713403Y916438D01*
G01X14761155Y996448D02*
G01X14761155Y916438D01*
G01X14761155Y973588D02*
G01X14778427Y990860D01*
G01X14789857Y996448D01*
G01X14806875Y996448D01*
G01X14818305Y990860D01*
G01X14824147Y973588D01*
G01X14824147Y916438D01*
G01X14824147Y973588D02*
G01X14841165Y990860D01*
G01X14852595Y996448D01*
G01X14869867Y996448D01*
G01X14881297Y990860D01*
G01X14886885Y973588D01*
G01X14886885Y916438D01*
G01X14934637Y1059440D02*
G01X14946067Y1048010D01*
G01X14957497Y1030738D01*
G01X14968927Y1007878D01*
G01X14974769Y979430D01*
G01X14974769Y956570D01*
G01X14968927Y927868D01*
G01X14957497Y905008D01*
G01X14946067Y887990D01*
G01X14934637Y876560D01*
G01X15968563Y1036580D02*
G01X15968563Y916438D01*
G01X15968563Y1036580D02*
G01X16020125Y1036580D01*
G01X16037143Y1030738D01*
G01X16042985Y1025150D01*
G01X16048573Y1013720D01*
G01X16048573Y996448D01*
G01X16042985Y985018D01*
G01X16037143Y979430D01*
G01X16020125Y973588D01*
G01X15968563Y973588D01*
G01X16136457Y1036580D02*
G01X16136457Y916438D01*
G01X16096325Y1036580D02*
G01X16176335Y1036580D01*
G01X16224087Y1036580D02*
G01X16224087Y916438D01*
G01X16304097Y1036580D02*
G01X16304097Y916438D01*
G01X16224087Y979430D02*
G01X16304097Y979430D01*
G01X17429970Y1036580D02*
G01X17429970Y916438D01*
G01X17429970Y1036580D02*
G01X17481532Y1036580D01*
G01X17498550Y1030738D01*
G01X17504392Y1025150D01*
G01X17509980Y1013720D01*
G01X17509980Y1002290D01*
G01X17504392Y990860D01*
G01X17498550Y985018D01*
G01X17481532Y979430D01*
G01X17429970Y979430D01*
G01X17470102Y979430D02*
G01X17509980Y916438D01*
G01X17586434Y996448D02*
G01X17575004Y990860D01*
G01X17563574Y979430D01*
G01X17557732Y962158D01*
G01X17557732Y950728D01*
G01X17563574Y933710D01*
G01X17575004Y922280D01*
G01X17586434Y916438D01*
G01X17603452Y916438D01*
G01X17614882Y922280D01*
G01X17626312Y933710D01*
G01X17632154Y950728D01*
G01X17632154Y962158D01*
G01X17626312Y979430D01*
G01X17614882Y990860D01*
G01X17603452Y996448D01*
G01X17586434Y996448D01*
G01X17679906Y996448D02*
G01X17679906Y939298D01*
G01X17685748Y922280D01*
G01X17697178Y916438D01*
G01X17714196Y916438D01*
G01X17725626Y922280D01*
G01X17742898Y939298D01*
G01X17742898Y996448D02*
G01X17742898Y916438D01*
G01X17790650Y996448D02*
G01X17790650Y916438D01*
G01X17790650Y973588D02*
G01X17807922Y990860D01*
G01X17819352Y996448D01*
G01X17836370Y996448D01*
G01X17847800Y990860D01*
G01X17853642Y973588D01*
G01X17853642Y916438D01*
G01X17969974Y1036580D02*
G01X17969974Y916438D01*
G01X17969974Y979430D02*
G01X17958544Y990860D01*
G01X17947114Y996448D01*
G01X17930096Y996448D01*
G01X17918666Y990860D01*
G01X17907236Y979430D01*
G01X17901394Y962158D01*
G01X17901394Y950728D01*
G01X17907236Y933710D01*
G01X17918666Y922280D01*
G01X17930096Y916438D01*
G01X17947114Y916438D01*
G01X17958544Y922280D01*
G01X17969974Y933710D01*
G01X18861151Y1036580D02*
G01X18861151Y916438D01*
G01X18861151Y1036580D02*
G01X18912713Y1036580D01*
G01X18929731Y1030738D01*
G01X18935573Y1025150D01*
G01X18941161Y1013720D01*
G01X18941161Y996448D01*
G01X18935573Y985018D01*
G01X18929731Y979430D01*
G01X18912713Y973588D01*
G01X18861151Y973588D01*
G01X19057493Y996448D02*
G01X19057493Y916438D01*
G01X19057493Y979430D02*
G01X19046063Y990860D01*
G01X19034633Y996448D01*
G01X19017615Y996448D01*
G01X19006185Y990860D01*
G01X18994755Y979430D01*
G01X18988913Y962158D01*
G01X18988913Y950728D01*
G01X18994755Y933710D01*
G01X19006185Y922280D01*
G01X19017615Y916438D01*
G01X19034633Y916438D01*
G01X19046063Y922280D01*
G01X19057493Y933710D01*
G01X19173825Y1036580D02*
G01X19173825Y916438D01*
G01X19173825Y979430D02*
G01X19162395Y990860D01*
G01X19150965Y996448D01*
G01X19133947Y996448D01*
G01X19122517Y990860D01*
G01X19111087Y979430D01*
G01X19105245Y962158D01*
G01X19105245Y950728D01*
G01X19111087Y933710D01*
G01X19122517Y922280D01*
G01X19133947Y916438D01*
G01X19150965Y916438D01*
G01X19162395Y922280D01*
G01X19173825Y933710D01*
G01X20570462Y1059440D02*
G01X20559032Y1048010D01*
G01X20547602Y1030738D01*
G01X20536172Y1007878D01*
G01X20530330Y979430D01*
G01X20530330Y956570D01*
G01X20536172Y927868D01*
G01X20547602Y905008D01*
G01X20559032Y887990D01*
G01X20570462Y876560D01*
G01X20618214Y1036580D02*
G01X20618214Y916438D01*
G01X20618214Y1036580D02*
G01X20663934Y916438D01*
G01X20709654Y1036580D02*
G01X20663934Y916438D01*
G01X20709654Y1036580D02*
G01X20709654Y916438D01*
G01X20757406Y1036580D02*
G01X20763248Y1030738D01*
G01X20768836Y1036580D01*
G01X20763248Y1042168D01*
G01X20757406Y1036580D01*
G01X20763248Y996448D02*
G01X20763248Y916438D01*
G01X20816588Y996448D02*
G01X20879580Y916438D01*
G01X20879580Y996448D02*
G01X20816588Y916438D01*
G01X20927332Y962158D02*
G01X20995912Y962158D01*
G01X20995912Y973588D01*
G01X20990324Y985018D01*
G01X20984482Y990860D01*
G01X20973052Y996448D01*
G01X20956034Y996448D01*
G01X20944604Y990860D01*
G01X20933174Y979430D01*
G01X20927332Y962158D01*
G01X20927332Y950728D01*
G01X20933174Y933710D01*
G01X20944604Y922280D01*
G01X20956034Y916438D01*
G01X20973052Y916438D01*
G01X20984482Y922280D01*
G01X20995912Y933710D01*
G01X21112244Y1036580D02*
G01X21112244Y916438D01*
G01X21112244Y979430D02*
G01X21100814Y990860D01*
G01X21089384Y996448D01*
G01X21072366Y996448D01*
G01X21060936Y990860D01*
G01X21049506Y979430D01*
G01X21043664Y962158D01*
G01X21043664Y950728D01*
G01X21049506Y933710D01*
G01X21060936Y922280D01*
G01X21072366Y916438D01*
G01X21089384Y916438D01*
G01X21100814Y922280D01*
G01X21112244Y933710D01*
G01X21159996Y1059440D02*
G01X21171426Y1048010D01*
G01X21182856Y1030738D01*
G01X21194286Y1007878D01*
G01X21200128Y979430D01*
G01X21200128Y956570D01*
G01X21194286Y927868D01*
G01X21182856Y905008D01*
G01X21171426Y887990D01*
G01X21159996Y876560D01*
G01X22489831Y1036580D02*
G01X22489831Y916438D01*
G01X22449699Y1036580D02*
G01X22529709Y1036580D01*
G01X22606163Y996448D02*
G01X22594733Y990860D01*
G01X22583303Y979430D01*
G01X22577461Y962158D01*
G01X22577461Y950728D01*
G01X22583303Y933710D01*
G01X22594733Y922280D01*
G01X22606163Y916438D01*
G01X22623181Y916438D01*
G01X22634611Y922280D01*
G01X22646041Y933710D01*
G01X22651883Y950728D01*
G01X22651883Y962158D01*
G01X22646041Y979430D01*
G01X22634611Y990860D01*
G01X22623181Y996448D01*
G01X22606163Y996448D01*
G01X22699635Y996448D02*
G01X22699635Y876560D01*
G01X22699635Y979430D02*
G01X22711065Y990860D01*
G01X22722495Y996448D01*
G01X22739767Y996448D01*
G01X22751197Y990860D01*
G01X22762627Y979430D01*
G01X22768215Y962158D01*
G01X22768215Y950728D01*
G01X22762627Y933710D01*
G01X22751197Y922280D01*
G01X22739767Y916438D01*
G01X22722495Y916438D01*
G01X22711065Y922280D01*
G01X22699635Y933710D01*
G01X22943983Y1036580D02*
G01X22943983Y916438D01*
G01X22943983Y916438D02*
G01X23012563Y916438D01*
G01X23128895Y996448D02*
G01X23128895Y916438D01*
G01X23128895Y979430D02*
G01X23117465Y990860D01*
G01X23106035Y996448D01*
G01X23089017Y996448D01*
G01X23077587Y990860D01*
G01X23066157Y979430D01*
G01X23060315Y962158D01*
G01X23060315Y950728D01*
G01X23066157Y933710D01*
G01X23077587Y922280D01*
G01X23089017Y916438D01*
G01X23106035Y916438D01*
G01X23117465Y922280D01*
G01X23128895Y933710D01*
G01X23182489Y996448D02*
G01X23216779Y916438D01*
G01X23251069Y996448D02*
G01X23216779Y916438D01*
G01X23205349Y893578D01*
G01X23193919Y882148D01*
G01X23182489Y876560D01*
G01X23176647Y876560D01*
G01X23298821Y962158D02*
G01X23367401Y962158D01*
G01X23367401Y973588D01*
G01X23361813Y985018D01*
G01X23355971Y990860D01*
G01X23344541Y996448D01*
G01X23327523Y996448D01*
G01X23316093Y990860D01*
G01X23304663Y979430D01*
G01X23298821Y962158D01*
G01X23298821Y950728D01*
G01X23304663Y933710D01*
G01X23316093Y922280D01*
G01X23327523Y916438D01*
G01X23344541Y916438D01*
G01X23355971Y922280D01*
G01X23367401Y933710D01*
G01X23415153Y996448D02*
G01X23415153Y916438D01*
G01X23415153Y962158D02*
G01X23420995Y979430D01*
G01X23432425Y990860D01*
G01X23443855Y996448D01*
G01X23460873Y996448D01*
G01X23508625Y968000D02*
G01X23611495Y968000D01*
G01X23659247Y1036580D02*
G01X23659247Y916438D01*
G01X23659247Y1036580D02*
G01X23710809Y1036580D01*
G01X23727827Y1030738D01*
G01X23733669Y1025150D01*
G01X23739257Y1013720D01*
G01X23739257Y1002290D01*
G01X23733669Y990860D01*
G01X23727827Y985018D01*
G01X23710809Y979430D01*
G01X23659247Y979430D02*
G01X23710809Y979430D01*
G01X23727827Y973588D01*
G01X23733669Y968000D01*
G01X23739257Y956570D01*
G01X23739257Y939298D01*
G01X23733669Y927868D01*
G01X23727827Y922280D01*
G01X23710809Y916438D01*
G01X23659247Y916438D01*
G01X23815711Y996448D02*
G01X23804281Y990860D01*
G01X23792851Y979430D01*
G01X23787009Y962158D01*
G01X23787009Y950728D01*
G01X23792851Y933710D01*
G01X23804281Y922280D01*
G01X23815711Y916438D01*
G01X23832729Y916438D01*
G01X23844159Y922280D01*
G01X23855589Y933710D01*
G01X23861431Y950728D01*
G01X23861431Y962158D01*
G01X23855589Y979430D01*
G01X23844159Y990860D01*
G01X23832729Y996448D01*
G01X23815711Y996448D01*
G01X23926455Y1036580D02*
G01X23926455Y939298D01*
G01X23932043Y922280D01*
G01X23943473Y916438D01*
G01X23954903Y916438D01*
G01X23909183Y996448D02*
G01X23949315Y996448D01*
G01X24019927Y1036580D02*
G01X24019927Y939298D01*
G01X24025515Y922280D01*
G01X24036945Y916438D01*
G01X24048375Y916438D01*
G01X24002655Y996448D02*
G01X24042787Y996448D01*
G01X24124829Y996448D02*
G01X24113399Y990860D01*
G01X24101969Y979430D01*
G01X24096127Y962158D01*
G01X24096127Y950728D01*
G01X24101969Y933710D01*
G01X24113399Y922280D01*
G01X24124829Y916438D01*
G01X24141847Y916438D01*
G01X24153277Y922280D01*
G01X24164707Y933710D01*
G01X24170549Y950728D01*
G01X24170549Y962158D01*
G01X24164707Y979430D01*
G01X24153277Y990860D01*
G01X24141847Y996448D01*
G01X24124829Y996448D01*
G01X24218301Y996448D02*
G01X24218301Y916438D01*
G01X24218301Y973588D02*
G01X24235573Y990860D01*
G01X24247003Y996448D01*
G01X24264021Y996448D01*
G01X24275451Y990860D01*
G01X24281293Y973588D01*
G01X24281293Y916438D01*
G01X24281293Y973588D02*
G01X24298311Y990860D01*
G01X24309741Y996448D01*
G01X24327013Y996448D01*
G01X24338443Y990860D01*
G01X24344031Y973588D01*
G01X24344031Y916438D01*
G01X24519799Y1036580D02*
G01X24519799Y916438D01*
G01X24519799Y916438D02*
G01X24588379Y916438D01*
G01X24704711Y996448D02*
G01X24704711Y916438D01*
G01X24704711Y979430D02*
G01X24693281Y990860D01*
G01X24681851Y996448D01*
G01X24664833Y996448D01*
G01X24653403Y990860D01*
G01X24641973Y979430D01*
G01X24636131Y962158D01*
G01X24636131Y950728D01*
G01X24641973Y933710D01*
G01X24653403Y922280D01*
G01X24664833Y916438D01*
G01X24681851Y916438D01*
G01X24693281Y922280D01*
G01X24704711Y933710D01*
G01X24758305Y996448D02*
G01X24792595Y916438D01*
G01X24826885Y996448D02*
G01X24792595Y916438D01*
G01X24781165Y893578D01*
G01X24769735Y882148D01*
G01X24758305Y876560D01*
G01X24752463Y876560D01*
G01X24874637Y962158D02*
G01X24943217Y962158D01*
G01X24943217Y973588D01*
G01X24937629Y985018D01*
G01X24931787Y990860D01*
G01X24920357Y996448D01*
G01X24903339Y996448D01*
G01X24891909Y990860D01*
G01X24880479Y979430D01*
G01X24874637Y962158D01*
G01X24874637Y950728D01*
G01X24880479Y933710D01*
G01X24891909Y922280D01*
G01X24903339Y916438D01*
G01X24920357Y916438D01*
G01X24931787Y922280D01*
G01X24943217Y933710D01*
G01X24990969Y996448D02*
G01X24990969Y916438D01*
G01X24990969Y962158D02*
G01X24996811Y979430D01*
G01X25008241Y990860D01*
G01X25019671Y996448D01*
G01X25036689Y996448D01*
G01X10751874Y433149D02*
G01X10763304Y438737D01*
G01X10780576Y456009D01*
G01X10780576Y335867D01*
G01X10862618Y456009D02*
G01X10845600Y450167D01*
G01X10834170Y433149D01*
G01X10828328Y404447D01*
G01X10828328Y387429D01*
G01X10834170Y358727D01*
G01X10845600Y341709D01*
G01X10862618Y335867D01*
G01X10874048Y335867D01*
G01X10891320Y341709D01*
G01X10902750Y358727D01*
G01X10908338Y387429D01*
G01X10908338Y404447D01*
G01X10902750Y433149D01*
G01X10891320Y450167D01*
G01X10874048Y456009D01*
G01X10862618Y456009D01*
G01X12177467Y456009D02*
G01X12240459Y456009D01*
G01X12206169Y410289D01*
G01X12223187Y410289D01*
G01X12234617Y404447D01*
G01X12240459Y398859D01*
G01X12246047Y381587D01*
G01X12246047Y370157D01*
G01X12240459Y353139D01*
G01X12229029Y341709D01*
G01X12211757Y335867D01*
G01X12194739Y335867D01*
G01X12177467Y341709D01*
G01X12171879Y347297D01*
G01X12166037Y358727D01*
G01X12368221Y415877D02*
G01X12362379Y398859D01*
G01X12350949Y387429D01*
G01X12333931Y381587D01*
G01X12328089Y381587D01*
G01X12311071Y387429D01*
G01X12299641Y398859D01*
G01X12293799Y415877D01*
G01X12293799Y421719D01*
G01X12299641Y438737D01*
G01X12311071Y450167D01*
G01X12328089Y456009D01*
G01X12333931Y456009D01*
G01X12350949Y450167D01*
G01X12362379Y438737D01*
G01X12368221Y415877D01*
G01X12368221Y387429D01*
G01X12362379Y358727D01*
G01X12350949Y341709D01*
G01X12333931Y335867D01*
G01X12322501Y335867D01*
G01X12305229Y341709D01*
G01X12299641Y353139D01*
G01X12421815Y364569D02*
G01X12415973Y358727D01*
G01X12421815Y353139D01*
G01X12427403Y358727D01*
G01X12421815Y364569D01*
G01X12532305Y456009D02*
G01X12475155Y375999D01*
G01X12561007Y375999D01*
G01X12532305Y456009D02*
G01X12532305Y335867D01*
G01X12608759Y415877D02*
G01X12671751Y335867D01*
G01X12671751Y415877D02*
G01X12608759Y335867D01*
G01X12730933Y456009D02*
G01X12793925Y456009D01*
G01X12759635Y410289D01*
G01X12776653Y410289D01*
G01X12788083Y404447D01*
G01X12793925Y398859D01*
G01X12799513Y381587D01*
G01X12799513Y370157D01*
G01X12793925Y353139D01*
G01X12782495Y341709D01*
G01X12765223Y335867D01*
G01X12748205Y335867D01*
G01X12730933Y341709D01*
G01X12725345Y347297D01*
G01X12719503Y358727D01*
G01X12921687Y415877D02*
G01X12915845Y398859D01*
G01X12904415Y387429D01*
G01X12887397Y381587D01*
G01X12881555Y381587D01*
G01X12864537Y387429D01*
G01X12853107Y398859D01*
G01X12847265Y415877D01*
G01X12847265Y421719D01*
G01X12853107Y438737D01*
G01X12864537Y450167D01*
G01X12881555Y456009D01*
G01X12887397Y456009D01*
G01X12904415Y450167D01*
G01X12915845Y438737D01*
G01X12921687Y415877D01*
G01X12921687Y387429D01*
G01X12915845Y358727D01*
G01X12904415Y341709D01*
G01X12887397Y335867D01*
G01X12875967Y335867D01*
G01X12858695Y341709D01*
G01X12853107Y353139D01*
G01X12975281Y364569D02*
G01X12969439Y358727D01*
G01X12975281Y353139D01*
G01X12980869Y358727D01*
G01X12975281Y364569D01*
G01X13085771Y456009D02*
G01X13028621Y375999D01*
G01X13114473Y375999D01*
G01X13085771Y456009D02*
G01X13085771Y335867D01*
G01X13162225Y415877D02*
G01X13162225Y335867D01*
G01X13162225Y393017D02*
G01X13179497Y410289D01*
G01X13190927Y415877D01*
G01X13207945Y415877D01*
G01X13219375Y410289D01*
G01X13225217Y393017D01*
G01X13225217Y335867D01*
G01X13225217Y393017D02*
G01X13242235Y410289D01*
G01X13253665Y415877D01*
G01X13270937Y415877D01*
G01X13282367Y410289D01*
G01X13287955Y393017D01*
G01X13287955Y335867D01*
G01X13335707Y456009D02*
G01X13341549Y450167D01*
G01X13347137Y456009D01*
G01X13341549Y461597D01*
G01X13335707Y456009D01*
G01X13341549Y415877D02*
G01X13341549Y335867D01*
G01X13394889Y456009D02*
G01X13394889Y335867D01*
G01X13482773Y478869D02*
G01X13471343Y467439D01*
G01X13459913Y450167D01*
G01X13448483Y427307D01*
G01X13442641Y398859D01*
G01X13442641Y375999D01*
G01X13448483Y347297D01*
G01X13459913Y324437D01*
G01X13471343Y307419D01*
G01X13482773Y295989D01*
G01X13530525Y433149D02*
G01X13541955Y438737D01*
G01X13559227Y456009D01*
G01X13559227Y335867D01*
G01X13612821Y364569D02*
G01X13606979Y358727D01*
G01X13612821Y353139D01*
G01X13618409Y358727D01*
G01X13612821Y364569D01*
G01X13700451Y456009D02*
G01X13683433Y450167D01*
G01X13672003Y433149D01*
G01X13666161Y404447D01*
G01X13666161Y387429D01*
G01X13672003Y358727D01*
G01X13683433Y341709D01*
G01X13700451Y335867D01*
G01X13711881Y335867D01*
G01X13729153Y341709D01*
G01X13740583Y358727D01*
G01X13746171Y387429D01*
G01X13746171Y404447D01*
G01X13740583Y433149D01*
G01X13729153Y450167D01*
G01X13711881Y456009D01*
G01X13700451Y456009D01*
G01X13828213Y456009D02*
G01X13811195Y450167D01*
G01X13799765Y433149D01*
G01X13793923Y404447D01*
G01X13793923Y387429D01*
G01X13799765Y358727D01*
G01X13811195Y341709D01*
G01X13828213Y335867D01*
G01X13839643Y335867D01*
G01X13856915Y341709D01*
G01X13868345Y358727D01*
G01X13873933Y387429D01*
G01X13873933Y404447D01*
G01X13868345Y433149D01*
G01X13856915Y450167D01*
G01X13839643Y456009D01*
G01X13828213Y456009D01*
G01X13955975Y456009D02*
G01X13938957Y450167D01*
G01X13927527Y433149D01*
G01X13921685Y404447D01*
G01X13921685Y387429D01*
G01X13927527Y358727D01*
G01X13938957Y341709D01*
G01X13955975Y335867D01*
G01X13967405Y335867D01*
G01X13984677Y341709D01*
G01X13996107Y358727D01*
G01X14001695Y387429D01*
G01X14001695Y404447D01*
G01X13996107Y433149D01*
G01X13984677Y450167D01*
G01X13967405Y456009D01*
G01X13955975Y456009D01*
G01X14049447Y415877D02*
G01X14112439Y335867D01*
G01X14112439Y415877D02*
G01X14049447Y335867D01*
G01X14160191Y433149D02*
G01X14171621Y438737D01*
G01X14188893Y456009D01*
G01X14188893Y335867D01*
G01X14242487Y364569D02*
G01X14236645Y358727D01*
G01X14242487Y353139D01*
G01X14248075Y358727D01*
G01X14242487Y364569D01*
G01X14330117Y456009D02*
G01X14313099Y450167D01*
G01X14301669Y433149D01*
G01X14295827Y404447D01*
G01X14295827Y387429D01*
G01X14301669Y358727D01*
G01X14313099Y341709D01*
G01X14330117Y335867D01*
G01X14341547Y335867D01*
G01X14358819Y341709D01*
G01X14370249Y358727D01*
G01X14375837Y387429D01*
G01X14375837Y404447D01*
G01X14370249Y433149D01*
G01X14358819Y450167D01*
G01X14341547Y456009D01*
G01X14330117Y456009D01*
G01X14457879Y456009D02*
G01X14440861Y450167D01*
G01X14429431Y433149D01*
G01X14423589Y404447D01*
G01X14423589Y387429D01*
G01X14429431Y358727D01*
G01X14440861Y341709D01*
G01X14457879Y335867D01*
G01X14469309Y335867D01*
G01X14486581Y341709D01*
G01X14498011Y358727D01*
G01X14503599Y387429D01*
G01X14503599Y404447D01*
G01X14498011Y433149D01*
G01X14486581Y450167D01*
G01X14469309Y456009D01*
G01X14457879Y456009D01*
G01X14585641Y456009D02*
G01X14568623Y450167D01*
G01X14557193Y433149D01*
G01X14551351Y404447D01*
G01X14551351Y387429D01*
G01X14557193Y358727D01*
G01X14568623Y341709D01*
G01X14585641Y335867D01*
G01X14597071Y335867D01*
G01X14614343Y341709D01*
G01X14625773Y358727D01*
G01X14631361Y387429D01*
G01X14631361Y404447D01*
G01X14625773Y433149D01*
G01X14614343Y450167D01*
G01X14597071Y456009D01*
G01X14585641Y456009D01*
G01X14679113Y415877D02*
G01X14679113Y335867D01*
G01X14679113Y393017D02*
G01X14696385Y410289D01*
G01X14707815Y415877D01*
G01X14724833Y415877D01*
G01X14736263Y410289D01*
G01X14742105Y393017D01*
G01X14742105Y335867D01*
G01X14742105Y393017D02*
G01X14759123Y410289D01*
G01X14770553Y415877D01*
G01X14787825Y415877D01*
G01X14799255Y410289D01*
G01X14804843Y393017D01*
G01X14804843Y335867D01*
G01X14852595Y415877D02*
G01X14852595Y335867D01*
G01X14852595Y393017D02*
G01X14869867Y410289D01*
G01X14881297Y415877D01*
G01X14898315Y415877D01*
G01X14909745Y410289D01*
G01X14915587Y393017D01*
G01X14915587Y335867D01*
G01X14915587Y393017D02*
G01X14932605Y410289D01*
G01X14944035Y415877D01*
G01X14961307Y415877D01*
G01X14972737Y410289D01*
G01X14978325Y393017D01*
G01X14978325Y335867D01*
G01X15026077Y478869D02*
G01X15037507Y467439D01*
G01X15048937Y450167D01*
G01X15060367Y427307D01*
G01X15066209Y398859D01*
G01X15066209Y375999D01*
G01X15060367Y347297D01*
G01X15048937Y324437D01*
G01X15037507Y307419D01*
G01X15026077Y295989D01*
G01X15968563Y456009D02*
G01X15968563Y335867D01*
G01X15968563Y456009D02*
G01X16020125Y456009D01*
G01X16037143Y450167D01*
G01X16042985Y444579D01*
G01X16048573Y433149D01*
G01X16048573Y415877D01*
G01X16042985Y404447D01*
G01X16037143Y398859D01*
G01X16020125Y393017D01*
G01X15968563Y393017D01*
G01X16136457Y456009D02*
G01X16136457Y335867D01*
G01X16096325Y456009D02*
G01X16176335Y456009D01*
G01X16224087Y456009D02*
G01X16224087Y335867D01*
G01X16304097Y456009D02*
G01X16304097Y335867D01*
G01X16224087Y398859D02*
G01X16304097Y398859D01*
G01X17429970Y456009D02*
G01X17429970Y335867D01*
G01X17429970Y456009D02*
G01X17481532Y456009D01*
G01X17498550Y450167D01*
G01X17504392Y444579D01*
G01X17509980Y433149D01*
G01X17509980Y421719D01*
G01X17504392Y410289D01*
G01X17498550Y404447D01*
G01X17481532Y398859D01*
G01X17429970Y398859D01*
G01X17470102Y398859D02*
G01X17509980Y335867D01*
G01X17586434Y415877D02*
G01X17575004Y410289D01*
G01X17563574Y398859D01*
G01X17557732Y381587D01*
G01X17557732Y370157D01*
G01X17563574Y353139D01*
G01X17575004Y341709D01*
G01X17586434Y335867D01*
G01X17603452Y335867D01*
G01X17614882Y341709D01*
G01X17626312Y353139D01*
G01X17632154Y370157D01*
G01X17632154Y381587D01*
G01X17626312Y398859D01*
G01X17614882Y410289D01*
G01X17603452Y415877D01*
G01X17586434Y415877D01*
G01X17679906Y415877D02*
G01X17679906Y358727D01*
G01X17685748Y341709D01*
G01X17697178Y335867D01*
G01X17714196Y335867D01*
G01X17725626Y341709D01*
G01X17742898Y358727D01*
G01X17742898Y415877D02*
G01X17742898Y335867D01*
G01X17790650Y415877D02*
G01X17790650Y335867D01*
G01X17790650Y393017D02*
G01X17807922Y410289D01*
G01X17819352Y415877D01*
G01X17836370Y415877D01*
G01X17847800Y410289D01*
G01X17853642Y393017D01*
G01X17853642Y335867D01*
G01X17969974Y456009D02*
G01X17969974Y335867D01*
G01X17969974Y398859D02*
G01X17958544Y410289D01*
G01X17947114Y415877D01*
G01X17930096Y415877D01*
G01X17918666Y410289D01*
G01X17907236Y398859D01*
G01X17901394Y381587D01*
G01X17901394Y370157D01*
G01X17907236Y353139D01*
G01X17918666Y341709D01*
G01X17930096Y335867D01*
G01X17947114Y335867D01*
G01X17958544Y341709D01*
G01X17969974Y353139D01*
G01X18861151Y456009D02*
G01X18861151Y335867D01*
G01X18861151Y456009D02*
G01X18912713Y456009D01*
G01X18929731Y450167D01*
G01X18935573Y444579D01*
G01X18941161Y433149D01*
G01X18941161Y415877D01*
G01X18935573Y404447D01*
G01X18929731Y398859D01*
G01X18912713Y393017D01*
G01X18861151Y393017D01*
G01X19057493Y415877D02*
G01X19057493Y335867D01*
G01X19057493Y398859D02*
G01X19046063Y410289D01*
G01X19034633Y415877D01*
G01X19017615Y415877D01*
G01X19006185Y410289D01*
G01X18994755Y398859D01*
G01X18988913Y381587D01*
G01X18988913Y370157D01*
G01X18994755Y353139D01*
G01X19006185Y341709D01*
G01X19017615Y335867D01*
G01X19034633Y335867D01*
G01X19046063Y341709D01*
G01X19057493Y353139D01*
G01X19173825Y456009D02*
G01X19173825Y335867D01*
G01X19173825Y398859D02*
G01X19162395Y410289D01*
G01X19150965Y415877D01*
G01X19133947Y415877D01*
G01X19122517Y410289D01*
G01X19111087Y398859D01*
G01X19105245Y381587D01*
G01X19105245Y370157D01*
G01X19111087Y353139D01*
G01X19122517Y341709D01*
G01X19133947Y335867D01*
G01X19150965Y335867D01*
G01X19162395Y341709D01*
G01X19173825Y353139D01*
G01X20570462Y478869D02*
G01X20559032Y467439D01*
G01X20547602Y450167D01*
G01X20536172Y427307D01*
G01X20530330Y398859D01*
G01X20530330Y375999D01*
G01X20536172Y347297D01*
G01X20547602Y324437D01*
G01X20559032Y307419D01*
G01X20570462Y295989D01*
G01X20618214Y456009D02*
G01X20618214Y335867D01*
G01X20618214Y456009D02*
G01X20663934Y335867D01*
G01X20709654Y456009D02*
G01X20663934Y335867D01*
G01X20709654Y456009D02*
G01X20709654Y335867D01*
G01X20757406Y456009D02*
G01X20763248Y450167D01*
G01X20768836Y456009D01*
G01X20763248Y461597D01*
G01X20757406Y456009D01*
G01X20763248Y415877D02*
G01X20763248Y335867D01*
G01X20816588Y415877D02*
G01X20879580Y335867D01*
G01X20879580Y415877D02*
G01X20816588Y335867D01*
G01X20927332Y381587D02*
G01X20995912Y381587D01*
G01X20995912Y393017D01*
G01X20990324Y404447D01*
G01X20984482Y410289D01*
G01X20973052Y415877D01*
G01X20956034Y415877D01*
G01X20944604Y410289D01*
G01X20933174Y398859D01*
G01X20927332Y381587D01*
G01X20927332Y370157D01*
G01X20933174Y353139D01*
G01X20944604Y341709D01*
G01X20956034Y335867D01*
G01X20973052Y335867D01*
G01X20984482Y341709D01*
G01X20995912Y353139D01*
G01X21112244Y456009D02*
G01X21112244Y335867D01*
G01X21112244Y398859D02*
G01X21100814Y410289D01*
G01X21089384Y415877D01*
G01X21072366Y415877D01*
G01X21060936Y410289D01*
G01X21049506Y398859D01*
G01X21043664Y381587D01*
G01X21043664Y370157D01*
G01X21049506Y353139D01*
G01X21060936Y341709D01*
G01X21072366Y335867D01*
G01X21089384Y335867D01*
G01X21100814Y341709D01*
G01X21112244Y353139D01*
G01X21159996Y478869D02*
G01X21171426Y467439D01*
G01X21182856Y450167D01*
G01X21194286Y427307D01*
G01X21200128Y398859D01*
G01X21200128Y375999D01*
G01X21194286Y347297D01*
G01X21182856Y324437D01*
G01X21171426Y307419D01*
G01X21159996Y295989D01*
G01X22489831Y456009D02*
G01X22489831Y335867D01*
G01X22449699Y456009D02*
G01X22529709Y456009D01*
G01X22606163Y415877D02*
G01X22594733Y410289D01*
G01X22583303Y398859D01*
G01X22577461Y381587D01*
G01X22577461Y370157D01*
G01X22583303Y353139D01*
G01X22594733Y341709D01*
G01X22606163Y335867D01*
G01X22623181Y335867D01*
G01X22634611Y341709D01*
G01X22646041Y353139D01*
G01X22651883Y370157D01*
G01X22651883Y381587D01*
G01X22646041Y398859D01*
G01X22634611Y410289D01*
G01X22623181Y415877D01*
G01X22606163Y415877D01*
G01X22699635Y415877D02*
G01X22699635Y295989D01*
G01X22699635Y398859D02*
G01X22711065Y410289D01*
G01X22722495Y415877D01*
G01X22739767Y415877D01*
G01X22751197Y410289D01*
G01X22762627Y398859D01*
G01X22768215Y381587D01*
G01X22768215Y370157D01*
G01X22762627Y353139D01*
G01X22751197Y341709D01*
G01X22739767Y335867D01*
G01X22722495Y335867D01*
G01X22711065Y341709D01*
G01X22699635Y353139D01*
G01X22943983Y456009D02*
G01X22943983Y335867D01*
G01X22943983Y335867D02*
G01X23012563Y335867D01*
G01X23128895Y415877D02*
G01X23128895Y335867D01*
G01X23128895Y398859D02*
G01X23117465Y410289D01*
G01X23106035Y415877D01*
G01X23089017Y415877D01*
G01X23077587Y410289D01*
G01X23066157Y398859D01*
G01X23060315Y381587D01*
G01X23060315Y370157D01*
G01X23066157Y353139D01*
G01X23077587Y341709D01*
G01X23089017Y335867D01*
G01X23106035Y335867D01*
G01X23117465Y341709D01*
G01X23128895Y353139D01*
G01X23182489Y415877D02*
G01X23216779Y335867D01*
G01X23251069Y415877D02*
G01X23216779Y335867D01*
G01X23205349Y313007D01*
G01X23193919Y301577D01*
G01X23182489Y295989D01*
G01X23176647Y295989D01*
G01X23298821Y381587D02*
G01X23367401Y381587D01*
G01X23367401Y393017D01*
G01X23361813Y404447D01*
G01X23355971Y410289D01*
G01X23344541Y415877D01*
G01X23327523Y415877D01*
G01X23316093Y410289D01*
G01X23304663Y398859D01*
G01X23298821Y381587D01*
G01X23298821Y370157D01*
G01X23304663Y353139D01*
G01X23316093Y341709D01*
G01X23327523Y335867D01*
G01X23344541Y335867D01*
G01X23355971Y341709D01*
G01X23367401Y353139D01*
G01X23415153Y415877D02*
G01X23415153Y335867D01*
G01X23415153Y381587D02*
G01X23420995Y398859D01*
G01X23432425Y410289D01*
G01X23443855Y415877D01*
G01X23460873Y415877D01*
G01X23508625Y387429D02*
G01X23611495Y387429D01*
G01X23659247Y456009D02*
G01X23659247Y335867D01*
G01X23659247Y456009D02*
G01X23710809Y456009D01*
G01X23727827Y450167D01*
G01X23733669Y444579D01*
G01X23739257Y433149D01*
G01X23739257Y421719D01*
G01X23733669Y410289D01*
G01X23727827Y404447D01*
G01X23710809Y398859D01*
G01X23659247Y398859D02*
G01X23710809Y398859D01*
G01X23727827Y393017D01*
G01X23733669Y387429D01*
G01X23739257Y375999D01*
G01X23739257Y358727D01*
G01X23733669Y347297D01*
G01X23727827Y341709D01*
G01X23710809Y335867D01*
G01X23659247Y335867D01*
G01X23815711Y415877D02*
G01X23804281Y410289D01*
G01X23792851Y398859D01*
G01X23787009Y381587D01*
G01X23787009Y370157D01*
G01X23792851Y353139D01*
G01X23804281Y341709D01*
G01X23815711Y335867D01*
G01X23832729Y335867D01*
G01X23844159Y341709D01*
G01X23855589Y353139D01*
G01X23861431Y370157D01*
G01X23861431Y381587D01*
G01X23855589Y398859D01*
G01X23844159Y410289D01*
G01X23832729Y415877D01*
G01X23815711Y415877D01*
G01X23926455Y456009D02*
G01X23926455Y358727D01*
G01X23932043Y341709D01*
G01X23943473Y335867D01*
G01X23954903Y335867D01*
G01X23909183Y415877D02*
G01X23949315Y415877D01*
G01X24019927Y456009D02*
G01X24019927Y358727D01*
G01X24025515Y341709D01*
G01X24036945Y335867D01*
G01X24048375Y335867D01*
G01X24002655Y415877D02*
G01X24042787Y415877D01*
G01X24124829Y415877D02*
G01X24113399Y410289D01*
G01X24101969Y398859D01*
G01X24096127Y381587D01*
G01X24096127Y370157D01*
G01X24101969Y353139D01*
G01X24113399Y341709D01*
G01X24124829Y335867D01*
G01X24141847Y335867D01*
G01X24153277Y341709D01*
G01X24164707Y353139D01*
G01X24170549Y370157D01*
G01X24170549Y381587D01*
G01X24164707Y398859D01*
G01X24153277Y410289D01*
G01X24141847Y415877D01*
G01X24124829Y415877D01*
G01X24218301Y415877D02*
G01X24218301Y335867D01*
G01X24218301Y393017D02*
G01X24235573Y410289D01*
G01X24247003Y415877D01*
G01X24264021Y415877D01*
G01X24275451Y410289D01*
G01X24281293Y393017D01*
G01X24281293Y335867D01*
G01X24281293Y393017D02*
G01X24298311Y410289D01*
G01X24309741Y415877D01*
G01X24327013Y415877D01*
G01X24338443Y410289D01*
G01X24344031Y393017D01*
G01X24344031Y335867D01*
G01X24519799Y456009D02*
G01X24519799Y335867D01*
G01X24519799Y335867D02*
G01X24588379Y335867D01*
G01X24704711Y415877D02*
G01X24704711Y335867D01*
G01X24704711Y398859D02*
G01X24693281Y410289D01*
G01X24681851Y415877D01*
G01X24664833Y415877D01*
G01X24653403Y410289D01*
G01X24641973Y398859D01*
G01X24636131Y381587D01*
G01X24636131Y370157D01*
G01X24641973Y353139D01*
G01X24653403Y341709D01*
G01X24664833Y335867D01*
G01X24681851Y335867D01*
G01X24693281Y341709D01*
G01X24704711Y353139D01*
G01X24758305Y415877D02*
G01X24792595Y335867D01*
G01X24826885Y415877D02*
G01X24792595Y335867D01*
G01X24781165Y313007D01*
G01X24769735Y301577D01*
G01X24758305Y295989D01*
G01X24752463Y295989D01*
G01X24874637Y381587D02*
G01X24943217Y381587D01*
G01X24943217Y393017D01*
G01X24937629Y404447D01*
G01X24931787Y410289D01*
G01X24920357Y415877D01*
G01X24903339Y415877D01*
G01X24891909Y410289D01*
G01X24880479Y398859D01*
G01X24874637Y381587D01*
G01X24874637Y370157D01*
G01X24880479Y353139D01*
G01X24891909Y341709D01*
G01X24903339Y335867D01*
G01X24920357Y335867D01*
G01X24931787Y341709D01*
G01X24943217Y353139D01*
G01X24990969Y415877D02*
G01X24990969Y335867D01*
G01X24990969Y381587D02*
G01X24996811Y398859D01*
G01X25008241Y410289D01*
G01X25019671Y415877D01*
G01X25036689Y415877D01*
G01X10751874Y-147423D02*
G01X10763304Y-141835D01*
G01X10780576Y-124563D01*
G01X10780576Y-244705D01*
G01X10834170Y-153265D02*
G01X10834170Y-147423D01*
G01X10839758Y-135993D01*
G01X10845600Y-130405D01*
G01X10857030Y-124563D01*
G01X10879890Y-124563D01*
G01X10891320Y-130405D01*
G01X10896908Y-135993D01*
G01X10902750Y-147423D01*
G01X10902750Y-158853D01*
G01X10896908Y-170283D01*
G01X10885478Y-187555D01*
G01X10828328Y-244705D01*
G01X10908338Y-244705D01*
G01X12223187Y-124563D02*
G01X12166037Y-204573D01*
G01X12251889Y-204573D01*
G01X12223187Y-124563D02*
G01X12223187Y-244705D01*
G01X12379651Y-124563D02*
G01X12322501Y-244705D01*
G01X12299641Y-124563D02*
G01X12379651Y-124563D01*
G01X12433245Y-216003D02*
G01X12427403Y-221845D01*
G01X12433245Y-227433D01*
G01X12438833Y-221845D01*
G01X12433245Y-216003D01*
G01X12492427Y-153265D02*
G01X12492427Y-147423D01*
G01X12498015Y-135993D01*
G01X12503857Y-130405D01*
G01X12515287Y-124563D01*
G01X12538147Y-124563D01*
G01X12549577Y-130405D01*
G01X12555165Y-135993D01*
G01X12561007Y-147423D01*
G01X12561007Y-158853D01*
G01X12555165Y-170283D01*
G01X12543735Y-187555D01*
G01X12486585Y-244705D01*
G01X12566595Y-244705D01*
G01X12614347Y-164695D02*
G01X12677339Y-244705D01*
G01X12677339Y-164695D02*
G01X12614347Y-244705D01*
G01X12782241Y-124563D02*
G01X12725091Y-204573D01*
G01X12810943Y-204573D01*
G01X12782241Y-124563D02*
G01X12782241Y-244705D01*
G01X12938705Y-124563D02*
G01X12881555Y-244705D01*
G01X12858695Y-124563D02*
G01X12938705Y-124563D01*
G01X12992299Y-216003D02*
G01X12986457Y-221845D01*
G01X12992299Y-227433D01*
G01X12997887Y-221845D01*
G01X12992299Y-216003D01*
G01X13051481Y-153265D02*
G01X13051481Y-147423D01*
G01X13057069Y-135993D01*
G01X13062911Y-130405D01*
G01X13074341Y-124563D01*
G01X13097201Y-124563D01*
G01X13108631Y-130405D01*
G01X13114219Y-135993D01*
G01X13120061Y-147423D01*
G01X13120061Y-158853D01*
G01X13114219Y-170283D01*
G01X13102789Y-187555D01*
G01X13045639Y-244705D01*
G01X13125649Y-244705D01*
G01X13173401Y-164695D02*
G01X13173401Y-244705D01*
G01X13173401Y-187555D02*
G01X13190673Y-170283D01*
G01X13202103Y-164695D01*
G01X13219121Y-164695D01*
G01X13230551Y-170283D01*
G01X13236393Y-187555D01*
G01X13236393Y-244705D01*
G01X13236393Y-187555D02*
G01X13253411Y-170283D01*
G01X13264841Y-164695D01*
G01X13282113Y-164695D01*
G01X13293543Y-170283D01*
G01X13299131Y-187555D01*
G01X13299131Y-244705D01*
G01X13346883Y-124563D02*
G01X13352725Y-130405D01*
G01X13358313Y-124563D01*
G01X13352725Y-118975D01*
G01X13346883Y-124563D01*
G01X13352725Y-164695D02*
G01X13352725Y-244705D01*
G01X13406065Y-124563D02*
G01X13406065Y-244705D01*
G01X13493949Y-101703D02*
G01X13482519Y-113133D01*
G01X13471089Y-130405D01*
G01X13459659Y-153265D01*
G01X13453817Y-181713D01*
G01X13453817Y-204573D01*
G01X13459659Y-233275D01*
G01X13471089Y-256135D01*
G01X13482519Y-273153D01*
G01X13493949Y-284583D01*
G01X13541701Y-147423D02*
G01X13553131Y-141835D01*
G01X13570403Y-124563D01*
G01X13570403Y-244705D01*
G01X13623997Y-216003D02*
G01X13618155Y-221845D01*
G01X13623997Y-227433D01*
G01X13629585Y-221845D01*
G01X13623997Y-216003D01*
G01X13683179Y-153265D02*
G01X13683179Y-147423D01*
G01X13688767Y-135993D01*
G01X13694609Y-130405D01*
G01X13706039Y-124563D01*
G01X13728899Y-124563D01*
G01X13740329Y-130405D01*
G01X13745917Y-135993D01*
G01X13751759Y-147423D01*
G01X13751759Y-158853D01*
G01X13745917Y-170283D01*
G01X13734487Y-187555D01*
G01X13677337Y-244705D01*
G01X13757347Y-244705D01*
G01X13839389Y-124563D02*
G01X13822371Y-130405D01*
G01X13810941Y-147423D01*
G01X13805099Y-176125D01*
G01X13805099Y-193143D01*
G01X13810941Y-221845D01*
G01X13822371Y-238863D01*
G01X13839389Y-244705D01*
G01X13850819Y-244705D01*
G01X13868091Y-238863D01*
G01X13879521Y-221845D01*
G01X13885109Y-193143D01*
G01X13885109Y-176125D01*
G01X13879521Y-147423D01*
G01X13868091Y-130405D01*
G01X13850819Y-124563D01*
G01X13839389Y-124563D01*
G01X13967151Y-124563D02*
G01X13950133Y-130405D01*
G01X13938703Y-147423D01*
G01X13932861Y-176125D01*
G01X13932861Y-193143D01*
G01X13938703Y-221845D01*
G01X13950133Y-238863D01*
G01X13967151Y-244705D01*
G01X13978581Y-244705D01*
G01X13995853Y-238863D01*
G01X14007283Y-221845D01*
G01X14012871Y-193143D01*
G01X14012871Y-176125D01*
G01X14007283Y-147423D01*
G01X13995853Y-130405D01*
G01X13978581Y-124563D01*
G01X13967151Y-124563D01*
G01X14060623Y-164695D02*
G01X14123615Y-244705D01*
G01X14123615Y-164695D02*
G01X14060623Y-244705D01*
G01X14171367Y-147423D02*
G01X14182797Y-141835D01*
G01X14200069Y-124563D01*
G01X14200069Y-244705D01*
G01X14253663Y-216003D02*
G01X14247821Y-221845D01*
G01X14253663Y-227433D01*
G01X14259251Y-221845D01*
G01X14253663Y-216003D01*
G01X14312845Y-153265D02*
G01X14312845Y-147423D01*
G01X14318433Y-135993D01*
G01X14324275Y-130405D01*
G01X14335705Y-124563D01*
G01X14358565Y-124563D01*
G01X14369995Y-130405D01*
G01X14375583Y-135993D01*
G01X14381425Y-147423D01*
G01X14381425Y-158853D01*
G01X14375583Y-170283D01*
G01X14364153Y-187555D01*
G01X14307003Y-244705D01*
G01X14387013Y-244705D01*
G01X14469055Y-124563D02*
G01X14452037Y-130405D01*
G01X14440607Y-147423D01*
G01X14434765Y-176125D01*
G01X14434765Y-193143D01*
G01X14440607Y-221845D01*
G01X14452037Y-238863D01*
G01X14469055Y-244705D01*
G01X14480485Y-244705D01*
G01X14497757Y-238863D01*
G01X14509187Y-221845D01*
G01X14514775Y-193143D01*
G01X14514775Y-176125D01*
G01X14509187Y-147423D01*
G01X14497757Y-130405D01*
G01X14480485Y-124563D01*
G01X14469055Y-124563D01*
G01X14596817Y-124563D02*
G01X14579799Y-130405D01*
G01X14568369Y-147423D01*
G01X14562527Y-176125D01*
G01X14562527Y-193143D01*
G01X14568369Y-221845D01*
G01X14579799Y-238863D01*
G01X14596817Y-244705D01*
G01X14608247Y-244705D01*
G01X14625519Y-238863D01*
G01X14636949Y-221845D01*
G01X14642537Y-193143D01*
G01X14642537Y-176125D01*
G01X14636949Y-147423D01*
G01X14625519Y-130405D01*
G01X14608247Y-124563D01*
G01X14596817Y-124563D01*
G01X14690289Y-164695D02*
G01X14690289Y-244705D01*
G01X14690289Y-187555D02*
G01X14707561Y-170283D01*
G01X14718991Y-164695D01*
G01X14736009Y-164695D01*
G01X14747439Y-170283D01*
G01X14753281Y-187555D01*
G01X14753281Y-244705D01*
G01X14753281Y-187555D02*
G01X14770299Y-170283D01*
G01X14781729Y-164695D01*
G01X14799001Y-164695D01*
G01X14810431Y-170283D01*
G01X14816019Y-187555D01*
G01X14816019Y-244705D01*
G01X14863771Y-164695D02*
G01X14863771Y-244705D01*
G01X14863771Y-187555D02*
G01X14881043Y-170283D01*
G01X14892473Y-164695D01*
G01X14909491Y-164695D01*
G01X14920921Y-170283D01*
G01X14926763Y-187555D01*
G01X14926763Y-244705D01*
G01X14926763Y-187555D02*
G01X14943781Y-170283D01*
G01X14955211Y-164695D01*
G01X14972483Y-164695D01*
G01X14983913Y-170283D01*
G01X14989501Y-187555D01*
G01X14989501Y-244705D01*
G01X15037253Y-101703D02*
G01X15048683Y-113133D01*
G01X15060113Y-130405D01*
G01X15071543Y-153265D01*
G01X15077385Y-181713D01*
G01X15077385Y-204573D01*
G01X15071543Y-233275D01*
G01X15060113Y-256135D01*
G01X15048683Y-273153D01*
G01X15037253Y-284583D01*
G01X15968563Y-124563D02*
G01X15968563Y-244705D01*
G01X15968563Y-124563D02*
G01X16020125Y-124563D01*
G01X16037143Y-130405D01*
G01X16042985Y-135993D01*
G01X16048573Y-147423D01*
G01X16048573Y-164695D01*
G01X16042985Y-176125D01*
G01X16037143Y-181713D01*
G01X16020125Y-187555D01*
G01X15968563Y-187555D01*
G01X16136457Y-124563D02*
G01X16136457Y-244705D01*
G01X16096325Y-124563D02*
G01X16176335Y-124563D01*
G01X16224087Y-124563D02*
G01X16224087Y-244705D01*
G01X16304097Y-124563D02*
G01X16304097Y-244705D01*
G01X16224087Y-181713D02*
G01X16304097Y-181713D01*
G01X17429970Y-124563D02*
G01X17429970Y-244705D01*
G01X17429970Y-124563D02*
G01X17481532Y-124563D01*
G01X17498550Y-130405D01*
G01X17504392Y-135993D01*
G01X17509980Y-147423D01*
G01X17509980Y-158853D01*
G01X17504392Y-170283D01*
G01X17498550Y-176125D01*
G01X17481532Y-181713D01*
G01X17429970Y-181713D01*
G01X17470102Y-181713D02*
G01X17509980Y-244705D01*
G01X17586434Y-164695D02*
G01X17575004Y-170283D01*
G01X17563574Y-181713D01*
G01X17557732Y-198985D01*
G01X17557732Y-210415D01*
G01X17563574Y-227433D01*
G01X17575004Y-238863D01*
G01X17586434Y-244705D01*
G01X17603452Y-244705D01*
G01X17614882Y-238863D01*
G01X17626312Y-227433D01*
G01X17632154Y-210415D01*
G01X17632154Y-198985D01*
G01X17626312Y-181713D01*
G01X17614882Y-170283D01*
G01X17603452Y-164695D01*
G01X17586434Y-164695D01*
G01X17679906Y-164695D02*
G01X17679906Y-221845D01*
G01X17685748Y-238863D01*
G01X17697178Y-244705D01*
G01X17714196Y-244705D01*
G01X17725626Y-238863D01*
G01X17742898Y-221845D01*
G01X17742898Y-164695D02*
G01X17742898Y-244705D01*
G01X17790650Y-164695D02*
G01X17790650Y-244705D01*
G01X17790650Y-187555D02*
G01X17807922Y-170283D01*
G01X17819352Y-164695D01*
G01X17836370Y-164695D01*
G01X17847800Y-170283D01*
G01X17853642Y-187555D01*
G01X17853642Y-244705D01*
G01X17969974Y-124563D02*
G01X17969974Y-244705D01*
G01X17969974Y-181713D02*
G01X17958544Y-170283D01*
G01X17947114Y-164695D01*
G01X17930096Y-164695D01*
G01X17918666Y-170283D01*
G01X17907236Y-181713D01*
G01X17901394Y-198985D01*
G01X17901394Y-210415D01*
G01X17907236Y-227433D01*
G01X17918666Y-238863D01*
G01X17930096Y-244705D01*
G01X17947114Y-244705D01*
G01X17958544Y-238863D01*
G01X17969974Y-227433D01*
G01X18861151Y-124563D02*
G01X18861151Y-244705D01*
G01X18861151Y-124563D02*
G01X18912713Y-124563D01*
G01X18929731Y-130405D01*
G01X18935573Y-135993D01*
G01X18941161Y-147423D01*
G01X18941161Y-164695D01*
G01X18935573Y-176125D01*
G01X18929731Y-181713D01*
G01X18912713Y-187555D01*
G01X18861151Y-187555D01*
G01X19057493Y-164695D02*
G01X19057493Y-244705D01*
G01X19057493Y-181713D02*
G01X19046063Y-170283D01*
G01X19034633Y-164695D01*
G01X19017615Y-164695D01*
G01X19006185Y-170283D01*
G01X18994755Y-181713D01*
G01X18988913Y-198985D01*
G01X18988913Y-210415D01*
G01X18994755Y-227433D01*
G01X19006185Y-238863D01*
G01X19017615Y-244705D01*
G01X19034633Y-244705D01*
G01X19046063Y-238863D01*
G01X19057493Y-227433D01*
G01X19173825Y-124563D02*
G01X19173825Y-244705D01*
G01X19173825Y-181713D02*
G01X19162395Y-170283D01*
G01X19150965Y-164695D01*
G01X19133947Y-164695D01*
G01X19122517Y-170283D01*
G01X19111087Y-181713D01*
G01X19105245Y-198985D01*
G01X19105245Y-210415D01*
G01X19111087Y-227433D01*
G01X19122517Y-238863D01*
G01X19133947Y-244705D01*
G01X19150965Y-244705D01*
G01X19162395Y-238863D01*
G01X19173825Y-227433D01*
G01X20530330Y-124563D02*
G01X20530330Y-244705D01*
G01X20530330Y-124563D02*
G01X20581892Y-124563D01*
G01X20598910Y-130405D01*
G01X20604752Y-135993D01*
G01X20610340Y-147423D01*
G01X20610340Y-158853D01*
G01X20604752Y-170283D01*
G01X20598910Y-176125D01*
G01X20581892Y-181713D01*
G01X20530330Y-181713D01*
G01X20570462Y-181713D02*
G01X20610340Y-244705D01*
G01X20686794Y-164695D02*
G01X20675364Y-170283D01*
G01X20663934Y-181713D01*
G01X20658092Y-198985D01*
G01X20658092Y-210415D01*
G01X20663934Y-227433D01*
G01X20675364Y-238863D01*
G01X20686794Y-244705D01*
G01X20703812Y-244705D01*
G01X20715242Y-238863D01*
G01X20726672Y-227433D01*
G01X20732514Y-210415D01*
G01X20732514Y-198985D01*
G01X20726672Y-181713D01*
G01X20715242Y-170283D01*
G01X20703812Y-164695D01*
G01X20686794Y-164695D01*
G01X20780266Y-164695D02*
G01X20780266Y-221845D01*
G01X20786108Y-238863D01*
G01X20797538Y-244705D01*
G01X20814556Y-244705D01*
G01X20825986Y-238863D01*
G01X20843258Y-221845D01*
G01X20843258Y-164695D02*
G01X20843258Y-244705D01*
G01X20891010Y-164695D02*
G01X20891010Y-244705D01*
G01X20891010Y-187555D02*
G01X20908282Y-170283D01*
G01X20919712Y-164695D01*
G01X20936730Y-164695D01*
G01X20948160Y-170283D01*
G01X20954002Y-187555D01*
G01X20954002Y-244705D01*
G01X21070334Y-124563D02*
G01X21070334Y-244705D01*
G01X21070334Y-181713D02*
G01X21058904Y-170283D01*
G01X21047474Y-164695D01*
G01X21030456Y-164695D01*
G01X21019026Y-170283D01*
G01X21007596Y-181713D01*
G01X21001754Y-198985D01*
G01X21001754Y-210415D01*
G01X21007596Y-227433D01*
G01X21019026Y-238863D01*
G01X21030456Y-244705D01*
G01X21047474Y-244705D01*
G01X21058904Y-238863D01*
G01X21070334Y-227433D01*
G01X22489831Y-124563D02*
G01X22489831Y-244705D01*
G01X22449699Y-124563D02*
G01X22529709Y-124563D01*
G01X22606163Y-164695D02*
G01X22594733Y-170283D01*
G01X22583303Y-181713D01*
G01X22577461Y-198985D01*
G01X22577461Y-210415D01*
G01X22583303Y-227433D01*
G01X22594733Y-238863D01*
G01X22606163Y-244705D01*
G01X22623181Y-244705D01*
G01X22634611Y-238863D01*
G01X22646041Y-227433D01*
G01X22651883Y-210415D01*
G01X22651883Y-198985D01*
G01X22646041Y-181713D01*
G01X22634611Y-170283D01*
G01X22623181Y-164695D01*
G01X22606163Y-164695D01*
G01X22699635Y-164695D02*
G01X22699635Y-284583D01*
G01X22699635Y-181713D02*
G01X22711065Y-170283D01*
G01X22722495Y-164695D01*
G01X22739767Y-164695D01*
G01X22751197Y-170283D01*
G01X22762627Y-181713D01*
G01X22768215Y-198985D01*
G01X22768215Y-210415D01*
G01X22762627Y-227433D01*
G01X22751197Y-238863D01*
G01X22739767Y-244705D01*
G01X22722495Y-244705D01*
G01X22711065Y-238863D01*
G01X22699635Y-227433D01*
G01X22943983Y-124563D02*
G01X22943983Y-244705D01*
G01X22943983Y-244705D02*
G01X23012563Y-244705D01*
G01X23128895Y-164695D02*
G01X23128895Y-244705D01*
G01X23128895Y-181713D02*
G01X23117465Y-170283D01*
G01X23106035Y-164695D01*
G01X23089017Y-164695D01*
G01X23077587Y-170283D01*
G01X23066157Y-181713D01*
G01X23060315Y-198985D01*
G01X23060315Y-210415D01*
G01X23066157Y-227433D01*
G01X23077587Y-238863D01*
G01X23089017Y-244705D01*
G01X23106035Y-244705D01*
G01X23117465Y-238863D01*
G01X23128895Y-227433D01*
G01X23182489Y-164695D02*
G01X23216779Y-244705D01*
G01X23251069Y-164695D02*
G01X23216779Y-244705D01*
G01X23205349Y-267565D01*
G01X23193919Y-278995D01*
G01X23182489Y-284583D01*
G01X23176647Y-284583D01*
G01X23298821Y-198985D02*
G01X23367401Y-198985D01*
G01X23367401Y-187555D01*
G01X23361813Y-176125D01*
G01X23355971Y-170283D01*
G01X23344541Y-164695D01*
G01X23327523Y-164695D01*
G01X23316093Y-170283D01*
G01X23304663Y-181713D01*
G01X23298821Y-198985D01*
G01X23298821Y-210415D01*
G01X23304663Y-227433D01*
G01X23316093Y-238863D01*
G01X23327523Y-244705D01*
G01X23344541Y-244705D01*
G01X23355971Y-238863D01*
G01X23367401Y-227433D01*
G01X23415153Y-164695D02*
G01X23415153Y-244705D01*
G01X23415153Y-198985D02*
G01X23420995Y-181713D01*
G01X23432425Y-170283D01*
G01X23443855Y-164695D01*
G01X23460873Y-164695D01*
G01X23508625Y-193143D02*
G01X23611495Y-193143D01*
G01X23659247Y-124563D02*
G01X23659247Y-244705D01*
G01X23659247Y-124563D02*
G01X23710809Y-124563D01*
G01X23727827Y-130405D01*
G01X23733669Y-135993D01*
G01X23739257Y-147423D01*
G01X23739257Y-158853D01*
G01X23733669Y-170283D01*
G01X23727827Y-176125D01*
G01X23710809Y-181713D01*
G01X23659247Y-181713D02*
G01X23710809Y-181713D01*
G01X23727827Y-187555D01*
G01X23733669Y-193143D01*
G01X23739257Y-204573D01*
G01X23739257Y-221845D01*
G01X23733669Y-233275D01*
G01X23727827Y-238863D01*
G01X23710809Y-244705D01*
G01X23659247Y-244705D01*
G01X23815711Y-164695D02*
G01X23804281Y-170283D01*
G01X23792851Y-181713D01*
G01X23787009Y-198985D01*
G01X23787009Y-210415D01*
G01X23792851Y-227433D01*
G01X23804281Y-238863D01*
G01X23815711Y-244705D01*
G01X23832729Y-244705D01*
G01X23844159Y-238863D01*
G01X23855589Y-227433D01*
G01X23861431Y-210415D01*
G01X23861431Y-198985D01*
G01X23855589Y-181713D01*
G01X23844159Y-170283D01*
G01X23832729Y-164695D01*
G01X23815711Y-164695D01*
G01X23926455Y-124563D02*
G01X23926455Y-221845D01*
G01X23932043Y-238863D01*
G01X23943473Y-244705D01*
G01X23954903Y-244705D01*
G01X23909183Y-164695D02*
G01X23949315Y-164695D01*
G01X24019927Y-124563D02*
G01X24019927Y-221845D01*
G01X24025515Y-238863D01*
G01X24036945Y-244705D01*
G01X24048375Y-244705D01*
G01X24002655Y-164695D02*
G01X24042787Y-164695D01*
G01X24124829Y-164695D02*
G01X24113399Y-170283D01*
G01X24101969Y-181713D01*
G01X24096127Y-198985D01*
G01X24096127Y-210415D01*
G01X24101969Y-227433D01*
G01X24113399Y-238863D01*
G01X24124829Y-244705D01*
G01X24141847Y-244705D01*
G01X24153277Y-238863D01*
G01X24164707Y-227433D01*
G01X24170549Y-210415D01*
G01X24170549Y-198985D01*
G01X24164707Y-181713D01*
G01X24153277Y-170283D01*
G01X24141847Y-164695D01*
G01X24124829Y-164695D01*
G01X24218301Y-164695D02*
G01X24218301Y-244705D01*
G01X24218301Y-187555D02*
G01X24235573Y-170283D01*
G01X24247003Y-164695D01*
G01X24264021Y-164695D01*
G01X24275451Y-170283D01*
G01X24281293Y-187555D01*
G01X24281293Y-244705D01*
G01X24281293Y-187555D02*
G01X24298311Y-170283D01*
G01X24309741Y-164695D01*
G01X24327013Y-164695D01*
G01X24338443Y-170283D01*
G01X24344031Y-187555D01*
G01X24344031Y-244705D01*
G01X24519799Y-124563D02*
G01X24519799Y-244705D01*
G01X24519799Y-244705D02*
G01X24588379Y-244705D01*
G01X24704711Y-164695D02*
G01X24704711Y-244705D01*
G01X24704711Y-181713D02*
G01X24693281Y-170283D01*
G01X24681851Y-164695D01*
G01X24664833Y-164695D01*
G01X24653403Y-170283D01*
G01X24641973Y-181713D01*
G01X24636131Y-198985D01*
G01X24636131Y-210415D01*
G01X24641973Y-227433D01*
G01X24653403Y-238863D01*
G01X24664833Y-244705D01*
G01X24681851Y-244705D01*
G01X24693281Y-238863D01*
G01X24704711Y-227433D01*
G01X24758305Y-164695D02*
G01X24792595Y-244705D01*
G01X24826885Y-164695D02*
G01X24792595Y-244705D01*
G01X24781165Y-267565D01*
G01X24769735Y-278995D01*
G01X24758305Y-284583D01*
G01X24752463Y-284583D01*
G01X24874637Y-198985D02*
G01X24943217Y-198985D01*
G01X24943217Y-187555D01*
G01X24937629Y-176125D01*
G01X24931787Y-170283D01*
G01X24920357Y-164695D01*
G01X24903339Y-164695D01*
G01X24891909Y-170283D01*
G01X24880479Y-181713D01*
G01X24874637Y-198985D01*
G01X24874637Y-210415D01*
G01X24880479Y-227433D01*
G01X24891909Y-238863D01*
G01X24903339Y-244705D01*
G01X24920357Y-244705D01*
G01X24931787Y-238863D01*
G01X24943217Y-227433D01*
G01X24990969Y-164695D02*
G01X24990969Y-244705D01*
G01X24990969Y-198985D02*
G01X24996811Y-181713D01*
G01X25008241Y-170283D01*
G01X25019671Y-164695D01*
G01X25036689Y-164695D01*

G04 Image Start*
G36*
G01X9587262Y275397D02*
G01X9481649Y286877D01*
G01X9438774Y189672D01*
G01X9395899Y286877D01*
G01X9290286Y275397D01*
G01X9353049Y361122D01*
G01X9313327Y415376D01*
G01X9344819Y415376D01*
G01X9384520Y361122D01*
G01X9344819Y306867D01*
G01X9411647Y314132D01*
G01X9411647Y314132D01*
G01X9438774Y252638D01*
G01X9465901Y314132D01*
G01X9532729Y306867D01*
G01X9493028Y361122D01*
G01X9532703Y415351D01*
G01X9465876Y408086D01*
G01X9438774Y469605D01*
G01X9411647Y408112D01*
G01X9344819Y415376D01*
G01X9313327Y415376D01*
G01X9290286Y446847D01*
G01X9395924Y435366D01*
G01X9438774Y532572D01*
G01X9481649Y435366D01*
G01X9587262Y446847D01*
G01X9524499Y361122D01*
G01X9587262Y275397D01*
G37*
G36*
G01X9458269Y1389701D02*
G01X9450529Y1389113D01*
G01X9442686Y1388914D01*
G01X9434843Y1389113D01*
G01X9427102Y1389701D01*
G01X9419475Y1390670D01*
G01X9411970Y1392010D01*
G01X9397364Y1395765D01*
G01X9383362Y1400890D01*
G01X9370040Y1407307D01*
G01X9357474Y1414940D01*
G01X9345742Y1423713D01*
G01X9334920Y1433549D01*
G01X9325084Y1444371D01*
G01X9316311Y1456103D01*
G01X9308678Y1468668D01*
G01X9302261Y1481990D01*
G01X9297137Y1495993D01*
G01X9293382Y1510598D01*
G01X9292041Y1518104D01*
G01X9291072Y1525731D01*
G01X9290484Y1533471D01*
G01X9290286Y1541314D01*
G01X9315686Y1541314D01*
G01X9316343Y1528348D01*
G01X9318270Y1515752D01*
G01X9321405Y1503590D01*
G01X9325682Y1491928D01*
G01X9331037Y1480828D01*
G01X9337405Y1470357D01*
G01X9344723Y1460577D01*
G01X9352925Y1451554D01*
G01X9361949Y1443351D01*
G01X9371728Y1436034D01*
G01X9382200Y1429665D01*
G01X9393299Y1424310D01*
G01X9404961Y1420034D01*
G01X9417123Y1416899D01*
G01X9417123Y1416899D01*
G01X9429719Y1414971D01*
G01X9442686Y1414314D01*
G01X9455652Y1414971D01*
G01X9468248Y1416899D01*
G01X9480410Y1420034D01*
G01X9492072Y1424310D01*
G01X9503172Y1429665D01*
G01X9513643Y1436034D01*
G01X9523423Y1443351D01*
G01X9532446Y1451554D01*
G01X9540649Y1460577D01*
G01X9547966Y1470357D01*
G01X9554335Y1480828D01*
G01X9559690Y1491928D01*
G01X9563966Y1503590D01*
G01X9567101Y1515752D01*
G01X9569029Y1528348D01*
G01X9569686Y1541314D01*
G01X9569029Y1554281D01*
G01X9567101Y1566877D01*
G01X9563966Y1579039D01*
G01X9559690Y1590701D01*
G01X9554335Y1601800D01*
G01X9547966Y1612272D01*
G01X9540649Y1622052D01*
G01X9532446Y1631075D01*
G01X9523423Y1639277D01*
G01X9513643Y1646595D01*
G01X9503172Y1652964D01*
G01X9492072Y1658318D01*
G01X9480410Y1662595D01*
G01X9468248Y1665730D01*
G01X9455652Y1667657D01*
G01X9442686Y1668314D01*
G01X9429719Y1667657D01*
G01X9417123Y1665730D01*
G01X9404961Y1662595D01*
G01X9393299Y1658318D01*
G01X9382200Y1652964D01*
G01X9371728Y1646595D01*
G01X9361949Y1639277D01*
G01X9352925Y1631075D01*
G01X9344723Y1622052D01*
G01X9337405Y1612272D01*
G01X9331037Y1601800D01*
G01X9325682Y1590701D01*
G01X9321405Y1579039D01*
G01X9318270Y1566877D01*
G01X9316343Y1554281D01*
G01X9315686Y1541314D01*
G01X9290286Y1541314D01*
G01X9290484Y1549158D01*
G01X9291072Y1556898D01*
G01X9292041Y1564525D01*
G01X9293382Y1572030D01*
G01X9297137Y1586636D01*
G01X9302261Y1600638D01*
G01X9308678Y1613961D01*
G01X9316311Y1626526D01*
G01X9325084Y1638258D01*
G01X9334920Y1649080D01*
G01X9345742Y1658916D01*
G01X9357474Y1667689D01*
G01X9370040Y1675322D01*
G01X9383362Y1681739D01*
G01X9397364Y1686863D01*
G01X9411970Y1690618D01*
G01X9419475Y1691959D01*
G01X9427102Y1692928D01*
G01X9434843Y1693516D01*
G01X9442686Y1693714D01*
G01X9450529Y1693516D01*
G01X9458269Y1692928D01*
G01X9465896Y1691959D01*
G01X9473402Y1690618D01*
G01X9488008Y1686863D01*
G01X9502010Y1681739D01*
G01X9515332Y1675322D01*
G01X9527897Y1667689D01*
G01X9539629Y1658916D01*
G01X9550452Y1649080D01*
G01X9560287Y1638258D01*
G01X9569060Y1626526D01*
G01X9576693Y1613961D01*
G01X9583110Y1600638D01*
G01X9588235Y1586636D01*
G01X9591990Y1572030D01*
G01X9593330Y1564525D01*
G01X9594299Y1556898D01*
G01X9594887Y1549158D01*
G01X9595086Y1541314D01*
G01X9594887Y1533471D01*
G01X9594299Y1525731D01*
G01X9593330Y1518104D01*
G01X9591990Y1510598D01*
G01X9588235Y1495993D01*
G01X9583110Y1481990D01*
G01X9576693Y1468668D01*
G01X9569060Y1456103D01*
G01X9560287Y1444371D01*
G01X9550452Y1433549D01*
G01X9539629Y1423713D01*
G01X9527897Y1414940D01*
G01X9515332Y1407307D01*
G01X9502010Y1400890D01*
G01X9488008Y1395765D01*
G01X9473402Y1392010D01*
G01X9465896Y1390670D01*
G01X9458269Y1389701D01*
G37*
G36*
G01X9595086Y-48000D02*
G01X9525058Y-200400D01*
G01X9595086Y-352800D01*
G01X9442686Y-282772D01*
G01X9290286Y-352800D01*
G01X9314048Y-301086D01*
G01X9342000Y-301086D01*
G01X9432068Y-259684D01*
G01X9442686Y-254807D01*
G01X9453303Y-259684D01*
G01X9543371Y-301086D01*
G01X9501969Y-211017D01*
G01X9497092Y-200400D01*
G01X9501969Y-189783D01*
G01X9543371Y-99714D01*
G01X9453303Y-141116D01*
G01X9442686Y-145993D01*
G01X9432068Y-141116D01*
G01X9342000Y-99714D01*
G01X9383402Y-189783D01*
G01X9388279Y-200400D01*
G01X9383402Y-211017D01*
G01X9383402Y-211017D01*
G01X9342000Y-301086D01*
G01X9314048Y-301086D01*
G01X9360313Y-200400D01*
G01X9290286Y-48000D01*
G01X9442686Y-118028D01*
G01X9595086Y-48000D01*
G37*
G36*
G01X9290286Y1113143D02*
G01X9595086Y1113143D01*
G01X9442686Y849186D01*
G01X9304951Y1087743D01*
G01X9334278Y1087743D01*
G01X9442686Y899986D01*
G01X9551093Y1087743D01*
G01X9551093Y1087743D01*
G01X9334278Y1087743D01*
G01X9304951Y1087743D01*
G01X9290286Y1113143D01*
G37*
G36*
G01X9290286Y2274286D02*
G01X9569686Y2274286D01*
G01X9569686Y1994886D01*
G01X9290286Y1994886D01*
G01X9290286Y2248886D01*
G01X9315686Y2248886D01*
G01X9315686Y2020286D01*
G01X9544286Y2020286D01*
G01X9544286Y2248886D01*
G01X9544286Y2248886D01*
G01X9315686Y2248886D01*
G01X9290286Y2248886D01*
G01X9290286Y2274286D01*
G37*

G04 PolygonModel Start*
G54D16*
G01X9000000Y-483428D02*
G01X25627421Y-483428D01*
G01X9000000Y97143D02*
G01X25627421Y97143D01*
G01X9000000Y677714D02*
G01X25627421Y677714D01*
G01X9000000Y1258286D02*
G01X25627421Y1258286D01*
G01X9000000Y1838857D02*
G01X25627421Y1838857D01*
G01X9000000Y2419429D02*
G01X25627421Y2419429D01*
G01X9000000Y3000000D02*
G01X25627421Y3000000D01*
G01X9000000Y3000000D02*
G01X9000000Y-458028D01*
G01X10451429Y3000000D02*
G01X10451429Y-458028D01*
G01X11865592Y3000000D02*
G01X11865592Y-458028D01*
G01X15668117Y3000000D02*
G01X15668117Y-458028D01*
G01X17129524Y3000000D02*
G01X17129524Y-458028D01*
G01X18560705Y3000000D02*
G01X18560705Y-458028D01*
G01X20229884Y3000000D02*
G01X20229884Y-458028D01*
G01X22149253Y3000000D02*
G01X22149253Y-458028D01*
G01X25627421Y3000000D02*
G01X25627421Y-458028D01*

M02*

