ISO-10303-21;
HEADER;
/* Generated by software containing ST-Developer
 * from STEP Tools, Inc. (www.steptools.com) 
 */

FILE_DESCRIPTION(
/* description */ (''),
/* implementation_level */ '2;1');

FILE_NAME(
/* name */ 'frame_back_side.stp',
/* time_stamp */ '2026-09-01T11:18:13+02:00',
/* author */ ('carlos'),
/* organization */ (''),
/* preprocessor_version */ 'ST-DEVELOPER v20.1',
/* originating_system */ 'Autodesk Inventor 2027',
/* authorisation */ '');

FILE_SCHEMA (('AUTOMOTIVE_DESIGN { 1 0 10303 214 3 1 1 }'));
ENDSEC;

DATA;
#10=MECHANICAL_DESIGN_GEOMETRIC_PRESENTATION_REPRESENTATION('',(#26,#27,
#28,#29,#30,#31,#32,#33,#34),#2015);
#11=GEOMETRICALLY_BOUNDED_WIREFRAME_SHAPE_REPRESENTATION('',(#12),#2014);
#12=GEOMETRIC_CURVE_SET('Sketch7',(#18,#19,#20,#21,#22,#23,#24,#25,#16,
#17,#2011));
#13=SHAPE_REPRESENTATION_RELATIONSHIP('SRR','None',#2022,#15);
#14=SHAPE_REPRESENTATION_RELATIONSHIP('SRR','None',#2022,#11);
#15=ADVANCED_BREP_SHAPE_REPRESENTATION('',(#35),#2014);
#16=CIRCLE('',#1346,0.5);
#17=CIRCLE('',#1347,0.500000000000005);
#18=POLYLINE('',(#1993,#1994));
#19=POLYLINE('',(#1995,#1996));
#20=POLYLINE('',(#1997,#1998));
#21=POLYLINE('',(#1999,#2000));
#22=POLYLINE('',(#2001,#2002));
#23=POLYLINE('',(#2003,#2004));
#24=POLYLINE('',(#2005,#2006));
#25=POLYLINE('',(#2007,#2008));
#26=STYLED_ITEM('',(#2031),#35);
#27=STYLED_ITEM('',(#2032),#18);
#28=STYLED_ITEM('',(#2032),#19);
#29=STYLED_ITEM('',(#2032),#20);
#30=STYLED_ITEM('',(#2032),#21);
#31=STYLED_ITEM('',(#2032),#22);
#32=STYLED_ITEM('',(#2032),#23);
#33=STYLED_ITEM('',(#2032),#24);
#34=STYLED_ITEM('',(#2032),#25);
#35=MANIFOLD_SOLID_BREP('Solid1',#1257);
#36=FACE_BOUND('',#117,.T.);
#37=FACE_BOUND('',#118,.T.);
#38=FACE_BOUND('',#119,.T.);
#39=FACE_BOUND('',#121,.T.);
#40=FACE_BOUND('',#122,.T.);
#41=FACE_BOUND('',#182,.T.);
#42=FACE_BOUND('',#185,.T.);
#43=FACE_BOUND('',#186,.T.);
#44=FACE_BOUND('',#187,.T.);
#45=FACE_BOUND('',#188,.T.);
#46=FACE_BOUND('',#189,.T.);
#47=FACE_OUTER_BOUND('',#113,.T.);
#48=FACE_OUTER_BOUND('',#114,.T.);
#49=FACE_OUTER_BOUND('',#115,.T.);
#50=FACE_OUTER_BOUND('',#116,.T.);
#51=FACE_OUTER_BOUND('',#120,.T.);
#52=FACE_OUTER_BOUND('',#123,.T.);
#53=FACE_OUTER_BOUND('',#124,.T.);
#54=FACE_OUTER_BOUND('',#125,.T.);
#55=FACE_OUTER_BOUND('',#126,.T.);
#56=FACE_OUTER_BOUND('',#127,.T.);
#57=FACE_OUTER_BOUND('',#128,.T.);
#58=FACE_OUTER_BOUND('',#129,.T.);
#59=FACE_OUTER_BOUND('',#130,.T.);
#60=FACE_OUTER_BOUND('',#131,.T.);
#61=FACE_OUTER_BOUND('',#132,.T.);
#62=FACE_OUTER_BOUND('',#133,.T.);
#63=FACE_OUTER_BOUND('',#134,.T.);
#64=FACE_OUTER_BOUND('',#135,.T.);
#65=FACE_OUTER_BOUND('',#136,.T.);
#66=FACE_OUTER_BOUND('',#137,.T.);
#67=FACE_OUTER_BOUND('',#138,.T.);
#68=FACE_OUTER_BOUND('',#139,.T.);
#69=FACE_OUTER_BOUND('',#140,.T.);
#70=FACE_OUTER_BOUND('',#141,.T.);
#71=FACE_OUTER_BOUND('',#142,.T.);
#72=FACE_OUTER_BOUND('',#143,.T.);
#73=FACE_OUTER_BOUND('',#144,.T.);
#74=FACE_OUTER_BOUND('',#145,.T.);
#75=FACE_OUTER_BOUND('',#146,.T.);
#76=FACE_OUTER_BOUND('',#147,.T.);
#77=FACE_OUTER_BOUND('',#148,.T.);
#78=FACE_OUTER_BOUND('',#149,.T.);
#79=FACE_OUTER_BOUND('',#150,.T.);
#80=FACE_OUTER_BOUND('',#151,.T.);
#81=FACE_OUTER_BOUND('',#152,.T.);
#82=FACE_OUTER_BOUND('',#153,.T.);
#83=FACE_OUTER_BOUND('',#154,.T.);
#84=FACE_OUTER_BOUND('',#155,.T.);
#85=FACE_OUTER_BOUND('',#156,.T.);
#86=FACE_OUTER_BOUND('',#157,.T.);
#87=FACE_OUTER_BOUND('',#158,.T.);
#88=FACE_OUTER_BOUND('',#159,.T.);
#89=FACE_OUTER_BOUND('',#160,.T.);
#90=FACE_OUTER_BOUND('',#161,.T.);
#91=FACE_OUTER_BOUND('',#162,.T.);
#92=FACE_OUTER_BOUND('',#163,.T.);
#93=FACE_OUTER_BOUND('',#164,.T.);
#94=FACE_OUTER_BOUND('',#165,.T.);
#95=FACE_OUTER_BOUND('',#166,.T.);
#96=FACE_OUTER_BOUND('',#167,.T.);
#97=FACE_OUTER_BOUND('',#168,.T.);
#98=FACE_OUTER_BOUND('',#169,.T.);
#99=FACE_OUTER_BOUND('',#170,.T.);
#100=FACE_OUTER_BOUND('',#171,.T.);
#101=FACE_OUTER_BOUND('',#172,.T.);
#102=FACE_OUTER_BOUND('',#173,.T.);
#103=FACE_OUTER_BOUND('',#174,.T.);
#104=FACE_OUTER_BOUND('',#175,.T.);
#105=FACE_OUTER_BOUND('',#176,.T.);
#106=FACE_OUTER_BOUND('',#177,.T.);
#107=FACE_OUTER_BOUND('',#178,.T.);
#108=FACE_OUTER_BOUND('',#179,.T.);
#109=FACE_OUTER_BOUND('',#180,.T.);
#110=FACE_OUTER_BOUND('',#181,.T.);
#111=FACE_OUTER_BOUND('',#183,.T.);
#112=FACE_OUTER_BOUND('',#184,.T.);
#113=EDGE_LOOP('',(#795,#796,#797,#798));
#114=EDGE_LOOP('',(#799,#800,#801,#802));
#115=EDGE_LOOP('',(#803,#804,#805,#806,#807,#808));
#116=EDGE_LOOP('',(#809,#810,#811,#812,#813,#814));
#117=EDGE_LOOP('',(#815,#816,#817,#818));
#118=EDGE_LOOP('',(#819,#820,#821,#822));
#119=EDGE_LOOP('',(#823,#824,#825,#826));
#120=EDGE_LOOP('',(#827,#828,#829,#830));
#121=EDGE_LOOP('',(#831,#832,#833,#834));
#122=EDGE_LOOP('',(#835,#836,#837,#838));
#123=EDGE_LOOP('',(#839,#840,#841,#842,#843,#844,#845,#846));
#124=EDGE_LOOP('',(#847,#848,#849,#850));
#125=EDGE_LOOP('',(#851,#852,#853,#854));
#126=EDGE_LOOP('',(#855,#856,#857,#858));
#127=EDGE_LOOP('',(#859,#860,#861,#862,#863,#864,#865,#866,#867,#868));
#128=EDGE_LOOP('',(#869,#870,#871,#872));
#129=EDGE_LOOP('',(#873,#874,#875,#876));
#130=EDGE_LOOP('',(#877,#878,#879,#880));
#131=EDGE_LOOP('',(#881,#882,#883,#884));
#132=EDGE_LOOP('',(#885,#886,#887,#888));
#133=EDGE_LOOP('',(#889,#890,#891,#892));
#134=EDGE_LOOP('',(#893,#894,#895,#896));
#135=EDGE_LOOP('',(#897,#898,#899,#900));
#136=EDGE_LOOP('',(#901,#902,#903,#904));
#137=EDGE_LOOP('',(#905,#906,#907,#908));
#138=EDGE_LOOP('',(#909,#910,#911,#912));
#139=EDGE_LOOP('',(#913,#914,#915,#916));
#140=EDGE_LOOP('',(#917,#918,#919,#920));
#141=EDGE_LOOP('',(#921,#922,#923,#924));
#142=EDGE_LOOP('',(#925,#926,#927,#928));
#143=EDGE_LOOP('',(#929,#930,#931,#932));
#144=EDGE_LOOP('',(#933,#934,#935,#936));
#145=EDGE_LOOP('',(#937,#938,#939,#940));
#146=EDGE_LOOP('',(#941,#942,#943,#944));
#147=EDGE_LOOP('',(#945,#946,#947,#948));
#148=EDGE_LOOP('',(#949,#950,#951,#952));
#149=EDGE_LOOP('',(#953,#954,#955,#956));
#150=EDGE_LOOP('',(#957,#958,#959,#960));
#151=EDGE_LOOP('',(#961,#962,#963,#964));
#152=EDGE_LOOP('',(#965,#966,#967,#968));
#153=EDGE_LOOP('',(#969,#970,#971,#972));
#154=EDGE_LOOP('',(#973,#974,#975,#976));
#155=EDGE_LOOP('',(#977,#978,#979,#980));
#156=EDGE_LOOP('',(#981,#982,#983,#984));
#157=EDGE_LOOP('',(#985,#986,#987,#988));
#158=EDGE_LOOP('',(#989,#990,#991,#992));
#159=EDGE_LOOP('',(#993,#994,#995,#996));
#160=EDGE_LOOP('',(#997,#998,#999,#1000));
#161=EDGE_LOOP('',(#1001,#1002,#1003,#1004));
#162=EDGE_LOOP('',(#1005,#1006,#1007,#1008));
#163=EDGE_LOOP('',(#1009,#1010,#1011,#1012));
#164=EDGE_LOOP('',(#1013,#1014,#1015,#1016));
#165=EDGE_LOOP('',(#1017,#1018,#1019,#1020));
#166=EDGE_LOOP('',(#1021,#1022,#1023,#1024));
#167=EDGE_LOOP('',(#1025,#1026,#1027,#1028));
#168=EDGE_LOOP('',(#1029,#1030,#1031,#1032));
#169=EDGE_LOOP('',(#1033,#1034,#1035,#1036));
#170=EDGE_LOOP('',(#1037,#1038,#1039,#1040));
#171=EDGE_LOOP('',(#1041,#1042,#1043,#1044));
#172=EDGE_LOOP('',(#1045,#1046,#1047,#1048));
#173=EDGE_LOOP('',(#1049,#1050,#1051,#1052));
#174=EDGE_LOOP('',(#1053,#1054,#1055,#1056));
#175=EDGE_LOOP('',(#1057,#1058,#1059,#1060));
#176=EDGE_LOOP('',(#1061,#1062,#1063,#1064));
#177=EDGE_LOOP('',(#1065,#1066,#1067,#1068));
#178=EDGE_LOOP('',(#1069,#1070,#1071,#1072,#1073,#1074,#1075,#1076));
#179=EDGE_LOOP('',(#1077,#1078,#1079,#1080));
#180=EDGE_LOOP('',(#1081,#1082,#1083,#1084));
#181=EDGE_LOOP('',(#1085,#1086,#1087,#1088));
#182=EDGE_LOOP('',(#1089,#1090,#1091,#1092));
#183=EDGE_LOOP('',(#1093,#1094,#1095,#1096));
#184=EDGE_LOOP('',(#1097,#1098,#1099,#1100,#1101,#1102,#1103,#1104));
#185=EDGE_LOOP('',(#1105,#1106,#1107,#1108));
#186=EDGE_LOOP('',(#1109,#1110,#1111,#1112));
#187=EDGE_LOOP('',(#1113,#1114,#1115,#1116));
#188=EDGE_LOOP('',(#1117,#1118,#1119,#1120));
#189=EDGE_LOOP('',(#1121,#1122,#1123,#1124));
#190=LINE('',#1655,#355);
#191=LINE('',#1657,#356);
#192=LINE('',#1659,#357);
#193=LINE('',#1660,#358);
#194=LINE('',#1663,#359);
#195=LINE('',#1665,#360);
#196=LINE('',#1666,#361);
#197=LINE('',#1669,#362);
#198=LINE('',#1671,#363);
#199=LINE('',#1673,#364);
#200=LINE('',#1674,#365);
#201=LINE('',#1678,#366);
#202=LINE('',#1680,#367);
#203=LINE('',#1682,#368);
#204=LINE('',#1684,#369);
#205=LINE('',#1686,#370);
#206=LINE('',#1687,#371);
#207=LINE('',#1690,#372);
#208=LINE('',#1692,#373);
#209=LINE('',#1694,#374);
#210=LINE('',#1695,#375);
#211=LINE('',#1698,#376);
#212=LINE('',#1700,#377);
#213=LINE('',#1702,#378);
#214=LINE('',#1703,#379);
#215=LINE('',#1706,#380);
#216=LINE('',#1708,#381);
#217=LINE('',#1710,#382);
#218=LINE('',#1711,#383);
#219=LINE('',#1714,#384);
#220=LINE('',#1715,#385);
#221=LINE('',#1718,#386);
#222=LINE('',#1720,#387);
#223=LINE('',#1722,#388);
#224=LINE('',#1723,#389);
#225=LINE('',#1726,#390);
#226=LINE('',#1728,#391);
#227=LINE('',#1730,#392);
#228=LINE('',#1731,#393);
#229=LINE('',#1733,#394);
#230=LINE('',#1735,#395);
#231=LINE('',#1737,#396);
#232=LINE('',#1738,#397);
#233=LINE('',#1742,#398);
#234=LINE('',#1744,#399);
#235=LINE('',#1746,#400);
#236=LINE('',#1747,#401);
#237=LINE('',#1750,#402);
#238=LINE('',#1752,#403);
#239=LINE('',#1753,#404);
#240=LINE('',#1756,#405);
#241=LINE('',#1758,#406);
#242=LINE('',#1759,#407);
#243=LINE('',#1761,#408);
#244=LINE('',#1763,#409);
#245=LINE('',#1764,#410);
#246=LINE('',#1767,#411);
#247=LINE('',#1769,#412);
#248=LINE('',#1770,#413);
#249=LINE('',#1773,#414);
#250=LINE('',#1774,#415);
#251=LINE('',#1777,#416);
#252=LINE('',#1778,#417);
#253=LINE('',#1782,#418);
#254=LINE('',#1784,#419);
#255=LINE('',#1786,#420);
#256=LINE('',#1787,#421);
#257=LINE('',#1789,#422);
#258=LINE('',#1792,#423);
#259=LINE('',#1794,#424);
#260=LINE('',#1795,#425);
#261=LINE('',#1798,#426);
#262=LINE('',#1799,#427);
#263=LINE('',#1802,#428);
#264=LINE('',#1803,#429);
#265=LINE('',#1805,#430);
#266=LINE('',#1809,#431);
#267=LINE('',#1811,#432);
#268=LINE('',#1812,#433);
#269=LINE('',#1815,#434);
#270=LINE('',#1816,#435);
#271=LINE('',#1819,#436);
#272=LINE('',#1820,#437);
#273=LINE('',#1824,#438);
#274=LINE('',#1826,#439);
#275=LINE('',#1828,#440);
#276=LINE('',#1829,#441);
#277=LINE('',#1831,#442);
#278=LINE('',#1834,#443);
#279=LINE('',#1836,#444);
#280=LINE('',#1837,#445);
#281=LINE('',#1840,#446);
#282=LINE('',#1841,#447);
#283=LINE('',#1844,#448);
#284=LINE('',#1845,#449);
#285=LINE('',#1847,#450);
#286=LINE('',#1851,#451);
#287=LINE('',#1853,#452);
#288=LINE('',#1854,#453);
#289=LINE('',#1857,#454);
#290=LINE('',#1858,#455);
#291=LINE('',#1861,#456);
#292=LINE('',#1862,#457);
#293=LINE('',#1866,#458);
#294=LINE('',#1868,#459);
#295=LINE('',#1870,#460);
#296=LINE('',#1871,#461);
#297=LINE('',#1873,#462);
#298=LINE('',#1876,#463);
#299=LINE('',#1878,#464);
#300=LINE('',#1879,#465);
#301=LINE('',#1882,#466);
#302=LINE('',#1883,#467);
#303=LINE('',#1886,#468);
#304=LINE('',#1887,#469);
#305=LINE('',#1889,#470);
#306=LINE('',#1893,#471);
#307=LINE('',#1895,#472);
#308=LINE('',#1896,#473);
#309=LINE('',#1899,#474);
#310=LINE('',#1900,#475);
#311=LINE('',#1903,#476);
#312=LINE('',#1904,#477);
#313=LINE('',#1908,#478);
#314=LINE('',#1910,#479);
#315=LINE('',#1912,#480);
#316=LINE('',#1913,#481);
#317=LINE('',#1915,#482);
#318=LINE('',#1918,#483);
#319=LINE('',#1920,#484);
#320=LINE('',#1921,#485);
#321=LINE('',#1924,#486);
#322=LINE('',#1925,#487);
#323=LINE('',#1928,#488);
#324=LINE('',#1929,#489);
#325=LINE('',#1931,#490);
#326=LINE('',#1935,#491);
#327=LINE('',#1937,#492);
#328=LINE('',#1938,#493);
#329=LINE('',#1941,#494);
#330=LINE('',#1942,#495);
#331=LINE('',#1945,#496);
#332=LINE('',#1946,#497);
#333=LINE('',#1950,#498);
#334=LINE('',#1952,#499);
#335=LINE('',#1954,#500);
#336=LINE('',#1955,#501);
#337=LINE('',#1957,#502);
#338=LINE('',#1960,#503);
#339=LINE('',#1962,#504);
#340=LINE('',#1963,#505);
#341=LINE('',#1966,#506);
#342=LINE('',#1967,#507);
#343=LINE('',#1970,#508);
#344=LINE('',#1971,#509);
#345=LINE('',#1973,#510);
#346=LINE('',#1976,#511);
#347=LINE('',#1978,#512);
#348=LINE('',#1979,#513);
#349=LINE('',#1982,#514);
#350=LINE('',#1983,#515);
#351=LINE('',#1986,#516);
#352=LINE('',#1987,#517);
#353=LINE('',#1989,#518);
#354=LINE('',#1991,#519);
#355=VECTOR('',#1352,10.);
#356=VECTOR('',#1353,10.);
#357=VECTOR('',#1354,10.);
#358=VECTOR('',#1355,10.);
#359=VECTOR('',#1358,10.);
#360=VECTOR('',#1359,10.);
#361=VECTOR('',#1360,10.);
#362=VECTOR('',#1363,10.);
#363=VECTOR('',#1364,10.);
#364=VECTOR('',#1365,10.);
#365=VECTOR('',#1366,10.);
#366=VECTOR('',#1369,10.);
#367=VECTOR('',#1370,10.);
#368=VECTOR('',#1371,10.);
#369=VECTOR('',#1372,10.);
#370=VECTOR('',#1373,10.);
#371=VECTOR('',#1374,10.);
#372=VECTOR('',#1375,10.);
#373=VECTOR('',#1376,10.);
#374=VECTOR('',#1377,10.);
#375=VECTOR('',#1378,10.);
#376=VECTOR('',#1379,10.);
#377=VECTOR('',#1380,10.);
#378=VECTOR('',#1381,10.);
#379=VECTOR('',#1382,10.);
#380=VECTOR('',#1383,10.);
#381=VECTOR('',#1384,10.);
#382=VECTOR('',#1385,10.);
#383=VECTOR('',#1386,10.);
#384=VECTOR('',#1389,10.);
#385=VECTOR('',#1390,10.);
#386=VECTOR('',#1391,10.);
#387=VECTOR('',#1392,10.);
#388=VECTOR('',#1393,10.);
#389=VECTOR('',#1394,10.);
#390=VECTOR('',#1395,10.);
#391=VECTOR('',#1396,10.);
#392=VECTOR('',#1397,10.);
#393=VECTOR('',#1398,10.);
#394=VECTOR('',#1401,10.);
#395=VECTOR('',#1402,10.);
#396=VECTOR('',#1403,10.);
#397=VECTOR('',#1404,10.);
#398=VECTOR('',#1407,10.);
#399=VECTOR('',#1408,10.);
#400=VECTOR('',#1409,10.);
#401=VECTOR('',#1410,10.);
#402=VECTOR('',#1413,10.);
#403=VECTOR('',#1414,10.);
#404=VECTOR('',#1415,10.);
#405=VECTOR('',#1418,10.);
#406=VECTOR('',#1419,10.);
#407=VECTOR('',#1420,10.);
#408=VECTOR('',#1423,10.);
#409=VECTOR('',#1424,10.);
#410=VECTOR('',#1425,10.);
#411=VECTOR('',#1428,10.);
#412=VECTOR('',#1429,10.);
#413=VECTOR('',#1430,10.);
#414=VECTOR('',#1433,10.);
#415=VECTOR('',#1434,10.);
#416=VECTOR('',#1437,10.);
#417=VECTOR('',#1438,10.);
#418=VECTOR('',#1441,10.);
#419=VECTOR('',#1442,10.);
#420=VECTOR('',#1443,10.);
#421=VECTOR('',#1444,10.);
#422=VECTOR('',#1447,10.);
#423=VECTOR('',#1450,10.);
#424=VECTOR('',#1451,10.);
#425=VECTOR('',#1452,10.);
#426=VECTOR('',#1455,10.);
#427=VECTOR('',#1456,10.);
#428=VECTOR('',#1459,10.);
#429=VECTOR('',#1460,10.);
#430=VECTOR('',#1463,10.);
#431=VECTOR('',#1468,10.);
#432=VECTOR('',#1469,10.);
#433=VECTOR('',#1470,10.);
#434=VECTOR('',#1473,10.);
#435=VECTOR('',#1474,10.);
#436=VECTOR('',#1477,10.);
#437=VECTOR('',#1478,10.);
#438=VECTOR('',#1481,10.);
#439=VECTOR('',#1482,10.);
#440=VECTOR('',#1483,10.);
#441=VECTOR('',#1484,10.);
#442=VECTOR('',#1487,10.);
#443=VECTOR('',#1490,10.);
#444=VECTOR('',#1491,10.);
#445=VECTOR('',#1492,10.);
#446=VECTOR('',#1495,10.);
#447=VECTOR('',#1496,10.);
#448=VECTOR('',#1499,10.);
#449=VECTOR('',#1500,10.);
#450=VECTOR('',#1503,10.);
#451=VECTOR('',#1508,10.);
#452=VECTOR('',#1509,10.);
#453=VECTOR('',#1510,10.);
#454=VECTOR('',#1513,10.);
#455=VECTOR('',#1514,10.);
#456=VECTOR('',#1517,10.);
#457=VECTOR('',#1518,10.);
#458=VECTOR('',#1521,10.);
#459=VECTOR('',#1522,10.);
#460=VECTOR('',#1523,10.);
#461=VECTOR('',#1524,10.);
#462=VECTOR('',#1527,10.);
#463=VECTOR('',#1530,10.);
#464=VECTOR('',#1531,10.);
#465=VECTOR('',#1532,10.);
#466=VECTOR('',#1535,10.);
#467=VECTOR('',#1536,10.);
#468=VECTOR('',#1539,10.);
#469=VECTOR('',#1540,10.);
#470=VECTOR('',#1543,10.);
#471=VECTOR('',#1548,10.);
#472=VECTOR('',#1549,10.);
#473=VECTOR('',#1550,10.);
#474=VECTOR('',#1553,10.);
#475=VECTOR('',#1554,10.);
#476=VECTOR('',#1557,10.);
#477=VECTOR('',#1558,10.);
#478=VECTOR('',#1561,10.);
#479=VECTOR('',#1562,10.);
#480=VECTOR('',#1563,10.);
#481=VECTOR('',#1564,10.);
#482=VECTOR('',#1567,10.);
#483=VECTOR('',#1570,10.);
#484=VECTOR('',#1571,10.);
#485=VECTOR('',#1572,10.);
#486=VECTOR('',#1575,10.);
#487=VECTOR('',#1576,10.);
#488=VECTOR('',#1579,10.);
#489=VECTOR('',#1580,10.);
#490=VECTOR('',#1583,10.);
#491=VECTOR('',#1588,10.);
#492=VECTOR('',#1589,10.);
#493=VECTOR('',#1590,10.);
#494=VECTOR('',#1593,10.);
#495=VECTOR('',#1594,10.);
#496=VECTOR('',#1597,10.);
#497=VECTOR('',#1598,10.);
#498=VECTOR('',#1601,10.);
#499=VECTOR('',#1602,10.);
#500=VECTOR('',#1603,10.);
#501=VECTOR('',#1604,10.);
#502=VECTOR('',#1607,10.);
#503=VECTOR('',#1610,10.);
#504=VECTOR('',#1611,10.);
#505=VECTOR('',#1612,10.);
#506=VECTOR('',#1615,10.);
#507=VECTOR('',#1616,10.);
#508=VECTOR('',#1619,10.);
#509=VECTOR('',#1620,10.);
#510=VECTOR('',#1623,10.);
#511=VECTOR('',#1628,10.);
#512=VECTOR('',#1629,10.);
#513=VECTOR('',#1630,10.);
#514=VECTOR('',#1633,10.);
#515=VECTOR('',#1634,10.);
#516=VECTOR('',#1637,10.);
#517=VECTOR('',#1638,10.);
#518=VECTOR('',#1641,10.);
#519=VECTOR('',#1644,10.);
#520=VERTEX_POINT('',#1653);
#521=VERTEX_POINT('',#1654);
#522=VERTEX_POINT('',#1656);
#523=VERTEX_POINT('',#1658);
#524=VERTEX_POINT('',#1662);
#525=VERTEX_POINT('',#1664);
#526=VERTEX_POINT('',#1668);
#527=VERTEX_POINT('',#1670);
#528=VERTEX_POINT('',#1672);
#529=VERTEX_POINT('',#1676);
#530=VERTEX_POINT('',#1677);
#531=VERTEX_POINT('',#1679);
#532=VERTEX_POINT('',#1681);
#533=VERTEX_POINT('',#1683);
#534=VERTEX_POINT('',#1685);
#535=VERTEX_POINT('',#1688);
#536=VERTEX_POINT('',#1689);
#537=VERTEX_POINT('',#1691);
#538=VERTEX_POINT('',#1693);
#539=VERTEX_POINT('',#1696);
#540=VERTEX_POINT('',#1697);
#541=VERTEX_POINT('',#1699);
#542=VERTEX_POINT('',#1701);
#543=VERTEX_POINT('',#1704);
#544=VERTEX_POINT('',#1705);
#545=VERTEX_POINT('',#1707);
#546=VERTEX_POINT('',#1709);
#547=VERTEX_POINT('',#1713);
#548=VERTEX_POINT('',#1716);
#549=VERTEX_POINT('',#1717);
#550=VERTEX_POINT('',#1719);
#551=VERTEX_POINT('',#1721);
#552=VERTEX_POINT('',#1724);
#553=VERTEX_POINT('',#1725);
#554=VERTEX_POINT('',#1727);
#555=VERTEX_POINT('',#1729);
#556=VERTEX_POINT('',#1734);
#557=VERTEX_POINT('',#1736);
#558=VERTEX_POINT('',#1740);
#559=VERTEX_POINT('',#1741);
#560=VERTEX_POINT('',#1743);
#561=VERTEX_POINT('',#1745);
#562=VERTEX_POINT('',#1749);
#563=VERTEX_POINT('',#1751);
#564=VERTEX_POINT('',#1755);
#565=VERTEX_POINT('',#1757);
#566=VERTEX_POINT('',#1762);
#567=VERTEX_POINT('',#1766);
#568=VERTEX_POINT('',#1768);
#569=VERTEX_POINT('',#1772);
#570=VERTEX_POINT('',#1776);
#571=VERTEX_POINT('',#1780);
#572=VERTEX_POINT('',#1781);
#573=VERTEX_POINT('',#1783);
#574=VERTEX_POINT('',#1785);
#575=VERTEX_POINT('',#1791);
#576=VERTEX_POINT('',#1793);
#577=VERTEX_POINT('',#1797);
#578=VERTEX_POINT('',#1801);
#579=VERTEX_POINT('',#1808);
#580=VERTEX_POINT('',#1810);
#581=VERTEX_POINT('',#1814);
#582=VERTEX_POINT('',#1818);
#583=VERTEX_POINT('',#1822);
#584=VERTEX_POINT('',#1823);
#585=VERTEX_POINT('',#1825);
#586=VERTEX_POINT('',#1827);
#587=VERTEX_POINT('',#1833);
#588=VERTEX_POINT('',#1835);
#589=VERTEX_POINT('',#1839);
#590=VERTEX_POINT('',#1843);
#591=VERTEX_POINT('',#1850);
#592=VERTEX_POINT('',#1852);
#593=VERTEX_POINT('',#1856);
#594=VERTEX_POINT('',#1860);
#595=VERTEX_POINT('',#1864);
#596=VERTEX_POINT('',#1865);
#597=VERTEX_POINT('',#1867);
#598=VERTEX_POINT('',#1869);
#599=VERTEX_POINT('',#1875);
#600=VERTEX_POINT('',#1877);
#601=VERTEX_POINT('',#1881);
#602=VERTEX_POINT('',#1885);
#603=VERTEX_POINT('',#1892);
#604=VERTEX_POINT('',#1894);
#605=VERTEX_POINT('',#1898);
#606=VERTEX_POINT('',#1902);
#607=VERTEX_POINT('',#1906);
#608=VERTEX_POINT('',#1907);
#609=VERTEX_POINT('',#1909);
#610=VERTEX_POINT('',#1911);
#611=VERTEX_POINT('',#1917);
#612=VERTEX_POINT('',#1919);
#613=VERTEX_POINT('',#1923);
#614=VERTEX_POINT('',#1927);
#615=VERTEX_POINT('',#1934);
#616=VERTEX_POINT('',#1936);
#617=VERTEX_POINT('',#1940);
#618=VERTEX_POINT('',#1944);
#619=VERTEX_POINT('',#1948);
#620=VERTEX_POINT('',#1949);
#621=VERTEX_POINT('',#1951);
#622=VERTEX_POINT('',#1953);
#623=VERTEX_POINT('',#1959);
#624=VERTEX_POINT('',#1961);
#625=VERTEX_POINT('',#1965);
#626=VERTEX_POINT('',#1969);
#627=VERTEX_POINT('',#1977);
#628=VERTEX_POINT('',#1981);
#629=VERTEX_POINT('',#1985);
#630=EDGE_CURVE('',#520,#521,#190,.T.);
#631=EDGE_CURVE('',#520,#522,#191,.T.);
#632=EDGE_CURVE('',#523,#522,#192,.T.);
#633=EDGE_CURVE('',#521,#523,#193,.T.);
#634=EDGE_CURVE('',#524,#520,#194,.T.);
#635=EDGE_CURVE('',#525,#524,#195,.T.);
#636=EDGE_CURVE('',#522,#525,#196,.T.);
#637=EDGE_CURVE('',#525,#526,#197,.T.);
#638=EDGE_CURVE('',#526,#527,#198,.T.);
#639=EDGE_CURVE('',#528,#527,#199,.T.);
#640=EDGE_CURVE('',#523,#528,#200,.T.);
#641=EDGE_CURVE('',#529,#530,#201,.T.);
#642=EDGE_CURVE('',#531,#529,#202,.T.);
#643=EDGE_CURVE('',#532,#531,#203,.T.);
#644=EDGE_CURVE('',#533,#532,#204,.T.);
#645=EDGE_CURVE('',#534,#533,#205,.T.);
#646=EDGE_CURVE('',#530,#534,#206,.T.);
#647=EDGE_CURVE('',#535,#536,#207,.T.);
#648=EDGE_CURVE('',#536,#537,#208,.T.);
#649=EDGE_CURVE('',#537,#538,#209,.T.);
#650=EDGE_CURVE('',#538,#535,#210,.T.);
#651=EDGE_CURVE('',#539,#540,#211,.T.);
#652=EDGE_CURVE('',#540,#541,#212,.T.);
#653=EDGE_CURVE('',#541,#542,#213,.T.);
#654=EDGE_CURVE('',#542,#539,#214,.T.);
#655=EDGE_CURVE('',#543,#544,#215,.T.);
#656=EDGE_CURVE('',#544,#545,#216,.T.);
#657=EDGE_CURVE('',#545,#546,#217,.T.);
#658=EDGE_CURVE('',#546,#543,#218,.T.);
#659=EDGE_CURVE('',#547,#524,#219,.T.);
#660=EDGE_CURVE('',#526,#547,#220,.T.);
#661=EDGE_CURVE('',#548,#549,#221,.T.);
#662=EDGE_CURVE('',#549,#550,#222,.T.);
#663=EDGE_CURVE('',#550,#551,#223,.T.);
#664=EDGE_CURVE('',#551,#548,#224,.T.);
#665=EDGE_CURVE('',#552,#553,#225,.T.);
#666=EDGE_CURVE('',#553,#554,#226,.T.);
#667=EDGE_CURVE('',#554,#555,#227,.T.);
#668=EDGE_CURVE('',#555,#552,#228,.T.);
#669=EDGE_CURVE('',#521,#530,#229,.T.);
#670=EDGE_CURVE('',#534,#556,#230,.T.);
#671=EDGE_CURVE('',#557,#556,#231,.T.);
#672=EDGE_CURVE('',#547,#557,#232,.T.);
#673=EDGE_CURVE('',#558,#559,#233,.T.);
#674=EDGE_CURVE('',#558,#560,#234,.T.);
#675=EDGE_CURVE('',#561,#560,#235,.T.);
#676=EDGE_CURVE('',#559,#561,#236,.T.);
#677=EDGE_CURVE('',#562,#558,#237,.T.);
#678=EDGE_CURVE('',#562,#563,#238,.T.);
#679=EDGE_CURVE('',#560,#563,#239,.T.);
#680=EDGE_CURVE('',#564,#562,#240,.T.);
#681=EDGE_CURVE('',#564,#565,#241,.T.);
#682=EDGE_CURVE('',#563,#565,#242,.T.);
#683=EDGE_CURVE('',#529,#565,#243,.T.);
#684=EDGE_CURVE('',#566,#528,#244,.T.);
#685=EDGE_CURVE('',#561,#566,#245,.T.);
#686=EDGE_CURVE('',#537,#567,#246,.T.);
#687=EDGE_CURVE('',#568,#567,#247,.T.);
#688=EDGE_CURVE('',#538,#568,#248,.T.);
#689=EDGE_CURVE('',#536,#569,#249,.T.);
#690=EDGE_CURVE('',#567,#569,#250,.T.);
#691=EDGE_CURVE('',#570,#568,#251,.T.);
#692=EDGE_CURVE('',#570,#535,#252,.T.);
#693=EDGE_CURVE('',#571,#572,#253,.T.);
#694=EDGE_CURVE('',#571,#573,#254,.T.);
#695=EDGE_CURVE('',#574,#573,#255,.T.);
#696=EDGE_CURVE('',#574,#572,#256,.T.);
#697=EDGE_CURVE('',#569,#570,#257,.T.);
#698=EDGE_CURVE('',#575,#571,#258,.T.);
#699=EDGE_CURVE('',#576,#575,#259,.T.);
#700=EDGE_CURVE('',#573,#576,#260,.T.);
#701=EDGE_CURVE('',#576,#577,#261,.T.);
#702=EDGE_CURVE('',#577,#574,#262,.T.);
#703=EDGE_CURVE('',#578,#575,#263,.T.);
#704=EDGE_CURVE('',#577,#578,#264,.T.);
#705=EDGE_CURVE('',#572,#578,#265,.T.);
#706=EDGE_CURVE('',#541,#579,#266,.T.);
#707=EDGE_CURVE('',#580,#579,#267,.T.);
#708=EDGE_CURVE('',#542,#580,#268,.T.);
#709=EDGE_CURVE('',#540,#581,#269,.T.);
#710=EDGE_CURVE('',#579,#581,#270,.T.);
#711=EDGE_CURVE('',#582,#580,#271,.T.);
#712=EDGE_CURVE('',#582,#539,#272,.T.);
#713=EDGE_CURVE('',#583,#584,#273,.T.);
#714=EDGE_CURVE('',#583,#585,#274,.T.);
#715=EDGE_CURVE('',#586,#585,#275,.T.);
#716=EDGE_CURVE('',#586,#584,#276,.T.);
#717=EDGE_CURVE('',#581,#582,#277,.T.);
#718=EDGE_CURVE('',#587,#583,#278,.T.);
#719=EDGE_CURVE('',#588,#587,#279,.T.);
#720=EDGE_CURVE('',#585,#588,#280,.T.);
#721=EDGE_CURVE('',#588,#589,#281,.T.);
#722=EDGE_CURVE('',#589,#586,#282,.T.);
#723=EDGE_CURVE('',#590,#587,#283,.T.);
#724=EDGE_CURVE('',#589,#590,#284,.T.);
#725=EDGE_CURVE('',#584,#590,#285,.T.);
#726=EDGE_CURVE('',#554,#591,#286,.T.);
#727=EDGE_CURVE('',#592,#591,#287,.T.);
#728=EDGE_CURVE('',#555,#592,#288,.T.);
#729=EDGE_CURVE('',#553,#593,#289,.T.);
#730=EDGE_CURVE('',#591,#593,#290,.T.);
#731=EDGE_CURVE('',#594,#592,#291,.T.);
#732=EDGE_CURVE('',#594,#552,#292,.T.);
#733=EDGE_CURVE('',#595,#596,#293,.T.);
#734=EDGE_CURVE('',#595,#597,#294,.T.);
#735=EDGE_CURVE('',#598,#597,#295,.T.);
#736=EDGE_CURVE('',#598,#596,#296,.T.);
#737=EDGE_CURVE('',#593,#594,#297,.T.);
#738=EDGE_CURVE('',#599,#595,#298,.T.);
#739=EDGE_CURVE('',#600,#599,#299,.T.);
#740=EDGE_CURVE('',#597,#600,#300,.T.);
#741=EDGE_CURVE('',#600,#601,#301,.T.);
#742=EDGE_CURVE('',#601,#598,#302,.T.);
#743=EDGE_CURVE('',#602,#599,#303,.T.);
#744=EDGE_CURVE('',#601,#602,#304,.T.);
#745=EDGE_CURVE('',#596,#602,#305,.T.);
#746=EDGE_CURVE('',#545,#603,#306,.T.);
#747=EDGE_CURVE('',#604,#603,#307,.T.);
#748=EDGE_CURVE('',#546,#604,#308,.T.);
#749=EDGE_CURVE('',#544,#605,#309,.T.);
#750=EDGE_CURVE('',#603,#605,#310,.T.);
#751=EDGE_CURVE('',#606,#604,#311,.T.);
#752=EDGE_CURVE('',#606,#543,#312,.T.);
#753=EDGE_CURVE('',#607,#608,#313,.T.);
#754=EDGE_CURVE('',#607,#609,#314,.T.);
#755=EDGE_CURVE('',#610,#609,#315,.T.);
#756=EDGE_CURVE('',#610,#608,#316,.T.);
#757=EDGE_CURVE('',#605,#606,#317,.T.);
#758=EDGE_CURVE('',#611,#607,#318,.T.);
#759=EDGE_CURVE('',#612,#611,#319,.T.);
#760=EDGE_CURVE('',#609,#612,#320,.T.);
#761=EDGE_CURVE('',#612,#613,#321,.T.);
#762=EDGE_CURVE('',#613,#610,#322,.T.);
#763=EDGE_CURVE('',#614,#611,#323,.T.);
#764=EDGE_CURVE('',#613,#614,#324,.T.);
#765=EDGE_CURVE('',#608,#614,#325,.T.);
#766=EDGE_CURVE('',#550,#615,#326,.T.);
#767=EDGE_CURVE('',#616,#615,#327,.T.);
#768=EDGE_CURVE('',#551,#616,#328,.T.);
#769=EDGE_CURVE('',#549,#617,#329,.T.);
#770=EDGE_CURVE('',#615,#617,#330,.T.);
#771=EDGE_CURVE('',#618,#616,#331,.T.);
#772=EDGE_CURVE('',#618,#548,#332,.T.);
#773=EDGE_CURVE('',#619,#620,#333,.T.);
#774=EDGE_CURVE('',#619,#621,#334,.T.);
#775=EDGE_CURVE('',#622,#621,#335,.T.);
#776=EDGE_CURVE('',#622,#620,#336,.T.);
#777=EDGE_CURVE('',#617,#618,#337,.T.);
#778=EDGE_CURVE('',#623,#619,#338,.T.);
#779=EDGE_CURVE('',#624,#623,#339,.T.);
#780=EDGE_CURVE('',#621,#624,#340,.T.);
#781=EDGE_CURVE('',#624,#625,#341,.T.);
#782=EDGE_CURVE('',#625,#622,#342,.T.);
#783=EDGE_CURVE('',#626,#623,#343,.T.);
#784=EDGE_CURVE('',#625,#626,#344,.T.);
#785=EDGE_CURVE('',#620,#626,#345,.T.);
#786=EDGE_CURVE('',#559,#564,#346,.T.);
#787=EDGE_CURVE('',#627,#566,#347,.T.);
#788=EDGE_CURVE('',#531,#627,#348,.T.);
#789=EDGE_CURVE('',#628,#627,#349,.T.);
#790=EDGE_CURVE('',#532,#628,#350,.T.);
#791=EDGE_CURVE('',#629,#628,#351,.T.);
#792=EDGE_CURVE('',#533,#629,#352,.T.);
#793=EDGE_CURVE('',#556,#629,#353,.T.);
#794=EDGE_CURVE('',#527,#557,#354,.T.);
#795=ORIENTED_EDGE('',*,*,#630,.F.);
#796=ORIENTED_EDGE('',*,*,#631,.T.);
#797=ORIENTED_EDGE('',*,*,#632,.F.);
#798=ORIENTED_EDGE('',*,*,#633,.F.);
#799=ORIENTED_EDGE('',*,*,#634,.F.);
#800=ORIENTED_EDGE('',*,*,#635,.F.);
#801=ORIENTED_EDGE('',*,*,#636,.F.);
#802=ORIENTED_EDGE('',*,*,#631,.F.);
#803=ORIENTED_EDGE('',*,*,#632,.T.);
#804=ORIENTED_EDGE('',*,*,#636,.T.);
#805=ORIENTED_EDGE('',*,*,#637,.T.);
#806=ORIENTED_EDGE('',*,*,#638,.T.);
#807=ORIENTED_EDGE('',*,*,#639,.F.);
#808=ORIENTED_EDGE('',*,*,#640,.F.);
#809=ORIENTED_EDGE('',*,*,#641,.F.);
#810=ORIENTED_EDGE('',*,*,#642,.F.);
#811=ORIENTED_EDGE('',*,*,#643,.F.);
#812=ORIENTED_EDGE('',*,*,#644,.F.);
#813=ORIENTED_EDGE('',*,*,#645,.F.);
#814=ORIENTED_EDGE('',*,*,#646,.F.);
#815=ORIENTED_EDGE('',*,*,#647,.T.);
#816=ORIENTED_EDGE('',*,*,#648,.T.);
#817=ORIENTED_EDGE('',*,*,#649,.T.);
#818=ORIENTED_EDGE('',*,*,#650,.T.);
#819=ORIENTED_EDGE('',*,*,#651,.T.);
#820=ORIENTED_EDGE('',*,*,#652,.T.);
#821=ORIENTED_EDGE('',*,*,#653,.T.);
#822=ORIENTED_EDGE('',*,*,#654,.T.);
#823=ORIENTED_EDGE('',*,*,#655,.T.);
#824=ORIENTED_EDGE('',*,*,#656,.T.);
#825=ORIENTED_EDGE('',*,*,#657,.T.);
#826=ORIENTED_EDGE('',*,*,#658,.T.);
#827=ORIENTED_EDGE('',*,*,#635,.T.);
#828=ORIENTED_EDGE('',*,*,#659,.F.);
#829=ORIENTED_EDGE('',*,*,#660,.F.);
#830=ORIENTED_EDGE('',*,*,#637,.F.);
#831=ORIENTED_EDGE('',*,*,#661,.T.);
#832=ORIENTED_EDGE('',*,*,#662,.T.);
#833=ORIENTED_EDGE('',*,*,#663,.T.);
#834=ORIENTED_EDGE('',*,*,#664,.T.);
#835=ORIENTED_EDGE('',*,*,#665,.T.);
#836=ORIENTED_EDGE('',*,*,#666,.T.);
#837=ORIENTED_EDGE('',*,*,#667,.T.);
#838=ORIENTED_EDGE('',*,*,#668,.T.);
#839=ORIENTED_EDGE('',*,*,#634,.T.);
#840=ORIENTED_EDGE('',*,*,#630,.T.);
#841=ORIENTED_EDGE('',*,*,#669,.T.);
#842=ORIENTED_EDGE('',*,*,#646,.T.);
#843=ORIENTED_EDGE('',*,*,#670,.T.);
#844=ORIENTED_EDGE('',*,*,#671,.F.);
#845=ORIENTED_EDGE('',*,*,#672,.F.);
#846=ORIENTED_EDGE('',*,*,#659,.T.);
#847=ORIENTED_EDGE('',*,*,#673,.F.);
#848=ORIENTED_EDGE('',*,*,#674,.T.);
#849=ORIENTED_EDGE('',*,*,#675,.F.);
#850=ORIENTED_EDGE('',*,*,#676,.F.);
#851=ORIENTED_EDGE('',*,*,#677,.F.);
#852=ORIENTED_EDGE('',*,*,#678,.T.);
#853=ORIENTED_EDGE('',*,*,#679,.F.);
#854=ORIENTED_EDGE('',*,*,#674,.F.);
#855=ORIENTED_EDGE('',*,*,#680,.F.);
#856=ORIENTED_EDGE('',*,*,#681,.T.);
#857=ORIENTED_EDGE('',*,*,#682,.F.);
#858=ORIENTED_EDGE('',*,*,#678,.F.);
#859=ORIENTED_EDGE('',*,*,#675,.T.);
#860=ORIENTED_EDGE('',*,*,#679,.T.);
#861=ORIENTED_EDGE('',*,*,#682,.T.);
#862=ORIENTED_EDGE('',*,*,#683,.F.);
#863=ORIENTED_EDGE('',*,*,#641,.T.);
#864=ORIENTED_EDGE('',*,*,#669,.F.);
#865=ORIENTED_EDGE('',*,*,#633,.T.);
#866=ORIENTED_EDGE('',*,*,#640,.T.);
#867=ORIENTED_EDGE('',*,*,#684,.F.);
#868=ORIENTED_EDGE('',*,*,#685,.F.);
#869=ORIENTED_EDGE('',*,*,#649,.F.);
#870=ORIENTED_EDGE('',*,*,#686,.T.);
#871=ORIENTED_EDGE('',*,*,#687,.F.);
#872=ORIENTED_EDGE('',*,*,#688,.F.);
#873=ORIENTED_EDGE('',*,*,#648,.F.);
#874=ORIENTED_EDGE('',*,*,#689,.T.);
#875=ORIENTED_EDGE('',*,*,#690,.F.);
#876=ORIENTED_EDGE('',*,*,#686,.F.);
#877=ORIENTED_EDGE('',*,*,#650,.F.);
#878=ORIENTED_EDGE('',*,*,#688,.T.);
#879=ORIENTED_EDGE('',*,*,#691,.F.);
#880=ORIENTED_EDGE('',*,*,#692,.T.);
#881=ORIENTED_EDGE('',*,*,#693,.F.);
#882=ORIENTED_EDGE('',*,*,#694,.T.);
#883=ORIENTED_EDGE('',*,*,#695,.F.);
#884=ORIENTED_EDGE('',*,*,#696,.T.);
#885=ORIENTED_EDGE('',*,*,#647,.F.);
#886=ORIENTED_EDGE('',*,*,#692,.F.);
#887=ORIENTED_EDGE('',*,*,#697,.F.);
#888=ORIENTED_EDGE('',*,*,#689,.F.);
#889=ORIENTED_EDGE('',*,*,#698,.F.);
#890=ORIENTED_EDGE('',*,*,#699,.F.);
#891=ORIENTED_EDGE('',*,*,#700,.F.);
#892=ORIENTED_EDGE('',*,*,#694,.F.);
#893=ORIENTED_EDGE('',*,*,#695,.T.);
#894=ORIENTED_EDGE('',*,*,#700,.T.);
#895=ORIENTED_EDGE('',*,*,#701,.T.);
#896=ORIENTED_EDGE('',*,*,#702,.T.);
#897=ORIENTED_EDGE('',*,*,#703,.F.);
#898=ORIENTED_EDGE('',*,*,#704,.F.);
#899=ORIENTED_EDGE('',*,*,#701,.F.);
#900=ORIENTED_EDGE('',*,*,#699,.T.);
#901=ORIENTED_EDGE('',*,*,#705,.F.);
#902=ORIENTED_EDGE('',*,*,#696,.F.);
#903=ORIENTED_EDGE('',*,*,#702,.F.);
#904=ORIENTED_EDGE('',*,*,#704,.T.);
#905=ORIENTED_EDGE('',*,*,#691,.T.);
#906=ORIENTED_EDGE('',*,*,#687,.T.);
#907=ORIENTED_EDGE('',*,*,#690,.T.);
#908=ORIENTED_EDGE('',*,*,#697,.T.);
#909=ORIENTED_EDGE('',*,*,#653,.F.);
#910=ORIENTED_EDGE('',*,*,#706,.T.);
#911=ORIENTED_EDGE('',*,*,#707,.F.);
#912=ORIENTED_EDGE('',*,*,#708,.F.);
#913=ORIENTED_EDGE('',*,*,#652,.F.);
#914=ORIENTED_EDGE('',*,*,#709,.T.);
#915=ORIENTED_EDGE('',*,*,#710,.F.);
#916=ORIENTED_EDGE('',*,*,#706,.F.);
#917=ORIENTED_EDGE('',*,*,#654,.F.);
#918=ORIENTED_EDGE('',*,*,#708,.T.);
#919=ORIENTED_EDGE('',*,*,#711,.F.);
#920=ORIENTED_EDGE('',*,*,#712,.T.);
#921=ORIENTED_EDGE('',*,*,#713,.F.);
#922=ORIENTED_EDGE('',*,*,#714,.T.);
#923=ORIENTED_EDGE('',*,*,#715,.F.);
#924=ORIENTED_EDGE('',*,*,#716,.T.);
#925=ORIENTED_EDGE('',*,*,#651,.F.);
#926=ORIENTED_EDGE('',*,*,#712,.F.);
#927=ORIENTED_EDGE('',*,*,#717,.F.);
#928=ORIENTED_EDGE('',*,*,#709,.F.);
#929=ORIENTED_EDGE('',*,*,#718,.F.);
#930=ORIENTED_EDGE('',*,*,#719,.F.);
#931=ORIENTED_EDGE('',*,*,#720,.F.);
#932=ORIENTED_EDGE('',*,*,#714,.F.);
#933=ORIENTED_EDGE('',*,*,#715,.T.);
#934=ORIENTED_EDGE('',*,*,#720,.T.);
#935=ORIENTED_EDGE('',*,*,#721,.T.);
#936=ORIENTED_EDGE('',*,*,#722,.T.);
#937=ORIENTED_EDGE('',*,*,#723,.F.);
#938=ORIENTED_EDGE('',*,*,#724,.F.);
#939=ORIENTED_EDGE('',*,*,#721,.F.);
#940=ORIENTED_EDGE('',*,*,#719,.T.);
#941=ORIENTED_EDGE('',*,*,#725,.F.);
#942=ORIENTED_EDGE('',*,*,#716,.F.);
#943=ORIENTED_EDGE('',*,*,#722,.F.);
#944=ORIENTED_EDGE('',*,*,#724,.T.);
#945=ORIENTED_EDGE('',*,*,#711,.T.);
#946=ORIENTED_EDGE('',*,*,#707,.T.);
#947=ORIENTED_EDGE('',*,*,#710,.T.);
#948=ORIENTED_EDGE('',*,*,#717,.T.);
#949=ORIENTED_EDGE('',*,*,#667,.F.);
#950=ORIENTED_EDGE('',*,*,#726,.T.);
#951=ORIENTED_EDGE('',*,*,#727,.F.);
#952=ORIENTED_EDGE('',*,*,#728,.F.);
#953=ORIENTED_EDGE('',*,*,#666,.F.);
#954=ORIENTED_EDGE('',*,*,#729,.T.);
#955=ORIENTED_EDGE('',*,*,#730,.F.);
#956=ORIENTED_EDGE('',*,*,#726,.F.);
#957=ORIENTED_EDGE('',*,*,#668,.F.);
#958=ORIENTED_EDGE('',*,*,#728,.T.);
#959=ORIENTED_EDGE('',*,*,#731,.F.);
#960=ORIENTED_EDGE('',*,*,#732,.T.);
#961=ORIENTED_EDGE('',*,*,#733,.F.);
#962=ORIENTED_EDGE('',*,*,#734,.T.);
#963=ORIENTED_EDGE('',*,*,#735,.F.);
#964=ORIENTED_EDGE('',*,*,#736,.T.);
#965=ORIENTED_EDGE('',*,*,#665,.F.);
#966=ORIENTED_EDGE('',*,*,#732,.F.);
#967=ORIENTED_EDGE('',*,*,#737,.F.);
#968=ORIENTED_EDGE('',*,*,#729,.F.);
#969=ORIENTED_EDGE('',*,*,#738,.F.);
#970=ORIENTED_EDGE('',*,*,#739,.F.);
#971=ORIENTED_EDGE('',*,*,#740,.F.);
#972=ORIENTED_EDGE('',*,*,#734,.F.);
#973=ORIENTED_EDGE('',*,*,#735,.T.);
#974=ORIENTED_EDGE('',*,*,#740,.T.);
#975=ORIENTED_EDGE('',*,*,#741,.T.);
#976=ORIENTED_EDGE('',*,*,#742,.T.);
#977=ORIENTED_EDGE('',*,*,#743,.F.);
#978=ORIENTED_EDGE('',*,*,#744,.F.);
#979=ORIENTED_EDGE('',*,*,#741,.F.);
#980=ORIENTED_EDGE('',*,*,#739,.T.);
#981=ORIENTED_EDGE('',*,*,#745,.F.);
#982=ORIENTED_EDGE('',*,*,#736,.F.);
#983=ORIENTED_EDGE('',*,*,#742,.F.);
#984=ORIENTED_EDGE('',*,*,#744,.T.);
#985=ORIENTED_EDGE('',*,*,#731,.T.);
#986=ORIENTED_EDGE('',*,*,#727,.T.);
#987=ORIENTED_EDGE('',*,*,#730,.T.);
#988=ORIENTED_EDGE('',*,*,#737,.T.);
#989=ORIENTED_EDGE('',*,*,#657,.F.);
#990=ORIENTED_EDGE('',*,*,#746,.T.);
#991=ORIENTED_EDGE('',*,*,#747,.F.);
#992=ORIENTED_EDGE('',*,*,#748,.F.);
#993=ORIENTED_EDGE('',*,*,#656,.F.);
#994=ORIENTED_EDGE('',*,*,#749,.T.);
#995=ORIENTED_EDGE('',*,*,#750,.F.);
#996=ORIENTED_EDGE('',*,*,#746,.F.);
#997=ORIENTED_EDGE('',*,*,#658,.F.);
#998=ORIENTED_EDGE('',*,*,#748,.T.);
#999=ORIENTED_EDGE('',*,*,#751,.F.);
#1000=ORIENTED_EDGE('',*,*,#752,.T.);
#1001=ORIENTED_EDGE('',*,*,#753,.F.);
#1002=ORIENTED_EDGE('',*,*,#754,.T.);
#1003=ORIENTED_EDGE('',*,*,#755,.F.);
#1004=ORIENTED_EDGE('',*,*,#756,.T.);
#1005=ORIENTED_EDGE('',*,*,#655,.F.);
#1006=ORIENTED_EDGE('',*,*,#752,.F.);
#1007=ORIENTED_EDGE('',*,*,#757,.F.);
#1008=ORIENTED_EDGE('',*,*,#749,.F.);
#1009=ORIENTED_EDGE('',*,*,#758,.F.);
#1010=ORIENTED_EDGE('',*,*,#759,.F.);
#1011=ORIENTED_EDGE('',*,*,#760,.F.);
#1012=ORIENTED_EDGE('',*,*,#754,.F.);
#1013=ORIENTED_EDGE('',*,*,#755,.T.);
#1014=ORIENTED_EDGE('',*,*,#760,.T.);
#1015=ORIENTED_EDGE('',*,*,#761,.T.);
#1016=ORIENTED_EDGE('',*,*,#762,.T.);
#1017=ORIENTED_EDGE('',*,*,#763,.F.);
#1018=ORIENTED_EDGE('',*,*,#764,.F.);
#1019=ORIENTED_EDGE('',*,*,#761,.F.);
#1020=ORIENTED_EDGE('',*,*,#759,.T.);
#1021=ORIENTED_EDGE('',*,*,#765,.F.);
#1022=ORIENTED_EDGE('',*,*,#756,.F.);
#1023=ORIENTED_EDGE('',*,*,#762,.F.);
#1024=ORIENTED_EDGE('',*,*,#764,.T.);
#1025=ORIENTED_EDGE('',*,*,#751,.T.);
#1026=ORIENTED_EDGE('',*,*,#747,.T.);
#1027=ORIENTED_EDGE('',*,*,#750,.T.);
#1028=ORIENTED_EDGE('',*,*,#757,.T.);
#1029=ORIENTED_EDGE('',*,*,#663,.F.);
#1030=ORIENTED_EDGE('',*,*,#766,.T.);
#1031=ORIENTED_EDGE('',*,*,#767,.F.);
#1032=ORIENTED_EDGE('',*,*,#768,.F.);
#1033=ORIENTED_EDGE('',*,*,#662,.F.);
#1034=ORIENTED_EDGE('',*,*,#769,.T.);
#1035=ORIENTED_EDGE('',*,*,#770,.F.);
#1036=ORIENTED_EDGE('',*,*,#766,.F.);
#1037=ORIENTED_EDGE('',*,*,#664,.F.);
#1038=ORIENTED_EDGE('',*,*,#768,.T.);
#1039=ORIENTED_EDGE('',*,*,#771,.F.);
#1040=ORIENTED_EDGE('',*,*,#772,.T.);
#1041=ORIENTED_EDGE('',*,*,#773,.F.);
#1042=ORIENTED_EDGE('',*,*,#774,.T.);
#1043=ORIENTED_EDGE('',*,*,#775,.F.);
#1044=ORIENTED_EDGE('',*,*,#776,.T.);
#1045=ORIENTED_EDGE('',*,*,#661,.F.);
#1046=ORIENTED_EDGE('',*,*,#772,.F.);
#1047=ORIENTED_EDGE('',*,*,#777,.F.);
#1048=ORIENTED_EDGE('',*,*,#769,.F.);
#1049=ORIENTED_EDGE('',*,*,#778,.F.);
#1050=ORIENTED_EDGE('',*,*,#779,.F.);
#1051=ORIENTED_EDGE('',*,*,#780,.F.);
#1052=ORIENTED_EDGE('',*,*,#774,.F.);
#1053=ORIENTED_EDGE('',*,*,#775,.T.);
#1054=ORIENTED_EDGE('',*,*,#780,.T.);
#1055=ORIENTED_EDGE('',*,*,#781,.T.);
#1056=ORIENTED_EDGE('',*,*,#782,.T.);
#1057=ORIENTED_EDGE('',*,*,#783,.F.);
#1058=ORIENTED_EDGE('',*,*,#784,.F.);
#1059=ORIENTED_EDGE('',*,*,#781,.F.);
#1060=ORIENTED_EDGE('',*,*,#779,.T.);
#1061=ORIENTED_EDGE('',*,*,#785,.F.);
#1062=ORIENTED_EDGE('',*,*,#776,.F.);
#1063=ORIENTED_EDGE('',*,*,#782,.F.);
#1064=ORIENTED_EDGE('',*,*,#784,.T.);
#1065=ORIENTED_EDGE('',*,*,#771,.T.);
#1066=ORIENTED_EDGE('',*,*,#767,.T.);
#1067=ORIENTED_EDGE('',*,*,#770,.T.);
#1068=ORIENTED_EDGE('',*,*,#777,.T.);
#1069=ORIENTED_EDGE('',*,*,#642,.T.);
#1070=ORIENTED_EDGE('',*,*,#683,.T.);
#1071=ORIENTED_EDGE('',*,*,#681,.F.);
#1072=ORIENTED_EDGE('',*,*,#786,.F.);
#1073=ORIENTED_EDGE('',*,*,#676,.T.);
#1074=ORIENTED_EDGE('',*,*,#685,.T.);
#1075=ORIENTED_EDGE('',*,*,#787,.F.);
#1076=ORIENTED_EDGE('',*,*,#788,.F.);
#1077=ORIENTED_EDGE('',*,*,#643,.T.);
#1078=ORIENTED_EDGE('',*,*,#788,.T.);
#1079=ORIENTED_EDGE('',*,*,#789,.F.);
#1080=ORIENTED_EDGE('',*,*,#790,.F.);
#1081=ORIENTED_EDGE('',*,*,#644,.T.);
#1082=ORIENTED_EDGE('',*,*,#790,.T.);
#1083=ORIENTED_EDGE('',*,*,#791,.F.);
#1084=ORIENTED_EDGE('',*,*,#792,.F.);
#1085=ORIENTED_EDGE('',*,*,#645,.T.);
#1086=ORIENTED_EDGE('',*,*,#792,.T.);
#1087=ORIENTED_EDGE('',*,*,#793,.F.);
#1088=ORIENTED_EDGE('',*,*,#670,.F.);
#1089=ORIENTED_EDGE('',*,*,#786,.T.);
#1090=ORIENTED_EDGE('',*,*,#680,.T.);
#1091=ORIENTED_EDGE('',*,*,#677,.T.);
#1092=ORIENTED_EDGE('',*,*,#673,.T.);
#1093=ORIENTED_EDGE('',*,*,#660,.T.);
#1094=ORIENTED_EDGE('',*,*,#672,.T.);
#1095=ORIENTED_EDGE('',*,*,#794,.F.);
#1096=ORIENTED_EDGE('',*,*,#638,.F.);
#1097=ORIENTED_EDGE('',*,*,#794,.T.);
#1098=ORIENTED_EDGE('',*,*,#671,.T.);
#1099=ORIENTED_EDGE('',*,*,#793,.T.);
#1100=ORIENTED_EDGE('',*,*,#791,.T.);
#1101=ORIENTED_EDGE('',*,*,#789,.T.);
#1102=ORIENTED_EDGE('',*,*,#787,.T.);
#1103=ORIENTED_EDGE('',*,*,#684,.T.);
#1104=ORIENTED_EDGE('',*,*,#639,.T.);
#1105=ORIENTED_EDGE('',*,*,#698,.T.);
#1106=ORIENTED_EDGE('',*,*,#693,.T.);
#1107=ORIENTED_EDGE('',*,*,#705,.T.);
#1108=ORIENTED_EDGE('',*,*,#703,.T.);
#1109=ORIENTED_EDGE('',*,*,#718,.T.);
#1110=ORIENTED_EDGE('',*,*,#713,.T.);
#1111=ORIENTED_EDGE('',*,*,#725,.T.);
#1112=ORIENTED_EDGE('',*,*,#723,.T.);
#1113=ORIENTED_EDGE('',*,*,#738,.T.);
#1114=ORIENTED_EDGE('',*,*,#733,.T.);
#1115=ORIENTED_EDGE('',*,*,#745,.T.);
#1116=ORIENTED_EDGE('',*,*,#743,.T.);
#1117=ORIENTED_EDGE('',*,*,#758,.T.);
#1118=ORIENTED_EDGE('',*,*,#753,.T.);
#1119=ORIENTED_EDGE('',*,*,#765,.T.);
#1120=ORIENTED_EDGE('',*,*,#763,.T.);
#1121=ORIENTED_EDGE('',*,*,#778,.T.);
#1122=ORIENTED_EDGE('',*,*,#773,.T.);
#1123=ORIENTED_EDGE('',*,*,#785,.T.);
#1124=ORIENTED_EDGE('',*,*,#783,.T.);
#1125=PLANE('',#1280);
#1126=PLANE('',#1281);
#1127=PLANE('',#1282);
#1128=PLANE('',#1283);
#1129=PLANE('',#1284);
#1130=PLANE('',#1285);
#1131=PLANE('',#1286);
#1132=PLANE('',#1287);
#1133=PLANE('',#1288);
#1134=PLANE('',#1289);
#1135=PLANE('',#1290);
#1136=PLANE('',#1291);
#1137=PLANE('',#1292);
#1138=PLANE('',#1293);
#1139=PLANE('',#1294);
#1140=PLANE('',#1295);
#1141=PLANE('',#1296);
#1142=PLANE('',#1297);
#1143=PLANE('',#1298);
#1144=PLANE('',#1299);
#1145=PLANE('',#1300);
#1146=PLANE('',#1301);
#1147=PLANE('',#1302);
#1148=PLANE('',#1303);
#1149=PLANE('',#1304);
#1150=PLANE('',#1305);
#1151=PLANE('',#1306);
#1152=PLANE('',#1307);
#1153=PLANE('',#1308);
#1154=PLANE('',#1309);
#1155=PLANE('',#1310);
#1156=PLANE('',#1311);
#1157=PLANE('',#1312);
#1158=PLANE('',#1313);
#1159=PLANE('',#1314);
#1160=PLANE('',#1315);
#1161=PLANE('',#1316);
#1162=PLANE('',#1317);
#1163=PLANE('',#1318);
#1164=PLANE('',#1319);
#1165=PLANE('',#1320);
#1166=PLANE('',#1321);
#1167=PLANE('',#1322);
#1168=PLANE('',#1323);
#1169=PLANE('',#1324);
#1170=PLANE('',#1325);
#1171=PLANE('',#1326);
#1172=PLANE('',#1327);
#1173=PLANE('',#1328);
#1174=PLANE('',#1329);
#1175=PLANE('',#1330);
#1176=PLANE('',#1331);
#1177=PLANE('',#1332);
#1178=PLANE('',#1333);
#1179=PLANE('',#1334);
#1180=PLANE('',#1335);
#1181=PLANE('',#1336);
#1182=PLANE('',#1337);
#1183=PLANE('',#1338);
#1184=PLANE('',#1339);
#1185=PLANE('',#1340);
#1186=PLANE('',#1341);
#1187=PLANE('',#1342);
#1188=PLANE('',#1343);
#1189=PLANE('',#1344);
#1190=PLANE('',#1345);
#1191=ADVANCED_FACE('',(#47),#1125,.F.);
#1192=ADVANCED_FACE('',(#48),#1126,.F.);
#1193=ADVANCED_FACE('',(#49),#1127,.T.);
#1194=ADVANCED_FACE('',(#50,#36,#37,#38),#1128,.F.);
#1195=ADVANCED_FACE('',(#51,#39,#40),#1129,.F.);
#1196=ADVANCED_FACE('',(#52),#1130,.T.);
#1197=ADVANCED_FACE('',(#53),#1131,.F.);
#1198=ADVANCED_FACE('',(#54),#1132,.F.);
#1199=ADVANCED_FACE('',(#55),#1133,.F.);
#1200=ADVANCED_FACE('',(#56),#1134,.T.);
#1201=ADVANCED_FACE('',(#57),#1135,.T.);
#1202=ADVANCED_FACE('',(#58),#1136,.T.);
#1203=ADVANCED_FACE('',(#59),#1137,.T.);
#1204=ADVANCED_FACE('',(#60),#1138,.T.);
#1205=ADVANCED_FACE('',(#61),#1139,.T.);
#1206=ADVANCED_FACE('',(#62),#1140,.T.);
#1207=ADVANCED_FACE('',(#63),#1141,.T.);
#1208=ADVANCED_FACE('',(#64),#1142,.T.);
#1209=ADVANCED_FACE('',(#65),#1143,.T.);
#1210=ADVANCED_FACE('',(#66),#1144,.T.);
#1211=ADVANCED_FACE('',(#67),#1145,.T.);
#1212=ADVANCED_FACE('',(#68),#1146,.T.);
#1213=ADVANCED_FACE('',(#69),#1147,.T.);
#1214=ADVANCED_FACE('',(#70),#1148,.T.);
#1215=ADVANCED_FACE('',(#71),#1149,.T.);
#1216=ADVANCED_FACE('',(#72),#1150,.T.);
#1217=ADVANCED_FACE('',(#73),#1151,.T.);
#1218=ADVANCED_FACE('',(#74),#1152,.T.);
#1219=ADVANCED_FACE('',(#75),#1153,.T.);
#1220=ADVANCED_FACE('',(#76),#1154,.T.);
#1221=ADVANCED_FACE('',(#77),#1155,.T.);
#1222=ADVANCED_FACE('',(#78),#1156,.T.);
#1223=ADVANCED_FACE('',(#79),#1157,.T.);
#1224=ADVANCED_FACE('',(#80),#1158,.T.);
#1225=ADVANCED_FACE('',(#81),#1159,.T.);
#1226=ADVANCED_FACE('',(#82),#1160,.T.);
#1227=ADVANCED_FACE('',(#83),#1161,.T.);
#1228=ADVANCED_FACE('',(#84),#1162,.T.);
#1229=ADVANCED_FACE('',(#85),#1163,.T.);
#1230=ADVANCED_FACE('',(#86),#1164,.T.);
#1231=ADVANCED_FACE('',(#87),#1165,.T.);
#1232=ADVANCED_FACE('',(#88),#1166,.T.);
#1233=ADVANCED_FACE('',(#89),#1167,.T.);
#1234=ADVANCED_FACE('',(#90),#1168,.T.);
#1235=ADVANCED_FACE('',(#91),#1169,.T.);
#1236=ADVANCED_FACE('',(#92),#1170,.T.);
#1237=ADVANCED_FACE('',(#93),#1171,.T.);
#1238=ADVANCED_FACE('',(#94),#1172,.T.);
#1239=ADVANCED_FACE('',(#95),#1173,.T.);
#1240=ADVANCED_FACE('',(#96),#1174,.T.);
#1241=ADVANCED_FACE('',(#97),#1175,.T.);
#1242=ADVANCED_FACE('',(#98),#1176,.T.);
#1243=ADVANCED_FACE('',(#99),#1177,.T.);
#1244=ADVANCED_FACE('',(#100),#1178,.T.);
#1245=ADVANCED_FACE('',(#101),#1179,.T.);
#1246=ADVANCED_FACE('',(#102),#1180,.T.);
#1247=ADVANCED_FACE('',(#103),#1181,.T.);
#1248=ADVANCED_FACE('',(#104),#1182,.T.);
#1249=ADVANCED_FACE('',(#105),#1183,.T.);
#1250=ADVANCED_FACE('',(#106),#1184,.T.);
#1251=ADVANCED_FACE('',(#107),#1185,.T.);
#1252=ADVANCED_FACE('',(#108),#1186,.T.);
#1253=ADVANCED_FACE('',(#109),#1187,.T.);
#1254=ADVANCED_FACE('',(#110,#41),#1188,.T.);
#1255=ADVANCED_FACE('',(#111),#1189,.T.);
#1256=ADVANCED_FACE('',(#112,#42,#43,#44,#45,#46),#1190,.T.);
#1257=CLOSED_SHELL('',(#1191,#1192,#1193,#1194,#1195,#1196,#1197,#1198,
#1199,#1200,#1201,#1202,#1203,#1204,#1205,#1206,#1207,#1208,#1209,#1210,
#1211,#1212,#1213,#1214,#1215,#1216,#1217,#1218,#1219,#1220,#1221,#1222,
#1223,#1224,#1225,#1226,#1227,#1228,#1229,#1230,#1231,#1232,#1233,#1234,
#1235,#1236,#1237,#1238,#1239,#1240,#1241,#1242,#1243,#1244,#1245,#1246,
#1247,#1248,#1249,#1250,#1251,#1252,#1253,#1254,#1255,#1256));
#1258=DERIVED_UNIT_ELEMENT(#1261,1.);
#1259=DERIVED_UNIT_ELEMENT(#2017,-3.);
#1260=DIMENSIONAL_EXPONENTS(0.,1.,0.,0.,0.,0.,0.);
#1261=(
CONVERSION_BASED_UNIT('gram',#1263)
MASS_UNIT()
NAMED_UNIT(#1260)
);
#1262=(
MASS_UNIT()
NAMED_UNIT(*)
SI_UNIT(.KILO.,.GRAM.)
);
#1263=MASS_MEASURE_WITH_UNIT(MASS_MEASURE(0.001),#1262);
#1264=DERIVED_UNIT((#1258,#1259));
#1265=MEASURE_REPRESENTATION_ITEM('density measure',
POSITIVE_RATIO_MEASURE(1.),#1264);
#1266=PROPERTY_DEFINITION_REPRESENTATION(#1271,#1268);
#1267=PROPERTY_DEFINITION_REPRESENTATION(#1272,#1269);
#1268=REPRESENTATION('material name',(#1270),#2014);
#1269=REPRESENTATION('density',(#1265),#2014);
#1270=DESCRIPTIVE_REPRESENTATION_ITEM('Generic','Generic');
#1271=PROPERTY_DEFINITION('material property','material name',#2024);
#1272=PROPERTY_DEFINITION('material property','density of part',#2024);
#1273=DATE_TIME_ROLE('creation_date');
#1274=APPLIED_DATE_AND_TIME_ASSIGNMENT(#1275,#1273,(#2024));
#1275=DATE_AND_TIME(#1276,#1277);
#1276=CALENDAR_DATE(2026,13,7);
#1277=LOCAL_TIME(0,0,0.,#1278);
#1278=COORDINATED_UNIVERSAL_TIME_OFFSET(0,0,.BEHIND.);
#1279=AXIS2_PLACEMENT_3D('',#1651,#1348,#1349);
#1280=AXIS2_PLACEMENT_3D('',#1652,#1350,#1351);
#1281=AXIS2_PLACEMENT_3D('',#1661,#1356,#1357);
#1282=AXIS2_PLACEMENT_3D('',#1667,#1361,#1362);
#1283=AXIS2_PLACEMENT_3D('',#1675,#1367,#1368);
#1284=AXIS2_PLACEMENT_3D('',#1712,#1387,#1388);
#1285=AXIS2_PLACEMENT_3D('',#1732,#1399,#1400);
#1286=AXIS2_PLACEMENT_3D('',#1739,#1405,#1406);
#1287=AXIS2_PLACEMENT_3D('',#1748,#1411,#1412);
#1288=AXIS2_PLACEMENT_3D('',#1754,#1416,#1417);
#1289=AXIS2_PLACEMENT_3D('',#1760,#1421,#1422);
#1290=AXIS2_PLACEMENT_3D('',#1765,#1426,#1427);
#1291=AXIS2_PLACEMENT_3D('',#1771,#1431,#1432);
#1292=AXIS2_PLACEMENT_3D('',#1775,#1435,#1436);
#1293=AXIS2_PLACEMENT_3D('',#1779,#1439,#1440);
#1294=AXIS2_PLACEMENT_3D('',#1788,#1445,#1446);
#1295=AXIS2_PLACEMENT_3D('',#1790,#1448,#1449);
#1296=AXIS2_PLACEMENT_3D('',#1796,#1453,#1454);
#1297=AXIS2_PLACEMENT_3D('',#1800,#1457,#1458);
#1298=AXIS2_PLACEMENT_3D('',#1804,#1461,#1462);
#1299=AXIS2_PLACEMENT_3D('',#1806,#1464,#1465);
#1300=AXIS2_PLACEMENT_3D('',#1807,#1466,#1467);
#1301=AXIS2_PLACEMENT_3D('',#1813,#1471,#1472);
#1302=AXIS2_PLACEMENT_3D('',#1817,#1475,#1476);
#1303=AXIS2_PLACEMENT_3D('',#1821,#1479,#1480);
#1304=AXIS2_PLACEMENT_3D('',#1830,#1485,#1486);
#1305=AXIS2_PLACEMENT_3D('',#1832,#1488,#1489);
#1306=AXIS2_PLACEMENT_3D('',#1838,#1493,#1494);
#1307=AXIS2_PLACEMENT_3D('',#1842,#1497,#1498);
#1308=AXIS2_PLACEMENT_3D('',#1846,#1501,#1502);
#1309=AXIS2_PLACEMENT_3D('',#1848,#1504,#1505);
#1310=AXIS2_PLACEMENT_3D('',#1849,#1506,#1507);
#1311=AXIS2_PLACEMENT_3D('',#1855,#1511,#1512);
#1312=AXIS2_PLACEMENT_3D('',#1859,#1515,#1516);
#1313=AXIS2_PLACEMENT_3D('',#1863,#1519,#1520);
#1314=AXIS2_PLACEMENT_3D('',#1872,#1525,#1526);
#1315=AXIS2_PLACEMENT_3D('',#1874,#1528,#1529);
#1316=AXIS2_PLACEMENT_3D('',#1880,#1533,#1534);
#1317=AXIS2_PLACEMENT_3D('',#1884,#1537,#1538);
#1318=AXIS2_PLACEMENT_3D('',#1888,#1541,#1542);
#1319=AXIS2_PLACEMENT_3D('',#1890,#1544,#1545);
#1320=AXIS2_PLACEMENT_3D('',#1891,#1546,#1547);
#1321=AXIS2_PLACEMENT_3D('',#1897,#1551,#1552);
#1322=AXIS2_PLACEMENT_3D('',#1901,#1555,#1556);
#1323=AXIS2_PLACEMENT_3D('',#1905,#1559,#1560);
#1324=AXIS2_PLACEMENT_3D('',#1914,#1565,#1566);
#1325=AXIS2_PLACEMENT_3D('',#1916,#1568,#1569);
#1326=AXIS2_PLACEMENT_3D('',#1922,#1573,#1574);
#1327=AXIS2_PLACEMENT_3D('',#1926,#1577,#1578);
#1328=AXIS2_PLACEMENT_3D('',#1930,#1581,#1582);
#1329=AXIS2_PLACEMENT_3D('',#1932,#1584,#1585);
#1330=AXIS2_PLACEMENT_3D('',#1933,#1586,#1587);
#1331=AXIS2_PLACEMENT_3D('',#1939,#1591,#1592);
#1332=AXIS2_PLACEMENT_3D('',#1943,#1595,#1596);
#1333=AXIS2_PLACEMENT_3D('',#1947,#1599,#1600);
#1334=AXIS2_PLACEMENT_3D('',#1956,#1605,#1606);
#1335=AXIS2_PLACEMENT_3D('',#1958,#1608,#1609);
#1336=AXIS2_PLACEMENT_3D('',#1964,#1613,#1614);
#1337=AXIS2_PLACEMENT_3D('',#1968,#1617,#1618);
#1338=AXIS2_PLACEMENT_3D('',#1972,#1621,#1622);
#1339=AXIS2_PLACEMENT_3D('',#1974,#1624,#1625);
#1340=AXIS2_PLACEMENT_3D('',#1975,#1626,#1627);
#1341=AXIS2_PLACEMENT_3D('',#1980,#1631,#1632);
#1342=AXIS2_PLACEMENT_3D('',#1984,#1635,#1636);
#1343=AXIS2_PLACEMENT_3D('',#1988,#1639,#1640);
#1344=AXIS2_PLACEMENT_3D('',#1990,#1642,#1643);
#1345=AXIS2_PLACEMENT_3D('',#1992,#1645,#1646);
#1346=AXIS2_PLACEMENT_3D('',#2009,#1647,#1648);
#1347=AXIS2_PLACEMENT_3D('',#2010,#1649,#1650);
#1348=DIRECTION('axis',(0.,0.,1.));
#1349=DIRECTION('refdir',(1.,0.,0.));
#1350=DIRECTION('center_axis',(0.,1.,0.));
#1351=DIRECTION('ref_axis',(0.,0.,-1.));
#1352=DIRECTION('',(0.,0.,-1.));
#1353=DIRECTION('',(-1.,0.,0.));
#1354=DIRECTION('',(0.,0.,1.));
#1355=DIRECTION('',(-1.,0.,0.));
#1356=DIRECTION('center_axis',(0.,0.,1.));
#1357=DIRECTION('ref_axis',(0.,1.,0.));
#1358=DIRECTION('',(0.,1.,0.));
#1359=DIRECTION('',(1.,0.,0.));
#1360=DIRECTION('',(0.,-1.,0.));
#1361=DIRECTION('center_axis',(-1.,0.,0.));
#1362=DIRECTION('ref_axis',(0.,0.,1.));
#1363=DIRECTION('',(0.,0.,1.));
#1364=DIRECTION('',(0.,1.,0.));
#1365=DIRECTION('',(0.,0.,1.));
#1366=DIRECTION('',(0.,1.,0.));
#1367=DIRECTION('center_axis',(0.,1.,0.));
#1368=DIRECTION('ref_axis',(0.,0.,1.));
#1369=DIRECTION('',(1.,0.,0.));
#1370=DIRECTION('',(0.,0.,-1.));
#1371=DIRECTION('',(1.,0.,0.));
#1372=DIRECTION('',(0.,0.,1.));
#1373=DIRECTION('',(-1.,0.,0.));
#1374=DIRECTION('',(0.,0.,-1.));
#1375=DIRECTION('',(-9.10018872643572E-17,0.,-1.));
#1376=DIRECTION('',(-1.,0.,0.));
#1377=DIRECTION('',(1.82003774528714E-16,0.,1.));
#1378=DIRECTION('',(1.,0.,0.));
#1379=DIRECTION('',(0.,0.,-1.));
#1380=DIRECTION('',(-1.,0.,0.));
#1381=DIRECTION('',(0.,0.,1.));
#1382=DIRECTION('',(1.,0.,0.));
#1383=DIRECTION('',(0.,0.,-1.));
#1384=DIRECTION('',(-1.,0.,0.));
#1385=DIRECTION('',(0.,0.,1.));
#1386=DIRECTION('',(1.,0.,0.));
#1387=DIRECTION('center_axis',(0.,1.,0.));
#1388=DIRECTION('ref_axis',(0.,0.,1.));
#1389=DIRECTION('',(0.,0.,-1.));
#1390=DIRECTION('',(1.,0.,0.));
#1391=DIRECTION('',(1.36502830896536E-16,0.,-1.));
#1392=DIRECTION('',(-1.,0.,0.));
#1393=DIRECTION('',(0.,0.,1.));
#1394=DIRECTION('',(1.,0.,0.));
#1395=DIRECTION('',(-9.10018872643571E-17,0.,-1.));
#1396=DIRECTION('',(-1.,0.,1.82003774528714E-16));
#1397=DIRECTION('',(1.82003774528714E-16,0.,1.));
#1398=DIRECTION('',(1.,0.,9.10018872643571E-17));
#1399=DIRECTION('center_axis',(1.,0.,0.));
#1400=DIRECTION('ref_axis',(0.,0.,-1.));
#1401=DIRECTION('',(0.,-1.,0.));
#1402=DIRECTION('',(0.,1.,0.));
#1403=DIRECTION('',(0.,0.,-1.));
#1404=DIRECTION('',(0.,1.,0.));
#1405=DIRECTION('center_axis',(0.,1.,0.));
#1406=DIRECTION('ref_axis',(-1.,0.,0.));
#1407=DIRECTION('',(-1.,0.,0.));
#1408=DIRECTION('',(0.,0.,1.));
#1409=DIRECTION('',(1.,0.,0.));
#1410=DIRECTION('',(0.,0.,1.));
#1411=DIRECTION('center_axis',(1.,0.,0.));
#1412=DIRECTION('ref_axis',(0.,1.,0.));
#1413=DIRECTION('',(0.,1.,0.));
#1414=DIRECTION('',(0.,0.,1.));
#1415=DIRECTION('',(0.,-1.,0.));
#1416=DIRECTION('center_axis',(-4.0463709325746E-16,-1.,0.));
#1417=DIRECTION('ref_axis',(1.,-4.0463709325746E-16,0.));
#1418=DIRECTION('',(1.,-4.0463709325746E-16,0.));
#1419=DIRECTION('',(0.,0.,1.));
#1420=DIRECTION('',(-1.,4.0463709325746E-16,0.));
#1421=DIRECTION('center_axis',(0.,0.,1.));
#1422=DIRECTION('ref_axis',(1.,0.,0.));
#1423=DIRECTION('',(0.,1.,0.));
#1424=DIRECTION('',(1.,0.,0.));
#1425=DIRECTION('',(0.,1.,0.));
#1426=DIRECTION('center_axis',(-1.,0.,1.82003774528714E-16));
#1427=DIRECTION('ref_axis',(-1.82003774528714E-16,0.,-1.));
#1428=DIRECTION('',(0.,-1.,0.));
#1429=DIRECTION('',(-1.82003774528714E-16,0.,-1.));
#1430=DIRECTION('',(0.,-1.,0.));
#1431=DIRECTION('center_axis',(0.,0.,-1.));
#1432=DIRECTION('ref_axis',(1.,0.,0.));
#1433=DIRECTION('',(0.,-1.,0.));
#1434=DIRECTION('',(1.,0.,0.));
#1435=DIRECTION('center_axis',(0.,0.,1.));
#1436=DIRECTION('ref_axis',(-1.,0.,0.));
#1437=DIRECTION('',(-1.,0.,0.));
#1438=DIRECTION('',(0.,1.,0.));
#1439=DIRECTION('center_axis',(0.,0.,1.));
#1440=DIRECTION('ref_axis',(-1.,0.,0.));
#1441=DIRECTION('',(-1.,0.,0.));
#1442=DIRECTION('',(0.,1.,0.));
#1443=DIRECTION('',(1.,0.,0.));
#1444=DIRECTION('',(0.,-1.,0.));
#1445=DIRECTION('center_axis',(1.,0.,-9.10018872643572E-17));
#1446=DIRECTION('ref_axis',(9.10018872643572E-17,0.,1.));
#1447=DIRECTION('',(9.10018872643572E-17,0.,1.));
#1448=DIRECTION('center_axis',(1.,0.,-9.10018872643572E-17));
#1449=DIRECTION('ref_axis',(9.10018872643572E-17,0.,1.));
#1450=DIRECTION('',(9.10018872643572E-17,0.,1.));
#1451=DIRECTION('',(0.,-1.,0.));
#1452=DIRECTION('',(-9.10018872643572E-17,0.,-1.));
#1453=DIRECTION('center_axis',(0.,1.,0.));
#1454=DIRECTION('ref_axis',(0.,0.,1.));
#1455=DIRECTION('',(-1.,0.,0.));
#1456=DIRECTION('',(1.82003774528714E-16,0.,1.));
#1457=DIRECTION('center_axis',(0.,0.,-1.));
#1458=DIRECTION('ref_axis',(1.,0.,0.));
#1459=DIRECTION('',(1.,0.,0.));
#1460=DIRECTION('',(0.,-1.,0.));
#1461=DIRECTION('center_axis',(-1.,0.,1.82003774528714E-16));
#1462=DIRECTION('ref_axis',(-1.82003774528714E-16,0.,-1.));
#1463=DIRECTION('',(-1.82003774528714E-16,0.,-1.));
#1464=DIRECTION('center_axis',(0.,-1.,0.));
#1465=DIRECTION('ref_axis',(0.,0.,-1.));
#1466=DIRECTION('center_axis',(-1.,0.,0.));
#1467=DIRECTION('ref_axis',(0.,0.,-1.));
#1468=DIRECTION('',(0.,-1.,0.));
#1469=DIRECTION('',(0.,0.,-1.));
#1470=DIRECTION('',(0.,-1.,0.));
#1471=DIRECTION('center_axis',(0.,0.,-1.));
#1472=DIRECTION('ref_axis',(1.,0.,0.));
#1473=DIRECTION('',(0.,-1.,0.));
#1474=DIRECTION('',(1.,0.,0.));
#1475=DIRECTION('center_axis',(0.,0.,1.));
#1476=DIRECTION('ref_axis',(-1.,0.,0.));
#1477=DIRECTION('',(-1.,0.,0.));
#1478=DIRECTION('',(0.,1.,0.));
#1479=DIRECTION('center_axis',(0.,0.,1.));
#1480=DIRECTION('ref_axis',(-1.,0.,0.));
#1481=DIRECTION('',(-1.,0.,0.));
#1482=DIRECTION('',(0.,1.,0.));
#1483=DIRECTION('',(1.,0.,0.));
#1484=DIRECTION('',(0.,-1.,0.));
#1485=DIRECTION('center_axis',(1.,0.,0.));
#1486=DIRECTION('ref_axis',(0.,0.,1.));
#1487=DIRECTION('',(0.,0.,1.));
#1488=DIRECTION('center_axis',(1.,0.,0.));
#1489=DIRECTION('ref_axis',(0.,0.,1.));
#1490=DIRECTION('',(0.,0.,1.));
#1491=DIRECTION('',(0.,-1.,0.));
#1492=DIRECTION('',(0.,0.,-1.));
#1493=DIRECTION('center_axis',(0.,1.,0.));
#1494=DIRECTION('ref_axis',(0.,0.,1.));
#1495=DIRECTION('',(-1.,0.,0.));
#1496=DIRECTION('',(0.,0.,1.));
#1497=DIRECTION('center_axis',(0.,0.,-1.));
#1498=DIRECTION('ref_axis',(1.,0.,0.));
#1499=DIRECTION('',(1.,0.,0.));
#1500=DIRECTION('',(0.,-1.,0.));
#1501=DIRECTION('center_axis',(-1.,0.,0.));
#1502=DIRECTION('ref_axis',(0.,0.,-1.));
#1503=DIRECTION('',(0.,0.,-1.));
#1504=DIRECTION('center_axis',(0.,-1.,0.));
#1505=DIRECTION('ref_axis',(0.,0.,-1.));
#1506=DIRECTION('center_axis',(-1.,0.,1.82003774528714E-16));
#1507=DIRECTION('ref_axis',(-1.82003774528714E-16,0.,-1.));
#1508=DIRECTION('',(0.,-1.,0.));
#1509=DIRECTION('',(-1.82003774528714E-16,0.,-1.));
#1510=DIRECTION('',(0.,-1.,0.));
#1511=DIRECTION('center_axis',(-1.82003774528714E-16,0.,-1.));
#1512=DIRECTION('ref_axis',(1.,0.,-1.82003774528714E-16));
#1513=DIRECTION('',(0.,-1.,0.));
#1514=DIRECTION('',(1.,0.,-1.82003774528714E-16));
#1515=DIRECTION('center_axis',(-9.10018872643571E-17,0.,1.));
#1516=DIRECTION('ref_axis',(-1.,0.,-9.10018872643571E-17));
#1517=DIRECTION('',(-1.,0.,-9.10018872643571E-17));
#1518=DIRECTION('',(0.,1.,0.));
#1519=DIRECTION('center_axis',(-9.10018872643571E-17,0.,1.));
#1520=DIRECTION('ref_axis',(-1.,0.,-9.10018872643571E-17));
#1521=DIRECTION('',(-1.,0.,-9.10018872643571E-17));
#1522=DIRECTION('',(0.,1.,0.));
#1523=DIRECTION('',(1.,0.,9.10018872643571E-17));
#1524=DIRECTION('',(0.,-1.,0.));
#1525=DIRECTION('center_axis',(1.,0.,-9.10018872643571E-17));
#1526=DIRECTION('ref_axis',(9.10018872643571E-17,0.,1.));
#1527=DIRECTION('',(9.10018872643571E-17,0.,1.));
#1528=DIRECTION('center_axis',(1.,0.,-9.10018872643571E-17));
#1529=DIRECTION('ref_axis',(9.10018872643571E-17,0.,1.));
#1530=DIRECTION('',(9.10018872643571E-17,0.,1.));
#1531=DIRECTION('',(0.,-1.,0.));
#1532=DIRECTION('',(-9.10018872643571E-17,0.,-1.));
#1533=DIRECTION('center_axis',(0.,1.,0.));
#1534=DIRECTION('ref_axis',(0.,0.,1.));
#1535=DIRECTION('',(-1.,0.,1.82003774528714E-16));
#1536=DIRECTION('',(1.82003774528714E-16,0.,1.));
#1537=DIRECTION('center_axis',(-1.82003774528714E-16,0.,-1.));
#1538=DIRECTION('ref_axis',(1.,0.,-1.82003774528714E-16));
#1539=DIRECTION('',(1.,0.,-1.82003774528714E-16));
#1540=DIRECTION('',(0.,-1.,0.));
#1541=DIRECTION('center_axis',(-1.,0.,1.82003774528714E-16));
#1542=DIRECTION('ref_axis',(-1.82003774528714E-16,0.,-1.));
#1543=DIRECTION('',(-1.82003774528714E-16,0.,-1.));
#1544=DIRECTION('center_axis',(0.,-1.,0.));
#1545=DIRECTION('ref_axis',(0.,0.,-1.));
#1546=DIRECTION('center_axis',(-1.,0.,0.));
#1547=DIRECTION('ref_axis',(0.,0.,-1.));
#1548=DIRECTION('',(0.,-1.,0.));
#1549=DIRECTION('',(0.,0.,-1.));
#1550=DIRECTION('',(0.,-1.,0.));
#1551=DIRECTION('center_axis',(0.,0.,-1.));
#1552=DIRECTION('ref_axis',(1.,0.,0.));
#1553=DIRECTION('',(0.,-1.,0.));
#1554=DIRECTION('',(1.,0.,0.));
#1555=DIRECTION('center_axis',(0.,0.,1.));
#1556=DIRECTION('ref_axis',(-1.,0.,0.));
#1557=DIRECTION('',(-1.,0.,0.));
#1558=DIRECTION('',(0.,1.,0.));
#1559=DIRECTION('center_axis',(0.,0.,1.));
#1560=DIRECTION('ref_axis',(-1.,0.,0.));
#1561=DIRECTION('',(-1.,0.,0.));
#1562=DIRECTION('',(0.,1.,0.));
#1563=DIRECTION('',(1.,0.,0.));
#1564=DIRECTION('',(0.,-1.,0.));
#1565=DIRECTION('center_axis',(1.,0.,0.));
#1566=DIRECTION('ref_axis',(0.,0.,1.));
#1567=DIRECTION('',(0.,0.,1.));
#1568=DIRECTION('center_axis',(1.,0.,0.));
#1569=DIRECTION('ref_axis',(0.,0.,1.));
#1570=DIRECTION('',(0.,0.,1.));
#1571=DIRECTION('',(0.,-1.,0.));
#1572=DIRECTION('',(0.,0.,-1.));
#1573=DIRECTION('center_axis',(0.,1.,0.));
#1574=DIRECTION('ref_axis',(0.,0.,1.));
#1575=DIRECTION('',(-1.,0.,0.));
#1576=DIRECTION('',(0.,0.,1.));
#1577=DIRECTION('center_axis',(0.,0.,-1.));
#1578=DIRECTION('ref_axis',(1.,0.,0.));
#1579=DIRECTION('',(1.,0.,0.));
#1580=DIRECTION('',(0.,-1.,0.));
#1581=DIRECTION('center_axis',(-1.,0.,0.));
#1582=DIRECTION('ref_axis',(0.,0.,-1.));
#1583=DIRECTION('',(0.,0.,-1.));
#1584=DIRECTION('center_axis',(0.,-1.,0.));
#1585=DIRECTION('ref_axis',(0.,0.,-1.));
#1586=DIRECTION('center_axis',(-1.,0.,0.));
#1587=DIRECTION('ref_axis',(0.,0.,-1.));
#1588=DIRECTION('',(0.,-1.,0.));
#1589=DIRECTION('',(0.,0.,-1.));
#1590=DIRECTION('',(0.,-1.,0.));
#1591=DIRECTION('center_axis',(0.,0.,-1.));
#1592=DIRECTION('ref_axis',(1.,0.,0.));
#1593=DIRECTION('',(0.,-1.,0.));
#1594=DIRECTION('',(1.,0.,0.));
#1595=DIRECTION('center_axis',(0.,0.,1.));
#1596=DIRECTION('ref_axis',(-1.,0.,0.));
#1597=DIRECTION('',(-1.,0.,0.));
#1598=DIRECTION('',(0.,1.,0.));
#1599=DIRECTION('center_axis',(0.,0.,1.));
#1600=DIRECTION('ref_axis',(-1.,0.,0.));
#1601=DIRECTION('',(-1.,0.,0.));
#1602=DIRECTION('',(0.,1.,0.));
#1603=DIRECTION('',(1.,0.,0.));
#1604=DIRECTION('',(0.,-1.,0.));
#1605=DIRECTION('center_axis',(1.,0.,1.36502830896536E-16));
#1606=DIRECTION('ref_axis',(-1.36502830896536E-16,0.,1.));
#1607=DIRECTION('',(-1.36502830896536E-16,0.,1.));
#1608=DIRECTION('center_axis',(1.,0.,1.36502830896536E-16));
#1609=DIRECTION('ref_axis',(-1.36502830896536E-16,0.,1.));
#1610=DIRECTION('',(-1.36502830896536E-16,0.,1.));
#1611=DIRECTION('',(0.,-1.,0.));
#1612=DIRECTION('',(1.36502830896536E-16,0.,-1.));
#1613=DIRECTION('center_axis',(0.,1.,0.));
#1614=DIRECTION('ref_axis',(0.,0.,1.));
#1615=DIRECTION('',(-1.,0.,0.));
#1616=DIRECTION('',(0.,0.,1.));
#1617=DIRECTION('center_axis',(0.,0.,-1.));
#1618=DIRECTION('ref_axis',(1.,0.,0.));
#1619=DIRECTION('',(1.,0.,0.));
#1620=DIRECTION('',(0.,-1.,0.));
#1621=DIRECTION('center_axis',(-1.,0.,0.));
#1622=DIRECTION('ref_axis',(0.,0.,-1.));
#1623=DIRECTION('',(0.,0.,-1.));
#1624=DIRECTION('center_axis',(0.,-1.,0.));
#1625=DIRECTION('ref_axis',(0.,0.,-1.));
#1626=DIRECTION('center_axis',(1.,0.,0.));
#1627=DIRECTION('ref_axis',(0.,0.,-1.));
#1628=DIRECTION('',(0.,-1.,0.));
#1629=DIRECTION('',(0.,0.,-1.));
#1630=DIRECTION('',(0.,1.,0.));
#1631=DIRECTION('center_axis',(0.,0.,1.));
#1632=DIRECTION('ref_axis',(1.,0.,0.));
#1633=DIRECTION('',(1.,0.,0.));
#1634=DIRECTION('',(0.,1.,0.));
#1635=DIRECTION('center_axis',(-1.,0.,0.));
#1636=DIRECTION('ref_axis',(0.,0.,1.));
#1637=DIRECTION('',(0.,0.,1.));
#1638=DIRECTION('',(0.,1.,0.));
#1639=DIRECTION('center_axis',(0.,0.,-1.));
#1640=DIRECTION('ref_axis',(-1.,0.,0.));
#1641=DIRECTION('',(-1.,0.,0.));
#1642=DIRECTION('center_axis',(0.,0.,1.));
#1643=DIRECTION('ref_axis',(1.,0.,0.));
#1644=DIRECTION('',(1.,0.,0.));
#1645=DIRECTION('center_axis',(0.,1.,0.));
#1646=DIRECTION('ref_axis',(0.,0.,1.));
#1647=DIRECTION('center_axis',(0.,-1.,0.));
#1648=DIRECTION('ref_axis',(1.,0.,0.));
#1649=DIRECTION('center_axis',(0.,-1.,0.));
#1650=DIRECTION('ref_axis',(1.,0.,0.));
#1651=CARTESIAN_POINT('',(0.,0.,0.));
#1652=CARTESIAN_POINT('Origin',(0.,12.5,-69.4));
#1653=CARTESIAN_POINT('',(0.,12.5,-69.4));
#1654=CARTESIAN_POINT('',(0.,12.5,-90.));
#1655=CARTESIAN_POINT('',(0.,12.5,-34.7));
#1656=CARTESIAN_POINT('',(-5.,12.5,-69.4));
#1657=CARTESIAN_POINT('',(0.,12.5,-69.4));
#1658=CARTESIAN_POINT('',(-5.,12.5,-90.));
#1659=CARTESIAN_POINT('',(-5.,12.5,-79.7));
#1660=CARTESIAN_POINT('',(0.,12.5,-90.));
#1661=CARTESIAN_POINT('Origin',(0.,0.,-69.4));
#1662=CARTESIAN_POINT('',(0.,0.,-69.4));
#1663=CARTESIAN_POINT('',(0.,0.,-69.4));
#1664=CARTESIAN_POINT('',(-5.,0.,-69.4));
#1665=CARTESIAN_POINT('',(-19.625,0.,-69.4));
#1666=CARTESIAN_POINT('',(-5.,0.,-69.4));
#1667=CARTESIAN_POINT('Origin',(-5.,0.,-90.));
#1668=CARTESIAN_POINT('',(-5.,0.,0.));
#1669=CARTESIAN_POINT('',(-5.,0.,-90.));
#1670=CARTESIAN_POINT('',(-5.,60.,0.));
#1671=CARTESIAN_POINT('',(-5.,0.,0.));
#1672=CARTESIAN_POINT('',(-5.,60.,-90.));
#1673=CARTESIAN_POINT('',(-5.,60.,-90.));
#1674=CARTESIAN_POINT('',(-5.,0.,-90.));
#1675=CARTESIAN_POINT('Origin',(-39.25,0.,-47.5));
#1676=CARTESIAN_POINT('',(-73.5,0.,-90.));
#1677=CARTESIAN_POINT('',(0.,0.,-90.));
#1678=CARTESIAN_POINT('',(-73.5,0.,-90.));
#1679=CARTESIAN_POINT('',(-73.5,0.,-75.));
#1680=CARTESIAN_POINT('',(-73.5,0.,-75.));
#1681=CARTESIAN_POINT('',(-78.5,0.,-75.));
#1682=CARTESIAN_POINT('',(-78.5,0.,-75.));
#1683=CARTESIAN_POINT('',(-78.5,0.,-95.));
#1684=CARTESIAN_POINT('',(-78.5,0.,-95.));
#1685=CARTESIAN_POINT('',(0.,0.,-95.));
#1686=CARTESIAN_POINT('',(0.,0.,-95.));
#1687=CARTESIAN_POINT('',(0.,0.,0.));
#1688=CARTESIAN_POINT('',(-0.974999999999996,0.,-90.975));
#1689=CARTESIAN_POINT('',(-0.974999999999996,0.,-94.025));
#1690=CARTESIAN_POINT('',(-0.974999999999995,0.,-70.7625));
#1691=CARTESIAN_POINT('',(-4.025,0.,-94.025));
#1692=CARTESIAN_POINT('',(-21.6375,0.,-94.025));
#1693=CARTESIAN_POINT('',(-4.025,0.,-90.975));
#1694=CARTESIAN_POINT('',(-4.02499999999999,0.,-69.2375));
#1695=CARTESIAN_POINT('',(-20.1125,0.,-90.975));
#1696=CARTESIAN_POINT('',(-74.475,0.,-90.975));
#1697=CARTESIAN_POINT('',(-74.475,0.,-94.025));
#1698=CARTESIAN_POINT('',(-74.475,0.,-70.7625));
#1699=CARTESIAN_POINT('',(-77.525,0.,-94.025));
#1700=CARTESIAN_POINT('',(-58.3875,0.,-94.025));
#1701=CARTESIAN_POINT('',(-77.525,0.,-90.975));
#1702=CARTESIAN_POINT('',(-77.525,0.,-69.2375));
#1703=CARTESIAN_POINT('',(-56.8625,0.,-90.975));
#1704=CARTESIAN_POINT('',(-74.475,0.,-75.975));
#1705=CARTESIAN_POINT('',(-74.475,0.,-79.025));
#1706=CARTESIAN_POINT('',(-74.475,0.,-63.2625));
#1707=CARTESIAN_POINT('',(-77.525,0.,-79.025));
#1708=CARTESIAN_POINT('',(-58.3875,0.,-79.025));
#1709=CARTESIAN_POINT('',(-77.525,0.,-75.975));
#1710=CARTESIAN_POINT('',(-77.525,0.,-61.7375));
#1711=CARTESIAN_POINT('',(-56.8625,0.,-75.975));
#1712=CARTESIAN_POINT('Origin',(-39.25,0.,-47.5));
#1713=CARTESIAN_POINT('',(0.,0.,0.));
#1714=CARTESIAN_POINT('',(0.,0.,0.));
#1715=CARTESIAN_POINT('',(-5.,0.,0.));
#1716=CARTESIAN_POINT('',(-0.974999999999995,0.,-45.975));
#1717=CARTESIAN_POINT('',(-0.974999999999995,0.,-49.025));
#1718=CARTESIAN_POINT('',(-0.974999999999997,0.,-48.2625));
#1719=CARTESIAN_POINT('',(-4.025,0.,-49.025));
#1720=CARTESIAN_POINT('',(-21.6375,0.,-49.025));
#1721=CARTESIAN_POINT('',(-4.025,0.,-45.975));
#1722=CARTESIAN_POINT('',(-4.02499999999999,0.,-46.7375));
#1723=CARTESIAN_POINT('',(-20.1125,0.,-45.975));
#1724=CARTESIAN_POINT('',(-0.975,0.,-0.974999999999999));
#1725=CARTESIAN_POINT('',(-0.975,0.,-4.025));
#1726=CARTESIAN_POINT('',(-0.975000000000001,0.,-25.7625));
#1727=CARTESIAN_POINT('',(-4.025,0.,-4.025));
#1728=CARTESIAN_POINT('',(-21.6375,0.,-4.02499999999999));
#1729=CARTESIAN_POINT('',(-4.025,0.,-0.975));
#1730=CARTESIAN_POINT('',(-4.02500000000001,0.,-24.2375));
#1731=CARTESIAN_POINT('',(-20.1125,0.,-0.975000000000001));
#1732=CARTESIAN_POINT('Origin',(0.,0.,0.));
#1733=CARTESIAN_POINT('',(0.,6.25,-90.));
#1734=CARTESIAN_POINT('',(0.,60.,-95.));
#1735=CARTESIAN_POINT('',(0.,0.,-95.));
#1736=CARTESIAN_POINT('',(0.,60.,0.));
#1737=CARTESIAN_POINT('',(0.,60.,0.));
#1738=CARTESIAN_POINT('',(0.,0.,0.));
#1739=CARTESIAN_POINT('Origin',(-51.55,18.2679234531623,-95.));
#1740=CARTESIAN_POINT('',(-51.55,18.2679234531623,-95.));
#1741=CARTESIAN_POINT('',(-73.5,18.2679234531623,-95.));
#1742=CARTESIAN_POINT('',(-25.775,18.2679234531623,-95.));
#1743=CARTESIAN_POINT('',(-51.55,18.2679234531623,-90.));
#1744=CARTESIAN_POINT('',(-51.55,18.2679234531623,-95.));
#1745=CARTESIAN_POINT('',(-73.5,18.2679234531623,-90.));
#1746=CARTESIAN_POINT('',(-62.525,18.2679234531623,-90.));
#1747=CARTESIAN_POINT('',(-73.5,18.2679234531623,-95.));
#1748=CARTESIAN_POINT('Origin',(-51.55,1.99999999999999,-95.));
#1749=CARTESIAN_POINT('',(-51.55,1.99999999999999,-95.));
#1750=CARTESIAN_POINT('',(-51.55,0.999999999999996,-95.));
#1751=CARTESIAN_POINT('',(-51.55,1.99999999999999,-90.));
#1752=CARTESIAN_POINT('',(-51.55,1.99999999999999,-95.));
#1753=CARTESIAN_POINT('',(-51.55,0.999999999999996,-90.));
#1754=CARTESIAN_POINT('Origin',(-73.5,2.,-95.));
#1755=CARTESIAN_POINT('',(-73.5,2.,-95.));
#1756=CARTESIAN_POINT('',(-36.75,1.99999999999999,-95.));
#1757=CARTESIAN_POINT('',(-73.5,2.,-90.));
#1758=CARTESIAN_POINT('',(-73.5,2.,-95.));
#1759=CARTESIAN_POINT('',(-73.5,2.,-90.));
#1760=CARTESIAN_POINT('Origin',(-73.5,0.,-90.));
#1761=CARTESIAN_POINT('',(-73.5,0.,-90.));
#1762=CARTESIAN_POINT('',(-73.5,60.,-90.));
#1763=CARTESIAN_POINT('',(-73.5,60.,-90.));
#1764=CARTESIAN_POINT('',(-73.5,0.,-90.));
#1765=CARTESIAN_POINT('Origin',(-4.025,0.,-90.975));
#1766=CARTESIAN_POINT('',(-4.025,-5.,-94.025));
#1767=CARTESIAN_POINT('',(-4.025,0.,-94.025));
#1768=CARTESIAN_POINT('',(-4.025,-5.,-90.975));
#1769=CARTESIAN_POINT('',(-4.025,-5.,-90.975));
#1770=CARTESIAN_POINT('',(-4.025,0.,-90.975));
#1771=CARTESIAN_POINT('Origin',(-4.025,0.,-94.025));
#1772=CARTESIAN_POINT('',(-0.974999999999996,-5.,-94.025));
#1773=CARTESIAN_POINT('',(-0.974999999999996,0.,-94.025));
#1774=CARTESIAN_POINT('',(-4.025,-5.,-94.025));
#1775=CARTESIAN_POINT('Origin',(-0.974999999999996,0.,-90.975));
#1776=CARTESIAN_POINT('',(-0.974999999999996,-5.,-90.975));
#1777=CARTESIAN_POINT('',(-0.974999999999996,-5.,-90.975));
#1778=CARTESIAN_POINT('',(-0.974999999999996,0.,-90.975));
#1779=CARTESIAN_POINT('Origin',(-0.974999999999996,0.,-90.975));
#1780=CARTESIAN_POINT('',(-0.974999999999996,60.,-90.975));
#1781=CARTESIAN_POINT('',(-4.025,60.,-90.975));
#1782=CARTESIAN_POINT('',(-20.1125,60.,-90.975));
#1783=CARTESIAN_POINT('',(-0.974999999999996,65.,-90.975));
#1784=CARTESIAN_POINT('',(-0.974999999999996,0.,-90.975));
#1785=CARTESIAN_POINT('',(-4.025,65.,-90.975));
#1786=CARTESIAN_POINT('',(-0.974999999999996,65.,-90.975));
#1787=CARTESIAN_POINT('',(-4.025,0.,-90.975));
#1788=CARTESIAN_POINT('Origin',(-0.974999999999996,0.,-94.025));
#1789=CARTESIAN_POINT('',(-0.974999999999996,-5.,-94.025));
#1790=CARTESIAN_POINT('Origin',(-0.974999999999996,0.,-94.025));
#1791=CARTESIAN_POINT('',(-0.974999999999996,60.,-94.025));
#1792=CARTESIAN_POINT('',(-0.974999999999995,60.,-70.7625));
#1793=CARTESIAN_POINT('',(-0.974999999999996,65.,-94.025));
#1794=CARTESIAN_POINT('',(-0.974999999999996,0.,-94.025));
#1795=CARTESIAN_POINT('',(-0.974999999999996,65.,-94.025));
#1796=CARTESIAN_POINT('Origin',(-2.5,65.,-92.5));
#1797=CARTESIAN_POINT('',(-4.025,65.,-94.025));
#1798=CARTESIAN_POINT('',(-4.025,65.,-94.025));
#1799=CARTESIAN_POINT('',(-4.025,65.,-90.975));
#1800=CARTESIAN_POINT('Origin',(-4.025,0.,-94.025));
#1801=CARTESIAN_POINT('',(-4.025,60.,-94.025));
#1802=CARTESIAN_POINT('',(-21.6375,60.,-94.025));
#1803=CARTESIAN_POINT('',(-4.025,0.,-94.025));
#1804=CARTESIAN_POINT('Origin',(-4.025,0.,-90.975));
#1805=CARTESIAN_POINT('',(-4.02499999999999,60.,-69.2375));
#1806=CARTESIAN_POINT('Origin',(-2.5,-5.,-92.5));
#1807=CARTESIAN_POINT('Origin',(-77.525,0.,-90.975));
#1808=CARTESIAN_POINT('',(-77.525,-5.,-94.025));
#1809=CARTESIAN_POINT('',(-77.525,0.,-94.025));
#1810=CARTESIAN_POINT('',(-77.525,-5.,-90.975));
#1811=CARTESIAN_POINT('',(-77.525,-5.,-90.975));
#1812=CARTESIAN_POINT('',(-77.525,0.,-90.975));
#1813=CARTESIAN_POINT('Origin',(-77.525,0.,-94.025));
#1814=CARTESIAN_POINT('',(-74.475,-5.,-94.025));
#1815=CARTESIAN_POINT('',(-74.475,0.,-94.025));
#1816=CARTESIAN_POINT('',(-77.525,-5.,-94.025));
#1817=CARTESIAN_POINT('Origin',(-74.475,0.,-90.975));
#1818=CARTESIAN_POINT('',(-74.475,-5.,-90.975));
#1819=CARTESIAN_POINT('',(-74.475,-5.,-90.975));
#1820=CARTESIAN_POINT('',(-74.475,0.,-90.975));
#1821=CARTESIAN_POINT('Origin',(-74.475,0.,-90.975));
#1822=CARTESIAN_POINT('',(-74.475,60.,-90.975));
#1823=CARTESIAN_POINT('',(-77.525,60.,-90.975));
#1824=CARTESIAN_POINT('',(-56.8625,60.,-90.975));
#1825=CARTESIAN_POINT('',(-74.475,65.,-90.975));
#1826=CARTESIAN_POINT('',(-74.475,0.,-90.975));
#1827=CARTESIAN_POINT('',(-77.525,65.,-90.975));
#1828=CARTESIAN_POINT('',(-74.475,65.,-90.975));
#1829=CARTESIAN_POINT('',(-77.525,0.,-90.975));
#1830=CARTESIAN_POINT('Origin',(-74.475,0.,-94.025));
#1831=CARTESIAN_POINT('',(-74.475,-5.,-94.025));
#1832=CARTESIAN_POINT('Origin',(-74.475,0.,-94.025));
#1833=CARTESIAN_POINT('',(-74.475,60.,-94.025));
#1834=CARTESIAN_POINT('',(-74.475,60.,-70.7625));
#1835=CARTESIAN_POINT('',(-74.475,65.,-94.025));
#1836=CARTESIAN_POINT('',(-74.475,0.,-94.025));
#1837=CARTESIAN_POINT('',(-74.475,65.,-94.025));
#1838=CARTESIAN_POINT('Origin',(-76.,65.,-92.5));
#1839=CARTESIAN_POINT('',(-77.525,65.,-94.025));
#1840=CARTESIAN_POINT('',(-77.525,65.,-94.025));
#1841=CARTESIAN_POINT('',(-77.525,65.,-90.975));
#1842=CARTESIAN_POINT('Origin',(-77.525,0.,-94.025));
#1843=CARTESIAN_POINT('',(-77.525,60.,-94.025));
#1844=CARTESIAN_POINT('',(-58.3875,60.,-94.025));
#1845=CARTESIAN_POINT('',(-77.525,0.,-94.025));
#1846=CARTESIAN_POINT('Origin',(-77.525,0.,-90.975));
#1847=CARTESIAN_POINT('',(-77.525,60.,-69.2375));
#1848=CARTESIAN_POINT('Origin',(-76.,-5.,-92.5));
#1849=CARTESIAN_POINT('Origin',(-4.025,0.,-0.975));
#1850=CARTESIAN_POINT('',(-4.025,-5.,-4.025));
#1851=CARTESIAN_POINT('',(-4.025,0.,-4.025));
#1852=CARTESIAN_POINT('',(-4.025,-5.,-0.975));
#1853=CARTESIAN_POINT('',(-4.025,-5.,-0.975));
#1854=CARTESIAN_POINT('',(-4.025,0.,-0.975));
#1855=CARTESIAN_POINT('Origin',(-4.025,0.,-4.025));
#1856=CARTESIAN_POINT('',(-0.975,-5.,-4.025));
#1857=CARTESIAN_POINT('',(-0.975,0.,-4.025));
#1858=CARTESIAN_POINT('',(-4.025,-5.,-4.025));
#1859=CARTESIAN_POINT('Origin',(-0.975,0.,-0.974999999999999));
#1860=CARTESIAN_POINT('',(-0.975,-5.,-0.974999999999999));
#1861=CARTESIAN_POINT('',(-0.975,-5.,-0.974999999999999));
#1862=CARTESIAN_POINT('',(-0.975,0.,-0.974999999999999));
#1863=CARTESIAN_POINT('Origin',(-0.975,0.,-0.974999999999999));
#1864=CARTESIAN_POINT('',(-0.975,60.,-0.974999999999999));
#1865=CARTESIAN_POINT('',(-4.025,60.,-0.975));
#1866=CARTESIAN_POINT('',(-20.1125,60.,-0.975000000000001));
#1867=CARTESIAN_POINT('',(-0.975,65.,-0.974999999999999));
#1868=CARTESIAN_POINT('',(-0.975,0.,-0.974999999999999));
#1869=CARTESIAN_POINT('',(-4.025,65.,-0.975));
#1870=CARTESIAN_POINT('',(-0.975,65.,-0.974999999999999));
#1871=CARTESIAN_POINT('',(-4.025,0.,-0.975));
#1872=CARTESIAN_POINT('Origin',(-0.975,0.,-4.025));
#1873=CARTESIAN_POINT('',(-0.975,-5.,-4.025));
#1874=CARTESIAN_POINT('Origin',(-0.975,0.,-4.025));
#1875=CARTESIAN_POINT('',(-0.975,60.,-4.025));
#1876=CARTESIAN_POINT('',(-0.975000000000001,60.,-25.7625));
#1877=CARTESIAN_POINT('',(-0.975,65.,-4.025));
#1878=CARTESIAN_POINT('',(-0.975,0.,-4.025));
#1879=CARTESIAN_POINT('',(-0.975,65.,-4.025));
#1880=CARTESIAN_POINT('Origin',(-2.5,65.,-2.5));
#1881=CARTESIAN_POINT('',(-4.025,65.,-4.025));
#1882=CARTESIAN_POINT('',(-4.025,65.,-4.025));
#1883=CARTESIAN_POINT('',(-4.025,65.,-0.975));
#1884=CARTESIAN_POINT('Origin',(-4.025,0.,-4.025));
#1885=CARTESIAN_POINT('',(-4.025,60.,-4.025));
#1886=CARTESIAN_POINT('',(-21.6375,60.,-4.02499999999999));
#1887=CARTESIAN_POINT('',(-4.025,0.,-4.025));
#1888=CARTESIAN_POINT('Origin',(-4.025,0.,-0.975));
#1889=CARTESIAN_POINT('',(-4.02500000000001,60.,-24.2375));
#1890=CARTESIAN_POINT('Origin',(-2.5,-5.,-2.5));
#1891=CARTESIAN_POINT('Origin',(-77.525,0.,-75.975));
#1892=CARTESIAN_POINT('',(-77.525,-5.,-79.025));
#1893=CARTESIAN_POINT('',(-77.525,0.,-79.025));
#1894=CARTESIAN_POINT('',(-77.525,-5.,-75.975));
#1895=CARTESIAN_POINT('',(-77.525,-5.,-75.975));
#1896=CARTESIAN_POINT('',(-77.525,0.,-75.975));
#1897=CARTESIAN_POINT('Origin',(-77.525,0.,-79.025));
#1898=CARTESIAN_POINT('',(-74.475,-5.,-79.025));
#1899=CARTESIAN_POINT('',(-74.475,0.,-79.025));
#1900=CARTESIAN_POINT('',(-77.525,-5.,-79.025));
#1901=CARTESIAN_POINT('Origin',(-74.475,0.,-75.975));
#1902=CARTESIAN_POINT('',(-74.475,-5.,-75.975));
#1903=CARTESIAN_POINT('',(-74.475,-5.,-75.975));
#1904=CARTESIAN_POINT('',(-74.475,0.,-75.975));
#1905=CARTESIAN_POINT('Origin',(-74.475,0.,-75.975));
#1906=CARTESIAN_POINT('',(-74.475,60.,-75.975));
#1907=CARTESIAN_POINT('',(-77.525,60.,-75.975));
#1908=CARTESIAN_POINT('',(-56.8625,60.,-75.975));
#1909=CARTESIAN_POINT('',(-74.475,65.,-75.975));
#1910=CARTESIAN_POINT('',(-74.475,0.,-75.975));
#1911=CARTESIAN_POINT('',(-77.525,65.,-75.975));
#1912=CARTESIAN_POINT('',(-74.475,65.,-75.975));
#1913=CARTESIAN_POINT('',(-77.525,0.,-75.975));
#1914=CARTESIAN_POINT('Origin',(-74.475,0.,-79.025));
#1915=CARTESIAN_POINT('',(-74.475,-5.,-79.025));
#1916=CARTESIAN_POINT('Origin',(-74.475,0.,-79.025));
#1917=CARTESIAN_POINT('',(-74.475,60.,-79.025));
#1918=CARTESIAN_POINT('',(-74.475,60.,-63.2625));
#1919=CARTESIAN_POINT('',(-74.475,65.,-79.025));
#1920=CARTESIAN_POINT('',(-74.475,0.,-79.025));
#1921=CARTESIAN_POINT('',(-74.475,65.,-79.025));
#1922=CARTESIAN_POINT('Origin',(-76.,65.,-77.5));
#1923=CARTESIAN_POINT('',(-77.525,65.,-79.025));
#1924=CARTESIAN_POINT('',(-77.525,65.,-79.025));
#1925=CARTESIAN_POINT('',(-77.525,65.,-75.975));
#1926=CARTESIAN_POINT('Origin',(-77.525,0.,-79.025));
#1927=CARTESIAN_POINT('',(-77.525,60.,-79.025));
#1928=CARTESIAN_POINT('',(-58.3875,60.,-79.025));
#1929=CARTESIAN_POINT('',(-77.525,0.,-79.025));
#1930=CARTESIAN_POINT('Origin',(-77.525,0.,-75.975));
#1931=CARTESIAN_POINT('',(-77.525,60.,-61.7375));
#1932=CARTESIAN_POINT('Origin',(-76.,-5.,-77.5));
#1933=CARTESIAN_POINT('Origin',(-4.025,0.,-45.975));
#1934=CARTESIAN_POINT('',(-4.025,-5.,-49.025));
#1935=CARTESIAN_POINT('',(-4.025,0.,-49.025));
#1936=CARTESIAN_POINT('',(-4.025,-5.,-45.975));
#1937=CARTESIAN_POINT('',(-4.025,-5.,-45.975));
#1938=CARTESIAN_POINT('',(-4.025,0.,-45.975));
#1939=CARTESIAN_POINT('Origin',(-4.025,0.,-49.025));
#1940=CARTESIAN_POINT('',(-0.974999999999995,-5.,-49.025));
#1941=CARTESIAN_POINT('',(-0.974999999999995,0.,-49.025));
#1942=CARTESIAN_POINT('',(-4.025,-5.,-49.025));
#1943=CARTESIAN_POINT('Origin',(-0.974999999999995,0.,-45.975));
#1944=CARTESIAN_POINT('',(-0.974999999999995,-5.,-45.975));
#1945=CARTESIAN_POINT('',(-0.974999999999995,-5.,-45.975));
#1946=CARTESIAN_POINT('',(-0.974999999999995,0.,-45.975));
#1947=CARTESIAN_POINT('Origin',(-0.974999999999995,0.,-45.975));
#1948=CARTESIAN_POINT('',(-0.974999999999995,60.,-45.975));
#1949=CARTESIAN_POINT('',(-4.025,60.,-45.975));
#1950=CARTESIAN_POINT('',(-20.1125,60.,-45.975));
#1951=CARTESIAN_POINT('',(-0.974999999999995,65.,-45.975));
#1952=CARTESIAN_POINT('',(-0.974999999999995,0.,-45.975));
#1953=CARTESIAN_POINT('',(-4.025,65.,-45.975));
#1954=CARTESIAN_POINT('',(-0.974999999999995,65.,-45.975));
#1955=CARTESIAN_POINT('',(-4.025,0.,-45.975));
#1956=CARTESIAN_POINT('Origin',(-0.974999999999995,0.,-49.025));
#1957=CARTESIAN_POINT('',(-0.974999999999995,-5.,-49.025));
#1958=CARTESIAN_POINT('Origin',(-0.974999999999995,0.,-49.025));
#1959=CARTESIAN_POINT('',(-0.974999999999995,60.,-49.025));
#1960=CARTESIAN_POINT('',(-0.974999999999997,60.,-48.2625));
#1961=CARTESIAN_POINT('',(-0.974999999999995,65.,-49.025));
#1962=CARTESIAN_POINT('',(-0.974999999999995,0.,-49.025));
#1963=CARTESIAN_POINT('',(-0.974999999999995,65.,-49.025));
#1964=CARTESIAN_POINT('Origin',(-2.5,65.,-47.5));
#1965=CARTESIAN_POINT('',(-4.025,65.,-49.025));
#1966=CARTESIAN_POINT('',(-4.025,65.,-49.025));
#1967=CARTESIAN_POINT('',(-4.025,65.,-45.975));
#1968=CARTESIAN_POINT('Origin',(-4.025,0.,-49.025));
#1969=CARTESIAN_POINT('',(-4.025,60.,-49.025));
#1970=CARTESIAN_POINT('',(-21.6375,60.,-49.025));
#1971=CARTESIAN_POINT('',(-4.025,0.,-49.025));
#1972=CARTESIAN_POINT('Origin',(-4.025,0.,-45.975));
#1973=CARTESIAN_POINT('',(-4.02499999999999,60.,-46.7375));
#1974=CARTESIAN_POINT('Origin',(-2.5,-5.,-47.5));
#1975=CARTESIAN_POINT('Origin',(-73.5,0.,-75.));
#1976=CARTESIAN_POINT('',(-73.5,9.13396172658117,-95.));
#1977=CARTESIAN_POINT('',(-73.5,60.,-75.));
#1978=CARTESIAN_POINT('',(-73.5,60.,-75.));
#1979=CARTESIAN_POINT('',(-73.5,0.,-75.));
#1980=CARTESIAN_POINT('Origin',(-78.5,0.,-75.));
#1981=CARTESIAN_POINT('',(-78.5,60.,-75.));
#1982=CARTESIAN_POINT('',(-78.5,60.,-75.));
#1983=CARTESIAN_POINT('',(-78.5,0.,-75.));
#1984=CARTESIAN_POINT('Origin',(-78.5,0.,-95.));
#1985=CARTESIAN_POINT('',(-78.5,60.,-95.));
#1986=CARTESIAN_POINT('',(-78.5,60.,-95.));
#1987=CARTESIAN_POINT('',(-78.5,0.,-95.));
#1988=CARTESIAN_POINT('Origin',(0.,0.,-95.));
#1989=CARTESIAN_POINT('',(0.,60.,-95.));
#1990=CARTESIAN_POINT('Origin',(-5.,0.,0.));
#1991=CARTESIAN_POINT('',(-5.,60.,0.));
#1992=CARTESIAN_POINT('Origin',(-39.25,60.,-47.5));
#1993=CARTESIAN_POINT('polyline point',(-0.975,-5.,-0.974999999999999));
#1994=CARTESIAN_POINT('polyline point',(-4.025,-5.,-0.975));
#1995=CARTESIAN_POINT('polyline point',(-4.025,-5.,-0.975));
#1996=CARTESIAN_POINT('polyline point',(-4.025,-5.,-4.025));
#1997=CARTESIAN_POINT('polyline point',(-4.025,-5.,-4.025));
#1998=CARTESIAN_POINT('polyline point',(-0.975,-5.,-4.025));
#1999=CARTESIAN_POINT('polyline point',(-0.975,-5.,-4.025));
#2000=CARTESIAN_POINT('polyline point',(-0.975,-5.,-0.974999999999999));
#2001=CARTESIAN_POINT('polyline point',(-74.475,-5.,-75.975));
#2002=CARTESIAN_POINT('polyline point',(-77.525,-5.,-75.975));
#2003=CARTESIAN_POINT('polyline point',(-77.525,-5.,-75.975));
#2004=CARTESIAN_POINT('polyline point',(-77.525,-5.,-79.025));
#2005=CARTESIAN_POINT('polyline point',(-77.525,-5.,-79.025));
#2006=CARTESIAN_POINT('polyline point',(-74.475,-5.,-79.025));
#2007=CARTESIAN_POINT('polyline point',(-74.475,-5.,-79.025));
#2008=CARTESIAN_POINT('polyline point',(-74.475,-5.,-75.975));
#2009=CARTESIAN_POINT('Origin',(-2.5,-5.,-2.5));
#2010=CARTESIAN_POINT('Origin',(-76.,-5.,-77.5));
#2011=CARTESIAN_POINT('',(0.,-5.,0.));
#2012=UNCERTAINTY_MEASURE_WITH_UNIT(LENGTH_MEASURE(0.01),#2016,
'DISTANCE_ACCURACY_VALUE',
'Maximum model space distance between geometric entities at asserted c
onnectivities');
#2013=UNCERTAINTY_MEASURE_WITH_UNIT(LENGTH_MEASURE(0.01),#2016,
'DISTANCE_ACCURACY_VALUE',
'Maximum model space distance between geometric entities at asserted c
onnectivities');
#2014=(
GEOMETRIC_REPRESENTATION_CONTEXT(3)
GLOBAL_UNCERTAINTY_ASSIGNED_CONTEXT((#2012))
GLOBAL_UNIT_ASSIGNED_CONTEXT((#2016,#2018,#2019))
REPRESENTATION_CONTEXT('','3D')
);
#2015=(
GEOMETRIC_REPRESENTATION_CONTEXT(3)
GLOBAL_UNCERTAINTY_ASSIGNED_CONTEXT((#2013))
GLOBAL_UNIT_ASSIGNED_CONTEXT((#2016,#2018,#2019))
REPRESENTATION_CONTEXT('','3D')
);
#2016=(
LENGTH_UNIT()
NAMED_UNIT(*)
SI_UNIT(.MILLI.,.METRE.)
);
#2017=(
LENGTH_UNIT()
NAMED_UNIT(*)
SI_UNIT(.CENTI.,.METRE.)
);
#2018=(
NAMED_UNIT(*)
PLANE_ANGLE_UNIT()
SI_UNIT($,.RADIAN.)
);
#2019=(
NAMED_UNIT(*)
SI_UNIT($,.STERADIAN.)
SOLID_ANGLE_UNIT()
);
#2020=SHAPE_DEFINITION_REPRESENTATION(#2021,#2022);
#2021=PRODUCT_DEFINITION_SHAPE('',$,#2024);
#2022=SHAPE_REPRESENTATION('',(#1279),#2014);
#2023=PRODUCT_DEFINITION_CONTEXT('part definition',#2028,'design');
#2024=PRODUCT_DEFINITION('frame_back_side','frame_back_side',#2025,#2023);
#2025=PRODUCT_DEFINITION_FORMATION('',$,#2030);
#2026=PRODUCT_RELATED_PRODUCT_CATEGORY('frame_back_side',
'frame_back_side',(#2030));
#2027=APPLICATION_PROTOCOL_DEFINITION('international standard',
'automotive_design',2009,#2028);
#2028=APPLICATION_CONTEXT(
'Core Data for Automotive Mechanical Design Process');
#2029=PRODUCT_CONTEXT('part definition',#2028,'mechanical');
#2030=PRODUCT('frame_back_side','frame_back_side',$,(#2029));
#2031=PRESENTATION_STYLE_ASSIGNMENT((#2033));
#2032=PRESENTATION_STYLE_ASSIGNMENT((#2034));
#2033=SURFACE_STYLE_USAGE(.BOTH.,#2037);
#2034=SURFACE_STYLE_USAGE(.BOTH.,#2038);
#2035=SURFACE_STYLE_RENDERING_WITH_PROPERTIES($,#2045,(#2036));
#2036=SURFACE_STYLE_TRANSPARENT(0.);
#2037=SURFACE_SIDE_STYLE('',(#2039,#2035));
#2038=SURFACE_SIDE_STYLE('',(#2040));
#2039=SURFACE_STYLE_FILL_AREA(#2041);
#2040=SURFACE_STYLE_FILL_AREA(#2042);
#2041=FILL_AREA_STYLE('',(#2043));
#2042=FILL_AREA_STYLE('',(#2044));
#2043=FILL_AREA_STYLE_COLOUR('',#2045);
#2044=FILL_AREA_STYLE_COLOUR('',#2046);
#2045=COLOUR_RGB('',0.749019607843137,0.749019607843137,0.749019607843137);
#2046=COLOUR_RGB('',0.913725490196078,0.913725490196078,0.);
ENDSEC;
END-ISO-10303-21;
