ISO-10303-21;
HEADER;
/* Generated by software containing ST-Developer
 * from STEP Tools, Inc. (www.steptools.com) 
 */

FILE_DESCRIPTION(
/* description */ (''),
/* implementation_level */ '2;1');

FILE_NAME(
/* name */ 'frame_lid.stp',
/* time_stamp */ '2026-09-01T11:18:05+02:00',
/* author */ ('carlos'),
/* organization */ (''),
/* preprocessor_version */ 'ST-DEVELOPER v20.1',
/* originating_system */ 'Autodesk Inventor 2027',
/* authorisation */ '');

FILE_SCHEMA (('AUTOMOTIVE_DESIGN { 1 0 10303 214 3 1 1 }','AP242_MANAGED_MODEL_BASED_3D_ENGINEERING_MIM_LF { 1 0 10303 442 3 1 4 }'));
ENDSEC;

DATA;
#10=MECHANICAL_DESIGN_GEOMETRIC_PRESENTATION_REPRESENTATION('',(#13),#1286);
#11=SHAPE_REPRESENTATION_RELATIONSHIP('SRR','None',#1293,#12);
#12=ADVANCED_BREP_SHAPE_REPRESENTATION('',(#14),#1285);
#13=STYLED_ITEM('',(#1302),#14);
#14=MANIFOLD_SOLID_BREP('Solid1',#813);
#15=FACE_BOUND('',#107,.T.);
#16=FACE_BOUND('',#108,.T.);
#17=FACE_BOUND('',#109,.T.);
#18=FACE_BOUND('',#110,.T.);
#19=FACE_BOUND('',#111,.T.);
#20=FACE_BOUND('',#112,.T.);
#21=FACE_BOUND('',#113,.T.);
#22=FACE_BOUND('',#115,.T.);
#23=FACE_BOUND('',#116,.T.);
#24=FACE_BOUND('',#117,.T.);
#25=FACE_BOUND('',#118,.T.);
#26=FACE_BOUND('',#119,.T.);
#27=FACE_BOUND('',#120,.T.);
#28=FACE_BOUND('',#121,.T.);
#29=FACE_BOUND('',#122,.T.);
#30=FACE_OUTER_BOUND('',#69,.T.);
#31=FACE_OUTER_BOUND('',#70,.T.);
#32=FACE_OUTER_BOUND('',#71,.T.);
#33=FACE_OUTER_BOUND('',#72,.T.);
#34=FACE_OUTER_BOUND('',#73,.T.);
#35=FACE_OUTER_BOUND('',#74,.T.);
#36=FACE_OUTER_BOUND('',#75,.T.);
#37=FACE_OUTER_BOUND('',#76,.T.);
#38=FACE_OUTER_BOUND('',#77,.T.);
#39=FACE_OUTER_BOUND('',#78,.T.);
#40=FACE_OUTER_BOUND('',#79,.T.);
#41=FACE_OUTER_BOUND('',#80,.T.);
#42=FACE_OUTER_BOUND('',#81,.T.);
#43=FACE_OUTER_BOUND('',#82,.T.);
#44=FACE_OUTER_BOUND('',#83,.T.);
#45=FACE_OUTER_BOUND('',#84,.T.);
#46=FACE_OUTER_BOUND('',#85,.T.);
#47=FACE_OUTER_BOUND('',#86,.T.);
#48=FACE_OUTER_BOUND('',#87,.T.);
#49=FACE_OUTER_BOUND('',#88,.T.);
#50=FACE_OUTER_BOUND('',#89,.T.);
#51=FACE_OUTER_BOUND('',#90,.T.);
#52=FACE_OUTER_BOUND('',#91,.T.);
#53=FACE_OUTER_BOUND('',#92,.T.);
#54=FACE_OUTER_BOUND('',#93,.T.);
#55=FACE_OUTER_BOUND('',#94,.T.);
#56=FACE_OUTER_BOUND('',#95,.T.);
#57=FACE_OUTER_BOUND('',#96,.T.);
#58=FACE_OUTER_BOUND('',#97,.T.);
#59=FACE_OUTER_BOUND('',#98,.T.);
#60=FACE_OUTER_BOUND('',#99,.T.);
#61=FACE_OUTER_BOUND('',#100,.T.);
#62=FACE_OUTER_BOUND('',#101,.T.);
#63=FACE_OUTER_BOUND('',#102,.T.);
#64=FACE_OUTER_BOUND('',#103,.T.);
#65=FACE_OUTER_BOUND('',#104,.T.);
#66=FACE_OUTER_BOUND('',#105,.T.);
#67=FACE_OUTER_BOUND('',#106,.T.);
#68=FACE_OUTER_BOUND('',#114,.T.);
#69=EDGE_LOOP('',(#519,#520,#521,#522));
#70=EDGE_LOOP('',(#523,#524,#525,#526));
#71=EDGE_LOOP('',(#527,#528,#529,#530));
#72=EDGE_LOOP('',(#531,#532,#533,#534));
#73=EDGE_LOOP('',(#535,#536,#537,#538));
#74=EDGE_LOOP('',(#539,#540,#541,#542));
#75=EDGE_LOOP('',(#543,#544,#545,#546));
#76=EDGE_LOOP('',(#547,#548,#549,#550));
#77=EDGE_LOOP('',(#551,#552,#553,#554));
#78=EDGE_LOOP('',(#555,#556,#557,#558));
#79=EDGE_LOOP('',(#559,#560,#561,#562));
#80=EDGE_LOOP('',(#563,#564,#565,#566));
#81=EDGE_LOOP('',(#567,#568,#569,#570));
#82=EDGE_LOOP('',(#571,#572,#573,#574));
#83=EDGE_LOOP('',(#575,#576,#577,#578));
#84=EDGE_LOOP('',(#579,#580,#581,#582));
#85=EDGE_LOOP('',(#583,#584,#585,#586));
#86=EDGE_LOOP('',(#587,#588,#589,#590));
#87=EDGE_LOOP('',(#591,#592,#593,#594));
#88=EDGE_LOOP('',(#595,#596,#597,#598));
#89=EDGE_LOOP('',(#599,#600,#601,#602));
#90=EDGE_LOOP('',(#603,#604,#605,#606));
#91=EDGE_LOOP('',(#607,#608,#609,#610));
#92=EDGE_LOOP('',(#611,#612,#613,#614));
#93=EDGE_LOOP('',(#615,#616,#617,#618));
#94=EDGE_LOOP('',(#619,#620,#621,#622));
#95=EDGE_LOOP('',(#623,#624,#625,#626));
#96=EDGE_LOOP('',(#627,#628,#629,#630));
#97=EDGE_LOOP('',(#631,#632,#633,#634));
#98=EDGE_LOOP('',(#635,#636,#637,#638));
#99=EDGE_LOOP('',(#639,#640,#641,#642));
#100=EDGE_LOOP('',(#643,#644,#645,#646));
#101=EDGE_LOOP('',(#647,#648,#649,#650));
#102=EDGE_LOOP('',(#651,#652,#653,#654));
#103=EDGE_LOOP('',(#655,#656,#657,#658));
#104=EDGE_LOOP('',(#659,#660,#661,#662));
#105=EDGE_LOOP('',(#663,#664,#665,#666));
#106=EDGE_LOOP('',(#667,#668,#669,#670));
#107=EDGE_LOOP('',(#671,#672,#673,#674));
#108=EDGE_LOOP('',(#675,#676,#677,#678));
#109=EDGE_LOOP('',(#679,#680,#681,#682));
#110=EDGE_LOOP('',(#683,#684,#685,#686));
#111=EDGE_LOOP('',(#687,#688,#689,#690));
#112=EDGE_LOOP('',(#691,#692,#693,#694));
#113=EDGE_LOOP('',(#695,#696,#697,#698));
#114=EDGE_LOOP('',(#699,#700,#701,#702));
#115=EDGE_LOOP('',(#703,#704,#705,#706));
#116=EDGE_LOOP('',(#707,#708,#709,#710));
#117=EDGE_LOOP('',(#711,#712,#713,#714));
#118=EDGE_LOOP('',(#715,#716,#717,#718));
#119=EDGE_LOOP('',(#719,#720,#721,#722));
#120=EDGE_LOOP('',(#723,#724,#725,#726));
#121=EDGE_LOOP('',(#727,#728,#729,#730));
#122=EDGE_LOOP('',(#731,#732,#733,#734));
#123=LINE('',#1067,#231);
#124=LINE('',#1069,#232);
#125=LINE('',#1071,#233);
#126=LINE('',#1072,#234);
#127=LINE('',#1075,#235);
#128=LINE('',#1077,#236);
#129=LINE('',#1078,#237);
#130=LINE('',#1081,#238);
#131=LINE('',#1083,#239);
#132=LINE('',#1084,#240);
#133=LINE('',#1086,#241);
#134=LINE('',#1087,#242);
#135=LINE('',#1092,#243);
#136=LINE('',#1094,#244);
#137=LINE('',#1096,#245);
#138=LINE('',#1097,#246);
#139=LINE('',#1100,#247);
#140=LINE('',#1102,#248);
#141=LINE('',#1103,#249);
#142=LINE('',#1106,#250);
#143=LINE('',#1108,#251);
#144=LINE('',#1109,#252);
#145=LINE('',#1111,#253);
#146=LINE('',#1112,#254);
#147=LINE('',#1116,#255);
#148=LINE('',#1118,#256);
#149=LINE('',#1120,#257);
#150=LINE('',#1121,#258);
#151=LINE('',#1124,#259);
#152=LINE('',#1126,#260);
#153=LINE('',#1127,#261);
#154=LINE('',#1130,#262);
#155=LINE('',#1132,#263);
#156=LINE('',#1133,#264);
#157=LINE('',#1135,#265);
#158=LINE('',#1136,#266);
#159=LINE('',#1140,#267);
#160=LINE('',#1142,#268);
#161=LINE('',#1144,#269);
#162=LINE('',#1145,#270);
#163=LINE('',#1148,#271);
#164=LINE('',#1150,#272);
#165=LINE('',#1151,#273);
#166=LINE('',#1154,#274);
#167=LINE('',#1156,#275);
#168=LINE('',#1157,#276);
#169=LINE('',#1159,#277);
#170=LINE('',#1160,#278);
#171=LINE('',#1164,#279);
#172=LINE('',#1166,#280);
#173=LINE('',#1168,#281);
#174=LINE('',#1169,#282);
#175=LINE('',#1172,#283);
#176=LINE('',#1174,#284);
#177=LINE('',#1175,#285);
#178=LINE('',#1178,#286);
#179=LINE('',#1180,#287);
#180=LINE('',#1181,#288);
#181=LINE('',#1183,#289);
#182=LINE('',#1184,#290);
#183=LINE('',#1188,#291);
#184=LINE('',#1190,#292);
#185=LINE('',#1192,#293);
#186=LINE('',#1193,#294);
#187=LINE('',#1196,#295);
#188=LINE('',#1198,#296);
#189=LINE('',#1199,#297);
#190=LINE('',#1202,#298);
#191=LINE('',#1204,#299);
#192=LINE('',#1205,#300);
#193=LINE('',#1207,#301);
#194=LINE('',#1208,#302);
#195=LINE('',#1212,#303);
#196=LINE('',#1214,#304);
#197=LINE('',#1216,#305);
#198=LINE('',#1217,#306);
#199=LINE('',#1220,#307);
#200=LINE('',#1222,#308);
#201=LINE('',#1223,#309);
#202=LINE('',#1226,#310);
#203=LINE('',#1228,#311);
#204=LINE('',#1229,#312);
#205=LINE('',#1231,#313);
#206=LINE('',#1232,#314);
#207=LINE('',#1236,#315);
#208=LINE('',#1238,#316);
#209=LINE('',#1240,#317);
#210=LINE('',#1241,#318);
#211=LINE('',#1244,#319);
#212=LINE('',#1246,#320);
#213=LINE('',#1247,#321);
#214=LINE('',#1250,#322);
#215=LINE('',#1252,#323);
#216=LINE('',#1253,#324);
#217=LINE('',#1255,#325);
#218=LINE('',#1256,#326);
#219=LINE('',#1260,#327);
#220=LINE('',#1262,#328);
#221=LINE('',#1264,#329);
#222=LINE('',#1265,#330);
#223=LINE('',#1268,#331);
#224=LINE('',#1270,#332);
#225=LINE('',#1271,#333);
#226=LINE('',#1274,#334);
#227=LINE('',#1276,#335);
#228=LINE('',#1277,#336);
#229=LINE('',#1279,#337);
#230=LINE('',#1280,#338);
#231=VECTOR('',#879,10.);
#232=VECTOR('',#880,10.);
#233=VECTOR('',#881,10.);
#234=VECTOR('',#882,10.);
#235=VECTOR('',#885,10.);
#236=VECTOR('',#886,10.);
#237=VECTOR('',#887,10.);
#238=VECTOR('',#890,10.);
#239=VECTOR('',#891,10.);
#240=VECTOR('',#892,10.);
#241=VECTOR('',#895,10.);
#242=VECTOR('',#896,10.);
#243=VECTOR('',#901,10.);
#244=VECTOR('',#902,10.);
#245=VECTOR('',#903,10.);
#246=VECTOR('',#904,10.);
#247=VECTOR('',#907,10.);
#248=VECTOR('',#908,10.);
#249=VECTOR('',#909,10.);
#250=VECTOR('',#912,10.);
#251=VECTOR('',#913,10.);
#252=VECTOR('',#914,10.);
#253=VECTOR('',#917,10.);
#254=VECTOR('',#918,10.);
#255=VECTOR('',#921,10.);
#256=VECTOR('',#922,10.);
#257=VECTOR('',#923,10.);
#258=VECTOR('',#924,10.);
#259=VECTOR('',#927,10.);
#260=VECTOR('',#928,10.);
#261=VECTOR('',#929,10.);
#262=VECTOR('',#932,10.);
#263=VECTOR('',#933,10.);
#264=VECTOR('',#934,10.);
#265=VECTOR('',#937,10.);
#266=VECTOR('',#938,10.);
#267=VECTOR('',#941,10.);
#268=VECTOR('',#942,10.);
#269=VECTOR('',#943,10.);
#270=VECTOR('',#944,10.);
#271=VECTOR('',#947,10.);
#272=VECTOR('',#948,10.);
#273=VECTOR('',#949,10.);
#274=VECTOR('',#952,10.);
#275=VECTOR('',#953,10.);
#276=VECTOR('',#954,10.);
#277=VECTOR('',#957,10.);
#278=VECTOR('',#958,10.);
#279=VECTOR('',#961,10.);
#280=VECTOR('',#962,10.);
#281=VECTOR('',#963,10.);
#282=VECTOR('',#964,10.);
#283=VECTOR('',#967,10.);
#284=VECTOR('',#968,10.);
#285=VECTOR('',#969,10.);
#286=VECTOR('',#972,10.);
#287=VECTOR('',#973,10.);
#288=VECTOR('',#974,10.);
#289=VECTOR('',#977,10.);
#290=VECTOR('',#978,10.);
#291=VECTOR('',#981,10.);
#292=VECTOR('',#982,10.);
#293=VECTOR('',#983,10.);
#294=VECTOR('',#984,10.);
#295=VECTOR('',#987,10.);
#296=VECTOR('',#988,10.);
#297=VECTOR('',#989,10.);
#298=VECTOR('',#992,10.);
#299=VECTOR('',#993,10.);
#300=VECTOR('',#994,10.);
#301=VECTOR('',#997,10.);
#302=VECTOR('',#998,10.);
#303=VECTOR('',#1001,10.);
#304=VECTOR('',#1002,10.);
#305=VECTOR('',#1003,10.);
#306=VECTOR('',#1004,10.);
#307=VECTOR('',#1007,10.);
#308=VECTOR('',#1008,10.);
#309=VECTOR('',#1009,10.);
#310=VECTOR('',#1012,10.);
#311=VECTOR('',#1013,10.);
#312=VECTOR('',#1014,10.);
#313=VECTOR('',#1017,10.);
#314=VECTOR('',#1018,10.);
#315=VECTOR('',#1021,10.);
#316=VECTOR('',#1022,10.);
#317=VECTOR('',#1023,10.);
#318=VECTOR('',#1024,10.);
#319=VECTOR('',#1027,10.);
#320=VECTOR('',#1028,10.);
#321=VECTOR('',#1029,10.);
#322=VECTOR('',#1032,10.);
#323=VECTOR('',#1033,10.);
#324=VECTOR('',#1034,10.);
#325=VECTOR('',#1037,10.);
#326=VECTOR('',#1038,10.);
#327=VECTOR('',#1041,10.);
#328=VECTOR('',#1042,10.);
#329=VECTOR('',#1043,10.);
#330=VECTOR('',#1044,10.);
#331=VECTOR('',#1047,10.);
#332=VECTOR('',#1048,10.);
#333=VECTOR('',#1049,10.);
#334=VECTOR('',#1052,10.);
#335=VECTOR('',#1053,10.);
#336=VECTOR('',#1054,10.);
#337=VECTOR('',#1057,10.);
#338=VECTOR('',#1058,10.);
#339=VERTEX_POINT('',#1065);
#340=VERTEX_POINT('',#1066);
#341=VERTEX_POINT('',#1068);
#342=VERTEX_POINT('',#1070);
#343=VERTEX_POINT('',#1074);
#344=VERTEX_POINT('',#1076);
#345=VERTEX_POINT('',#1080);
#346=VERTEX_POINT('',#1082);
#347=VERTEX_POINT('',#1090);
#348=VERTEX_POINT('',#1091);
#349=VERTEX_POINT('',#1093);
#350=VERTEX_POINT('',#1095);
#351=VERTEX_POINT('',#1099);
#352=VERTEX_POINT('',#1101);
#353=VERTEX_POINT('',#1105);
#354=VERTEX_POINT('',#1107);
#355=VERTEX_POINT('',#1114);
#356=VERTEX_POINT('',#1115);
#357=VERTEX_POINT('',#1117);
#358=VERTEX_POINT('',#1119);
#359=VERTEX_POINT('',#1123);
#360=VERTEX_POINT('',#1125);
#361=VERTEX_POINT('',#1129);
#362=VERTEX_POINT('',#1131);
#363=VERTEX_POINT('',#1138);
#364=VERTEX_POINT('',#1139);
#365=VERTEX_POINT('',#1141);
#366=VERTEX_POINT('',#1143);
#367=VERTEX_POINT('',#1147);
#368=VERTEX_POINT('',#1149);
#369=VERTEX_POINT('',#1153);
#370=VERTEX_POINT('',#1155);
#371=VERTEX_POINT('',#1162);
#372=VERTEX_POINT('',#1163);
#373=VERTEX_POINT('',#1165);
#374=VERTEX_POINT('',#1167);
#375=VERTEX_POINT('',#1171);
#376=VERTEX_POINT('',#1173);
#377=VERTEX_POINT('',#1177);
#378=VERTEX_POINT('',#1179);
#379=VERTEX_POINT('',#1186);
#380=VERTEX_POINT('',#1187);
#381=VERTEX_POINT('',#1189);
#382=VERTEX_POINT('',#1191);
#383=VERTEX_POINT('',#1195);
#384=VERTEX_POINT('',#1197);
#385=VERTEX_POINT('',#1201);
#386=VERTEX_POINT('',#1203);
#387=VERTEX_POINT('',#1210);
#388=VERTEX_POINT('',#1211);
#389=VERTEX_POINT('',#1213);
#390=VERTEX_POINT('',#1215);
#391=VERTEX_POINT('',#1219);
#392=VERTEX_POINT('',#1221);
#393=VERTEX_POINT('',#1225);
#394=VERTEX_POINT('',#1227);
#395=VERTEX_POINT('',#1234);
#396=VERTEX_POINT('',#1235);
#397=VERTEX_POINT('',#1237);
#398=VERTEX_POINT('',#1239);
#399=VERTEX_POINT('',#1243);
#400=VERTEX_POINT('',#1245);
#401=VERTEX_POINT('',#1249);
#402=VERTEX_POINT('',#1251);
#403=VERTEX_POINT('',#1258);
#404=VERTEX_POINT('',#1259);
#405=VERTEX_POINT('',#1261);
#406=VERTEX_POINT('',#1263);
#407=VERTEX_POINT('',#1267);
#408=VERTEX_POINT('',#1269);
#409=VERTEX_POINT('',#1273);
#410=VERTEX_POINT('',#1275);
#411=EDGE_CURVE('',#339,#340,#123,.T.);
#412=EDGE_CURVE('',#339,#341,#124,.T.);
#413=EDGE_CURVE('',#341,#342,#125,.T.);
#414=EDGE_CURVE('',#340,#342,#126,.T.);
#415=EDGE_CURVE('',#343,#339,#127,.T.);
#416=EDGE_CURVE('',#343,#344,#128,.T.);
#417=EDGE_CURVE('',#344,#341,#129,.T.);
#418=EDGE_CURVE('',#345,#343,#130,.T.);
#419=EDGE_CURVE('',#345,#346,#131,.T.);
#420=EDGE_CURVE('',#346,#344,#132,.T.);
#421=EDGE_CURVE('',#340,#345,#133,.T.);
#422=EDGE_CURVE('',#342,#346,#134,.T.);
#423=EDGE_CURVE('',#347,#348,#135,.T.);
#424=EDGE_CURVE('',#347,#349,#136,.T.);
#425=EDGE_CURVE('',#350,#349,#137,.T.);
#426=EDGE_CURVE('',#348,#350,#138,.T.);
#427=EDGE_CURVE('',#351,#347,#139,.T.);
#428=EDGE_CURVE('',#351,#352,#140,.T.);
#429=EDGE_CURVE('',#349,#352,#141,.T.);
#430=EDGE_CURVE('',#353,#351,#142,.T.);
#431=EDGE_CURVE('',#353,#354,#143,.T.);
#432=EDGE_CURVE('',#352,#354,#144,.T.);
#433=EDGE_CURVE('',#348,#353,#145,.T.);
#434=EDGE_CURVE('',#354,#350,#146,.T.);
#435=EDGE_CURVE('',#355,#356,#147,.T.);
#436=EDGE_CURVE('',#355,#357,#148,.T.);
#437=EDGE_CURVE('',#358,#357,#149,.T.);
#438=EDGE_CURVE('',#356,#358,#150,.T.);
#439=EDGE_CURVE('',#359,#355,#151,.T.);
#440=EDGE_CURVE('',#359,#360,#152,.T.);
#441=EDGE_CURVE('',#357,#360,#153,.T.);
#442=EDGE_CURVE('',#361,#359,#154,.T.);
#443=EDGE_CURVE('',#361,#362,#155,.T.);
#444=EDGE_CURVE('',#360,#362,#156,.T.);
#445=EDGE_CURVE('',#356,#361,#157,.T.);
#446=EDGE_CURVE('',#362,#358,#158,.T.);
#447=EDGE_CURVE('',#363,#364,#159,.T.);
#448=EDGE_CURVE('',#363,#365,#160,.T.);
#449=EDGE_CURVE('',#366,#365,#161,.T.);
#450=EDGE_CURVE('',#364,#366,#162,.T.);
#451=EDGE_CURVE('',#367,#363,#163,.T.);
#452=EDGE_CURVE('',#367,#368,#164,.T.);
#453=EDGE_CURVE('',#365,#368,#165,.T.);
#454=EDGE_CURVE('',#369,#367,#166,.T.);
#455=EDGE_CURVE('',#369,#370,#167,.T.);
#456=EDGE_CURVE('',#368,#370,#168,.T.);
#457=EDGE_CURVE('',#364,#369,#169,.T.);
#458=EDGE_CURVE('',#370,#366,#170,.T.);
#459=EDGE_CURVE('',#371,#372,#171,.T.);
#460=EDGE_CURVE('',#371,#373,#172,.T.);
#461=EDGE_CURVE('',#374,#373,#173,.T.);
#462=EDGE_CURVE('',#372,#374,#174,.T.);
#463=EDGE_CURVE('',#375,#371,#175,.T.);
#464=EDGE_CURVE('',#375,#376,#176,.T.);
#465=EDGE_CURVE('',#373,#376,#177,.T.);
#466=EDGE_CURVE('',#377,#375,#178,.T.);
#467=EDGE_CURVE('',#377,#378,#179,.T.);
#468=EDGE_CURVE('',#376,#378,#180,.T.);
#469=EDGE_CURVE('',#372,#377,#181,.T.);
#470=EDGE_CURVE('',#378,#374,#182,.T.);
#471=EDGE_CURVE('',#379,#380,#183,.T.);
#472=EDGE_CURVE('',#379,#381,#184,.T.);
#473=EDGE_CURVE('',#382,#381,#185,.T.);
#474=EDGE_CURVE('',#380,#382,#186,.T.);
#475=EDGE_CURVE('',#383,#379,#187,.T.);
#476=EDGE_CURVE('',#383,#384,#188,.T.);
#477=EDGE_CURVE('',#381,#384,#189,.T.);
#478=EDGE_CURVE('',#385,#383,#190,.T.);
#479=EDGE_CURVE('',#385,#386,#191,.T.);
#480=EDGE_CURVE('',#384,#386,#192,.T.);
#481=EDGE_CURVE('',#380,#385,#193,.T.);
#482=EDGE_CURVE('',#386,#382,#194,.T.);
#483=EDGE_CURVE('',#387,#388,#195,.T.);
#484=EDGE_CURVE('',#387,#389,#196,.T.);
#485=EDGE_CURVE('',#390,#389,#197,.T.);
#486=EDGE_CURVE('',#388,#390,#198,.T.);
#487=EDGE_CURVE('',#391,#387,#199,.T.);
#488=EDGE_CURVE('',#391,#392,#200,.T.);
#489=EDGE_CURVE('',#389,#392,#201,.T.);
#490=EDGE_CURVE('',#393,#391,#202,.T.);
#491=EDGE_CURVE('',#393,#394,#203,.T.);
#492=EDGE_CURVE('',#392,#394,#204,.T.);
#493=EDGE_CURVE('',#388,#393,#205,.T.);
#494=EDGE_CURVE('',#394,#390,#206,.T.);
#495=EDGE_CURVE('',#395,#396,#207,.T.);
#496=EDGE_CURVE('',#395,#397,#208,.T.);
#497=EDGE_CURVE('',#398,#397,#209,.T.);
#498=EDGE_CURVE('',#396,#398,#210,.T.);
#499=EDGE_CURVE('',#399,#395,#211,.T.);
#500=EDGE_CURVE('',#399,#400,#212,.T.);
#501=EDGE_CURVE('',#397,#400,#213,.T.);
#502=EDGE_CURVE('',#401,#399,#214,.T.);
#503=EDGE_CURVE('',#401,#402,#215,.T.);
#504=EDGE_CURVE('',#400,#402,#216,.T.);
#505=EDGE_CURVE('',#396,#401,#217,.T.);
#506=EDGE_CURVE('',#402,#398,#218,.T.);
#507=EDGE_CURVE('',#403,#404,#219,.T.);
#508=EDGE_CURVE('',#404,#405,#220,.T.);
#509=EDGE_CURVE('',#406,#405,#221,.T.);
#510=EDGE_CURVE('',#403,#406,#222,.T.);
#511=EDGE_CURVE('',#407,#403,#223,.T.);
#512=EDGE_CURVE('',#408,#406,#224,.T.);
#513=EDGE_CURVE('',#407,#408,#225,.T.);
#514=EDGE_CURVE('',#409,#407,#226,.T.);
#515=EDGE_CURVE('',#410,#408,#227,.T.);
#516=EDGE_CURVE('',#409,#410,#228,.T.);
#517=EDGE_CURVE('',#404,#409,#229,.T.);
#518=EDGE_CURVE('',#405,#410,#230,.T.);
#519=ORIENTED_EDGE('',*,*,#411,.F.);
#520=ORIENTED_EDGE('',*,*,#412,.T.);
#521=ORIENTED_EDGE('',*,*,#413,.T.);
#522=ORIENTED_EDGE('',*,*,#414,.F.);
#523=ORIENTED_EDGE('',*,*,#415,.F.);
#524=ORIENTED_EDGE('',*,*,#416,.T.);
#525=ORIENTED_EDGE('',*,*,#417,.T.);
#526=ORIENTED_EDGE('',*,*,#412,.F.);
#527=ORIENTED_EDGE('',*,*,#418,.F.);
#528=ORIENTED_EDGE('',*,*,#419,.T.);
#529=ORIENTED_EDGE('',*,*,#420,.T.);
#530=ORIENTED_EDGE('',*,*,#416,.F.);
#531=ORIENTED_EDGE('',*,*,#421,.F.);
#532=ORIENTED_EDGE('',*,*,#414,.T.);
#533=ORIENTED_EDGE('',*,*,#422,.T.);
#534=ORIENTED_EDGE('',*,*,#419,.F.);
#535=ORIENTED_EDGE('',*,*,#422,.F.);
#536=ORIENTED_EDGE('',*,*,#413,.F.);
#537=ORIENTED_EDGE('',*,*,#417,.F.);
#538=ORIENTED_EDGE('',*,*,#420,.F.);
#539=ORIENTED_EDGE('',*,*,#423,.F.);
#540=ORIENTED_EDGE('',*,*,#424,.T.);
#541=ORIENTED_EDGE('',*,*,#425,.F.);
#542=ORIENTED_EDGE('',*,*,#426,.F.);
#543=ORIENTED_EDGE('',*,*,#427,.F.);
#544=ORIENTED_EDGE('',*,*,#428,.T.);
#545=ORIENTED_EDGE('',*,*,#429,.F.);
#546=ORIENTED_EDGE('',*,*,#424,.F.);
#547=ORIENTED_EDGE('',*,*,#430,.F.);
#548=ORIENTED_EDGE('',*,*,#431,.T.);
#549=ORIENTED_EDGE('',*,*,#432,.F.);
#550=ORIENTED_EDGE('',*,*,#428,.F.);
#551=ORIENTED_EDGE('',*,*,#433,.F.);
#552=ORIENTED_EDGE('',*,*,#426,.T.);
#553=ORIENTED_EDGE('',*,*,#434,.F.);
#554=ORIENTED_EDGE('',*,*,#431,.F.);
#555=ORIENTED_EDGE('',*,*,#435,.F.);
#556=ORIENTED_EDGE('',*,*,#436,.T.);
#557=ORIENTED_EDGE('',*,*,#437,.F.);
#558=ORIENTED_EDGE('',*,*,#438,.F.);
#559=ORIENTED_EDGE('',*,*,#439,.F.);
#560=ORIENTED_EDGE('',*,*,#440,.T.);
#561=ORIENTED_EDGE('',*,*,#441,.F.);
#562=ORIENTED_EDGE('',*,*,#436,.F.);
#563=ORIENTED_EDGE('',*,*,#442,.F.);
#564=ORIENTED_EDGE('',*,*,#443,.T.);
#565=ORIENTED_EDGE('',*,*,#444,.F.);
#566=ORIENTED_EDGE('',*,*,#440,.F.);
#567=ORIENTED_EDGE('',*,*,#445,.F.);
#568=ORIENTED_EDGE('',*,*,#438,.T.);
#569=ORIENTED_EDGE('',*,*,#446,.F.);
#570=ORIENTED_EDGE('',*,*,#443,.F.);
#571=ORIENTED_EDGE('',*,*,#447,.F.);
#572=ORIENTED_EDGE('',*,*,#448,.T.);
#573=ORIENTED_EDGE('',*,*,#449,.F.);
#574=ORIENTED_EDGE('',*,*,#450,.F.);
#575=ORIENTED_EDGE('',*,*,#451,.F.);
#576=ORIENTED_EDGE('',*,*,#452,.T.);
#577=ORIENTED_EDGE('',*,*,#453,.F.);
#578=ORIENTED_EDGE('',*,*,#448,.F.);
#579=ORIENTED_EDGE('',*,*,#454,.F.);
#580=ORIENTED_EDGE('',*,*,#455,.T.);
#581=ORIENTED_EDGE('',*,*,#456,.F.);
#582=ORIENTED_EDGE('',*,*,#452,.F.);
#583=ORIENTED_EDGE('',*,*,#457,.F.);
#584=ORIENTED_EDGE('',*,*,#450,.T.);
#585=ORIENTED_EDGE('',*,*,#458,.F.);
#586=ORIENTED_EDGE('',*,*,#455,.F.);
#587=ORIENTED_EDGE('',*,*,#459,.F.);
#588=ORIENTED_EDGE('',*,*,#460,.T.);
#589=ORIENTED_EDGE('',*,*,#461,.F.);
#590=ORIENTED_EDGE('',*,*,#462,.F.);
#591=ORIENTED_EDGE('',*,*,#463,.F.);
#592=ORIENTED_EDGE('',*,*,#464,.T.);
#593=ORIENTED_EDGE('',*,*,#465,.F.);
#594=ORIENTED_EDGE('',*,*,#460,.F.);
#595=ORIENTED_EDGE('',*,*,#466,.F.);
#596=ORIENTED_EDGE('',*,*,#467,.T.);
#597=ORIENTED_EDGE('',*,*,#468,.F.);
#598=ORIENTED_EDGE('',*,*,#464,.F.);
#599=ORIENTED_EDGE('',*,*,#469,.F.);
#600=ORIENTED_EDGE('',*,*,#462,.T.);
#601=ORIENTED_EDGE('',*,*,#470,.F.);
#602=ORIENTED_EDGE('',*,*,#467,.F.);
#603=ORIENTED_EDGE('',*,*,#471,.F.);
#604=ORIENTED_EDGE('',*,*,#472,.T.);
#605=ORIENTED_EDGE('',*,*,#473,.F.);
#606=ORIENTED_EDGE('',*,*,#474,.F.);
#607=ORIENTED_EDGE('',*,*,#475,.F.);
#608=ORIENTED_EDGE('',*,*,#476,.T.);
#609=ORIENTED_EDGE('',*,*,#477,.F.);
#610=ORIENTED_EDGE('',*,*,#472,.F.);
#611=ORIENTED_EDGE('',*,*,#478,.F.);
#612=ORIENTED_EDGE('',*,*,#479,.T.);
#613=ORIENTED_EDGE('',*,*,#480,.F.);
#614=ORIENTED_EDGE('',*,*,#476,.F.);
#615=ORIENTED_EDGE('',*,*,#481,.F.);
#616=ORIENTED_EDGE('',*,*,#474,.T.);
#617=ORIENTED_EDGE('',*,*,#482,.F.);
#618=ORIENTED_EDGE('',*,*,#479,.F.);
#619=ORIENTED_EDGE('',*,*,#483,.F.);
#620=ORIENTED_EDGE('',*,*,#484,.T.);
#621=ORIENTED_EDGE('',*,*,#485,.F.);
#622=ORIENTED_EDGE('',*,*,#486,.F.);
#623=ORIENTED_EDGE('',*,*,#487,.F.);
#624=ORIENTED_EDGE('',*,*,#488,.T.);
#625=ORIENTED_EDGE('',*,*,#489,.F.);
#626=ORIENTED_EDGE('',*,*,#484,.F.);
#627=ORIENTED_EDGE('',*,*,#490,.F.);
#628=ORIENTED_EDGE('',*,*,#491,.T.);
#629=ORIENTED_EDGE('',*,*,#492,.F.);
#630=ORIENTED_EDGE('',*,*,#488,.F.);
#631=ORIENTED_EDGE('',*,*,#493,.F.);
#632=ORIENTED_EDGE('',*,*,#486,.T.);
#633=ORIENTED_EDGE('',*,*,#494,.F.);
#634=ORIENTED_EDGE('',*,*,#491,.F.);
#635=ORIENTED_EDGE('',*,*,#495,.F.);
#636=ORIENTED_EDGE('',*,*,#496,.T.);
#637=ORIENTED_EDGE('',*,*,#497,.F.);
#638=ORIENTED_EDGE('',*,*,#498,.F.);
#639=ORIENTED_EDGE('',*,*,#499,.F.);
#640=ORIENTED_EDGE('',*,*,#500,.T.);
#641=ORIENTED_EDGE('',*,*,#501,.F.);
#642=ORIENTED_EDGE('',*,*,#496,.F.);
#643=ORIENTED_EDGE('',*,*,#502,.F.);
#644=ORIENTED_EDGE('',*,*,#503,.T.);
#645=ORIENTED_EDGE('',*,*,#504,.F.);
#646=ORIENTED_EDGE('',*,*,#500,.F.);
#647=ORIENTED_EDGE('',*,*,#505,.F.);
#648=ORIENTED_EDGE('',*,*,#498,.T.);
#649=ORIENTED_EDGE('',*,*,#506,.F.);
#650=ORIENTED_EDGE('',*,*,#503,.F.);
#651=ORIENTED_EDGE('',*,*,#507,.T.);
#652=ORIENTED_EDGE('',*,*,#508,.T.);
#653=ORIENTED_EDGE('',*,*,#509,.F.);
#654=ORIENTED_EDGE('',*,*,#510,.F.);
#655=ORIENTED_EDGE('',*,*,#511,.T.);
#656=ORIENTED_EDGE('',*,*,#510,.T.);
#657=ORIENTED_EDGE('',*,*,#512,.F.);
#658=ORIENTED_EDGE('',*,*,#513,.F.);
#659=ORIENTED_EDGE('',*,*,#514,.T.);
#660=ORIENTED_EDGE('',*,*,#513,.T.);
#661=ORIENTED_EDGE('',*,*,#515,.F.);
#662=ORIENTED_EDGE('',*,*,#516,.F.);
#663=ORIENTED_EDGE('',*,*,#517,.T.);
#664=ORIENTED_EDGE('',*,*,#516,.T.);
#665=ORIENTED_EDGE('',*,*,#518,.F.);
#666=ORIENTED_EDGE('',*,*,#508,.F.);
#667=ORIENTED_EDGE('',*,*,#518,.T.);
#668=ORIENTED_EDGE('',*,*,#515,.T.);
#669=ORIENTED_EDGE('',*,*,#512,.T.);
#670=ORIENTED_EDGE('',*,*,#509,.T.);
#671=ORIENTED_EDGE('',*,*,#423,.T.);
#672=ORIENTED_EDGE('',*,*,#433,.T.);
#673=ORIENTED_EDGE('',*,*,#430,.T.);
#674=ORIENTED_EDGE('',*,*,#427,.T.);
#675=ORIENTED_EDGE('',*,*,#435,.T.);
#676=ORIENTED_EDGE('',*,*,#445,.T.);
#677=ORIENTED_EDGE('',*,*,#442,.T.);
#678=ORIENTED_EDGE('',*,*,#439,.T.);
#679=ORIENTED_EDGE('',*,*,#447,.T.);
#680=ORIENTED_EDGE('',*,*,#457,.T.);
#681=ORIENTED_EDGE('',*,*,#454,.T.);
#682=ORIENTED_EDGE('',*,*,#451,.T.);
#683=ORIENTED_EDGE('',*,*,#459,.T.);
#684=ORIENTED_EDGE('',*,*,#469,.T.);
#685=ORIENTED_EDGE('',*,*,#466,.T.);
#686=ORIENTED_EDGE('',*,*,#463,.T.);
#687=ORIENTED_EDGE('',*,*,#471,.T.);
#688=ORIENTED_EDGE('',*,*,#481,.T.);
#689=ORIENTED_EDGE('',*,*,#478,.T.);
#690=ORIENTED_EDGE('',*,*,#475,.T.);
#691=ORIENTED_EDGE('',*,*,#483,.T.);
#692=ORIENTED_EDGE('',*,*,#493,.T.);
#693=ORIENTED_EDGE('',*,*,#490,.T.);
#694=ORIENTED_EDGE('',*,*,#487,.T.);
#695=ORIENTED_EDGE('',*,*,#495,.T.);
#696=ORIENTED_EDGE('',*,*,#505,.T.);
#697=ORIENTED_EDGE('',*,*,#502,.T.);
#698=ORIENTED_EDGE('',*,*,#499,.T.);
#699=ORIENTED_EDGE('',*,*,#517,.F.);
#700=ORIENTED_EDGE('',*,*,#507,.F.);
#701=ORIENTED_EDGE('',*,*,#511,.F.);
#702=ORIENTED_EDGE('',*,*,#514,.F.);
#703=ORIENTED_EDGE('',*,*,#411,.T.);
#704=ORIENTED_EDGE('',*,*,#421,.T.);
#705=ORIENTED_EDGE('',*,*,#418,.T.);
#706=ORIENTED_EDGE('',*,*,#415,.T.);
#707=ORIENTED_EDGE('',*,*,#425,.T.);
#708=ORIENTED_EDGE('',*,*,#429,.T.);
#709=ORIENTED_EDGE('',*,*,#432,.T.);
#710=ORIENTED_EDGE('',*,*,#434,.T.);
#711=ORIENTED_EDGE('',*,*,#437,.T.);
#712=ORIENTED_EDGE('',*,*,#441,.T.);
#713=ORIENTED_EDGE('',*,*,#444,.T.);
#714=ORIENTED_EDGE('',*,*,#446,.T.);
#715=ORIENTED_EDGE('',*,*,#449,.T.);
#716=ORIENTED_EDGE('',*,*,#453,.T.);
#717=ORIENTED_EDGE('',*,*,#456,.T.);
#718=ORIENTED_EDGE('',*,*,#458,.T.);
#719=ORIENTED_EDGE('',*,*,#461,.T.);
#720=ORIENTED_EDGE('',*,*,#465,.T.);
#721=ORIENTED_EDGE('',*,*,#468,.T.);
#722=ORIENTED_EDGE('',*,*,#470,.T.);
#723=ORIENTED_EDGE('',*,*,#473,.T.);
#724=ORIENTED_EDGE('',*,*,#477,.T.);
#725=ORIENTED_EDGE('',*,*,#480,.T.);
#726=ORIENTED_EDGE('',*,*,#482,.T.);
#727=ORIENTED_EDGE('',*,*,#485,.T.);
#728=ORIENTED_EDGE('',*,*,#489,.T.);
#729=ORIENTED_EDGE('',*,*,#492,.T.);
#730=ORIENTED_EDGE('',*,*,#494,.T.);
#731=ORIENTED_EDGE('',*,*,#497,.T.);
#732=ORIENTED_EDGE('',*,*,#501,.T.);
#733=ORIENTED_EDGE('',*,*,#504,.T.);
#734=ORIENTED_EDGE('',*,*,#506,.T.);
#735=PLANE('',#836);
#736=PLANE('',#837);
#737=PLANE('',#838);
#738=PLANE('',#839);
#739=PLANE('',#840);
#740=PLANE('',#841);
#741=PLANE('',#842);
#742=PLANE('',#843);
#743=PLANE('',#844);
#744=PLANE('',#845);
#745=PLANE('',#846);
#746=PLANE('',#847);
#747=PLANE('',#848);
#748=PLANE('',#849);
#749=PLANE('',#850);
#750=PLANE('',#851);
#751=PLANE('',#852);
#752=PLANE('',#853);
#753=PLANE('',#854);
#754=PLANE('',#855);
#755=PLANE('',#856);
#756=PLANE('',#857);
#757=PLANE('',#858);
#758=PLANE('',#859);
#759=PLANE('',#860);
#760=PLANE('',#861);
#761=PLANE('',#862);
#762=PLANE('',#863);
#763=PLANE('',#864);
#764=PLANE('',#865);
#765=PLANE('',#866);
#766=PLANE('',#867);
#767=PLANE('',#868);
#768=PLANE('',#869);
#769=PLANE('',#870);
#770=PLANE('',#871);
#771=PLANE('',#872);
#772=PLANE('',#873);
#773=PLANE('',#874);
#774=ADVANCED_FACE('',(#30),#735,.F.);
#775=ADVANCED_FACE('',(#31),#736,.F.);
#776=ADVANCED_FACE('',(#32),#737,.F.);
#777=ADVANCED_FACE('',(#33),#738,.F.);
#778=ADVANCED_FACE('',(#34),#739,.F.);
#779=ADVANCED_FACE('',(#35),#740,.F.);
#780=ADVANCED_FACE('',(#36),#741,.F.);
#781=ADVANCED_FACE('',(#37),#742,.F.);
#782=ADVANCED_FACE('',(#38),#743,.F.);
#783=ADVANCED_FACE('',(#39),#744,.F.);
#784=ADVANCED_FACE('',(#40),#745,.F.);
#785=ADVANCED_FACE('',(#41),#746,.F.);
#786=ADVANCED_FACE('',(#42),#747,.F.);
#787=ADVANCED_FACE('',(#43),#748,.F.);
#788=ADVANCED_FACE('',(#44),#749,.F.);
#789=ADVANCED_FACE('',(#45),#750,.F.);
#790=ADVANCED_FACE('',(#46),#751,.F.);
#791=ADVANCED_FACE('',(#47),#752,.F.);
#792=ADVANCED_FACE('',(#48),#753,.F.);
#793=ADVANCED_FACE('',(#49),#754,.F.);
#794=ADVANCED_FACE('',(#50),#755,.F.);
#795=ADVANCED_FACE('',(#51),#756,.F.);
#796=ADVANCED_FACE('',(#52),#757,.F.);
#797=ADVANCED_FACE('',(#53),#758,.F.);
#798=ADVANCED_FACE('',(#54),#759,.F.);
#799=ADVANCED_FACE('',(#55),#760,.F.);
#800=ADVANCED_FACE('',(#56),#761,.F.);
#801=ADVANCED_FACE('',(#57),#762,.F.);
#802=ADVANCED_FACE('',(#58),#763,.F.);
#803=ADVANCED_FACE('',(#59),#764,.F.);
#804=ADVANCED_FACE('',(#60),#765,.F.);
#805=ADVANCED_FACE('',(#61),#766,.F.);
#806=ADVANCED_FACE('',(#62),#767,.F.);
#807=ADVANCED_FACE('',(#63),#768,.T.);
#808=ADVANCED_FACE('',(#64),#769,.T.);
#809=ADVANCED_FACE('',(#65),#770,.T.);
#810=ADVANCED_FACE('',(#66),#771,.T.);
#811=ADVANCED_FACE('',(#67,#15,#16,#17,#18,#19,#20,#21),#772,.T.);
#812=ADVANCED_FACE('',(#68,#22,#23,#24,#25,#26,#27,#28,#29),#773,.F.);
#813=CLOSED_SHELL('',(#774,#775,#776,#777,#778,#779,#780,#781,#782,#783,
#784,#785,#786,#787,#788,#789,#790,#791,#792,#793,#794,#795,#796,#797,#798,
#799,#800,#801,#802,#803,#804,#805,#806,#807,#808,#809,#810,#811,#812));
#814=DERIVED_UNIT_ELEMENT(#817,1.);
#815=DERIVED_UNIT_ELEMENT(#1288,-3.);
#816=DIMENSIONAL_EXPONENTS(0.,1.,0.,0.,0.,0.,0.);
#817=(
CONVERSION_BASED_UNIT('gram',#819)
MASS_UNIT()
NAMED_UNIT(#816)
);
#818=(
MASS_UNIT()
NAMED_UNIT(*)
SI_UNIT(.KILO.,.GRAM.)
);
#819=MASS_MEASURE_WITH_UNIT(MASS_MEASURE(0.001),#818);
#820=DERIVED_UNIT((#814,#815));
#821=MEASURE_REPRESENTATION_ITEM('density measure',
POSITIVE_RATIO_MEASURE(1.),#820);
#822=PROPERTY_DEFINITION_REPRESENTATION(#827,#824);
#823=PROPERTY_DEFINITION_REPRESENTATION(#828,#825);
#824=REPRESENTATION('material name',(#826),#1285);
#825=REPRESENTATION('density',(#821),#1285);
#826=DESCRIPTIVE_REPRESENTATION_ITEM('Generic','Generic');
#827=PROPERTY_DEFINITION('material property','material name',#1295);
#828=PROPERTY_DEFINITION('material property','density of part',#1295);
#829=DATE_TIME_ROLE('creation_date');
#830=APPLIED_DATE_AND_TIME_ASSIGNMENT(#831,#829,(#1295));
#831=DATE_AND_TIME(#832,#833);
#832=CALENDAR_DATE(2026,13,7);
#833=LOCAL_TIME(0,0,0.,#834);
#834=COORDINATED_UNIVERSAL_TIME_OFFSET(0,0,.BEHIND.);
#835=AXIS2_PLACEMENT_3D('',#1063,#875,#876);
#836=AXIS2_PLACEMENT_3D('',#1064,#877,#878);
#837=AXIS2_PLACEMENT_3D('',#1073,#883,#884);
#838=AXIS2_PLACEMENT_3D('',#1079,#888,#889);
#839=AXIS2_PLACEMENT_3D('',#1085,#893,#894);
#840=AXIS2_PLACEMENT_3D('',#1088,#897,#898);
#841=AXIS2_PLACEMENT_3D('',#1089,#899,#900);
#842=AXIS2_PLACEMENT_3D('',#1098,#905,#906);
#843=AXIS2_PLACEMENT_3D('',#1104,#910,#911);
#844=AXIS2_PLACEMENT_3D('',#1110,#915,#916);
#845=AXIS2_PLACEMENT_3D('',#1113,#919,#920);
#846=AXIS2_PLACEMENT_3D('',#1122,#925,#926);
#847=AXIS2_PLACEMENT_3D('',#1128,#930,#931);
#848=AXIS2_PLACEMENT_3D('',#1134,#935,#936);
#849=AXIS2_PLACEMENT_3D('',#1137,#939,#940);
#850=AXIS2_PLACEMENT_3D('',#1146,#945,#946);
#851=AXIS2_PLACEMENT_3D('',#1152,#950,#951);
#852=AXIS2_PLACEMENT_3D('',#1158,#955,#956);
#853=AXIS2_PLACEMENT_3D('',#1161,#959,#960);
#854=AXIS2_PLACEMENT_3D('',#1170,#965,#966);
#855=AXIS2_PLACEMENT_3D('',#1176,#970,#971);
#856=AXIS2_PLACEMENT_3D('',#1182,#975,#976);
#857=AXIS2_PLACEMENT_3D('',#1185,#979,#980);
#858=AXIS2_PLACEMENT_3D('',#1194,#985,#986);
#859=AXIS2_PLACEMENT_3D('',#1200,#990,#991);
#860=AXIS2_PLACEMENT_3D('',#1206,#995,#996);
#861=AXIS2_PLACEMENT_3D('',#1209,#999,#1000);
#862=AXIS2_PLACEMENT_3D('',#1218,#1005,#1006);
#863=AXIS2_PLACEMENT_3D('',#1224,#1010,#1011);
#864=AXIS2_PLACEMENT_3D('',#1230,#1015,#1016);
#865=AXIS2_PLACEMENT_3D('',#1233,#1019,#1020);
#866=AXIS2_PLACEMENT_3D('',#1242,#1025,#1026);
#867=AXIS2_PLACEMENT_3D('',#1248,#1030,#1031);
#868=AXIS2_PLACEMENT_3D('',#1254,#1035,#1036);
#869=AXIS2_PLACEMENT_3D('',#1257,#1039,#1040);
#870=AXIS2_PLACEMENT_3D('',#1266,#1045,#1046);
#871=AXIS2_PLACEMENT_3D('',#1272,#1050,#1051);
#872=AXIS2_PLACEMENT_3D('',#1278,#1055,#1056);
#873=AXIS2_PLACEMENT_3D('',#1281,#1059,#1060);
#874=AXIS2_PLACEMENT_3D('',#1282,#1061,#1062);
#875=DIRECTION('axis',(0.,0.,1.));
#876=DIRECTION('refdir',(1.,0.,0.));
#877=DIRECTION('center_axis',(0.,0.,-1.));
#878=DIRECTION('ref_axis',(-1.,0.,0.));
#879=DIRECTION('',(-1.,0.,0.));
#880=DIRECTION('',(0.,1.,0.));
#881=DIRECTION('',(-1.,0.,0.));
#882=DIRECTION('',(0.,1.,0.));
#883=DIRECTION('center_axis',(1.,0.,0.));
#884=DIRECTION('ref_axis',(0.,0.,-1.));
#885=DIRECTION('',(0.,0.,-1.));
#886=DIRECTION('',(0.,1.,0.));
#887=DIRECTION('',(0.,0.,-1.));
#888=DIRECTION('center_axis',(0.,0.,1.));
#889=DIRECTION('ref_axis',(1.,0.,0.));
#890=DIRECTION('',(1.,0.,0.));
#891=DIRECTION('',(0.,1.,0.));
#892=DIRECTION('',(1.,0.,0.));
#893=DIRECTION('center_axis',(-1.,0.,0.));
#894=DIRECTION('ref_axis',(0.,0.,1.));
#895=DIRECTION('',(0.,0.,1.));
#896=DIRECTION('',(0.,0.,1.));
#897=DIRECTION('center_axis',(0.,1.,0.));
#898=DIRECTION('ref_axis',(0.,0.,1.));
#899=DIRECTION('center_axis',(0.,0.,-1.));
#900=DIRECTION('ref_axis',(1.,0.,0.));
#901=DIRECTION('',(1.,0.,0.));
#902=DIRECTION('',(0.,-1.,0.));
#903=DIRECTION('',(-1.,0.,0.));
#904=DIRECTION('',(0.,-1.,0.));
#905=DIRECTION('center_axis',(-1.,0.,0.));
#906=DIRECTION('ref_axis',(0.,0.,-1.));
#907=DIRECTION('',(0.,0.,-1.));
#908=DIRECTION('',(0.,-1.,0.));
#909=DIRECTION('',(0.,0.,1.));
#910=DIRECTION('center_axis',(0.,0.,1.));
#911=DIRECTION('ref_axis',(-1.,0.,0.));
#912=DIRECTION('',(-1.,0.,0.));
#913=DIRECTION('',(0.,-1.,0.));
#914=DIRECTION('',(1.,0.,0.));
#915=DIRECTION('center_axis',(1.,0.,0.));
#916=DIRECTION('ref_axis',(0.,0.,1.));
#917=DIRECTION('',(0.,0.,1.));
#918=DIRECTION('',(0.,0.,-1.));
#919=DIRECTION('center_axis',(0.,0.,-1.));
#920=DIRECTION('ref_axis',(1.,0.,0.));
#921=DIRECTION('',(1.,0.,0.));
#922=DIRECTION('',(0.,-1.,0.));
#923=DIRECTION('',(-1.,0.,0.));
#924=DIRECTION('',(0.,-1.,0.));
#925=DIRECTION('center_axis',(-1.,0.,0.));
#926=DIRECTION('ref_axis',(0.,0.,-1.));
#927=DIRECTION('',(0.,0.,-1.));
#928=DIRECTION('',(0.,-1.,0.));
#929=DIRECTION('',(0.,0.,1.));
#930=DIRECTION('center_axis',(0.,0.,1.));
#931=DIRECTION('ref_axis',(-1.,0.,0.));
#932=DIRECTION('',(-1.,0.,0.));
#933=DIRECTION('',(0.,-1.,0.));
#934=DIRECTION('',(1.,0.,0.));
#935=DIRECTION('center_axis',(1.,0.,0.));
#936=DIRECTION('ref_axis',(0.,0.,1.));
#937=DIRECTION('',(0.,0.,1.));
#938=DIRECTION('',(0.,0.,-1.));
#939=DIRECTION('center_axis',(0.,0.,1.));
#940=DIRECTION('ref_axis',(-1.,0.,0.));
#941=DIRECTION('',(-1.,0.,0.));
#942=DIRECTION('',(0.,-1.,0.));
#943=DIRECTION('',(1.,0.,0.));
#944=DIRECTION('',(0.,-1.,0.));
#945=DIRECTION('center_axis',(1.,0.,0.));
#946=DIRECTION('ref_axis',(0.,0.,1.));
#947=DIRECTION('',(0.,0.,1.));
#948=DIRECTION('',(0.,-1.,0.));
#949=DIRECTION('',(0.,0.,-1.));
#950=DIRECTION('center_axis',(0.,0.,-1.));
#951=DIRECTION('ref_axis',(1.,0.,0.));
#952=DIRECTION('',(1.,0.,0.));
#953=DIRECTION('',(0.,-1.,0.));
#954=DIRECTION('',(-1.,0.,0.));
#955=DIRECTION('center_axis',(-1.,0.,0.));
#956=DIRECTION('ref_axis',(0.,0.,-1.));
#957=DIRECTION('',(0.,0.,-1.));
#958=DIRECTION('',(0.,0.,1.));
#959=DIRECTION('center_axis',(0.,0.,-1.));
#960=DIRECTION('ref_axis',(1.,0.,0.));
#961=DIRECTION('',(1.,0.,0.));
#962=DIRECTION('',(0.,-1.,0.));
#963=DIRECTION('',(-1.,0.,0.));
#964=DIRECTION('',(0.,-1.,0.));
#965=DIRECTION('center_axis',(-1.,0.,0.));
#966=DIRECTION('ref_axis',(0.,0.,-1.));
#967=DIRECTION('',(0.,0.,-1.));
#968=DIRECTION('',(0.,-1.,0.));
#969=DIRECTION('',(0.,0.,1.));
#970=DIRECTION('center_axis',(0.,0.,1.));
#971=DIRECTION('ref_axis',(-1.,0.,0.));
#972=DIRECTION('',(-1.,0.,0.));
#973=DIRECTION('',(0.,-1.,0.));
#974=DIRECTION('',(1.,0.,0.));
#975=DIRECTION('center_axis',(1.,0.,0.));
#976=DIRECTION('ref_axis',(0.,0.,1.));
#977=DIRECTION('',(0.,0.,1.));
#978=DIRECTION('',(0.,0.,-1.));
#979=DIRECTION('center_axis',(0.,0.,-1.));
#980=DIRECTION('ref_axis',(1.,0.,0.));
#981=DIRECTION('',(1.,0.,0.));
#982=DIRECTION('',(0.,-1.,0.));
#983=DIRECTION('',(-1.,0.,0.));
#984=DIRECTION('',(0.,-1.,0.));
#985=DIRECTION('center_axis',(-1.,0.,0.));
#986=DIRECTION('ref_axis',(0.,0.,-1.));
#987=DIRECTION('',(0.,0.,-1.));
#988=DIRECTION('',(0.,-1.,0.));
#989=DIRECTION('',(0.,0.,1.));
#990=DIRECTION('center_axis',(0.,0.,1.));
#991=DIRECTION('ref_axis',(-1.,0.,0.));
#992=DIRECTION('',(-1.,0.,0.));
#993=DIRECTION('',(0.,-1.,0.));
#994=DIRECTION('',(1.,0.,0.));
#995=DIRECTION('center_axis',(1.,0.,0.));
#996=DIRECTION('ref_axis',(0.,0.,1.));
#997=DIRECTION('',(0.,0.,1.));
#998=DIRECTION('',(0.,0.,-1.));
#999=DIRECTION('center_axis',(1.,0.,0.));
#1000=DIRECTION('ref_axis',(0.,0.,1.));
#1001=DIRECTION('',(0.,0.,1.));
#1002=DIRECTION('',(0.,-1.,0.));
#1003=DIRECTION('',(0.,0.,-1.));
#1004=DIRECTION('',(0.,-1.,0.));
#1005=DIRECTION('center_axis',(0.,0.,-1.));
#1006=DIRECTION('ref_axis',(1.,0.,0.));
#1007=DIRECTION('',(1.,0.,0.));
#1008=DIRECTION('',(0.,-1.,0.));
#1009=DIRECTION('',(-1.,0.,0.));
#1010=DIRECTION('center_axis',(-1.,0.,0.));
#1011=DIRECTION('ref_axis',(0.,0.,-1.));
#1012=DIRECTION('',(0.,0.,-1.));
#1013=DIRECTION('',(0.,-1.,0.));
#1014=DIRECTION('',(0.,0.,1.));
#1015=DIRECTION('center_axis',(0.,0.,1.));
#1016=DIRECTION('ref_axis',(-1.,0.,0.));
#1017=DIRECTION('',(-1.,0.,0.));
#1018=DIRECTION('',(1.,0.,0.));
#1019=DIRECTION('center_axis',(0.,0.,-1.));
#1020=DIRECTION('ref_axis',(1.,0.,0.));
#1021=DIRECTION('',(1.,0.,0.));
#1022=DIRECTION('',(0.,-1.,0.));
#1023=DIRECTION('',(-1.,0.,0.));
#1024=DIRECTION('',(0.,-1.,0.));
#1025=DIRECTION('center_axis',(-1.,0.,0.));
#1026=DIRECTION('ref_axis',(0.,0.,-1.));
#1027=DIRECTION('',(0.,0.,-1.));
#1028=DIRECTION('',(0.,-1.,0.));
#1029=DIRECTION('',(0.,0.,1.));
#1030=DIRECTION('center_axis',(0.,0.,1.));
#1031=DIRECTION('ref_axis',(-1.,0.,0.));
#1032=DIRECTION('',(-1.,0.,0.));
#1033=DIRECTION('',(0.,-1.,0.));
#1034=DIRECTION('',(1.,0.,0.));
#1035=DIRECTION('center_axis',(1.,0.,0.));
#1036=DIRECTION('ref_axis',(0.,0.,1.));
#1037=DIRECTION('',(0.,0.,1.));
#1038=DIRECTION('',(0.,0.,-1.));
#1039=DIRECTION('center_axis',(1.,0.,-1.69176841847643E-16));
#1040=DIRECTION('ref_axis',(-1.69176841847643E-16,0.,-1.));
#1041=DIRECTION('',(-1.69176841847643E-16,0.,-1.));
#1042=DIRECTION('',(0.,1.,0.));
#1043=DIRECTION('',(-1.69176841847643E-16,0.,-1.));
#1044=DIRECTION('',(0.,1.,0.));
#1045=DIRECTION('center_axis',(0.,0.,1.));
#1046=DIRECTION('ref_axis',(1.,0.,0.));
#1047=DIRECTION('',(1.,0.,0.));
#1048=DIRECTION('',(1.,0.,0.));
#1049=DIRECTION('',(0.,1.,0.));
#1050=DIRECTION('center_axis',(-1.,0.,1.69176841847643E-16));
#1051=DIRECTION('ref_axis',(1.69176841847643E-16,0.,1.));
#1052=DIRECTION('',(1.69176841847643E-16,0.,1.));
#1053=DIRECTION('',(1.69176841847643E-16,0.,1.));
#1054=DIRECTION('',(0.,1.,0.));
#1055=DIRECTION('center_axis',(0.,0.,-1.));
#1056=DIRECTION('ref_axis',(-1.,0.,0.));
#1057=DIRECTION('',(-1.,0.,0.));
#1058=DIRECTION('',(-1.,0.,0.));
#1059=DIRECTION('center_axis',(0.,1.,0.));
#1060=DIRECTION('ref_axis',(0.,0.,1.));
#1061=DIRECTION('center_axis',(0.,1.,0.));
#1062=DIRECTION('ref_axis',(0.,0.,1.));
#1063=CARTESIAN_POINT('',(0.,0.,0.));
#1064=CARTESIAN_POINT('Origin',(-74.5,0.,-83.2));
#1065=CARTESIAN_POINT('',(-74.5,0.,-83.2));
#1066=CARTESIAN_POINT('',(-76.7,0.,-83.2));
#1067=CARTESIAN_POINT('',(-56.875,0.,-83.2));
#1068=CARTESIAN_POINT('',(-74.5,3.,-83.2));
#1069=CARTESIAN_POINT('',(-74.5,0.,-83.2));
#1070=CARTESIAN_POINT('',(-76.7,3.,-83.2));
#1071=CARTESIAN_POINT('',(-76.7,3.,-83.2));
#1072=CARTESIAN_POINT('',(-76.7,0.,-83.2));
#1073=CARTESIAN_POINT('Origin',(-74.5,0.,-6.8));
#1074=CARTESIAN_POINT('',(-74.5,0.,-6.8));
#1075=CARTESIAN_POINT('',(-74.5,0.,-29.65));
#1076=CARTESIAN_POINT('',(-74.5,3.,-6.8));
#1077=CARTESIAN_POINT('',(-74.5,0.,-6.8));
#1078=CARTESIAN_POINT('',(-74.5,3.,-83.2));
#1079=CARTESIAN_POINT('Origin',(-76.7,0.,-6.8));
#1080=CARTESIAN_POINT('',(-76.7,0.,-6.8));
#1081=CARTESIAN_POINT('',(-57.975,0.,-6.8));
#1082=CARTESIAN_POINT('',(-76.7,3.,-6.8));
#1083=CARTESIAN_POINT('',(-76.7,0.,-6.8));
#1084=CARTESIAN_POINT('',(-74.5,3.,-6.8));
#1085=CARTESIAN_POINT('Origin',(-76.7,0.,-83.2));
#1086=CARTESIAN_POINT('',(-76.7,0.,-67.85));
#1087=CARTESIAN_POINT('',(-76.7,3.,-6.8));
#1088=CARTESIAN_POINT('Origin',(-75.6,3.,-45.));
#1089=CARTESIAN_POINT('Origin',(-4.125,5.,-14.125));
#1090=CARTESIAN_POINT('',(-4.125,5.,-14.125));
#1091=CARTESIAN_POINT('',(-0.875,5.,-14.125));
#1092=CARTESIAN_POINT('',(-21.6875,5.,-14.125));
#1093=CARTESIAN_POINT('',(-4.125,0.,-14.125));
#1094=CARTESIAN_POINT('',(-4.125,5.,-14.125));
#1095=CARTESIAN_POINT('',(-0.875,0.,-14.125));
#1096=CARTESIAN_POINT('',(-21.6875,0.,-14.125));
#1097=CARTESIAN_POINT('',(-0.875,5.,-14.125));
#1098=CARTESIAN_POINT('Origin',(-4.125,5.,-10.875));
#1099=CARTESIAN_POINT('',(-4.125,5.,-10.875));
#1100=CARTESIAN_POINT('',(-4.125,5.,-31.6875));
#1101=CARTESIAN_POINT('',(-4.125,0.,-10.875));
#1102=CARTESIAN_POINT('',(-4.125,5.,-10.875));
#1103=CARTESIAN_POINT('',(-4.125,0.,-31.6875));
#1104=CARTESIAN_POINT('Origin',(-0.875,5.,-10.875));
#1105=CARTESIAN_POINT('',(-0.875,5.,-10.875));
#1106=CARTESIAN_POINT('',(-20.0625,5.,-10.875));
#1107=CARTESIAN_POINT('',(-0.875,0.,-10.875));
#1108=CARTESIAN_POINT('',(-0.875,5.,-10.875));
#1109=CARTESIAN_POINT('',(-20.0625,0.,-10.875));
#1110=CARTESIAN_POINT('Origin',(-0.875,5.,-14.125));
#1111=CARTESIAN_POINT('',(-0.874999999999999,5.,-33.3125));
#1112=CARTESIAN_POINT('',(-0.874999999999999,0.,-33.3125));
#1113=CARTESIAN_POINT('Origin',(-77.625,5.,-89.125));
#1114=CARTESIAN_POINT('',(-77.625,5.,-89.125));
#1115=CARTESIAN_POINT('',(-74.375,5.,-89.125));
#1116=CARTESIAN_POINT('',(-58.4375,5.,-89.125));
#1117=CARTESIAN_POINT('',(-77.625,0.,-89.125));
#1118=CARTESIAN_POINT('',(-77.625,5.,-89.125));
#1119=CARTESIAN_POINT('',(-74.375,0.,-89.125));
#1120=CARTESIAN_POINT('',(-58.4375,0.,-89.125));
#1121=CARTESIAN_POINT('',(-74.375,5.,-89.125));
#1122=CARTESIAN_POINT('Origin',(-77.625,5.,-85.875));
#1123=CARTESIAN_POINT('',(-77.625,5.,-85.875));
#1124=CARTESIAN_POINT('',(-77.625,5.,-69.1875));
#1125=CARTESIAN_POINT('',(-77.625,0.,-85.875));
#1126=CARTESIAN_POINT('',(-77.625,5.,-85.875));
#1127=CARTESIAN_POINT('',(-77.625,0.,-69.1875));
#1128=CARTESIAN_POINT('Origin',(-74.375,5.,-85.875));
#1129=CARTESIAN_POINT('',(-74.375,5.,-85.875));
#1130=CARTESIAN_POINT('',(-56.8125,5.,-85.875));
#1131=CARTESIAN_POINT('',(-74.375,0.,-85.875));
#1132=CARTESIAN_POINT('',(-74.375,5.,-85.875));
#1133=CARTESIAN_POINT('',(-56.8125,0.,-85.875));
#1134=CARTESIAN_POINT('Origin',(-74.375,5.,-89.125));
#1135=CARTESIAN_POINT('',(-74.375,5.,-70.8125));
#1136=CARTESIAN_POINT('',(-74.375,0.,-70.8125));
#1137=CARTESIAN_POINT('Origin',(-0.875000000000009,5.,-55.875));
#1138=CARTESIAN_POINT('',(-0.875000000000009,5.,-55.875));
#1139=CARTESIAN_POINT('',(-4.12500000000001,5.,-55.875));
#1140=CARTESIAN_POINT('',(-20.0625,5.,-55.875));
#1141=CARTESIAN_POINT('',(-0.875000000000009,0.,-55.875));
#1142=CARTESIAN_POINT('',(-0.875000000000009,5.,-55.875));
#1143=CARTESIAN_POINT('',(-4.12500000000001,0.,-55.875));
#1144=CARTESIAN_POINT('',(-20.0625,0.,-55.875));
#1145=CARTESIAN_POINT('',(-4.12500000000001,5.,-55.875));
#1146=CARTESIAN_POINT('Origin',(-0.875000000000009,5.,-59.125));
#1147=CARTESIAN_POINT('',(-0.875000000000009,5.,-59.125));
#1148=CARTESIAN_POINT('',(-0.875000000000008,5.,-55.8125));
#1149=CARTESIAN_POINT('',(-0.875000000000009,0.,-59.125));
#1150=CARTESIAN_POINT('',(-0.875000000000009,5.,-59.125));
#1151=CARTESIAN_POINT('',(-0.875000000000008,0.,-55.8125));
#1152=CARTESIAN_POINT('Origin',(-4.12500000000001,5.,-59.125));
#1153=CARTESIAN_POINT('',(-4.12500000000001,5.,-59.125));
#1154=CARTESIAN_POINT('',(-21.6875,5.,-59.125));
#1155=CARTESIAN_POINT('',(-4.12500000000001,0.,-59.125));
#1156=CARTESIAN_POINT('',(-4.12500000000001,5.,-59.125));
#1157=CARTESIAN_POINT('',(-21.6875,0.,-59.125));
#1158=CARTESIAN_POINT('Origin',(-4.12500000000001,5.,-55.875));
#1159=CARTESIAN_POINT('',(-4.12500000000001,5.,-54.1875));
#1160=CARTESIAN_POINT('',(-4.12500000000001,0.,-54.1875));
#1161=CARTESIAN_POINT('Origin',(-4.125,5.,-8.87499999999999));
#1162=CARTESIAN_POINT('',(-4.125,5.,-8.87499999999999));
#1163=CARTESIAN_POINT('',(-0.875,5.,-8.87499999999999));
#1164=CARTESIAN_POINT('',(-21.6875,5.,-8.87499999999998));
#1165=CARTESIAN_POINT('',(-4.125,0.,-8.87499999999999));
#1166=CARTESIAN_POINT('',(-4.125,5.,-8.87499999999999));
#1167=CARTESIAN_POINT('',(-0.875,0.,-8.87499999999999));
#1168=CARTESIAN_POINT('',(-21.6875,0.,-8.87499999999998));
#1169=CARTESIAN_POINT('',(-0.875,5.,-8.87499999999999));
#1170=CARTESIAN_POINT('Origin',(-4.125,5.,-5.62499999999999));
#1171=CARTESIAN_POINT('',(-4.125,5.,-5.62499999999999));
#1172=CARTESIAN_POINT('',(-4.125,5.,-29.0625));
#1173=CARTESIAN_POINT('',(-4.125,0.,-5.62499999999999));
#1174=CARTESIAN_POINT('',(-4.125,5.,-5.62499999999999));
#1175=CARTESIAN_POINT('',(-4.125,0.,-29.0625));
#1176=CARTESIAN_POINT('Origin',(-0.875,5.,-5.62499999999999));
#1177=CARTESIAN_POINT('',(-0.875,5.,-5.62499999999999));
#1178=CARTESIAN_POINT('',(-20.0625,5.,-5.62499999999999));
#1179=CARTESIAN_POINT('',(-0.875,0.,-5.62499999999999));
#1180=CARTESIAN_POINT('',(-0.875,5.,-5.62499999999999));
#1181=CARTESIAN_POINT('',(-20.0625,0.,-5.62499999999999));
#1182=CARTESIAN_POINT('Origin',(-0.875,5.,-8.87499999999999));
#1183=CARTESIAN_POINT('',(-0.874999999999999,5.,-30.6875));
#1184=CARTESIAN_POINT('',(-0.874999999999999,0.,-30.6875));
#1185=CARTESIAN_POINT('Origin',(-77.625,5.,-104.125));
#1186=CARTESIAN_POINT('',(-77.625,5.,-104.125));
#1187=CARTESIAN_POINT('',(-74.375,5.,-104.125));
#1188=CARTESIAN_POINT('',(-58.4375,5.,-104.125));
#1189=CARTESIAN_POINT('',(-77.625,0.,-104.125));
#1190=CARTESIAN_POINT('',(-77.625,5.,-104.125));
#1191=CARTESIAN_POINT('',(-74.375,0.,-104.125));
#1192=CARTESIAN_POINT('',(-58.4375,0.,-104.125));
#1193=CARTESIAN_POINT('',(-74.375,5.,-104.125));
#1194=CARTESIAN_POINT('Origin',(-77.625,5.,-100.875));
#1195=CARTESIAN_POINT('',(-77.625,5.,-100.875));
#1196=CARTESIAN_POINT('',(-77.625,5.,-76.6875));
#1197=CARTESIAN_POINT('',(-77.625,0.,-100.875));
#1198=CARTESIAN_POINT('',(-77.625,5.,-100.875));
#1199=CARTESIAN_POINT('',(-77.625,0.,-76.6875));
#1200=CARTESIAN_POINT('Origin',(-74.375,5.,-100.875));
#1201=CARTESIAN_POINT('',(-74.375,5.,-100.875));
#1202=CARTESIAN_POINT('',(-56.8125,5.,-100.875));
#1203=CARTESIAN_POINT('',(-74.375,0.,-100.875));
#1204=CARTESIAN_POINT('',(-74.375,5.,-100.875));
#1205=CARTESIAN_POINT('',(-56.8125,0.,-100.875));
#1206=CARTESIAN_POINT('Origin',(-74.375,5.,-104.125));
#1207=CARTESIAN_POINT('',(-74.375,5.,-78.3125));
#1208=CARTESIAN_POINT('',(-74.375,0.,-78.3125));
#1209=CARTESIAN_POINT('Origin',(-0.875000000000009,5.,-104.125));
#1210=CARTESIAN_POINT('',(-0.875000000000009,5.,-104.125));
#1211=CARTESIAN_POINT('',(-0.875000000000009,5.,-100.875));
#1212=CARTESIAN_POINT('',(-0.875000000000008,5.,-78.3125));
#1213=CARTESIAN_POINT('',(-0.875000000000009,0.,-104.125));
#1214=CARTESIAN_POINT('',(-0.875000000000009,5.,-104.125));
#1215=CARTESIAN_POINT('',(-0.875000000000009,0.,-100.875));
#1216=CARTESIAN_POINT('',(-0.875000000000008,0.,-78.3125));
#1217=CARTESIAN_POINT('',(-0.875000000000009,5.,-100.875));
#1218=CARTESIAN_POINT('Origin',(-4.12500000000001,5.,-104.125));
#1219=CARTESIAN_POINT('',(-4.12500000000001,5.,-104.125));
#1220=CARTESIAN_POINT('',(-21.6875,5.,-104.125));
#1221=CARTESIAN_POINT('',(-4.12500000000001,0.,-104.125));
#1222=CARTESIAN_POINT('',(-4.12500000000001,5.,-104.125));
#1223=CARTESIAN_POINT('',(-21.6875,0.,-104.125));
#1224=CARTESIAN_POINT('Origin',(-4.12500000000001,5.,-100.875));
#1225=CARTESIAN_POINT('',(-4.12500000000001,5.,-100.875));
#1226=CARTESIAN_POINT('',(-4.12500000000001,5.,-76.6875));
#1227=CARTESIAN_POINT('',(-4.12500000000001,0.,-100.875));
#1228=CARTESIAN_POINT('',(-4.12500000000001,5.,-100.875));
#1229=CARTESIAN_POINT('',(-4.12500000000001,0.,-76.6875));
#1230=CARTESIAN_POINT('Origin',(-0.875000000000009,5.,-100.875));
#1231=CARTESIAN_POINT('',(-20.0625,5.,-100.875));
#1232=CARTESIAN_POINT('',(-20.0625,0.,-100.875));
#1233=CARTESIAN_POINT('Origin',(-77.625,5.,-4.125));
#1234=CARTESIAN_POINT('',(-77.625,5.,-4.125));
#1235=CARTESIAN_POINT('',(-74.375,5.,-4.125));
#1236=CARTESIAN_POINT('',(-58.4375,5.,-4.125));
#1237=CARTESIAN_POINT('',(-77.625,0.,-4.125));
#1238=CARTESIAN_POINT('',(-77.625,5.,-4.125));
#1239=CARTESIAN_POINT('',(-74.375,0.,-4.125));
#1240=CARTESIAN_POINT('',(-58.4375,0.,-4.125));
#1241=CARTESIAN_POINT('',(-74.375,5.,-4.125));
#1242=CARTESIAN_POINT('Origin',(-77.625,5.,-0.875));
#1243=CARTESIAN_POINT('',(-77.625,5.,-0.875));
#1244=CARTESIAN_POINT('',(-77.625,5.,-26.6875));
#1245=CARTESIAN_POINT('',(-77.625,0.,-0.875));
#1246=CARTESIAN_POINT('',(-77.625,5.,-0.875));
#1247=CARTESIAN_POINT('',(-77.625,0.,-26.6875));
#1248=CARTESIAN_POINT('Origin',(-74.375,5.,-0.875));
#1249=CARTESIAN_POINT('',(-74.375,5.,-0.875));
#1250=CARTESIAN_POINT('',(-56.8125,5.,-0.875000000000004));
#1251=CARTESIAN_POINT('',(-74.375,0.,-0.875));
#1252=CARTESIAN_POINT('',(-74.375,5.,-0.875));
#1253=CARTESIAN_POINT('',(-56.8125,0.,-0.875000000000004));
#1254=CARTESIAN_POINT('Origin',(-74.375,5.,-4.125));
#1255=CARTESIAN_POINT('',(-74.375,5.,-28.3125));
#1256=CARTESIAN_POINT('',(-74.375,0.,-28.3125));
#1257=CARTESIAN_POINT('Origin',(0.,0.,0.));
#1258=CARTESIAN_POINT('',(0.,0.,0.));
#1259=CARTESIAN_POINT('',(-1.77635683940025E-14,0.,-105.));
#1260=CARTESIAN_POINT('',(0.,0.,0.));
#1261=CARTESIAN_POINT('',(-1.77635683940025E-14,5.,-105.));
#1262=CARTESIAN_POINT('',(-1.77635683940025E-14,0.,-105.));
#1263=CARTESIAN_POINT('',(0.,5.,0.));
#1264=CARTESIAN_POINT('',(0.,5.,0.));
#1265=CARTESIAN_POINT('',(0.,0.,0.));
#1266=CARTESIAN_POINT('Origin',(-78.5,0.,0.));
#1267=CARTESIAN_POINT('',(-78.5,0.,0.));
#1268=CARTESIAN_POINT('',(-78.5,0.,0.));
#1269=CARTESIAN_POINT('',(-78.5,5.,0.));
#1270=CARTESIAN_POINT('',(-78.5,5.,0.));
#1271=CARTESIAN_POINT('',(-78.5,0.,0.));
#1272=CARTESIAN_POINT('Origin',(-78.5,0.,-105.));
#1273=CARTESIAN_POINT('',(-78.5,0.,-105.));
#1274=CARTESIAN_POINT('',(-78.5,0.,-105.));
#1275=CARTESIAN_POINT('',(-78.5,5.,-105.));
#1276=CARTESIAN_POINT('',(-78.5,5.,-105.));
#1277=CARTESIAN_POINT('',(-78.5,0.,-105.));
#1278=CARTESIAN_POINT('Origin',(-1.77635683940025E-14,0.,-105.));
#1279=CARTESIAN_POINT('',(-1.77635683940025E-14,0.,-105.));
#1280=CARTESIAN_POINT('',(-1.77635683940025E-14,5.,-105.));
#1281=CARTESIAN_POINT('Origin',(-39.25,5.,-52.5));
#1282=CARTESIAN_POINT('Origin',(-39.25,0.,-52.5));
#1283=UNCERTAINTY_MEASURE_WITH_UNIT(LENGTH_MEASURE(0.01),#1287,
'DISTANCE_ACCURACY_VALUE',
'Maximum model space distance between geometric entities at asserted c
onnectivities');
#1284=UNCERTAINTY_MEASURE_WITH_UNIT(LENGTH_MEASURE(0.01),#1287,
'DISTANCE_ACCURACY_VALUE',
'Maximum model space distance between geometric entities at asserted c
onnectivities');
#1285=(
GEOMETRIC_REPRESENTATION_CONTEXT(3)
GLOBAL_UNCERTAINTY_ASSIGNED_CONTEXT((#1283))
GLOBAL_UNIT_ASSIGNED_CONTEXT((#1287,#1289,#1290))
REPRESENTATION_CONTEXT('','3D')
);
#1286=(
GEOMETRIC_REPRESENTATION_CONTEXT(3)
GLOBAL_UNCERTAINTY_ASSIGNED_CONTEXT((#1284))
GLOBAL_UNIT_ASSIGNED_CONTEXT((#1287,#1289,#1290))
REPRESENTATION_CONTEXT('','3D')
);
#1287=(
LENGTH_UNIT()
NAMED_UNIT(*)
SI_UNIT(.MILLI.,.METRE.)
);
#1288=(
LENGTH_UNIT()
NAMED_UNIT(*)
SI_UNIT(.CENTI.,.METRE.)
);
#1289=(
NAMED_UNIT(*)
PLANE_ANGLE_UNIT()
SI_UNIT($,.RADIAN.)
);
#1290=(
NAMED_UNIT(*)
SI_UNIT($,.STERADIAN.)
SOLID_ANGLE_UNIT()
);
#1291=SHAPE_DEFINITION_REPRESENTATION(#1292,#1293);
#1292=PRODUCT_DEFINITION_SHAPE('',$,#1295);
#1293=SHAPE_REPRESENTATION('',(#835),#1285);
#1294=PRODUCT_DEFINITION_CONTEXT('part definition',#1299,'design');
#1295=PRODUCT_DEFINITION('frame_lid','frame_lid',#1296,#1294);
#1296=PRODUCT_DEFINITION_FORMATION('',$,#1301);
#1297=PRODUCT_RELATED_PRODUCT_CATEGORY('frame_lid','frame_lid',(#1301));
#1298=APPLICATION_PROTOCOL_DEFINITION('international standard',
'automotive_design',2009,#1299);
#1299=APPLICATION_CONTEXT(
'Core Data for Automotive Mechanical Design Process');
#1300=PRODUCT_CONTEXT('part definition',#1299,'mechanical');
#1301=PRODUCT('frame_lid','frame_lid',$,(#1300));
#1302=PRESENTATION_STYLE_ASSIGNMENT((#1303));
#1303=SURFACE_STYLE_USAGE(.BOTH.,#1306);
#1304=SURFACE_STYLE_RENDERING_WITH_PROPERTIES($,#1310,(#1305));
#1305=SURFACE_STYLE_TRANSPARENT(0.);
#1306=SURFACE_SIDE_STYLE('',(#1307,#1304));
#1307=SURFACE_STYLE_FILL_AREA(#1308);
#1308=FILL_AREA_STYLE('',(#1309));
#1309=FILL_AREA_STYLE_COLOUR('',#1310);
#1310=COLOUR_RGB('',0.749019607843137,0.749019607843137,0.749019607843137);
ENDSEC;
END-ISO-10303-21;
