G04 Layer: BottomPasteMaskLayer*
G04 EasyEDA Pro v3.2.148, 2026-09-01 12:52:47*
G04 Gerber Generator version 0.3*
G04 Scale: 100 percent, Rotated: No, Reflected: No*
G04 Dimensions in millimeters*
G04 Leading zeros omitted, absolute positions, 4 integers and 5 decimals*
G04 Generated by one-click*
G04 Object Configs: Pad,Via,Track,Text,Image,Dimension,BoardOutline,BoardCutout,CopperFilled,SolidRegion,FPCStiffener,Line,PlaneZone,ComponentProperty,ComponentSilkscreen,TearDrop*
G04 Layer Configs: 1,15,16,2,3,4,5,6,7,8,9,10,11,13,14,56*
G04 Copper Areas: 0*
%FSLAX45Y45*%
%MOMM*%
%ADD10R,0.8X0.9*%
%ADD11R,0.9X0.8*%
%ADD12R,0.54X0.5*%
%ADD13R,0.5X0.54*%
%ADD14C,0.1416*%
G75*


G04 PolygonModel Start*
G36*
G01X2910399Y5809302D02*
G01X2910399Y5729302D01*
G01X2905397Y5724301D01*
G01X2882601Y5724301D01*
G01X2882601Y5761301D01*
G01X2849601Y5761301D01*
G01X2849601Y5724301D01*
G01X2825397Y5724301D01*
G01X2820399Y5729302D01*
G01X2820399Y5809302D01*
G01X2825397Y5814301D01*
G01X2905397Y5814301D01*
G01X2910399Y5809302D01*
G37*
G36*
G01X2820401Y5570298D02*
G01X2820401Y5650298D01*
G01X2825403Y5655299D01*
G01X2848199Y5655299D01*
G01X2848199Y5618299D01*
G01X2881199Y5618299D01*
G01X2881199Y5655299D01*
G01X2905402Y5655299D01*
G01X2910401Y5650298D01*
G01X2910401Y5570298D01*
G01X2905402Y5565299D01*
G01X2825403Y5565299D01*
G01X2820401Y5570298D01*
G37*
G36*
G01X4809998Y1943600D02*
G01X4814999Y1948602D01*
G01X4930000Y1948602D01*
G01X4934999Y1943600D01*
G01X4934501Y1901604D01*
G01X4890501Y1901604D01*
G01X4890501Y1856605D01*
G01X4935502Y1856605D01*
G01X4934999Y1815602D01*
G01X4930000Y1810601D01*
G01X4814999Y1810601D01*
G01X4809998Y1815602D01*
G01X4809998Y1943600D01*
G37*
G36*
G01X5024999Y1943600D02*
G01X5030000Y1948602D01*
G01X5144998Y1948602D01*
G01X5150000Y1943600D01*
G01X5150000Y1815602D01*
G01X5144998Y1810601D01*
G01X5030000Y1810601D01*
G01X5024999Y1815602D01*
G01X5025502Y1856605D01*
G01X5069499Y1856605D01*
G01X5069499Y1901604D01*
G01X5025001Y1901604D01*
G01X5024999Y1943600D01*
G37*
G36*
G01X4809998Y1689600D02*
G01X4814999Y1694602D01*
G01X4930000Y1694602D01*
G01X4934999Y1689600D01*
G01X4934501Y1647604D01*
G01X4890501Y1647604D01*
G01X4890501Y1602605D01*
G01X4935502Y1602605D01*
G01X4934999Y1561602D01*
G01X4930000Y1556601D01*
G01X4814999Y1556601D01*
G01X4809998Y1561602D01*
G01X4809998Y1689600D01*
G37*
G36*
G01X5024999Y1689600D02*
G01X5030000Y1694602D01*
G01X5144998Y1694602D01*
G01X5150000Y1689600D01*
G01X5150000Y1561602D01*
G01X5144998Y1556601D01*
G01X5030000Y1556601D01*
G01X5024999Y1561602D01*
G01X5025502Y1602605D01*
G01X5069499Y1602605D01*
G01X5069499Y1647604D01*
G01X5025001Y1647604D01*
G01X5024999Y1689600D01*
G37*
G36*
G01X4809998Y2453000D02*
G01X4814999Y2458002D01*
G01X4930000Y2458002D01*
G01X4934999Y2453000D01*
G01X4934501Y2411004D01*
G01X4890501Y2411004D01*
G01X4890501Y2366005D01*
G01X4935502Y2366005D01*
G01X4934999Y2325002D01*
G01X4930000Y2320001D01*
G01X4814999Y2320001D01*
G01X4809998Y2325002D01*
G01X4809998Y2453000D01*
G37*
G36*
G01X5024999Y2453000D02*
G01X5030000Y2458002D01*
G01X5144998Y2458002D01*
G01X5150000Y2453000D01*
G01X5150000Y2325002D01*
G01X5144998Y2320001D01*
G01X5030000Y2320001D01*
G01X5024999Y2325002D01*
G01X5025502Y2366005D01*
G01X5069499Y2366005D01*
G01X5069499Y2411004D01*
G01X5025001Y2411004D01*
G01X5024999Y2453000D01*
G37*
G36*
G01X4809998Y2203000D02*
G01X4814999Y2208002D01*
G01X4930000Y2208002D01*
G01X4934999Y2203000D01*
G01X4934501Y2161004D01*
G01X4890501Y2161004D01*
G01X4890501Y2116005D01*
G01X4935502Y2116005D01*
G01X4934999Y2075002D01*
G01X4930000Y2070001D01*
G01X4814999Y2070001D01*
G01X4809998Y2075002D01*
G01X4809998Y2203000D01*
G37*
G36*
G01X5024999Y2203000D02*
G01X5030000Y2208002D01*
G01X5144998Y2208002D01*
G01X5150000Y2203000D01*
G01X5150000Y2075002D01*
G01X5144998Y2070001D01*
G01X5030000Y2070001D01*
G01X5024999Y2075002D01*
G01X5025502Y2116005D01*
G01X5069499Y2116005D01*
G01X5069499Y2161004D01*
G01X5025001Y2161004D01*
G01X5024999Y2203000D01*
G37*
G36*
G01X4809998Y1435600D02*
G01X4814999Y1440602D01*
G01X4930000Y1440602D01*
G01X4934999Y1435600D01*
G01X4934501Y1393604D01*
G01X4890501Y1393604D01*
G01X4890501Y1348605D01*
G01X4935502Y1348605D01*
G01X4934999Y1307602D01*
G01X4930000Y1302601D01*
G01X4814999Y1302601D01*
G01X4809998Y1307602D01*
G01X4809998Y1435600D01*
G37*
G36*
G01X5024999Y1435600D02*
G01X5030000Y1440602D01*
G01X5144998Y1440602D01*
G01X5150000Y1435600D01*
G01X5150000Y1307602D01*
G01X5144998Y1302601D01*
G01X5030000Y1302601D01*
G01X5024999Y1307602D01*
G01X5025502Y1348605D01*
G01X5069499Y1348605D01*
G01X5069499Y1393604D01*
G01X5025001Y1393604D01*
G01X5024999Y1435600D01*
G37*
G36*
G01X5048799Y5390002D02*
G01X5048799Y5310002D01*
G01X5043797Y5305001D01*
G01X5021001Y5305001D01*
G01X5021001Y5342001D01*
G01X4988001Y5342001D01*
G01X4988001Y5305001D01*
G01X4963798Y5305001D01*
G01X4958799Y5310002D01*
G01X4958799Y5390002D01*
G01X4963798Y5395001D01*
G01X5043797Y5395001D01*
G01X5048799Y5390002D01*
G37*
G36*
G01X4958801Y5150998D02*
G01X4958801Y5230998D01*
G01X4963803Y5235999D01*
G01X4986599Y5235999D01*
G01X4986599Y5198999D01*
G01X5019599Y5198999D01*
G01X5019599Y5235999D01*
G01X5043802Y5235999D01*
G01X5048801Y5230998D01*
G01X5048801Y5150998D01*
G01X5043802Y5145999D01*
G01X4963803Y5145999D01*
G01X4958801Y5150998D01*
G37*
G36*
G01X5136601Y5379598D02*
G01X5136601Y5459598D01*
G01X5141603Y5464599D01*
G01X5164399Y5464599D01*
G01X5164399Y5427599D01*
G01X5197399Y5427599D01*
G01X5197399Y5464599D01*
G01X5221602Y5464599D01*
G01X5226601Y5459598D01*
G01X5226601Y5379598D01*
G01X5221602Y5374599D01*
G01X5141603Y5374599D01*
G01X5136601Y5379598D01*
G37*
G36*
G01X5226599Y5618602D02*
G01X5226599Y5538602D01*
G01X5221597Y5533601D01*
G01X5198801Y5533601D01*
G01X5198801Y5570601D01*
G01X5165801Y5570601D01*
G01X5165801Y5533601D01*
G01X5141598Y5533601D01*
G01X5136599Y5538602D01*
G01X5136599Y5618602D01*
G01X5141598Y5623601D01*
G01X5221597Y5623601D01*
G01X5226599Y5618602D01*
G37*
G36*
G01X7069998Y1941500D02*
G01X7074999Y1946502D01*
G01X7190000Y1946502D01*
G01X7194999Y1941500D01*
G01X7194501Y1899504D01*
G01X7150501Y1899504D01*
G01X7150501Y1854505D01*
G01X7195502Y1854505D01*
G01X7194999Y1813502D01*
G01X7190000Y1808501D01*
G01X7074999Y1808501D01*
G01X7069998Y1813502D01*
G01X7069998Y1941500D01*
G37*
G36*
G01X7284999Y1941500D02*
G01X7290000Y1946502D01*
G01X7404998Y1946502D01*
G01X7410000Y1941500D01*
G01X7410000Y1813502D01*
G01X7404998Y1808501D01*
G01X7290000Y1808501D01*
G01X7284999Y1813502D01*
G01X7285502Y1854505D01*
G01X7329499Y1854505D01*
G01X7329499Y1899504D01*
G01X7285001Y1899504D01*
G01X7284999Y1941500D01*
G37*

G04 Pad Start*
G54D10*
G01X2724302Y3492500D03*
G01X2584298Y3492500D03*
G01X2990698Y3492500D03*
G01X3130702Y3492500D03*
G54D11*
G01X3479800Y2838298D03*
G01X3479800Y2978302D03*
G54D12*
G01X2880200Y1816012D03*
G01X2880200Y1731988D03*
G01X3182500Y1201988D03*
G01X3182500Y1286012D03*
G01X2654300Y2320188D03*
G01X2654300Y2404212D03*
G01X2730000Y1816012D03*
G01X2730000Y1731988D03*
G01X2582100Y1816812D03*
G01X2582100Y1732789D03*
G01X2921000Y2320188D03*
G01X2921000Y2404212D03*
G01X2527300Y2320188D03*
G01X2527300Y2404212D03*
G01X2743200Y1202588D03*
G01X2743200Y1286612D03*
G01X2476500Y1202588D03*
G01X2476500Y1286612D03*
G01X2616200Y1202588D03*
G01X2616200Y1286612D03*
G01X2895600Y2924912D03*
G01X2895600Y2840888D03*
G01X3035300Y2924912D03*
G01X3035300Y2840888D03*
G01X3530600Y2607412D03*
G01X3530600Y2523388D03*
G01X3162300Y2924912D03*
G01X3162300Y2840888D03*
G54D13*
G01X3052988Y1796500D03*
G01X3137012Y1796500D03*
G54D12*
G01X3048000Y2320188D03*
G01X3048000Y2404212D03*
G01X2781300Y2320188D03*
G01X2781300Y2404212D03*
G04 Pad End*

M02*

