;TYPE=PLATED
;Layer: PTH_Through
;EasyEDA Pro v3.2.148, 2026-09-01 12:52:47
;Gerber Generator version 0.3
M48
METRIC,LZ,0000.00000
;Hole size 1 = 0.20000 METRIC
T01C0.20000
;Hole size 2 = 0.30000 METRIC
T02C0.30000
;Hole size 3 = 1.00000 METRIC
T03C1.00000
;Hole size 4 = 1.04999 METRIC
T04C1.04999
;Hole size 5 = 1.10002 METRIC
T05C1.10002
;Hole size 6 = 1.20000 METRIC
T06C1.20000
%
G05
G90
T01
X8.25503Y19.05
X22.91498Y10.922
X14.478Y7.21498
X14.478Y10.541
X14.478Y13.843
X14.478Y17.399
X14.478Y22.33102
X14.478Y26.035
X14.605Y29.083
X24.84394Y13.843
X14.605Y32.639
X8.25503Y9.525
X26.32488Y13.815
X27.178Y13.843
X48.895Y44.20464
X26.31694Y27.686
X27.81706Y24.892
X27.178Y24.892
X26.416Y24.892
X28.575Y24.892
X30.226Y24.892
X30.81706Y25.019
X31.81706Y25.019
X31.31693Y27.559
X30.31693Y27.559
X29.337Y27.559
X32.258Y17.95094
X45.974Y38.61981
X20.795Y12.04
X26.02498Y8.89
X29.21Y8.89
X7.874Y27.051
X25.81707Y16.51
X27.31694Y16.51
X28.31694Y16.51
X48.768Y37.719
X31.31693Y16.94
X35.941Y18.95094
X35.306Y17.45107
X35.306Y18.45107
X35.306Y19.45107
X35.306Y20.447
X35.306Y21.95093
X35.941Y19.95094
X35.941Y23.95093
X35.306Y24.45106
X32.258Y20.95094
X50.292Y37.719
X31.496Y23.20188
X34.798Y31.496
X46.44288Y37.846
X30.48Y16.949
X47.244Y36.068
X49.42988Y36.068
X36.068Y42.037
X36.068Y38.481
X42.799Y42.73702
X42.799Y37.71498
X47.752Y48.26
X45.72Y45.72
X34.036Y26.07412
X31.37012Y19.177
X36.195Y25.23388
X29.718Y17.31988
X21.59Y12.86612
X36.068Y39.11499
X36.068Y41.34001
X47.117Y42.291
X49.022Y53.467
X50.673Y55.753
X28.829Y31.877
X31.242Y4.953
X33.45Y8.636
X33.45Y13.765
X31.81706Y13.843
X69.088Y18.796
X28.654Y58.801
X23.749Y56.134
X22.7838Y58.928
X20.9042Y59.055
X21.844Y55.80804
X16.19098Y53.594
X21.844Y57.785
X21.748Y59.61181
T02
X48.387Y6.477
X51.308Y8.255
X10.476Y59.2482
X40.767Y60.579
X33.401Y52.832
X36.068Y55.32552
X46.482Y11.17404
X42.68413Y51.31335
X42.672Y57.277
X40.67797Y49.403
X24.384Y34.925
X33.02Y34.925
X27.24302Y33.401
X27.25Y36.767
X30.03398Y36.703
X29.90698Y33.401
X37.211Y28.38298
X12.7Y62.25931
X15.92266Y65.9263
X22.368Y49.022
X26.54883Y58.42
T03
X4.0Y30.93499
X4.0Y28.435
X4.0Y25.935
X4.0Y23.43498
X4.0Y20.93498
X4.0Y18.43499
X4.0Y15.93499
X4.0Y13.435
X4.0Y10.93498
X4.0Y8.43498
T04
X77.089Y61.976
X77.089Y59.436
X77.089Y56.896
X77.089Y54.356
X77.089Y51.816
X77.089Y49.276
X77.089Y46.736
X77.089Y44.196
X77.089Y41.656
X77.089Y39.116
X77.089Y36.576
X77.089Y34.036
X77.089Y31.496
X77.089Y28.956
X77.089Y26.416
X77.089Y23.876
X77.089Y21.336
X77.089Y18.796
X77.089Y16.256
X77.089Y13.716
X77.089Y11.176
X77.089Y8.636
X54.229Y61.976
X54.229Y59.436
X54.229Y56.896
X54.229Y54.356
X54.229Y51.816
X54.229Y49.276
X54.229Y46.736
X54.229Y44.196
X54.229Y41.656
X54.229Y39.116
X54.229Y36.576
X54.229Y34.036
X54.229Y31.496
X54.229Y28.956
X54.229Y26.416
X54.229Y23.876
X54.229Y21.336
X54.229Y18.796
X54.229Y16.256
X54.229Y13.716
X54.229Y11.176
X54.229Y8.636
T05
X21.15Y3.015
X23.69Y3.015
X26.23Y3.015
X28.77Y3.015
X31.31Y3.015
X33.85Y3.015
X42.0Y26.635
X42.0Y24.095
X42.0Y21.555
X42.0Y19.015
X42.0Y16.475
X42.0Y13.935
X42.0Y11.395
X4.0Y46.736
X4.0Y44.196
X4.0Y41.656
X4.0Y39.116
X4.0Y36.576
X22.53Y38.608
X25.07Y38.608
T06
X4.064Y64.285
X4.064Y61.745
X4.0Y55.285
X4.0Y52.745
M30