G04 Layer: DrillDrawingLayer*
G04 EasyEDA Pro v3.2.148, 2026-09-01 12:52:47*
G04 Gerber Generator version 0.3*
G04 Scale: 100 percent, Rotated: No, Reflected: No*
G04 Dimensions in millimeters*
G04 Leading zeros omitted, absolute positions, 4 integers and 5 decimals*
G04 Generated by one-click*
G04 Object Configs: Pad,Via,Track,Text,Image,Dimension,BoardOutline,BoardCutout,CopperFilled,SolidRegion,FPCStiffener,Line,PlaneZone,ComponentProperty,ComponentSilkscreen,TearDrop*
G04 Layer Configs: 1,15,16,2,3,4,5,6,7,8,9,10,11,13,14,56*
G04 Copper Areas: 0*
%FSLAX45Y45*%
%MOMM*%
%AMIconRect*4,1,4,0.28,-0.28,-0.28,-0.28,-0.28,0.28,0.28,0.28,0.28,-0.28,0*4,0,4,0.233333,-0.233333,0.233333,0.233333,-0.233333,0.233333,-0.233333,-0.233333,0.233333,-0.233333,0*%
%AMIconTriangle*4,1,3,-0.339593,0.240473,0.339593,0.240473,0,-0.37884,-0.339593,0.240473,0*4,0,3,-0.265673,0.19404,0,-0.27342,0.266233,0.19404,-0.265673,0.19404,0*%
%AMIconStar6*4,1,12,0.12068,0.20888,0.298527,0.172713,0.241313,0,0.298527,-0.17206,0.12068,-0.208227,0,-0.344073,-0.120073,-0.208227,-0.298573,-0.17206,-0.240707,0,-0.298573,0.17206,-0.120073,0.20888,0,0.344073,0.12068,0.20888,0*4,0,12,-0.000467,0.273467,-0.090067,0.171733,-0.237533,0.136733,-0.193667,-0.007467,-0.237533,-0.1372,-0.090067,-0.171733,-0.000467,-0.273933,0.090067,-0.171733,0.237533,-0.1372,0.194133,0.007,0.237533,0.1372,0.090067,0.171267,-0.000467,0.273467,0*%
%AMIconStar4*4,1,8,-0.311733,0.311733,0,0.202533,0.311733,0.311733,0.202533,0,0.311733,-0.311733,0,-0.202533,-0.304407,-0.311733,-0.202533,0,-0.311733,0.311733,0*4,0,8,0.233333,-0.233333,0.1512,0,0.233333,0.233333,0,0.1512,-0.233333,0.233333,-0.1512,0,-0.233333,-0.233333,0,-0.1512,0.233333,-0.233333,0*%
%AMIconPlus*4,1,12,0.1736,-0.28,-0.1736,-0.28,-0.1736,-0.1736,-0.28,-0.1736,-0.28,0.1736,-0.1736,0.1736,-0.1736,0.28,0.1736,0.28,0.1736,0.1736,0.28,0.1736,0.28,-0.1736,0.1736,-0.1736,0.1736,-0.28,0*4,0,12,0.126933,-0.233333,0.126933,-0.126933,0.233333,-0.126933,0.233333,0.126933,0.126933,0.126933,0.126933,0.233333,-0.126933,0.233333,-0.126933,0.126933,-0.233333,0.126933,-0.233333,-0.126933,-0.126933,-0.126933,-0.126933,-0.233333,0.126933,-0.233333,0*%
%AMIconX*4,1,16,0.28,-0.28,0.076347,-0.28,0,-0.203653,-0.076347,-0.28,-0.28,-0.28,-0.28,-0.076347,-0.203653,0,-0.28,0.076347,-0.28,0.28,-0.076347,0.28,0,0.203653,0.076347,0.28,0.28,0.28,0.28,0.076347,0.203653,0,0.28,-0.076347,0.28,-0.28,0*4,0,16,0.23352,-0.23296,0.23352,-0.095853,0.137107,0.000093,0.23352,0.095853,0.23352,0.2331,0.095853,0.2331,0,0.137107,-0.095853,0.2331,-0.23352,0.2331,-0.23352,0.095853,-0.137107,0.000093,-0.23352,-0.095853,-0.23352,-0.23296,-0.095853,-0.23296,0,-0.137107,0.095853,-0.23296,0.23352,-0.23296,0*%
%AMIconDiamond*4,1,4,0,-0.364,-0.364,0,0,0.364,0.364,0,0,-0.364,0*4,0,4,0,-0.284807,0.284807,0,0,0.28504,-0.284807,0,0,-0.284807,0*%
%AMIconRect2*4,1,6,0.28,-0.28,-0.28,-0.28,-0.28,0.28,-0.23352,0.2331,-0.233333,-0.233333,0.23352,-0.233333,0.28,-0.28,0*4,1,6,0.28,-0.28,0.23352,-0.233333,0.23352,0.2331,-0.23352,0.2331,-0.28,0.28,0.28,0.28,0.28,-0.28,0*4,1,6,0.186853,-0.186667,-0.186667,-0.186667,-0.186667,0.186853,-0.14,0.140187,-0.14,-0.14,0.140187,-0.14,0.186853,-0.186667,0*4,1,6,0.186853,-0.186667,0.140187,-0.14,0.140187,0.140187,-0.14,0.140187,-0.186667,0.186853,0.186853,0.186853,0.186853,-0.186667,0*%
%ADD10IconRect*%
%ADD11C,0.616X0.522667*%
%ADD12IconTriangle*%
%ADD13IconStar6*%
%ADD14IconStar4*%
%ADD15IconPlus*%
%ADD16IconX*%
%ADD17IconDiamond*%
%ADD18IconRect2*%
%ADD19C,0.2032*%
%ADD20C,0.254*%
G75*


G04 Drill Drawing Start*
G54D10*
G01X200000Y4833595D03*
G01X200000Y3253511D03*
G54D11*
G01X200000Y5688495D03*
G01X206400Y6588495D03*
G54D12*
G01X800000Y300000D03*
G01X6600000Y1000000D03*
G01X6600000Y6000000D03*
G54D13*
G01X400000Y5274500D03*
G01X400000Y5528500D03*
G01X406400Y6174500D03*
G01X406400Y6428500D03*
G54D14*
G01X400000Y843498D03*
G01X400000Y1093498D03*
G01X400000Y1343500D03*
G01X400000Y1593499D03*
G01X400000Y1843499D03*
G01X400000Y2093498D03*
G01X400000Y2343498D03*
G01X400000Y2593500D03*
G01X400000Y2843500D03*
G01X400000Y3093499D03*
G54D15*
G01X400000Y3657600D03*
G01X400000Y3911600D03*
G01X400000Y4165600D03*
G01X400000Y4419600D03*
G01X400000Y4673600D03*
G01X2115000Y301500D03*
G01X2253000Y3860800D03*
G01X2369000Y301500D03*
G01X2507000Y3860800D03*
G01X2623000Y301500D03*
G01X2877000Y301500D03*
G01X3131000Y301500D03*
G01X3385000Y301500D03*
G01X4200000Y1139500D03*
G01X4200000Y1393500D03*
G01X4200000Y1647500D03*
G01X4200000Y1901500D03*
G01X4200000Y2155500D03*
G01X4200000Y2409500D03*
G01X4200000Y2663500D03*
G54D16*
G01X1047600Y5924820D03*
G01X1270000Y6225931D03*
G01X1592266Y6592630D03*
G01X2236800Y4902200D03*
G01X2438400Y3492500D03*
G01X2654883Y5842000D03*
G01X2724302Y3340100D03*
G01X2725000Y3676700D03*
G01X2990698Y3340100D03*
G01X3003398Y3670300D03*
G01X3302000Y3492500D03*
G01X3340100Y5283200D03*
G01X3606800Y5532552D03*
G01X3721100Y2838298D03*
G01X4067797Y4940300D03*
G01X4076700Y6057900D03*
G01X4267200Y5727700D03*
G01X4268413Y5131335D03*
G01X4648200Y1117404D03*
G01X4838700Y647700D03*
G01X5130800Y825500D03*
G54D17*
G01X5422900Y863600D03*
G01X5422900Y1117600D03*
G01X5422900Y1371600D03*
G01X5422900Y1625600D03*
G01X5422900Y1879600D03*
G01X5422900Y2133600D03*
G01X5422900Y2387600D03*
G01X5422900Y2641600D03*
G01X5422900Y2895600D03*
G01X5422900Y3149600D03*
G01X5422900Y3403600D03*
G01X5422900Y3657600D03*
G01X5422900Y3911600D03*
G01X5422900Y4165600D03*
G01X5422900Y4419600D03*
G01X5422900Y4673600D03*
G01X5422900Y4927600D03*
G01X5422900Y5181600D03*
G01X5422900Y5435600D03*
G01X5422900Y5689600D03*
G01X5422900Y5943600D03*
G01X5422900Y6197600D03*
G01X7708900Y863600D03*
G01X7708900Y1117600D03*
G01X7708900Y1371600D03*
G01X7708900Y1625600D03*
G01X7708900Y1879600D03*
G01X7708900Y2133600D03*
G01X7708900Y2387600D03*
G01X7708900Y2641600D03*
G01X7708900Y2895600D03*
G01X7708900Y3149600D03*
G01X7708900Y3403600D03*
G01X7708900Y3657600D03*
G01X7708900Y3911600D03*
G01X7708900Y4165600D03*
G01X7708900Y4419600D03*
G01X7708900Y4673600D03*
G01X7708900Y4927600D03*
G01X7708900Y5181600D03*
G01X7708900Y5435600D03*
G01X7708900Y5689600D03*
G01X7708900Y5943600D03*
G01X7708900Y6197600D03*
G54D18*
G01X787400Y2705100D03*
G01X825503Y952500D03*
G01X825503Y1905000D03*
G01X1447800Y721498D03*
G01X1447800Y1054100D03*
G01X1447800Y1384300D03*
G01X1447800Y1739900D03*
G01X1447800Y2233102D03*
G01X1447800Y2603500D03*
G01X1460500Y2908300D03*
G01X1460500Y3263900D03*
G01X1619098Y5359400D03*
G01X2079500Y1204000D03*
G01X2090420Y5905500D03*
G01X2159000Y1286612D03*
G01X2174800Y5961181D03*
G01X2184400Y5580804D03*
G01X2184400Y5778500D03*
G01X2278380Y5892800D03*
G01X2291498Y1092200D03*
G01X2374900Y5613400D03*
G01X2484394Y1384300D03*
G01X2581707Y1651000D03*
G01X2602498Y889000D03*
G01X2631694Y2768600D03*
G01X2632488Y1381500D03*
G01X2641600Y2489200D03*
G01X2717800Y1384300D03*
G01X2717800Y2489200D03*
G01X2731694Y1651000D03*
G01X2781706Y2489200D03*
G01X2831694Y1651000D03*
G01X2857500Y2489200D03*
G01X2865400Y5880100D03*
G01X2882900Y3187700D03*
G01X2921000Y889000D03*
G01X2933700Y2755900D03*
G01X2971800Y1731988D03*
G01X3022600Y2489200D03*
G01X3031693Y2755900D03*
G01X3048000Y1694900D03*
G01X3081706Y2501900D03*
G01X3124200Y495300D03*
G01X3131693Y1694000D03*
G01X3131693Y2755900D03*
G01X3137012Y1917700D03*
G01X3149600Y2320188D03*
G01X3181706Y1384300D03*
G01X3181706Y2501900D03*
G01X3225800Y1795094D03*
G01X3225800Y2095094D03*
G01X3345000Y863600D03*
G01X3345000Y1376500D03*
G01X3403600Y2607412D03*
G01X3479800Y3149600D03*
G01X3530600Y1745107D03*
G01X3530600Y1845107D03*
G01X3530600Y1945107D03*
G01X3530600Y2044700D03*
G01X3530600Y2195093D03*
G01X3530600Y2445106D03*
G01X3594100Y1895094D03*
G01X3594100Y1995094D03*
G01X3594100Y2395093D03*
G01X3606800Y3848100D03*
G01X3606800Y3911499D03*
G01X3606800Y4134001D03*
G01X3606800Y4203700D03*
G01X3619500Y2523388D03*
G01X4279900Y3771498D03*
G01X4279900Y4273702D03*
G01X4572000Y4572000D03*
G01X4597400Y3861981D03*
G01X4644288Y3784600D03*
G01X4711700Y4229100D03*
G01X4724400Y3606800D03*
G01X4775200Y4826000D03*
G01X4876800Y3771900D03*
G01X4889500Y4420464D03*
G01X4902200Y5346700D03*
G01X4942988Y3606800D03*
G01X5029200Y3771900D03*
G01X5067300Y5575300D03*
G01X6908800Y1879600D03*
G04 Drill Drawing End*

G04 Text Start*
G54D19*
G01X10300446Y6775994D02*
G01X10300446Y6655852D01*
G01X10300446Y6775994D02*
G01X10346166Y6655852D01*
G01X10391886Y6775994D02*
G01X10346166Y6655852D01*
G01X10391886Y6775994D02*
G01X10391886Y6655852D01*
G01X10508218Y6735862D02*
G01X10508218Y6655852D01*
G01X10508218Y6718844D02*
G01X10496788Y6730274D01*
G01X10485358Y6735862D01*
G01X10468340Y6735862D01*
G01X10456910Y6730274D01*
G01X10445480Y6718844D01*
G01X10439638Y6701572D01*
G01X10439638Y6690142D01*
G01X10445480Y6673124D01*
G01X10456910Y6661694D01*
G01X10468340Y6655852D01*
G01X10485358Y6655852D01*
G01X10496788Y6661694D01*
G01X10508218Y6673124D01*
G01X10555970Y6735862D02*
G01X10555970Y6655852D01*
G01X10555970Y6701572D02*
G01X10561812Y6718844D01*
G01X10573242Y6730274D01*
G01X10584672Y6735862D01*
G01X10601690Y6735862D01*
G01X10649442Y6775994D02*
G01X10649442Y6655852D01*
G01X10706592Y6735862D02*
G01X10649442Y6678712D01*
G01X10672302Y6701572D02*
G01X10712434Y6655852D01*
G01X11837726Y6747292D02*
G01X11831884Y6758722D01*
G01X11820454Y6770152D01*
G01X11809024Y6775994D01*
G01X11786164Y6775994D01*
G01X11774734Y6770152D01*
G01X11763304Y6758722D01*
G01X11757716Y6747292D01*
G01X11751874Y6730274D01*
G01X11751874Y6701572D01*
G01X11757716Y6684554D01*
G01X11763304Y6673124D01*
G01X11774734Y6661694D01*
G01X11786164Y6655852D01*
G01X11809024Y6655852D01*
G01X11820454Y6661694D01*
G01X11831884Y6673124D01*
G01X11837726Y6684554D01*
G01X11914180Y6735862D02*
G01X11902750Y6730274D01*
G01X11891320Y6718844D01*
G01X11885478Y6701572D01*
G01X11885478Y6690142D01*
G01X11891320Y6673124D01*
G01X11902750Y6661694D01*
G01X11914180Y6655852D01*
G01X11931198Y6655852D01*
G01X11942628Y6661694D01*
G01X11954058Y6673124D01*
G01X11959900Y6690142D01*
G01X11959900Y6701572D01*
G01X11954058Y6718844D01*
G01X11942628Y6730274D01*
G01X11931198Y6735862D01*
G01X11914180Y6735862D01*
G01X12007652Y6735862D02*
G01X12007652Y6678712D01*
G01X12013494Y6661694D01*
G01X12024924Y6655852D01*
G01X12041942Y6655852D01*
G01X12053372Y6661694D01*
G01X12070644Y6678712D01*
G01X12070644Y6735862D02*
G01X12070644Y6655852D01*
G01X12118396Y6735862D02*
G01X12118396Y6655852D01*
G01X12118396Y6713002D02*
G01X12135668Y6730274D01*
G01X12147098Y6735862D01*
G01X12164116Y6735862D01*
G01X12175546Y6730274D01*
G01X12181388Y6713002D01*
G01X12181388Y6655852D01*
G01X12246412Y6775994D02*
G01X12246412Y6678712D01*
G01X12252000Y6661694D01*
G01X12263430Y6655852D01*
G01X12274860Y6655852D01*
G01X12229140Y6735862D02*
G01X12269272Y6735862D01*
G01X13246047Y6758722D02*
G01X13234617Y6770152D01*
G01X13217599Y6775994D01*
G01X13194739Y6775994D01*
G01X13177467Y6770152D01*
G01X13166037Y6758722D01*
G01X13166037Y6747292D01*
G01X13171879Y6735862D01*
G01X13177467Y6730274D01*
G01X13188897Y6724432D01*
G01X13223187Y6713002D01*
G01X13234617Y6707414D01*
G01X13240459Y6701572D01*
G01X13246047Y6690142D01*
G01X13246047Y6673124D01*
G01X13234617Y6661694D01*
G01X13217599Y6655852D01*
G01X13194739Y6655852D01*
G01X13177467Y6661694D01*
G01X13166037Y6673124D01*
G01X13293799Y6775994D02*
G01X13299641Y6770152D01*
G01X13305229Y6775994D01*
G01X13299641Y6781582D01*
G01X13293799Y6775994D01*
G01X13299641Y6735862D02*
G01X13299641Y6655852D01*
G01X13415973Y6735862D02*
G01X13352981Y6655852D01*
G01X13352981Y6735862D02*
G01X13415973Y6735862D01*
G01X13352981Y6655852D02*
G01X13415973Y6655852D01*
G01X13463725Y6701572D02*
G01X13532305Y6701572D01*
G01X13532305Y6713002D01*
G01X13526717Y6724432D01*
G01X13520875Y6730274D01*
G01X13509445Y6735862D01*
G01X13492427Y6735862D01*
G01X13480997Y6730274D01*
G01X13469567Y6718844D01*
G01X13463725Y6701572D01*
G01X13463725Y6690142D01*
G01X13469567Y6673124D01*
G01X13480997Y6661694D01*
G01X13492427Y6655852D01*
G01X13509445Y6655852D01*
G01X13520875Y6661694D01*
G01X13532305Y6673124D01*
G01X16968563Y6775994D02*
G01X16968563Y6655852D01*
G01X16968563Y6775994D02*
G01X17020125Y6775994D01*
G01X17037143Y6770152D01*
G01X17042985Y6764564D01*
G01X17048573Y6753134D01*
G01X17048573Y6735862D01*
G01X17042985Y6724432D01*
G01X17037143Y6718844D01*
G01X17020125Y6713002D01*
G01X16968563Y6713002D01*
G01X17096325Y6775994D02*
G01X17096325Y6655852D01*
G01X17212657Y6735862D02*
G01X17212657Y6655852D01*
G01X17212657Y6718844D02*
G01X17201227Y6730274D01*
G01X17189797Y6735862D01*
G01X17172779Y6735862D01*
G01X17161349Y6730274D01*
G01X17149919Y6718844D01*
G01X17144077Y6701572D01*
G01X17144077Y6690142D01*
G01X17149919Y6673124D01*
G01X17161349Y6661694D01*
G01X17172779Y6655852D01*
G01X17189797Y6655852D01*
G01X17201227Y6661694D01*
G01X17212657Y6673124D01*
G01X17277681Y6775994D02*
G01X17277681Y6678712D01*
G01X17283269Y6661694D01*
G01X17294699Y6655852D01*
G01X17306129Y6655852D01*
G01X17260409Y6735862D02*
G01X17300541Y6735862D01*
G01X17353881Y6701572D02*
G01X17422461Y6701572D01*
G01X17422461Y6713002D01*
G01X17416873Y6724432D01*
G01X17411031Y6730274D01*
G01X17399601Y6735862D01*
G01X17382583Y6735862D01*
G01X17371153Y6730274D01*
G01X17359723Y6718844D01*
G01X17353881Y6701572D01*
G01X17353881Y6690142D01*
G01X17359723Y6673124D01*
G01X17371153Y6661694D01*
G01X17382583Y6655852D01*
G01X17399601Y6655852D01*
G01X17411031Y6661694D01*
G01X17422461Y6673124D01*
G01X17538793Y6775994D02*
G01X17538793Y6655852D01*
G01X17538793Y6718844D02*
G01X17527363Y6730274D01*
G01X17515933Y6735862D01*
G01X17498915Y6735862D01*
G01X17487485Y6730274D01*
G01X17476055Y6718844D01*
G01X17470213Y6701572D01*
G01X17470213Y6690142D01*
G01X17476055Y6673124D01*
G01X17487485Y6661694D01*
G01X17498915Y6655852D01*
G01X17515933Y6655852D01*
G01X17527363Y6661694D01*
G01X17538793Y6673124D01*
G01X18509980Y6758722D02*
G01X18498550Y6770152D01*
G01X18481532Y6775994D01*
G01X18458672Y6775994D01*
G01X18441400Y6770152D01*
G01X18429970Y6758722D01*
G01X18429970Y6747292D01*
G01X18435812Y6735862D01*
G01X18441400Y6730274D01*
G01X18452830Y6724432D01*
G01X18487120Y6713002D01*
G01X18498550Y6707414D01*
G01X18504392Y6701572D01*
G01X18509980Y6690142D01*
G01X18509980Y6673124D01*
G01X18498550Y6661694D01*
G01X18481532Y6655852D01*
G01X18458672Y6655852D01*
G01X18441400Y6661694D01*
G01X18429970Y6673124D01*
G01X18557732Y6775994D02*
G01X18557732Y6655852D01*
G01X18557732Y6713002D02*
G01X18575004Y6730274D01*
G01X18586434Y6735862D01*
G01X18603452Y6735862D01*
G01X18614882Y6730274D01*
G01X18620724Y6713002D01*
G01X18620724Y6655852D01*
G01X18737056Y6735862D02*
G01X18737056Y6655852D01*
G01X18737056Y6718844D02*
G01X18725626Y6730274D01*
G01X18714196Y6735862D01*
G01X18697178Y6735862D01*
G01X18685748Y6730274D01*
G01X18674318Y6718844D01*
G01X18668476Y6701572D01*
G01X18668476Y6690142D01*
G01X18674318Y6673124D01*
G01X18685748Y6661694D01*
G01X18697178Y6655852D01*
G01X18714196Y6655852D01*
G01X18725626Y6661694D01*
G01X18737056Y6673124D01*
G01X18784808Y6735862D02*
G01X18784808Y6615974D01*
G01X18784808Y6718844D02*
G01X18796238Y6730274D01*
G01X18807668Y6735862D01*
G01X18824940Y6735862D01*
G01X18836370Y6730274D01*
G01X18847800Y6718844D01*
G01X18853388Y6701572D01*
G01X18853388Y6690142D01*
G01X18847800Y6673124D01*
G01X18836370Y6661694D01*
G01X18824940Y6655852D01*
G01X18807668Y6655852D01*
G01X18796238Y6661694D01*
G01X18784808Y6673124D01*
G01X18901140Y6701572D02*
G01X18969720Y6701572D01*
G01X18969720Y6713002D01*
G01X18964132Y6724432D01*
G01X18958290Y6730274D01*
G01X18946860Y6735862D01*
G01X18929842Y6735862D01*
G01X18918412Y6730274D01*
G01X18906982Y6718844D01*
G01X18901140Y6701572D01*
G01X18901140Y6690142D01*
G01X18906982Y6673124D01*
G01X18918412Y6661694D01*
G01X18929842Y6655852D01*
G01X18946860Y6655852D01*
G01X18958290Y6661694D01*
G01X18969720Y6673124D01*
G01X19861151Y6775994D02*
G01X19906871Y6655852D01*
G01X19952591Y6775994D02*
G01X19906871Y6655852D01*
G01X20000343Y6775994D02*
G01X20006185Y6770152D01*
G01X20011773Y6775994D01*
G01X20006185Y6781582D01*
G01X20000343Y6775994D01*
G01X20006185Y6735862D02*
G01X20006185Y6655852D01*
G01X20128105Y6735862D02*
G01X20128105Y6655852D01*
G01X20128105Y6718844D02*
G01X20116675Y6730274D01*
G01X20105245Y6735862D01*
G01X20088227Y6735862D01*
G01X20076797Y6730274D01*
G01X20065367Y6718844D01*
G01X20059525Y6701572D01*
G01X20059525Y6690142D01*
G01X20065367Y6673124D01*
G01X20076797Y6661694D01*
G01X20088227Y6655852D01*
G01X20105245Y6655852D01*
G01X20116675Y6661694D01*
G01X20128105Y6673124D01*
G01X20278727Y6798854D02*
G01X20175857Y6615974D01*
G01X20326479Y6775994D02*
G01X20326479Y6655852D01*
G01X20326479Y6775994D02*
G01X20378041Y6775994D01*
G01X20395059Y6770152D01*
G01X20400901Y6764564D01*
G01X20406489Y6753134D01*
G01X20406489Y6735862D01*
G01X20400901Y6724432D01*
G01X20395059Y6718844D01*
G01X20378041Y6713002D01*
G01X20326479Y6713002D01*
G01X20522821Y6735862D02*
G01X20522821Y6655852D01*
G01X20522821Y6718844D02*
G01X20511391Y6730274D01*
G01X20499961Y6735862D01*
G01X20482943Y6735862D01*
G01X20471513Y6730274D01*
G01X20460083Y6718844D01*
G01X20454241Y6701572D01*
G01X20454241Y6690142D01*
G01X20460083Y6673124D01*
G01X20471513Y6661694D01*
G01X20482943Y6655852D01*
G01X20499961Y6655852D01*
G01X20511391Y6661694D01*
G01X20522821Y6673124D01*
G01X20639153Y6775994D02*
G01X20639153Y6655852D01*
G01X20639153Y6718844D02*
G01X20627723Y6730274D01*
G01X20616293Y6735862D01*
G01X20599275Y6735862D01*
G01X20587845Y6730274D01*
G01X20576415Y6718844D01*
G01X20570573Y6701572D01*
G01X20570573Y6690142D01*
G01X20576415Y6673124D01*
G01X20587845Y6661694D01*
G01X20599275Y6655852D01*
G01X20616293Y6655852D01*
G01X20627723Y6661694D01*
G01X20639153Y6673124D01*
G01X21530330Y6775994D02*
G01X21530330Y6655852D01*
G01X21530330Y6775994D02*
G01X21581892Y6775994D01*
G01X21598910Y6770152D01*
G01X21604752Y6764564D01*
G01X21610340Y6753134D01*
G01X21610340Y6735862D01*
G01X21604752Y6724432D01*
G01X21598910Y6718844D01*
G01X21581892Y6713002D01*
G01X21530330Y6713002D01*
G01X21726672Y6735862D02*
G01X21726672Y6655852D01*
G01X21726672Y6718844D02*
G01X21715242Y6730274D01*
G01X21703812Y6735862D01*
G01X21686794Y6735862D01*
G01X21675364Y6730274D01*
G01X21663934Y6718844D01*
G01X21658092Y6701572D01*
G01X21658092Y6690142D01*
G01X21663934Y6673124D01*
G01X21675364Y6661694D01*
G01X21686794Y6655852D01*
G01X21703812Y6655852D01*
G01X21715242Y6661694D01*
G01X21726672Y6673124D01*
G01X21843004Y6775994D02*
G01X21843004Y6655852D01*
G01X21843004Y6718844D02*
G01X21831574Y6730274D01*
G01X21820144Y6735862D01*
G01X21803126Y6735862D01*
G01X21791696Y6730274D01*
G01X21780266Y6718844D01*
G01X21774424Y6701572D01*
G01X21774424Y6690142D01*
G01X21780266Y6673124D01*
G01X21791696Y6661694D01*
G01X21803126Y6655852D01*
G01X21820144Y6655852D01*
G01X21831574Y6661694D01*
G01X21843004Y6673124D01*
G01X22098782Y6758722D02*
G01X22087352Y6770152D01*
G01X22070334Y6775994D01*
G01X22047474Y6775994D01*
G01X22030202Y6770152D01*
G01X22018772Y6758722D01*
G01X22018772Y6747292D01*
G01X22024614Y6735862D01*
G01X22030202Y6730274D01*
G01X22041632Y6724432D01*
G01X22075922Y6713002D01*
G01X22087352Y6707414D01*
G01X22093194Y6701572D01*
G01X22098782Y6690142D01*
G01X22098782Y6673124D01*
G01X22087352Y6661694D01*
G01X22070334Y6655852D01*
G01X22047474Y6655852D01*
G01X22030202Y6661694D01*
G01X22018772Y6673124D01*
G01X22146534Y6775994D02*
G01X22146534Y6655852D01*
G01X22146534Y6713002D02*
G01X22163806Y6730274D01*
G01X22175236Y6735862D01*
G01X22192254Y6735862D01*
G01X22203684Y6730274D01*
G01X22209526Y6713002D01*
G01X22209526Y6655852D01*
G01X22325858Y6735862D02*
G01X22325858Y6655852D01*
G01X22325858Y6718844D02*
G01X22314428Y6730274D01*
G01X22302998Y6735862D01*
G01X22285980Y6735862D01*
G01X22274550Y6730274D01*
G01X22263120Y6718844D01*
G01X22257278Y6701572D01*
G01X22257278Y6690142D01*
G01X22263120Y6673124D01*
G01X22274550Y6661694D01*
G01X22285980Y6655852D01*
G01X22302998Y6655852D01*
G01X22314428Y6661694D01*
G01X22325858Y6673124D01*
G01X22373610Y6735862D02*
G01X22373610Y6615974D01*
G01X22373610Y6718844D02*
G01X22385040Y6730274D01*
G01X22396470Y6735862D01*
G01X22413742Y6735862D01*
G01X22425172Y6730274D01*
G01X22436602Y6718844D01*
G01X22442190Y6701572D01*
G01X22442190Y6690142D01*
G01X22436602Y6673124D01*
G01X22425172Y6661694D01*
G01X22413742Y6655852D01*
G01X22396470Y6655852D01*
G01X22385040Y6661694D01*
G01X22373610Y6673124D01*
G01X22489942Y6701572D02*
G01X22558522Y6701572D01*
G01X22558522Y6713002D01*
G01X22552934Y6724432D01*
G01X22547092Y6730274D01*
G01X22535662Y6735862D01*
G01X22518644Y6735862D01*
G01X22507214Y6730274D01*
G01X22495784Y6718844D01*
G01X22489942Y6701572D01*
G01X22489942Y6690142D01*
G01X22495784Y6673124D01*
G01X22507214Y6661694D01*
G01X22518644Y6655852D01*
G01X22535662Y6655852D01*
G01X22547092Y6661694D01*
G01X22558522Y6673124D01*
G01X23449699Y6775994D02*
G01X23449699Y6655852D01*
G01X23449699Y6655852D02*
G01X23518279Y6655852D01*
G01X23634611Y6735862D02*
G01X23634611Y6655852D01*
G01X23634611Y6718844D02*
G01X23623181Y6730274D01*
G01X23611751Y6735862D01*
G01X23594733Y6735862D01*
G01X23583303Y6730274D01*
G01X23571873Y6718844D01*
G01X23566031Y6701572D01*
G01X23566031Y6690142D01*
G01X23571873Y6673124D01*
G01X23583303Y6661694D01*
G01X23594733Y6655852D01*
G01X23611751Y6655852D01*
G01X23623181Y6661694D01*
G01X23634611Y6673124D01*
G01X23688205Y6735862D02*
G01X23722495Y6655852D01*
G01X23756785Y6735862D02*
G01X23722495Y6655852D01*
G01X23711065Y6632992D01*
G01X23699635Y6621562D01*
G01X23688205Y6615974D01*
G01X23682363Y6615974D01*
G01X23804537Y6701572D02*
G01X23873117Y6701572D01*
G01X23873117Y6713002D01*
G01X23867529Y6724432D01*
G01X23861687Y6730274D01*
G01X23850257Y6735862D01*
G01X23833239Y6735862D01*
G01X23821809Y6730274D01*
G01X23810379Y6718844D01*
G01X23804537Y6701572D01*
G01X23804537Y6690142D01*
G01X23810379Y6673124D01*
G01X23821809Y6661694D01*
G01X23833239Y6655852D01*
G01X23850257Y6655852D01*
G01X23861687Y6661694D01*
G01X23873117Y6673124D01*
G01X23920869Y6735862D02*
G01X23920869Y6655852D01*
G01X23920869Y6701572D02*
G01X23926711Y6718844D01*
G01X23938141Y6730274D01*
G01X23949571Y6735862D01*
G01X23966589Y6735862D01*
G01X24142357Y6775994D02*
G01X24142357Y6655852D01*
G01X24142357Y6775994D02*
G01X24193919Y6775994D01*
G01X24210937Y6770152D01*
G01X24216779Y6764564D01*
G01X24222367Y6753134D01*
G01X24222367Y6735862D01*
G01X24216779Y6724432D01*
G01X24210937Y6718844D01*
G01X24193919Y6713002D01*
G01X24142357Y6713002D01*
G01X24338699Y6735862D02*
G01X24338699Y6655852D01*
G01X24338699Y6718844D02*
G01X24327269Y6730274D01*
G01X24315839Y6735862D01*
G01X24298821Y6735862D01*
G01X24287391Y6730274D01*
G01X24275961Y6718844D01*
G01X24270119Y6701572D01*
G01X24270119Y6690142D01*
G01X24275961Y6673124D01*
G01X24287391Y6661694D01*
G01X24298821Y6655852D01*
G01X24315839Y6655852D01*
G01X24327269Y6661694D01*
G01X24338699Y6673124D01*
G01X24386451Y6775994D02*
G01X24392293Y6770152D01*
G01X24397881Y6775994D01*
G01X24392293Y6781582D01*
G01X24386451Y6775994D01*
G01X24392293Y6735862D02*
G01X24392293Y6655852D01*
G01X24445633Y6735862D02*
G01X24445633Y6655852D01*
G01X24445633Y6701572D02*
G01X24451475Y6718844D01*
G01X24462905Y6730274D01*
G01X24474335Y6735862D01*
G01X24491353Y6735862D01*
G01X11757716Y6166721D02*
G01X11757716Y6172563D01*
G01X11763304Y6183993D01*
G01X11769146Y6189581D01*
G01X11780576Y6195423D01*
G01X11803436Y6195423D01*
G01X11814866Y6189581D01*
G01X11820454Y6183993D01*
G01X11826296Y6172563D01*
G01X11826296Y6161133D01*
G01X11820454Y6149703D01*
G01X11809024Y6132431D01*
G01X11751874Y6075281D01*
G01X11831884Y6075281D01*
G01X13223187Y6195423D02*
G01X13166037Y6115413D01*
G01X13251889Y6115413D01*
G01X13223187Y6195423D02*
G01X13223187Y6075281D01*
G01X13311071Y6195423D02*
G01X13374063Y6195423D01*
G01X13339773Y6149703D01*
G01X13356791Y6149703D01*
G01X13368221Y6143861D01*
G01X13374063Y6138273D01*
G01X13379651Y6121001D01*
G01X13379651Y6109571D01*
G01X13374063Y6092553D01*
G01X13362633Y6081123D01*
G01X13345361Y6075281D01*
G01X13328343Y6075281D01*
G01X13311071Y6081123D01*
G01X13305483Y6086711D01*
G01X13299641Y6098141D01*
G01X13433245Y6103983D02*
G01X13427403Y6098141D01*
G01X13433245Y6092553D01*
G01X13438833Y6098141D01*
G01X13433245Y6103983D01*
G01X13498015Y6195423D02*
G01X13561007Y6195423D01*
G01X13526717Y6149703D01*
G01X13543735Y6149703D01*
G01X13555165Y6143861D01*
G01X13561007Y6138273D01*
G01X13566595Y6121001D01*
G01X13566595Y6109571D01*
G01X13561007Y6092553D01*
G01X13549577Y6081123D01*
G01X13532305Y6075281D01*
G01X13515287Y6075281D01*
G01X13498015Y6081123D01*
G01X13492427Y6086711D01*
G01X13486585Y6098141D01*
G01X13614347Y6155291D02*
G01X13614347Y6075281D01*
G01X13614347Y6132431D02*
G01X13631619Y6149703D01*
G01X13643049Y6155291D01*
G01X13660067Y6155291D01*
G01X13671497Y6149703D01*
G01X13677339Y6132431D01*
G01X13677339Y6075281D01*
G01X13677339Y6132431D02*
G01X13694357Y6149703D01*
G01X13705787Y6155291D01*
G01X13723059Y6155291D01*
G01X13734489Y6149703D01*
G01X13740077Y6132431D01*
G01X13740077Y6075281D01*
G01X13787829Y6195423D02*
G01X13793671Y6189581D01*
G01X13799259Y6195423D01*
G01X13793671Y6201011D01*
G01X13787829Y6195423D01*
G01X13793671Y6155291D02*
G01X13793671Y6075281D01*
G01X13847011Y6195423D02*
G01X13847011Y6075281D01*
G01X13934895Y6218283D02*
G01X13923465Y6206853D01*
G01X13912035Y6189581D01*
G01X13900605Y6166721D01*
G01X13894763Y6138273D01*
G01X13894763Y6115413D01*
G01X13900605Y6086711D01*
G01X13912035Y6063851D01*
G01X13923465Y6046833D01*
G01X13934895Y6035403D01*
G01X13982647Y6172563D02*
G01X13994077Y6178151D01*
G01X14011349Y6195423D01*
G01X14011349Y6075281D01*
G01X14064943Y6103983D02*
G01X14059101Y6098141D01*
G01X14064943Y6092553D01*
G01X14070531Y6098141D01*
G01X14064943Y6103983D01*
G01X14118283Y6172563D02*
G01X14129713Y6178151D01*
G01X14146985Y6195423D01*
G01X14146985Y6075281D01*
G01X14229027Y6195423D02*
G01X14212009Y6189581D01*
G01X14200579Y6172563D01*
G01X14194737Y6143861D01*
G01X14194737Y6126843D01*
G01X14200579Y6098141D01*
G01X14212009Y6081123D01*
G01X14229027Y6075281D01*
G01X14240457Y6075281D01*
G01X14257729Y6081123D01*
G01X14269159Y6098141D01*
G01X14274747Y6126843D01*
G01X14274747Y6143861D01*
G01X14269159Y6172563D01*
G01X14257729Y6189581D01*
G01X14240457Y6195423D01*
G01X14229027Y6195423D01*
G01X14356789Y6195423D02*
G01X14339771Y6189581D01*
G01X14328341Y6172563D01*
G01X14322499Y6143861D01*
G01X14322499Y6126843D01*
G01X14328341Y6098141D01*
G01X14339771Y6081123D01*
G01X14356789Y6075281D01*
G01X14368219Y6075281D01*
G01X14385491Y6081123D01*
G01X14396921Y6098141D01*
G01X14402509Y6126843D01*
G01X14402509Y6143861D01*
G01X14396921Y6172563D01*
G01X14385491Y6189581D01*
G01X14368219Y6195423D01*
G01X14356789Y6195423D01*
G01X14450261Y6155291D02*
G01X14450261Y6075281D01*
G01X14450261Y6132431D02*
G01X14467533Y6149703D01*
G01X14478963Y6155291D01*
G01X14495981Y6155291D01*
G01X14507411Y6149703D01*
G01X14513253Y6132431D01*
G01X14513253Y6075281D01*
G01X14513253Y6132431D02*
G01X14530271Y6149703D01*
G01X14541701Y6155291D01*
G01X14558973Y6155291D01*
G01X14570403Y6149703D01*
G01X14575991Y6132431D01*
G01X14575991Y6075281D01*
G01X14623743Y6155291D02*
G01X14623743Y6075281D01*
G01X14623743Y6132431D02*
G01X14641015Y6149703D01*
G01X14652445Y6155291D01*
G01X14669463Y6155291D01*
G01X14680893Y6149703D01*
G01X14686735Y6132431D01*
G01X14686735Y6075281D01*
G01X14686735Y6132431D02*
G01X14703753Y6149703D01*
G01X14715183Y6155291D01*
G01X14732455Y6155291D01*
G01X14743885Y6149703D01*
G01X14749473Y6132431D01*
G01X14749473Y6075281D01*
G01X14797225Y6218283D02*
G01X14808655Y6206853D01*
G01X14820085Y6189581D01*
G01X14831515Y6166721D01*
G01X14837357Y6138273D01*
G01X14837357Y6115413D01*
G01X14831515Y6086711D01*
G01X14820085Y6063851D01*
G01X14808655Y6046833D01*
G01X14797225Y6035403D01*
G01X16968563Y6195423D02*
G01X16968563Y6075281D01*
G01X16968563Y6195423D02*
G01X17048573Y6075281D01*
G01X17048573Y6195423D02*
G01X17048573Y6075281D01*
G01X17096325Y6195423D02*
G01X17096325Y6075281D01*
G01X17096325Y6195423D02*
G01X17147887Y6195423D01*
G01X17164905Y6189581D01*
G01X17170747Y6183993D01*
G01X17176335Y6172563D01*
G01X17176335Y6155291D01*
G01X17170747Y6143861D01*
G01X17164905Y6138273D01*
G01X17147887Y6132431D01*
G01X17096325Y6132431D01*
G01X17264219Y6195423D02*
G01X17264219Y6075281D01*
G01X17224087Y6195423D02*
G01X17304097Y6195423D01*
G01X17351849Y6195423D02*
G01X17351849Y6075281D01*
G01X17431859Y6195423D02*
G01X17431859Y6075281D01*
G01X17351849Y6138273D02*
G01X17431859Y6138273D01*
G01X18429970Y6195423D02*
G01X18429970Y6075281D01*
G01X18429970Y6195423D02*
G01X18481532Y6195423D01*
G01X18498550Y6189581D01*
G01X18504392Y6183993D01*
G01X18509980Y6172563D01*
G01X18509980Y6161133D01*
G01X18504392Y6149703D01*
G01X18498550Y6143861D01*
G01X18481532Y6138273D01*
G01X18429970Y6138273D01*
G01X18470102Y6138273D02*
G01X18509980Y6075281D01*
G01X18586434Y6155291D02*
G01X18575004Y6149703D01*
G01X18563574Y6138273D01*
G01X18557732Y6121001D01*
G01X18557732Y6109571D01*
G01X18563574Y6092553D01*
G01X18575004Y6081123D01*
G01X18586434Y6075281D01*
G01X18603452Y6075281D01*
G01X18614882Y6081123D01*
G01X18626312Y6092553D01*
G01X18632154Y6109571D01*
G01X18632154Y6121001D01*
G01X18626312Y6138273D01*
G01X18614882Y6149703D01*
G01X18603452Y6155291D01*
G01X18586434Y6155291D01*
G01X18679906Y6155291D02*
G01X18679906Y6098141D01*
G01X18685748Y6081123D01*
G01X18697178Y6075281D01*
G01X18714196Y6075281D01*
G01X18725626Y6081123D01*
G01X18742898Y6098141D01*
G01X18742898Y6155291D02*
G01X18742898Y6075281D01*
G01X18790650Y6155291D02*
G01X18790650Y6075281D01*
G01X18790650Y6132431D02*
G01X18807922Y6149703D01*
G01X18819352Y6155291D01*
G01X18836370Y6155291D01*
G01X18847800Y6149703D01*
G01X18853642Y6132431D01*
G01X18853642Y6075281D01*
G01X18969974Y6195423D02*
G01X18969974Y6075281D01*
G01X18969974Y6138273D02*
G01X18958544Y6149703D01*
G01X18947114Y6155291D01*
G01X18930096Y6155291D01*
G01X18918666Y6149703D01*
G01X18907236Y6138273D01*
G01X18901394Y6121001D01*
G01X18901394Y6109571D01*
G01X18907236Y6092553D01*
G01X18918666Y6081123D01*
G01X18930096Y6075281D01*
G01X18947114Y6075281D01*
G01X18958544Y6081123D01*
G01X18969974Y6092553D01*
G01X19861151Y6195423D02*
G01X19906871Y6075281D01*
G01X19952591Y6195423D02*
G01X19906871Y6075281D01*
G01X20000343Y6195423D02*
G01X20006185Y6189581D01*
G01X20011773Y6195423D01*
G01X20006185Y6201011D01*
G01X20000343Y6195423D01*
G01X20006185Y6155291D02*
G01X20006185Y6075281D01*
G01X20128105Y6155291D02*
G01X20128105Y6075281D01*
G01X20128105Y6138273D02*
G01X20116675Y6149703D01*
G01X20105245Y6155291D01*
G01X20088227Y6155291D01*
G01X20076797Y6149703D01*
G01X20065367Y6138273D01*
G01X20059525Y6121001D01*
G01X20059525Y6109571D01*
G01X20065367Y6092553D01*
G01X20076797Y6081123D01*
G01X20088227Y6075281D01*
G01X20105245Y6075281D01*
G01X20116675Y6081123D01*
G01X20128105Y6092553D01*
G01X23489831Y6195423D02*
G01X23489831Y6075281D01*
G01X23449699Y6195423D02*
G01X23529709Y6195423D01*
G01X23606163Y6155291D02*
G01X23594733Y6149703D01*
G01X23583303Y6138273D01*
G01X23577461Y6121001D01*
G01X23577461Y6109571D01*
G01X23583303Y6092553D01*
G01X23594733Y6081123D01*
G01X23606163Y6075281D01*
G01X23623181Y6075281D01*
G01X23634611Y6081123D01*
G01X23646041Y6092553D01*
G01X23651883Y6109571D01*
G01X23651883Y6121001D01*
G01X23646041Y6138273D01*
G01X23634611Y6149703D01*
G01X23623181Y6155291D01*
G01X23606163Y6155291D01*
G01X23699635Y6155291D02*
G01X23699635Y6035403D01*
G01X23699635Y6138273D02*
G01X23711065Y6149703D01*
G01X23722495Y6155291D01*
G01X23739767Y6155291D01*
G01X23751197Y6149703D01*
G01X23762627Y6138273D01*
G01X23768215Y6121001D01*
G01X23768215Y6109571D01*
G01X23762627Y6092553D01*
G01X23751197Y6081123D01*
G01X23739767Y6075281D01*
G01X23722495Y6075281D01*
G01X23711065Y6081123D01*
G01X23699635Y6092553D01*
G01X23943983Y6195423D02*
G01X23943983Y6075281D01*
G01X23943983Y6075281D02*
G01X24012563Y6075281D01*
G01X24128895Y6155291D02*
G01X24128895Y6075281D01*
G01X24128895Y6138273D02*
G01X24117465Y6149703D01*
G01X24106035Y6155291D01*
G01X24089017Y6155291D01*
G01X24077587Y6149703D01*
G01X24066157Y6138273D01*
G01X24060315Y6121001D01*
G01X24060315Y6109571D01*
G01X24066157Y6092553D01*
G01X24077587Y6081123D01*
G01X24089017Y6075281D01*
G01X24106035Y6075281D01*
G01X24117465Y6081123D01*
G01X24128895Y6092553D01*
G01X24182489Y6155291D02*
G01X24216779Y6075281D01*
G01X24251069Y6155291D02*
G01X24216779Y6075281D01*
G01X24205349Y6052421D01*
G01X24193919Y6040991D01*
G01X24182489Y6035403D01*
G01X24176647Y6035403D01*
G01X24298821Y6121001D02*
G01X24367401Y6121001D01*
G01X24367401Y6132431D01*
G01X24361813Y6143861D01*
G01X24355971Y6149703D01*
G01X24344541Y6155291D01*
G01X24327523Y6155291D01*
G01X24316093Y6149703D01*
G01X24304663Y6138273D01*
G01X24298821Y6121001D01*
G01X24298821Y6109571D01*
G01X24304663Y6092553D01*
G01X24316093Y6081123D01*
G01X24327523Y6075281D01*
G01X24344541Y6075281D01*
G01X24355971Y6081123D01*
G01X24367401Y6092553D01*
G01X24415153Y6155291D02*
G01X24415153Y6075281D01*
G01X24415153Y6121001D02*
G01X24420995Y6138273D01*
G01X24432425Y6149703D01*
G01X24443855Y6155291D01*
G01X24460873Y6155291D01*
G01X24508625Y6126843D02*
G01X24611495Y6126843D01*
G01X24659247Y6195423D02*
G01X24659247Y6075281D01*
G01X24659247Y6195423D02*
G01X24710809Y6195423D01*
G01X24727827Y6189581D01*
G01X24733669Y6183993D01*
G01X24739257Y6172563D01*
G01X24739257Y6161133D01*
G01X24733669Y6149703D01*
G01X24727827Y6143861D01*
G01X24710809Y6138273D01*
G01X24659247Y6138273D02*
G01X24710809Y6138273D01*
G01X24727827Y6132431D01*
G01X24733669Y6126843D01*
G01X24739257Y6115413D01*
G01X24739257Y6098141D01*
G01X24733669Y6086711D01*
G01X24727827Y6081123D01*
G01X24710809Y6075281D01*
G01X24659247Y6075281D01*
G01X24815711Y6155291D02*
G01X24804281Y6149703D01*
G01X24792851Y6138273D01*
G01X24787009Y6121001D01*
G01X24787009Y6109571D01*
G01X24792851Y6092553D01*
G01X24804281Y6081123D01*
G01X24815711Y6075281D01*
G01X24832729Y6075281D01*
G01X24844159Y6081123D01*
G01X24855589Y6092553D01*
G01X24861431Y6109571D01*
G01X24861431Y6121001D01*
G01X24855589Y6138273D01*
G01X24844159Y6149703D01*
G01X24832729Y6155291D01*
G01X24815711Y6155291D01*
G01X24926455Y6195423D02*
G01X24926455Y6098141D01*
G01X24932043Y6081123D01*
G01X24943473Y6075281D01*
G01X24954903Y6075281D01*
G01X24909183Y6155291D02*
G01X24949315Y6155291D01*
G01X25019927Y6195423D02*
G01X25019927Y6098141D01*
G01X25025515Y6081123D01*
G01X25036945Y6075281D01*
G01X25048375Y6075281D01*
G01X25002655Y6155291D02*
G01X25042787Y6155291D01*
G01X25124829Y6155291D02*
G01X25113399Y6149703D01*
G01X25101969Y6138273D01*
G01X25096127Y6121001D01*
G01X25096127Y6109571D01*
G01X25101969Y6092553D01*
G01X25113399Y6081123D01*
G01X25124829Y6075281D01*
G01X25141847Y6075281D01*
G01X25153277Y6081123D01*
G01X25164707Y6092553D01*
G01X25170549Y6109571D01*
G01X25170549Y6121001D01*
G01X25164707Y6138273D01*
G01X25153277Y6149703D01*
G01X25141847Y6155291D01*
G01X25124829Y6155291D01*
G01X25218301Y6155291D02*
G01X25218301Y6075281D01*
G01X25218301Y6132431D02*
G01X25235573Y6149703D01*
G01X25247003Y6155291D01*
G01X25264021Y6155291D01*
G01X25275451Y6149703D01*
G01X25281293Y6132431D01*
G01X25281293Y6075281D01*
G01X25281293Y6132431D02*
G01X25298311Y6149703D01*
G01X25309741Y6155291D01*
G01X25327013Y6155291D01*
G01X25338443Y6149703D01*
G01X25344031Y6132431D01*
G01X25344031Y6075281D01*
G01X25519799Y6195423D02*
G01X25519799Y6075281D01*
G01X25519799Y6075281D02*
G01X25588379Y6075281D01*
G01X25704711Y6155291D02*
G01X25704711Y6075281D01*
G01X25704711Y6138273D02*
G01X25693281Y6149703D01*
G01X25681851Y6155291D01*
G01X25664833Y6155291D01*
G01X25653403Y6149703D01*
G01X25641973Y6138273D01*
G01X25636131Y6121001D01*
G01X25636131Y6109571D01*
G01X25641973Y6092553D01*
G01X25653403Y6081123D01*
G01X25664833Y6075281D01*
G01X25681851Y6075281D01*
G01X25693281Y6081123D01*
G01X25704711Y6092553D01*
G01X25758305Y6155291D02*
G01X25792595Y6075281D01*
G01X25826885Y6155291D02*
G01X25792595Y6075281D01*
G01X25781165Y6052421D01*
G01X25769735Y6040991D01*
G01X25758305Y6035403D01*
G01X25752463Y6035403D01*
G01X25874637Y6121001D02*
G01X25943217Y6121001D01*
G01X25943217Y6132431D01*
G01X25937629Y6143861D01*
G01X25931787Y6149703D01*
G01X25920357Y6155291D01*
G01X25903339Y6155291D01*
G01X25891909Y6149703D01*
G01X25880479Y6138273D01*
G01X25874637Y6121001D01*
G01X25874637Y6109571D01*
G01X25880479Y6092553D01*
G01X25891909Y6081123D01*
G01X25903339Y6075281D01*
G01X25920357Y6075281D01*
G01X25931787Y6081123D01*
G01X25943217Y6092553D01*
G01X25990969Y6155291D02*
G01X25990969Y6075281D01*
G01X25990969Y6121001D02*
G01X25996811Y6138273D01*
G01X26008241Y6149703D01*
G01X26019671Y6155291D01*
G01X26036689Y6155291D01*
G01X11757716Y5586149D02*
G01X11757716Y5591991D01*
G01X11763304Y5603421D01*
G01X11769146Y5609009D01*
G01X11780576Y5614851D01*
G01X11803436Y5614851D01*
G01X11814866Y5609009D01*
G01X11820454Y5603421D01*
G01X11826296Y5591991D01*
G01X11826296Y5580561D01*
G01X11820454Y5569131D01*
G01X11809024Y5551859D01*
G01X11751874Y5494709D01*
G01X11831884Y5494709D01*
G01X13223187Y5614851D02*
G01X13166037Y5534841D01*
G01X13251889Y5534841D01*
G01X13223187Y5614851D02*
G01X13223187Y5494709D01*
G01X13379651Y5614851D02*
G01X13322501Y5494709D01*
G01X13299641Y5614851D02*
G01X13379651Y5614851D01*
G01X13433245Y5523411D02*
G01X13427403Y5517569D01*
G01X13433245Y5511981D01*
G01X13438833Y5517569D01*
G01X13433245Y5523411D01*
G01X13492427Y5586149D02*
G01X13492427Y5591991D01*
G01X13498015Y5603421D01*
G01X13503857Y5609009D01*
G01X13515287Y5614851D01*
G01X13538147Y5614851D01*
G01X13549577Y5609009D01*
G01X13555165Y5603421D01*
G01X13561007Y5591991D01*
G01X13561007Y5580561D01*
G01X13555165Y5569131D01*
G01X13543735Y5551859D01*
G01X13486585Y5494709D01*
G01X13566595Y5494709D01*
G01X13614347Y5574719D02*
G01X13614347Y5494709D01*
G01X13614347Y5551859D02*
G01X13631619Y5569131D01*
G01X13643049Y5574719D01*
G01X13660067Y5574719D01*
G01X13671497Y5569131D01*
G01X13677339Y5551859D01*
G01X13677339Y5494709D01*
G01X13677339Y5551859D02*
G01X13694357Y5569131D01*
G01X13705787Y5574719D01*
G01X13723059Y5574719D01*
G01X13734489Y5569131D01*
G01X13740077Y5551859D01*
G01X13740077Y5494709D01*
G01X13787829Y5614851D02*
G01X13793671Y5609009D01*
G01X13799259Y5614851D01*
G01X13793671Y5620439D01*
G01X13787829Y5614851D01*
G01X13793671Y5574719D02*
G01X13793671Y5494709D01*
G01X13847011Y5614851D02*
G01X13847011Y5494709D01*
G01X13934895Y5637711D02*
G01X13923465Y5626281D01*
G01X13912035Y5609009D01*
G01X13900605Y5586149D01*
G01X13894763Y5557701D01*
G01X13894763Y5534841D01*
G01X13900605Y5506139D01*
G01X13912035Y5483279D01*
G01X13923465Y5466261D01*
G01X13934895Y5454831D01*
G01X13982647Y5591991D02*
G01X13994077Y5597579D01*
G01X14011349Y5614851D01*
G01X14011349Y5494709D01*
G01X14064943Y5523411D02*
G01X14059101Y5517569D01*
G01X14064943Y5511981D01*
G01X14070531Y5517569D01*
G01X14064943Y5523411D01*
G01X14124125Y5586149D02*
G01X14124125Y5591991D01*
G01X14129713Y5603421D01*
G01X14135555Y5609009D01*
G01X14146985Y5614851D01*
G01X14169845Y5614851D01*
G01X14181275Y5609009D01*
G01X14186863Y5603421D01*
G01X14192705Y5591991D01*
G01X14192705Y5580561D01*
G01X14186863Y5569131D01*
G01X14175433Y5551859D01*
G01X14118283Y5494709D01*
G01X14198293Y5494709D01*
G01X14280335Y5614851D02*
G01X14263317Y5609009D01*
G01X14251887Y5591991D01*
G01X14246045Y5563289D01*
G01X14246045Y5546271D01*
G01X14251887Y5517569D01*
G01X14263317Y5500551D01*
G01X14280335Y5494709D01*
G01X14291765Y5494709D01*
G01X14309037Y5500551D01*
G01X14320467Y5517569D01*
G01X14326055Y5546271D01*
G01X14326055Y5563289D01*
G01X14320467Y5591991D01*
G01X14309037Y5609009D01*
G01X14291765Y5614851D01*
G01X14280335Y5614851D01*
G01X14408097Y5614851D02*
G01X14391079Y5609009D01*
G01X14379649Y5591991D01*
G01X14373807Y5563289D01*
G01X14373807Y5546271D01*
G01X14379649Y5517569D01*
G01X14391079Y5500551D01*
G01X14408097Y5494709D01*
G01X14419527Y5494709D01*
G01X14436799Y5500551D01*
G01X14448229Y5517569D01*
G01X14453817Y5546271D01*
G01X14453817Y5563289D01*
G01X14448229Y5591991D01*
G01X14436799Y5609009D01*
G01X14419527Y5614851D01*
G01X14408097Y5614851D01*
G01X14501569Y5574719D02*
G01X14501569Y5494709D01*
G01X14501569Y5551859D02*
G01X14518841Y5569131D01*
G01X14530271Y5574719D01*
G01X14547289Y5574719D01*
G01X14558719Y5569131D01*
G01X14564561Y5551859D01*
G01X14564561Y5494709D01*
G01X14564561Y5551859D02*
G01X14581579Y5569131D01*
G01X14593009Y5574719D01*
G01X14610281Y5574719D01*
G01X14621711Y5569131D01*
G01X14627299Y5551859D01*
G01X14627299Y5494709D01*
G01X14675051Y5574719D02*
G01X14675051Y5494709D01*
G01X14675051Y5551859D02*
G01X14692323Y5569131D01*
G01X14703753Y5574719D01*
G01X14720771Y5574719D01*
G01X14732201Y5569131D01*
G01X14738043Y5551859D01*
G01X14738043Y5494709D01*
G01X14738043Y5551859D02*
G01X14755061Y5569131D01*
G01X14766491Y5574719D01*
G01X14783763Y5574719D01*
G01X14795193Y5569131D01*
G01X14800781Y5551859D01*
G01X14800781Y5494709D01*
G01X14848533Y5637711D02*
G01X14859963Y5626281D01*
G01X14871393Y5609009D01*
G01X14882823Y5586149D01*
G01X14888665Y5557701D01*
G01X14888665Y5534841D01*
G01X14882823Y5506139D01*
G01X14871393Y5483279D01*
G01X14859963Y5466261D01*
G01X14848533Y5454831D01*
G01X16968563Y5614851D02*
G01X16968563Y5494709D01*
G01X16968563Y5614851D02*
G01X17048573Y5494709D01*
G01X17048573Y5614851D02*
G01X17048573Y5494709D01*
G01X17096325Y5614851D02*
G01X17096325Y5494709D01*
G01X17096325Y5614851D02*
G01X17147887Y5614851D01*
G01X17164905Y5609009D01*
G01X17170747Y5603421D01*
G01X17176335Y5591991D01*
G01X17176335Y5574719D01*
G01X17170747Y5563289D01*
G01X17164905Y5557701D01*
G01X17147887Y5551859D01*
G01X17096325Y5551859D01*
G01X17264219Y5614851D02*
G01X17264219Y5494709D01*
G01X17224087Y5614851D02*
G01X17304097Y5614851D01*
G01X17351849Y5614851D02*
G01X17351849Y5494709D01*
G01X17431859Y5614851D02*
G01X17431859Y5494709D01*
G01X17351849Y5557701D02*
G01X17431859Y5557701D01*
G01X18429970Y5614851D02*
G01X18429970Y5494709D01*
G01X18429970Y5614851D02*
G01X18481532Y5614851D01*
G01X18498550Y5609009D01*
G01X18504392Y5603421D01*
G01X18509980Y5591991D01*
G01X18509980Y5580561D01*
G01X18504392Y5569131D01*
G01X18498550Y5563289D01*
G01X18481532Y5557701D01*
G01X18429970Y5557701D01*
G01X18470102Y5557701D02*
G01X18509980Y5494709D01*
G01X18586434Y5574719D02*
G01X18575004Y5569131D01*
G01X18563574Y5557701D01*
G01X18557732Y5540429D01*
G01X18557732Y5528999D01*
G01X18563574Y5511981D01*
G01X18575004Y5500551D01*
G01X18586434Y5494709D01*
G01X18603452Y5494709D01*
G01X18614882Y5500551D01*
G01X18626312Y5511981D01*
G01X18632154Y5528999D01*
G01X18632154Y5540429D01*
G01X18626312Y5557701D01*
G01X18614882Y5569131D01*
G01X18603452Y5574719D01*
G01X18586434Y5574719D01*
G01X18679906Y5574719D02*
G01X18679906Y5517569D01*
G01X18685748Y5500551D01*
G01X18697178Y5494709D01*
G01X18714196Y5494709D01*
G01X18725626Y5500551D01*
G01X18742898Y5517569D01*
G01X18742898Y5574719D02*
G01X18742898Y5494709D01*
G01X18790650Y5574719D02*
G01X18790650Y5494709D01*
G01X18790650Y5551859D02*
G01X18807922Y5569131D01*
G01X18819352Y5574719D01*
G01X18836370Y5574719D01*
G01X18847800Y5569131D01*
G01X18853642Y5551859D01*
G01X18853642Y5494709D01*
G01X18969974Y5614851D02*
G01X18969974Y5494709D01*
G01X18969974Y5557701D02*
G01X18958544Y5569131D01*
G01X18947114Y5574719D01*
G01X18930096Y5574719D01*
G01X18918666Y5569131D01*
G01X18907236Y5557701D01*
G01X18901394Y5540429D01*
G01X18901394Y5528999D01*
G01X18907236Y5511981D01*
G01X18918666Y5500551D01*
G01X18930096Y5494709D01*
G01X18947114Y5494709D01*
G01X18958544Y5500551D01*
G01X18969974Y5511981D01*
G01X19861151Y5614851D02*
G01X19906871Y5494709D01*
G01X19952591Y5614851D02*
G01X19906871Y5494709D01*
G01X20000343Y5614851D02*
G01X20006185Y5609009D01*
G01X20011773Y5614851D01*
G01X20006185Y5620439D01*
G01X20000343Y5614851D01*
G01X20006185Y5574719D02*
G01X20006185Y5494709D01*
G01X20128105Y5574719D02*
G01X20128105Y5494709D01*
G01X20128105Y5557701D02*
G01X20116675Y5569131D01*
G01X20105245Y5574719D01*
G01X20088227Y5574719D01*
G01X20076797Y5569131D01*
G01X20065367Y5557701D01*
G01X20059525Y5540429D01*
G01X20059525Y5528999D01*
G01X20065367Y5511981D01*
G01X20076797Y5500551D01*
G01X20088227Y5494709D01*
G01X20105245Y5494709D01*
G01X20116675Y5500551D01*
G01X20128105Y5511981D01*
G01X23489831Y5614851D02*
G01X23489831Y5494709D01*
G01X23449699Y5614851D02*
G01X23529709Y5614851D01*
G01X23606163Y5574719D02*
G01X23594733Y5569131D01*
G01X23583303Y5557701D01*
G01X23577461Y5540429D01*
G01X23577461Y5528999D01*
G01X23583303Y5511981D01*
G01X23594733Y5500551D01*
G01X23606163Y5494709D01*
G01X23623181Y5494709D01*
G01X23634611Y5500551D01*
G01X23646041Y5511981D01*
G01X23651883Y5528999D01*
G01X23651883Y5540429D01*
G01X23646041Y5557701D01*
G01X23634611Y5569131D01*
G01X23623181Y5574719D01*
G01X23606163Y5574719D01*
G01X23699635Y5574719D02*
G01X23699635Y5454831D01*
G01X23699635Y5557701D02*
G01X23711065Y5569131D01*
G01X23722495Y5574719D01*
G01X23739767Y5574719D01*
G01X23751197Y5569131D01*
G01X23762627Y5557701D01*
G01X23768215Y5540429D01*
G01X23768215Y5528999D01*
G01X23762627Y5511981D01*
G01X23751197Y5500551D01*
G01X23739767Y5494709D01*
G01X23722495Y5494709D01*
G01X23711065Y5500551D01*
G01X23699635Y5511981D01*
G01X23943983Y5614851D02*
G01X23943983Y5494709D01*
G01X23943983Y5494709D02*
G01X24012563Y5494709D01*
G01X24128895Y5574719D02*
G01X24128895Y5494709D01*
G01X24128895Y5557701D02*
G01X24117465Y5569131D01*
G01X24106035Y5574719D01*
G01X24089017Y5574719D01*
G01X24077587Y5569131D01*
G01X24066157Y5557701D01*
G01X24060315Y5540429D01*
G01X24060315Y5528999D01*
G01X24066157Y5511981D01*
G01X24077587Y5500551D01*
G01X24089017Y5494709D01*
G01X24106035Y5494709D01*
G01X24117465Y5500551D01*
G01X24128895Y5511981D01*
G01X24182489Y5574719D02*
G01X24216779Y5494709D01*
G01X24251069Y5574719D02*
G01X24216779Y5494709D01*
G01X24205349Y5471849D01*
G01X24193919Y5460419D01*
G01X24182489Y5454831D01*
G01X24176647Y5454831D01*
G01X24298821Y5540429D02*
G01X24367401Y5540429D01*
G01X24367401Y5551859D01*
G01X24361813Y5563289D01*
G01X24355971Y5569131D01*
G01X24344541Y5574719D01*
G01X24327523Y5574719D01*
G01X24316093Y5569131D01*
G01X24304663Y5557701D01*
G01X24298821Y5540429D01*
G01X24298821Y5528999D01*
G01X24304663Y5511981D01*
G01X24316093Y5500551D01*
G01X24327523Y5494709D01*
G01X24344541Y5494709D01*
G01X24355971Y5500551D01*
G01X24367401Y5511981D01*
G01X24415153Y5574719D02*
G01X24415153Y5494709D01*
G01X24415153Y5540429D02*
G01X24420995Y5557701D01*
G01X24432425Y5569131D01*
G01X24443855Y5574719D01*
G01X24460873Y5574719D01*
G01X24508625Y5546271D02*
G01X24611495Y5546271D01*
G01X24659247Y5614851D02*
G01X24659247Y5494709D01*
G01X24659247Y5614851D02*
G01X24710809Y5614851D01*
G01X24727827Y5609009D01*
G01X24733669Y5603421D01*
G01X24739257Y5591991D01*
G01X24739257Y5580561D01*
G01X24733669Y5569131D01*
G01X24727827Y5563289D01*
G01X24710809Y5557701D01*
G01X24659247Y5557701D02*
G01X24710809Y5557701D01*
G01X24727827Y5551859D01*
G01X24733669Y5546271D01*
G01X24739257Y5534841D01*
G01X24739257Y5517569D01*
G01X24733669Y5506139D01*
G01X24727827Y5500551D01*
G01X24710809Y5494709D01*
G01X24659247Y5494709D01*
G01X24815711Y5574719D02*
G01X24804281Y5569131D01*
G01X24792851Y5557701D01*
G01X24787009Y5540429D01*
G01X24787009Y5528999D01*
G01X24792851Y5511981D01*
G01X24804281Y5500551D01*
G01X24815711Y5494709D01*
G01X24832729Y5494709D01*
G01X24844159Y5500551D01*
G01X24855589Y5511981D01*
G01X24861431Y5528999D01*
G01X24861431Y5540429D01*
G01X24855589Y5557701D01*
G01X24844159Y5569131D01*
G01X24832729Y5574719D01*
G01X24815711Y5574719D01*
G01X24926455Y5614851D02*
G01X24926455Y5517569D01*
G01X24932043Y5500551D01*
G01X24943473Y5494709D01*
G01X24954903Y5494709D01*
G01X24909183Y5574719D02*
G01X24949315Y5574719D01*
G01X25019927Y5614851D02*
G01X25019927Y5517569D01*
G01X25025515Y5500551D01*
G01X25036945Y5494709D01*
G01X25048375Y5494709D01*
G01X25002655Y5574719D02*
G01X25042787Y5574719D01*
G01X25124829Y5574719D02*
G01X25113399Y5569131D01*
G01X25101969Y5557701D01*
G01X25096127Y5540429D01*
G01X25096127Y5528999D01*
G01X25101969Y5511981D01*
G01X25113399Y5500551D01*
G01X25124829Y5494709D01*
G01X25141847Y5494709D01*
G01X25153277Y5500551D01*
G01X25164707Y5511981D01*
G01X25170549Y5528999D01*
G01X25170549Y5540429D01*
G01X25164707Y5557701D01*
G01X25153277Y5569131D01*
G01X25141847Y5574719D01*
G01X25124829Y5574719D01*
G01X25218301Y5574719D02*
G01X25218301Y5494709D01*
G01X25218301Y5551859D02*
G01X25235573Y5569131D01*
G01X25247003Y5574719D01*
G01X25264021Y5574719D01*
G01X25275451Y5569131D01*
G01X25281293Y5551859D01*
G01X25281293Y5494709D01*
G01X25281293Y5551859D02*
G01X25298311Y5569131D01*
G01X25309741Y5574719D01*
G01X25327013Y5574719D01*
G01X25338443Y5569131D01*
G01X25344031Y5551859D01*
G01X25344031Y5494709D01*
G01X25519799Y5614851D02*
G01X25519799Y5494709D01*
G01X25519799Y5494709D02*
G01X25588379Y5494709D01*
G01X25704711Y5574719D02*
G01X25704711Y5494709D01*
G01X25704711Y5557701D02*
G01X25693281Y5569131D01*
G01X25681851Y5574719D01*
G01X25664833Y5574719D01*
G01X25653403Y5569131D01*
G01X25641973Y5557701D01*
G01X25636131Y5540429D01*
G01X25636131Y5528999D01*
G01X25641973Y5511981D01*
G01X25653403Y5500551D01*
G01X25664833Y5494709D01*
G01X25681851Y5494709D01*
G01X25693281Y5500551D01*
G01X25704711Y5511981D01*
G01X25758305Y5574719D02*
G01X25792595Y5494709D01*
G01X25826885Y5574719D02*
G01X25792595Y5494709D01*
G01X25781165Y5471849D01*
G01X25769735Y5460419D01*
G01X25758305Y5454831D01*
G01X25752463Y5454831D01*
G01X25874637Y5540429D02*
G01X25943217Y5540429D01*
G01X25943217Y5551859D01*
G01X25937629Y5563289D01*
G01X25931787Y5569131D01*
G01X25920357Y5574719D01*
G01X25903339Y5574719D01*
G01X25891909Y5569131D01*
G01X25880479Y5557701D01*
G01X25874637Y5540429D01*
G01X25874637Y5528999D01*
G01X25880479Y5511981D01*
G01X25891909Y5500551D01*
G01X25903339Y5494709D01*
G01X25920357Y5494709D01*
G01X25931787Y5500551D01*
G01X25943217Y5511981D01*
G01X25990969Y5574719D02*
G01X25990969Y5494709D01*
G01X25990969Y5540429D02*
G01X25996811Y5557701D01*
G01X26008241Y5569131D01*
G01X26019671Y5574719D01*
G01X26036689Y5574719D01*
G01X11763304Y5034280D02*
G01X11826296Y5034280D01*
G01X11792006Y4988560D01*
G01X11809024Y4988560D01*
G01X11820454Y4982718D01*
G01X11826296Y4977130D01*
G01X11831884Y4959858D01*
G01X11831884Y4948428D01*
G01X11826296Y4931410D01*
G01X11814866Y4919980D01*
G01X11797594Y4914138D01*
G01X11780576Y4914138D01*
G01X11763304Y4919980D01*
G01X11757716Y4925568D01*
G01X11751874Y4936998D01*
G01X13166037Y5011420D02*
G01X13177467Y5017008D01*
G01X13194739Y5034280D01*
G01X13194739Y4914138D01*
G01X13248333Y5005578D02*
G01X13248333Y5011420D01*
G01X13253921Y5022850D01*
G01X13259763Y5028438D01*
G01X13271193Y5034280D01*
G01X13294053Y5034280D01*
G01X13305483Y5028438D01*
G01X13311071Y5022850D01*
G01X13316913Y5011420D01*
G01X13316913Y4999990D01*
G01X13311071Y4988560D01*
G01X13299641Y4971288D01*
G01X13242491Y4914138D01*
G01X13322501Y4914138D01*
G01X13438833Y5017008D02*
G01X13433245Y5028438D01*
G01X13415973Y5034280D01*
G01X13404543Y5034280D01*
G01X13387525Y5028438D01*
G01X13376095Y5011420D01*
G01X13370253Y4982718D01*
G01X13370253Y4954270D01*
G01X13376095Y4931410D01*
G01X13387525Y4919980D01*
G01X13404543Y4914138D01*
G01X13410385Y4914138D01*
G01X13427403Y4919980D01*
G01X13438833Y4931410D01*
G01X13444675Y4948428D01*
G01X13444675Y4954270D01*
G01X13438833Y4971288D01*
G01X13427403Y4982718D01*
G01X13410385Y4988560D01*
G01X13404543Y4988560D01*
G01X13387525Y4982718D01*
G01X13376095Y4971288D01*
G01X13370253Y4954270D01*
G01X13498269Y4942840D02*
G01X13492427Y4936998D01*
G01X13498269Y4931410D01*
G01X13503857Y4936998D01*
G01X13498269Y4942840D01*
G01X13585899Y5034280D02*
G01X13568881Y5028438D01*
G01X13557451Y5011420D01*
G01X13551609Y4982718D01*
G01X13551609Y4965700D01*
G01X13557451Y4936998D01*
G01X13568881Y4919980D01*
G01X13585899Y4914138D01*
G01X13597329Y4914138D01*
G01X13614601Y4919980D01*
G01X13626031Y4936998D01*
G01X13631619Y4965700D01*
G01X13631619Y4982718D01*
G01X13626031Y5011420D01*
G01X13614601Y5028438D01*
G01X13597329Y5034280D01*
G01X13585899Y5034280D01*
G01X13679371Y4994148D02*
G01X13679371Y4914138D01*
G01X13679371Y4971288D02*
G01X13696643Y4988560D01*
G01X13708073Y4994148D01*
G01X13725091Y4994148D01*
G01X13736521Y4988560D01*
G01X13742363Y4971288D01*
G01X13742363Y4914138D01*
G01X13742363Y4971288D02*
G01X13759381Y4988560D01*
G01X13770811Y4994148D01*
G01X13788083Y4994148D01*
G01X13799513Y4988560D01*
G01X13805101Y4971288D01*
G01X13805101Y4914138D01*
G01X13852853Y5034280D02*
G01X13858695Y5028438D01*
G01X13864283Y5034280D01*
G01X13858695Y5039868D01*
G01X13852853Y5034280D01*
G01X13858695Y4994148D02*
G01X13858695Y4914138D01*
G01X13912035Y5034280D02*
G01X13912035Y4914138D01*
G01X13999919Y5057140D02*
G01X13988489Y5045710D01*
G01X13977059Y5028438D01*
G01X13965629Y5005578D01*
G01X13959787Y4977130D01*
G01X13959787Y4954270D01*
G01X13965629Y4925568D01*
G01X13977059Y4902708D01*
G01X13988489Y4885690D01*
G01X13999919Y4874260D01*
G01X14059101Y5034280D02*
G01X14122093Y5034280D01*
G01X14087803Y4988560D01*
G01X14104821Y4988560D01*
G01X14116251Y4982718D01*
G01X14122093Y4977130D01*
G01X14127681Y4959858D01*
G01X14127681Y4948428D01*
G01X14122093Y4931410D01*
G01X14110663Y4919980D01*
G01X14093391Y4914138D01*
G01X14076373Y4914138D01*
G01X14059101Y4919980D01*
G01X14053513Y4925568D01*
G01X14047671Y4936998D01*
G01X14181275Y4942840D02*
G01X14175433Y4936998D01*
G01X14181275Y4931410D01*
G01X14186863Y4936998D01*
G01X14181275Y4942840D01*
G01X14240457Y5005578D02*
G01X14240457Y5011420D01*
G01X14246045Y5022850D01*
G01X14251887Y5028438D01*
G01X14263317Y5034280D01*
G01X14286177Y5034280D01*
G01X14297607Y5028438D01*
G01X14303195Y5022850D01*
G01X14309037Y5011420D01*
G01X14309037Y4999990D01*
G01X14303195Y4988560D01*
G01X14291765Y4971288D01*
G01X14234615Y4914138D01*
G01X14314625Y4914138D01*
G01X14396667Y5034280D02*
G01X14379649Y5028438D01*
G01X14368219Y5011420D01*
G01X14362377Y4982718D01*
G01X14362377Y4965700D01*
G01X14368219Y4936998D01*
G01X14379649Y4919980D01*
G01X14396667Y4914138D01*
G01X14408097Y4914138D01*
G01X14425369Y4919980D01*
G01X14436799Y4936998D01*
G01X14442387Y4965700D01*
G01X14442387Y4982718D01*
G01X14436799Y5011420D01*
G01X14425369Y5028438D01*
G01X14408097Y5034280D01*
G01X14396667Y5034280D01*
G01X14524429Y5034280D02*
G01X14507411Y5028438D01*
G01X14495981Y5011420D01*
G01X14490139Y4982718D01*
G01X14490139Y4965700D01*
G01X14495981Y4936998D01*
G01X14507411Y4919980D01*
G01X14524429Y4914138D01*
G01X14535859Y4914138D01*
G01X14553131Y4919980D01*
G01X14564561Y4936998D01*
G01X14570149Y4965700D01*
G01X14570149Y4982718D01*
G01X14564561Y5011420D01*
G01X14553131Y5028438D01*
G01X14535859Y5034280D01*
G01X14524429Y5034280D01*
G01X14617901Y4994148D02*
G01X14617901Y4914138D01*
G01X14617901Y4971288D02*
G01X14635173Y4988560D01*
G01X14646603Y4994148D01*
G01X14663621Y4994148D01*
G01X14675051Y4988560D01*
G01X14680893Y4971288D01*
G01X14680893Y4914138D01*
G01X14680893Y4971288D02*
G01X14697911Y4988560D01*
G01X14709341Y4994148D01*
G01X14726613Y4994148D01*
G01X14738043Y4988560D01*
G01X14743631Y4971288D01*
G01X14743631Y4914138D01*
G01X14791383Y4994148D02*
G01X14791383Y4914138D01*
G01X14791383Y4971288D02*
G01X14808655Y4988560D01*
G01X14820085Y4994148D01*
G01X14837103Y4994148D01*
G01X14848533Y4988560D01*
G01X14854375Y4971288D01*
G01X14854375Y4914138D01*
G01X14854375Y4971288D02*
G01X14871393Y4988560D01*
G01X14882823Y4994148D01*
G01X14900095Y4994148D01*
G01X14911525Y4988560D01*
G01X14917113Y4971288D01*
G01X14917113Y4914138D01*
G01X14964865Y5057140D02*
G01X14976295Y5045710D01*
G01X14987725Y5028438D01*
G01X14999155Y5005578D01*
G01X15004997Y4977130D01*
G01X15004997Y4954270D01*
G01X14999155Y4925568D01*
G01X14987725Y4902708D01*
G01X14976295Y4885690D01*
G01X14964865Y4874260D01*
G01X16968563Y5034280D02*
G01X16968563Y4914138D01*
G01X16968563Y5034280D02*
G01X17048573Y4914138D01*
G01X17048573Y5034280D02*
G01X17048573Y4914138D01*
G01X17096325Y5034280D02*
G01X17096325Y4914138D01*
G01X17096325Y5034280D02*
G01X17147887Y5034280D01*
G01X17164905Y5028438D01*
G01X17170747Y5022850D01*
G01X17176335Y5011420D01*
G01X17176335Y4994148D01*
G01X17170747Y4982718D01*
G01X17164905Y4977130D01*
G01X17147887Y4971288D01*
G01X17096325Y4971288D01*
G01X17264219Y5034280D02*
G01X17264219Y4914138D01*
G01X17224087Y5034280D02*
G01X17304097Y5034280D01*
G01X17351849Y5034280D02*
G01X17351849Y4914138D01*
G01X17431859Y5034280D02*
G01X17431859Y4914138D01*
G01X17351849Y4977130D02*
G01X17431859Y4977130D01*
G01X18429970Y5034280D02*
G01X18429970Y4914138D01*
G01X18429970Y5034280D02*
G01X18481532Y5034280D01*
G01X18498550Y5028438D01*
G01X18504392Y5022850D01*
G01X18509980Y5011420D01*
G01X18509980Y4999990D01*
G01X18504392Y4988560D01*
G01X18498550Y4982718D01*
G01X18481532Y4977130D01*
G01X18429970Y4977130D01*
G01X18470102Y4977130D02*
G01X18509980Y4914138D01*
G01X18586434Y4994148D02*
G01X18575004Y4988560D01*
G01X18563574Y4977130D01*
G01X18557732Y4959858D01*
G01X18557732Y4948428D01*
G01X18563574Y4931410D01*
G01X18575004Y4919980D01*
G01X18586434Y4914138D01*
G01X18603452Y4914138D01*
G01X18614882Y4919980D01*
G01X18626312Y4931410D01*
G01X18632154Y4948428D01*
G01X18632154Y4959858D01*
G01X18626312Y4977130D01*
G01X18614882Y4988560D01*
G01X18603452Y4994148D01*
G01X18586434Y4994148D01*
G01X18679906Y4994148D02*
G01X18679906Y4936998D01*
G01X18685748Y4919980D01*
G01X18697178Y4914138D01*
G01X18714196Y4914138D01*
G01X18725626Y4919980D01*
G01X18742898Y4936998D01*
G01X18742898Y4994148D02*
G01X18742898Y4914138D01*
G01X18790650Y4994148D02*
G01X18790650Y4914138D01*
G01X18790650Y4971288D02*
G01X18807922Y4988560D01*
G01X18819352Y4994148D01*
G01X18836370Y4994148D01*
G01X18847800Y4988560D01*
G01X18853642Y4971288D01*
G01X18853642Y4914138D01*
G01X18969974Y5034280D02*
G01X18969974Y4914138D01*
G01X18969974Y4977130D02*
G01X18958544Y4988560D01*
G01X18947114Y4994148D01*
G01X18930096Y4994148D01*
G01X18918666Y4988560D01*
G01X18907236Y4977130D01*
G01X18901394Y4959858D01*
G01X18901394Y4948428D01*
G01X18907236Y4931410D01*
G01X18918666Y4919980D01*
G01X18930096Y4914138D01*
G01X18947114Y4914138D01*
G01X18958544Y4919980D01*
G01X18969974Y4931410D01*
G01X19861151Y5034280D02*
G01X19906871Y4914138D01*
G01X19952591Y5034280D02*
G01X19906871Y4914138D01*
G01X20000343Y5034280D02*
G01X20006185Y5028438D01*
G01X20011773Y5034280D01*
G01X20006185Y5039868D01*
G01X20000343Y5034280D01*
G01X20006185Y4994148D02*
G01X20006185Y4914138D01*
G01X20128105Y4994148D02*
G01X20128105Y4914138D01*
G01X20128105Y4977130D02*
G01X20116675Y4988560D01*
G01X20105245Y4994148D01*
G01X20088227Y4994148D01*
G01X20076797Y4988560D01*
G01X20065367Y4977130D01*
G01X20059525Y4959858D01*
G01X20059525Y4948428D01*
G01X20065367Y4931410D01*
G01X20076797Y4919980D01*
G01X20088227Y4914138D01*
G01X20105245Y4914138D01*
G01X20116675Y4919980D01*
G01X20128105Y4931410D01*
G01X23489831Y5034280D02*
G01X23489831Y4914138D01*
G01X23449699Y5034280D02*
G01X23529709Y5034280D01*
G01X23606163Y4994148D02*
G01X23594733Y4988560D01*
G01X23583303Y4977130D01*
G01X23577461Y4959858D01*
G01X23577461Y4948428D01*
G01X23583303Y4931410D01*
G01X23594733Y4919980D01*
G01X23606163Y4914138D01*
G01X23623181Y4914138D01*
G01X23634611Y4919980D01*
G01X23646041Y4931410D01*
G01X23651883Y4948428D01*
G01X23651883Y4959858D01*
G01X23646041Y4977130D01*
G01X23634611Y4988560D01*
G01X23623181Y4994148D01*
G01X23606163Y4994148D01*
G01X23699635Y4994148D02*
G01X23699635Y4874260D01*
G01X23699635Y4977130D02*
G01X23711065Y4988560D01*
G01X23722495Y4994148D01*
G01X23739767Y4994148D01*
G01X23751197Y4988560D01*
G01X23762627Y4977130D01*
G01X23768215Y4959858D01*
G01X23768215Y4948428D01*
G01X23762627Y4931410D01*
G01X23751197Y4919980D01*
G01X23739767Y4914138D01*
G01X23722495Y4914138D01*
G01X23711065Y4919980D01*
G01X23699635Y4931410D01*
G01X23943983Y5034280D02*
G01X23943983Y4914138D01*
G01X23943983Y4914138D02*
G01X24012563Y4914138D01*
G01X24128895Y4994148D02*
G01X24128895Y4914138D01*
G01X24128895Y4977130D02*
G01X24117465Y4988560D01*
G01X24106035Y4994148D01*
G01X24089017Y4994148D01*
G01X24077587Y4988560D01*
G01X24066157Y4977130D01*
G01X24060315Y4959858D01*
G01X24060315Y4948428D01*
G01X24066157Y4931410D01*
G01X24077587Y4919980D01*
G01X24089017Y4914138D01*
G01X24106035Y4914138D01*
G01X24117465Y4919980D01*
G01X24128895Y4931410D01*
G01X24182489Y4994148D02*
G01X24216779Y4914138D01*
G01X24251069Y4994148D02*
G01X24216779Y4914138D01*
G01X24205349Y4891278D01*
G01X24193919Y4879848D01*
G01X24182489Y4874260D01*
G01X24176647Y4874260D01*
G01X24298821Y4959858D02*
G01X24367401Y4959858D01*
G01X24367401Y4971288D01*
G01X24361813Y4982718D01*
G01X24355971Y4988560D01*
G01X24344541Y4994148D01*
G01X24327523Y4994148D01*
G01X24316093Y4988560D01*
G01X24304663Y4977130D01*
G01X24298821Y4959858D01*
G01X24298821Y4948428D01*
G01X24304663Y4931410D01*
G01X24316093Y4919980D01*
G01X24327523Y4914138D01*
G01X24344541Y4914138D01*
G01X24355971Y4919980D01*
G01X24367401Y4931410D01*
G01X24415153Y4994148D02*
G01X24415153Y4914138D01*
G01X24415153Y4959858D02*
G01X24420995Y4977130D01*
G01X24432425Y4988560D01*
G01X24443855Y4994148D01*
G01X24460873Y4994148D01*
G01X24508625Y4965700D02*
G01X24611495Y4965700D01*
G01X24659247Y5034280D02*
G01X24659247Y4914138D01*
G01X24659247Y5034280D02*
G01X24710809Y5034280D01*
G01X24727827Y5028438D01*
G01X24733669Y5022850D01*
G01X24739257Y5011420D01*
G01X24739257Y4999990D01*
G01X24733669Y4988560D01*
G01X24727827Y4982718D01*
G01X24710809Y4977130D01*
G01X24659247Y4977130D02*
G01X24710809Y4977130D01*
G01X24727827Y4971288D01*
G01X24733669Y4965700D01*
G01X24739257Y4954270D01*
G01X24739257Y4936998D01*
G01X24733669Y4925568D01*
G01X24727827Y4919980D01*
G01X24710809Y4914138D01*
G01X24659247Y4914138D01*
G01X24815711Y4994148D02*
G01X24804281Y4988560D01*
G01X24792851Y4977130D01*
G01X24787009Y4959858D01*
G01X24787009Y4948428D01*
G01X24792851Y4931410D01*
G01X24804281Y4919980D01*
G01X24815711Y4914138D01*
G01X24832729Y4914138D01*
G01X24844159Y4919980D01*
G01X24855589Y4931410D01*
G01X24861431Y4948428D01*
G01X24861431Y4959858D01*
G01X24855589Y4977130D01*
G01X24844159Y4988560D01*
G01X24832729Y4994148D01*
G01X24815711Y4994148D01*
G01X24926455Y5034280D02*
G01X24926455Y4936998D01*
G01X24932043Y4919980D01*
G01X24943473Y4914138D01*
G01X24954903Y4914138D01*
G01X24909183Y4994148D02*
G01X24949315Y4994148D01*
G01X25019927Y5034280D02*
G01X25019927Y4936998D01*
G01X25025515Y4919980D01*
G01X25036945Y4914138D01*
G01X25048375Y4914138D01*
G01X25002655Y4994148D02*
G01X25042787Y4994148D01*
G01X25124829Y4994148D02*
G01X25113399Y4988560D01*
G01X25101969Y4977130D01*
G01X25096127Y4959858D01*
G01X25096127Y4948428D01*
G01X25101969Y4931410D01*
G01X25113399Y4919980D01*
G01X25124829Y4914138D01*
G01X25141847Y4914138D01*
G01X25153277Y4919980D01*
G01X25164707Y4931410D01*
G01X25170549Y4948428D01*
G01X25170549Y4959858D01*
G01X25164707Y4977130D01*
G01X25153277Y4988560D01*
G01X25141847Y4994148D01*
G01X25124829Y4994148D01*
G01X25218301Y4994148D02*
G01X25218301Y4914138D01*
G01X25218301Y4971288D02*
G01X25235573Y4988560D01*
G01X25247003Y4994148D01*
G01X25264021Y4994148D01*
G01X25275451Y4988560D01*
G01X25281293Y4971288D01*
G01X25281293Y4914138D01*
G01X25281293Y4971288D02*
G01X25298311Y4988560D01*
G01X25309741Y4994148D01*
G01X25327013Y4994148D01*
G01X25338443Y4988560D01*
G01X25344031Y4971288D01*
G01X25344031Y4914138D01*
G01X25519799Y5034280D02*
G01X25519799Y4914138D01*
G01X25519799Y4914138D02*
G01X25588379Y4914138D01*
G01X25704711Y4994148D02*
G01X25704711Y4914138D01*
G01X25704711Y4977130D02*
G01X25693281Y4988560D01*
G01X25681851Y4994148D01*
G01X25664833Y4994148D01*
G01X25653403Y4988560D01*
G01X25641973Y4977130D01*
G01X25636131Y4959858D01*
G01X25636131Y4948428D01*
G01X25641973Y4931410D01*
G01X25653403Y4919980D01*
G01X25664833Y4914138D01*
G01X25681851Y4914138D01*
G01X25693281Y4919980D01*
G01X25704711Y4931410D01*
G01X25758305Y4994148D02*
G01X25792595Y4914138D01*
G01X25826885Y4994148D02*
G01X25792595Y4914138D01*
G01X25781165Y4891278D01*
G01X25769735Y4879848D01*
G01X25758305Y4874260D01*
G01X25752463Y4874260D01*
G01X25874637Y4959858D02*
G01X25943217Y4959858D01*
G01X25943217Y4971288D01*
G01X25937629Y4982718D01*
G01X25931787Y4988560D01*
G01X25920357Y4994148D01*
G01X25903339Y4994148D01*
G01X25891909Y4988560D01*
G01X25880479Y4977130D01*
G01X25874637Y4959858D01*
G01X25874637Y4948428D01*
G01X25880479Y4931410D01*
G01X25891909Y4919980D01*
G01X25903339Y4914138D01*
G01X25920357Y4914138D01*
G01X25931787Y4919980D01*
G01X25943217Y4931410D01*
G01X25990969Y4994148D02*
G01X25990969Y4914138D01*
G01X25990969Y4959858D02*
G01X25996811Y4977130D01*
G01X26008241Y4988560D01*
G01X26019671Y4994148D01*
G01X26036689Y4994148D01*
G01X11809024Y4453709D02*
G01X11751874Y4373699D01*
G01X11837726Y4373699D01*
G01X11809024Y4453709D02*
G01X11809024Y4333567D01*
G01X13223187Y4453709D02*
G01X13166037Y4373699D01*
G01X13251889Y4373699D01*
G01X13223187Y4453709D02*
G01X13223187Y4333567D01*
G01X13379651Y4453709D02*
G01X13322501Y4333567D01*
G01X13299641Y4453709D02*
G01X13379651Y4453709D01*
G01X13433245Y4362269D02*
G01X13427403Y4356427D01*
G01X13433245Y4350839D01*
G01X13438833Y4356427D01*
G01X13433245Y4362269D01*
G01X13492427Y4425007D02*
G01X13492427Y4430849D01*
G01X13498015Y4442279D01*
G01X13503857Y4447867D01*
G01X13515287Y4453709D01*
G01X13538147Y4453709D01*
G01X13549577Y4447867D01*
G01X13555165Y4442279D01*
G01X13561007Y4430849D01*
G01X13561007Y4419419D01*
G01X13555165Y4407989D01*
G01X13543735Y4390717D01*
G01X13486585Y4333567D01*
G01X13566595Y4333567D01*
G01X13614347Y4413577D02*
G01X13677339Y4333567D01*
G01X13677339Y4413577D02*
G01X13614347Y4333567D01*
G01X13782241Y4453709D02*
G01X13725091Y4373699D01*
G01X13810943Y4373699D01*
G01X13782241Y4453709D02*
G01X13782241Y4333567D01*
G01X13938705Y4453709D02*
G01X13881555Y4333567D01*
G01X13858695Y4453709D02*
G01X13938705Y4453709D01*
G01X13992299Y4362269D02*
G01X13986457Y4356427D01*
G01X13992299Y4350839D01*
G01X13997887Y4356427D01*
G01X13992299Y4362269D01*
G01X14051481Y4425007D02*
G01X14051481Y4430849D01*
G01X14057069Y4442279D01*
G01X14062911Y4447867D01*
G01X14074341Y4453709D01*
G01X14097201Y4453709D01*
G01X14108631Y4447867D01*
G01X14114219Y4442279D01*
G01X14120061Y4430849D01*
G01X14120061Y4419419D01*
G01X14114219Y4407989D01*
G01X14102789Y4390717D01*
G01X14045639Y4333567D01*
G01X14125649Y4333567D01*
G01X14173401Y4413577D02*
G01X14173401Y4333567D01*
G01X14173401Y4390717D02*
G01X14190673Y4407989D01*
G01X14202103Y4413577D01*
G01X14219121Y4413577D01*
G01X14230551Y4407989D01*
G01X14236393Y4390717D01*
G01X14236393Y4333567D01*
G01X14236393Y4390717D02*
G01X14253411Y4407989D01*
G01X14264841Y4413577D01*
G01X14282113Y4413577D01*
G01X14293543Y4407989D01*
G01X14299131Y4390717D01*
G01X14299131Y4333567D01*
G01X14346883Y4453709D02*
G01X14352725Y4447867D01*
G01X14358313Y4453709D01*
G01X14352725Y4459297D01*
G01X14346883Y4453709D01*
G01X14352725Y4413577D02*
G01X14352725Y4333567D01*
G01X14406065Y4453709D02*
G01X14406065Y4333567D01*
G01X14493949Y4476569D02*
G01X14482519Y4465139D01*
G01X14471089Y4447867D01*
G01X14459659Y4425007D01*
G01X14453817Y4396559D01*
G01X14453817Y4373699D01*
G01X14459659Y4344997D01*
G01X14471089Y4322137D01*
G01X14482519Y4305119D01*
G01X14493949Y4293689D01*
G01X14541701Y4430849D02*
G01X14553131Y4436437D01*
G01X14570403Y4453709D01*
G01X14570403Y4333567D01*
G01X14623997Y4362269D02*
G01X14618155Y4356427D01*
G01X14623997Y4350839D01*
G01X14629585Y4356427D01*
G01X14623997Y4362269D01*
G01X14683179Y4425007D02*
G01X14683179Y4430849D01*
G01X14688767Y4442279D01*
G01X14694609Y4447867D01*
G01X14706039Y4453709D01*
G01X14728899Y4453709D01*
G01X14740329Y4447867D01*
G01X14745917Y4442279D01*
G01X14751759Y4430849D01*
G01X14751759Y4419419D01*
G01X14745917Y4407989D01*
G01X14734487Y4390717D01*
G01X14677337Y4333567D01*
G01X14757347Y4333567D01*
G01X14839389Y4453709D02*
G01X14822371Y4447867D01*
G01X14810941Y4430849D01*
G01X14805099Y4402147D01*
G01X14805099Y4385129D01*
G01X14810941Y4356427D01*
G01X14822371Y4339409D01*
G01X14839389Y4333567D01*
G01X14850819Y4333567D01*
G01X14868091Y4339409D01*
G01X14879521Y4356427D01*
G01X14885109Y4385129D01*
G01X14885109Y4402147D01*
G01X14879521Y4430849D01*
G01X14868091Y4447867D01*
G01X14850819Y4453709D01*
G01X14839389Y4453709D01*
G01X14967151Y4453709D02*
G01X14950133Y4447867D01*
G01X14938703Y4430849D01*
G01X14932861Y4402147D01*
G01X14932861Y4385129D01*
G01X14938703Y4356427D01*
G01X14950133Y4339409D01*
G01X14967151Y4333567D01*
G01X14978581Y4333567D01*
G01X14995853Y4339409D01*
G01X15007283Y4356427D01*
G01X15012871Y4385129D01*
G01X15012871Y4402147D01*
G01X15007283Y4430849D01*
G01X14995853Y4447867D01*
G01X14978581Y4453709D01*
G01X14967151Y4453709D01*
G01X15060623Y4413577D02*
G01X15123615Y4333567D01*
G01X15123615Y4413577D02*
G01X15060623Y4333567D01*
G01X15171367Y4430849D02*
G01X15182797Y4436437D01*
G01X15200069Y4453709D01*
G01X15200069Y4333567D01*
G01X15253663Y4362269D02*
G01X15247821Y4356427D01*
G01X15253663Y4350839D01*
G01X15259251Y4356427D01*
G01X15253663Y4362269D01*
G01X15312845Y4425007D02*
G01X15312845Y4430849D01*
G01X15318433Y4442279D01*
G01X15324275Y4447867D01*
G01X15335705Y4453709D01*
G01X15358565Y4453709D01*
G01X15369995Y4447867D01*
G01X15375583Y4442279D01*
G01X15381425Y4430849D01*
G01X15381425Y4419419D01*
G01X15375583Y4407989D01*
G01X15364153Y4390717D01*
G01X15307003Y4333567D01*
G01X15387013Y4333567D01*
G01X15469055Y4453709D02*
G01X15452037Y4447867D01*
G01X15440607Y4430849D01*
G01X15434765Y4402147D01*
G01X15434765Y4385129D01*
G01X15440607Y4356427D01*
G01X15452037Y4339409D01*
G01X15469055Y4333567D01*
G01X15480485Y4333567D01*
G01X15497757Y4339409D01*
G01X15509187Y4356427D01*
G01X15514775Y4385129D01*
G01X15514775Y4402147D01*
G01X15509187Y4430849D01*
G01X15497757Y4447867D01*
G01X15480485Y4453709D01*
G01X15469055Y4453709D01*
G01X15596817Y4453709D02*
G01X15579799Y4447867D01*
G01X15568369Y4430849D01*
G01X15562527Y4402147D01*
G01X15562527Y4385129D01*
G01X15568369Y4356427D01*
G01X15579799Y4339409D01*
G01X15596817Y4333567D01*
G01X15608247Y4333567D01*
G01X15625519Y4339409D01*
G01X15636949Y4356427D01*
G01X15642537Y4385129D01*
G01X15642537Y4402147D01*
G01X15636949Y4430849D01*
G01X15625519Y4447867D01*
G01X15608247Y4453709D01*
G01X15596817Y4453709D01*
G01X15690289Y4413577D02*
G01X15690289Y4333567D01*
G01X15690289Y4390717D02*
G01X15707561Y4407989D01*
G01X15718991Y4413577D01*
G01X15736009Y4413577D01*
G01X15747439Y4407989D01*
G01X15753281Y4390717D01*
G01X15753281Y4333567D01*
G01X15753281Y4390717D02*
G01X15770299Y4407989D01*
G01X15781729Y4413577D01*
G01X15799001Y4413577D01*
G01X15810431Y4407989D01*
G01X15816019Y4390717D01*
G01X15816019Y4333567D01*
G01X15863771Y4413577D02*
G01X15863771Y4333567D01*
G01X15863771Y4390717D02*
G01X15881043Y4407989D01*
G01X15892473Y4413577D01*
G01X15909491Y4413577D01*
G01X15920921Y4407989D01*
G01X15926763Y4390717D01*
G01X15926763Y4333567D01*
G01X15926763Y4390717D02*
G01X15943781Y4407989D01*
G01X15955211Y4413577D01*
G01X15972483Y4413577D01*
G01X15983913Y4407989D01*
G01X15989501Y4390717D01*
G01X15989501Y4333567D01*
G01X16037253Y4476569D02*
G01X16048683Y4465139D01*
G01X16060113Y4447867D01*
G01X16071543Y4425007D01*
G01X16077385Y4396559D01*
G01X16077385Y4373699D01*
G01X16071543Y4344997D01*
G01X16060113Y4322137D01*
G01X16048683Y4305119D01*
G01X16037253Y4293689D01*
G01X16968563Y4453709D02*
G01X16968563Y4333567D01*
G01X16968563Y4453709D02*
G01X17020125Y4453709D01*
G01X17037143Y4447867D01*
G01X17042985Y4442279D01*
G01X17048573Y4430849D01*
G01X17048573Y4413577D01*
G01X17042985Y4402147D01*
G01X17037143Y4396559D01*
G01X17020125Y4390717D01*
G01X16968563Y4390717D01*
G01X17136457Y4453709D02*
G01X17136457Y4333567D01*
G01X17096325Y4453709D02*
G01X17176335Y4453709D01*
G01X17224087Y4453709D02*
G01X17224087Y4333567D01*
G01X17304097Y4453709D02*
G01X17304097Y4333567D01*
G01X17224087Y4396559D02*
G01X17304097Y4396559D01*
G01X18429970Y4453709D02*
G01X18429970Y4333567D01*
G01X18429970Y4453709D02*
G01X18481532Y4453709D01*
G01X18498550Y4447867D01*
G01X18504392Y4442279D01*
G01X18509980Y4430849D01*
G01X18509980Y4419419D01*
G01X18504392Y4407989D01*
G01X18498550Y4402147D01*
G01X18481532Y4396559D01*
G01X18429970Y4396559D01*
G01X18470102Y4396559D02*
G01X18509980Y4333567D01*
G01X18586434Y4413577D02*
G01X18575004Y4407989D01*
G01X18563574Y4396559D01*
G01X18557732Y4379287D01*
G01X18557732Y4367857D01*
G01X18563574Y4350839D01*
G01X18575004Y4339409D01*
G01X18586434Y4333567D01*
G01X18603452Y4333567D01*
G01X18614882Y4339409D01*
G01X18626312Y4350839D01*
G01X18632154Y4367857D01*
G01X18632154Y4379287D01*
G01X18626312Y4396559D01*
G01X18614882Y4407989D01*
G01X18603452Y4413577D01*
G01X18586434Y4413577D01*
G01X18679906Y4413577D02*
G01X18679906Y4356427D01*
G01X18685748Y4339409D01*
G01X18697178Y4333567D01*
G01X18714196Y4333567D01*
G01X18725626Y4339409D01*
G01X18742898Y4356427D01*
G01X18742898Y4413577D02*
G01X18742898Y4333567D01*
G01X18790650Y4413577D02*
G01X18790650Y4333567D01*
G01X18790650Y4390717D02*
G01X18807922Y4407989D01*
G01X18819352Y4413577D01*
G01X18836370Y4413577D01*
G01X18847800Y4407989D01*
G01X18853642Y4390717D01*
G01X18853642Y4333567D01*
G01X18969974Y4453709D02*
G01X18969974Y4333567D01*
G01X18969974Y4396559D02*
G01X18958544Y4407989D01*
G01X18947114Y4413577D01*
G01X18930096Y4413577D01*
G01X18918666Y4407989D01*
G01X18907236Y4396559D01*
G01X18901394Y4379287D01*
G01X18901394Y4367857D01*
G01X18907236Y4350839D01*
G01X18918666Y4339409D01*
G01X18930096Y4333567D01*
G01X18947114Y4333567D01*
G01X18958544Y4339409D01*
G01X18969974Y4350839D01*
G01X19861151Y4453709D02*
G01X19861151Y4333567D01*
G01X19861151Y4453709D02*
G01X19912713Y4453709D01*
G01X19929731Y4447867D01*
G01X19935573Y4442279D01*
G01X19941161Y4430849D01*
G01X19941161Y4413577D01*
G01X19935573Y4402147D01*
G01X19929731Y4396559D01*
G01X19912713Y4390717D01*
G01X19861151Y4390717D01*
G01X20057493Y4413577D02*
G01X20057493Y4333567D01*
G01X20057493Y4396559D02*
G01X20046063Y4407989D01*
G01X20034633Y4413577D01*
G01X20017615Y4413577D01*
G01X20006185Y4407989D01*
G01X19994755Y4396559D01*
G01X19988913Y4379287D01*
G01X19988913Y4367857D01*
G01X19994755Y4350839D01*
G01X20006185Y4339409D01*
G01X20017615Y4333567D01*
G01X20034633Y4333567D01*
G01X20046063Y4339409D01*
G01X20057493Y4350839D01*
G01X20173825Y4453709D02*
G01X20173825Y4333567D01*
G01X20173825Y4396559D02*
G01X20162395Y4407989D01*
G01X20150965Y4413577D01*
G01X20133947Y4413577D01*
G01X20122517Y4407989D01*
G01X20111087Y4396559D01*
G01X20105245Y4379287D01*
G01X20105245Y4367857D01*
G01X20111087Y4350839D01*
G01X20122517Y4339409D01*
G01X20133947Y4333567D01*
G01X20150965Y4333567D01*
G01X20162395Y4339409D01*
G01X20173825Y4350839D01*
G01X21570462Y4476569D02*
G01X21559032Y4465139D01*
G01X21547602Y4447867D01*
G01X21536172Y4425007D01*
G01X21530330Y4396559D01*
G01X21530330Y4373699D01*
G01X21536172Y4344997D01*
G01X21547602Y4322137D01*
G01X21559032Y4305119D01*
G01X21570462Y4293689D01*
G01X21618214Y4453709D02*
G01X21618214Y4333567D01*
G01X21618214Y4453709D02*
G01X21663934Y4333567D01*
G01X21709654Y4453709D02*
G01X21663934Y4333567D01*
G01X21709654Y4453709D02*
G01X21709654Y4333567D01*
G01X21757406Y4453709D02*
G01X21763248Y4447867D01*
G01X21768836Y4453709D01*
G01X21763248Y4459297D01*
G01X21757406Y4453709D01*
G01X21763248Y4413577D02*
G01X21763248Y4333567D01*
G01X21816588Y4413577D02*
G01X21879580Y4333567D01*
G01X21879580Y4413577D02*
G01X21816588Y4333567D01*
G01X21927332Y4379287D02*
G01X21995912Y4379287D01*
G01X21995912Y4390717D01*
G01X21990324Y4402147D01*
G01X21984482Y4407989D01*
G01X21973052Y4413577D01*
G01X21956034Y4413577D01*
G01X21944604Y4407989D01*
G01X21933174Y4396559D01*
G01X21927332Y4379287D01*
G01X21927332Y4367857D01*
G01X21933174Y4350839D01*
G01X21944604Y4339409D01*
G01X21956034Y4333567D01*
G01X21973052Y4333567D01*
G01X21984482Y4339409D01*
G01X21995912Y4350839D01*
G01X22112244Y4453709D02*
G01X22112244Y4333567D01*
G01X22112244Y4396559D02*
G01X22100814Y4407989D01*
G01X22089384Y4413577D01*
G01X22072366Y4413577D01*
G01X22060936Y4407989D01*
G01X22049506Y4396559D01*
G01X22043664Y4379287D01*
G01X22043664Y4367857D01*
G01X22049506Y4350839D01*
G01X22060936Y4339409D01*
G01X22072366Y4333567D01*
G01X22089384Y4333567D01*
G01X22100814Y4339409D01*
G01X22112244Y4350839D01*
G01X22159996Y4476569D02*
G01X22171426Y4465139D01*
G01X22182856Y4447867D01*
G01X22194286Y4425007D01*
G01X22200128Y4396559D01*
G01X22200128Y4373699D01*
G01X22194286Y4344997D01*
G01X22182856Y4322137D01*
G01X22171426Y4305119D01*
G01X22159996Y4293689D01*
G01X23489831Y4453709D02*
G01X23489831Y4333567D01*
G01X23449699Y4453709D02*
G01X23529709Y4453709D01*
G01X23606163Y4413577D02*
G01X23594733Y4407989D01*
G01X23583303Y4396559D01*
G01X23577461Y4379287D01*
G01X23577461Y4367857D01*
G01X23583303Y4350839D01*
G01X23594733Y4339409D01*
G01X23606163Y4333567D01*
G01X23623181Y4333567D01*
G01X23634611Y4339409D01*
G01X23646041Y4350839D01*
G01X23651883Y4367857D01*
G01X23651883Y4379287D01*
G01X23646041Y4396559D01*
G01X23634611Y4407989D01*
G01X23623181Y4413577D01*
G01X23606163Y4413577D01*
G01X23699635Y4413577D02*
G01X23699635Y4293689D01*
G01X23699635Y4396559D02*
G01X23711065Y4407989D01*
G01X23722495Y4413577D01*
G01X23739767Y4413577D01*
G01X23751197Y4407989D01*
G01X23762627Y4396559D01*
G01X23768215Y4379287D01*
G01X23768215Y4367857D01*
G01X23762627Y4350839D01*
G01X23751197Y4339409D01*
G01X23739767Y4333567D01*
G01X23722495Y4333567D01*
G01X23711065Y4339409D01*
G01X23699635Y4350839D01*
G01X23943983Y4453709D02*
G01X23943983Y4333567D01*
G01X23943983Y4333567D02*
G01X24012563Y4333567D01*
G01X24128895Y4413577D02*
G01X24128895Y4333567D01*
G01X24128895Y4396559D02*
G01X24117465Y4407989D01*
G01X24106035Y4413577D01*
G01X24089017Y4413577D01*
G01X24077587Y4407989D01*
G01X24066157Y4396559D01*
G01X24060315Y4379287D01*
G01X24060315Y4367857D01*
G01X24066157Y4350839D01*
G01X24077587Y4339409D01*
G01X24089017Y4333567D01*
G01X24106035Y4333567D01*
G01X24117465Y4339409D01*
G01X24128895Y4350839D01*
G01X24182489Y4413577D02*
G01X24216779Y4333567D01*
G01X24251069Y4413577D02*
G01X24216779Y4333567D01*
G01X24205349Y4310707D01*
G01X24193919Y4299277D01*
G01X24182489Y4293689D01*
G01X24176647Y4293689D01*
G01X24298821Y4379287D02*
G01X24367401Y4379287D01*
G01X24367401Y4390717D01*
G01X24361813Y4402147D01*
G01X24355971Y4407989D01*
G01X24344541Y4413577D01*
G01X24327523Y4413577D01*
G01X24316093Y4407989D01*
G01X24304663Y4396559D01*
G01X24298821Y4379287D01*
G01X24298821Y4367857D01*
G01X24304663Y4350839D01*
G01X24316093Y4339409D01*
G01X24327523Y4333567D01*
G01X24344541Y4333567D01*
G01X24355971Y4339409D01*
G01X24367401Y4350839D01*
G01X24415153Y4413577D02*
G01X24415153Y4333567D01*
G01X24415153Y4379287D02*
G01X24420995Y4396559D01*
G01X24432425Y4407989D01*
G01X24443855Y4413577D01*
G01X24460873Y4413577D01*
G01X24508625Y4385129D02*
G01X24611495Y4385129D01*
G01X24659247Y4453709D02*
G01X24659247Y4333567D01*
G01X24659247Y4453709D02*
G01X24710809Y4453709D01*
G01X24727827Y4447867D01*
G01X24733669Y4442279D01*
G01X24739257Y4430849D01*
G01X24739257Y4419419D01*
G01X24733669Y4407989D01*
G01X24727827Y4402147D01*
G01X24710809Y4396559D01*
G01X24659247Y4396559D02*
G01X24710809Y4396559D01*
G01X24727827Y4390717D01*
G01X24733669Y4385129D01*
G01X24739257Y4373699D01*
G01X24739257Y4356427D01*
G01X24733669Y4344997D01*
G01X24727827Y4339409D01*
G01X24710809Y4333567D01*
G01X24659247Y4333567D01*
G01X24815711Y4413577D02*
G01X24804281Y4407989D01*
G01X24792851Y4396559D01*
G01X24787009Y4379287D01*
G01X24787009Y4367857D01*
G01X24792851Y4350839D01*
G01X24804281Y4339409D01*
G01X24815711Y4333567D01*
G01X24832729Y4333567D01*
G01X24844159Y4339409D01*
G01X24855589Y4350839D01*
G01X24861431Y4367857D01*
G01X24861431Y4379287D01*
G01X24855589Y4396559D01*
G01X24844159Y4407989D01*
G01X24832729Y4413577D01*
G01X24815711Y4413577D01*
G01X24926455Y4453709D02*
G01X24926455Y4356427D01*
G01X24932043Y4339409D01*
G01X24943473Y4333567D01*
G01X24954903Y4333567D01*
G01X24909183Y4413577D02*
G01X24949315Y4413577D01*
G01X25019927Y4453709D02*
G01X25019927Y4356427D01*
G01X25025515Y4339409D01*
G01X25036945Y4333567D01*
G01X25048375Y4333567D01*
G01X25002655Y4413577D02*
G01X25042787Y4413577D01*
G01X25124829Y4413577D02*
G01X25113399Y4407989D01*
G01X25101969Y4396559D01*
G01X25096127Y4379287D01*
G01X25096127Y4367857D01*
G01X25101969Y4350839D01*
G01X25113399Y4339409D01*
G01X25124829Y4333567D01*
G01X25141847Y4333567D01*
G01X25153277Y4339409D01*
G01X25164707Y4350839D01*
G01X25170549Y4367857D01*
G01X25170549Y4379287D01*
G01X25164707Y4396559D01*
G01X25153277Y4407989D01*
G01X25141847Y4413577D01*
G01X25124829Y4413577D01*
G01X25218301Y4413577D02*
G01X25218301Y4333567D01*
G01X25218301Y4390717D02*
G01X25235573Y4407989D01*
G01X25247003Y4413577D01*
G01X25264021Y4413577D01*
G01X25275451Y4407989D01*
G01X25281293Y4390717D01*
G01X25281293Y4333567D01*
G01X25281293Y4390717D02*
G01X25298311Y4407989D01*
G01X25309741Y4413577D01*
G01X25327013Y4413577D01*
G01X25338443Y4407989D01*
G01X25344031Y4390717D01*
G01X25344031Y4333567D01*
G01X25519799Y4453709D02*
G01X25519799Y4333567D01*
G01X25519799Y4333567D02*
G01X25588379Y4333567D01*
G01X25704711Y4413577D02*
G01X25704711Y4333567D01*
G01X25704711Y4396559D02*
G01X25693281Y4407989D01*
G01X25681851Y4413577D01*
G01X25664833Y4413577D01*
G01X25653403Y4407989D01*
G01X25641973Y4396559D01*
G01X25636131Y4379287D01*
G01X25636131Y4367857D01*
G01X25641973Y4350839D01*
G01X25653403Y4339409D01*
G01X25664833Y4333567D01*
G01X25681851Y4333567D01*
G01X25693281Y4339409D01*
G01X25704711Y4350839D01*
G01X25758305Y4413577D02*
G01X25792595Y4333567D01*
G01X25826885Y4413577D02*
G01X25792595Y4333567D01*
G01X25781165Y4310707D01*
G01X25769735Y4299277D01*
G01X25758305Y4293689D01*
G01X25752463Y4293689D01*
G01X25874637Y4379287D02*
G01X25943217Y4379287D01*
G01X25943217Y4390717D01*
G01X25937629Y4402147D01*
G01X25931787Y4407989D01*
G01X25920357Y4413577D01*
G01X25903339Y4413577D01*
G01X25891909Y4407989D01*
G01X25880479Y4396559D01*
G01X25874637Y4379287D01*
G01X25874637Y4367857D01*
G01X25880479Y4350839D01*
G01X25891909Y4339409D01*
G01X25903339Y4333567D01*
G01X25920357Y4333567D01*
G01X25931787Y4339409D01*
G01X25943217Y4350839D01*
G01X25990969Y4413577D02*
G01X25990969Y4333567D01*
G01X25990969Y4379287D02*
G01X25996811Y4396559D01*
G01X26008241Y4407989D01*
G01X26019671Y4413577D01*
G01X26036689Y4413577D01*
G01X11751874Y3850277D02*
G01X11763304Y3855865D01*
G01X11780576Y3873137D01*
G01X11780576Y3752995D01*
G01X11862618Y3873137D02*
G01X11845600Y3867295D01*
G01X11834170Y3850277D01*
G01X11828328Y3821575D01*
G01X11828328Y3804557D01*
G01X11834170Y3775855D01*
G01X11845600Y3758837D01*
G01X11862618Y3752995D01*
G01X11874048Y3752995D01*
G01X11891320Y3758837D01*
G01X11902750Y3775855D01*
G01X11908338Y3804557D01*
G01X11908338Y3821575D01*
G01X11902750Y3850277D01*
G01X11891320Y3867295D01*
G01X11874048Y3873137D01*
G01X11862618Y3873137D01*
G01X13177467Y3873137D02*
G01X13240459Y3873137D01*
G01X13206169Y3827417D01*
G01X13223187Y3827417D01*
G01X13234617Y3821575D01*
G01X13240459Y3815987D01*
G01X13246047Y3798715D01*
G01X13246047Y3787285D01*
G01X13240459Y3770267D01*
G01X13229029Y3758837D01*
G01X13211757Y3752995D01*
G01X13194739Y3752995D01*
G01X13177467Y3758837D01*
G01X13171879Y3764425D01*
G01X13166037Y3775855D01*
G01X13368221Y3833005D02*
G01X13362379Y3815987D01*
G01X13350949Y3804557D01*
G01X13333931Y3798715D01*
G01X13328089Y3798715D01*
G01X13311071Y3804557D01*
G01X13299641Y3815987D01*
G01X13293799Y3833005D01*
G01X13293799Y3838847D01*
G01X13299641Y3855865D01*
G01X13311071Y3867295D01*
G01X13328089Y3873137D01*
G01X13333931Y3873137D01*
G01X13350949Y3867295D01*
G01X13362379Y3855865D01*
G01X13368221Y3833005D01*
G01X13368221Y3804557D01*
G01X13362379Y3775855D01*
G01X13350949Y3758837D01*
G01X13333931Y3752995D01*
G01X13322501Y3752995D01*
G01X13305229Y3758837D01*
G01X13299641Y3770267D01*
G01X13421815Y3781697D02*
G01X13415973Y3775855D01*
G01X13421815Y3770267D01*
G01X13427403Y3775855D01*
G01X13421815Y3781697D01*
G01X13532305Y3873137D02*
G01X13475155Y3793127D01*
G01X13561007Y3793127D01*
G01X13532305Y3873137D02*
G01X13532305Y3752995D01*
G01X13608759Y3833005D02*
G01X13671751Y3752995D01*
G01X13671751Y3833005D02*
G01X13608759Y3752995D01*
G01X13730933Y3873137D02*
G01X13793925Y3873137D01*
G01X13759635Y3827417D01*
G01X13776653Y3827417D01*
G01X13788083Y3821575D01*
G01X13793925Y3815987D01*
G01X13799513Y3798715D01*
G01X13799513Y3787285D01*
G01X13793925Y3770267D01*
G01X13782495Y3758837D01*
G01X13765223Y3752995D01*
G01X13748205Y3752995D01*
G01X13730933Y3758837D01*
G01X13725345Y3764425D01*
G01X13719503Y3775855D01*
G01X13921687Y3833005D02*
G01X13915845Y3815987D01*
G01X13904415Y3804557D01*
G01X13887397Y3798715D01*
G01X13881555Y3798715D01*
G01X13864537Y3804557D01*
G01X13853107Y3815987D01*
G01X13847265Y3833005D01*
G01X13847265Y3838847D01*
G01X13853107Y3855865D01*
G01X13864537Y3867295D01*
G01X13881555Y3873137D01*
G01X13887397Y3873137D01*
G01X13904415Y3867295D01*
G01X13915845Y3855865D01*
G01X13921687Y3833005D01*
G01X13921687Y3804557D01*
G01X13915845Y3775855D01*
G01X13904415Y3758837D01*
G01X13887397Y3752995D01*
G01X13875967Y3752995D01*
G01X13858695Y3758837D01*
G01X13853107Y3770267D01*
G01X13975281Y3781697D02*
G01X13969439Y3775855D01*
G01X13975281Y3770267D01*
G01X13980869Y3775855D01*
G01X13975281Y3781697D01*
G01X14085771Y3873137D02*
G01X14028621Y3793127D01*
G01X14114473Y3793127D01*
G01X14085771Y3873137D02*
G01X14085771Y3752995D01*
G01X14162225Y3833005D02*
G01X14162225Y3752995D01*
G01X14162225Y3810145D02*
G01X14179497Y3827417D01*
G01X14190927Y3833005D01*
G01X14207945Y3833005D01*
G01X14219375Y3827417D01*
G01X14225217Y3810145D01*
G01X14225217Y3752995D01*
G01X14225217Y3810145D02*
G01X14242235Y3827417D01*
G01X14253665Y3833005D01*
G01X14270937Y3833005D01*
G01X14282367Y3827417D01*
G01X14287955Y3810145D01*
G01X14287955Y3752995D01*
G01X14335707Y3873137D02*
G01X14341549Y3867295D01*
G01X14347137Y3873137D01*
G01X14341549Y3878725D01*
G01X14335707Y3873137D01*
G01X14341549Y3833005D02*
G01X14341549Y3752995D01*
G01X14394889Y3873137D02*
G01X14394889Y3752995D01*
G01X14482773Y3895997D02*
G01X14471343Y3884567D01*
G01X14459913Y3867295D01*
G01X14448483Y3844435D01*
G01X14442641Y3815987D01*
G01X14442641Y3793127D01*
G01X14448483Y3764425D01*
G01X14459913Y3741565D01*
G01X14471343Y3724547D01*
G01X14482773Y3713117D01*
G01X14530525Y3850277D02*
G01X14541955Y3855865D01*
G01X14559227Y3873137D01*
G01X14559227Y3752995D01*
G01X14612821Y3781697D02*
G01X14606979Y3775855D01*
G01X14612821Y3770267D01*
G01X14618409Y3775855D01*
G01X14612821Y3781697D01*
G01X14700451Y3873137D02*
G01X14683433Y3867295D01*
G01X14672003Y3850277D01*
G01X14666161Y3821575D01*
G01X14666161Y3804557D01*
G01X14672003Y3775855D01*
G01X14683433Y3758837D01*
G01X14700451Y3752995D01*
G01X14711881Y3752995D01*
G01X14729153Y3758837D01*
G01X14740583Y3775855D01*
G01X14746171Y3804557D01*
G01X14746171Y3821575D01*
G01X14740583Y3850277D01*
G01X14729153Y3867295D01*
G01X14711881Y3873137D01*
G01X14700451Y3873137D01*
G01X14828213Y3873137D02*
G01X14811195Y3867295D01*
G01X14799765Y3850277D01*
G01X14793923Y3821575D01*
G01X14793923Y3804557D01*
G01X14799765Y3775855D01*
G01X14811195Y3758837D01*
G01X14828213Y3752995D01*
G01X14839643Y3752995D01*
G01X14856915Y3758837D01*
G01X14868345Y3775855D01*
G01X14873933Y3804557D01*
G01X14873933Y3821575D01*
G01X14868345Y3850277D01*
G01X14856915Y3867295D01*
G01X14839643Y3873137D01*
G01X14828213Y3873137D01*
G01X14955975Y3873137D02*
G01X14938957Y3867295D01*
G01X14927527Y3850277D01*
G01X14921685Y3821575D01*
G01X14921685Y3804557D01*
G01X14927527Y3775855D01*
G01X14938957Y3758837D01*
G01X14955975Y3752995D01*
G01X14967405Y3752995D01*
G01X14984677Y3758837D01*
G01X14996107Y3775855D01*
G01X15001695Y3804557D01*
G01X15001695Y3821575D01*
G01X14996107Y3850277D01*
G01X14984677Y3867295D01*
G01X14967405Y3873137D01*
G01X14955975Y3873137D01*
G01X15049447Y3833005D02*
G01X15112439Y3752995D01*
G01X15112439Y3833005D02*
G01X15049447Y3752995D01*
G01X15160191Y3850277D02*
G01X15171621Y3855865D01*
G01X15188893Y3873137D01*
G01X15188893Y3752995D01*
G01X15242487Y3781697D02*
G01X15236645Y3775855D01*
G01X15242487Y3770267D01*
G01X15248075Y3775855D01*
G01X15242487Y3781697D01*
G01X15330117Y3873137D02*
G01X15313099Y3867295D01*
G01X15301669Y3850277D01*
G01X15295827Y3821575D01*
G01X15295827Y3804557D01*
G01X15301669Y3775855D01*
G01X15313099Y3758837D01*
G01X15330117Y3752995D01*
G01X15341547Y3752995D01*
G01X15358819Y3758837D01*
G01X15370249Y3775855D01*
G01X15375837Y3804557D01*
G01X15375837Y3821575D01*
G01X15370249Y3850277D01*
G01X15358819Y3867295D01*
G01X15341547Y3873137D01*
G01X15330117Y3873137D01*
G01X15457879Y3873137D02*
G01X15440861Y3867295D01*
G01X15429431Y3850277D01*
G01X15423589Y3821575D01*
G01X15423589Y3804557D01*
G01X15429431Y3775855D01*
G01X15440861Y3758837D01*
G01X15457879Y3752995D01*
G01X15469309Y3752995D01*
G01X15486581Y3758837D01*
G01X15498011Y3775855D01*
G01X15503599Y3804557D01*
G01X15503599Y3821575D01*
G01X15498011Y3850277D01*
G01X15486581Y3867295D01*
G01X15469309Y3873137D01*
G01X15457879Y3873137D01*
G01X15585641Y3873137D02*
G01X15568623Y3867295D01*
G01X15557193Y3850277D01*
G01X15551351Y3821575D01*
G01X15551351Y3804557D01*
G01X15557193Y3775855D01*
G01X15568623Y3758837D01*
G01X15585641Y3752995D01*
G01X15597071Y3752995D01*
G01X15614343Y3758837D01*
G01X15625773Y3775855D01*
G01X15631361Y3804557D01*
G01X15631361Y3821575D01*
G01X15625773Y3850277D01*
G01X15614343Y3867295D01*
G01X15597071Y3873137D01*
G01X15585641Y3873137D01*
G01X15679113Y3833005D02*
G01X15679113Y3752995D01*
G01X15679113Y3810145D02*
G01X15696385Y3827417D01*
G01X15707815Y3833005D01*
G01X15724833Y3833005D01*
G01X15736263Y3827417D01*
G01X15742105Y3810145D01*
G01X15742105Y3752995D01*
G01X15742105Y3810145D02*
G01X15759123Y3827417D01*
G01X15770553Y3833005D01*
G01X15787825Y3833005D01*
G01X15799255Y3827417D01*
G01X15804843Y3810145D01*
G01X15804843Y3752995D01*
G01X15852595Y3833005D02*
G01X15852595Y3752995D01*
G01X15852595Y3810145D02*
G01X15869867Y3827417D01*
G01X15881297Y3833005D01*
G01X15898315Y3833005D01*
G01X15909745Y3827417D01*
G01X15915587Y3810145D01*
G01X15915587Y3752995D01*
G01X15915587Y3810145D02*
G01X15932605Y3827417D01*
G01X15944035Y3833005D01*
G01X15961307Y3833005D01*
G01X15972737Y3827417D01*
G01X15978325Y3810145D01*
G01X15978325Y3752995D01*
G01X16026077Y3895997D02*
G01X16037507Y3884567D01*
G01X16048937Y3867295D01*
G01X16060367Y3844435D01*
G01X16066209Y3815987D01*
G01X16066209Y3793127D01*
G01X16060367Y3764425D01*
G01X16048937Y3741565D01*
G01X16037507Y3724547D01*
G01X16026077Y3713117D01*
G01X16968563Y3873137D02*
G01X16968563Y3752995D01*
G01X16968563Y3873137D02*
G01X17020125Y3873137D01*
G01X17037143Y3867295D01*
G01X17042985Y3861707D01*
G01X17048573Y3850277D01*
G01X17048573Y3833005D01*
G01X17042985Y3821575D01*
G01X17037143Y3815987D01*
G01X17020125Y3810145D01*
G01X16968563Y3810145D01*
G01X17136457Y3873137D02*
G01X17136457Y3752995D01*
G01X17096325Y3873137D02*
G01X17176335Y3873137D01*
G01X17224087Y3873137D02*
G01X17224087Y3752995D01*
G01X17304097Y3873137D02*
G01X17304097Y3752995D01*
G01X17224087Y3815987D02*
G01X17304097Y3815987D01*
G01X18429970Y3873137D02*
G01X18429970Y3752995D01*
G01X18429970Y3873137D02*
G01X18481532Y3873137D01*
G01X18498550Y3867295D01*
G01X18504392Y3861707D01*
G01X18509980Y3850277D01*
G01X18509980Y3838847D01*
G01X18504392Y3827417D01*
G01X18498550Y3821575D01*
G01X18481532Y3815987D01*
G01X18429970Y3815987D01*
G01X18470102Y3815987D02*
G01X18509980Y3752995D01*
G01X18586434Y3833005D02*
G01X18575004Y3827417D01*
G01X18563574Y3815987D01*
G01X18557732Y3798715D01*
G01X18557732Y3787285D01*
G01X18563574Y3770267D01*
G01X18575004Y3758837D01*
G01X18586434Y3752995D01*
G01X18603452Y3752995D01*
G01X18614882Y3758837D01*
G01X18626312Y3770267D01*
G01X18632154Y3787285D01*
G01X18632154Y3798715D01*
G01X18626312Y3815987D01*
G01X18614882Y3827417D01*
G01X18603452Y3833005D01*
G01X18586434Y3833005D01*
G01X18679906Y3833005D02*
G01X18679906Y3775855D01*
G01X18685748Y3758837D01*
G01X18697178Y3752995D01*
G01X18714196Y3752995D01*
G01X18725626Y3758837D01*
G01X18742898Y3775855D01*
G01X18742898Y3833005D02*
G01X18742898Y3752995D01*
G01X18790650Y3833005D02*
G01X18790650Y3752995D01*
G01X18790650Y3810145D02*
G01X18807922Y3827417D01*
G01X18819352Y3833005D01*
G01X18836370Y3833005D01*
G01X18847800Y3827417D01*
G01X18853642Y3810145D01*
G01X18853642Y3752995D01*
G01X18969974Y3873137D02*
G01X18969974Y3752995D01*
G01X18969974Y3815987D02*
G01X18958544Y3827417D01*
G01X18947114Y3833005D01*
G01X18930096Y3833005D01*
G01X18918666Y3827417D01*
G01X18907236Y3815987D01*
G01X18901394Y3798715D01*
G01X18901394Y3787285D01*
G01X18907236Y3770267D01*
G01X18918666Y3758837D01*
G01X18930096Y3752995D01*
G01X18947114Y3752995D01*
G01X18958544Y3758837D01*
G01X18969974Y3770267D01*
G01X19861151Y3873137D02*
G01X19861151Y3752995D01*
G01X19861151Y3873137D02*
G01X19912713Y3873137D01*
G01X19929731Y3867295D01*
G01X19935573Y3861707D01*
G01X19941161Y3850277D01*
G01X19941161Y3833005D01*
G01X19935573Y3821575D01*
G01X19929731Y3815987D01*
G01X19912713Y3810145D01*
G01X19861151Y3810145D01*
G01X20057493Y3833005D02*
G01X20057493Y3752995D01*
G01X20057493Y3815987D02*
G01X20046063Y3827417D01*
G01X20034633Y3833005D01*
G01X20017615Y3833005D01*
G01X20006185Y3827417D01*
G01X19994755Y3815987D01*
G01X19988913Y3798715D01*
G01X19988913Y3787285D01*
G01X19994755Y3770267D01*
G01X20006185Y3758837D01*
G01X20017615Y3752995D01*
G01X20034633Y3752995D01*
G01X20046063Y3758837D01*
G01X20057493Y3770267D01*
G01X20173825Y3873137D02*
G01X20173825Y3752995D01*
G01X20173825Y3815987D02*
G01X20162395Y3827417D01*
G01X20150965Y3833005D01*
G01X20133947Y3833005D01*
G01X20122517Y3827417D01*
G01X20111087Y3815987D01*
G01X20105245Y3798715D01*
G01X20105245Y3787285D01*
G01X20111087Y3770267D01*
G01X20122517Y3758837D01*
G01X20133947Y3752995D01*
G01X20150965Y3752995D01*
G01X20162395Y3758837D01*
G01X20173825Y3770267D01*
G01X21570462Y3895997D02*
G01X21559032Y3884567D01*
G01X21547602Y3867295D01*
G01X21536172Y3844435D01*
G01X21530330Y3815987D01*
G01X21530330Y3793127D01*
G01X21536172Y3764425D01*
G01X21547602Y3741565D01*
G01X21559032Y3724547D01*
G01X21570462Y3713117D01*
G01X21618214Y3873137D02*
G01X21618214Y3752995D01*
G01X21618214Y3873137D02*
G01X21663934Y3752995D01*
G01X21709654Y3873137D02*
G01X21663934Y3752995D01*
G01X21709654Y3873137D02*
G01X21709654Y3752995D01*
G01X21757406Y3873137D02*
G01X21763248Y3867295D01*
G01X21768836Y3873137D01*
G01X21763248Y3878725D01*
G01X21757406Y3873137D01*
G01X21763248Y3833005D02*
G01X21763248Y3752995D01*
G01X21816588Y3833005D02*
G01X21879580Y3752995D01*
G01X21879580Y3833005D02*
G01X21816588Y3752995D01*
G01X21927332Y3798715D02*
G01X21995912Y3798715D01*
G01X21995912Y3810145D01*
G01X21990324Y3821575D01*
G01X21984482Y3827417D01*
G01X21973052Y3833005D01*
G01X21956034Y3833005D01*
G01X21944604Y3827417D01*
G01X21933174Y3815987D01*
G01X21927332Y3798715D01*
G01X21927332Y3787285D01*
G01X21933174Y3770267D01*
G01X21944604Y3758837D01*
G01X21956034Y3752995D01*
G01X21973052Y3752995D01*
G01X21984482Y3758837D01*
G01X21995912Y3770267D01*
G01X22112244Y3873137D02*
G01X22112244Y3752995D01*
G01X22112244Y3815987D02*
G01X22100814Y3827417D01*
G01X22089384Y3833005D01*
G01X22072366Y3833005D01*
G01X22060936Y3827417D01*
G01X22049506Y3815987D01*
G01X22043664Y3798715D01*
G01X22043664Y3787285D01*
G01X22049506Y3770267D01*
G01X22060936Y3758837D01*
G01X22072366Y3752995D01*
G01X22089384Y3752995D01*
G01X22100814Y3758837D01*
G01X22112244Y3770267D01*
G01X22159996Y3895997D02*
G01X22171426Y3884567D01*
G01X22182856Y3867295D01*
G01X22194286Y3844435D01*
G01X22200128Y3815987D01*
G01X22200128Y3793127D01*
G01X22194286Y3764425D01*
G01X22182856Y3741565D01*
G01X22171426Y3724547D01*
G01X22159996Y3713117D01*
G01X23489831Y3873137D02*
G01X23489831Y3752995D01*
G01X23449699Y3873137D02*
G01X23529709Y3873137D01*
G01X23606163Y3833005D02*
G01X23594733Y3827417D01*
G01X23583303Y3815987D01*
G01X23577461Y3798715D01*
G01X23577461Y3787285D01*
G01X23583303Y3770267D01*
G01X23594733Y3758837D01*
G01X23606163Y3752995D01*
G01X23623181Y3752995D01*
G01X23634611Y3758837D01*
G01X23646041Y3770267D01*
G01X23651883Y3787285D01*
G01X23651883Y3798715D01*
G01X23646041Y3815987D01*
G01X23634611Y3827417D01*
G01X23623181Y3833005D01*
G01X23606163Y3833005D01*
G01X23699635Y3833005D02*
G01X23699635Y3713117D01*
G01X23699635Y3815987D02*
G01X23711065Y3827417D01*
G01X23722495Y3833005D01*
G01X23739767Y3833005D01*
G01X23751197Y3827417D01*
G01X23762627Y3815987D01*
G01X23768215Y3798715D01*
G01X23768215Y3787285D01*
G01X23762627Y3770267D01*
G01X23751197Y3758837D01*
G01X23739767Y3752995D01*
G01X23722495Y3752995D01*
G01X23711065Y3758837D01*
G01X23699635Y3770267D01*
G01X23943983Y3873137D02*
G01X23943983Y3752995D01*
G01X23943983Y3752995D02*
G01X24012563Y3752995D01*
G01X24128895Y3833005D02*
G01X24128895Y3752995D01*
G01X24128895Y3815987D02*
G01X24117465Y3827417D01*
G01X24106035Y3833005D01*
G01X24089017Y3833005D01*
G01X24077587Y3827417D01*
G01X24066157Y3815987D01*
G01X24060315Y3798715D01*
G01X24060315Y3787285D01*
G01X24066157Y3770267D01*
G01X24077587Y3758837D01*
G01X24089017Y3752995D01*
G01X24106035Y3752995D01*
G01X24117465Y3758837D01*
G01X24128895Y3770267D01*
G01X24182489Y3833005D02*
G01X24216779Y3752995D01*
G01X24251069Y3833005D02*
G01X24216779Y3752995D01*
G01X24205349Y3730135D01*
G01X24193919Y3718705D01*
G01X24182489Y3713117D01*
G01X24176647Y3713117D01*
G01X24298821Y3798715D02*
G01X24367401Y3798715D01*
G01X24367401Y3810145D01*
G01X24361813Y3821575D01*
G01X24355971Y3827417D01*
G01X24344541Y3833005D01*
G01X24327523Y3833005D01*
G01X24316093Y3827417D01*
G01X24304663Y3815987D01*
G01X24298821Y3798715D01*
G01X24298821Y3787285D01*
G01X24304663Y3770267D01*
G01X24316093Y3758837D01*
G01X24327523Y3752995D01*
G01X24344541Y3752995D01*
G01X24355971Y3758837D01*
G01X24367401Y3770267D01*
G01X24415153Y3833005D02*
G01X24415153Y3752995D01*
G01X24415153Y3798715D02*
G01X24420995Y3815987D01*
G01X24432425Y3827417D01*
G01X24443855Y3833005D01*
G01X24460873Y3833005D01*
G01X24508625Y3804557D02*
G01X24611495Y3804557D01*
G01X24659247Y3873137D02*
G01X24659247Y3752995D01*
G01X24659247Y3873137D02*
G01X24710809Y3873137D01*
G01X24727827Y3867295D01*
G01X24733669Y3861707D01*
G01X24739257Y3850277D01*
G01X24739257Y3838847D01*
G01X24733669Y3827417D01*
G01X24727827Y3821575D01*
G01X24710809Y3815987D01*
G01X24659247Y3815987D02*
G01X24710809Y3815987D01*
G01X24727827Y3810145D01*
G01X24733669Y3804557D01*
G01X24739257Y3793127D01*
G01X24739257Y3775855D01*
G01X24733669Y3764425D01*
G01X24727827Y3758837D01*
G01X24710809Y3752995D01*
G01X24659247Y3752995D01*
G01X24815711Y3833005D02*
G01X24804281Y3827417D01*
G01X24792851Y3815987D01*
G01X24787009Y3798715D01*
G01X24787009Y3787285D01*
G01X24792851Y3770267D01*
G01X24804281Y3758837D01*
G01X24815711Y3752995D01*
G01X24832729Y3752995D01*
G01X24844159Y3758837D01*
G01X24855589Y3770267D01*
G01X24861431Y3787285D01*
G01X24861431Y3798715D01*
G01X24855589Y3815987D01*
G01X24844159Y3827417D01*
G01X24832729Y3833005D01*
G01X24815711Y3833005D01*
G01X24926455Y3873137D02*
G01X24926455Y3775855D01*
G01X24932043Y3758837D01*
G01X24943473Y3752995D01*
G01X24954903Y3752995D01*
G01X24909183Y3833005D02*
G01X24949315Y3833005D01*
G01X25019927Y3873137D02*
G01X25019927Y3775855D01*
G01X25025515Y3758837D01*
G01X25036945Y3752995D01*
G01X25048375Y3752995D01*
G01X25002655Y3833005D02*
G01X25042787Y3833005D01*
G01X25124829Y3833005D02*
G01X25113399Y3827417D01*
G01X25101969Y3815987D01*
G01X25096127Y3798715D01*
G01X25096127Y3787285D01*
G01X25101969Y3770267D01*
G01X25113399Y3758837D01*
G01X25124829Y3752995D01*
G01X25141847Y3752995D01*
G01X25153277Y3758837D01*
G01X25164707Y3770267D01*
G01X25170549Y3787285D01*
G01X25170549Y3798715D01*
G01X25164707Y3815987D01*
G01X25153277Y3827417D01*
G01X25141847Y3833005D01*
G01X25124829Y3833005D01*
G01X25218301Y3833005D02*
G01X25218301Y3752995D01*
G01X25218301Y3810145D02*
G01X25235573Y3827417D01*
G01X25247003Y3833005D01*
G01X25264021Y3833005D01*
G01X25275451Y3827417D01*
G01X25281293Y3810145D01*
G01X25281293Y3752995D01*
G01X25281293Y3810145D02*
G01X25298311Y3827417D01*
G01X25309741Y3833005D01*
G01X25327013Y3833005D01*
G01X25338443Y3827417D01*
G01X25344031Y3810145D01*
G01X25344031Y3752995D01*
G01X25519799Y3873137D02*
G01X25519799Y3752995D01*
G01X25519799Y3752995D02*
G01X25588379Y3752995D01*
G01X25704711Y3833005D02*
G01X25704711Y3752995D01*
G01X25704711Y3815987D02*
G01X25693281Y3827417D01*
G01X25681851Y3833005D01*
G01X25664833Y3833005D01*
G01X25653403Y3827417D01*
G01X25641973Y3815987D01*
G01X25636131Y3798715D01*
G01X25636131Y3787285D01*
G01X25641973Y3770267D01*
G01X25653403Y3758837D01*
G01X25664833Y3752995D01*
G01X25681851Y3752995D01*
G01X25693281Y3758837D01*
G01X25704711Y3770267D01*
G01X25758305Y3833005D02*
G01X25792595Y3752995D01*
G01X25826885Y3833005D02*
G01X25792595Y3752995D01*
G01X25781165Y3730135D01*
G01X25769735Y3718705D01*
G01X25758305Y3713117D01*
G01X25752463Y3713117D01*
G01X25874637Y3798715D02*
G01X25943217Y3798715D01*
G01X25943217Y3810145D01*
G01X25937629Y3821575D01*
G01X25931787Y3827417D01*
G01X25920357Y3833005D01*
G01X25903339Y3833005D01*
G01X25891909Y3827417D01*
G01X25880479Y3815987D01*
G01X25874637Y3798715D01*
G01X25874637Y3787285D01*
G01X25880479Y3770267D01*
G01X25891909Y3758837D01*
G01X25903339Y3752995D01*
G01X25920357Y3752995D01*
G01X25931787Y3758837D01*
G01X25943217Y3770267D01*
G01X25990969Y3833005D02*
G01X25990969Y3752995D01*
G01X25990969Y3798715D02*
G01X25996811Y3815987D01*
G01X26008241Y3827417D01*
G01X26019671Y3833005D01*
G01X26036689Y3833005D01*
G01X11757716Y3263864D02*
G01X11757716Y3269706D01*
G01X11763304Y3281136D01*
G01X11769146Y3286724D01*
G01X11780576Y3292566D01*
G01X11803436Y3292566D01*
G01X11814866Y3286724D01*
G01X11820454Y3281136D01*
G01X11826296Y3269706D01*
G01X11826296Y3258276D01*
G01X11820454Y3246846D01*
G01X11809024Y3229574D01*
G01X11751874Y3172424D01*
G01X11831884Y3172424D01*
G01X11913926Y3292566D02*
G01X11896908Y3286724D01*
G01X11885478Y3269706D01*
G01X11879636Y3241004D01*
G01X11879636Y3223986D01*
G01X11885478Y3195284D01*
G01X11896908Y3178266D01*
G01X11913926Y3172424D01*
G01X11925356Y3172424D01*
G01X11942628Y3178266D01*
G01X11954058Y3195284D01*
G01X11959646Y3223986D01*
G01X11959646Y3241004D01*
G01X11954058Y3269706D01*
G01X11942628Y3286724D01*
G01X11925356Y3292566D01*
G01X11913926Y3292566D01*
G01X13223187Y3292566D02*
G01X13166037Y3212556D01*
G01X13251889Y3212556D01*
G01X13223187Y3292566D02*
G01X13223187Y3172424D01*
G01X13311071Y3292566D02*
G01X13374063Y3292566D01*
G01X13339773Y3246846D01*
G01X13356791Y3246846D01*
G01X13368221Y3241004D01*
G01X13374063Y3235416D01*
G01X13379651Y3218144D01*
G01X13379651Y3206714D01*
G01X13374063Y3189696D01*
G01X13362633Y3178266D01*
G01X13345361Y3172424D01*
G01X13328343Y3172424D01*
G01X13311071Y3178266D01*
G01X13305483Y3183854D01*
G01X13299641Y3195284D01*
G01X13433245Y3201126D02*
G01X13427403Y3195284D01*
G01X13433245Y3189696D01*
G01X13438833Y3195284D01*
G01X13433245Y3201126D01*
G01X13498015Y3292566D02*
G01X13561007Y3292566D01*
G01X13526717Y3246846D01*
G01X13543735Y3246846D01*
G01X13555165Y3241004D01*
G01X13561007Y3235416D01*
G01X13566595Y3218144D01*
G01X13566595Y3206714D01*
G01X13561007Y3189696D01*
G01X13549577Y3178266D01*
G01X13532305Y3172424D01*
G01X13515287Y3172424D01*
G01X13498015Y3178266D01*
G01X13492427Y3183854D01*
G01X13486585Y3195284D01*
G01X13614347Y3252434D02*
G01X13677339Y3172424D01*
G01X13677339Y3252434D02*
G01X13614347Y3172424D01*
G01X13782241Y3292566D02*
G01X13725091Y3212556D01*
G01X13810943Y3212556D01*
G01X13782241Y3292566D02*
G01X13782241Y3172424D01*
G01X13870125Y3292566D02*
G01X13933117Y3292566D01*
G01X13898827Y3246846D01*
G01X13915845Y3246846D01*
G01X13927275Y3241004D01*
G01X13933117Y3235416D01*
G01X13938705Y3218144D01*
G01X13938705Y3206714D01*
G01X13933117Y3189696D01*
G01X13921687Y3178266D01*
G01X13904415Y3172424D01*
G01X13887397Y3172424D01*
G01X13870125Y3178266D01*
G01X13864537Y3183854D01*
G01X13858695Y3195284D01*
G01X13992299Y3201126D02*
G01X13986457Y3195284D01*
G01X13992299Y3189696D01*
G01X13997887Y3195284D01*
G01X13992299Y3201126D01*
G01X14057069Y3292566D02*
G01X14120061Y3292566D01*
G01X14085771Y3246846D01*
G01X14102789Y3246846D01*
G01X14114219Y3241004D01*
G01X14120061Y3235416D01*
G01X14125649Y3218144D01*
G01X14125649Y3206714D01*
G01X14120061Y3189696D01*
G01X14108631Y3178266D01*
G01X14091359Y3172424D01*
G01X14074341Y3172424D01*
G01X14057069Y3178266D01*
G01X14051481Y3183854D01*
G01X14045639Y3195284D01*
G01X14173401Y3252434D02*
G01X14173401Y3172424D01*
G01X14173401Y3229574D02*
G01X14190673Y3246846D01*
G01X14202103Y3252434D01*
G01X14219121Y3252434D01*
G01X14230551Y3246846D01*
G01X14236393Y3229574D01*
G01X14236393Y3172424D01*
G01X14236393Y3229574D02*
G01X14253411Y3246846D01*
G01X14264841Y3252434D01*
G01X14282113Y3252434D01*
G01X14293543Y3246846D01*
G01X14299131Y3229574D01*
G01X14299131Y3172424D01*
G01X14346883Y3292566D02*
G01X14352725Y3286724D01*
G01X14358313Y3292566D01*
G01X14352725Y3298154D01*
G01X14346883Y3292566D01*
G01X14352725Y3252434D02*
G01X14352725Y3172424D01*
G01X14406065Y3292566D02*
G01X14406065Y3172424D01*
G01X14493949Y3315426D02*
G01X14482519Y3303996D01*
G01X14471089Y3286724D01*
G01X14459659Y3263864D01*
G01X14453817Y3235416D01*
G01X14453817Y3212556D01*
G01X14459659Y3183854D01*
G01X14471089Y3160994D01*
G01X14482519Y3143976D01*
G01X14493949Y3132546D01*
G01X14541701Y3269706D02*
G01X14553131Y3275294D01*
G01X14570403Y3292566D01*
G01X14570403Y3172424D01*
G01X14623997Y3201126D02*
G01X14618155Y3195284D01*
G01X14623997Y3189696D01*
G01X14629585Y3195284D01*
G01X14623997Y3201126D01*
G01X14677337Y3269706D02*
G01X14688767Y3275294D01*
G01X14706039Y3292566D01*
G01X14706039Y3172424D01*
G01X14788081Y3292566D02*
G01X14771063Y3286724D01*
G01X14759633Y3269706D01*
G01X14753791Y3241004D01*
G01X14753791Y3223986D01*
G01X14759633Y3195284D01*
G01X14771063Y3178266D01*
G01X14788081Y3172424D01*
G01X14799511Y3172424D01*
G01X14816783Y3178266D01*
G01X14828213Y3195284D01*
G01X14833801Y3223986D01*
G01X14833801Y3241004D01*
G01X14828213Y3269706D01*
G01X14816783Y3286724D01*
G01X14799511Y3292566D01*
G01X14788081Y3292566D01*
G01X14915843Y3292566D02*
G01X14898825Y3286724D01*
G01X14887395Y3269706D01*
G01X14881553Y3241004D01*
G01X14881553Y3223986D01*
G01X14887395Y3195284D01*
G01X14898825Y3178266D01*
G01X14915843Y3172424D01*
G01X14927273Y3172424D01*
G01X14944545Y3178266D01*
G01X14955975Y3195284D01*
G01X14961563Y3223986D01*
G01X14961563Y3241004D01*
G01X14955975Y3269706D01*
G01X14944545Y3286724D01*
G01X14927273Y3292566D01*
G01X14915843Y3292566D01*
G01X15009315Y3252434D02*
G01X15072307Y3172424D01*
G01X15072307Y3252434D02*
G01X15009315Y3172424D01*
G01X15120059Y3269706D02*
G01X15131489Y3275294D01*
G01X15148761Y3292566D01*
G01X15148761Y3172424D01*
G01X15202355Y3201126D02*
G01X15196513Y3195284D01*
G01X15202355Y3189696D01*
G01X15207943Y3195284D01*
G01X15202355Y3201126D01*
G01X15255695Y3269706D02*
G01X15267125Y3275294D01*
G01X15284397Y3292566D01*
G01X15284397Y3172424D01*
G01X15366439Y3292566D02*
G01X15349421Y3286724D01*
G01X15337991Y3269706D01*
G01X15332149Y3241004D01*
G01X15332149Y3223986D01*
G01X15337991Y3195284D01*
G01X15349421Y3178266D01*
G01X15366439Y3172424D01*
G01X15377869Y3172424D01*
G01X15395141Y3178266D01*
G01X15406571Y3195284D01*
G01X15412159Y3223986D01*
G01X15412159Y3241004D01*
G01X15406571Y3269706D01*
G01X15395141Y3286724D01*
G01X15377869Y3292566D01*
G01X15366439Y3292566D01*
G01X15494201Y3292566D02*
G01X15477183Y3286724D01*
G01X15465753Y3269706D01*
G01X15459911Y3241004D01*
G01X15459911Y3223986D01*
G01X15465753Y3195284D01*
G01X15477183Y3178266D01*
G01X15494201Y3172424D01*
G01X15505631Y3172424D01*
G01X15522903Y3178266D01*
G01X15534333Y3195284D01*
G01X15539921Y3223986D01*
G01X15539921Y3241004D01*
G01X15534333Y3269706D01*
G01X15522903Y3286724D01*
G01X15505631Y3292566D01*
G01X15494201Y3292566D01*
G01X15587673Y3252434D02*
G01X15587673Y3172424D01*
G01X15587673Y3229574D02*
G01X15604945Y3246846D01*
G01X15616375Y3252434D01*
G01X15633393Y3252434D01*
G01X15644823Y3246846D01*
G01X15650665Y3229574D01*
G01X15650665Y3172424D01*
G01X15650665Y3229574D02*
G01X15667683Y3246846D01*
G01X15679113Y3252434D01*
G01X15696385Y3252434D01*
G01X15707815Y3246846D01*
G01X15713403Y3229574D01*
G01X15713403Y3172424D01*
G01X15761155Y3252434D02*
G01X15761155Y3172424D01*
G01X15761155Y3229574D02*
G01X15778427Y3246846D01*
G01X15789857Y3252434D01*
G01X15806875Y3252434D01*
G01X15818305Y3246846D01*
G01X15824147Y3229574D01*
G01X15824147Y3172424D01*
G01X15824147Y3229574D02*
G01X15841165Y3246846D01*
G01X15852595Y3252434D01*
G01X15869867Y3252434D01*
G01X15881297Y3246846D01*
G01X15886885Y3229574D01*
G01X15886885Y3172424D01*
G01X15934637Y3315426D02*
G01X15946067Y3303996D01*
G01X15957497Y3286724D01*
G01X15968927Y3263864D01*
G01X15974769Y3235416D01*
G01X15974769Y3212556D01*
G01X15968927Y3183854D01*
G01X15957497Y3160994D01*
G01X15946067Y3143976D01*
G01X15934637Y3132546D01*
G01X16968563Y3292566D02*
G01X16968563Y3172424D01*
G01X16968563Y3292566D02*
G01X17020125Y3292566D01*
G01X17037143Y3286724D01*
G01X17042985Y3281136D01*
G01X17048573Y3269706D01*
G01X17048573Y3252434D01*
G01X17042985Y3241004D01*
G01X17037143Y3235416D01*
G01X17020125Y3229574D01*
G01X16968563Y3229574D01*
G01X17136457Y3292566D02*
G01X17136457Y3172424D01*
G01X17096325Y3292566D02*
G01X17176335Y3292566D01*
G01X17224087Y3292566D02*
G01X17224087Y3172424D01*
G01X17304097Y3292566D02*
G01X17304097Y3172424D01*
G01X17224087Y3235416D02*
G01X17304097Y3235416D01*
G01X18429970Y3292566D02*
G01X18429970Y3172424D01*
G01X18429970Y3292566D02*
G01X18481532Y3292566D01*
G01X18498550Y3286724D01*
G01X18504392Y3281136D01*
G01X18509980Y3269706D01*
G01X18509980Y3258276D01*
G01X18504392Y3246846D01*
G01X18498550Y3241004D01*
G01X18481532Y3235416D01*
G01X18429970Y3235416D01*
G01X18470102Y3235416D02*
G01X18509980Y3172424D01*
G01X18586434Y3252434D02*
G01X18575004Y3246846D01*
G01X18563574Y3235416D01*
G01X18557732Y3218144D01*
G01X18557732Y3206714D01*
G01X18563574Y3189696D01*
G01X18575004Y3178266D01*
G01X18586434Y3172424D01*
G01X18603452Y3172424D01*
G01X18614882Y3178266D01*
G01X18626312Y3189696D01*
G01X18632154Y3206714D01*
G01X18632154Y3218144D01*
G01X18626312Y3235416D01*
G01X18614882Y3246846D01*
G01X18603452Y3252434D01*
G01X18586434Y3252434D01*
G01X18679906Y3252434D02*
G01X18679906Y3195284D01*
G01X18685748Y3178266D01*
G01X18697178Y3172424D01*
G01X18714196Y3172424D01*
G01X18725626Y3178266D01*
G01X18742898Y3195284D01*
G01X18742898Y3252434D02*
G01X18742898Y3172424D01*
G01X18790650Y3252434D02*
G01X18790650Y3172424D01*
G01X18790650Y3229574D02*
G01X18807922Y3246846D01*
G01X18819352Y3252434D01*
G01X18836370Y3252434D01*
G01X18847800Y3246846D01*
G01X18853642Y3229574D01*
G01X18853642Y3172424D01*
G01X18969974Y3292566D02*
G01X18969974Y3172424D01*
G01X18969974Y3235416D02*
G01X18958544Y3246846D01*
G01X18947114Y3252434D01*
G01X18930096Y3252434D01*
G01X18918666Y3246846D01*
G01X18907236Y3235416D01*
G01X18901394Y3218144D01*
G01X18901394Y3206714D01*
G01X18907236Y3189696D01*
G01X18918666Y3178266D01*
G01X18930096Y3172424D01*
G01X18947114Y3172424D01*
G01X18958544Y3178266D01*
G01X18969974Y3189696D01*
G01X19861151Y3292566D02*
G01X19861151Y3172424D01*
G01X19861151Y3292566D02*
G01X19912713Y3292566D01*
G01X19929731Y3286724D01*
G01X19935573Y3281136D01*
G01X19941161Y3269706D01*
G01X19941161Y3252434D01*
G01X19935573Y3241004D01*
G01X19929731Y3235416D01*
G01X19912713Y3229574D01*
G01X19861151Y3229574D01*
G01X20057493Y3252434D02*
G01X20057493Y3172424D01*
G01X20057493Y3235416D02*
G01X20046063Y3246846D01*
G01X20034633Y3252434D01*
G01X20017615Y3252434D01*
G01X20006185Y3246846D01*
G01X19994755Y3235416D01*
G01X19988913Y3218144D01*
G01X19988913Y3206714D01*
G01X19994755Y3189696D01*
G01X20006185Y3178266D01*
G01X20017615Y3172424D01*
G01X20034633Y3172424D01*
G01X20046063Y3178266D01*
G01X20057493Y3189696D01*
G01X20173825Y3292566D02*
G01X20173825Y3172424D01*
G01X20173825Y3235416D02*
G01X20162395Y3246846D01*
G01X20150965Y3252434D01*
G01X20133947Y3252434D01*
G01X20122517Y3246846D01*
G01X20111087Y3235416D01*
G01X20105245Y3218144D01*
G01X20105245Y3206714D01*
G01X20111087Y3189696D01*
G01X20122517Y3178266D01*
G01X20133947Y3172424D01*
G01X20150965Y3172424D01*
G01X20162395Y3178266D01*
G01X20173825Y3189696D01*
G01X21570462Y3315426D02*
G01X21559032Y3303996D01*
G01X21547602Y3286724D01*
G01X21536172Y3263864D01*
G01X21530330Y3235416D01*
G01X21530330Y3212556D01*
G01X21536172Y3183854D01*
G01X21547602Y3160994D01*
G01X21559032Y3143976D01*
G01X21570462Y3132546D01*
G01X21618214Y3292566D02*
G01X21618214Y3172424D01*
G01X21618214Y3292566D02*
G01X21663934Y3172424D01*
G01X21709654Y3292566D02*
G01X21663934Y3172424D01*
G01X21709654Y3292566D02*
G01X21709654Y3172424D01*
G01X21757406Y3292566D02*
G01X21763248Y3286724D01*
G01X21768836Y3292566D01*
G01X21763248Y3298154D01*
G01X21757406Y3292566D01*
G01X21763248Y3252434D02*
G01X21763248Y3172424D01*
G01X21816588Y3252434D02*
G01X21879580Y3172424D01*
G01X21879580Y3252434D02*
G01X21816588Y3172424D01*
G01X21927332Y3218144D02*
G01X21995912Y3218144D01*
G01X21995912Y3229574D01*
G01X21990324Y3241004D01*
G01X21984482Y3246846D01*
G01X21973052Y3252434D01*
G01X21956034Y3252434D01*
G01X21944604Y3246846D01*
G01X21933174Y3235416D01*
G01X21927332Y3218144D01*
G01X21927332Y3206714D01*
G01X21933174Y3189696D01*
G01X21944604Y3178266D01*
G01X21956034Y3172424D01*
G01X21973052Y3172424D01*
G01X21984482Y3178266D01*
G01X21995912Y3189696D01*
G01X22112244Y3292566D02*
G01X22112244Y3172424D01*
G01X22112244Y3235416D02*
G01X22100814Y3246846D01*
G01X22089384Y3252434D01*
G01X22072366Y3252434D01*
G01X22060936Y3246846D01*
G01X22049506Y3235416D01*
G01X22043664Y3218144D01*
G01X22043664Y3206714D01*
G01X22049506Y3189696D01*
G01X22060936Y3178266D01*
G01X22072366Y3172424D01*
G01X22089384Y3172424D01*
G01X22100814Y3178266D01*
G01X22112244Y3189696D01*
G01X22159996Y3315426D02*
G01X22171426Y3303996D01*
G01X22182856Y3286724D01*
G01X22194286Y3263864D01*
G01X22200128Y3235416D01*
G01X22200128Y3212556D01*
G01X22194286Y3183854D01*
G01X22182856Y3160994D01*
G01X22171426Y3143976D01*
G01X22159996Y3132546D01*
G01X23489831Y3292566D02*
G01X23489831Y3172424D01*
G01X23449699Y3292566D02*
G01X23529709Y3292566D01*
G01X23606163Y3252434D02*
G01X23594733Y3246846D01*
G01X23583303Y3235416D01*
G01X23577461Y3218144D01*
G01X23577461Y3206714D01*
G01X23583303Y3189696D01*
G01X23594733Y3178266D01*
G01X23606163Y3172424D01*
G01X23623181Y3172424D01*
G01X23634611Y3178266D01*
G01X23646041Y3189696D01*
G01X23651883Y3206714D01*
G01X23651883Y3218144D01*
G01X23646041Y3235416D01*
G01X23634611Y3246846D01*
G01X23623181Y3252434D01*
G01X23606163Y3252434D01*
G01X23699635Y3252434D02*
G01X23699635Y3132546D01*
G01X23699635Y3235416D02*
G01X23711065Y3246846D01*
G01X23722495Y3252434D01*
G01X23739767Y3252434D01*
G01X23751197Y3246846D01*
G01X23762627Y3235416D01*
G01X23768215Y3218144D01*
G01X23768215Y3206714D01*
G01X23762627Y3189696D01*
G01X23751197Y3178266D01*
G01X23739767Y3172424D01*
G01X23722495Y3172424D01*
G01X23711065Y3178266D01*
G01X23699635Y3189696D01*
G01X23943983Y3292566D02*
G01X23943983Y3172424D01*
G01X23943983Y3172424D02*
G01X24012563Y3172424D01*
G01X24128895Y3252434D02*
G01X24128895Y3172424D01*
G01X24128895Y3235416D02*
G01X24117465Y3246846D01*
G01X24106035Y3252434D01*
G01X24089017Y3252434D01*
G01X24077587Y3246846D01*
G01X24066157Y3235416D01*
G01X24060315Y3218144D01*
G01X24060315Y3206714D01*
G01X24066157Y3189696D01*
G01X24077587Y3178266D01*
G01X24089017Y3172424D01*
G01X24106035Y3172424D01*
G01X24117465Y3178266D01*
G01X24128895Y3189696D01*
G01X24182489Y3252434D02*
G01X24216779Y3172424D01*
G01X24251069Y3252434D02*
G01X24216779Y3172424D01*
G01X24205349Y3149564D01*
G01X24193919Y3138134D01*
G01X24182489Y3132546D01*
G01X24176647Y3132546D01*
G01X24298821Y3218144D02*
G01X24367401Y3218144D01*
G01X24367401Y3229574D01*
G01X24361813Y3241004D01*
G01X24355971Y3246846D01*
G01X24344541Y3252434D01*
G01X24327523Y3252434D01*
G01X24316093Y3246846D01*
G01X24304663Y3235416D01*
G01X24298821Y3218144D01*
G01X24298821Y3206714D01*
G01X24304663Y3189696D01*
G01X24316093Y3178266D01*
G01X24327523Y3172424D01*
G01X24344541Y3172424D01*
G01X24355971Y3178266D01*
G01X24367401Y3189696D01*
G01X24415153Y3252434D02*
G01X24415153Y3172424D01*
G01X24415153Y3218144D02*
G01X24420995Y3235416D01*
G01X24432425Y3246846D01*
G01X24443855Y3252434D01*
G01X24460873Y3252434D01*
G01X24508625Y3223986D02*
G01X24611495Y3223986D01*
G01X24659247Y3292566D02*
G01X24659247Y3172424D01*
G01X24659247Y3292566D02*
G01X24710809Y3292566D01*
G01X24727827Y3286724D01*
G01X24733669Y3281136D01*
G01X24739257Y3269706D01*
G01X24739257Y3258276D01*
G01X24733669Y3246846D01*
G01X24727827Y3241004D01*
G01X24710809Y3235416D01*
G01X24659247Y3235416D02*
G01X24710809Y3235416D01*
G01X24727827Y3229574D01*
G01X24733669Y3223986D01*
G01X24739257Y3212556D01*
G01X24739257Y3195284D01*
G01X24733669Y3183854D01*
G01X24727827Y3178266D01*
G01X24710809Y3172424D01*
G01X24659247Y3172424D01*
G01X24815711Y3252434D02*
G01X24804281Y3246846D01*
G01X24792851Y3235416D01*
G01X24787009Y3218144D01*
G01X24787009Y3206714D01*
G01X24792851Y3189696D01*
G01X24804281Y3178266D01*
G01X24815711Y3172424D01*
G01X24832729Y3172424D01*
G01X24844159Y3178266D01*
G01X24855589Y3189696D01*
G01X24861431Y3206714D01*
G01X24861431Y3218144D01*
G01X24855589Y3235416D01*
G01X24844159Y3246846D01*
G01X24832729Y3252434D01*
G01X24815711Y3252434D01*
G01X24926455Y3292566D02*
G01X24926455Y3195284D01*
G01X24932043Y3178266D01*
G01X24943473Y3172424D01*
G01X24954903Y3172424D01*
G01X24909183Y3252434D02*
G01X24949315Y3252434D01*
G01X25019927Y3292566D02*
G01X25019927Y3195284D01*
G01X25025515Y3178266D01*
G01X25036945Y3172424D01*
G01X25048375Y3172424D01*
G01X25002655Y3252434D02*
G01X25042787Y3252434D01*
G01X25124829Y3252434D02*
G01X25113399Y3246846D01*
G01X25101969Y3235416D01*
G01X25096127Y3218144D01*
G01X25096127Y3206714D01*
G01X25101969Y3189696D01*
G01X25113399Y3178266D01*
G01X25124829Y3172424D01*
G01X25141847Y3172424D01*
G01X25153277Y3178266D01*
G01X25164707Y3189696D01*
G01X25170549Y3206714D01*
G01X25170549Y3218144D01*
G01X25164707Y3235416D01*
G01X25153277Y3246846D01*
G01X25141847Y3252434D01*
G01X25124829Y3252434D01*
G01X25218301Y3252434D02*
G01X25218301Y3172424D01*
G01X25218301Y3229574D02*
G01X25235573Y3246846D01*
G01X25247003Y3252434D01*
G01X25264021Y3252434D01*
G01X25275451Y3246846D01*
G01X25281293Y3229574D01*
G01X25281293Y3172424D01*
G01X25281293Y3229574D02*
G01X25298311Y3246846D01*
G01X25309741Y3252434D01*
G01X25327013Y3252434D01*
G01X25338443Y3246846D01*
G01X25344031Y3229574D01*
G01X25344031Y3172424D01*
G01X25519799Y3292566D02*
G01X25519799Y3172424D01*
G01X25519799Y3172424D02*
G01X25588379Y3172424D01*
G01X25704711Y3252434D02*
G01X25704711Y3172424D01*
G01X25704711Y3235416D02*
G01X25693281Y3246846D01*
G01X25681851Y3252434D01*
G01X25664833Y3252434D01*
G01X25653403Y3246846D01*
G01X25641973Y3235416D01*
G01X25636131Y3218144D01*
G01X25636131Y3206714D01*
G01X25641973Y3189696D01*
G01X25653403Y3178266D01*
G01X25664833Y3172424D01*
G01X25681851Y3172424D01*
G01X25693281Y3178266D01*
G01X25704711Y3189696D01*
G01X25758305Y3252434D02*
G01X25792595Y3172424D01*
G01X25826885Y3252434D02*
G01X25792595Y3172424D01*
G01X25781165Y3149564D01*
G01X25769735Y3138134D01*
G01X25758305Y3132546D01*
G01X25752463Y3132546D01*
G01X25874637Y3218144D02*
G01X25943217Y3218144D01*
G01X25943217Y3229574D01*
G01X25937629Y3241004D01*
G01X25931787Y3246846D01*
G01X25920357Y3252434D01*
G01X25903339Y3252434D01*
G01X25891909Y3246846D01*
G01X25880479Y3235416D01*
G01X25874637Y3218144D01*
G01X25874637Y3206714D01*
G01X25880479Y3189696D01*
G01X25891909Y3178266D01*
G01X25903339Y3172424D01*
G01X25920357Y3172424D01*
G01X25931787Y3178266D01*
G01X25943217Y3189696D01*
G01X25990969Y3252434D02*
G01X25990969Y3172424D01*
G01X25990969Y3218144D02*
G01X25996811Y3235416D01*
G01X26008241Y3246846D01*
G01X26019671Y3252434D01*
G01X26036689Y3252434D01*
G01X11757716Y2683292D02*
G01X11757716Y2689134D01*
G01X11763304Y2700564D01*
G01X11769146Y2706152D01*
G01X11780576Y2711994D01*
G01X11803436Y2711994D01*
G01X11814866Y2706152D01*
G01X11820454Y2700564D01*
G01X11826296Y2689134D01*
G01X11826296Y2677704D01*
G01X11820454Y2666274D01*
G01X11809024Y2649002D01*
G01X11751874Y2591852D01*
G01X11831884Y2591852D01*
G01X11879636Y2689134D02*
G01X11891066Y2694722D01*
G01X11908338Y2711994D01*
G01X11908338Y2591852D01*
G01X13166037Y2689134D02*
G01X13177467Y2694722D01*
G01X13194739Y2711994D01*
G01X13194739Y2591852D01*
G01X13242491Y2689134D02*
G01X13253921Y2694722D01*
G01X13271193Y2711994D01*
G01X13271193Y2591852D01*
G01X13324787Y2620554D02*
G01X13318945Y2614712D01*
G01X13324787Y2609124D01*
G01X13330375Y2614712D01*
G01X13324787Y2620554D01*
G01X13406829Y2711994D02*
G01X13389557Y2706152D01*
G01X13383969Y2694722D01*
G01X13383969Y2683292D01*
G01X13389557Y2671862D01*
G01X13400987Y2666274D01*
G01X13423847Y2660432D01*
G01X13441119Y2654844D01*
G01X13452549Y2643414D01*
G01X13458137Y2631984D01*
G01X13458137Y2614712D01*
G01X13452549Y2603282D01*
G01X13446707Y2597694D01*
G01X13429689Y2591852D01*
G01X13406829Y2591852D01*
G01X13389557Y2597694D01*
G01X13383969Y2603282D01*
G01X13378127Y2614712D01*
G01X13378127Y2631984D01*
G01X13383969Y2643414D01*
G01X13395399Y2654844D01*
G01X13412417Y2660432D01*
G01X13435277Y2666274D01*
G01X13446707Y2671862D01*
G01X13452549Y2683292D01*
G01X13452549Y2694722D01*
G01X13446707Y2706152D01*
G01X13429689Y2711994D01*
G01X13406829Y2711994D01*
G01X13505889Y2671862D02*
G01X13505889Y2591852D01*
G01X13505889Y2649002D02*
G01X13523161Y2666274D01*
G01X13534591Y2671862D01*
G01X13551609Y2671862D01*
G01X13563039Y2666274D01*
G01X13568881Y2649002D01*
G01X13568881Y2591852D01*
G01X13568881Y2649002D02*
G01X13585899Y2666274D01*
G01X13597329Y2671862D01*
G01X13614601Y2671862D01*
G01X13626031Y2666274D01*
G01X13631619Y2649002D01*
G01X13631619Y2591852D01*
G01X13679371Y2711994D02*
G01X13685213Y2706152D01*
G01X13690801Y2711994D01*
G01X13685213Y2717582D01*
G01X13679371Y2711994D01*
G01X13685213Y2671862D02*
G01X13685213Y2591852D01*
G01X13738553Y2711994D02*
G01X13738553Y2591852D01*
G01X13826437Y2734854D02*
G01X13815007Y2723424D01*
G01X13803577Y2706152D01*
G01X13792147Y2683292D01*
G01X13786305Y2654844D01*
G01X13786305Y2631984D01*
G01X13792147Y2603282D01*
G01X13803577Y2580422D01*
G01X13815007Y2563404D01*
G01X13826437Y2551974D01*
G01X13908479Y2711994D02*
G01X13891461Y2706152D01*
G01X13880031Y2689134D01*
G01X13874189Y2660432D01*
G01X13874189Y2643414D01*
G01X13880031Y2614712D01*
G01X13891461Y2597694D01*
G01X13908479Y2591852D01*
G01X13919909Y2591852D01*
G01X13937181Y2597694D01*
G01X13948611Y2614712D01*
G01X13954199Y2643414D01*
G01X13954199Y2660432D01*
G01X13948611Y2689134D01*
G01X13937181Y2706152D01*
G01X13919909Y2711994D01*
G01X13908479Y2711994D01*
G01X14007793Y2620554D02*
G01X14001951Y2614712D01*
G01X14007793Y2609124D01*
G01X14013381Y2614712D01*
G01X14007793Y2620554D01*
G01X14072563Y2711994D02*
G01X14135555Y2711994D01*
G01X14101265Y2666274D01*
G01X14118283Y2666274D01*
G01X14129713Y2660432D01*
G01X14135555Y2654844D01*
G01X14141143Y2637572D01*
G01X14141143Y2626142D01*
G01X14135555Y2609124D01*
G01X14124125Y2597694D01*
G01X14106853Y2591852D01*
G01X14089835Y2591852D01*
G01X14072563Y2597694D01*
G01X14066975Y2603282D01*
G01X14061133Y2614712D01*
G01X14223185Y2711994D02*
G01X14206167Y2706152D01*
G01X14194737Y2689134D01*
G01X14188895Y2660432D01*
G01X14188895Y2643414D01*
G01X14194737Y2614712D01*
G01X14206167Y2597694D01*
G01X14223185Y2591852D01*
G01X14234615Y2591852D01*
G01X14251887Y2597694D01*
G01X14263317Y2614712D01*
G01X14268905Y2643414D01*
G01X14268905Y2660432D01*
G01X14263317Y2689134D01*
G01X14251887Y2706152D01*
G01X14234615Y2711994D01*
G01X14223185Y2711994D01*
G01X14350947Y2711994D02*
G01X14333929Y2706152D01*
G01X14322499Y2689134D01*
G01X14316657Y2660432D01*
G01X14316657Y2643414D01*
G01X14322499Y2614712D01*
G01X14333929Y2597694D01*
G01X14350947Y2591852D01*
G01X14362377Y2591852D01*
G01X14379649Y2597694D01*
G01X14391079Y2614712D01*
G01X14396667Y2643414D01*
G01X14396667Y2660432D01*
G01X14391079Y2689134D01*
G01X14379649Y2706152D01*
G01X14362377Y2711994D01*
G01X14350947Y2711994D01*
G01X14444419Y2671862D02*
G01X14444419Y2591852D01*
G01X14444419Y2649002D02*
G01X14461691Y2666274D01*
G01X14473121Y2671862D01*
G01X14490139Y2671862D01*
G01X14501569Y2666274D01*
G01X14507411Y2649002D01*
G01X14507411Y2591852D01*
G01X14507411Y2649002D02*
G01X14524429Y2666274D01*
G01X14535859Y2671862D01*
G01X14553131Y2671862D01*
G01X14564561Y2666274D01*
G01X14570149Y2649002D01*
G01X14570149Y2591852D01*
G01X14617901Y2671862D02*
G01X14617901Y2591852D01*
G01X14617901Y2649002D02*
G01X14635173Y2666274D01*
G01X14646603Y2671862D01*
G01X14663621Y2671862D01*
G01X14675051Y2666274D01*
G01X14680893Y2649002D01*
G01X14680893Y2591852D01*
G01X14680893Y2649002D02*
G01X14697911Y2666274D01*
G01X14709341Y2671862D01*
G01X14726613Y2671862D01*
G01X14738043Y2666274D01*
G01X14743631Y2649002D01*
G01X14743631Y2591852D01*
G01X14791383Y2734854D02*
G01X14802813Y2723424D01*
G01X14814243Y2706152D01*
G01X14825673Y2683292D01*
G01X14831515Y2654844D01*
G01X14831515Y2631984D01*
G01X14825673Y2603282D01*
G01X14814243Y2580422D01*
G01X14802813Y2563404D01*
G01X14791383Y2551974D01*
G01X16968563Y2711994D02*
G01X16968563Y2591852D01*
G01X16968563Y2711994D02*
G01X17020125Y2711994D01*
G01X17037143Y2706152D01*
G01X17042985Y2700564D01*
G01X17048573Y2689134D01*
G01X17048573Y2671862D01*
G01X17042985Y2660432D01*
G01X17037143Y2654844D01*
G01X17020125Y2649002D01*
G01X16968563Y2649002D01*
G01X17136457Y2711994D02*
G01X17136457Y2591852D01*
G01X17096325Y2711994D02*
G01X17176335Y2711994D01*
G01X17224087Y2711994D02*
G01X17224087Y2591852D01*
G01X17304097Y2711994D02*
G01X17304097Y2591852D01*
G01X17224087Y2654844D02*
G01X17304097Y2654844D01*
G01X18429970Y2711994D02*
G01X18429970Y2591852D01*
G01X18429970Y2711994D02*
G01X18481532Y2711994D01*
G01X18498550Y2706152D01*
G01X18504392Y2700564D01*
G01X18509980Y2689134D01*
G01X18509980Y2677704D01*
G01X18504392Y2666274D01*
G01X18498550Y2660432D01*
G01X18481532Y2654844D01*
G01X18429970Y2654844D01*
G01X18470102Y2654844D02*
G01X18509980Y2591852D01*
G01X18586434Y2671862D02*
G01X18575004Y2666274D01*
G01X18563574Y2654844D01*
G01X18557732Y2637572D01*
G01X18557732Y2626142D01*
G01X18563574Y2609124D01*
G01X18575004Y2597694D01*
G01X18586434Y2591852D01*
G01X18603452Y2591852D01*
G01X18614882Y2597694D01*
G01X18626312Y2609124D01*
G01X18632154Y2626142D01*
G01X18632154Y2637572D01*
G01X18626312Y2654844D01*
G01X18614882Y2666274D01*
G01X18603452Y2671862D01*
G01X18586434Y2671862D01*
G01X18679906Y2671862D02*
G01X18679906Y2614712D01*
G01X18685748Y2597694D01*
G01X18697178Y2591852D01*
G01X18714196Y2591852D01*
G01X18725626Y2597694D01*
G01X18742898Y2614712D01*
G01X18742898Y2671862D02*
G01X18742898Y2591852D01*
G01X18790650Y2671862D02*
G01X18790650Y2591852D01*
G01X18790650Y2649002D02*
G01X18807922Y2666274D01*
G01X18819352Y2671862D01*
G01X18836370Y2671862D01*
G01X18847800Y2666274D01*
G01X18853642Y2649002D01*
G01X18853642Y2591852D01*
G01X18969974Y2711994D02*
G01X18969974Y2591852D01*
G01X18969974Y2654844D02*
G01X18958544Y2666274D01*
G01X18947114Y2671862D01*
G01X18930096Y2671862D01*
G01X18918666Y2666274D01*
G01X18907236Y2654844D01*
G01X18901394Y2637572D01*
G01X18901394Y2626142D01*
G01X18907236Y2609124D01*
G01X18918666Y2597694D01*
G01X18930096Y2591852D01*
G01X18947114Y2591852D01*
G01X18958544Y2597694D01*
G01X18969974Y2609124D01*
G01X19861151Y2711994D02*
G01X19906871Y2591852D01*
G01X19952591Y2711994D02*
G01X19906871Y2591852D01*
G01X20000343Y2711994D02*
G01X20006185Y2706152D01*
G01X20011773Y2711994D01*
G01X20006185Y2717582D01*
G01X20000343Y2711994D01*
G01X20006185Y2671862D02*
G01X20006185Y2591852D01*
G01X20128105Y2671862D02*
G01X20128105Y2591852D01*
G01X20128105Y2654844D02*
G01X20116675Y2666274D01*
G01X20105245Y2671862D01*
G01X20088227Y2671862D01*
G01X20076797Y2666274D01*
G01X20065367Y2654844D01*
G01X20059525Y2637572D01*
G01X20059525Y2626142D01*
G01X20065367Y2609124D01*
G01X20076797Y2597694D01*
G01X20088227Y2591852D01*
G01X20105245Y2591852D01*
G01X20116675Y2597694D01*
G01X20128105Y2609124D01*
G01X23489831Y2711994D02*
G01X23489831Y2591852D01*
G01X23449699Y2711994D02*
G01X23529709Y2711994D01*
G01X23606163Y2671862D02*
G01X23594733Y2666274D01*
G01X23583303Y2654844D01*
G01X23577461Y2637572D01*
G01X23577461Y2626142D01*
G01X23583303Y2609124D01*
G01X23594733Y2597694D01*
G01X23606163Y2591852D01*
G01X23623181Y2591852D01*
G01X23634611Y2597694D01*
G01X23646041Y2609124D01*
G01X23651883Y2626142D01*
G01X23651883Y2637572D01*
G01X23646041Y2654844D01*
G01X23634611Y2666274D01*
G01X23623181Y2671862D01*
G01X23606163Y2671862D01*
G01X23699635Y2671862D02*
G01X23699635Y2551974D01*
G01X23699635Y2654844D02*
G01X23711065Y2666274D01*
G01X23722495Y2671862D01*
G01X23739767Y2671862D01*
G01X23751197Y2666274D01*
G01X23762627Y2654844D01*
G01X23768215Y2637572D01*
G01X23768215Y2626142D01*
G01X23762627Y2609124D01*
G01X23751197Y2597694D01*
G01X23739767Y2591852D01*
G01X23722495Y2591852D01*
G01X23711065Y2597694D01*
G01X23699635Y2609124D01*
G01X23943983Y2711994D02*
G01X23943983Y2591852D01*
G01X23943983Y2591852D02*
G01X24012563Y2591852D01*
G01X24128895Y2671862D02*
G01X24128895Y2591852D01*
G01X24128895Y2654844D02*
G01X24117465Y2666274D01*
G01X24106035Y2671862D01*
G01X24089017Y2671862D01*
G01X24077587Y2666274D01*
G01X24066157Y2654844D01*
G01X24060315Y2637572D01*
G01X24060315Y2626142D01*
G01X24066157Y2609124D01*
G01X24077587Y2597694D01*
G01X24089017Y2591852D01*
G01X24106035Y2591852D01*
G01X24117465Y2597694D01*
G01X24128895Y2609124D01*
G01X24182489Y2671862D02*
G01X24216779Y2591852D01*
G01X24251069Y2671862D02*
G01X24216779Y2591852D01*
G01X24205349Y2568992D01*
G01X24193919Y2557562D01*
G01X24182489Y2551974D01*
G01X24176647Y2551974D01*
G01X24298821Y2637572D02*
G01X24367401Y2637572D01*
G01X24367401Y2649002D01*
G01X24361813Y2660432D01*
G01X24355971Y2666274D01*
G01X24344541Y2671862D01*
G01X24327523Y2671862D01*
G01X24316093Y2666274D01*
G01X24304663Y2654844D01*
G01X24298821Y2637572D01*
G01X24298821Y2626142D01*
G01X24304663Y2609124D01*
G01X24316093Y2597694D01*
G01X24327523Y2591852D01*
G01X24344541Y2591852D01*
G01X24355971Y2597694D01*
G01X24367401Y2609124D01*
G01X24415153Y2671862D02*
G01X24415153Y2591852D01*
G01X24415153Y2637572D02*
G01X24420995Y2654844D01*
G01X24432425Y2666274D01*
G01X24443855Y2671862D01*
G01X24460873Y2671862D01*
G01X24508625Y2643414D02*
G01X24611495Y2643414D01*
G01X24659247Y2711994D02*
G01X24659247Y2591852D01*
G01X24659247Y2711994D02*
G01X24710809Y2711994D01*
G01X24727827Y2706152D01*
G01X24733669Y2700564D01*
G01X24739257Y2689134D01*
G01X24739257Y2677704D01*
G01X24733669Y2666274D01*
G01X24727827Y2660432D01*
G01X24710809Y2654844D01*
G01X24659247Y2654844D02*
G01X24710809Y2654844D01*
G01X24727827Y2649002D01*
G01X24733669Y2643414D01*
G01X24739257Y2631984D01*
G01X24739257Y2614712D01*
G01X24733669Y2603282D01*
G01X24727827Y2597694D01*
G01X24710809Y2591852D01*
G01X24659247Y2591852D01*
G01X24815711Y2671862D02*
G01X24804281Y2666274D01*
G01X24792851Y2654844D01*
G01X24787009Y2637572D01*
G01X24787009Y2626142D01*
G01X24792851Y2609124D01*
G01X24804281Y2597694D01*
G01X24815711Y2591852D01*
G01X24832729Y2591852D01*
G01X24844159Y2597694D01*
G01X24855589Y2609124D01*
G01X24861431Y2626142D01*
G01X24861431Y2637572D01*
G01X24855589Y2654844D01*
G01X24844159Y2666274D01*
G01X24832729Y2671862D01*
G01X24815711Y2671862D01*
G01X24926455Y2711994D02*
G01X24926455Y2614712D01*
G01X24932043Y2597694D01*
G01X24943473Y2591852D01*
G01X24954903Y2591852D01*
G01X24909183Y2671862D02*
G01X24949315Y2671862D01*
G01X25019927Y2711994D02*
G01X25019927Y2614712D01*
G01X25025515Y2597694D01*
G01X25036945Y2591852D01*
G01X25048375Y2591852D01*
G01X25002655Y2671862D02*
G01X25042787Y2671862D01*
G01X25124829Y2671862D02*
G01X25113399Y2666274D01*
G01X25101969Y2654844D01*
G01X25096127Y2637572D01*
G01X25096127Y2626142D01*
G01X25101969Y2609124D01*
G01X25113399Y2597694D01*
G01X25124829Y2591852D01*
G01X25141847Y2591852D01*
G01X25153277Y2597694D01*
G01X25164707Y2609124D01*
G01X25170549Y2626142D01*
G01X25170549Y2637572D01*
G01X25164707Y2654844D01*
G01X25153277Y2666274D01*
G01X25141847Y2671862D01*
G01X25124829Y2671862D01*
G01X25218301Y2671862D02*
G01X25218301Y2591852D01*
G01X25218301Y2649002D02*
G01X25235573Y2666274D01*
G01X25247003Y2671862D01*
G01X25264021Y2671862D01*
G01X25275451Y2666274D01*
G01X25281293Y2649002D01*
G01X25281293Y2591852D01*
G01X25281293Y2649002D02*
G01X25298311Y2666274D01*
G01X25309741Y2671862D01*
G01X25327013Y2671862D01*
G01X25338443Y2666274D01*
G01X25344031Y2649002D01*
G01X25344031Y2591852D01*
G01X25519799Y2711994D02*
G01X25519799Y2591852D01*
G01X25519799Y2591852D02*
G01X25588379Y2591852D01*
G01X25704711Y2671862D02*
G01X25704711Y2591852D01*
G01X25704711Y2654844D02*
G01X25693281Y2666274D01*
G01X25681851Y2671862D01*
G01X25664833Y2671862D01*
G01X25653403Y2666274D01*
G01X25641973Y2654844D01*
G01X25636131Y2637572D01*
G01X25636131Y2626142D01*
G01X25641973Y2609124D01*
G01X25653403Y2597694D01*
G01X25664833Y2591852D01*
G01X25681851Y2591852D01*
G01X25693281Y2597694D01*
G01X25704711Y2609124D01*
G01X25758305Y2671862D02*
G01X25792595Y2591852D01*
G01X25826885Y2671862D02*
G01X25792595Y2591852D01*
G01X25781165Y2568992D01*
G01X25769735Y2557562D01*
G01X25758305Y2551974D01*
G01X25752463Y2551974D01*
G01X25874637Y2637572D02*
G01X25943217Y2637572D01*
G01X25943217Y2649002D01*
G01X25937629Y2660432D01*
G01X25931787Y2666274D01*
G01X25920357Y2671862D01*
G01X25903339Y2671862D01*
G01X25891909Y2666274D01*
G01X25880479Y2654844D01*
G01X25874637Y2637572D01*
G01X25874637Y2626142D01*
G01X25880479Y2609124D01*
G01X25891909Y2597694D01*
G01X25903339Y2591852D01*
G01X25920357Y2591852D01*
G01X25931787Y2597694D01*
G01X25943217Y2609124D01*
G01X25990969Y2671862D02*
G01X25990969Y2591852D01*
G01X25990969Y2637572D02*
G01X25996811Y2654844D01*
G01X26008241Y2666274D01*
G01X26019671Y2671862D01*
G01X26036689Y2671862D01*
G01X11809024Y2131423D02*
G01X11751874Y2051413D01*
G01X11837726Y2051413D01*
G01X11809024Y2131423D02*
G01X11809024Y2011281D01*
G01X11942628Y2131423D02*
G01X11885478Y2051413D01*
G01X11971330Y2051413D01*
G01X11942628Y2131423D02*
G01X11942628Y2011281D01*
G01X13223187Y2131423D02*
G01X13166037Y2051413D01*
G01X13251889Y2051413D01*
G01X13223187Y2131423D02*
G01X13223187Y2011281D01*
G01X13299641Y2108563D02*
G01X13311071Y2114151D01*
G01X13328343Y2131423D01*
G01X13328343Y2011281D01*
G01X13381937Y2039983D02*
G01X13376095Y2034141D01*
G01X13381937Y2028553D01*
G01X13387525Y2034141D01*
G01X13381937Y2039983D01*
G01X13446707Y2131423D02*
G01X13509699Y2131423D01*
G01X13475409Y2085703D01*
G01X13492427Y2085703D01*
G01X13503857Y2079861D01*
G01X13509699Y2074273D01*
G01X13515287Y2057001D01*
G01X13515287Y2045571D01*
G01X13509699Y2028553D01*
G01X13498269Y2017123D01*
G01X13480997Y2011281D01*
G01X13463979Y2011281D01*
G01X13446707Y2017123D01*
G01X13441119Y2022711D01*
G01X13435277Y2034141D01*
G01X13563039Y2091291D02*
G01X13626031Y2011281D01*
G01X13626031Y2091291D02*
G01X13563039Y2011281D01*
G01X13730933Y2131423D02*
G01X13673783Y2051413D01*
G01X13759635Y2051413D01*
G01X13730933Y2131423D02*
G01X13730933Y2011281D01*
G01X13807387Y2108563D02*
G01X13818817Y2114151D01*
G01X13836089Y2131423D01*
G01X13836089Y2011281D01*
G01X13889683Y2039983D02*
G01X13883841Y2034141D01*
G01X13889683Y2028553D01*
G01X13895271Y2034141D01*
G01X13889683Y2039983D01*
G01X13954453Y2131423D02*
G01X14017445Y2131423D01*
G01X13983155Y2085703D01*
G01X14000173Y2085703D01*
G01X14011603Y2079861D01*
G01X14017445Y2074273D01*
G01X14023033Y2057001D01*
G01X14023033Y2045571D01*
G01X14017445Y2028553D01*
G01X14006015Y2017123D01*
G01X13988743Y2011281D01*
G01X13971725Y2011281D01*
G01X13954453Y2017123D01*
G01X13948865Y2022711D01*
G01X13943023Y2034141D01*
G01X14070785Y2091291D02*
G01X14070785Y2011281D01*
G01X14070785Y2068431D02*
G01X14088057Y2085703D01*
G01X14099487Y2091291D01*
G01X14116505Y2091291D01*
G01X14127935Y2085703D01*
G01X14133777Y2068431D01*
G01X14133777Y2011281D01*
G01X14133777Y2068431D02*
G01X14150795Y2085703D01*
G01X14162225Y2091291D01*
G01X14179497Y2091291D01*
G01X14190927Y2085703D01*
G01X14196515Y2068431D01*
G01X14196515Y2011281D01*
G01X14244267Y2131423D02*
G01X14250109Y2125581D01*
G01X14255697Y2131423D01*
G01X14250109Y2137011D01*
G01X14244267Y2131423D01*
G01X14250109Y2091291D02*
G01X14250109Y2011281D01*
G01X14303449Y2131423D02*
G01X14303449Y2011281D01*
G01X14391333Y2154283D02*
G01X14379903Y2142853D01*
G01X14368473Y2125581D01*
G01X14357043Y2102721D01*
G01X14351201Y2074273D01*
G01X14351201Y2051413D01*
G01X14357043Y2022711D01*
G01X14368473Y1999851D01*
G01X14379903Y1982833D01*
G01X14391333Y1971403D01*
G01X14439085Y2108563D02*
G01X14450515Y2114151D01*
G01X14467787Y2131423D01*
G01X14467787Y2011281D01*
G01X14521381Y2039983D02*
G01X14515539Y2034141D01*
G01X14521381Y2028553D01*
G01X14526969Y2034141D01*
G01X14521381Y2039983D01*
G01X14609011Y2131423D02*
G01X14591993Y2125581D01*
G01X14580563Y2108563D01*
G01X14574721Y2079861D01*
G01X14574721Y2062843D01*
G01X14580563Y2034141D01*
G01X14591993Y2017123D01*
G01X14609011Y2011281D01*
G01X14620441Y2011281D01*
G01X14637713Y2017123D01*
G01X14649143Y2034141D01*
G01X14654731Y2062843D01*
G01X14654731Y2079861D01*
G01X14649143Y2108563D01*
G01X14637713Y2125581D01*
G01X14620441Y2131423D01*
G01X14609011Y2131423D01*
G01X14771063Y2131423D02*
G01X14713913Y2131423D01*
G01X14708325Y2079861D01*
G01X14713913Y2085703D01*
G01X14731185Y2091291D01*
G01X14748203Y2091291D01*
G01X14765475Y2085703D01*
G01X14776905Y2074273D01*
G01X14782493Y2057001D01*
G01X14782493Y2045571D01*
G01X14776905Y2028553D01*
G01X14765475Y2017123D01*
G01X14748203Y2011281D01*
G01X14731185Y2011281D01*
G01X14713913Y2017123D01*
G01X14708325Y2022711D01*
G01X14702483Y2034141D01*
G01X14864535Y2131423D02*
G01X14847517Y2125581D01*
G01X14836087Y2108563D01*
G01X14830245Y2079861D01*
G01X14830245Y2062843D01*
G01X14836087Y2034141D01*
G01X14847517Y2017123D01*
G01X14864535Y2011281D01*
G01X14875965Y2011281D01*
G01X14893237Y2017123D01*
G01X14904667Y2034141D01*
G01X14910255Y2062843D01*
G01X14910255Y2079861D01*
G01X14904667Y2108563D01*
G01X14893237Y2125581D01*
G01X14875965Y2131423D01*
G01X14864535Y2131423D01*
G01X14958007Y2091291D02*
G01X15020999Y2011281D01*
G01X15020999Y2091291D02*
G01X14958007Y2011281D01*
G01X15068751Y2108563D02*
G01X15080181Y2114151D01*
G01X15097453Y2131423D01*
G01X15097453Y2011281D01*
G01X15151047Y2039983D02*
G01X15145205Y2034141D01*
G01X15151047Y2028553D01*
G01X15156635Y2034141D01*
G01X15151047Y2039983D01*
G01X15238677Y2131423D02*
G01X15221659Y2125581D01*
G01X15210229Y2108563D01*
G01X15204387Y2079861D01*
G01X15204387Y2062843D01*
G01X15210229Y2034141D01*
G01X15221659Y2017123D01*
G01X15238677Y2011281D01*
G01X15250107Y2011281D01*
G01X15267379Y2017123D01*
G01X15278809Y2034141D01*
G01X15284397Y2062843D01*
G01X15284397Y2079861D01*
G01X15278809Y2108563D01*
G01X15267379Y2125581D01*
G01X15250107Y2131423D01*
G01X15238677Y2131423D01*
G01X15400729Y2131423D02*
G01X15343579Y2131423D01*
G01X15337991Y2079861D01*
G01X15343579Y2085703D01*
G01X15360851Y2091291D01*
G01X15377869Y2091291D01*
G01X15395141Y2085703D01*
G01X15406571Y2074273D01*
G01X15412159Y2057001D01*
G01X15412159Y2045571D01*
G01X15406571Y2028553D01*
G01X15395141Y2017123D01*
G01X15377869Y2011281D01*
G01X15360851Y2011281D01*
G01X15343579Y2017123D01*
G01X15337991Y2022711D01*
G01X15332149Y2034141D01*
G01X15494201Y2131423D02*
G01X15477183Y2125581D01*
G01X15465753Y2108563D01*
G01X15459911Y2079861D01*
G01X15459911Y2062843D01*
G01X15465753Y2034141D01*
G01X15477183Y2017123D01*
G01X15494201Y2011281D01*
G01X15505631Y2011281D01*
G01X15522903Y2017123D01*
G01X15534333Y2034141D01*
G01X15539921Y2062843D01*
G01X15539921Y2079861D01*
G01X15534333Y2108563D01*
G01X15522903Y2125581D01*
G01X15505631Y2131423D01*
G01X15494201Y2131423D01*
G01X15587673Y2091291D02*
G01X15587673Y2011281D01*
G01X15587673Y2068431D02*
G01X15604945Y2085703D01*
G01X15616375Y2091291D01*
G01X15633393Y2091291D01*
G01X15644823Y2085703D01*
G01X15650665Y2068431D01*
G01X15650665Y2011281D01*
G01X15650665Y2068431D02*
G01X15667683Y2085703D01*
G01X15679113Y2091291D01*
G01X15696385Y2091291D01*
G01X15707815Y2085703D01*
G01X15713403Y2068431D01*
G01X15713403Y2011281D01*
G01X15761155Y2091291D02*
G01X15761155Y2011281D01*
G01X15761155Y2068431D02*
G01X15778427Y2085703D01*
G01X15789857Y2091291D01*
G01X15806875Y2091291D01*
G01X15818305Y2085703D01*
G01X15824147Y2068431D01*
G01X15824147Y2011281D01*
G01X15824147Y2068431D02*
G01X15841165Y2085703D01*
G01X15852595Y2091291D01*
G01X15869867Y2091291D01*
G01X15881297Y2085703D01*
G01X15886885Y2068431D01*
G01X15886885Y2011281D01*
G01X15934637Y2154283D02*
G01X15946067Y2142853D01*
G01X15957497Y2125581D01*
G01X15968927Y2102721D01*
G01X15974769Y2074273D01*
G01X15974769Y2051413D01*
G01X15968927Y2022711D01*
G01X15957497Y1999851D01*
G01X15946067Y1982833D01*
G01X15934637Y1971403D01*
G01X16968563Y2131423D02*
G01X16968563Y2011281D01*
G01X16968563Y2131423D02*
G01X17020125Y2131423D01*
G01X17037143Y2125581D01*
G01X17042985Y2119993D01*
G01X17048573Y2108563D01*
G01X17048573Y2091291D01*
G01X17042985Y2079861D01*
G01X17037143Y2074273D01*
G01X17020125Y2068431D01*
G01X16968563Y2068431D01*
G01X17136457Y2131423D02*
G01X17136457Y2011281D01*
G01X17096325Y2131423D02*
G01X17176335Y2131423D01*
G01X17224087Y2131423D02*
G01X17224087Y2011281D01*
G01X17304097Y2131423D02*
G01X17304097Y2011281D01*
G01X17224087Y2074273D02*
G01X17304097Y2074273D01*
G01X18429970Y2131423D02*
G01X18429970Y2011281D01*
G01X18429970Y2131423D02*
G01X18481532Y2131423D01*
G01X18498550Y2125581D01*
G01X18504392Y2119993D01*
G01X18509980Y2108563D01*
G01X18509980Y2097133D01*
G01X18504392Y2085703D01*
G01X18498550Y2079861D01*
G01X18481532Y2074273D01*
G01X18429970Y2074273D01*
G01X18470102Y2074273D02*
G01X18509980Y2011281D01*
G01X18586434Y2091291D02*
G01X18575004Y2085703D01*
G01X18563574Y2074273D01*
G01X18557732Y2057001D01*
G01X18557732Y2045571D01*
G01X18563574Y2028553D01*
G01X18575004Y2017123D01*
G01X18586434Y2011281D01*
G01X18603452Y2011281D01*
G01X18614882Y2017123D01*
G01X18626312Y2028553D01*
G01X18632154Y2045571D01*
G01X18632154Y2057001D01*
G01X18626312Y2074273D01*
G01X18614882Y2085703D01*
G01X18603452Y2091291D01*
G01X18586434Y2091291D01*
G01X18679906Y2091291D02*
G01X18679906Y2034141D01*
G01X18685748Y2017123D01*
G01X18697178Y2011281D01*
G01X18714196Y2011281D01*
G01X18725626Y2017123D01*
G01X18742898Y2034141D01*
G01X18742898Y2091291D02*
G01X18742898Y2011281D01*
G01X18790650Y2091291D02*
G01X18790650Y2011281D01*
G01X18790650Y2068431D02*
G01X18807922Y2085703D01*
G01X18819352Y2091291D01*
G01X18836370Y2091291D01*
G01X18847800Y2085703D01*
G01X18853642Y2068431D01*
G01X18853642Y2011281D01*
G01X18969974Y2131423D02*
G01X18969974Y2011281D01*
G01X18969974Y2074273D02*
G01X18958544Y2085703D01*
G01X18947114Y2091291D01*
G01X18930096Y2091291D01*
G01X18918666Y2085703D01*
G01X18907236Y2074273D01*
G01X18901394Y2057001D01*
G01X18901394Y2045571D01*
G01X18907236Y2028553D01*
G01X18918666Y2017123D01*
G01X18930096Y2011281D01*
G01X18947114Y2011281D01*
G01X18958544Y2017123D01*
G01X18969974Y2028553D01*
G01X19861151Y2131423D02*
G01X19861151Y2011281D01*
G01X19861151Y2131423D02*
G01X19912713Y2131423D01*
G01X19929731Y2125581D01*
G01X19935573Y2119993D01*
G01X19941161Y2108563D01*
G01X19941161Y2091291D01*
G01X19935573Y2079861D01*
G01X19929731Y2074273D01*
G01X19912713Y2068431D01*
G01X19861151Y2068431D01*
G01X20057493Y2091291D02*
G01X20057493Y2011281D01*
G01X20057493Y2074273D02*
G01X20046063Y2085703D01*
G01X20034633Y2091291D01*
G01X20017615Y2091291D01*
G01X20006185Y2085703D01*
G01X19994755Y2074273D01*
G01X19988913Y2057001D01*
G01X19988913Y2045571D01*
G01X19994755Y2028553D01*
G01X20006185Y2017123D01*
G01X20017615Y2011281D01*
G01X20034633Y2011281D01*
G01X20046063Y2017123D01*
G01X20057493Y2028553D01*
G01X20173825Y2131423D02*
G01X20173825Y2011281D01*
G01X20173825Y2074273D02*
G01X20162395Y2085703D01*
G01X20150965Y2091291D01*
G01X20133947Y2091291D01*
G01X20122517Y2085703D01*
G01X20111087Y2074273D01*
G01X20105245Y2057001D01*
G01X20105245Y2045571D01*
G01X20111087Y2028553D01*
G01X20122517Y2017123D01*
G01X20133947Y2011281D01*
G01X20150965Y2011281D01*
G01X20162395Y2017123D01*
G01X20173825Y2028553D01*
G01X21570462Y2154283D02*
G01X21559032Y2142853D01*
G01X21547602Y2125581D01*
G01X21536172Y2102721D01*
G01X21530330Y2074273D01*
G01X21530330Y2051413D01*
G01X21536172Y2022711D01*
G01X21547602Y1999851D01*
G01X21559032Y1982833D01*
G01X21570462Y1971403D01*
G01X21618214Y2131423D02*
G01X21618214Y2011281D01*
G01X21618214Y2131423D02*
G01X21663934Y2011281D01*
G01X21709654Y2131423D02*
G01X21663934Y2011281D01*
G01X21709654Y2131423D02*
G01X21709654Y2011281D01*
G01X21757406Y2131423D02*
G01X21763248Y2125581D01*
G01X21768836Y2131423D01*
G01X21763248Y2137011D01*
G01X21757406Y2131423D01*
G01X21763248Y2091291D02*
G01X21763248Y2011281D01*
G01X21816588Y2091291D02*
G01X21879580Y2011281D01*
G01X21879580Y2091291D02*
G01X21816588Y2011281D01*
G01X21927332Y2057001D02*
G01X21995912Y2057001D01*
G01X21995912Y2068431D01*
G01X21990324Y2079861D01*
G01X21984482Y2085703D01*
G01X21973052Y2091291D01*
G01X21956034Y2091291D01*
G01X21944604Y2085703D01*
G01X21933174Y2074273D01*
G01X21927332Y2057001D01*
G01X21927332Y2045571D01*
G01X21933174Y2028553D01*
G01X21944604Y2017123D01*
G01X21956034Y2011281D01*
G01X21973052Y2011281D01*
G01X21984482Y2017123D01*
G01X21995912Y2028553D01*
G01X22112244Y2131423D02*
G01X22112244Y2011281D01*
G01X22112244Y2074273D02*
G01X22100814Y2085703D01*
G01X22089384Y2091291D01*
G01X22072366Y2091291D01*
G01X22060936Y2085703D01*
G01X22049506Y2074273D01*
G01X22043664Y2057001D01*
G01X22043664Y2045571D01*
G01X22049506Y2028553D01*
G01X22060936Y2017123D01*
G01X22072366Y2011281D01*
G01X22089384Y2011281D01*
G01X22100814Y2017123D01*
G01X22112244Y2028553D01*
G01X22159996Y2154283D02*
G01X22171426Y2142853D01*
G01X22182856Y2125581D01*
G01X22194286Y2102721D01*
G01X22200128Y2074273D01*
G01X22200128Y2051413D01*
G01X22194286Y2022711D01*
G01X22182856Y1999851D01*
G01X22171426Y1982833D01*
G01X22159996Y1971403D01*
G01X23489831Y2131423D02*
G01X23489831Y2011281D01*
G01X23449699Y2131423D02*
G01X23529709Y2131423D01*
G01X23606163Y2091291D02*
G01X23594733Y2085703D01*
G01X23583303Y2074273D01*
G01X23577461Y2057001D01*
G01X23577461Y2045571D01*
G01X23583303Y2028553D01*
G01X23594733Y2017123D01*
G01X23606163Y2011281D01*
G01X23623181Y2011281D01*
G01X23634611Y2017123D01*
G01X23646041Y2028553D01*
G01X23651883Y2045571D01*
G01X23651883Y2057001D01*
G01X23646041Y2074273D01*
G01X23634611Y2085703D01*
G01X23623181Y2091291D01*
G01X23606163Y2091291D01*
G01X23699635Y2091291D02*
G01X23699635Y1971403D01*
G01X23699635Y2074273D02*
G01X23711065Y2085703D01*
G01X23722495Y2091291D01*
G01X23739767Y2091291D01*
G01X23751197Y2085703D01*
G01X23762627Y2074273D01*
G01X23768215Y2057001D01*
G01X23768215Y2045571D01*
G01X23762627Y2028553D01*
G01X23751197Y2017123D01*
G01X23739767Y2011281D01*
G01X23722495Y2011281D01*
G01X23711065Y2017123D01*
G01X23699635Y2028553D01*
G01X23943983Y2131423D02*
G01X23943983Y2011281D01*
G01X23943983Y2011281D02*
G01X24012563Y2011281D01*
G01X24128895Y2091291D02*
G01X24128895Y2011281D01*
G01X24128895Y2074273D02*
G01X24117465Y2085703D01*
G01X24106035Y2091291D01*
G01X24089017Y2091291D01*
G01X24077587Y2085703D01*
G01X24066157Y2074273D01*
G01X24060315Y2057001D01*
G01X24060315Y2045571D01*
G01X24066157Y2028553D01*
G01X24077587Y2017123D01*
G01X24089017Y2011281D01*
G01X24106035Y2011281D01*
G01X24117465Y2017123D01*
G01X24128895Y2028553D01*
G01X24182489Y2091291D02*
G01X24216779Y2011281D01*
G01X24251069Y2091291D02*
G01X24216779Y2011281D01*
G01X24205349Y1988421D01*
G01X24193919Y1976991D01*
G01X24182489Y1971403D01*
G01X24176647Y1971403D01*
G01X24298821Y2057001D02*
G01X24367401Y2057001D01*
G01X24367401Y2068431D01*
G01X24361813Y2079861D01*
G01X24355971Y2085703D01*
G01X24344541Y2091291D01*
G01X24327523Y2091291D01*
G01X24316093Y2085703D01*
G01X24304663Y2074273D01*
G01X24298821Y2057001D01*
G01X24298821Y2045571D01*
G01X24304663Y2028553D01*
G01X24316093Y2017123D01*
G01X24327523Y2011281D01*
G01X24344541Y2011281D01*
G01X24355971Y2017123D01*
G01X24367401Y2028553D01*
G01X24415153Y2091291D02*
G01X24415153Y2011281D01*
G01X24415153Y2057001D02*
G01X24420995Y2074273D01*
G01X24432425Y2085703D01*
G01X24443855Y2091291D01*
G01X24460873Y2091291D01*
G01X24508625Y2062843D02*
G01X24611495Y2062843D01*
G01X24659247Y2131423D02*
G01X24659247Y2011281D01*
G01X24659247Y2131423D02*
G01X24710809Y2131423D01*
G01X24727827Y2125581D01*
G01X24733669Y2119993D01*
G01X24739257Y2108563D01*
G01X24739257Y2097133D01*
G01X24733669Y2085703D01*
G01X24727827Y2079861D01*
G01X24710809Y2074273D01*
G01X24659247Y2074273D02*
G01X24710809Y2074273D01*
G01X24727827Y2068431D01*
G01X24733669Y2062843D01*
G01X24739257Y2051413D01*
G01X24739257Y2034141D01*
G01X24733669Y2022711D01*
G01X24727827Y2017123D01*
G01X24710809Y2011281D01*
G01X24659247Y2011281D01*
G01X24815711Y2091291D02*
G01X24804281Y2085703D01*
G01X24792851Y2074273D01*
G01X24787009Y2057001D01*
G01X24787009Y2045571D01*
G01X24792851Y2028553D01*
G01X24804281Y2017123D01*
G01X24815711Y2011281D01*
G01X24832729Y2011281D01*
G01X24844159Y2017123D01*
G01X24855589Y2028553D01*
G01X24861431Y2045571D01*
G01X24861431Y2057001D01*
G01X24855589Y2074273D01*
G01X24844159Y2085703D01*
G01X24832729Y2091291D01*
G01X24815711Y2091291D01*
G01X24926455Y2131423D02*
G01X24926455Y2034141D01*
G01X24932043Y2017123D01*
G01X24943473Y2011281D01*
G01X24954903Y2011281D01*
G01X24909183Y2091291D02*
G01X24949315Y2091291D01*
G01X25019927Y2131423D02*
G01X25019927Y2034141D01*
G01X25025515Y2017123D01*
G01X25036945Y2011281D01*
G01X25048375Y2011281D01*
G01X25002655Y2091291D02*
G01X25042787Y2091291D01*
G01X25124829Y2091291D02*
G01X25113399Y2085703D01*
G01X25101969Y2074273D01*
G01X25096127Y2057001D01*
G01X25096127Y2045571D01*
G01X25101969Y2028553D01*
G01X25113399Y2017123D01*
G01X25124829Y2011281D01*
G01X25141847Y2011281D01*
G01X25153277Y2017123D01*
G01X25164707Y2028553D01*
G01X25170549Y2045571D01*
G01X25170549Y2057001D01*
G01X25164707Y2074273D01*
G01X25153277Y2085703D01*
G01X25141847Y2091291D01*
G01X25124829Y2091291D01*
G01X25218301Y2091291D02*
G01X25218301Y2011281D01*
G01X25218301Y2068431D02*
G01X25235573Y2085703D01*
G01X25247003Y2091291D01*
G01X25264021Y2091291D01*
G01X25275451Y2085703D01*
G01X25281293Y2068431D01*
G01X25281293Y2011281D01*
G01X25281293Y2068431D02*
G01X25298311Y2085703D01*
G01X25309741Y2091291D01*
G01X25327013Y2091291D01*
G01X25338443Y2085703D01*
G01X25344031Y2068431D01*
G01X25344031Y2011281D01*
G01X25519799Y2131423D02*
G01X25519799Y2011281D01*
G01X25519799Y2011281D02*
G01X25588379Y2011281D01*
G01X25704711Y2091291D02*
G01X25704711Y2011281D01*
G01X25704711Y2074273D02*
G01X25693281Y2085703D01*
G01X25681851Y2091291D01*
G01X25664833Y2091291D01*
G01X25653403Y2085703D01*
G01X25641973Y2074273D01*
G01X25636131Y2057001D01*
G01X25636131Y2045571D01*
G01X25641973Y2028553D01*
G01X25653403Y2017123D01*
G01X25664833Y2011281D01*
G01X25681851Y2011281D01*
G01X25693281Y2017123D01*
G01X25704711Y2028553D01*
G01X25758305Y2091291D02*
G01X25792595Y2011281D01*
G01X25826885Y2091291D02*
G01X25792595Y2011281D01*
G01X25781165Y1988421D01*
G01X25769735Y1976991D01*
G01X25758305Y1971403D01*
G01X25752463Y1971403D01*
G01X25874637Y2057001D02*
G01X25943217Y2057001D01*
G01X25943217Y2068431D01*
G01X25937629Y2079861D01*
G01X25931787Y2085703D01*
G01X25920357Y2091291D01*
G01X25903339Y2091291D01*
G01X25891909Y2085703D01*
G01X25880479Y2074273D01*
G01X25874637Y2057001D01*
G01X25874637Y2045571D01*
G01X25880479Y2028553D01*
G01X25891909Y2017123D01*
G01X25903339Y2011281D01*
G01X25920357Y2011281D01*
G01X25931787Y2017123D01*
G01X25943217Y2028553D01*
G01X25990969Y2091291D02*
G01X25990969Y2011281D01*
G01X25990969Y2057001D02*
G01X25996811Y2074273D01*
G01X26008241Y2085703D01*
G01X26019671Y2091291D01*
G01X26036689Y2091291D01*
G01X11780576Y1550851D02*
G01X11763304Y1545009D01*
G01X11757716Y1533579D01*
G01X11757716Y1522149D01*
G01X11763304Y1510719D01*
G01X11774734Y1505131D01*
G01X11797594Y1499289D01*
G01X11814866Y1493701D01*
G01X11826296Y1482271D01*
G01X11831884Y1470841D01*
G01X11831884Y1453569D01*
G01X11826296Y1442139D01*
G01X11820454Y1436551D01*
G01X11803436Y1430709D01*
G01X11780576Y1430709D01*
G01X11763304Y1436551D01*
G01X11757716Y1442139D01*
G01X11751874Y1453569D01*
G01X11751874Y1470841D01*
G01X11757716Y1482271D01*
G01X11769146Y1493701D01*
G01X11786164Y1499289D01*
G01X11809024Y1505131D01*
G01X11820454Y1510719D01*
G01X11826296Y1522149D01*
G01X11826296Y1533579D01*
G01X11820454Y1545009D01*
G01X11803436Y1550851D01*
G01X11780576Y1550851D01*
G01X11936786Y1550851D02*
G01X11879636Y1470841D01*
G01X11965488Y1470841D01*
G01X11936786Y1550851D02*
G01X11936786Y1430709D01*
G01X13246047Y1550851D02*
G01X13188897Y1430709D01*
G01X13166037Y1550851D02*
G01X13246047Y1550851D01*
G01X13299641Y1459411D02*
G01X13293799Y1453569D01*
G01X13299641Y1447981D01*
G01X13305229Y1453569D01*
G01X13299641Y1459411D01*
G01X13427403Y1510719D02*
G01X13421561Y1493701D01*
G01X13410131Y1482271D01*
G01X13393113Y1476429D01*
G01X13387271Y1476429D01*
G01X13370253Y1482271D01*
G01X13358823Y1493701D01*
G01X13352981Y1510719D01*
G01X13352981Y1516561D01*
G01X13358823Y1533579D01*
G01X13370253Y1545009D01*
G01X13387271Y1550851D01*
G01X13393113Y1550851D01*
G01X13410131Y1545009D01*
G01X13421561Y1533579D01*
G01X13427403Y1510719D01*
G01X13427403Y1482271D01*
G01X13421561Y1453569D01*
G01X13410131Y1436551D01*
G01X13393113Y1430709D01*
G01X13381683Y1430709D01*
G01X13364411Y1436551D01*
G01X13358823Y1447981D01*
G01X13475155Y1510719D02*
G01X13475155Y1430709D01*
G01X13475155Y1487859D02*
G01X13492427Y1505131D01*
G01X13503857Y1510719D01*
G01X13520875Y1510719D01*
G01X13532305Y1505131D01*
G01X13538147Y1487859D01*
G01X13538147Y1430709D01*
G01X13538147Y1487859D02*
G01X13555165Y1505131D01*
G01X13566595Y1510719D01*
G01X13583867Y1510719D01*
G01X13595297Y1505131D01*
G01X13600885Y1487859D01*
G01X13600885Y1430709D01*
G01X13648637Y1550851D02*
G01X13654479Y1545009D01*
G01X13660067Y1550851D01*
G01X13654479Y1556439D01*
G01X13648637Y1550851D01*
G01X13654479Y1510719D02*
G01X13654479Y1430709D01*
G01X13707819Y1550851D02*
G01X13707819Y1430709D01*
G01X13795703Y1573711D02*
G01X13784273Y1562281D01*
G01X13772843Y1545009D01*
G01X13761413Y1522149D01*
G01X13755571Y1493701D01*
G01X13755571Y1470841D01*
G01X13761413Y1442139D01*
G01X13772843Y1419279D01*
G01X13784273Y1402261D01*
G01X13795703Y1390831D01*
G01X13877745Y1550851D02*
G01X13860727Y1545009D01*
G01X13849297Y1527991D01*
G01X13843455Y1499289D01*
G01X13843455Y1482271D01*
G01X13849297Y1453569D01*
G01X13860727Y1436551D01*
G01X13877745Y1430709D01*
G01X13889175Y1430709D01*
G01X13906447Y1436551D01*
G01X13917877Y1453569D01*
G01X13923465Y1482271D01*
G01X13923465Y1499289D01*
G01X13917877Y1527991D01*
G01X13906447Y1545009D01*
G01X13889175Y1550851D01*
G01X13877745Y1550851D01*
G01X13977059Y1459411D02*
G01X13971217Y1453569D01*
G01X13977059Y1447981D01*
G01X13982647Y1453569D01*
G01X13977059Y1459411D01*
G01X14036241Y1522149D02*
G01X14036241Y1527991D01*
G01X14041829Y1539421D01*
G01X14047671Y1545009D01*
G01X14059101Y1550851D01*
G01X14081961Y1550851D01*
G01X14093391Y1545009D01*
G01X14098979Y1539421D01*
G01X14104821Y1527991D01*
G01X14104821Y1516561D01*
G01X14098979Y1505131D01*
G01X14087549Y1487859D01*
G01X14030399Y1430709D01*
G01X14110409Y1430709D01*
G01X14192451Y1550851D02*
G01X14175433Y1545009D01*
G01X14164003Y1527991D01*
G01X14158161Y1499289D01*
G01X14158161Y1482271D01*
G01X14164003Y1453569D01*
G01X14175433Y1436551D01*
G01X14192451Y1430709D01*
G01X14203881Y1430709D01*
G01X14221153Y1436551D01*
G01X14232583Y1453569D01*
G01X14238171Y1482271D01*
G01X14238171Y1499289D01*
G01X14232583Y1527991D01*
G01X14221153Y1545009D01*
G01X14203881Y1550851D01*
G01X14192451Y1550851D01*
G01X14320213Y1550851D02*
G01X14303195Y1545009D01*
G01X14291765Y1527991D01*
G01X14285923Y1499289D01*
G01X14285923Y1482271D01*
G01X14291765Y1453569D01*
G01X14303195Y1436551D01*
G01X14320213Y1430709D01*
G01X14331643Y1430709D01*
G01X14348915Y1436551D01*
G01X14360345Y1453569D01*
G01X14365933Y1482271D01*
G01X14365933Y1499289D01*
G01X14360345Y1527991D01*
G01X14348915Y1545009D01*
G01X14331643Y1550851D01*
G01X14320213Y1550851D01*
G01X14413685Y1510719D02*
G01X14413685Y1430709D01*
G01X14413685Y1487859D02*
G01X14430957Y1505131D01*
G01X14442387Y1510719D01*
G01X14459405Y1510719D01*
G01X14470835Y1505131D01*
G01X14476677Y1487859D01*
G01X14476677Y1430709D01*
G01X14476677Y1487859D02*
G01X14493695Y1505131D01*
G01X14505125Y1510719D01*
G01X14522397Y1510719D01*
G01X14533827Y1505131D01*
G01X14539415Y1487859D01*
G01X14539415Y1430709D01*
G01X14587167Y1510719D02*
G01X14587167Y1430709D01*
G01X14587167Y1487859D02*
G01X14604439Y1505131D01*
G01X14615869Y1510719D01*
G01X14632887Y1510719D01*
G01X14644317Y1505131D01*
G01X14650159Y1487859D01*
G01X14650159Y1430709D01*
G01X14650159Y1487859D02*
G01X14667177Y1505131D01*
G01X14678607Y1510719D01*
G01X14695879Y1510719D01*
G01X14707309Y1505131D01*
G01X14712897Y1487859D01*
G01X14712897Y1430709D01*
G01X14760649Y1573711D02*
G01X14772079Y1562281D01*
G01X14783509Y1545009D01*
G01X14794939Y1522149D01*
G01X14800781Y1493701D01*
G01X14800781Y1470841D01*
G01X14794939Y1442139D01*
G01X14783509Y1419279D01*
G01X14772079Y1402261D01*
G01X14760649Y1390831D01*
G01X16968563Y1550851D02*
G01X16968563Y1430709D01*
G01X16968563Y1550851D02*
G01X17020125Y1550851D01*
G01X17037143Y1545009D01*
G01X17042985Y1539421D01*
G01X17048573Y1527991D01*
G01X17048573Y1510719D01*
G01X17042985Y1499289D01*
G01X17037143Y1493701D01*
G01X17020125Y1487859D01*
G01X16968563Y1487859D01*
G01X17136457Y1550851D02*
G01X17136457Y1430709D01*
G01X17096325Y1550851D02*
G01X17176335Y1550851D01*
G01X17224087Y1550851D02*
G01X17224087Y1430709D01*
G01X17304097Y1550851D02*
G01X17304097Y1430709D01*
G01X17224087Y1493701D02*
G01X17304097Y1493701D01*
G01X18429970Y1550851D02*
G01X18429970Y1430709D01*
G01X18429970Y1550851D02*
G01X18481532Y1550851D01*
G01X18498550Y1545009D01*
G01X18504392Y1539421D01*
G01X18509980Y1527991D01*
G01X18509980Y1516561D01*
G01X18504392Y1505131D01*
G01X18498550Y1499289D01*
G01X18481532Y1493701D01*
G01X18429970Y1493701D01*
G01X18470102Y1493701D02*
G01X18509980Y1430709D01*
G01X18586434Y1510719D02*
G01X18575004Y1505131D01*
G01X18563574Y1493701D01*
G01X18557732Y1476429D01*
G01X18557732Y1464999D01*
G01X18563574Y1447981D01*
G01X18575004Y1436551D01*
G01X18586434Y1430709D01*
G01X18603452Y1430709D01*
G01X18614882Y1436551D01*
G01X18626312Y1447981D01*
G01X18632154Y1464999D01*
G01X18632154Y1476429D01*
G01X18626312Y1493701D01*
G01X18614882Y1505131D01*
G01X18603452Y1510719D01*
G01X18586434Y1510719D01*
G01X18679906Y1510719D02*
G01X18679906Y1453569D01*
G01X18685748Y1436551D01*
G01X18697178Y1430709D01*
G01X18714196Y1430709D01*
G01X18725626Y1436551D01*
G01X18742898Y1453569D01*
G01X18742898Y1510719D02*
G01X18742898Y1430709D01*
G01X18790650Y1510719D02*
G01X18790650Y1430709D01*
G01X18790650Y1487859D02*
G01X18807922Y1505131D01*
G01X18819352Y1510719D01*
G01X18836370Y1510719D01*
G01X18847800Y1505131D01*
G01X18853642Y1487859D01*
G01X18853642Y1430709D01*
G01X18969974Y1550851D02*
G01X18969974Y1430709D01*
G01X18969974Y1493701D02*
G01X18958544Y1505131D01*
G01X18947114Y1510719D01*
G01X18930096Y1510719D01*
G01X18918666Y1505131D01*
G01X18907236Y1493701D01*
G01X18901394Y1476429D01*
G01X18901394Y1464999D01*
G01X18907236Y1447981D01*
G01X18918666Y1436551D01*
G01X18930096Y1430709D01*
G01X18947114Y1430709D01*
G01X18958544Y1436551D01*
G01X18969974Y1447981D01*
G01X19861151Y1550851D02*
G01X19906871Y1430709D01*
G01X19952591Y1550851D02*
G01X19906871Y1430709D01*
G01X20000343Y1550851D02*
G01X20006185Y1545009D01*
G01X20011773Y1550851D01*
G01X20006185Y1556439D01*
G01X20000343Y1550851D01*
G01X20006185Y1510719D02*
G01X20006185Y1430709D01*
G01X20128105Y1510719D02*
G01X20128105Y1430709D01*
G01X20128105Y1493701D02*
G01X20116675Y1505131D01*
G01X20105245Y1510719D01*
G01X20088227Y1510719D01*
G01X20076797Y1505131D01*
G01X20065367Y1493701D01*
G01X20059525Y1476429D01*
G01X20059525Y1464999D01*
G01X20065367Y1447981D01*
G01X20076797Y1436551D01*
G01X20088227Y1430709D01*
G01X20105245Y1430709D01*
G01X20116675Y1436551D01*
G01X20128105Y1447981D01*
G01X23489831Y1550851D02*
G01X23489831Y1430709D01*
G01X23449699Y1550851D02*
G01X23529709Y1550851D01*
G01X23606163Y1510719D02*
G01X23594733Y1505131D01*
G01X23583303Y1493701D01*
G01X23577461Y1476429D01*
G01X23577461Y1464999D01*
G01X23583303Y1447981D01*
G01X23594733Y1436551D01*
G01X23606163Y1430709D01*
G01X23623181Y1430709D01*
G01X23634611Y1436551D01*
G01X23646041Y1447981D01*
G01X23651883Y1464999D01*
G01X23651883Y1476429D01*
G01X23646041Y1493701D01*
G01X23634611Y1505131D01*
G01X23623181Y1510719D01*
G01X23606163Y1510719D01*
G01X23699635Y1510719D02*
G01X23699635Y1390831D01*
G01X23699635Y1493701D02*
G01X23711065Y1505131D01*
G01X23722495Y1510719D01*
G01X23739767Y1510719D01*
G01X23751197Y1505131D01*
G01X23762627Y1493701D01*
G01X23768215Y1476429D01*
G01X23768215Y1464999D01*
G01X23762627Y1447981D01*
G01X23751197Y1436551D01*
G01X23739767Y1430709D01*
G01X23722495Y1430709D01*
G01X23711065Y1436551D01*
G01X23699635Y1447981D01*
G01X23943983Y1550851D02*
G01X23943983Y1430709D01*
G01X23943983Y1430709D02*
G01X24012563Y1430709D01*
G01X24128895Y1510719D02*
G01X24128895Y1430709D01*
G01X24128895Y1493701D02*
G01X24117465Y1505131D01*
G01X24106035Y1510719D01*
G01X24089017Y1510719D01*
G01X24077587Y1505131D01*
G01X24066157Y1493701D01*
G01X24060315Y1476429D01*
G01X24060315Y1464999D01*
G01X24066157Y1447981D01*
G01X24077587Y1436551D01*
G01X24089017Y1430709D01*
G01X24106035Y1430709D01*
G01X24117465Y1436551D01*
G01X24128895Y1447981D01*
G01X24182489Y1510719D02*
G01X24216779Y1430709D01*
G01X24251069Y1510719D02*
G01X24216779Y1430709D01*
G01X24205349Y1407849D01*
G01X24193919Y1396419D01*
G01X24182489Y1390831D01*
G01X24176647Y1390831D01*
G01X24298821Y1476429D02*
G01X24367401Y1476429D01*
G01X24367401Y1487859D01*
G01X24361813Y1499289D01*
G01X24355971Y1505131D01*
G01X24344541Y1510719D01*
G01X24327523Y1510719D01*
G01X24316093Y1505131D01*
G01X24304663Y1493701D01*
G01X24298821Y1476429D01*
G01X24298821Y1464999D01*
G01X24304663Y1447981D01*
G01X24316093Y1436551D01*
G01X24327523Y1430709D01*
G01X24344541Y1430709D01*
G01X24355971Y1436551D01*
G01X24367401Y1447981D01*
G01X24415153Y1510719D02*
G01X24415153Y1430709D01*
G01X24415153Y1476429D02*
G01X24420995Y1493701D01*
G01X24432425Y1505131D01*
G01X24443855Y1510719D01*
G01X24460873Y1510719D01*
G01X24508625Y1482271D02*
G01X24611495Y1482271D01*
G01X24659247Y1550851D02*
G01X24659247Y1430709D01*
G01X24659247Y1550851D02*
G01X24710809Y1550851D01*
G01X24727827Y1545009D01*
G01X24733669Y1539421D01*
G01X24739257Y1527991D01*
G01X24739257Y1516561D01*
G01X24733669Y1505131D01*
G01X24727827Y1499289D01*
G01X24710809Y1493701D01*
G01X24659247Y1493701D02*
G01X24710809Y1493701D01*
G01X24727827Y1487859D01*
G01X24733669Y1482271D01*
G01X24739257Y1470841D01*
G01X24739257Y1453569D01*
G01X24733669Y1442139D01*
G01X24727827Y1436551D01*
G01X24710809Y1430709D01*
G01X24659247Y1430709D01*
G01X24815711Y1510719D02*
G01X24804281Y1505131D01*
G01X24792851Y1493701D01*
G01X24787009Y1476429D01*
G01X24787009Y1464999D01*
G01X24792851Y1447981D01*
G01X24804281Y1436551D01*
G01X24815711Y1430709D01*
G01X24832729Y1430709D01*
G01X24844159Y1436551D01*
G01X24855589Y1447981D01*
G01X24861431Y1464999D01*
G01X24861431Y1476429D01*
G01X24855589Y1493701D01*
G01X24844159Y1505131D01*
G01X24832729Y1510719D01*
G01X24815711Y1510719D01*
G01X24926455Y1550851D02*
G01X24926455Y1453569D01*
G01X24932043Y1436551D01*
G01X24943473Y1430709D01*
G01X24954903Y1430709D01*
G01X24909183Y1510719D02*
G01X24949315Y1510719D01*
G01X25019927Y1550851D02*
G01X25019927Y1453569D01*
G01X25025515Y1436551D01*
G01X25036945Y1430709D01*
G01X25048375Y1430709D01*
G01X25002655Y1510719D02*
G01X25042787Y1510719D01*
G01X25124829Y1510719D02*
G01X25113399Y1505131D01*
G01X25101969Y1493701D01*
G01X25096127Y1476429D01*
G01X25096127Y1464999D01*
G01X25101969Y1447981D01*
G01X25113399Y1436551D01*
G01X25124829Y1430709D01*
G01X25141847Y1430709D01*
G01X25153277Y1436551D01*
G01X25164707Y1447981D01*
G01X25170549Y1464999D01*
G01X25170549Y1476429D01*
G01X25164707Y1493701D01*
G01X25153277Y1505131D01*
G01X25141847Y1510719D01*
G01X25124829Y1510719D01*
G01X25218301Y1510719D02*
G01X25218301Y1430709D01*
G01X25218301Y1487859D02*
G01X25235573Y1505131D01*
G01X25247003Y1510719D01*
G01X25264021Y1510719D01*
G01X25275451Y1505131D01*
G01X25281293Y1487859D01*
G01X25281293Y1430709D01*
G01X25281293Y1487859D02*
G01X25298311Y1505131D01*
G01X25309741Y1510719D01*
G01X25327013Y1510719D01*
G01X25338443Y1505131D01*
G01X25344031Y1487859D01*
G01X25344031Y1430709D01*
G01X25519799Y1550851D02*
G01X25519799Y1430709D01*
G01X25519799Y1430709D02*
G01X25588379Y1430709D01*
G01X25704711Y1510719D02*
G01X25704711Y1430709D01*
G01X25704711Y1493701D02*
G01X25693281Y1505131D01*
G01X25681851Y1510719D01*
G01X25664833Y1510719D01*
G01X25653403Y1505131D01*
G01X25641973Y1493701D01*
G01X25636131Y1476429D01*
G01X25636131Y1464999D01*
G01X25641973Y1447981D01*
G01X25653403Y1436551D01*
G01X25664833Y1430709D01*
G01X25681851Y1430709D01*
G01X25693281Y1436551D01*
G01X25704711Y1447981D01*
G01X25758305Y1510719D02*
G01X25792595Y1430709D01*
G01X25826885Y1510719D02*
G01X25792595Y1430709D01*
G01X25781165Y1407849D01*
G01X25769735Y1396419D01*
G01X25758305Y1390831D01*
G01X25752463Y1390831D01*
G01X25874637Y1476429D02*
G01X25943217Y1476429D01*
G01X25943217Y1487859D01*
G01X25937629Y1499289D01*
G01X25931787Y1505131D01*
G01X25920357Y1510719D01*
G01X25903339Y1510719D01*
G01X25891909Y1505131D01*
G01X25880479Y1493701D01*
G01X25874637Y1476429D01*
G01X25874637Y1464999D01*
G01X25880479Y1447981D01*
G01X25891909Y1436551D01*
G01X25903339Y1430709D01*
G01X25920357Y1430709D01*
G01X25931787Y1436551D01*
G01X25943217Y1447981D01*
G01X25990969Y1510719D02*
G01X25990969Y1430709D01*
G01X25990969Y1476429D02*
G01X25996811Y1493701D01*
G01X26008241Y1505131D01*
G01X26019671Y1510719D01*
G01X26036689Y1510719D01*

G04 Image Start*
G36*
G01X10455386Y2207986D02*
G01X10620486Y2042886D01*
G01X10455386Y1877786D01*
G01X10290286Y2042886D01*
G01X10326201Y2042886D01*
G01X10455386Y1913701D01*
G01X10584570Y2042886D01*
G01X10455386Y2172070D01*
G01X10455386Y2172070D01*
G01X10326201Y2042886D01*
G01X10290286Y2042886D01*
G01X10455386Y2207986D01*
G37*
G36*
G01X10587263Y4273096D02*
G01X10481649Y4284577D01*
G01X10438774Y4187371D01*
G01X10395899Y4284577D01*
G01X10290286Y4273096D01*
G01X10353049Y4358821D01*
G01X10313327Y4413076D01*
G01X10344820Y4413076D01*
G01X10384520Y4358821D01*
G01X10344820Y4304567D01*
G01X10411647Y4311831D01*
G01X10411647Y4311831D01*
G01X10438774Y4250338D01*
G01X10465901Y4311831D01*
G01X10532729Y4304567D01*
G01X10493029Y4358821D01*
G01X10532703Y4413050D01*
G01X10465876Y4405786D01*
G01X10438774Y4467305D01*
G01X10411647Y4405811D01*
G01X10344820Y4413076D01*
G01X10313327Y4413076D01*
G01X10290286Y4444546D01*
G01X10395924Y4433066D01*
G01X10438774Y4530271D01*
G01X10481649Y4433066D01*
G01X10587263Y4444546D01*
G01X10524499Y4358821D01*
G01X10587263Y4273096D01*
G37*
G36*
G01X10458269Y5387401D02*
G01X10450529Y5386813D01*
G01X10442686Y5386614D01*
G01X10434843Y5386813D01*
G01X10427102Y5387401D01*
G01X10419475Y5388370D01*
G01X10411970Y5389710D01*
G01X10397364Y5393465D01*
G01X10383362Y5398590D01*
G01X10370040Y5405007D01*
G01X10357474Y5412640D01*
G01X10345742Y5421413D01*
G01X10334920Y5431248D01*
G01X10325084Y5442071D01*
G01X10316311Y5453803D01*
G01X10308678Y5466368D01*
G01X10302261Y5479690D01*
G01X10297137Y5493692D01*
G01X10293382Y5508298D01*
G01X10292042Y5515804D01*
G01X10291072Y5523431D01*
G01X10290484Y5531171D01*
G01X10290286Y5539014D01*
G01X10315686Y5539014D01*
G01X10316343Y5526048D01*
G01X10318271Y5513452D01*
G01X10321405Y5501290D01*
G01X10325682Y5489628D01*
G01X10331037Y5478528D01*
G01X10337405Y5468057D01*
G01X10344723Y5458277D01*
G01X10352925Y5449254D01*
G01X10361949Y5441051D01*
G01X10371728Y5433734D01*
G01X10382200Y5427365D01*
G01X10393299Y5422010D01*
G01X10404962Y5417734D01*
G01X10417123Y5414599D01*
G01X10417123Y5414599D01*
G01X10429719Y5412671D01*
G01X10442686Y5412014D01*
G01X10455652Y5412671D01*
G01X10468248Y5414599D01*
G01X10480410Y5417734D01*
G01X10492072Y5422010D01*
G01X10503172Y5427365D01*
G01X10513643Y5433734D01*
G01X10523423Y5441051D01*
G01X10532446Y5449254D01*
G01X10540649Y5458277D01*
G01X10547966Y5468057D01*
G01X10554335Y5478528D01*
G01X10559690Y5489628D01*
G01X10563966Y5501290D01*
G01X10567101Y5513452D01*
G01X10569029Y5526048D01*
G01X10569686Y5539014D01*
G01X10569029Y5551981D01*
G01X10567101Y5564577D01*
G01X10563966Y5576738D01*
G01X10559690Y5588401D01*
G01X10554335Y5599500D01*
G01X10547966Y5609972D01*
G01X10540649Y5619751D01*
G01X10532446Y5628775D01*
G01X10523423Y5636977D01*
G01X10513643Y5644295D01*
G01X10503172Y5650663D01*
G01X10492072Y5656018D01*
G01X10480410Y5660295D01*
G01X10468248Y5663429D01*
G01X10455652Y5665357D01*
G01X10442686Y5666014D01*
G01X10429719Y5665357D01*
G01X10417123Y5663429D01*
G01X10404962Y5660295D01*
G01X10393299Y5656018D01*
G01X10382200Y5650663D01*
G01X10371728Y5644295D01*
G01X10361949Y5636977D01*
G01X10352925Y5628775D01*
G01X10344723Y5619751D01*
G01X10337405Y5609972D01*
G01X10331037Y5599500D01*
G01X10325682Y5588401D01*
G01X10321405Y5576738D01*
G01X10318271Y5564577D01*
G01X10316343Y5551981D01*
G01X10315686Y5539014D01*
G01X10290286Y5539014D01*
G01X10290484Y5546857D01*
G01X10291072Y5554598D01*
G01X10292042Y5562225D01*
G01X10293382Y5569730D01*
G01X10297137Y5584336D01*
G01X10302261Y5598338D01*
G01X10308678Y5611660D01*
G01X10316311Y5624226D01*
G01X10325084Y5635958D01*
G01X10334920Y5646780D01*
G01X10345742Y5656616D01*
G01X10357474Y5665389D01*
G01X10370040Y5673022D01*
G01X10383362Y5679439D01*
G01X10397364Y5684563D01*
G01X10411970Y5688318D01*
G01X10419475Y5689658D01*
G01X10427102Y5690628D01*
G01X10434843Y5691216D01*
G01X10442686Y5691414D01*
G01X10450529Y5691216D01*
G01X10458269Y5690628D01*
G01X10465896Y5689658D01*
G01X10473402Y5688318D01*
G01X10488008Y5684563D01*
G01X10502010Y5679439D01*
G01X10515332Y5673022D01*
G01X10527897Y5665389D01*
G01X10539629Y5656616D01*
G01X10550452Y5646780D01*
G01X10560287Y5635958D01*
G01X10569060Y5624226D01*
G01X10576693Y5611660D01*
G01X10583110Y5598338D01*
G01X10588235Y5584336D01*
G01X10591990Y5569730D01*
G01X10593330Y5562225D01*
G01X10594299Y5554598D01*
G01X10594887Y5546857D01*
G01X10595086Y5539014D01*
G01X10594887Y5531171D01*
G01X10594299Y5523431D01*
G01X10593330Y5515804D01*
G01X10591990Y5508298D01*
G01X10588235Y5493692D01*
G01X10583110Y5479690D01*
G01X10576693Y5466368D01*
G01X10569060Y5453803D01*
G01X10560287Y5442071D01*
G01X10550452Y5431248D01*
G01X10539629Y5421413D01*
G01X10527897Y5412640D01*
G01X10515332Y5405007D01*
G01X10502010Y5398590D01*
G01X10488008Y5393465D01*
G01X10473402Y5389710D01*
G01X10465896Y5388370D01*
G01X10458269Y5387401D01*
G37*
G36*
G01X10595086Y3147463D02*
G01X10511977Y3147463D01*
G01X10511977Y3064329D01*
G01X10373420Y3064329D01*
G01X10373420Y3147437D01*
G01X10290286Y3147437D01*
G01X10290286Y3260594D01*
G01X10315686Y3260594D01*
G01X10315686Y3172863D01*
G01X10398820Y3172863D01*
G01X10398820Y3089729D01*
G01X10398820Y3089729D01*
G01X10486552Y3089729D01*
G01X10486552Y3172837D01*
G01X10569686Y3172837D01*
G01X10569686Y3260594D01*
G01X10486552Y3260594D01*
G01X10486552Y3343729D01*
G01X10398820Y3343729D01*
G01X10398820Y3260594D01*
G01X10315686Y3260594D01*
G01X10290286Y3260594D01*
G01X10290286Y3285994D01*
G01X10373420Y3285994D01*
G01X10373420Y3369129D01*
G01X10511952Y3369129D01*
G01X10511952Y3285994D01*
G01X10595086Y3285994D01*
G01X10595086Y3147463D01*
G37*
G36*
G01X10595086Y3949700D02*
G01X10525058Y3797300D01*
G01X10595086Y3644900D01*
G01X10442686Y3714928D01*
G01X10290286Y3644900D01*
G01X10314048Y3696614D01*
G01X10342000Y3696614D01*
G01X10432069Y3738016D01*
G01X10442686Y3742893D01*
G01X10453303Y3738016D01*
G01X10543371Y3696614D01*
G01X10501969Y3786683D01*
G01X10497093Y3797300D01*
G01X10501969Y3807917D01*
G01X10543371Y3897986D01*
G01X10453303Y3856584D01*
G01X10442686Y3851707D01*
G01X10432069Y3856584D01*
G01X10342000Y3897986D01*
G01X10383402Y3807917D01*
G01X10388279Y3797300D01*
G01X10388279Y3797300D01*
G01X10383402Y3786683D01*
G01X10342000Y3696614D01*
G01X10314048Y3696614D01*
G01X10360314Y3797300D01*
G01X10290286Y3949700D01*
G01X10442686Y3879672D01*
G01X10595086Y3949700D01*
G37*
G36*
G01X10290286Y5110843D02*
G01X10595086Y5110843D01*
G01X10442686Y4846886D01*
G01X10304951Y5085443D01*
G01X10334279Y5085443D01*
G01X10442686Y4897686D01*
G01X10551093Y5085443D01*
G01X10551093Y5085443D01*
G01X10334279Y5085443D01*
G01X10304951Y5085443D01*
G01X10290286Y5110843D01*
G37*
G36*
G01X10569686Y2509157D02*
G01X10468086Y2509157D01*
G01X10429986Y2585357D01*
G01X10391886Y2509157D01*
G01X10290286Y2509157D01*
G01X10290286Y2534557D01*
G01X10315686Y2534557D01*
G01X10376189Y2534557D01*
G01X10407253Y2596711D01*
G01X10429986Y2642152D01*
G01X10452719Y2596711D01*
G01X10483783Y2534557D01*
G01X10544286Y2534557D01*
G01X10544286Y2595060D01*
G01X10482132Y2626150D01*
G01X10436691Y2648857D01*
G01X10482132Y2671565D01*
G01X10544286Y2702654D01*
G01X10544286Y2763157D01*
G01X10483783Y2763157D01*
G01X10452719Y2701003D01*
G01X10429986Y2655563D01*
G01X10407253Y2701003D01*
G01X10376189Y2763157D01*
G01X10315686Y2763157D01*
G01X10315686Y2702654D01*
G01X10377840Y2671565D01*
G01X10423280Y2648857D01*
G01X10377840Y2626150D01*
G01X10315686Y2595060D01*
G01X10315686Y2534557D01*
G01X10315686Y2534557D01*
G01X10290286Y2534557D01*
G01X10290286Y2610757D01*
G01X10366486Y2648857D01*
G01X10290286Y2686957D01*
G01X10290286Y2788557D01*
G01X10391886Y2788557D01*
G01X10429986Y2712357D01*
G01X10468086Y2788557D01*
G01X10569686Y2788557D01*
G01X10569686Y2686957D01*
G01X10493486Y2648857D01*
G01X10569686Y2610757D01*
G01X10569686Y2509157D01*
G37*
G36*
G01X10290286Y6271986D02*
G01X10569686Y6271986D01*
G01X10569686Y5992586D01*
G01X10290286Y5992586D01*
G01X10290286Y6246586D01*
G01X10315686Y6246586D01*
G01X10315686Y6017986D01*
G01X10544286Y6017986D01*
G01X10544286Y6246586D01*
G01X10544286Y6246586D01*
G01X10315686Y6246586D01*
G01X10290286Y6246586D01*
G01X10290286Y6271986D01*
G37*
G36*
G01X10290286Y1627414D02*
G01X10569686Y1627414D01*
G01X10569686Y1348014D01*
G01X10290286Y1348014D01*
G01X10290286Y1602014D01*
G01X10315686Y1602014D01*
G01X10315686Y1373414D01*
G01X10544286Y1373414D01*
G01X10544286Y1602014D01*
G01X10544286Y1602014D01*
G01X10315686Y1602014D01*
G01X10290286Y1602014D01*
G01X10290286Y1627414D01*
G37*
G36*
G01X10341086Y1576614D02*
G01X10518886Y1576614D01*
G01X10518886Y1398814D01*
G01X10341086Y1398814D01*
G01X10341086Y1424214D01*
G01X10366486Y1424214D01*
G01X10493486Y1424214D01*
G01X10493486Y1551214D01*
G01X10366486Y1551214D01*
G01X10366486Y1424214D01*
G01X10366486Y1424214D01*
G01X10341086Y1424214D01*
G01X10341086Y1576614D01*
G37*

G04 PolygonModel Start*
G54D20*
G01X10000000Y1191986D02*
G01X26627421Y1191986D01*
G01X10000000Y1772557D02*
G01X26627421Y1772557D01*
G01X10000000Y2353129D02*
G01X26627421Y2353129D01*
G01X10000000Y2933700D02*
G01X26627421Y2933700D01*
G01X10000000Y3514271D02*
G01X26627421Y3514271D01*
G01X10000000Y4094843D02*
G01X26627421Y4094843D01*
G01X10000000Y4675414D02*
G01X26627421Y4675414D01*
G01X10000000Y5255986D02*
G01X26627421Y5255986D01*
G01X10000000Y5836557D02*
G01X26627421Y5836557D01*
G01X10000000Y6417129D02*
G01X26627421Y6417129D01*
G01X10000000Y6997700D02*
G01X26627421Y6997700D01*
G01X10000000Y6997700D02*
G01X10000000Y1217386D01*
G01X11451429Y6997700D02*
G01X11451429Y1217386D01*
G01X12865592Y6997700D02*
G01X12865592Y1217386D01*
G01X16668117Y6997700D02*
G01X16668117Y1217386D01*
G01X18129524Y6997700D02*
G01X18129524Y1217386D01*
G01X19560705Y6997700D02*
G01X19560705Y1217386D01*
G01X21229884Y6997700D02*
G01X21229884Y1217386D01*
G01X23149253Y6997700D02*
G01X23149253Y1217386D01*
G01X26627421Y6997700D02*
G01X26627421Y1217386D01*

M02*

