G04 Layer: InnerLayer2*
G04 EasyEDA Pro v3.2.148, 2026-09-01 12:52:47*
G04 Gerber Generator version 0.3*
G04 Scale: 100 percent, Rotated: No, Reflected: No*
G04 Dimensions in millimeters*
G04 Leading zeros omitted, absolute positions, 4 integers and 5 decimals*
G04 Generated by one-click*
G04 Object Configs: Pad,Via,Track,Text,Image,Dimension,BoardOutline,BoardCutout,CopperFilled,SolidRegion,FPCStiffener,Line,PlaneZone,ComponentProperty,ComponentSilkscreen,TearDrop*
G04 Layer Configs: 1,15,16,2,3,4,5,6,7,8,9,10,11,13,14,56*
G04 Copper Areas: 0*
%FSLAX45Y45*%
%MOMM*%
%ADD10R,1.7X1.7*%
%ADD11C,1.7*%
%ADD12R,1.6X1.6*%
%ADD13C,1.6*%
%ADD14R,1.8X1.8*%
%ADD15C,1.8*%
%ADD16C,0.4*%
%ADD17C,0.6*%
%ADD18C,0.2529*%
%ADD19C,0.25*%
%ADD20C,0.5*%
%ADD21C,0.1016*%
G75*


G04 Pad Start*
G54D10*
G01X2115000Y301500D03*
G54D11*
G01X2369000Y301500D03*
G01X2623000Y301500D03*
G01X2877000Y301500D03*
G01X3131000Y301500D03*
G01X3385000Y301500D03*
G54D12*
G01X400000Y3093491D03*
G54D13*
G01X400000Y2843505D03*
G01X400000Y2593492D03*
G01X400000Y2343506D03*
G01X400000Y2093493D03*
G01X400000Y1843507D03*
G01X400000Y1593494D03*
G01X400000Y1343508D03*
G01X400000Y1093495D03*
G01X400000Y843509D03*
G54D10*
G01X4200000Y2663500D03*
G54D11*
G01X4200000Y2409500D03*
G01X4200000Y2155500D03*
G01X4200000Y1901500D03*
G01X4200000Y1647500D03*
G01X4200000Y1393500D03*
G01X4200000Y1139500D03*
G54D10*
G01X400000Y4673600D03*
G54D11*
G01X400000Y4419600D03*
G01X400000Y4165600D03*
G01X400000Y3911600D03*
G01X400000Y3657600D03*
G54D14*
G01X2253000Y3860800D03*
G54D15*
G01X2507000Y3860800D03*
G54D14*
G01X406400Y6428500D03*
G54D15*
G01X406400Y6174500D03*
G54D14*
G01X400000Y5528500D03*
G54D15*
G01X400000Y5274500D03*
G54D12*
G01X7708900Y6197600D03*
G54D13*
G01X7708900Y5943600D03*
G01X7708900Y5689600D03*
G01X7708900Y5435600D03*
G01X7708900Y5181600D03*
G01X7708900Y4927600D03*
G01X7708900Y4673600D03*
G01X7708900Y4419600D03*
G01X7708900Y4165600D03*
G01X7708900Y3911600D03*
G01X7708900Y3657600D03*
G01X7708900Y3403600D03*
G01X7708900Y3149600D03*
G01X7708900Y2895600D03*
G01X7708900Y2641600D03*
G01X7708900Y2387600D03*
G01X7708900Y2133600D03*
G01X7708900Y1879600D03*
G01X7708900Y1625600D03*
G01X7708900Y1371600D03*
G01X7708900Y1117600D03*
G01X7708900Y863600D03*
G54D12*
G01X5422900Y6197600D03*
G54D13*
G01X5422900Y5943600D03*
G01X5422900Y5689600D03*
G01X5422900Y5435600D03*
G01X5422900Y5181600D03*
G01X5422900Y4927600D03*
G01X5422900Y4673600D03*
G01X5422900Y4419600D03*
G01X5422900Y4165600D03*
G01X5422900Y3911600D03*
G01X5422900Y3657600D03*
G01X5422900Y3403600D03*
G01X5422900Y3149600D03*
G01X5422900Y2895600D03*
G01X5422900Y2641600D03*
G01X5422900Y2387600D03*
G01X5422900Y2133600D03*
G01X5422900Y1879600D03*
G01X5422900Y1625600D03*
G01X5422900Y1371600D03*
G01X5422900Y1117600D03*
G01X5422900Y863600D03*
G04 Pad End*

G04 Via Start*
G54D16*
G01X825503Y1905000D03*
G54D17*
G01X4838700Y647700D03*
G01X5130800Y825500D03*
G54D16*
G01X2291498Y1092200D03*
G01X1447800Y721498D03*
G01X1447800Y1054100D03*
G01X1447800Y1384300D03*
G01X1447800Y1739900D03*
G01X1447800Y2233102D03*
G01X1447800Y2603500D03*
G01X1460500Y2908300D03*
G01X2484394Y1384300D03*
G01X1460500Y3263900D03*
G01X825503Y952500D03*
G01X2632488Y1381500D03*
G01X2717800Y1384300D03*
G01X4889500Y4420464D03*
G01X2631694Y2768600D03*
G01X2781706Y2489200D03*
G01X2717800Y2489200D03*
G01X2641600Y2489200D03*
G01X2857500Y2489200D03*
G01X3022600Y2489200D03*
G01X3081706Y2501900D03*
G01X3181706Y2501900D03*
G01X3131693Y2755900D03*
G01X3031693Y2755900D03*
G01X2933700Y2755900D03*
G01X3225800Y1795094D03*
G01X4597400Y3861981D03*
G01X2079500Y1204000D03*
G01X2602498Y889000D03*
G01X2921000Y889000D03*
G54D17*
G01X1047600Y5924820D03*
G54D16*
G01X787400Y2705100D03*
G01X2581707Y1651000D03*
G01X2731694Y1651000D03*
G01X2831694Y1651000D03*
G01X4876800Y3771900D03*
G01X3131693Y1694000D03*
G01X3594100Y1895094D03*
G54D17*
G01X4076700Y6057900D03*
G01X3340100Y5283200D03*
G01X3606800Y5532552D03*
G54D16*
G01X3530600Y1745107D03*
G01X3530600Y1845107D03*
G01X3530600Y1945107D03*
G01X3530600Y2044700D03*
G01X3530600Y2195093D03*
G01X3594100Y1995094D03*
G01X3594100Y2395093D03*
G01X3530600Y2445106D03*
G54D17*
G01X4648200Y1117404D03*
G01X4268413Y5131335D03*
G01X4267200Y5727700D03*
G01X4067797Y4940300D03*
G54D16*
G01X3225800Y2095094D03*
G01X5029200Y3771900D03*
G01X3149600Y2320188D03*
G01X3479800Y3149600D03*
G01X4644288Y3784600D03*
G01X3048000Y1694900D03*
G54D17*
G01X2438400Y3492500D03*
G01X3302000Y3492500D03*
G54D16*
G01X4724400Y3606800D03*
G54D17*
G01X2724302Y3340100D03*
G54D16*
G01X4942988Y3606800D03*
G54D17*
G01X2725000Y3676700D03*
G01X3003398Y3670300D03*
G01X2990698Y3340100D03*
G01X3721100Y2838298D03*
G54D16*
G01X3606800Y4203700D03*
G01X3606800Y3848100D03*
G01X4279900Y4273702D03*
G01X4279900Y3771498D03*
G01X4775200Y4826000D03*
G01X4572000Y4572000D03*
G01X3403600Y2607412D03*
G01X3137012Y1917700D03*
G01X3619500Y2523388D03*
G01X2971800Y1731988D03*
G01X2159000Y1286612D03*
G01X3606800Y3911499D03*
G01X3606800Y4134001D03*
G01X4711700Y4229100D03*
G01X4902200Y5346700D03*
G01X5067300Y5575300D03*
G01X2882900Y3187700D03*
G01X3124200Y495300D03*
G01X3345000Y863600D03*
G01X3345000Y1376500D03*
G01X3181706Y1384300D03*
G54D17*
G01X1270000Y6225931D03*
G01X1592266Y6592630D03*
G54D16*
G01X6908800Y1879600D03*
G01X2865400Y5880100D03*
G01X2374900Y5613400D03*
G01X2278380Y5892800D03*
G01X2090420Y5905500D03*
G54D17*
G01X2236800Y4902200D03*
G01X2654883Y5842000D03*
G54D16*
G01X2184400Y5580804D03*
G01X1619098Y5359400D03*
G01X2184400Y5778500D03*
G01X2174800Y5961181D03*
G04 Via End*

G04 Track Start*
G54D19*
G01X3022600Y2489200D02*
G01X2921000Y2387600D01*
G01X2883306Y2387600D01*
G01X2781706Y2489200D01*
G01X2857500Y2489200D02*
G01X2781300Y2565400D01*
G01X2705100Y2565400D01*
G01X2641600Y2501900D01*
G54D20*
G01X3721100Y2838298D02*
G01X3721100Y4593603D01*
G01X4067797Y4940300D01*
G01X2990698Y3340100D02*
G01X2927198Y3340100D01*
G01X2838298Y3429000D01*
G01X2590800Y3429000D01*
G01X2489200Y3327400D01*
G01X2489200Y2640000D01*
G01X2539200Y2590000D01*
G01X2540800Y2590000D01*
G01X2641600Y2489200D01*
G01X2717800Y2489200D02*
G01X2717800Y2387600D01*
G01X2971800Y2133600D01*
G01X2971800Y1731988D01*
G01X2781706Y2489200D02*
G01X2717800Y2489200D01*
G01X4067797Y4940300D02*
G01X4711700Y4940300D01*
G01X4775200Y4876800D01*
G01X4775200Y4826000D01*
G54D19*
G01X3213100Y2222500D02*
G01X3136900Y2146300D01*
G01X3136900Y1917812D01*
G01X3530600Y2445106D02*
G01X3307994Y2222500D01*
G01X3213100Y2222500D01*
G54D20*
G01X2641600Y2489200D02*
G01X2641600Y2032000D01*
G01X2971800Y1731988D02*
G01X2971800Y939800D01*
G01X2921000Y889000D01*
G01X2602498Y889000D01*
G01X4724400Y3898900D02*
G01X4724400Y3606800D01*
G01X4942988Y3606800D02*
G01X4890078Y3553890D01*
G01X4777310Y3553890D01*
G01X4724400Y3606800D01*
G01X4775200Y4826000D02*
G01X4775200Y4775200D01*
G01X4572000Y4572000D01*
G01X4572000Y4051300D01*
G01X4724400Y3898900D01*
G01X4775200Y5219700D02*
G01X4902200Y5346700D01*
G01X4368800Y5765800D02*
G01X4076700Y6057900D01*
G01X3606800Y5532552D02*
G01X4262552Y5532552D01*
G01X4368800Y5638800D01*
G01X4368800Y5765800D01*
G01X4775200Y4876800D02*
G01X4775200Y5219700D01*
G01X4902200Y5346700D02*
G01X4902200Y5410200D01*
G01X5067300Y5575300D01*
G54D16*
G01X3022600Y2489200D02*
G01X2806700Y2705100D01*
G54D20*
G01X2806700Y2705100D02*
G01X2806700Y3162300D01*
G01X2832100Y3187700D01*
G01X2882900Y3187700D01*
G01X2641600Y2032000D02*
G01X2159000Y1549400D01*
G01X2159000Y1286612D01*
G01X2159000Y588000D01*
G01X2112500Y541500D01*
G01X2112500Y304000D01*
G01X2115000Y301500D01*
G01X3124200Y495300D02*
G01X3124200Y308300D01*
G01X3131000Y301500D01*
G01X3385000Y301500D02*
G01X3832296Y301500D01*
G01X4648200Y1117404D01*
G01X3797300Y713800D02*
G01X3385000Y301500D01*
G01X3238500Y495300D02*
G01X3124200Y495300D01*
G01X3022600Y495300D01*
G01X2921000Y596900D01*
G01X2921000Y889000D01*
G01X3345000Y863600D02*
G01X3345000Y601800D01*
G01X3238500Y495300D01*
G01X3345000Y1376500D02*
G01X3345000Y863600D01*
G01X3721100Y2838298D02*
G01X3797300Y2762098D01*
G01X3797300Y713800D01*
G01X3619500Y2523388D02*
G01X3721100Y2624988D01*
G01X3721100Y2838298D01*
G01X3606800Y5532552D02*
G01X2913421Y6225931D01*
G01X1270000Y6225931D01*
G54D21*
G01X6908800Y1879600D02*
G01X5727900Y1879600D01*
G01X5600000Y2007500D01*
G01X4792500Y2007500D01*
G01X4645000Y2155000D01*
G01X4200500Y2155000D01*
G01X4200000Y2155500D01*
G54D20*
G01X2236800Y4902200D02*
G01X2725000Y4414000D01*
G01X2725000Y3676700D01*
G01X2997200Y4914900D02*
G01X2997200Y3676498D01*
G01X3003398Y3670300D01*
G01X2236800Y4902200D02*
G01X2108200Y4902200D01*
G01X1625600Y4419600D01*
G01X400000Y4419600D01*
G01X2654883Y5842000D02*
G01X2654883Y5257217D01*
G01X2997200Y4914900D01*
G01X2654883Y5842000D02*
G01X2502483Y5689600D01*
G01X1816100Y5689600D01*
G01X803250Y4676750D01*
G01X403150Y4676750D01*
G01X400000Y4673600D01*
G04 Track End*

M02*

