G04 Layer: BottomSilkscreenLayer*
G04 EasyEDA Pro v3.2.148, 2026-09-01 12:52:47*
G04 Gerber Generator version 0.3*
G04 Scale: 100 percent, Rotated: No, Reflected: No*
G04 Dimensions in millimeters*
G04 Leading zeros omitted, absolute positions, 4 integers and 5 decimals*
G04 Generated by one-click*
G04 Object Configs: Pad,Via,Track,Text,Image,Dimension,BoardOutline,BoardCutout,CopperFilled,SolidRegion,FPCStiffener,Line,PlaneZone,ComponentProperty,ComponentSilkscreen,TearDrop*
G04 Layer Configs: 1,15,16,2,3,4,5,6,7,8,9,10,11,13,14,56*
G04 Copper Areas: 0*
%FSLAX45Y45*%
%MOMM*%
%ADD10C,0.152*%
%ADD11C,0.1524*%
%ADD12C,0.254*%
%ADD13C,0.4093*%
G75*


G04 Text Start*
G36*
G01X7669354Y6672555D02*
G01X7667764Y6672327D01*
G01X7665718Y6672100D01*
G01X7664127Y6671873D01*
G01X7661400Y6671646D01*
G01X7658218Y6671873D01*
G01X7652764Y6672327D01*
G01X7647764Y6673236D01*
G01X7645491Y6673918D01*
G01X7642764Y6674600D01*
G01X7636627Y6676646D01*
G01X7634582Y6677555D01*
G01X7632309Y6678464D01*
G01X7630491Y6679373D01*
G01X7629127Y6680282D01*
G01X7628616Y6682384D01*
G01X7628446Y6687782D01*
G01X7628446Y6694827D01*
G01X7631855Y6692782D01*
G01X7637764Y6689827D01*
G01X7640036Y6688918D01*
G01X7642536Y6688009D01*
G01X7646627Y6686646D01*
G01X7649809Y6685964D01*
G01X7652309Y6685509D01*
G01X7655491Y6685054D01*
G01X7660491Y6684827D01*
G01X7665491Y6685054D01*
G01X7667536Y6685509D01*
G01X7669809Y6686191D01*
G01X7671855Y6687100D01*
G01X7674127Y6688464D01*
G01X7675946Y6689827D01*
G01X7677082Y6690964D01*
G01X7677991Y6692100D01*
G01X7679127Y6693691D01*
G01X7680491Y6695963D01*
G01X7681400Y6698009D01*
G01X7682082Y6699827D01*
G01X7682764Y6702100D01*
G01X7683218Y6704145D01*
G01X7683673Y6706418D01*
G01X7684127Y6709145D01*
G01X7684582Y6712327D01*
G01X7684809Y6715509D01*
G01X7685036Y6717327D01*
G01X7685264Y6726191D01*
G01X7685036Y6735055D01*
G01X7684582Y6740055D01*
G01X7684127Y6743691D01*
G01X7683218Y6748236D01*
G01X7681627Y6753009D01*
G01X7680718Y6755055D01*
G01X7679809Y6756873D01*
G01X7678673Y6758463D01*
G01X7676855Y6760736D01*
G01X7675718Y6761873D01*
G01X7674582Y6762782D01*
G01X7672991Y6763691D01*
G01X7670946Y6764827D01*
G01X7668445Y6765736D01*
G01X7665036Y6766418D01*
G01X7658900Y6766645D01*
G01X7654127Y6766418D01*
G01X7651855Y6765736D01*
G01X7649127Y6764827D01*
G01X7647536Y6763918D01*
G01X7645946Y6762782D01*
G01X7644355Y6761418D01*
G01X7643218Y6760282D01*
G01X7642309Y6759145D01*
G01X7641400Y6757554D01*
G01X7640264Y6755509D01*
G01X7639355Y6753464D01*
G01X7638673Y6751418D01*
G01X7637764Y6747782D01*
G01X7637309Y6745509D01*
G01X7637082Y6743464D01*
G01X7636855Y6741873D01*
G01X7636627Y6738236D01*
G01X7636627Y6735282D01*
G01X7622082Y6735282D01*
G01X7622082Y6738464D01*
G01X7622309Y6742327D01*
G01X7622764Y6746418D01*
G01X7623673Y6750964D01*
G01X7624355Y6753236D01*
G01X7625264Y6756191D01*
G01X7626173Y6758691D01*
G01X7627082Y6760509D01*
G01X7628900Y6763691D01*
G01X7629809Y6765055D01*
G01X7632082Y6768236D01*
G01X7634355Y6770509D01*
G01X7635945Y6771873D01*
G01X7639127Y6774145D01*
G01X7640946Y6775282D01*
G01X7642764Y6776191D01*
G01X7644809Y6777100D01*
G01X7646855Y6777782D01*
G01X7650491Y6778691D01*
G01X7652764Y6779145D01*
G01X7655264Y6779373D01*
G01X7659355Y6779827D01*
G01X7661400Y6779600D01*
G01X7665946Y6779145D01*
G01X7670491Y6778236D01*
G01X7672309Y6777554D01*
G01X7674582Y6776645D01*
G01X7676855Y6775509D01*
G01X7678900Y6774373D01*
G01X7680946Y6773009D01*
G01X7682764Y6771645D01*
G01X7686173Y6768236D01*
G01X7687536Y6766418D01*
G01X7689127Y6764373D01*
G01X7690491Y6762327D01*
G01X7691627Y6760509D01*
G01X7693445Y6756873D01*
G01X7694127Y6755282D01*
G01X7694809Y6753464D01*
G01X7695718Y6750964D01*
G01X7696627Y6748009D01*
G01X7697309Y6745055D01*
G01X7698218Y6740509D01*
G01X7698673Y6737782D01*
G01X7699127Y6734600D01*
G01X7699354Y6730964D01*
G01X7699582Y6728691D01*
G01X7699809Y6722100D01*
G01X7699582Y6715509D01*
G01X7699127Y6710509D01*
G01X7698673Y6707327D01*
G01X7697764Y6702782D01*
G01X7697309Y6700964D01*
G01X7695264Y6694827D01*
G01X7694354Y6692782D01*
G01X7692536Y6689145D01*
G01X7691627Y6687555D01*
G01X7690491Y6685964D01*
G01X7689127Y6684373D01*
G01X7687309Y6682100D01*
G01X7685036Y6679827D01*
G01X7681855Y6677555D01*
G01X7680491Y6676646D01*
G01X7676855Y6674827D01*
G01X7675264Y6674145D01*
G01X7673673Y6673691D01*
G01X7671627Y6673009D01*
G01X7669354Y6672555D01*
G37*
G36*
G01X5387992Y6743918D02*
G01X5371173Y6743918D01*
G01X5371173Y6685282D01*
G01X5392537Y6685282D01*
G01X5392537Y6673464D01*
G01X5326628Y6673464D01*
G01X5326628Y6685282D01*
G01X5357992Y6685282D01*
G01X5357992Y6731645D01*
G01X5356855Y6732327D01*
G01X5353674Y6734600D01*
G01X5351401Y6735964D01*
G01X5345492Y6738918D01*
G01X5343219Y6739827D01*
G01X5340719Y6740736D01*
G01X5338219Y6741418D01*
G01X5334582Y6742327D01*
G01X5332310Y6742782D01*
G01X5329582Y6743236D01*
G01X5327083Y6743464D01*
G01X5325492Y6743691D01*
G01X5321855Y6743918D01*
G01X5318901Y6743918D01*
G01X5318673Y6745055D01*
G01X5318446Y6752327D01*
G01X5318446Y6758463D01*
G01X5319582Y6758691D01*
G01X5321855Y6758691D01*
G01X5324355Y6758463D01*
G01X5326401Y6758236D01*
G01X5328673Y6757782D01*
G01X5331173Y6757100D01*
G01X5335719Y6755736D01*
G01X5337764Y6754827D01*
G01X5340037Y6753918D01*
G01X5341855Y6753009D01*
G01X5345037Y6751191D01*
G01X5346855Y6750055D01*
G01X5349128Y6748464D01*
G01X5350946Y6747100D01*
G01X5352083Y6745964D01*
G01X5354810Y6743691D01*
G01X5356173Y6741873D01*
G01X5357992Y6740282D01*
G01X5358674Y6740225D01*
G01X5358901Y6740964D01*
G01X5359128Y6742782D01*
G01X5359583Y6745964D01*
G01X5360492Y6751418D01*
G01X5360946Y6754600D01*
G01X5361855Y6755509D01*
G01X5375264Y6755736D01*
G01X5387992Y6755736D01*
G01X5387992Y6743918D01*
G37*
G36*
G01X5262992Y6685282D02*
G01X5292537Y6685282D01*
G01X5292764Y6684145D01*
G01X5292992Y6678236D01*
G01X5292992Y6673464D01*
G01X5226628Y6673464D01*
G01X5226628Y6684827D01*
G01X5227765Y6685054D01*
G01X5239355Y6685282D01*
G01X5249810Y6685282D01*
G01X5249810Y6755736D01*
G01X5287992Y6755736D01*
G01X5288219Y6754600D01*
G01X5288446Y6748691D01*
G01X5288446Y6743918D01*
G01X5262992Y6743918D01*
G01X5262992Y6685282D01*
G37*
G36*
G01X5473901Y6673464D02*
G01X5471173Y6672782D01*
G01X5468673Y6672327D01*
G01X5466855Y6671873D01*
G01X5463446Y6671646D01*
G01X5460491Y6671873D01*
G01X5456401Y6672327D01*
G01X5454128Y6672782D01*
G01X5451855Y6673464D01*
G01X5448219Y6674827D01*
G01X5446628Y6675736D01*
G01X5444582Y6677100D01*
G01X5442764Y6678464D01*
G01X5439355Y6681873D01*
G01X5437992Y6683691D01*
G01X5436401Y6685964D01*
G01X5435264Y6688236D01*
G01X5434810Y6689032D01*
G01X5434355Y6689145D01*
G01X5433901Y6687782D01*
G01X5433673Y6685964D01*
G01X5433219Y6683691D01*
G01X5432764Y6680964D01*
G01X5432310Y6678691D01*
G01X5431855Y6675964D01*
G01X5430946Y6673918D01*
G01X5424128Y6673464D01*
G01X5417992Y6673464D01*
G01X5418219Y6675282D01*
G01X5418673Y6677782D01*
G01X5419128Y6680054D01*
G01X5419583Y6682782D01*
G01X5420037Y6685054D01*
G01X5420492Y6687782D01*
G01X5420946Y6690054D01*
G01X5421855Y6695054D01*
G01X5422310Y6697782D01*
G01X5422494Y6713464D01*
G01X5436174Y6713464D01*
G01X5436174Y6707555D01*
G01X5436401Y6700964D01*
G01X5437083Y6698918D01*
G01X5437992Y6696873D01*
G01X5438901Y6695054D01*
G01X5440037Y6693464D01*
G01X5441855Y6691191D01*
G01X5442992Y6690054D01*
G01X5444128Y6689145D01*
G01X5445264Y6688464D01*
G01X5446855Y6687327D01*
G01X5449355Y6686191D01*
G01X5451401Y6685509D01*
G01X5451401Y6685509D01*
G01X5453673Y6684827D01*
G01X5459810Y6684373D01*
G01X5464582Y6684600D01*
G01X5465719Y6684827D01*
G01X5467310Y6685282D01*
G01X5468673Y6685964D01*
G01X5469810Y6686646D01*
G01X5470946Y6687555D01*
G01X5471855Y6688691D01*
G01X5472537Y6690054D01*
G01X5473446Y6692327D01*
G01X5473901Y6697100D01*
G01X5473446Y6701191D01*
G01X5472764Y6703009D01*
G01X5471628Y6705054D01*
G01X5470037Y6706645D01*
G01X5468901Y6707555D01*
G01X5467310Y6708691D01*
G01X5464810Y6709827D01*
G01X5462083Y6710736D01*
G01X5459582Y6711418D01*
G01X5457310Y6711873D01*
G01X5454582Y6712327D01*
G01X5451401Y6712782D01*
G01X5448446Y6713009D01*
G01X5446401Y6713236D01*
G01X5440946Y6713464D01*
G01X5436174Y6713464D01*
G01X5422494Y6713464D01*
G01X5422537Y6717100D01*
G01X5422764Y6735055D01*
G01X5423219Y6738236D01*
G01X5423901Y6740282D01*
G01X5424810Y6742782D01*
G01X5425719Y6744600D01*
G01X5426855Y6746418D01*
G01X5428219Y6748009D01*
G01X5431628Y6751418D01*
G01X5432992Y6752327D01*
G01X5434355Y6753009D01*
G01X5435946Y6753918D01*
G01X5437992Y6754827D01*
G01X5440037Y6755509D01*
G01X5441855Y6755964D01*
G01X5444128Y6756418D01*
G01X5446855Y6756873D01*
G01X5452537Y6757100D01*
G01X5457764Y6756873D01*
G01X5461401Y6756418D01*
G01X5463673Y6755964D01*
G01X5466855Y6755282D01*
G01X5470037Y6754373D01*
G01X5472992Y6753464D01*
G01X5475719Y6752554D01*
G01X5477992Y6751645D01*
G01X5479810Y6750736D01*
G01X5480492Y6748861D01*
G01X5480719Y6744146D01*
G01X5480719Y6738009D01*
G01X5479810Y6738236D01*
G01X5477992Y6738918D01*
G01X5473901Y6740736D01*
G01X5469810Y6742100D01*
G01X5467537Y6742782D01*
G01X5465491Y6743236D01*
G01X5460946Y6744146D01*
G01X5455946Y6744600D01*
G01X5452310Y6744827D01*
G01X5448673Y6744600D01*
G01X5446628Y6744146D01*
G01X5444355Y6743464D01*
G01X5442537Y6742554D01*
G01X5440492Y6741191D01*
G01X5438673Y6739146D01*
G01X5437537Y6736873D01*
G01X5436855Y6735055D01*
G01X5436401Y6733236D01*
G01X5436174Y6727327D01*
G01X5436174Y6722555D01*
G01X5440037Y6722555D01*
G01X5444582Y6722327D01*
G01X5450946Y6721873D01*
G01X5455492Y6721418D01*
G01X5460946Y6720509D01*
G01X5465037Y6719600D01*
G01X5469810Y6718009D01*
G01X5472083Y6717100D01*
G01X5474128Y6716191D01*
G01X5475719Y6715282D01*
G01X5478446Y6713464D01*
G01X5479582Y6712555D01*
G01X5481855Y6710282D01*
G01X5483219Y6708691D01*
G01X5484355Y6706873D01*
G01X5485264Y6705054D01*
G01X5486173Y6703009D01*
G01X5486855Y6700736D01*
G01X5487310Y6698691D01*
G01X5487764Y6695963D01*
G01X5487992Y6692555D01*
G01X5487764Y6690509D01*
G01X5487310Y6688236D01*
G01X5486628Y6685736D01*
G01X5485946Y6683918D01*
G01X5485037Y6682100D01*
G01X5483901Y6680509D01*
G01X5482537Y6678691D01*
G01X5480946Y6677327D01*
G01X5479810Y6676646D01*
G01X5478219Y6675509D01*
G01X5475946Y6674373D01*
G01X5473901Y6673464D01*
G37*
G36*
G01X5761628Y6673464D02*
G01X5759128Y6672782D01*
G01X5756855Y6672327D01*
G01X5754810Y6671873D01*
G01X5751628Y6671646D01*
G01X5748673Y6671873D01*
G01X5744128Y6672327D01*
G01X5742082Y6672782D01*
G01X5739810Y6673464D01*
G01X5737992Y6674145D01*
G01X5736401Y6674827D01*
G01X5734582Y6675736D01*
G01X5732992Y6676873D01*
G01X5731855Y6677782D01*
G01X5730037Y6678918D01*
G01X5728446Y6680509D01*
G01X5726628Y6682782D01*
G01X5725491Y6684373D01*
G01X5724128Y6686418D01*
G01X5722992Y6688236D01*
G01X5722537Y6688521D01*
G01X5722083Y6688009D01*
G01X5721628Y6686191D01*
G01X5721401Y6684600D01*
G01X5720946Y6682327D01*
G01X5720491Y6679600D01*
G01X5720037Y6677327D01*
G01X5719582Y6674827D01*
G01X5719355Y6673464D01*
G01X5706173Y6673464D01*
G01X5706173Y6674600D01*
G01X5706401Y6676418D01*
G01X5706855Y6678691D01*
G01X5707310Y6681418D01*
G01X5707764Y6683691D01*
G01X5708219Y6686418D01*
G01X5709128Y6690964D01*
G01X5709582Y6693691D01*
G01X5710037Y6695963D01*
G01X5710492Y6698691D01*
G01X5710665Y6713464D01*
G01X5723901Y6713464D01*
G01X5723901Y6708691D01*
G01X5724128Y6703236D01*
G01X5724582Y6700964D01*
G01X5725264Y6698464D01*
G01X5726173Y6696418D01*
G01X5727310Y6694373D01*
G01X5728446Y6692782D01*
G01X5730719Y6690509D01*
G01X5732310Y6689145D01*
G01X5733901Y6688009D01*
G01X5735491Y6687100D01*
G01X5737310Y6686191D01*
G01X5739128Y6685509D01*
G01X5740946Y6685054D01*
G01X5740946Y6685054D01*
G01X5743219Y6684600D01*
G01X5748446Y6684373D01*
G01X5752310Y6684600D01*
G01X5753446Y6684827D01*
G01X5755264Y6685282D01*
G01X5757082Y6686191D01*
G01X5758446Y6687327D01*
G01X5759582Y6688464D01*
G01X5760491Y6689827D01*
G01X5761173Y6691645D01*
G01X5761628Y6693464D01*
G01X5761855Y6695054D01*
G01X5762082Y6697555D01*
G01X5761855Y6700054D01*
G01X5761173Y6702100D01*
G01X5760037Y6704373D01*
G01X5758901Y6705964D01*
G01X5757310Y6707327D01*
G01X5755491Y6708464D01*
G01X5753673Y6709373D01*
G01X5751628Y6710282D01*
G01X5749355Y6710964D01*
G01X5747310Y6711418D01*
G01X5742764Y6712327D01*
G01X5739128Y6712782D01*
G01X5734128Y6713236D01*
G01X5728673Y6713464D01*
G01X5723901Y6713464D01*
G01X5710665Y6713464D01*
G01X5710719Y6718009D01*
G01X5710946Y6736418D01*
G01X5711401Y6738464D01*
G01X5712083Y6740736D01*
G01X5712764Y6742554D01*
G01X5713446Y6744146D01*
G01X5714582Y6745964D01*
G01X5715719Y6747554D01*
G01X5716628Y6748691D01*
G01X5717764Y6749827D01*
G01X5719582Y6751191D01*
G01X5721855Y6752782D01*
G01X5725946Y6754827D01*
G01X5727992Y6755509D01*
G01X5730037Y6755964D01*
G01X5731855Y6756418D01*
G01X5734582Y6756873D01*
G01X5740719Y6757100D01*
G01X5745946Y6756873D01*
G01X5749128Y6756418D01*
G01X5751855Y6755964D01*
G01X5754810Y6755282D01*
G01X5757082Y6754600D01*
G01X5759128Y6754145D01*
G01X5761173Y6753464D01*
G01X5763673Y6752554D01*
G01X5765946Y6751645D01*
G01X5767764Y6750736D01*
G01X5768275Y6748861D01*
G01X5768446Y6744146D01*
G01X5768446Y6738009D01*
G01X5767082Y6738464D01*
G01X5765037Y6739373D01*
G01X5761855Y6740736D01*
G01X5759810Y6741418D01*
G01X5755264Y6742782D01*
G01X5753219Y6743236D01*
G01X5748673Y6744146D01*
G01X5744128Y6744600D01*
G01X5740264Y6744827D01*
G01X5736401Y6744600D01*
G01X5734355Y6744146D01*
G01X5732310Y6743464D01*
G01X5730946Y6742782D01*
G01X5729355Y6741873D01*
G01X5727537Y6740055D01*
G01X5726173Y6738236D01*
G01X5725264Y6736418D01*
G01X5724582Y6733691D01*
G01X5724128Y6730964D01*
G01X5723901Y6726191D01*
G01X5723901Y6722555D01*
G01X5727992Y6722555D01*
G01X5732764Y6722327D01*
G01X5739128Y6721873D01*
G01X5743219Y6721418D01*
G01X5746400Y6720964D01*
G01X5750946Y6720055D01*
G01X5754582Y6719145D01*
G01X5756628Y6718464D01*
G01X5758901Y6717555D01*
G01X5760946Y6716645D01*
G01X5762764Y6715736D01*
G01X5764355Y6714827D01*
G01X5766401Y6713464D01*
G01X5768673Y6711645D01*
G01X5770264Y6709827D01*
G01X5771173Y6708464D01*
G01X5772082Y6707327D01*
G01X5772992Y6705736D01*
G01X5773901Y6703691D01*
G01X5774810Y6701191D01*
G01X5775492Y6697782D01*
G01X5775719Y6692555D01*
G01X5775492Y6688691D01*
G01X5775037Y6686873D01*
G01X5774355Y6684827D01*
G01X5773446Y6682782D01*
G01X5772537Y6681191D01*
G01X5771628Y6680054D01*
G01X5769355Y6677782D01*
G01X5767992Y6676646D01*
G01X5766173Y6675509D01*
G01X5764128Y6674373D01*
G01X5761628Y6673464D01*
G37*
G36*
G01X5960264Y6743918D02*
G01X5935264Y6743918D01*
G01X5935264Y6685282D01*
G01X5964810Y6685282D01*
G01X5964810Y6673464D01*
G01X5898901Y6673464D01*
G01X5898901Y6685282D01*
G01X5921628Y6685282D01*
G01X5921628Y6755736D01*
G01X5960264Y6755736D01*
G01X5960264Y6743918D01*
G37*
G36*
G01X6052082Y6754827D02*
G01X6053332Y6755509D01*
G01X6057082Y6755736D01*
G01X6062082Y6755736D01*
G01X6062082Y6673464D01*
G01X6048901Y6673464D01*
G01X6048901Y6700282D01*
G01X6048446Y6727554D01*
G01X6047537Y6728691D01*
G01X6046400Y6729827D01*
G01X6044582Y6732100D01*
G01X6043446Y6733236D01*
G01X6042082Y6735055D01*
G01X6039355Y6737782D01*
G01X6036628Y6740055D01*
G01X6035491Y6740964D01*
G01X6034355Y6741645D01*
G01X6032991Y6742554D01*
G01X6031400Y6743464D01*
G01X6029810Y6744146D01*
G01X6028219Y6744600D01*
G01X6026400Y6745055D01*
G01X6024128Y6745509D01*
G01X6021173Y6745736D01*
G01X6018673Y6745509D01*
G01X6016855Y6745055D01*
G01X6015037Y6744373D01*
G01X6013673Y6743464D01*
G01X6011400Y6741191D01*
G01X6010491Y6739827D01*
G01X6009810Y6738009D01*
G01X6009128Y6735055D01*
G01X6008673Y6731873D01*
G01X6008446Y6702100D01*
G01X6008446Y6673464D01*
G01X5995264Y6673464D01*
G01X5995264Y6704827D01*
G01X5995491Y6736873D01*
G01X5995946Y6740055D01*
G01X5996401Y6741873D01*
G01X5997082Y6743918D01*
G01X5997764Y6745736D01*
G01X5998673Y6747554D01*
G01X5999810Y6749146D01*
G01X6000719Y6750282D01*
G01X6001628Y6751191D01*
G01X6003901Y6753009D01*
G01X6005491Y6754145D01*
G01X6007764Y6755282D01*
G01X6010491Y6756191D01*
G01X6014128Y6756873D01*
G01X6019355Y6757100D01*
G01X6023219Y6756873D01*
G01X6025037Y6756418D01*
G01X6027537Y6755736D01*
G01X6029810Y6754827D01*
G01X6031855Y6753918D01*
G01X6033901Y6752782D01*
G01X6035946Y6751418D01*
G01X6037537Y6750282D01*
G01X6038673Y6749373D01*
G01X6043219Y6744827D01*
G01X6045491Y6742100D01*
G01X6046400Y6740964D01*
G01X6047082Y6739827D01*
G01X6048219Y6738236D01*
G01X6048844Y6737441D01*
G01X6049355Y6737327D01*
G01X6050037Y6739600D01*
G01X6050491Y6742782D01*
G01X6050719Y6744827D01*
G01X6051400Y6749600D01*
G01X6051855Y6753236D01*
G01X6052082Y6754827D01*
G37*
G36*
G01X6146628Y6673691D02*
G01X6144810Y6673009D01*
G01X6141855Y6672327D01*
G01X6139582Y6671873D01*
G01X6137310Y6671646D01*
G01X6134582Y6671873D01*
G01X6130491Y6672327D01*
G01X6128446Y6672782D01*
G01X6126400Y6673464D01*
G01X6124582Y6674145D01*
G01X6122537Y6675054D01*
G01X6120491Y6676191D01*
G01X6118900Y6677100D01*
G01X6117764Y6678009D01*
G01X6115946Y6679373D01*
G01X6110946Y6684373D01*
G01X6108219Y6687555D01*
G01X6107310Y6688691D01*
G01X6106401Y6690282D01*
G01X6105264Y6691645D01*
G01X6104866Y6691816D01*
G01X6104582Y6691418D01*
G01X6104128Y6688691D01*
G01X6103673Y6685509D01*
G01X6103446Y6683464D01*
G01X6102764Y6678691D01*
G01X6102310Y6675054D01*
G01X6101855Y6673918D01*
G01X6096855Y6673464D01*
G01X6092082Y6673464D01*
G01X6092082Y6755736D01*
G01X6105264Y6755736D01*
G01X6105264Y6728691D01*
G01X6105435Y6708293D01*
G01X6105946Y6701191D01*
G01X6111401Y6694827D01*
G01X6115946Y6690282D01*
G01X6117764Y6688918D01*
G01X6119809Y6687327D01*
G01X6121855Y6686191D01*
G01X6123673Y6685282D01*
G01X6125719Y6684373D01*
G01X6128673Y6683691D01*
G01X6133446Y6683464D01*
G01X6137537Y6683918D01*
G01X6139582Y6684827D01*
G01X6141173Y6685964D01*
G01X6142310Y6687100D01*
G01X6143219Y6688236D01*
G01X6143901Y6689827D01*
G01X6144810Y6692327D01*
G01X6145264Y6695509D01*
G01X6145491Y6697782D01*
G01X6145719Y6727100D01*
G01X6145719Y6755736D01*
G01X6158901Y6755736D01*
G01X6158901Y6723464D01*
G01X6158673Y6690509D01*
G01X6158219Y6688236D01*
G01X6157537Y6685736D01*
G01X6156855Y6683918D01*
G01X6156173Y6682327D01*
G01X6155037Y6680509D01*
G01X6153673Y6678918D01*
G01X6150719Y6675964D01*
G01X6149355Y6675054D01*
G01X6146628Y6673691D01*
G37*
G36*
G01X6247310Y6700964D02*
G01X6256400Y6688236D01*
G01X6256912Y6685680D01*
G01X6257082Y6680282D01*
G01X6257082Y6673464D01*
G01X6184810Y6673464D01*
G01X6184810Y6685736D01*
G01X6242082Y6685736D01*
G01X6241855Y6686646D01*
G01X6241173Y6688009D01*
G01X6240264Y6689145D01*
G01X6233446Y6698691D01*
G01X6232082Y6700509D01*
G01X6230491Y6702782D01*
G01X6224809Y6710736D01*
G01X6223900Y6711873D01*
G01X6217082Y6721418D01*
G01X6215719Y6723236D01*
G01X6214128Y6725509D01*
G01X6208446Y6733464D01*
G01X6207537Y6734600D01*
G01X6200719Y6744146D01*
G01X6199355Y6745964D01*
G01X6197764Y6748236D01*
G01X6189810Y6759373D01*
G01X6188901Y6760509D01*
G01X6187764Y6762100D01*
G01X6186628Y6763918D01*
G01X6186173Y6771418D01*
G01X6186173Y6778009D01*
G01X6255719Y6778009D01*
G01X6255719Y6765736D01*
G01X6228446Y6765736D01*
G01X6208048Y6765566D01*
G01X6201400Y6765055D01*
G01X6202082Y6763918D01*
G01X6206628Y6757554D01*
G01X6207537Y6756418D01*
G01X6218900Y6740509D01*
G01X6220264Y6738691D01*
G01X6221855Y6736418D01*
G01X6232082Y6722100D01*
G01X6232991Y6720964D01*
G01X6244355Y6705054D01*
G01X6245719Y6703236D01*
G01X6247310Y6700964D01*
G37*
G36*
G01X6352991Y6713918D02*
G01X6281173Y6713918D01*
G01X6281173Y6725736D01*
G01X6352991Y6725736D01*
G01X6352991Y6713918D01*
G37*
G36*
G01X6423219Y6672782D02*
G01X6420946Y6672327D01*
G01X6418673Y6672100D01*
G01X6417309Y6671873D01*
G01X6414809Y6671646D01*
G01X6411855Y6671873D01*
G01X6407310Y6672327D01*
G01X6402764Y6673236D01*
G01X6400946Y6673918D01*
G01X6398446Y6674827D01*
G01X6396400Y6675736D01*
G01X6394582Y6676873D01*
G01X6392310Y6678464D01*
G01X6390037Y6680282D01*
G01X6387310Y6683009D01*
G01X6386400Y6684145D01*
G01X6385718Y6685282D01*
G01X6384582Y6686873D01*
G01X6383446Y6688691D01*
G01X6382537Y6690282D01*
G01X6380719Y6694373D01*
G01X6379809Y6696645D01*
G01X6379128Y6699373D01*
G01X6378673Y6701418D01*
G01X6378219Y6703236D01*
G01X6377764Y6705964D01*
G01X6377310Y6709145D01*
G01X6377181Y6713918D01*
G01X6390718Y6713918D01*
G01X6390946Y6711418D01*
G01X6391400Y6704145D01*
G01X6391855Y6700964D01*
G01X6392310Y6698918D01*
G01X6392991Y6696645D01*
G01X6393900Y6694600D01*
G01X6395037Y6692327D01*
G01X6396628Y6690054D01*
G01X6398673Y6688236D01*
G01X6400491Y6687100D01*
G01X6402310Y6686191D01*
G01X6404809Y6685282D01*
G01X6404809Y6685282D01*
G01X6408219Y6684600D01*
G01X6414582Y6684373D01*
G01X6419128Y6684600D01*
G01X6420264Y6684827D01*
G01X6422082Y6685282D01*
G01X6423900Y6685964D01*
G01X6425491Y6686646D01*
G01X6427309Y6687782D01*
G01X6428900Y6689145D01*
G01X6430264Y6690964D01*
G01X6431628Y6693236D01*
G01X6432537Y6695054D01*
G01X6433219Y6697100D01*
G01X6433673Y6699145D01*
G01X6434128Y6700964D01*
G01X6434582Y6703236D01*
G01X6434810Y6705509D01*
G01X6435037Y6707327D01*
G01X6435264Y6715055D01*
G01X6435037Y6722782D01*
G01X6434582Y6726418D01*
G01X6433673Y6730964D01*
G01X6432991Y6732782D01*
G01X6432082Y6735055D01*
G01X6430946Y6737100D01*
G01X6429810Y6738691D01*
G01X6428673Y6739827D01*
G01X6427537Y6740736D01*
G01X6425946Y6741873D01*
G01X6423673Y6743009D01*
G01X6420946Y6743918D01*
G01X6418446Y6744373D01*
G01X6416855Y6744600D01*
G01X6412764Y6744827D01*
G01X6408673Y6744600D01*
G01X6405491Y6744146D01*
G01X6403446Y6743464D01*
G01X6401400Y6742554D01*
G01X6399809Y6741645D01*
G01X6398446Y6740509D01*
G01X6396628Y6738691D01*
G01X6395718Y6737554D01*
G01X6394809Y6735964D01*
G01X6393900Y6734146D01*
G01X6393219Y6732327D01*
G01X6392310Y6728691D01*
G01X6391855Y6726418D01*
G01X6391400Y6723236D01*
G01X6391173Y6719145D01*
G01X6390946Y6716418D01*
G01X6390718Y6713918D01*
G01X6377181Y6713918D01*
G01X6377082Y6717555D01*
G01X6377310Y6725055D01*
G01X6377764Y6728236D01*
G01X6378673Y6732782D01*
G01X6379355Y6734600D01*
G01X6380264Y6737100D01*
G01X6381173Y6739146D01*
G01X6382082Y6740964D01*
G01X6383219Y6743009D01*
G01X6384355Y6744600D01*
G01X6385718Y6746418D01*
G01X6388446Y6749146D01*
G01X6389809Y6750282D01*
G01X6391173Y6751191D01*
G01X6392764Y6752327D01*
G01X6396855Y6754373D01*
G01X6398673Y6755055D01*
G01X6400491Y6755509D01*
G01X6402764Y6756191D01*
G01X6405491Y6756645D01*
G01X6407310Y6756873D01*
G01X6412537Y6757100D01*
G01X6417764Y6756873D01*
G01X6420946Y6756418D01*
G01X6423219Y6755736D01*
G01X6426173Y6754827D01*
G01X6428219Y6753918D01*
G01X6430037Y6753009D01*
G01X6431628Y6752100D01*
G01X6434810Y6749827D01*
G01X6435946Y6748918D01*
G01X6438219Y6746645D01*
G01X6439355Y6745282D01*
G01X6440264Y6743918D01*
G01X6441400Y6742327D01*
G01X6442537Y6740509D01*
G01X6443446Y6738918D01*
G01X6445264Y6734827D01*
G01X6446173Y6732554D01*
G01X6446855Y6729827D01*
G01X6447309Y6727782D01*
G01X6447764Y6725964D01*
G01X6448218Y6723691D01*
G01X6448673Y6720509D01*
G01X6448900Y6716873D01*
G01X6449128Y6714600D01*
G01X6449355Y6711191D01*
G01X6449128Y6707782D01*
G01X6448673Y6702327D01*
G01X6447764Y6697327D01*
G01X6446173Y6692555D01*
G01X6445264Y6690282D01*
G01X6444355Y6688236D01*
G01X6443446Y6686646D01*
G01X6442537Y6685282D01*
G01X6441400Y6683918D01*
G01X6439582Y6681646D01*
G01X6437309Y6679373D01*
G01X6435491Y6678009D01*
G01X6433219Y6676418D01*
G01X6430946Y6675282D01*
G01X6428900Y6674373D01*
G01X6426855Y6673691D01*
G01X6423219Y6672782D01*
G37*
G36*
G01X6538900Y6690054D02*
G01X6540491Y6688464D01*
G01X6541628Y6686873D01*
G01X6542082Y6679600D01*
G01X6542082Y6673464D01*
G01X6476173Y6673464D01*
G01X6476173Y6685282D01*
G01X6501400Y6685282D01*
G01X6520264Y6685452D01*
G01X6526400Y6685964D01*
G01X6525264Y6687782D01*
G01X6523673Y6689373D01*
G01X6521400Y6692100D01*
G01X6520264Y6693236D01*
G01X6518900Y6695054D01*
G01X6517310Y6696645D01*
G01X6515037Y6699373D01*
G01X6513900Y6700509D01*
G01X6512537Y6702327D01*
G01X6510946Y6703918D01*
G01X6508673Y6706645D01*
G01X6505946Y6709827D01*
G01X6504809Y6710964D01*
G01X6503446Y6712782D01*
G01X6501855Y6714373D01*
G01X6499582Y6717100D01*
G01X6498446Y6718236D01*
G01X6497082Y6720055D01*
G01X6495491Y6721645D01*
G01X6493219Y6724373D01*
G01X6492082Y6725509D01*
G01X6490719Y6727327D01*
G01X6489128Y6728918D01*
G01X6486855Y6731645D01*
G01X6485719Y6732782D01*
G01X6484355Y6734600D01*
G01X6482764Y6736191D01*
G01X6480491Y6738918D01*
G01X6479355Y6740055D01*
G01X6478218Y6741645D01*
G01X6477707Y6743975D01*
G01X6477537Y6749146D01*
G01X6477537Y6755736D01*
G01X6540718Y6755736D01*
G01X6540718Y6743918D01*
G01X6516628Y6743918D01*
G01X6498616Y6743748D01*
G01X6492764Y6743236D01*
G01X6493673Y6742100D01*
G01X6495946Y6739373D01*
G01X6497082Y6738236D01*
G01X6498446Y6736418D01*
G01X6500037Y6734827D01*
G01X6502310Y6732100D01*
G01X6505037Y6728918D01*
G01X6506173Y6727782D01*
G01X6507537Y6725964D01*
G01X6509128Y6724373D01*
G01X6511400Y6721645D01*
G01X6512537Y6720509D01*
G01X6513900Y6718691D01*
G01X6515491Y6717100D01*
G01X6517764Y6714373D01*
G01X6518900Y6713236D01*
G01X6520264Y6711418D01*
G01X6521855Y6709827D01*
G01X6524128Y6707100D01*
G01X6525264Y6705964D01*
G01X6526628Y6704145D01*
G01X6528219Y6702555D01*
G01X6530037Y6700282D01*
G01X6531173Y6699145D01*
G01X6532537Y6697327D01*
G01X6534128Y6695736D01*
G01X6536400Y6693009D01*
G01X6537537Y6691873D01*
G01X6538900Y6690054D01*
G37*
G36*
G01X6634128Y6755736D02*
G01X6637991Y6755736D01*
G01X6638219Y6754600D01*
G01X6638446Y6713464D01*
G01X6638446Y6673464D01*
G01X6624809Y6673464D01*
G01X6624809Y6700282D01*
G01X6624582Y6720679D01*
G01X6623900Y6728236D01*
G01X6622082Y6730509D01*
G01X6620491Y6732100D01*
G01X6618218Y6734827D01*
G01X6614809Y6738236D01*
G01X6612082Y6740509D01*
G01X6610946Y6741418D01*
G01X6609355Y6742327D01*
G01X6607309Y6743464D01*
G01X6605264Y6744373D01*
G01X6602764Y6745055D01*
G01X6600037Y6745509D01*
G01X6597082Y6745736D01*
G01X6594582Y6745509D01*
G01X6592537Y6744827D01*
G01X6590491Y6743918D01*
G01X6589128Y6743009D01*
G01X6587991Y6741873D01*
G01X6586855Y6740282D01*
G01X6585946Y6738464D01*
G01X6585491Y6736873D01*
G01X6585037Y6734600D01*
G01X6584810Y6732100D01*
G01X6584582Y6730509D01*
G01X6584355Y6701645D01*
G01X6584355Y6673464D01*
G01X6571173Y6673464D01*
G01X6571173Y6704373D01*
G01X6571400Y6735964D01*
G01X6571855Y6739600D01*
G01X6572309Y6741645D01*
G01X6572991Y6743691D01*
G01X6574355Y6746873D01*
G01X6575491Y6748691D01*
G01X6576855Y6750282D01*
G01X6579128Y6752554D01*
G01X6580491Y6753464D01*
G01X6582309Y6754600D01*
G01X6584582Y6755509D01*
G01X6586628Y6756191D01*
G01X6588446Y6756645D01*
G01X6590037Y6756873D01*
G01X6594582Y6757100D01*
G01X6599128Y6756873D01*
G01X6600946Y6756418D01*
G01X6603446Y6755736D01*
G01X6605719Y6754827D01*
G01X6607764Y6753918D01*
G01X6609582Y6753009D01*
G01X6611400Y6751873D01*
G01X6612991Y6750509D01*
G01X6615264Y6748691D01*
G01X6619809Y6744146D01*
G01X6621173Y6742327D01*
G01X6622764Y6740282D01*
G01X6624128Y6738236D01*
G01X6624753Y6737441D01*
G01X6625264Y6737327D01*
G01X6625946Y6738691D01*
G01X6626173Y6740736D01*
G01X6626855Y6745509D01*
G01X6627309Y6749146D01*
G01X6627764Y6752327D01*
G01X6627991Y6754145D01*
G01X6628275Y6755055D01*
G01X6629128Y6755509D01*
G01X6634128Y6755736D01*
G37*
G36*
G01X6709809Y6672782D02*
G01X6707309Y6672327D01*
G01X6705264Y6672100D01*
G01X6703673Y6671873D01*
G01X6700491Y6671646D01*
G01X6696855Y6671873D01*
G01X6691855Y6672327D01*
G01X6686855Y6673236D01*
G01X6684582Y6673918D01*
G01X6681627Y6674827D01*
G01X6679128Y6675736D01*
G01X6676855Y6676646D01*
G01X6673219Y6678464D01*
G01X6671400Y6679600D01*
G01X6670889Y6681646D01*
G01X6670718Y6686418D01*
G01X6670718Y6692555D01*
G01X6671855Y6691873D01*
G01X6677764Y6688918D01*
G01X6679809Y6688009D01*
G01X6682082Y6687100D01*
G01X6685037Y6686191D01*
G01X6688219Y6685509D01*
G01X6690491Y6685054D01*
G01X6693219Y6684600D01*
G01X6700264Y6684373D01*
G01X6705946Y6684600D01*
G01X6707764Y6685054D01*
G01X6709809Y6685736D01*
G01X6711400Y6686418D01*
G01X6712764Y6687100D01*
G01X6714582Y6688236D01*
G01X6716173Y6689600D01*
G01X6717309Y6690736D01*
G01X6718446Y6692100D01*
G01X6719355Y6693691D01*
G01X6720264Y6695509D01*
G01X6721173Y6697782D01*
G01X6721855Y6700282D01*
G01X6722309Y6702327D01*
G01X6722764Y6704600D01*
G01X6722991Y6707100D01*
G01X6723218Y6708691D01*
G01X6716059Y6709202D01*
G01X6694128Y6709373D01*
G01X6664809Y6709373D01*
G01X6664809Y6711645D01*
G01X6664582Y6714600D01*
G01X6664355Y6716191D01*
G01X6664582Y6717782D01*
G01X6664783Y6721191D01*
G01X6678673Y6721191D01*
G01X6684014Y6720850D01*
G01X6700491Y6720736D01*
G01X6722764Y6720964D01*
G01X6722991Y6723236D01*
G01X6722764Y6725964D01*
G01X6722309Y6728236D01*
G01X6721628Y6730736D01*
G01X6720946Y6732782D01*
G01X6720264Y6734600D01*
G01X6719355Y6736191D01*
G01X6717991Y6738236D01*
G01X6716400Y6739827D01*
G01X6714809Y6740964D01*
G01X6712764Y6742100D01*
G01X6710946Y6743009D01*
G01X6708900Y6743691D01*
G01X6706855Y6744146D01*
G01X6703673Y6744600D01*
G01X6699355Y6744827D01*
G01X6695037Y6744600D01*
G01X6692764Y6744146D01*
G01X6690264Y6743464D01*
G01X6688673Y6742782D01*
G01X6687309Y6742100D01*
G01X6685946Y6741191D01*
G01X6683673Y6738918D01*
G01X6682764Y6737554D01*
G01X6681400Y6734827D01*
G01X6680718Y6733009D01*
G01X6680037Y6730509D01*
G01X6679582Y6728236D01*
G01X6679128Y6725509D01*
G01X6678900Y6722555D01*
G01X6678673Y6721191D01*
G01X6678673Y6721191D01*
G01X6664783Y6721191D01*
G01X6665037Y6725509D01*
G01X6665491Y6728691D01*
G01X6665946Y6730964D01*
G01X6666628Y6733464D01*
G01X6667991Y6737554D01*
G01X6668900Y6739600D01*
G01X6670037Y6741873D01*
G01X6671400Y6744146D01*
G01X6672537Y6745736D01*
G01X6673446Y6746873D01*
G01X6675718Y6749146D01*
G01X6677082Y6750282D01*
G01X6678446Y6751191D01*
G01X6680037Y6752327D01*
G01X6684128Y6754373D01*
G01X6685946Y6755055D01*
G01X6687991Y6755736D01*
G01X6689809Y6756191D01*
G01X6691400Y6756418D01*
G01X6694128Y6756873D01*
G01X6700264Y6757100D01*
G01X6705037Y6756873D01*
G01X6708218Y6756418D01*
G01X6710491Y6755736D01*
G01X6713218Y6754827D01*
G01X6715491Y6753918D01*
G01X6717309Y6753009D01*
G01X6718900Y6752100D01*
G01X6720946Y6750736D01*
G01X6722764Y6749373D01*
G01X6726173Y6745964D01*
G01X6727991Y6743691D01*
G01X6729128Y6742100D01*
G01X6730491Y6740055D01*
G01X6732537Y6735964D01*
G01X6733446Y6733918D01*
G01X6734355Y6731645D01*
G01X6735037Y6729373D01*
G01X6735491Y6727327D01*
G01X6735946Y6725509D01*
G01X6736855Y6720055D01*
G01X6737082Y6716873D01*
G01X6737309Y6714145D01*
G01X6737537Y6710964D01*
G01X6737309Y6707782D01*
G01X6736855Y6702782D01*
G01X6735946Y6697782D01*
G01X6735264Y6695509D01*
G01X6734355Y6693009D01*
G01X6733673Y6691191D01*
G01X6732991Y6689600D01*
G01X6732082Y6688009D01*
G01X6730946Y6686191D01*
G01X6729810Y6684600D01*
G01X6728673Y6683464D01*
G01X6727764Y6682327D01*
G01X6726400Y6680964D01*
G01X6724810Y6679600D01*
G01X6723446Y6678464D01*
G01X6721628Y6677327D01*
G01X6719582Y6676191D01*
G01X6717764Y6675282D01*
G01X6715719Y6674373D01*
G01X6712991Y6673464D01*
G01X6709809Y6672782D01*
G37*
G36*
G01X6827991Y6743918D02*
G01X6811173Y6743918D01*
G01X6811173Y6685282D01*
G01X6832537Y6685282D01*
G01X6832537Y6673464D01*
G01X6766628Y6673464D01*
G01X6766628Y6685282D01*
G01X6797991Y6685282D01*
G01X6797991Y6731645D01*
G01X6796855Y6732327D01*
G01X6794582Y6733918D01*
G01X6792537Y6735282D01*
G01X6790946Y6736191D01*
G01X6785491Y6738918D01*
G01X6783219Y6739827D01*
G01X6780718Y6740736D01*
G01X6778218Y6741418D01*
G01X6774582Y6742327D01*
G01X6772309Y6742782D01*
G01X6769582Y6743236D01*
G01X6767082Y6743464D01*
G01X6765491Y6743691D01*
G01X6761855Y6743918D01*
G01X6758900Y6743918D01*
G01X6758673Y6745055D01*
G01X6758446Y6752327D01*
G01X6758446Y6758463D01*
G01X6759582Y6758691D01*
G01X6761855Y6758691D01*
G01X6764355Y6758463D01*
G01X6766400Y6758236D01*
G01X6768673Y6757782D01*
G01X6771173Y6757100D01*
G01X6775718Y6755736D01*
G01X6777764Y6754827D01*
G01X6780037Y6753918D01*
G01X6781855Y6753009D01*
G01X6785037Y6751191D01*
G01X6786855Y6750055D01*
G01X6789128Y6748464D01*
G01X6790946Y6747100D01*
G01X6792082Y6745964D01*
G01X6794809Y6743691D01*
G01X6796173Y6741873D01*
G01X6797991Y6740282D01*
G01X6798673Y6740225D01*
G01X6798900Y6740964D01*
G01X6799128Y6742782D01*
G01X6799582Y6745964D01*
G01X6800491Y6751418D01*
G01X6800946Y6754600D01*
G01X6801855Y6755509D01*
G01X6815264Y6755736D01*
G01X6827991Y6755736D01*
G01X6827991Y6743918D01*
G37*
G36*
G01X6903218Y6672782D02*
G01X6900946Y6672327D01*
G01X6898673Y6672100D01*
G01X6897309Y6671873D01*
G01X6894809Y6671646D01*
G01X6891855Y6671873D01*
G01X6887309Y6672327D01*
G01X6882764Y6673236D01*
G01X6880946Y6673918D01*
G01X6878446Y6674827D01*
G01X6876400Y6675736D01*
G01X6874582Y6676873D01*
G01X6872309Y6678464D01*
G01X6870037Y6680282D01*
G01X6867309Y6683009D01*
G01X6866400Y6684145D01*
G01X6865719Y6685282D01*
G01X6864582Y6686873D01*
G01X6863446Y6688691D01*
G01X6862537Y6690282D01*
G01X6860719Y6694373D01*
G01X6859809Y6696645D01*
G01X6859128Y6699373D01*
G01X6858673Y6701418D01*
G01X6858218Y6703236D01*
G01X6857764Y6705964D01*
G01X6857309Y6709145D01*
G01X6857180Y6713918D01*
G01X6870719Y6713918D01*
G01X6870946Y6711418D01*
G01X6871400Y6704145D01*
G01X6871855Y6700964D01*
G01X6872309Y6698918D01*
G01X6872991Y6696645D01*
G01X6873900Y6694373D01*
G01X6874809Y6692555D01*
G01X6875946Y6690964D01*
G01X6877309Y6689373D01*
G01X6878446Y6688464D01*
G01X6880037Y6687327D01*
G01X6882309Y6686191D01*
G01X6884809Y6685282D01*
G01X6884809Y6685282D01*
G01X6888218Y6684600D01*
G01X6894582Y6684373D01*
G01X6899127Y6684600D01*
G01X6900264Y6684827D01*
G01X6902082Y6685282D01*
G01X6903900Y6685964D01*
G01X6905491Y6686646D01*
G01X6907309Y6687782D01*
G01X6908900Y6689145D01*
G01X6910264Y6690964D01*
G01X6911628Y6693236D01*
G01X6912537Y6695054D01*
G01X6913218Y6697100D01*
G01X6913673Y6699145D01*
G01X6914127Y6700964D01*
G01X6914582Y6703236D01*
G01X6914809Y6705509D01*
G01X6915037Y6707327D01*
G01X6915264Y6715055D01*
G01X6915037Y6722782D01*
G01X6914582Y6726418D01*
G01X6913673Y6730964D01*
G01X6912991Y6732782D01*
G01X6912082Y6735055D01*
G01X6910946Y6737100D01*
G01X6909809Y6738691D01*
G01X6908673Y6739827D01*
G01X6907537Y6740736D01*
G01X6905946Y6741873D01*
G01X6903673Y6743009D01*
G01X6900946Y6743918D01*
G01X6898446Y6744373D01*
G01X6896855Y6744600D01*
G01X6892764Y6744827D01*
G01X6888673Y6744600D01*
G01X6885491Y6744146D01*
G01X6883446Y6743464D01*
G01X6881400Y6742554D01*
G01X6879809Y6741645D01*
G01X6878446Y6740509D01*
G01X6876628Y6738691D01*
G01X6875719Y6737554D01*
G01X6874809Y6735964D01*
G01X6873900Y6734146D01*
G01X6873218Y6732327D01*
G01X6872309Y6728691D01*
G01X6871855Y6726418D01*
G01X6871400Y6723236D01*
G01X6871173Y6719145D01*
G01X6870946Y6716418D01*
G01X6870719Y6713918D01*
G01X6857180Y6713918D01*
G01X6857082Y6717555D01*
G01X6857309Y6725055D01*
G01X6857764Y6728236D01*
G01X6858673Y6732782D01*
G01X6859355Y6734827D01*
G01X6860264Y6737100D01*
G01X6861173Y6739146D01*
G01X6862082Y6740964D01*
G01X6862991Y6742554D01*
G01X6864355Y6744600D01*
G01X6865719Y6746418D01*
G01X6867991Y6748691D01*
G01X6869582Y6750055D01*
G01X6872764Y6752327D01*
G01X6876855Y6754373D01*
G01X6878673Y6755055D01*
G01X6880491Y6755509D01*
G01X6882764Y6756191D01*
G01X6885491Y6756645D01*
G01X6887309Y6756873D01*
G01X6892537Y6757100D01*
G01X6897764Y6756873D01*
G01X6900946Y6756418D01*
G01X6903218Y6755736D01*
G01X6906173Y6754827D01*
G01X6908218Y6753918D01*
G01X6910037Y6753009D01*
G01X6911628Y6752100D01*
G01X6914809Y6749827D01*
G01X6915946Y6748918D01*
G01X6918218Y6746645D01*
G01X6919355Y6745282D01*
G01X6920264Y6743918D01*
G01X6921400Y6742327D01*
G01X6922537Y6740509D01*
G01X6923446Y6738918D01*
G01X6925264Y6734827D01*
G01X6926173Y6732554D01*
G01X6926855Y6729827D01*
G01X6927309Y6727782D01*
G01X6927764Y6725964D01*
G01X6928218Y6723691D01*
G01X6928673Y6720509D01*
G01X6928900Y6716873D01*
G01X6929128Y6714600D01*
G01X6929355Y6711191D01*
G01X6929128Y6707782D01*
G01X6928673Y6702327D01*
G01X6927764Y6697327D01*
G01X6926173Y6692555D01*
G01X6925264Y6690282D01*
G01X6924355Y6688236D01*
G01X6923446Y6686646D01*
G01X6922537Y6685282D01*
G01X6921400Y6683918D01*
G01X6919582Y6681646D01*
G01X6917309Y6679373D01*
G01X6915491Y6678009D01*
G01X6913218Y6676418D01*
G01X6910946Y6675282D01*
G01X6908900Y6674373D01*
G01X6906855Y6673691D01*
G01X6903218Y6672782D01*
G37*
G36*
G01X6949809Y6685736D02*
G01X7006628Y6685736D01*
G01X7006628Y6778009D01*
G01X7020718Y6778009D01*
G01X7020718Y6673464D01*
G01X6949809Y6673464D01*
G01X6949809Y6685736D01*
G37*
G36*
G01X7194582Y6672782D02*
G01X7191400Y6672327D01*
G01X7188673Y6672100D01*
G01X7186855Y6671873D01*
G01X7182764Y6671646D01*
G01X7178218Y6671873D01*
G01X7173673Y6672327D01*
G01X7171173Y6672782D01*
G01X7168446Y6673464D01*
G01X7164355Y6674827D01*
G01X7162309Y6675736D01*
G01X7160718Y6676646D01*
G01X7159127Y6677782D01*
G01X7157537Y6679145D01*
G01X7155264Y6681418D01*
G01X7154355Y6682555D01*
G01X7153218Y6684145D01*
G01X7152082Y6686418D01*
G01X7151173Y6688464D01*
G01X7150491Y6690964D01*
G01X7150037Y6693691D01*
G01X7149809Y6696873D01*
G01X7150037Y6699600D01*
G01X7150491Y6701645D01*
G01X7151173Y6703918D01*
G01X7152082Y6705964D01*
G01X7153218Y6707555D01*
G01X7154355Y6708918D01*
G01X7155946Y6710509D01*
G01X7157537Y6711873D01*
G01X7158673Y6712782D01*
G01X7160264Y6713691D01*
G01X7162082Y6714600D01*
G01X7163673Y6715282D01*
G01X7165491Y6715964D01*
G01X7167537Y6716645D01*
G01X7170036Y6717327D01*
G01X7172309Y6717782D01*
G01X7176400Y6718691D01*
G01X7178673Y6719373D01*
G01X7181627Y6720055D01*
G01X7183673Y6720509D01*
G01X7185491Y6720964D01*
G01X7187537Y6721645D01*
G01X7189582Y6722555D01*
G01X7191855Y6723464D01*
G01X7193446Y6724373D01*
G01X7194582Y6725282D01*
G01X7196173Y6726873D01*
G01X7197537Y6728691D01*
G01X7198218Y6730964D01*
G01X7198673Y6733464D01*
G01X7198673Y6735055D01*
G01X7198218Y6736873D01*
G01X7197309Y6738918D01*
G01X7196173Y6740282D01*
G01X7195036Y6741191D01*
G01X7193673Y6742100D01*
G01X7191855Y6743009D01*
G01X7189355Y6743691D01*
G01X7187309Y6744146D01*
G01X7184127Y6744600D01*
G01X7179355Y6744827D01*
G01X7174582Y6744600D01*
G01X7170036Y6744146D01*
G01X7167537Y6743691D01*
G01X7164809Y6743009D01*
G01X7159809Y6741645D01*
G01X7154355Y6739600D01*
G01X7153446Y6739373D01*
G01X7153446Y6751645D01*
G01X7154809Y6752100D01*
G01X7159809Y6753918D01*
G01X7162537Y6754600D01*
G01X7164582Y6755055D01*
G01X7166400Y6755509D01*
G01X7168673Y6755964D01*
G01X7175036Y6756873D01*
G01X7181627Y6757100D01*
G01X7187764Y6756873D01*
G01X7190946Y6756418D01*
G01X7192991Y6755964D01*
G01X7195264Y6755282D01*
G01X7197082Y6754600D01*
G01X7198673Y6753918D01*
G01X7200491Y6753009D01*
G01X7202082Y6752100D01*
G01X7203218Y6751191D01*
G01X7206627Y6747782D01*
G01X7207537Y6746645D01*
G01X7208673Y6745055D01*
G01X7209809Y6742782D01*
G01X7210718Y6740736D01*
G01X7211400Y6738236D01*
G01X7211855Y6735964D01*
G01X7212082Y6731645D01*
G01X7211855Y6727327D01*
G01X7211173Y6725055D01*
G01X7210264Y6722782D01*
G01X7209355Y6721191D01*
G01X7208218Y6719827D01*
G01X7207309Y6718691D01*
G01X7206173Y6717555D01*
G01X7203446Y6715282D01*
G01X7201855Y6714373D01*
G01X7198218Y6712555D01*
G01X7196400Y6711873D01*
G01X7194582Y6711418D01*
G01X7192309Y6710736D01*
G01X7189355Y6710054D01*
G01X7187309Y6709600D01*
G01X7185036Y6708918D01*
G01X7181855Y6708236D01*
G01X7179582Y6707782D01*
G01X7177537Y6707100D01*
G01X7175264Y6706418D01*
G01X7173446Y6705736D01*
G01X7171400Y6704827D01*
G01X7169582Y6703918D01*
G01X7167764Y6702782D01*
G01X7165946Y6700964D01*
G01X7164809Y6699145D01*
G01X7164127Y6697327D01*
G01X7163900Y6694145D01*
G01X7164355Y6691191D01*
G01X7165264Y6689600D01*
G01X7166400Y6688464D01*
G01X7167991Y6687327D01*
G01X7169809Y6686418D01*
G01X7171628Y6685736D01*
G01X7174582Y6685054D01*
G01X7177309Y6684600D01*
G01X7184582Y6684373D01*
G01X7191855Y6684600D01*
G01X7197309Y6685509D01*
G01X7200946Y6686418D01*
G01X7205718Y6688009D01*
G01X7210264Y6689827D01*
G01X7211855Y6690282D01*
G01X7212082Y6684145D01*
G01X7212082Y6678009D01*
G01X7210946Y6677555D01*
G01X7209127Y6676646D01*
G01X7207309Y6675964D01*
G01X7203218Y6674600D01*
G01X7201400Y6674145D01*
G01X7197309Y6673236D01*
G01X7194582Y6672782D01*
G37*
G36*
G01X7291627Y6673918D02*
G01X7288673Y6673009D01*
G01X7285036Y6672327D01*
G01X7282082Y6671873D01*
G01X7278900Y6671646D01*
G01X7275946Y6671873D01*
G01X7270946Y6672327D01*
G01X7266855Y6673236D01*
G01X7264809Y6673918D01*
G01X7262536Y6674827D01*
G01X7260491Y6675736D01*
G01X7258900Y6676646D01*
G01X7257309Y6677782D01*
G01X7255037Y6679373D01*
G01X7251173Y6683236D01*
G01X7249809Y6685054D01*
G01X7248218Y6687327D01*
G01X7246855Y6689600D01*
G01X7245718Y6691873D01*
G01X7244809Y6694145D01*
G01X7243900Y6696645D01*
G01X7242991Y6699600D01*
G01X7242309Y6702782D01*
G01X7241400Y6708236D01*
G01X7241173Y6711873D01*
G01X7241002Y6713918D01*
G01X7254809Y6713918D01*
G01X7255037Y6708691D01*
G01X7255491Y6703691D01*
G01X7255946Y6700509D01*
G01X7256627Y6698236D01*
G01X7257536Y6695282D01*
G01X7258445Y6693236D01*
G01X7259582Y6691418D01*
G01X7260946Y6689827D01*
G01X7262082Y6688691D01*
G01X7263218Y6687782D01*
G01X7266400Y6686191D01*
G01X7268900Y6685282D01*
G01X7268900Y6685282D01*
G01X7271855Y6684600D01*
G01X7277991Y6684373D01*
G01X7282764Y6684600D01*
G01X7284127Y6684827D01*
G01X7286173Y6685282D01*
G01X7287991Y6685964D01*
G01X7289809Y6686873D01*
G01X7291400Y6688009D01*
G01X7292764Y6689145D01*
G01X7293900Y6690509D01*
G01X7295036Y6692100D01*
G01X7296173Y6694145D01*
G01X7297082Y6696645D01*
G01X7297764Y6699373D01*
G01X7298218Y6701418D01*
G01X7298673Y6704145D01*
G01X7298900Y6707100D01*
G01X7299127Y6708691D01*
G01X7299355Y6715055D01*
G01X7299127Y6721418D01*
G01X7298673Y6725964D01*
G01X7297764Y6730509D01*
G01X7297082Y6732554D01*
G01X7296173Y6735055D01*
G01X7295264Y6736645D01*
G01X7294127Y6738236D01*
G01X7292764Y6739827D01*
G01X7291627Y6740736D01*
G01X7290264Y6741645D01*
G01X7288673Y6742554D01*
G01X7286855Y6743236D01*
G01X7284809Y6743918D01*
G01X7282537Y6744373D01*
G01X7280491Y6744600D01*
G01X7276400Y6744827D01*
G01X7272309Y6744600D01*
G01X7270037Y6744146D01*
G01X7267536Y6743464D01*
G01X7265491Y6742554D01*
G01X7263218Y6741191D01*
G01X7261400Y6739827D01*
G01X7260491Y6738691D01*
G01X7259809Y6737554D01*
G01X7258673Y6735964D01*
G01X7257764Y6733918D01*
G01X7257082Y6732100D01*
G01X7256400Y6729373D01*
G01X7255946Y6726873D01*
G01X7255491Y6724146D01*
G01X7255264Y6720964D01*
G01X7255037Y6719145D01*
G01X7254809Y6713918D01*
G01X7241002Y6713918D01*
G01X7240946Y6714600D01*
G01X7240718Y6717555D01*
G01X7241400Y6726418D01*
G01X7242309Y6731418D01*
G01X7243900Y6736191D01*
G01X7244809Y6738691D01*
G01X7245718Y6740509D01*
G01X7247991Y6744146D01*
G01X7249355Y6745964D01*
G01X7253218Y6749827D01*
G01X7254809Y6750964D01*
G01X7256855Y6752327D01*
G01X7260946Y6754373D01*
G01X7262764Y6755055D01*
G01X7264582Y6755509D01*
G01X7266855Y6756191D01*
G01X7269582Y6756645D01*
G01X7271400Y6756873D01*
G01X7276627Y6757100D01*
G01X7281855Y6756873D01*
G01X7285036Y6756418D01*
G01X7287309Y6755736D01*
G01X7290036Y6754827D01*
G01X7292309Y6753918D01*
G01X7294127Y6753009D01*
G01X7295946Y6751873D01*
G01X7298218Y6750282D01*
G01X7300491Y6748464D01*
G01X7302082Y6746645D01*
G01X7304355Y6743918D01*
G01X7306173Y6741191D01*
G01X7307082Y6739600D01*
G01X7308900Y6735964D01*
G01X7309582Y6734146D01*
G01X7310264Y6732100D01*
G01X7310946Y6729827D01*
G01X7311400Y6727782D01*
G01X7311855Y6725964D01*
G01X7312309Y6723236D01*
G01X7312764Y6719600D01*
G01X7312991Y6715055D01*
G01X7313218Y6712100D01*
G01X7313218Y6710964D01*
G01X7312764Y6703236D01*
G01X7311855Y6697782D01*
G01X7311173Y6695509D01*
G01X7310264Y6692782D01*
G01X7309355Y6690509D01*
G01X7307537Y6686873D01*
G01X7306628Y6685282D01*
G01X7305718Y6684145D01*
G01X7304355Y6682327D01*
G01X7301628Y6679600D01*
G01X7300491Y6678691D01*
G01X7299355Y6678009D01*
G01X7297764Y6676873D01*
G01X7295946Y6675736D01*
G01X7294127Y6674827D01*
G01X7291627Y6673918D01*
G37*
G36*
G01X7366855Y6673918D02*
G01X7364809Y6673236D01*
G01X7362764Y6672782D01*
G01X7358218Y6671873D01*
G01X7355491Y6671646D01*
G01X7352764Y6671873D01*
G01X7347764Y6672327D01*
G01X7345491Y6672782D01*
G01X7342991Y6673464D01*
G01X7338900Y6674827D01*
G01X7336855Y6675736D01*
G01X7333446Y6677100D01*
G01X7333446Y6689373D01*
G01X7334355Y6689145D01*
G01X7335945Y6688464D01*
G01X7337764Y6687555D01*
G01X7339809Y6686646D01*
G01X7341855Y6685964D01*
G01X7345491Y6685054D01*
G01X7347764Y6684600D01*
G01X7352991Y6684373D01*
G01X7357764Y6684600D01*
G01X7359809Y6685282D01*
G01X7362082Y6686418D01*
G01X7363673Y6687555D01*
G01X7364809Y6688691D01*
G01X7365718Y6689827D01*
G01X7366855Y6691418D01*
G01X7367991Y6693691D01*
G01X7368900Y6696191D01*
G01X7369582Y6699600D01*
G01X7370037Y6702782D01*
G01X7370264Y6744146D01*
G01X7370264Y6784373D01*
G01X7412991Y6784373D01*
G01X7412991Y6772100D01*
G01X7383900Y6772100D01*
G01X7383900Y6737782D01*
G01X7383673Y6702782D01*
G01X7383218Y6696873D01*
G01X7382309Y6692327D01*
G01X7381627Y6690282D01*
G01X7380718Y6687782D01*
G01X7379809Y6685509D01*
G01X7378900Y6683918D01*
G01X7377764Y6682327D01*
G01X7376400Y6680736D01*
G01X7375264Y6679373D01*
G01X7374127Y6678236D01*
G01X7371855Y6676418D01*
G01X7366855Y6673918D01*
G37*
G36*
G01X7483446Y6685282D02*
G01X7504355Y6685282D01*
G01X7504582Y6684145D01*
G01X7504809Y6678236D01*
G01X7504809Y6673464D01*
G01X7438900Y6673464D01*
G01X7438900Y6685282D01*
G01X7469809Y6685282D01*
G01X7469809Y6708464D01*
G01X7469639Y6725964D01*
G01X7469127Y6732100D01*
G01X7467309Y6733464D01*
G01X7465264Y6734827D01*
G01X7463673Y6735736D01*
G01X7461855Y6736873D01*
G01X7459355Y6738009D01*
G01X7455264Y6739827D01*
G01X7452764Y6740736D01*
G01X7450264Y6741418D01*
G01X7447991Y6742100D01*
G01X7445945Y6742554D01*
G01X7444127Y6742782D01*
G01X7441855Y6743236D01*
G01X7439355Y6743464D01*
G01X7437764Y6743691D01*
G01X7433900Y6743918D01*
G01X7430718Y6743918D01*
G01X7430718Y6758918D01*
G01X7432082Y6758918D01*
G01X7438218Y6758236D01*
G01X7442764Y6757327D01*
G01X7447537Y6755736D01*
G01X7452082Y6753918D01*
G01X7453900Y6753009D01*
G01X7455491Y6752100D01*
G01X7457537Y6750964D01*
G01X7459582Y6749600D01*
G01X7461173Y6748464D01*
G01X7464582Y6745736D01*
G01X7467991Y6742327D01*
G01X7469355Y6740736D01*
G01X7470150Y6740282D01*
G01X7470718Y6740736D01*
G01X7471173Y6742782D01*
G01X7471400Y6744600D01*
G01X7471855Y6747327D01*
G01X7472309Y6750509D01*
G01X7472764Y6753236D01*
G01X7473446Y6755282D01*
G01X7487082Y6755736D01*
G01X7500264Y6755736D01*
G01X7500264Y6743918D01*
G01X7483446Y6743918D01*
G01X7483446Y6685282D01*
G37*
G36*
G01X7586855Y6673918D02*
G01X7585036Y6673236D01*
G01X7583218Y6672782D01*
G01X7578673Y6671873D01*
G01X7575718Y6671646D01*
G01X7572764Y6671873D01*
G01X7568218Y6672327D01*
G01X7566173Y6672782D01*
G01X7563900Y6673464D01*
G01X7562082Y6674145D01*
G01X7560491Y6674827D01*
G01X7558673Y6675736D01*
G01X7557082Y6676646D01*
G01X7555946Y6677555D01*
G01X7554127Y6678918D01*
G01X7551400Y6681646D01*
G01X7550491Y6682782D01*
G01X7549354Y6684600D01*
G01X7547991Y6686873D01*
G01X7547423Y6687782D01*
G01X7546627Y6688236D01*
G01X7545946Y6688066D01*
G01X7545718Y6687100D01*
G01X7545491Y6685054D01*
G01X7545036Y6682782D01*
G01X7544582Y6680054D01*
G01X7544127Y6677782D01*
G01X7543673Y6675054D01*
G01X7543445Y6673464D01*
G01X7530264Y6673464D01*
G01X7530264Y6674827D01*
G01X7530491Y6676873D01*
G01X7530946Y6679145D01*
G01X7531400Y6681873D01*
G01X7531855Y6684145D01*
G01X7532309Y6686873D01*
G01X7532764Y6689145D01*
G01X7533673Y6694145D01*
G01X7534127Y6696418D01*
G01X7534340Y6713464D01*
G01X7547991Y6713464D01*
G01X7547991Y6708236D01*
G01X7548218Y6702327D01*
G01X7548673Y6700282D01*
G01X7549354Y6698236D01*
G01X7550036Y6696645D01*
G01X7550718Y6695282D01*
G01X7551855Y6693691D01*
G01X7553218Y6692100D01*
G01X7555491Y6689827D01*
G01X7556627Y6688918D01*
G01X7558218Y6687782D01*
G01X7560491Y6686646D01*
G01X7562536Y6685736D01*
G01X7565036Y6685054D01*
G01X7565036Y6685054D01*
G01X7567309Y6684600D01*
G01X7572082Y6684373D01*
G01X7576400Y6684600D01*
G01X7577536Y6684827D01*
G01X7579355Y6685282D01*
G01X7581400Y6686418D01*
G01X7582991Y6687782D01*
G01X7583900Y6688918D01*
G01X7584809Y6690509D01*
G01X7585491Y6692782D01*
G01X7585945Y6695963D01*
G01X7585945Y6698691D01*
G01X7585718Y6700282D01*
G01X7585264Y6701873D01*
G01X7584582Y6703236D01*
G01X7583673Y6704827D01*
G01X7582537Y6706191D01*
G01X7581400Y6707100D01*
G01X7579809Y6708236D01*
G01X7577764Y6709373D01*
G01X7575491Y6710282D01*
G01X7573218Y6710964D01*
G01X7571400Y6711418D01*
G01X7566855Y6712327D01*
G01X7563218Y6712782D01*
G01X7558218Y6713236D01*
G01X7552764Y6713464D01*
G01X7547991Y6713464D01*
G01X7534340Y6713464D01*
G01X7534355Y6714600D01*
G01X7534582Y6731873D01*
G01X7535036Y6737327D01*
G01X7535718Y6739600D01*
G01X7536627Y6742327D01*
G01X7537536Y6744146D01*
G01X7538445Y6745736D01*
G01X7539354Y6747100D01*
G01X7540264Y6748236D01*
G01X7542536Y6750509D01*
G01X7543673Y6751418D01*
G01X7544809Y6752100D01*
G01X7546400Y6753236D01*
G01X7548900Y6754373D01*
G01X7551173Y6755282D01*
G01X7553673Y6755964D01*
G01X7555946Y6756418D01*
G01X7558673Y6756873D01*
G01X7564809Y6757100D01*
G01X7569582Y6756873D01*
G01X7573218Y6756418D01*
G01X7578218Y6755509D01*
G01X7580491Y6754827D01*
G01X7583673Y6753918D01*
G01X7586400Y6753009D01*
G01X7588900Y6752100D01*
G01X7591173Y6751191D01*
G01X7592309Y6750055D01*
G01X7592537Y6743691D01*
G01X7592537Y6738009D01*
G01X7591627Y6738236D01*
G01X7586855Y6740282D01*
G01X7584582Y6741191D01*
G01X7578673Y6743009D01*
G01X7575264Y6743691D01*
G01X7572764Y6744146D01*
G01X7568218Y6744600D01*
G01X7564355Y6744827D01*
G01X7560491Y6744600D01*
G01X7558445Y6744146D01*
G01X7556400Y6743464D01*
G01X7554809Y6742782D01*
G01X7553445Y6741873D01*
G01X7552309Y6740964D01*
G01X7551173Y6739827D01*
G01X7550264Y6738464D01*
G01X7549354Y6736873D01*
G01X7548673Y6734146D01*
G01X7548218Y6731873D01*
G01X7547991Y6726873D01*
G01X7547991Y6722555D01*
G01X7552082Y6722555D01*
G01X7556855Y6722327D01*
G01X7563218Y6721873D01*
G01X7567309Y6721418D01*
G01X7570491Y6720964D01*
G01X7575036Y6720055D01*
G01X7576855Y6719600D01*
G01X7582991Y6717555D01*
G01X7585036Y6716645D01*
G01X7586855Y6715736D01*
G01X7588673Y6714600D01*
G01X7590945Y6713009D01*
G01X7592764Y6711418D01*
G01X7593900Y6710054D01*
G01X7595036Y6708918D01*
G01X7595945Y6707782D01*
G01X7597536Y6704600D01*
G01X7598446Y6702555D01*
G01X7599127Y6699827D01*
G01X7599582Y6697327D01*
G01X7599809Y6693236D01*
G01X7599582Y6689145D01*
G01X7599127Y6687327D01*
G01X7598446Y6685282D01*
G01X7597536Y6683236D01*
G01X7596400Y6681191D01*
G01X7595264Y6679600D01*
G01X7594127Y6678464D01*
G01X7591855Y6676646D01*
G01X7590264Y6675509D01*
G01X7588446Y6674600D01*
G01X7586855Y6673918D01*
G37*
G36*
G01X5247310Y6790054D02*
G01X5248219Y6788464D01*
G01X5260492Y6770055D01*
G01X5261628Y6768236D01*
G01X5260492Y6767725D01*
G01X5256173Y6767554D01*
G01X5251628Y6767725D01*
G01X5249810Y6768236D01*
G01X5246401Y6771645D01*
G01X5244128Y6774373D01*
G01X5239583Y6778918D01*
G01X5236855Y6782100D01*
G01X5231173Y6787782D01*
G01X5229810Y6789600D01*
G01X5228901Y6790736D01*
G01X5237992Y6790736D01*
G01X5244867Y6790566D01*
G01X5247310Y6790054D01*
G37*
G36*
G01X5587310Y6697782D02*
G01X5587764Y6688691D01*
G01X5588219Y6679145D01*
G01X5588446Y6675964D01*
G01X5588446Y6673464D01*
G01X5574355Y6673464D01*
G01X5574355Y6678691D01*
G01X5574128Y6684600D01*
G01X5573219Y6709145D01*
G01X5572764Y6720964D01*
G01X5571855Y6745509D01*
G01X5571401Y6757327D01*
G01X5571060Y6760339D01*
G01X5570719Y6760509D01*
G01X5569810Y6758918D01*
G01X5559810Y6736418D01*
G01X5558901Y6734600D01*
G01X5557992Y6732327D01*
G01X5557082Y6730509D01*
G01X5555719Y6727327D01*
G01X5553901Y6723236D01*
G01X5552992Y6721418D01*
G01X5552537Y6720282D01*
G01X5545719Y6720282D01*
G01X5545264Y6721418D01*
G01X5543446Y6725509D01*
G01X5542537Y6727782D01*
G01X5541628Y6729600D01*
G01X5540264Y6732782D01*
G01X5529355Y6757327D01*
G01X5528673Y6758918D01*
G01X5527764Y6760282D01*
G01X5527253Y6760168D01*
G01X5527082Y6758918D01*
G01X5526855Y6756418D01*
G01X5524128Y6682782D01*
G01X5523901Y6677782D01*
G01X5523901Y6673464D01*
G01X5509810Y6673464D01*
G01X5509810Y6678009D01*
G01X5510037Y6683236D01*
G01X5510946Y6702327D01*
G01X5511401Y6711418D01*
G01X5512310Y6730509D01*
G01X5512764Y6739600D01*
G01X5513219Y6749146D01*
G01X5513674Y6758236D01*
G01X5514355Y6772554D01*
G01X5514810Y6777327D01*
G01X5517310Y6777839D01*
G01X5523901Y6778009D01*
G01X5532537Y6778009D01*
G01X5532764Y6776873D01*
G01X5533446Y6775055D01*
G01X5534355Y6773236D01*
G01X5535264Y6770964D01*
G01X5536173Y6769145D01*
G01X5537537Y6765964D01*
G01X5547537Y6743464D01*
G01X5548673Y6741645D01*
G01X5549298Y6741475D01*
G01X5549810Y6741873D01*
G01X5551173Y6745055D01*
G01X5552992Y6749146D01*
G01X5553901Y6750964D01*
G01X5554810Y6753236D01*
G01X5555719Y6755055D01*
G01X5557082Y6758236D01*
G01X5565264Y6776645D01*
G01X5565719Y6778009D01*
G01X5583446Y6778009D01*
G01X5583446Y6775509D01*
G01X5583673Y6772327D01*
G01X5584128Y6763236D01*
G01X5584582Y6753691D01*
G01X5585037Y6744600D01*
G01X5585491Y6735055D01*
G01X5585946Y6725964D01*
G01X5586401Y6716418D01*
G01X5586855Y6707327D01*
G01X5587310Y6697782D01*
G37*
G36*
G01X5849128Y6656418D02*
G01X5860491Y6655964D01*
G01X5867083Y6655736D01*
G01X5872992Y6655736D01*
G01X5872992Y6643464D01*
G01X5863673Y6643464D01*
G01X5853673Y6643691D01*
G01X5846401Y6644145D01*
G01X5841401Y6644600D01*
G01X5836855Y6645055D01*
G01X5830492Y6645964D01*
G01X5825037Y6646873D01*
G01X5822764Y6647555D01*
G01X5819810Y6648236D01*
G01X5817537Y6648918D01*
G01X5813446Y6650282D01*
G01X5811173Y6651191D01*
G01X5808900Y6652327D01*
G01X5806855Y6653464D01*
G01X5805264Y6654600D01*
G01X5802991Y6656418D01*
G01X5800719Y6658691D01*
G01X5799810Y6659827D01*
G01X5798673Y6661418D01*
G01X5797537Y6663918D01*
G01X5796855Y6666873D01*
G01X5796401Y6669373D01*
G01X5796401Y6670964D01*
G01X5796855Y6674600D01*
G01X5797537Y6676418D01*
G01X5798446Y6678236D01*
G01X5799355Y6679600D01*
G01X5801173Y6681873D01*
G01X5802310Y6682782D01*
G01X5803446Y6683464D01*
G01X5805037Y6684600D01*
G01X5809128Y6686646D01*
G01X5810946Y6687327D01*
G01X5812991Y6688009D01*
G01X5815264Y6688691D01*
G01X5817310Y6689145D01*
G01X5824128Y6690509D01*
G01X5827310Y6690964D01*
G01X5830946Y6691418D01*
G01X5834128Y6691645D01*
G01X5835946Y6691873D01*
G01X5847537Y6692555D01*
G01X5850719Y6692555D01*
G01X5850719Y6693691D01*
G01X5850491Y6695509D01*
G01X5848673Y6706418D01*
G01X5848219Y6707782D01*
G01X5847650Y6708236D01*
G01X5846401Y6708236D01*
G01X5843901Y6708009D01*
G01X5842310Y6707782D01*
G01X5837991Y6707555D01*
G01X5833673Y6707782D01*
G01X5829128Y6708236D01*
G01X5824582Y6709145D01*
G01X5819810Y6710736D01*
G01X5817764Y6711645D01*
G01X5816173Y6712555D01*
G01X5814355Y6713691D01*
G01X5812764Y6714827D01*
G01X5810492Y6716645D01*
G01X5807764Y6720055D01*
G01X5806173Y6723236D01*
G01X5805264Y6725282D01*
G01X5804582Y6727782D01*
G01X5804128Y6730509D01*
G01X5804043Y6731873D01*
G01X5817991Y6731873D01*
G01X5818162Y6729032D01*
G01X5818673Y6727327D01*
G01X5820037Y6725282D01*
G01X5821401Y6723918D01*
G01X5822764Y6723009D01*
G01X5824582Y6722100D01*
G01X5827310Y6721191D01*
G01X5830037Y6720736D01*
G01X5830037Y6720736D01*
G01X5831855Y6720509D01*
G01X5837764Y6720282D01*
G01X5843219Y6720509D01*
G01X5845037Y6720736D01*
G01X5847310Y6720964D01*
G01X5849355Y6721645D01*
G01X5851401Y6722555D01*
G01X5852764Y6723464D01*
G01X5853901Y6724600D01*
G01X5854810Y6725736D01*
G01X5855719Y6727327D01*
G01X5856401Y6729600D01*
G01X5856628Y6733464D01*
G01X5856173Y6737100D01*
G01X5855264Y6738918D01*
G01X5854128Y6740282D01*
G01X5852992Y6741418D01*
G01X5851628Y6742327D01*
G01X5850037Y6743009D01*
G01X5847764Y6743691D01*
G01X5845491Y6744146D01*
G01X5841855Y6744600D01*
G01X5836628Y6744827D01*
G01X5831401Y6744600D01*
G01X5828219Y6744146D01*
G01X5825946Y6743464D01*
G01X5823673Y6742554D01*
G01X5822082Y6741645D01*
G01X5820719Y6740509D01*
G01X5819582Y6738918D01*
G01X5818446Y6736645D01*
G01X5817991Y6731873D01*
G01X5804043Y6731873D01*
G01X5803901Y6734146D01*
G01X5804128Y6737327D01*
G01X5804582Y6739373D01*
G01X5805264Y6741645D01*
G01X5806173Y6743691D01*
G01X5807082Y6745282D01*
G01X5808219Y6746873D01*
G01X5809582Y6748464D01*
G01X5811628Y6750509D01*
G01X5811628Y6751645D01*
G01X5810492Y6753464D01*
G01X5808219Y6756645D01*
G01X5805492Y6760736D01*
G01X5803219Y6763918D01*
G01X5801855Y6765964D01*
G01X5800264Y6768236D01*
G01X5798673Y6770282D01*
G01X5797991Y6771191D01*
G01X5805719Y6771191D01*
G01X5811571Y6770964D01*
G01X5813673Y6770282D01*
G01X5814355Y6768463D01*
G01X5815719Y6764373D01*
G01X5816628Y6762100D01*
G01X5818446Y6756645D01*
G01X5819071Y6755566D01*
G01X5820037Y6755055D01*
G01X5822082Y6755282D01*
G01X5824810Y6755964D01*
G01X5827310Y6756418D01*
G01X5830946Y6756873D01*
G01X5837082Y6757100D01*
G01X5843219Y6756873D01*
G01X5846855Y6756418D01*
G01X5848901Y6755964D01*
G01X5851173Y6755282D01*
G01X5855264Y6753918D01*
G01X5857310Y6753009D01*
G01X5859355Y6751873D01*
G01X5860946Y6750736D01*
G01X5862764Y6749373D01*
G01X5865491Y6746645D01*
G01X5866401Y6745509D01*
G01X5867083Y6744146D01*
G01X5868219Y6742327D01*
G01X5869128Y6740055D01*
G01X5869810Y6738009D01*
G01X5870264Y6735964D01*
G01X5870491Y6734146D01*
G01X5870719Y6730055D01*
G01X5870491Y6725964D01*
G01X5869810Y6723918D01*
G01X5868901Y6721418D01*
G01X5867992Y6719600D01*
G01X5867083Y6718236D01*
G01X5863673Y6714827D01*
G01X5862083Y6713691D01*
G01X5860037Y6712327D01*
G01X5857764Y6711191D01*
G01X5856969Y6710509D01*
G01X5856855Y6709373D01*
G01X5857537Y6707327D01*
G01X5858219Y6705509D01*
G01X5861628Y6695282D01*
G01X5863673Y6689827D01*
G01X5863673Y6689032D01*
G01X5863219Y6688464D01*
G01X5857537Y6682782D01*
G01X5856173Y6681646D01*
G01X5848219Y6681191D01*
G01X5840491Y6680964D01*
G01X5834582Y6680509D01*
G01X5830492Y6680054D01*
G01X5827310Y6679600D01*
G01X5822764Y6678691D01*
G01X5820946Y6678236D01*
G01X5818900Y6677555D01*
G01X5816628Y6676646D01*
G01X5814128Y6675282D01*
G01X5812310Y6673918D01*
G01X5811401Y6672555D01*
G01X5810719Y6670736D01*
G01X5810492Y6668236D01*
G01X5811628Y6665509D01*
G01X5813219Y6663918D01*
G01X5814810Y6662782D01*
G01X5816855Y6661646D01*
G01X5819355Y6660736D01*
G01X5822310Y6659827D01*
G01X5825719Y6659145D01*
G01X5828219Y6658691D01*
G01X5830946Y6658236D01*
G01X5834128Y6657782D01*
G01X5836173Y6657555D01*
G01X5837764Y6657327D01*
G01X5842310Y6656873D01*
G01X5849128Y6656418D01*
G37*
G36*
G01X5937082Y6770282D02*
G01X5919355Y6770282D01*
G01X5919355Y6790282D01*
G01X5937082Y6790282D01*
G01X5937082Y6770282D01*
G37*
G36*
G01X6032764Y6776645D02*
G01X6030946Y6775282D01*
G01X6028673Y6773691D01*
G01X6023219Y6770964D01*
G01X6018901Y6770736D01*
G01X6014355Y6771191D01*
G01X6012537Y6771873D01*
G01X6010946Y6772554D01*
G01X6009582Y6773464D01*
G01X6008446Y6774600D01*
G01X6007310Y6776191D01*
G01X6006173Y6778236D01*
G01X6005264Y6780509D01*
G01X6004582Y6783691D01*
G01X6004355Y6787100D01*
G01X6004355Y6788464D01*
G01X6015719Y6788464D01*
G01X6015946Y6786418D01*
G01X6016344Y6784600D01*
G01X6017082Y6783236D01*
G01X6018162Y6782327D01*
G01X6019582Y6781873D01*
G01X6022310Y6782100D01*
G01X6023901Y6783009D01*
G01X6025037Y6783918D01*
G01X6026628Y6785055D01*
G01X6028673Y6786418D01*
G01X6030946Y6787555D01*
G01X6032991Y6788464D01*
G01X6035946Y6789145D01*
G01X6039810Y6789373D01*
G01X6042537Y6788918D01*
G01X6044355Y6788236D01*
G01X6045946Y6787555D01*
G01X6047310Y6786645D01*
G01X6048446Y6785509D01*
G01X6049582Y6783918D01*
G01X6050719Y6781873D01*
G01X6051628Y6779373D01*
G01X6052310Y6775964D01*
G01X6052537Y6772782D01*
G01X6052537Y6771645D01*
G01X6046855Y6771645D01*
G01X6042594Y6771873D01*
G01X6041173Y6772554D01*
G01X6040946Y6774145D01*
G01X6040491Y6775736D01*
G01X6039128Y6777554D01*
G01X6036855Y6778464D01*
G01X6034582Y6777782D01*
G01X6032764Y6776645D01*
G37*
G36*
G01X6106628Y6790736D02*
G01X6115719Y6790736D01*
G01X6116401Y6789600D01*
G01X6130946Y6767782D01*
G01X6125264Y6767554D01*
G01X6120719Y6767725D01*
G01X6118900Y6768236D01*
G01X6113219Y6773918D01*
G01X6110491Y6777100D01*
G01X6105946Y6781645D01*
G01X6103219Y6784827D01*
G01X6097764Y6790282D01*
G01X6099866Y6790623D01*
G01X6106628Y6790736D01*
G37*
G36*
G01X6343193Y428273D02*
G01X6341981Y425242D01*
G01X6340769Y422515D01*
G01X6339860Y420697D01*
G01X6336754Y420015D01*
G01X6328042Y419788D01*
G01X6316527Y419788D01*
G01X6315921Y421606D01*
G01X6308648Y439788D01*
G01X6306224Y446455D01*
G01X6305012Y449485D01*
G01X6303193Y454333D01*
G01X6298648Y467970D01*
G01X6297739Y470394D01*
G01X6296830Y473121D01*
G01X6295921Y476151D01*
G01X6295012Y478879D01*
G01X6294405Y481303D01*
G01X6292284Y487667D01*
G01X6291375Y491000D01*
G01X6290769Y493424D01*
G01X6289860Y496152D01*
G01X6288951Y499485D01*
G01X6288345Y501909D01*
G01X6287436Y504637D01*
G01X6286527Y508273D01*
G01X6285921Y511000D01*
G01X6285012Y514030D01*
G01X6284102Y517970D01*
G01X6283496Y520697D01*
G01X6282587Y523727D01*
G01X6281678Y527970D01*
G01X6281072Y531000D01*
G01X6280163Y534030D01*
G01X6279254Y538273D01*
G01X6275617Y556455D01*
G01X6275314Y558879D01*
G01X6284708Y559182D01*
G01X6294102Y559182D01*
G01X6294405Y557061D01*
G01X6297436Y541909D01*
G01X6302284Y520091D01*
G01X6303193Y517061D01*
G01X6304102Y513121D01*
G01X6304708Y510394D01*
G01X6305618Y507364D01*
G01X6306527Y503424D01*
G01X6307133Y500697D01*
G01X6308042Y497667D01*
G01X6310466Y489182D01*
G01X6311981Y483121D01*
G01X6312890Y480394D01*
G01X6313799Y477061D01*
G01X6314708Y474333D01*
G01X6318345Y462212D01*
G01X6326527Y437667D01*
G01X6327436Y435242D01*
G01X6328042Y434864D01*
G01X6328648Y435545D01*
G01X6331375Y443727D01*
G01X6333193Y448576D01*
G01X6334102Y451303D01*
G01X6335921Y457364D01*
G01X6337739Y462818D01*
G01X6344102Y484030D01*
G01X6344708Y486758D01*
G01X6345617Y489485D01*
G01X6346527Y493121D01*
G01X6347436Y496152D01*
G01X6348345Y499485D01*
G01X6348951Y502515D01*
G01X6349860Y505546D01*
G01X6350769Y509485D01*
G01X6351375Y512212D01*
G01X6352284Y515243D01*
G01X6353193Y519182D01*
G01X6353799Y521909D01*
G01X6355314Y527970D01*
G01X6356224Y532212D01*
G01X6356830Y535243D01*
G01X6358042Y540697D01*
G01X6361072Y555849D01*
G01X6362284Y558576D01*
G01X6372284Y559182D01*
G01X6381375Y559182D01*
G01X6381072Y556758D01*
G01X6380466Y553424D01*
G01X6379254Y547364D01*
G01X6378042Y541909D01*
G01X6376830Y535849D01*
G01X6375921Y532818D01*
G01X6375011Y528576D01*
G01X6374405Y525546D01*
G01X6373799Y523121D01*
G01X6372890Y519788D01*
G01X6371981Y516152D01*
G01X6371375Y513424D01*
G01X6370466Y510394D01*
G01X6369557Y506455D01*
G01X6367739Y500394D01*
G01X6367133Y497667D01*
G01X6366223Y494940D01*
G01X6365314Y491606D01*
G01X6364708Y489182D01*
G01X6363799Y486455D01*
G01X6361375Y478576D01*
G01X6360163Y474939D01*
G01X6358951Y471000D01*
G01X6357739Y467364D01*
G01X6356527Y464030D01*
G01X6352890Y453121D01*
G01X6351678Y450091D01*
G01X6349860Y445242D01*
G01X6348648Y442212D01*
G01X6346224Y435545D01*
G01X6345011Y432818D01*
G01X6344102Y430697D01*
G01X6343193Y428273D01*
G37*
G36*
G01X6205314Y540091D02*
G01X6205011Y487667D01*
G01X6205011Y436152D01*
G01X6243799Y436152D01*
G01X6243799Y419788D01*
G01X6151072Y419788D01*
G01X6151072Y436152D01*
G01X6186224Y436152D01*
G01X6186224Y559182D01*
G01X6197436Y559182D01*
G01X6209254Y558576D01*
G01X6211375Y557061D01*
G01X6217436Y553424D01*
G01X6227133Y547364D01*
G01X6230163Y545546D01*
G01X6239860Y539485D01*
G01X6242587Y537667D01*
G01X6243496Y534106D01*
G01X6243799Y525243D01*
G01X6243572Y516758D01*
G01X6242890Y514333D01*
G01X6240466Y516152D01*
G01X6237436Y518273D01*
G01X6222587Y528879D01*
G01X6221072Y530091D01*
G01X6208345Y539182D01*
G01X6206527Y540394D01*
G01X6205769Y540621D01*
G01X6205314Y540091D01*
G37*
G36*
G01X7237436Y418879D02*
G01X7234406Y418273D01*
G01X7231679Y417970D01*
G01X7229557Y417667D01*
G01X7225618Y417364D01*
G01X7221072Y417667D01*
G01X7215012Y418273D01*
G01X7211982Y418879D01*
G01X7208648Y419788D01*
G01X7205921Y420697D01*
G01X7203497Y421606D01*
G01X7201375Y422515D01*
G01X7199557Y423424D01*
G01X7195921Y425849D01*
G01X7194406Y427061D01*
G01X7188345Y433121D01*
G01X7187133Y434636D01*
G01X7185921Y436758D01*
G01X7184406Y439485D01*
G01X7181982Y444333D01*
G01X7180769Y447667D01*
G01X7179860Y451000D01*
G01X7179254Y453424D01*
G01X7178042Y460697D01*
G01X7177436Y469182D01*
G01X7177133Y514637D01*
G01X7177133Y559182D01*
G01X7196527Y559182D01*
G01X7196527Y508576D01*
G01X7196830Y457061D01*
G01X7197436Y453727D01*
G01X7198345Y450091D01*
G01X7199254Y447667D01*
G01X7200163Y445545D01*
G01X7201375Y443727D01*
G01X7205315Y439788D01*
G01X7207133Y438576D01*
G01X7209557Y437364D01*
G01X7213194Y436152D01*
G01X7218042Y435242D01*
G01X7225618Y434939D01*
G01X7231376Y435242D01*
G01X7234103Y435849D01*
G01X7237133Y436758D01*
G01X7239861Y437970D01*
G01X7241982Y439182D01*
G01X7243497Y440394D01*
G01X7245315Y442515D01*
G01X7246830Y444939D01*
G01X7248042Y447364D01*
G01X7249254Y450091D01*
G01X7250164Y454030D01*
G01X7250770Y457667D01*
G01X7251376Y463727D01*
G01X7251679Y511909D01*
G01X7251679Y559182D01*
G01X7270467Y559182D01*
G01X7270467Y508576D01*
G01X7270164Y457061D01*
G01X7269557Y452212D01*
G01X7268345Y446758D01*
G01X7267436Y444030D01*
G01X7266224Y441000D01*
G01X7265012Y438273D01*
G01X7263800Y436152D01*
G01X7262285Y434030D01*
G01X7260467Y431909D01*
G01X7258951Y430091D01*
G01X7257436Y428576D01*
G01X7255921Y427364D01*
G01X7254103Y425849D01*
G01X7252285Y424636D01*
G01X7250164Y423424D01*
G01X7245315Y421000D01*
G01X7241679Y419788D01*
G01X7237436Y418879D01*
G37*
G36*
G01X7505921Y558273D02*
G01X7509103Y558955D01*
G01X7516830Y559182D01*
G01X7526830Y559182D01*
G01X7526830Y419788D01*
G01X7508042Y419788D01*
G01X7508042Y470697D01*
G01X7507891Y508803D01*
G01X7507436Y521303D01*
G01X7506224Y519485D01*
G01X7501376Y509788D01*
G01X7498951Y505546D01*
G01X7494103Y495849D01*
G01X7491073Y490394D01*
G01X7486224Y480697D01*
G01X7483800Y476455D01*
G01X7478952Y466758D01*
G01X7476527Y462515D01*
G01X7471679Y452818D01*
G01X7468649Y447364D01*
G01X7463800Y437667D01*
G01X7461376Y433424D01*
G01X7456527Y423727D01*
G01X7455315Y421606D01*
G01X7454103Y420394D01*
G01X7443497Y419788D01*
G01X7433497Y419788D01*
G01X7433497Y559182D01*
G01X7452285Y559182D01*
G01X7452285Y508576D01*
G01X7452436Y470697D01*
G01X7452891Y458273D01*
G01X7454103Y460091D01*
G01X7455315Y462515D01*
G01X7457739Y466758D01*
G01X7462588Y476455D01*
G01X7465012Y480697D01*
G01X7469861Y490394D01*
G01X7471376Y492818D01*
G01X7476527Y503121D01*
G01X7478042Y505546D01*
G01X7483194Y515849D01*
G01X7484709Y518273D01*
G01X7489861Y528576D01*
G01X7491376Y531000D01*
G01X7496527Y541303D01*
G01X7498042Y543727D01*
G01X7503194Y554030D01*
G01X7504406Y556152D01*
G01X7505921Y558273D01*
G37*
G36*
G01X7374103Y542818D02*
G01X7306224Y542818D01*
G01X7306224Y559182D01*
G01X7392891Y559182D01*
G01X7392891Y419788D01*
G01X7306224Y419788D01*
G01X7306224Y436152D01*
G01X7374103Y436152D01*
G01X7374103Y484030D01*
G01X7312285Y484030D01*
G01X7312285Y500394D01*
G01X7374103Y500394D01*
G01X7374103Y542818D01*
G37*
G36*
G01X6552284Y394030D02*
G01X6549557Y393424D01*
G01X6546527Y392818D01*
G01X6543193Y392212D01*
G01X6538345Y391909D01*
G01X6534709Y391909D01*
G01X6534709Y409485D01*
G01X6537436Y409485D01*
G01X6541072Y409788D01*
G01X6547133Y410394D01*
G01X6549557Y411000D01*
G01X6552284Y411909D01*
G01X6554709Y413121D01*
G01X6556527Y414636D01*
G01X6558042Y416152D01*
G01X6559254Y417970D01*
G01X6560163Y420394D01*
G01X6560769Y422818D01*
G01X6560466Y423879D01*
G01X6559557Y424636D01*
G01X6556830Y426455D01*
G01X6554405Y428273D01*
G01X6548345Y434333D01*
G01X6546830Y436152D01*
G01X6545618Y437970D01*
G01X6544102Y440091D01*
G01X6542587Y442515D01*
G01X6540163Y447364D01*
G01X6538951Y450091D01*
G01X6537739Y453121D01*
G01X6536830Y455848D01*
G01X6536224Y458273D01*
G01X6535315Y461303D01*
G01X6534406Y465848D01*
G01X6533799Y469182D01*
G01X6533193Y472818D01*
G01X6532587Y477667D01*
G01X6532284Y482515D01*
G01X6531981Y486152D01*
G01X6531892Y488576D01*
G01X6551072Y488576D01*
G01X6551375Y477061D01*
G01X6551981Y469788D01*
G01X6552587Y465545D01*
G01X6553799Y458879D01*
G01X6555921Y452515D01*
G01X6557133Y449788D01*
G01X6558345Y447667D01*
G01X6560163Y444939D01*
G01X6563799Y441303D01*
G01X6565921Y439788D01*
G01X6568042Y438576D01*
G01X6570466Y437364D01*
G01X6573193Y436455D01*
G01X6575618Y435849D01*
G01X6575618Y435849D01*
G01X6579254Y435242D01*
G01X6585618Y434939D01*
G01X6590163Y435242D01*
G01X6591981Y435545D01*
G01X6594406Y435849D01*
G01X6597133Y436758D01*
G01X6599860Y437970D01*
G01X6601981Y439182D01*
G01X6603800Y440697D01*
G01X6605315Y441909D01*
G01X6606527Y443121D01*
G01X6608951Y446152D01*
G01X6611072Y450394D01*
G01X6612284Y453121D01*
G01X6613194Y455848D01*
G01X6614406Y460697D01*
G01X6615618Y466758D01*
G01X6615921Y469485D01*
G01X6616224Y471606D01*
G01X6616830Y479485D01*
G01X6617133Y490394D01*
G01X6616830Y501303D01*
G01X6616224Y508576D01*
G01X6615618Y513424D01*
G01X6614406Y520091D01*
G01X6612284Y526455D01*
G01X6611072Y529182D01*
G01X6609860Y531606D01*
G01X6608345Y533727D01*
G01X6605921Y536758D01*
G01X6603497Y538576D01*
G01X6600769Y540394D01*
G01X6598345Y541606D01*
G01X6595012Y542818D01*
G01X6590769Y543727D01*
G01X6582890Y544030D01*
G01X6576224Y543727D01*
G01X6573496Y543121D01*
G01X6570769Y542212D01*
G01X6567133Y540394D01*
G01X6565315Y539182D01*
G01X6562890Y537364D01*
G01X6560769Y534939D01*
G01X6559557Y533121D01*
G01X6558345Y531000D01*
G01X6557133Y528576D01*
G01X6555921Y525849D01*
G01X6554709Y522212D01*
G01X6553799Y518273D01*
G01X6552587Y512212D01*
G01X6551981Y507364D01*
G01X6551678Y502818D01*
G01X6551375Y500091D01*
G01X6551072Y488576D01*
G01X6531892Y488576D01*
G01X6531678Y494333D01*
G01X6531981Y502515D01*
G01X6532587Y509788D01*
G01X6533193Y514030D01*
G01X6534406Y520091D01*
G01X6535012Y522515D01*
G01X6537739Y530697D01*
G01X6538951Y533424D01*
G01X6541375Y538273D01*
G01X6542587Y540394D01*
G01X6545618Y544636D01*
G01X6546830Y546152D01*
G01X6551375Y550697D01*
G01X6553799Y552515D01*
G01X6556830Y554636D01*
G01X6559860Y556455D01*
G01X6562587Y557667D01*
G01X6565012Y558576D01*
G01X6568042Y559485D01*
G01X6570769Y560091D01*
G01X6574405Y560697D01*
G01X6579860Y561303D01*
G01X6585315Y561303D01*
G01X6589254Y561000D01*
G01X6591375Y560697D01*
G01X6597436Y559485D01*
G01X6599860Y558576D01*
G01X6602891Y557364D01*
G01X6605921Y555849D01*
G01X6608648Y554333D01*
G01X6611375Y552515D01*
G01X6613800Y550697D01*
G01X6618345Y546152D01*
G01X6620163Y543727D01*
G01X6622284Y541000D01*
G01X6624103Y538273D01*
G01X6625618Y535849D01*
G01X6628042Y531000D01*
G01X6628951Y528879D01*
G01X6629860Y526455D01*
G01X6631678Y521000D01*
G01X6632587Y517667D01*
G01X6633193Y514637D01*
G01X6633800Y512212D01*
G01X6634406Y509182D01*
G01X6635012Y504940D01*
G01X6635618Y500091D01*
G01X6635921Y495849D01*
G01X6636224Y492818D01*
G01X6636527Y484636D01*
G01X6636224Y476455D01*
G01X6635618Y469182D01*
G01X6635012Y464939D01*
G01X6633800Y458879D01*
G01X6633193Y456455D01*
G01X6630466Y448273D01*
G01X6629254Y445545D01*
G01X6626830Y440697D01*
G01X6625618Y438576D01*
G01X6622587Y434333D01*
G01X6621375Y432818D01*
G01X6616830Y428273D01*
G01X6614406Y426455D01*
G01X6611375Y424333D01*
G01X6608345Y422515D01*
G01X6605618Y421303D01*
G01X6603194Y420394D01*
G01X6600163Y419485D01*
G01X6597436Y418879D01*
G01X6594406Y418273D01*
G01X6590769Y417970D01*
G01X6585921Y417364D01*
G01X6583496Y417667D01*
G01X6576830Y418273D01*
G01X6574102Y418879D01*
G01X6572284Y419182D01*
G01X6572284Y417667D01*
G01X6571981Y415243D01*
G01X6571375Y412515D01*
G01X6570466Y409485D01*
G01X6569557Y407061D01*
G01X6568345Y404636D01*
G01X6566830Y402515D01*
G01X6563799Y399485D01*
G01X6561678Y397970D01*
G01X6559557Y396758D01*
G01X6557739Y395849D01*
G01X6555315Y394940D01*
G01X6552284Y394030D01*
G37*
G36*
G01X6761072Y439485D02*
G01X6761678Y437061D01*
G01X6764103Y424939D01*
G01X6765012Y421606D01*
G01X6765618Y419788D01*
G01X6745618Y419788D01*
G01X6745618Y421606D01*
G01X6745315Y424333D01*
G01X6742891Y436455D01*
G01X6742284Y438879D01*
G01X6741678Y441909D01*
G01X6740769Y445545D01*
G01X6739860Y448879D01*
G01X6732739Y449788D01*
G01X6711981Y450091D01*
G01X6684405Y450091D01*
G01X6684102Y447970D01*
G01X6679254Y423727D01*
G01X6678345Y420697D01*
G01X6675542Y420015D01*
G01X6668345Y419788D01*
G01X6658951Y419788D01*
G01X6659254Y422212D01*
G01X6659860Y425546D01*
G01X6662284Y437667D01*
G01X6664709Y448576D01*
G01X6666224Y454636D01*
G01X6667133Y458576D01*
G01X6667739Y461303D01*
G01X6668648Y464333D01*
G01X6669487Y467970D01*
G01X6688951Y467970D01*
G01X6694481Y467288D01*
G01X6711678Y467061D01*
G01X6735012Y467364D01*
G01X6735315Y468879D01*
G01X6735012Y471000D01*
G01X6734103Y474030D01*
G01X6732588Y480091D01*
G01X6731678Y483121D01*
G01X6730163Y489182D01*
G01X6729254Y491909D01*
G01X6728345Y495243D01*
G01X6727739Y497667D01*
G01X6726830Y500394D01*
G01X6725921Y503727D01*
G01X6725012Y506455D01*
G01X6723194Y512515D01*
G01X6721375Y517970D01*
G01X6719557Y524030D01*
G01X6717739Y529485D01*
G01X6715921Y534333D01*
G01X6713194Y542515D01*
G01X6712739Y543576D01*
G01X6711981Y543727D01*
G01X6711224Y543046D01*
G01X6710769Y541606D01*
G01X6709860Y538576D01*
G01X6702587Y516758D01*
G01X6700769Y510697D01*
G01X6698951Y505243D01*
G01X6698042Y502212D01*
G01X6697436Y499485D01*
G01X6696527Y496758D01*
G01X6695618Y493424D01*
G01X6695012Y491000D01*
G01X6694103Y488273D01*
G01X6693193Y484636D01*
G01X6692587Y481909D01*
G01X6691678Y478879D01*
G01X6690466Y474636D01*
G01X6689557Y470697D01*
G01X6688951Y467970D01*
G01X6688951Y467970D01*
G01X6669487Y467970D01*
G01X6669557Y468273D01*
G01X6670163Y471000D01*
G01X6671072Y474030D01*
G01X6675921Y491000D01*
G01X6677133Y494940D01*
G01X6678345Y498576D01*
G01X6679254Y501909D01*
G01X6685618Y521000D01*
G01X6687436Y525849D01*
G01X6688345Y528576D01*
G01X6692890Y540697D01*
G01X6693799Y542818D01*
G01X6694709Y545242D01*
G01X6695921Y548273D01*
G01X6697133Y551000D01*
G01X6698042Y553121D01*
G01X6698951Y555545D01*
G01X6700163Y557970D01*
G01X6703497Y558879D01*
G01X6712285Y559182D01*
G01X6723800Y559182D01*
G01X6724103Y557667D01*
G01X6725012Y554939D01*
G01X6726224Y552212D01*
G01X6731072Y540091D01*
G01X6732284Y536758D01*
G01X6733497Y533727D01*
G01X6735315Y528879D01*
G01X6736527Y525849D01*
G01X6740163Y514940D01*
G01X6741375Y511909D01*
G01X6743194Y506455D01*
G01X6745012Y500394D01*
G01X6746830Y494940D01*
G01X6747739Y491909D01*
G01X6748345Y489182D01*
G01X6749254Y486455D01*
G01X6750163Y483121D01*
G01X6750769Y480697D01*
G01X6751678Y477970D01*
G01X6752587Y474636D01*
G01X6753194Y472212D01*
G01X6754103Y469182D01*
G01X6755012Y465242D01*
G01X6755618Y462515D01*
G01X6756527Y459485D01*
G01X6757436Y455545D01*
G01X6758042Y452818D01*
G01X6759557Y446758D01*
G01X6760466Y442515D01*
G01X6761072Y439485D01*
G37*
G36*
G01X6828345Y558273D02*
G01X6832588Y558879D01*
G01X6860466Y559182D01*
G01X6885618Y559182D01*
G01X6885618Y419788D01*
G01X6860466Y419788D01*
G01X6834406Y420091D01*
G01X6830163Y420697D01*
G01X6827133Y421606D01*
G01X6823194Y422818D01*
G01X6819860Y424030D01*
G01X6817436Y425242D01*
G01X6815315Y426455D01*
G01X6812891Y427970D01*
G01X6810769Y429485D01*
G01X6808345Y431303D01*
G01X6804709Y434939D01*
G01X6801678Y438576D01*
G01X6800466Y440091D01*
G01X6799254Y442212D01*
G01X6797739Y444939D01*
G01X6795315Y449788D01*
G01X6794103Y452515D01*
G01X6792890Y455545D01*
G01X6791678Y459485D01*
G01X6789860Y466758D01*
G01X6789254Y470394D01*
G01X6788951Y472818D01*
G01X6788345Y476455D01*
G01X6788042Y481000D01*
G01X6787739Y483727D01*
G01X6787620Y487667D01*
G01X6806830Y487667D01*
G01X6807133Y475242D01*
G01X6807739Y469182D01*
G01X6808345Y464939D01*
G01X6809557Y459485D01*
G01X6810466Y456758D01*
G01X6811678Y453424D01*
G01X6812891Y451000D01*
G01X6814406Y448576D01*
G01X6815921Y446455D01*
G01X6817133Y444939D01*
G01X6819254Y443121D01*
G01X6821982Y441303D01*
G01X6824709Y439788D01*
G01X6827739Y438576D01*
G01X6831072Y437667D01*
G01X6833800Y437061D01*
G01X6833800Y437061D01*
G01X6838042Y436455D01*
G01X6852588Y436152D01*
G01X6866527Y436455D01*
G01X6866830Y489788D01*
G01X6866830Y542818D01*
G01X6851375Y542818D01*
G01X6835012Y542515D01*
G01X6831982Y541909D01*
G01X6828648Y541000D01*
G01X6826224Y540091D01*
G01X6824103Y539182D01*
G01X6821679Y537667D01*
G01X6819557Y536152D01*
G01X6818042Y534939D01*
G01X6816527Y533121D01*
G01X6814103Y529485D01*
G01X6812891Y527364D01*
G01X6811981Y525243D01*
G01X6811072Y522818D01*
G01X6810163Y519788D01*
G01X6809557Y517061D01*
G01X6808951Y514637D01*
G01X6808345Y511606D01*
G01X6807739Y507364D01*
G01X6807133Y501909D01*
G01X6806830Y487667D01*
G01X6787620Y487667D01*
G01X6787436Y493727D01*
G01X6787739Y503727D01*
G01X6788345Y510394D01*
G01X6789557Y517667D01*
G01X6790466Y520697D01*
G01X6791678Y524940D01*
G01X6792890Y528576D01*
G01X6794103Y531606D01*
G01X6795315Y534030D01*
G01X6796527Y536152D01*
G01X6798042Y538576D01*
G01X6799860Y541303D01*
G01X6803497Y545546D01*
G01X6805315Y547364D01*
G01X6806830Y548576D01*
G01X6808648Y550091D01*
G01X6813497Y553121D01*
G01X6815618Y554333D01*
G01X6817739Y555242D01*
G01X6820163Y556152D01*
G01X6823194Y557061D01*
G01X6825921Y557667D01*
G01X6828345Y558273D01*
G37*
G36*
G01X6988648Y421000D02*
G01X6985315Y419788D01*
G01X6981678Y418879D01*
G01X6974406Y417667D01*
G01X6970163Y417364D01*
G01X6966527Y417667D01*
G01X6960466Y418273D01*
G01X6955012Y419485D01*
G01X6952285Y420394D01*
G01X6949254Y421606D01*
G01X6946527Y422818D01*
G01X6944406Y424030D01*
G01X6940769Y426455D01*
G01X6939254Y427667D01*
G01X6933194Y433727D01*
G01X6931376Y435849D01*
G01X6929860Y437970D01*
G01X6928648Y439788D01*
G01X6927133Y442212D01*
G01X6925618Y444939D01*
G01X6924406Y447364D01*
G01X6923497Y449485D01*
G01X6922588Y451909D01*
G01X6921376Y454939D01*
G01X6920163Y458879D01*
G01X6919254Y462515D01*
G01X6918042Y468576D01*
G01X6917436Y472212D01*
G01X6916830Y476455D01*
G01X6916527Y480091D01*
G01X6916224Y482515D01*
G01X6916064Y488576D01*
G01X6935315Y488576D01*
G01X6935618Y473424D01*
G01X6936224Y467970D01*
G01X6936830Y463727D01*
G01X6937436Y460697D01*
G01X6938345Y457364D01*
G01X6940163Y451909D01*
G01X6941376Y449182D01*
G01X6942588Y447061D01*
G01X6944103Y444939D01*
G01X6945921Y442818D01*
G01X6948951Y440394D01*
G01X6950769Y439182D01*
G01X6953194Y437970D01*
G01X6955921Y436758D01*
G01X6959557Y435849D01*
G01X6959557Y435849D01*
G01X6962891Y435242D01*
G01X6968648Y434939D01*
G01X6973800Y435242D01*
G01X6975921Y435545D01*
G01X6978648Y435849D01*
G01X6981072Y436758D01*
G01X6983800Y437970D01*
G01X6986224Y439485D01*
G01X6988345Y441000D01*
G01X6991375Y444030D01*
G01X6992587Y445545D01*
G01X6993497Y447364D01*
G01X6994709Y449485D01*
G01X6995921Y452212D01*
G01X6997133Y455545D01*
G01X6998042Y458879D01*
G01X6998951Y462515D01*
G01X6999557Y466151D01*
G01X6999860Y468576D01*
G01X7000466Y474030D01*
G01X7001072Y486152D01*
G01X7001375Y490394D01*
G01X7001072Y494637D01*
G01X7000466Y506152D01*
G01X6999860Y511606D01*
G01X6999254Y515849D01*
G01X6998042Y521303D01*
G01X6997133Y524030D01*
G01X6995921Y527364D01*
G01X6994709Y529788D01*
G01X6993497Y531909D01*
G01X6991678Y534636D01*
G01X6988042Y538273D01*
G01X6985921Y539788D01*
G01X6983497Y541000D01*
G01X6980769Y542212D01*
G01X6977436Y543121D01*
G01X6974406Y543727D01*
G01X6966830Y544030D01*
G01X6959860Y543727D01*
G01X6957436Y543121D01*
G01X6954709Y542212D01*
G01X6951982Y541000D01*
G01X6949860Y539788D01*
G01X6948345Y538576D01*
G01X6945315Y535546D01*
G01X6943800Y533727D01*
G01X6942588Y531606D01*
G01X6941376Y529182D01*
G01X6940163Y526455D01*
G01X6938951Y523121D01*
G01X6938042Y519485D01*
G01X6936830Y513424D01*
G01X6936224Y509788D01*
G01X6935921Y506152D01*
G01X6935618Y503727D01*
G01X6935315Y488576D01*
G01X6916064Y488576D01*
G01X6915921Y494030D01*
G01X6916224Y505546D01*
G01X6916830Y511606D01*
G01X6918042Y518273D01*
G01X6918648Y521000D01*
G01X6920466Y527061D01*
G01X6921376Y529788D01*
G01X6923194Y534030D01*
G01X6924406Y536455D01*
G01X6925921Y539182D01*
G01X6927739Y541909D01*
G01X6929860Y544939D01*
G01X6931679Y547061D01*
G01X6933800Y548879D01*
G01X6935921Y551000D01*
G01X6937739Y552515D01*
G01X6941376Y554939D01*
G01X6943497Y556152D01*
G01X6945921Y557364D01*
G01X6948951Y558576D01*
G01X6952285Y559485D01*
G01X6955012Y560091D01*
G01X6958042Y560697D01*
G01X6961678Y561000D01*
G01X6966527Y561606D01*
G01X6968951Y561303D01*
G01X6975618Y560697D01*
G01X6978648Y560091D01*
G01X6981981Y559182D01*
G01X6986830Y557364D01*
G01X6989557Y556152D01*
G01X6992284Y554636D01*
G01X6994406Y553121D01*
G01X6999254Y549485D01*
G01X7000769Y547970D01*
G01X7005618Y541909D01*
G01X7007133Y539788D01*
G01X7008951Y537061D01*
G01X7011678Y531606D01*
G01X7012891Y528879D01*
G01X7014103Y525849D01*
G01X7015012Y523121D01*
G01X7015618Y520697D01*
G01X7016527Y517970D01*
G01X7017436Y514030D01*
G01X7018042Y511000D01*
G01X7018648Y507364D01*
G01X7019254Y503121D01*
G01X7019557Y499788D01*
G01X7019860Y497061D01*
G01X7020163Y484636D01*
G01X7019860Y472212D01*
G01X7019254Y466758D01*
G01X7018648Y462515D01*
G01X7017133Y456455D01*
G01X7015921Y452515D01*
G01X7014709Y448879D01*
G01X7013497Y445848D01*
G01X7012285Y443424D01*
G01X7009860Y439182D01*
G01X7008345Y436758D01*
G01X7006830Y434636D01*
G01X7005315Y433121D01*
G01X7002890Y430091D01*
G01X7001375Y428576D01*
G01X6999860Y427364D01*
G01X6998345Y426455D01*
G01X6996224Y424939D01*
G01X6993800Y423424D01*
G01X6991375Y422212D01*
G01X6988648Y421000D01*
G37*
G36*
G01X7079254Y558273D02*
G01X7083497Y558879D01*
G01X7112891Y559182D01*
G01X7140164Y559182D01*
G01X7140164Y419788D01*
G01X7121376Y419788D01*
G01X7121376Y479182D01*
G01X7098951Y479182D01*
G01X7098345Y477667D01*
G01X7082588Y446152D01*
G01X7080769Y441909D01*
G01X7071072Y422515D01*
G01X7069860Y420697D01*
G01X7066679Y420015D01*
G01X7058345Y419788D01*
G01X7050239Y420015D01*
G01X7047739Y420697D01*
G01X7051073Y427364D01*
G01X7053497Y431606D01*
G01X7057133Y438879D01*
G01X7059557Y443121D01*
G01X7061982Y447970D01*
G01X7065012Y453424D01*
G01X7067436Y458273D01*
G01X7069860Y462515D01*
G01X7072285Y467364D01*
G01X7075315Y472818D01*
G01X7077739Y477667D01*
G01X7078648Y480091D01*
G01X7078345Y480924D01*
G01X7076830Y481606D01*
G01X7072891Y482818D01*
G01X7070163Y484030D01*
G01X7067739Y485242D01*
G01X7065012Y486758D01*
G01X7062891Y488273D01*
G01X7060466Y490091D01*
G01X7058345Y492212D01*
G01X7055921Y495243D01*
G01X7054406Y497364D01*
G01X7052891Y500091D01*
G01X7051679Y502515D01*
G01X7050466Y505243D01*
G01X7049254Y509182D01*
G01X7048648Y512515D01*
G01X7048345Y514637D01*
G01X7048127Y520091D01*
G01X7067133Y520091D01*
G01X7067133Y516455D01*
G01X7067739Y511303D01*
G01X7068648Y507970D01*
G01X7069557Y505849D01*
G01X7070769Y504030D01*
G01X7072285Y502212D01*
G01X7073800Y500697D01*
G01X7078042Y498576D01*
G01X7081678Y497364D01*
G01X7085012Y496758D01*
G01X7085012Y496758D01*
G01X7087133Y496455D01*
G01X7104406Y496152D01*
G01X7121073Y496455D01*
G01X7121376Y519788D01*
G01X7121376Y542818D01*
G01X7103800Y542818D01*
G01X7085315Y542515D01*
G01X7082285Y541909D01*
G01X7078951Y541000D01*
G01X7076224Y539788D01*
G01X7074103Y538576D01*
G01X7072285Y536455D01*
G01X7070466Y534030D01*
G01X7069254Y531606D01*
G01X7068042Y527970D01*
G01X7067436Y523424D01*
G01X7067133Y520091D01*
G01X7048127Y520091D01*
G01X7048042Y522212D01*
G01X7048345Y529788D01*
G01X7048951Y532515D01*
G01X7049860Y535546D01*
G01X7050769Y537970D01*
G01X7051679Y540091D01*
G01X7052891Y542212D01*
G01X7054709Y544939D01*
G01X7059860Y550091D01*
G01X7061982Y551606D01*
G01X7064709Y553424D01*
G01X7067739Y554939D01*
G01X7071072Y556152D01*
G01X7075012Y557364D01*
G01X7079254Y558273D01*
G37*
G36*
G01X6351348Y190279D02*
G01X6348318Y189673D01*
G01X6344681Y189370D01*
G01X6342863Y189067D01*
G01X6338924Y188764D01*
G01X6334378Y189067D01*
G01X6328318Y189673D01*
G01X6325287Y190279D01*
G01X6321954Y191188D01*
G01X6319227Y192097D01*
G01X6316802Y193006D01*
G01X6314681Y193915D01*
G01X6312257Y195127D01*
G01X6309833Y196642D01*
G01X6308015Y197855D01*
G01X6306499Y199067D01*
G01X6301954Y203612D01*
G01X6300742Y205127D01*
G01X6299227Y207249D01*
G01X6297408Y209976D01*
G01X6295893Y212703D01*
G01X6294681Y215430D01*
G01X6293469Y218461D01*
G01X6292560Y222097D01*
G01X6291954Y224824D01*
G01X6291348Y227855D01*
G01X6290742Y232703D01*
G01X6290666Y234521D01*
G01X6309833Y234521D01*
G01X6310136Y226642D01*
G01X6310742Y223915D01*
G01X6311651Y220885D01*
G01X6312863Y218158D01*
G01X6314075Y216036D01*
G01X6315287Y214521D01*
G01X6316802Y213006D01*
G01X6318318Y211794D01*
G01X6320439Y210279D01*
G01X6323772Y208764D01*
G01X6326499Y207855D01*
G01X6328924Y207249D01*
G01X6328924Y207249D01*
G01X6331954Y206642D01*
G01X6340742Y206339D01*
G01X6348318Y206642D01*
G01X6350136Y206945D01*
G01X6352560Y207249D01*
G01X6355287Y208158D01*
G01X6358014Y209370D01*
G01X6360136Y210582D01*
G01X6361954Y212097D01*
G01X6363469Y213612D01*
G01X6365287Y215733D01*
G01X6366802Y218764D01*
G01X6368014Y221491D01*
G01X6368924Y225127D01*
G01X6369530Y228461D01*
G01X6370136Y233915D01*
G01X6370439Y237551D01*
G01X6370136Y241188D01*
G01X6369530Y246642D01*
G01X6368924Y249370D01*
G01X6368014Y252097D01*
G01X6367105Y254218D01*
G01X6365893Y256642D01*
G01X6364378Y258764D01*
G01X6362863Y260279D01*
G01X6360742Y261794D01*
G01X6358014Y263309D01*
G01X6355287Y264521D01*
G01X6352257Y265430D01*
G01X6349530Y266037D01*
G01X6344681Y266643D01*
G01X6338924Y266946D01*
G01X6333166Y266643D01*
G01X6328924Y266037D01*
G01X6325893Y265127D01*
G01X6322863Y263915D01*
G01X6320439Y262703D01*
G01X6318318Y261188D01*
G01X6316802Y259673D01*
G01X6314984Y257552D01*
G01X6313469Y255127D01*
G01X6312257Y252400D01*
G01X6311348Y249673D01*
G01X6310742Y247248D01*
G01X6310136Y243612D01*
G01X6309833Y234521D01*
G01X6290666Y234521D01*
G01X6290439Y239976D01*
G01X6290742Y245430D01*
G01X6291348Y250279D01*
G01X6292560Y255733D01*
G01X6293469Y258158D01*
G01X6294681Y261188D01*
G01X6295893Y263612D01*
G01X6297105Y265733D01*
G01X6298621Y268158D01*
G01X6300136Y270279D01*
G01X6303166Y273309D01*
G01X6305287Y275127D01*
G01X6307409Y276643D01*
G01X6309227Y277855D01*
G01X6311348Y279067D01*
G01X6313469Y279976D01*
G01X6315893Y280885D01*
G01X6318924Y281794D01*
G01X6321651Y282400D01*
G01X6324075Y283006D01*
G01X6326802Y283309D01*
G01X6328924Y283612D01*
G01X6334075Y283915D01*
G01X6339227Y283612D01*
G01X6344075Y283006D01*
G01X6349530Y281794D01*
G01X6351954Y280885D01*
G01X6354984Y279673D01*
G01X6358014Y278158D01*
G01X6360742Y276643D01*
G01X6362560Y275430D01*
G01X6364075Y274218D01*
G01X6368620Y269673D01*
G01X6370136Y267855D01*
G01X6370893Y267400D01*
G01X6371348Y267855D01*
G01X6371348Y269673D01*
G01X6370742Y274521D01*
G01X6369530Y279976D01*
G01X6368620Y282703D01*
G01X6367408Y286037D01*
G01X6366196Y289067D01*
G01X6364984Y291491D01*
G01X6363469Y293915D01*
G01X6361348Y296946D01*
G01X6356196Y302097D01*
G01X6353166Y304521D01*
G01X6351348Y305733D01*
G01X6348924Y307249D01*
G01X6345893Y308764D01*
G01X6342863Y309976D01*
G01X6339530Y311188D01*
G01X6335590Y312400D01*
G01X6331348Y313309D01*
G01X6328318Y313915D01*
G01X6324075Y314521D01*
G01X6317408Y315127D01*
G01X6313166Y315430D01*
G01X6309833Y315430D01*
G01X6309833Y333006D01*
G01X6311954Y333006D01*
G01X6314984Y332703D01*
G01X6324075Y332097D01*
G01X6329530Y331491D01*
G01X6332560Y330885D01*
G01X6336802Y329976D01*
G01X6342863Y328461D01*
G01X6345287Y327552D01*
G01X6351348Y325127D01*
G01X6356196Y322703D01*
G01X6358317Y321491D01*
G01X6360439Y319976D01*
G01X6363469Y317855D01*
G01X6365893Y316036D01*
G01X6371954Y309976D01*
G01X6374984Y306339D01*
G01X6376196Y304824D01*
G01X6377408Y302703D01*
G01X6379227Y299976D01*
G01X6381954Y294521D01*
G01X6383166Y291794D01*
G01X6384378Y288764D01*
G01X6385590Y285430D01*
G01X6386802Y281188D01*
G01X6387711Y277552D01*
G01X6388317Y274521D01*
G01X6389530Y267249D01*
G01X6389833Y264218D01*
G01X6390136Y261794D01*
G01X6390439Y249673D01*
G01X6390136Y237551D01*
G01X6389530Y232703D01*
G01X6388317Y226642D01*
G01X6387408Y223612D01*
G01X6386196Y219673D01*
G01X6384984Y216945D01*
G01X6384075Y214824D01*
G01X6382863Y212400D01*
G01X6381348Y209976D01*
G01X6379530Y207249D01*
G01X6377711Y204824D01*
G01X6373166Y200279D01*
G01X6370742Y198461D01*
G01X6367711Y196339D01*
G01X6365287Y194824D01*
G01X6361045Y193006D01*
G01X6358621Y192097D01*
G01X6355893Y191188D01*
G01X6353469Y190582D01*
G01X6351348Y190279D01*
G37*
G36*
G01X6884075Y193309D02*
G01X6885894Y187855D01*
G01X6886803Y185430D01*
G01X6887712Y183612D01*
G01X6885969Y182930D01*
G01X6880136Y182703D01*
G01X6872257Y182703D01*
G01X6871954Y184218D01*
G01X6870136Y189673D01*
G01X6868318Y194521D01*
G01X6866500Y199976D01*
G01X6864681Y204824D01*
G01X6861954Y213006D01*
G01X6860742Y216036D01*
G01X6858318Y223309D01*
G01X6857106Y226339D01*
G01X6854378Y234521D01*
G01X6852560Y239370D01*
G01X6850742Y244824D01*
G01X6848924Y249673D01*
G01X6846197Y257855D01*
G01X6844985Y260885D01*
G01X6842560Y268158D01*
G01X6841348Y271188D01*
G01X6839530Y276643D01*
G01X6837712Y281491D01*
G01X6834985Y289673D01*
G01X6833166Y294521D01*
G01X6831348Y299976D01*
G01X6829530Y304824D01*
G01X6826803Y313006D01*
G01X6825591Y316036D01*
G01X6823166Y323309D01*
G01X6821954Y326339D01*
G01X6819227Y334521D01*
G01X6818318Y336945D01*
G01X6818015Y338461D01*
G01X6825591Y339067D01*
G01X6832863Y339067D01*
G01X6834682Y333612D01*
G01X6835894Y330582D01*
G01X6838621Y322400D01*
G01X6840439Y317552D01*
G01X6842257Y312097D01*
G01X6844075Y307249D01*
G01X6846803Y299067D01*
G01X6848015Y296036D01*
G01X6850439Y288764D01*
G01X6851651Y285733D01*
G01X6854378Y277552D01*
G01X6856197Y272703D01*
G01X6858015Y267249D01*
G01X6859833Y262400D01*
G01X6862560Y254218D01*
G01X6863772Y251188D01*
G01X6866197Y243915D01*
G01X6868621Y237248D01*
G01X6869833Y233612D01*
G01X6872257Y226945D01*
G01X6874681Y219673D01*
G01X6875894Y216642D01*
G01X6877712Y211188D01*
G01X6879530Y206339D01*
G01X6882257Y198158D01*
G01X6884075Y193309D01*
G37*
G36*
G01X6991348Y190279D02*
G01X6988318Y189673D01*
G01X6984681Y189370D01*
G01X6982863Y189067D01*
G01X6978924Y188764D01*
G01X6974378Y189067D01*
G01X6968318Y189673D01*
G01X6965288Y190279D01*
G01X6961954Y191188D01*
G01X6959227Y192097D01*
G01X6956803Y193006D01*
G01X6954682Y193915D01*
G01X6952257Y195127D01*
G01X6949833Y196642D01*
G01X6948015Y197855D01*
G01X6946500Y199067D01*
G01X6941954Y203612D01*
G01X6940742Y205127D01*
G01X6939227Y207249D01*
G01X6937409Y209976D01*
G01X6935894Y212703D01*
G01X6934682Y215430D01*
G01X6933469Y218461D01*
G01X6932560Y222097D01*
G01X6931954Y224824D01*
G01X6931348Y227855D01*
G01X6930742Y232703D01*
G01X6930666Y234521D01*
G01X6949833Y234521D01*
G01X6950136Y226642D01*
G01X6950742Y223915D01*
G01X6951651Y220885D01*
G01X6952863Y218158D01*
G01X6954076Y216036D01*
G01X6955288Y214521D01*
G01X6956803Y213006D01*
G01X6958318Y211794D01*
G01X6960439Y210279D01*
G01X6963772Y208764D01*
G01X6966500Y207855D01*
G01X6968924Y207249D01*
G01X6968924Y207249D01*
G01X6971954Y206642D01*
G01X6980742Y206339D01*
G01X6988318Y206642D01*
G01X6990136Y206945D01*
G01X6992560Y207249D01*
G01X6995288Y208158D01*
G01X6998015Y209370D01*
G01X7000136Y210582D01*
G01X7001954Y212097D01*
G01X7003469Y213612D01*
G01X7005287Y215733D01*
G01X7006803Y218764D01*
G01X7008015Y221491D01*
G01X7008924Y225127D01*
G01X7009530Y228461D01*
G01X7010136Y233915D01*
G01X7010439Y237248D01*
G01X7010136Y240582D01*
G01X7009530Y246642D01*
G01X7008924Y249370D01*
G01X7008015Y252097D01*
G01X7007106Y254218D01*
G01X7005894Y256642D01*
G01X7004378Y258764D01*
G01X7002863Y260279D01*
G01X7000742Y261794D01*
G01X6998015Y263309D01*
G01X6995288Y264521D01*
G01X6992257Y265430D01*
G01X6989530Y266037D01*
G01X6984681Y266643D01*
G01X6978924Y266946D01*
G01X6973166Y266643D01*
G01X6968924Y266037D01*
G01X6965894Y265127D01*
G01X6962863Y263915D01*
G01X6960439Y262703D01*
G01X6958318Y261188D01*
G01X6956803Y259673D01*
G01X6954985Y257552D01*
G01X6953469Y255127D01*
G01X6952257Y252400D01*
G01X6951348Y249673D01*
G01X6950742Y247248D01*
G01X6950136Y243612D01*
G01X6949833Y234521D01*
G01X6930666Y234521D01*
G01X6930439Y239976D01*
G01X6930742Y245430D01*
G01X6931348Y250279D01*
G01X6932560Y255733D01*
G01X6933469Y258158D01*
G01X6934682Y261188D01*
G01X6935894Y263612D01*
G01X6937106Y265733D01*
G01X6938621Y268158D01*
G01X6940136Y270279D01*
G01X6943166Y273309D01*
G01X6945288Y275127D01*
G01X6947409Y276643D01*
G01X6949227Y277855D01*
G01X6951348Y279067D01*
G01X6953469Y279976D01*
G01X6955894Y280885D01*
G01X6958924Y281794D01*
G01X6961651Y282400D01*
G01X6964075Y283006D01*
G01X6966803Y283309D01*
G01X6968924Y283612D01*
G01X6974075Y283915D01*
G01X6979227Y283612D01*
G01X6984075Y283006D01*
G01X6989530Y281794D01*
G01X6991954Y280885D01*
G01X6994984Y279673D01*
G01X6998015Y278158D01*
G01X7000742Y276643D01*
G01X7002560Y275430D01*
G01X7004075Y274218D01*
G01X7008621Y269673D01*
G01X7010136Y267855D01*
G01X7010894Y267400D01*
G01X7011348Y267855D01*
G01X7011348Y269673D01*
G01X7010742Y274521D01*
G01X7009530Y279976D01*
G01X7008621Y282703D01*
G01X7007409Y286037D01*
G01X7006197Y289067D01*
G01X7004984Y291491D01*
G01X7003469Y293915D01*
G01X7001348Y296946D01*
G01X6996197Y302097D01*
G01X6993166Y304521D01*
G01X6991348Y305733D01*
G01X6988924Y307249D01*
G01X6985894Y308764D01*
G01X6982863Y309976D01*
G01X6979530Y311188D01*
G01X6975591Y312400D01*
G01X6971348Y313309D01*
G01X6968318Y313915D01*
G01X6964075Y314521D01*
G01X6957409Y315127D01*
G01X6953166Y315430D01*
G01X6949833Y315430D01*
G01X6949833Y333006D01*
G01X6951954Y333006D01*
G01X6954985Y332703D01*
G01X6964075Y332097D01*
G01X6969530Y331491D01*
G01X6972560Y330885D01*
G01X6976803Y329976D01*
G01X6982863Y328461D01*
G01X6985288Y327552D01*
G01X6991348Y325127D01*
G01X6996197Y322703D01*
G01X6998318Y321491D01*
G01X7000439Y319976D01*
G01X7003469Y317855D01*
G01X7005894Y316036D01*
G01X7011954Y309976D01*
G01X7014984Y306339D01*
G01X7016197Y304824D01*
G01X7017409Y302703D01*
G01X7019227Y299976D01*
G01X7021954Y294521D01*
G01X7023166Y291794D01*
G01X7024378Y288764D01*
G01X7025591Y285430D01*
G01X7026803Y281188D01*
G01X7027712Y277552D01*
G01X7028318Y274521D01*
G01X7029530Y267249D01*
G01X7029833Y264218D01*
G01X7030136Y261794D01*
G01X7030439Y249673D01*
G01X7030136Y237551D01*
G01X7029530Y232703D01*
G01X7028318Y226642D01*
G01X7027409Y223612D01*
G01X7026197Y219673D01*
G01X7024985Y216945D01*
G01X7024075Y214824D01*
G01X7022863Y212400D01*
G01X7021348Y209976D01*
G01X7019530Y207249D01*
G01X7017712Y204824D01*
G01X7013166Y200279D01*
G01X7010742Y198461D01*
G01X7007712Y196339D01*
G01X7005287Y194824D01*
G01X7001045Y193006D01*
G01X6998621Y192097D01*
G01X6995894Y191188D01*
G01X6993469Y190582D01*
G01X6991348Y190279D01*
G37*
G36*
G01X7127712Y191794D02*
G01X7124681Y190885D01*
G01X7118621Y189673D01*
G01X7114985Y189067D01*
G01X7111045Y188764D01*
G01X7107712Y189067D01*
G01X7101651Y189673D01*
G01X7098621Y190279D01*
G01X7095288Y191188D01*
G01X7092560Y192097D01*
G01X7090136Y193006D01*
G01X7087712Y194218D01*
G01X7085591Y195430D01*
G01X7081954Y197855D01*
G01X7080439Y199067D01*
G01X7074379Y205127D01*
G01X7073166Y206642D01*
G01X7072257Y208158D01*
G01X7070742Y210279D01*
G01X7067712Y215127D01*
G01X7066197Y218461D01*
G01X7064985Y221188D01*
G01X7064076Y223309D01*
G01X7063166Y225733D01*
G01X7061348Y231794D01*
G01X7060742Y234218D01*
G01X7060439Y236339D01*
G01X7059227Y242400D01*
G01X7058621Y247248D01*
G01X7058015Y253309D01*
G01X7057823Y261188D01*
G01X7076197Y261188D01*
G01X7076197Y258764D01*
G01X7076500Y250885D01*
G01X7076803Y243612D01*
G01X7077409Y237551D01*
G01X7078015Y233309D01*
G01X7079227Y227855D01*
G01X7080136Y225127D01*
G01X7081348Y222097D01*
G01X7082560Y219370D01*
G01X7083772Y217248D01*
G01X7084985Y215733D01*
G01X7088015Y212703D01*
G01X7090136Y211188D01*
G01X7092257Y209976D01*
G01X7094682Y208764D01*
G01X7098318Y207552D01*
G01X7101348Y206945D01*
G01X7101348Y206945D01*
G01X7103469Y206642D01*
G01X7109530Y206339D01*
G01X7114985Y206642D01*
G01X7117106Y206945D01*
G01X7119833Y207249D01*
G01X7122257Y208158D01*
G01X7124985Y209370D01*
G01X7127409Y210885D01*
G01X7129530Y212400D01*
G01X7131045Y213915D01*
G01X7132257Y215430D01*
G01X7133773Y217552D01*
G01X7135288Y220582D01*
G01X7136500Y223309D01*
G01X7137409Y226036D01*
G01X7138621Y230885D01*
G01X7139227Y233915D01*
G01X7139833Y238158D01*
G01X7140439Y243006D01*
G01X7140742Y248158D01*
G01X7141045Y252097D01*
G01X7141348Y261491D01*
G01X7141045Y270885D01*
G01X7140439Y279976D01*
G01X7139833Y285430D01*
G01X7138621Y292097D01*
G01X7137712Y295127D01*
G01X7136500Y298764D01*
G01X7135288Y301794D01*
G01X7133469Y304824D01*
G01X7131651Y307249D01*
G01X7130136Y308764D01*
G01X7127712Y310582D01*
G01X7124681Y312400D01*
G01X7121954Y313612D01*
G01X7118621Y314521D01*
G01X7115591Y315127D01*
G01X7108015Y315430D01*
G01X7100439Y315127D01*
G01X7097712Y314521D01*
G01X7094985Y313612D01*
G01X7091348Y311794D01*
G01X7089530Y310582D01*
G01X7087106Y308764D01*
G01X7085288Y306643D01*
G01X7084379Y305127D01*
G01X7083166Y303006D01*
G01X7081954Y300582D01*
G01X7080742Y297855D01*
G01X7079530Y293915D01*
G01X7078621Y289673D01*
G01X7078015Y286643D01*
G01X7077409Y282400D01*
G01X7076803Y276340D01*
G01X7076197Y261188D01*
G01X7057823Y261188D01*
G01X7057712Y265733D01*
G01X7058015Y278158D01*
G01X7058621Y283612D01*
G01X7059227Y287855D01*
G01X7060742Y293915D01*
G01X7061954Y298158D01*
G01X7063166Y301491D01*
G01X7064076Y303915D01*
G01X7064985Y306036D01*
G01X7066197Y308461D01*
G01X7067712Y311188D01*
G01X7069530Y313915D01*
G01X7071045Y316036D01*
G01X7072257Y317552D01*
G01X7076803Y322097D01*
G01X7079833Y324521D01*
G01X7081954Y326036D01*
G01X7084682Y327552D01*
G01X7087106Y328764D01*
G01X7089227Y329673D01*
G01X7091348Y330279D01*
G01X7094075Y331188D01*
G01X7097106Y331794D01*
G01X7099227Y332097D01*
G01X7107409Y333006D01*
G01X7110136Y332703D01*
G01X7116197Y332097D01*
G01X7121651Y330885D01*
G01X7124378Y329976D01*
G01X7127106Y328764D01*
G01X7129227Y327855D01*
G01X7131045Y326945D01*
G01X7135591Y323915D01*
G01X7138621Y321491D01*
G01X7142257Y317855D01*
G01X7145894Y313309D01*
G01X7147106Y311188D01*
G01X7148621Y308764D01*
G01X7149833Y306643D01*
G01X7151045Y304218D01*
G01X7152257Y301491D01*
G01X7153470Y298461D01*
G01X7154682Y294824D01*
G01X7155894Y290885D01*
G01X7156803Y287249D01*
G01X7158015Y281188D01*
G01X7158621Y277552D01*
G01X7159227Y273309D01*
G01X7159530Y269067D01*
G01X7159833Y266037D01*
G01X7160136Y256339D01*
G01X7159833Y246642D01*
G01X7159227Y239976D01*
G01X7158621Y235733D01*
G01X7157409Y229673D01*
G01X7156803Y227248D01*
G01X7154076Y219067D01*
G01X7152864Y216339D01*
G01X7150439Y211491D01*
G01X7149227Y209370D01*
G01X7147712Y207249D01*
G01X7145894Y205127D01*
G01X7143470Y202097D01*
G01X7141954Y200582D01*
G01X7139833Y198764D01*
G01X7135591Y195733D01*
G01X7132560Y193915D01*
G01X7129833Y192703D01*
G01X7127712Y191794D01*
G37*
G36*
G01X7122560Y246339D02*
G01X7095288Y246339D01*
G01X7095288Y275430D01*
G01X7122560Y275430D01*
G01X7122560Y246339D01*
G37*
G36*
G01X7498015Y311491D02*
G01X7497712Y259067D01*
G01X7497712Y207552D01*
G01X7536500Y207552D01*
G01X7536500Y191188D01*
G01X7443773Y191188D01*
G01X7443773Y207552D01*
G01X7478924Y207552D01*
G01X7478924Y330582D01*
G01X7490136Y330582D01*
G01X7501955Y329976D01*
G01X7504076Y328461D01*
G01X7510136Y324824D01*
G01X7519833Y318764D01*
G01X7522864Y316946D01*
G01X7532561Y310885D01*
G01X7535288Y309067D01*
G01X7536197Y305506D01*
G01X7536500Y296643D01*
G01X7536273Y288158D01*
G01X7535591Y285733D01*
G01X7533167Y287552D01*
G01X7530136Y289673D01*
G01X7515288Y300279D01*
G01X7513773Y301491D01*
G01X7501045Y310582D01*
G01X7499227Y311794D01*
G01X7498470Y312021D01*
G01X7498015Y311491D01*
G37*
G36*
G01X7264682Y203006D02*
G01X7267409Y194824D01*
G01X7268621Y191794D01*
G01X7271045Y184521D01*
G01X7271651Y182703D01*
G01X7256500Y182703D01*
G01X7254682Y188158D01*
G01X7253470Y191188D01*
G01X7251651Y196642D01*
G01X7249833Y201491D01*
G01X7247106Y209673D01*
G01X7245288Y214521D01*
G01X7243470Y219976D01*
G01X7241651Y224824D01*
G01X7238924Y233006D01*
G01X7237712Y236036D01*
G01X7235288Y243309D01*
G01X7234076Y246339D01*
G01X7231348Y254521D01*
G01X7229530Y259370D01*
G01X7227712Y264824D01*
G01X7225894Y269673D01*
G01X7223166Y277855D01*
G01X7221954Y280885D01*
G01X7219530Y288158D01*
G01X7218318Y291188D01*
G01X7216500Y296643D01*
G01X7214682Y301491D01*
G01X7211954Y309673D01*
G01X7210136Y314521D01*
G01X7208318Y319976D01*
G01X7206500Y324824D01*
G01X7203772Y333006D01*
G01X7202560Y336036D01*
G01X7201954Y338461D01*
G01X7209530Y339067D01*
G01X7217106Y339067D01*
G01X7217409Y337552D01*
G01X7219227Y332097D01*
G01X7221045Y327249D01*
G01X7223772Y319067D01*
G01X7224985Y316036D01*
G01X7227409Y308764D01*
G01X7228621Y305733D01*
G01X7231348Y297552D01*
G01X7233166Y292703D01*
G01X7234985Y287249D01*
G01X7236803Y282400D01*
G01X7239530Y274218D01*
G01X7240742Y271188D01*
G01X7243167Y263915D01*
G01X7244379Y260885D01*
G01X7247106Y252703D01*
G01X7248924Y247855D01*
G01X7251651Y239673D01*
G01X7252864Y236642D01*
G01X7255288Y229370D01*
G01X7256500Y226339D01*
G01X7259227Y218158D01*
G01X7261045Y213309D01*
G01X7262864Y207855D01*
G01X7264682Y203006D01*
G37*
G36*
G01X7389530Y207249D02*
G01X7399227Y206642D01*
G01X7404682Y206339D01*
G01X7409227Y206339D01*
G01X7409227Y188764D01*
G01X7403167Y188764D01*
G01X7396197Y189067D01*
G01X7387106Y189673D01*
G01X7381651Y190279D01*
G01X7376803Y190885D01*
G01X7369530Y192097D01*
G01X7366500Y193006D01*
G01X7362561Y193915D01*
G01X7359833Y194521D01*
G01X7353470Y196642D01*
G01X7350439Y197855D01*
G01X7348015Y198764D01*
G01X7345894Y199673D01*
G01X7341045Y202097D01*
G01X7336197Y205127D01*
G01X7334379Y206339D01*
G01X7331348Y208764D01*
G01X7325288Y214824D01*
G01X7324076Y216339D01*
G01X7323166Y217855D01*
G01X7321954Y219673D01*
G01X7320742Y221794D01*
G01X7319530Y224218D01*
G01X7318318Y227551D01*
G01X7317409Y230885D01*
G01X7316803Y233915D01*
G01X7316500Y237248D01*
G01X7316197Y239976D01*
G01X7315894Y242400D01*
G01X7316197Y244824D01*
G01X7316803Y249067D01*
G01X7317712Y252097D01*
G01X7318924Y255430D01*
G01X7320439Y258158D01*
G01X7321954Y260582D01*
G01X7323773Y263006D01*
G01X7325894Y265127D01*
G01X7328924Y267552D01*
G01X7331045Y269067D01*
G01X7333772Y270885D01*
G01X7336803Y272400D01*
G01X7339833Y273612D01*
G01X7343167Y274824D01*
G01X7347106Y276037D01*
G01X7351348Y276946D01*
G01X7354379Y277552D01*
G01X7357712Y278158D01*
G01X7359454Y278612D01*
G01X7359833Y279370D01*
G01X7358621Y280885D01*
G01X7354076Y285430D01*
G01X7351045Y287855D01*
G01X7341954Y296946D01*
G01X7337712Y300582D01*
G01X7327106Y311188D01*
G01X7326424Y313991D01*
G01X7326197Y321188D01*
G01X7326197Y330582D01*
G01X7409227Y330582D01*
G01X7409227Y314218D01*
G01X7377409Y314218D01*
G01X7353621Y313991D01*
G01X7345894Y313309D01*
G01X7347106Y311794D01*
G01X7349530Y309976D01*
G01X7353167Y306339D01*
G01X7355591Y304521D01*
G01X7359227Y300885D01*
G01X7362258Y298461D01*
G01X7366803Y293915D01*
G01X7369833Y291491D01*
G01X7372864Y288461D01*
G01X7376500Y285430D01*
G01X7379530Y282400D01*
G01X7383167Y279370D01*
G01X7384682Y277855D01*
G01X7385894Y276340D01*
G01X7385591Y274218D01*
G01X7382864Y266946D01*
G01X7381955Y264824D01*
G01X7379985Y264142D01*
G01X7375288Y263915D01*
G01X7368318Y263612D01*
G01X7362258Y263006D01*
G01X7355591Y261794D01*
G01X7349227Y259673D01*
G01X7346197Y258158D01*
G01X7343773Y256642D01*
G01X7341954Y255127D01*
G01X7340439Y253612D01*
G01X7338621Y251491D01*
G01X7337106Y248461D01*
G01X7335894Y244824D01*
G01X7335288Y238461D01*
G01X7335591Y233309D01*
G01X7336500Y230885D01*
G01X7338015Y227855D01*
G01X7340136Y224824D01*
G01X7343773Y221188D01*
G01X7345591Y219673D01*
G01X7348015Y218158D01*
G01X7350742Y216642D01*
G01X7353167Y215430D01*
G01X7355894Y214218D01*
G01X7358924Y213006D01*
G01X7361652Y212097D01*
G01X7364076Y211491D01*
G01X7367106Y210582D01*
G01X7371652Y209673D01*
G01X7374985Y209067D01*
G01X7378621Y208461D01*
G01X7383470Y207855D01*
G01X7387106Y207552D01*
G01X7389530Y207249D01*
G37*
G36*
G01X6512257Y214521D02*
G01X6514378Y212703D01*
G01X6516500Y210582D01*
G01X6517106Y200279D01*
G01X6517106Y191188D01*
G01X6419530Y191188D01*
G01X6419530Y207552D01*
G01X6457408Y207552D01*
G01X6485742Y207779D01*
G01X6494984Y208461D01*
G01X6493469Y209976D01*
G01X6491651Y211491D01*
G01X6470439Y228461D01*
G01X6466802Y231491D01*
G01X6451651Y243612D01*
G01X6448015Y246642D01*
G01X6437409Y257249D01*
G01X6434378Y260885D01*
G01X6433166Y262400D01*
G01X6432257Y263915D01*
G01X6430742Y266037D01*
G01X6429227Y268461D01*
G01X6426802Y273309D01*
G01X6425590Y276037D01*
G01X6424378Y279067D01*
G01X6423469Y282400D01*
G01X6422863Y285430D01*
G01X6422257Y289067D01*
G01X6421954Y295430D01*
G01X6422257Y299976D01*
G01X6422863Y303006D01*
G01X6423772Y306339D01*
G01X6424681Y309067D01*
G01X6425590Y311491D01*
G01X6427106Y313915D01*
G01X6429227Y316946D01*
G01X6431348Y319370D01*
G01X6433166Y320885D01*
G01X6434681Y322400D01*
G01X6436196Y323612D01*
G01X6437712Y324521D01*
G01X6439530Y325733D01*
G01X6441651Y326945D01*
G01X6445893Y328764D01*
G01X6448318Y329673D01*
G01X6453166Y330885D01*
G01X6456196Y331491D01*
G01X6459833Y332097D01*
G01X6463772Y332400D01*
G01X6466499Y332703D01*
G01X6469530Y333006D01*
G01X6472560Y332703D01*
G01X6481651Y332097D01*
G01X6488924Y330885D01*
G01X6493772Y329673D01*
G01X6496499Y328764D01*
G01X6499530Y327855D01*
G01X6501954Y326945D01*
G01X6508015Y324521D01*
G01X6509530Y323006D01*
G01X6509833Y313612D01*
G01X6509833Y305127D01*
G01X6508318Y306036D01*
G01X6502863Y308764D01*
G01X6500136Y309976D01*
G01X6497105Y311188D01*
G01X6493772Y312400D01*
G01X6489530Y313612D01*
G01X6485287Y314521D01*
G01X6482257Y315127D01*
G01X6476802Y315733D01*
G01X6471651Y316036D01*
G01X6466499Y315733D01*
G01X6461045Y315127D01*
G01X6458015Y314218D01*
G01X6454378Y313006D01*
G01X6451954Y311794D01*
G01X6449530Y310279D01*
G01X6447408Y308461D01*
G01X6446196Y306946D01*
G01X6444681Y304824D01*
G01X6443166Y301794D01*
G01X6441954Y298158D01*
G01X6441348Y290885D01*
G01X6441651Y284824D01*
G01X6442257Y282400D01*
G01X6443166Y279673D01*
G01X6444378Y276946D01*
G01X6445590Y274824D01*
G01X6448621Y270582D01*
G01X6449833Y269067D01*
G01X6460439Y258461D01*
G01X6463469Y256036D01*
G01X6464984Y254521D01*
G01X6472257Y248461D01*
G01X6480742Y241188D01*
G01X6484378Y238158D01*
G01X6488621Y234521D01*
G01X6492257Y231491D01*
G01X6500742Y224218D01*
G01X6504378Y221188D01*
G01X6508621Y217552D01*
G01X6512257Y214521D01*
G37*
G36*
G01X6615591Y191794D02*
G01X6612560Y190885D01*
G01X6610136Y190279D01*
G01X6602863Y189067D01*
G01X6599227Y188764D01*
G01X6595590Y189067D01*
G01X6589530Y189673D01*
G01X6586499Y190279D01*
G01X6583166Y191188D01*
G01X6578318Y193006D01*
G01X6575590Y194218D01*
G01X6573469Y195430D01*
G01X6571651Y196642D01*
G01X6569833Y198158D01*
G01X6566802Y200582D01*
G01X6563772Y203612D01*
G01X6560136Y208158D01*
G01X6558621Y210279D01*
G01X6556802Y213309D01*
G01X6554075Y218764D01*
G01X6552863Y221491D01*
G01X6551651Y224521D01*
G01X6550742Y227248D01*
G01X6550136Y229673D01*
G01X6549227Y232400D01*
G01X6548318Y236642D01*
G01X6547712Y239976D01*
G01X6547106Y243612D01*
G01X6546499Y247855D01*
G01X6546196Y251491D01*
G01X6545893Y254521D01*
G01X6545742Y259976D01*
G01X6564378Y259976D01*
G01X6564681Y244824D01*
G01X6565287Y238764D01*
G01X6565893Y234521D01*
G01X6567105Y228461D01*
G01X6569227Y222097D01*
G01X6570742Y219067D01*
G01X6572560Y216339D01*
G01X6574378Y214218D01*
G01X6575893Y212703D01*
G01X6577408Y211491D01*
G01X6581651Y209370D01*
G01X6584378Y208158D01*
G01X6588015Y207249D01*
G01X6588015Y207249D01*
G01X6591348Y206642D01*
G01X6597409Y206339D01*
G01X6602863Y206642D01*
G01X6604984Y206945D01*
G01X6607712Y207249D01*
G01X6610136Y208158D01*
G01X6613166Y209370D01*
G01X6615287Y210582D01*
G01X6616803Y211794D01*
G01X6619833Y214824D01*
G01X6621045Y216339D01*
G01X6621954Y217855D01*
G01X6623166Y219976D01*
G01X6624378Y222703D01*
G01X6625287Y225430D01*
G01X6626500Y230279D01*
G01X6627106Y233309D01*
G01X6627712Y236945D01*
G01X6628318Y241794D01*
G01X6628621Y246642D01*
G01X6628924Y249673D01*
G01X6629227Y261491D01*
G01X6628924Y273309D01*
G01X6628318Y281188D01*
G01X6627712Y286037D01*
G01X6626500Y292703D01*
G01X6625591Y295733D01*
G01X6624378Y299067D01*
G01X6623166Y301794D01*
G01X6621651Y304521D01*
G01X6620136Y306643D01*
G01X6617106Y309673D01*
G01X6615591Y310885D01*
G01X6611348Y313006D01*
G01X6608015Y314218D01*
G01X6603469Y315127D01*
G01X6594984Y315430D01*
G01X6588318Y315127D01*
G01X6585893Y314521D01*
G01X6583166Y313612D01*
G01X6580439Y312400D01*
G01X6577408Y310582D01*
G01X6573772Y306946D01*
G01X6572257Y305127D01*
G01X6571045Y303006D01*
G01X6569833Y300582D01*
G01X6568621Y297552D01*
G01X6567712Y294218D01*
G01X6567105Y291491D01*
G01X6566499Y289067D01*
G01X6565893Y286037D01*
G01X6565590Y283309D01*
G01X6565287Y281188D01*
G01X6564681Y275127D01*
G01X6564378Y259976D01*
G01X6545742Y259976D01*
G01X6545590Y265430D01*
G01X6545893Y276340D01*
G01X6546499Y282400D01*
G01X6547106Y286643D01*
G01X6548318Y292703D01*
G01X6549227Y295733D01*
G01X6550439Y299673D01*
G01X6551651Y302703D01*
G01X6552560Y305127D01*
G01X6553469Y307249D01*
G01X6554681Y309370D01*
G01X6557712Y314218D01*
G01X6559227Y316036D01*
G01X6561651Y319067D01*
G01X6564681Y322097D01*
G01X6567712Y324521D01*
G01X6569530Y325733D01*
G01X6571954Y327249D01*
G01X6574984Y328764D01*
G01X6578015Y329976D01*
G01X6581348Y330885D01*
G01X6584075Y331491D01*
G01X6587105Y332097D01*
G01X6590742Y332400D01*
G01X6595590Y333006D01*
G01X6598015Y332703D01*
G01X6604075Y332097D01*
G01X6607106Y331491D01*
G01X6610439Y330582D01*
G01X6615287Y328764D01*
G01X6617712Y327552D01*
G01X6619833Y326339D01*
G01X6622257Y324824D01*
G01X6624378Y323309D01*
G01X6625894Y322097D01*
G01X6630439Y317552D01*
G01X6632257Y315127D01*
G01X6634378Y312400D01*
G01X6635894Y309976D01*
G01X6637106Y307855D01*
G01X6639530Y303006D01*
G01X6640742Y300279D01*
G01X6641954Y297249D01*
G01X6642863Y294521D01*
G01X6643469Y292097D01*
G01X6644378Y289370D01*
G01X6645287Y285127D01*
G01X6645893Y281794D01*
G01X6646500Y278158D01*
G01X6647106Y273915D01*
G01X6647409Y270279D01*
G01X6647712Y267249D01*
G01X6648015Y256036D01*
G01X6647712Y244824D01*
G01X6647106Y238764D01*
G01X6646500Y234521D01*
G01X6645287Y229067D01*
G01X6644378Y226036D01*
G01X6643166Y222097D01*
G01X6641954Y218764D01*
G01X6640742Y215733D01*
G01X6639530Y213309D01*
G01X6638015Y210885D01*
G01X6636197Y207855D01*
G01X6634378Y205733D01*
G01X6631954Y202703D01*
G01X6628924Y199673D01*
G01X6625894Y197249D01*
G01X6624075Y196036D01*
G01X6621651Y194521D01*
G01X6618621Y193006D01*
G01X6615591Y191794D01*
G37*
G36*
G01X6610439Y246339D02*
G01X6583166Y246339D01*
G01X6583166Y275430D01*
G01X6610439Y275430D01*
G01X6610439Y246339D01*
G37*
G36*
G01X6771045Y212097D02*
G01X6772560Y210582D01*
G01X6773242Y207779D01*
G01X6773469Y200582D01*
G01X6773469Y191188D01*
G01X6675893Y191188D01*
G01X6675893Y207552D01*
G01X6713469Y207552D01*
G01X6741575Y207779D01*
G01X6750742Y208461D01*
G01X6749530Y209976D01*
G01X6747106Y211794D01*
G01X6710742Y240885D01*
G01X6708621Y242703D01*
G01X6707106Y243915D01*
G01X6705590Y245430D01*
G01X6701954Y248461D01*
G01X6694378Y256036D01*
G01X6691954Y259067D01*
G01X6690439Y260885D01*
G01X6689227Y262703D01*
G01X6688015Y264218D01*
G01X6686499Y266340D01*
G01X6684984Y269067D01*
G01X6682560Y273915D01*
G01X6681348Y276643D01*
G01X6680439Y279067D01*
G01X6679833Y281188D01*
G01X6678621Y286643D01*
G01X6678015Y292703D01*
G01X6677712Y295127D01*
G01X6678015Y297552D01*
G01X6678621Y303006D01*
G01X6680742Y309370D01*
G01X6681954Y312097D01*
G01X6683469Y314521D01*
G01X6685590Y317552D01*
G01X6689227Y321188D01*
G01X6691045Y322703D01*
G01X6692863Y323915D01*
G01X6694984Y325430D01*
G01X6700439Y328158D01*
G01X6702863Y329067D01*
G01X6705590Y329976D01*
G01X6708924Y330885D01*
G01X6711954Y331491D01*
G01X6715591Y332097D01*
G01X6719833Y332400D01*
G01X6722257Y332703D01*
G01X6725591Y333006D01*
G01X6728924Y332703D01*
G01X6737409Y332097D01*
G01X6744681Y330885D01*
G01X6747409Y330279D01*
G01X6756500Y327552D01*
G01X6762560Y325127D01*
G01X6764984Y323915D01*
G01X6765894Y321188D01*
G01X6766197Y314218D01*
G01X6766197Y305127D01*
G01X6764681Y305733D01*
G01X6757409Y309370D01*
G01X6754681Y310582D01*
G01X6751651Y311794D01*
G01X6748924Y312703D01*
G01X6746500Y313309D01*
G01X6743469Y314218D01*
G01X6740136Y314824D01*
G01X6738015Y315127D01*
G01X6733166Y315733D01*
G01X6727712Y316036D01*
G01X6722257Y315733D01*
G01X6717409Y315127D01*
G01X6714984Y314521D01*
G01X6712257Y313612D01*
G01X6709833Y312703D01*
G01X6707409Y311491D01*
G01X6705287Y309976D01*
G01X6702257Y306946D01*
G01X6700742Y304824D01*
G01X6699530Y302400D01*
G01X6698318Y299370D01*
G01X6697409Y294521D01*
G01X6697105Y289370D01*
G01X6697409Y286037D01*
G01X6698015Y283309D01*
G01X6698924Y280279D01*
G01X6700136Y277552D01*
G01X6701651Y274824D01*
G01X6703469Y272097D01*
G01X6705287Y269976D01*
G01X6708318Y266340D01*
G01X6714378Y260279D01*
G01X6717409Y257855D01*
G01X6718924Y256339D01*
G01X6723166Y252703D01*
G01X6726803Y249673D01*
G01X6731045Y246036D01*
G01X6734681Y243006D01*
G01X6743166Y235733D01*
G01X6746803Y232703D01*
G01X6751045Y229067D01*
G01X6754681Y226036D01*
G01X6763166Y218764D01*
G01X6766803Y215733D01*
G01X6771045Y212097D01*
G37*
G54D10*
G01X2951480Y5517134D02*
G01X2951480Y5452110D01*
G01X2951480Y5517134D02*
G01X2923540Y5517134D01*
G01X2914396Y5514086D01*
G01X2911348Y5511038D01*
G01X2908046Y5504942D01*
G01X2908046Y5498592D01*
G01X2911348Y5492496D01*
G01X2914396Y5489448D01*
G01X2923540Y5486146D01*
G01X2951480Y5486146D01*
G01X2929890Y5486146D02*
G01X2908046Y5452110D01*
G01X2874772Y5501640D02*
G01X2874772Y5504942D01*
G01X2871724Y5511038D01*
G01X2868676Y5514086D01*
G01X2862580Y5517134D01*
G01X2850134Y5517134D01*
G01X2844038Y5514086D01*
G01X2840736Y5511038D01*
G01X2837688Y5504942D01*
G01X2837688Y5498592D01*
G01X2840736Y5492496D01*
G01X2847086Y5483098D01*
G01X2878074Y5452110D01*
G01X2834640Y5452110D01*
G01X2804668Y5504942D02*
G01X2798318Y5507990D01*
G01X2789174Y5517134D01*
G01X2789174Y5452110D01*
G01X2676398Y3647440D02*
G01X2679446Y3653790D01*
G01X2685796Y3659886D01*
G01X2691892Y3662934D01*
G01X2704338Y3662934D01*
G01X2710434Y3659886D01*
G01X2716784Y3653790D01*
G01X2719832Y3647440D01*
G01X2722880Y3638296D01*
G01X2722880Y3622802D01*
G01X2719832Y3613404D01*
G01X2716784Y3607308D01*
G01X2710434Y3600958D01*
G01X2704338Y3597910D01*
G01X2691892Y3597910D01*
G01X2685796Y3600958D01*
G01X2679446Y3607308D01*
G01X2676398Y3613404D01*
G01X2643124Y3647440D02*
G01X2643124Y3650742D01*
G01X2640076Y3656838D01*
G01X2637028Y3659886D01*
G01X2630932Y3662934D01*
G01X2618486Y3662934D01*
G01X2612390Y3659886D01*
G01X2609088Y3656838D01*
G01X2606040Y3650742D01*
G01X2606040Y3644392D01*
G01X2609088Y3638296D01*
G01X2615438Y3628898D01*
G01X2646426Y3597910D01*
G01X2602992Y3597910D01*
G01X2569718Y3647440D02*
G01X2569718Y3650742D01*
G01X2566670Y3656838D01*
G01X2563622Y3659886D01*
G01X2557526Y3662934D01*
G01X2545080Y3662934D01*
G01X2538984Y3659886D01*
G01X2535682Y3656838D01*
G01X2532634Y3650742D01*
G01X2532634Y3644392D01*
G01X2535682Y3638296D01*
G01X2542032Y3628898D01*
G01X2573020Y3597910D01*
G01X2529586Y3597910D01*
G01X3082798Y3647440D02*
G01X3085846Y3653790D01*
G01X3092196Y3659886D01*
G01X3098292Y3662934D01*
G01X3110738Y3662934D01*
G01X3116834Y3659886D01*
G01X3123184Y3653790D01*
G01X3126232Y3647440D01*
G01X3129280Y3638296D01*
G01X3129280Y3622802D01*
G01X3126232Y3613404D01*
G01X3123184Y3607308D01*
G01X3116834Y3600958D01*
G01X3110738Y3597910D01*
G01X3098292Y3597910D01*
G01X3092196Y3600958D01*
G01X3085846Y3607308D01*
G01X3082798Y3613404D01*
G01X3049524Y3647440D02*
G01X3049524Y3650742D01*
G01X3046476Y3656838D01*
G01X3043428Y3659886D01*
G01X3037332Y3662934D01*
G01X3024886Y3662934D01*
G01X3018790Y3659886D01*
G01X3015488Y3656838D01*
G01X3012440Y3650742D01*
G01X3012440Y3644392D01*
G01X3015488Y3638296D01*
G01X3021838Y3628898D01*
G01X3052826Y3597910D01*
G01X3009392Y3597910D01*
G01X2973070Y3662934D02*
G01X2939034Y3662934D01*
G01X2957576Y3638296D01*
G01X2948432Y3638296D01*
G01X2942082Y3635248D01*
G01X2939034Y3631946D01*
G01X2935986Y3622802D01*
G01X2935986Y3616452D01*
G01X2939034Y3607308D01*
G01X2945384Y3600958D01*
G01X2954528Y3597910D01*
G01X2963926Y3597910D01*
G01X2973070Y3600958D01*
G01X2976118Y3604260D01*
G01X2979420Y3610356D01*
G01X3647440Y2860802D02*
G01X3653790Y2857754D01*
G01X3659886Y2851404D01*
G01X3662934Y2845308D01*
G01X3662934Y2832862D01*
G01X3659886Y2826766D01*
G01X3653790Y2820416D01*
G01X3647440Y2817368D01*
G01X3638296Y2814320D01*
G01X3622802Y2814320D01*
G01X3613404Y2817368D01*
G01X3607308Y2820416D01*
G01X3600958Y2826766D01*
G01X3597910Y2832862D01*
G01X3597910Y2845308D01*
G01X3600958Y2851404D01*
G01X3607308Y2857754D01*
G01X3613404Y2860802D01*
G01X3647440Y2894076D02*
G01X3650742Y2894076D01*
G01X3656838Y2897124D01*
G01X3659886Y2900172D01*
G01X3662934Y2906268D01*
G01X3662934Y2918714D01*
G01X3659886Y2924810D01*
G01X3656838Y2928112D01*
G01X3650742Y2931160D01*
G01X3644392Y2931160D01*
G01X3638296Y2928112D01*
G01X3628898Y2921762D01*
G01X3597910Y2890774D01*
G01X3597910Y2934208D01*
G01X3662934Y3001518D02*
G01X3662934Y2970530D01*
G01X3635248Y2967482D01*
G01X3638296Y2970530D01*
G01X3641344Y2979674D01*
G01X3641344Y2989072D01*
G01X3638296Y2998216D01*
G01X3631946Y3004566D01*
G01X3622802Y3007614D01*
G01X3616452Y3007614D01*
G01X3607308Y3004566D01*
G01X3600958Y2998216D01*
G01X3597910Y2989072D01*
G01X3597910Y2979674D01*
G01X3600958Y2970530D01*
G01X3604260Y2967482D01*
G01X3610356Y2964180D01*
G01X4772358Y1923034D02*
G01X4772358Y1858010D01*
G01X4772358Y1923034D02*
G01X4744418Y1923034D01*
G01X4735274Y1919986D01*
G01X4732226Y1916938D01*
G01X4728924Y1910842D01*
G01X4728924Y1904492D01*
G01X4732226Y1898396D01*
G01X4735274Y1895348D01*
G01X4744418Y1892046D01*
G01X4772358Y1892046D01*
G01X4750768Y1892046D02*
G01X4728924Y1858010D01*
G01X4698952Y1910842D02*
G01X4692602Y1913890D01*
G01X4683458Y1923034D01*
G01X4683458Y1858010D01*
G01X4616148Y1913890D02*
G01X4619450Y1919986D01*
G01X4628594Y1923034D01*
G01X4634690Y1923034D01*
G01X4644088Y1919986D01*
G01X4650184Y1910842D01*
G01X4653486Y1895348D01*
G01X4653486Y1879854D01*
G01X4650184Y1867408D01*
G01X4644088Y1861058D01*
G01X4634690Y1858010D01*
G01X4631642Y1858010D01*
G01X4622498Y1861058D01*
G01X4616148Y1867408D01*
G01X4613100Y1876552D01*
G01X4613100Y1879854D01*
G01X4616148Y1888998D01*
G01X4622498Y1895348D01*
G01X4631642Y1898396D01*
G01X4634690Y1898396D01*
G01X4644088Y1895348D01*
G01X4650184Y1888998D01*
G01X4653486Y1879854D01*
G01X4772406Y1669034D02*
G01X4772406Y1604010D01*
G01X4772406Y1669034D02*
G01X4744466Y1669034D01*
G01X4735322Y1665986D01*
G01X4732274Y1662938D01*
G01X4728972Y1656842D01*
G01X4728972Y1650492D01*
G01X4732274Y1644396D01*
G01X4735322Y1641348D01*
G01X4744466Y1638046D01*
G01X4772406Y1638046D01*
G01X4750816Y1638046D02*
G01X4728972Y1604010D01*
G01X4699000Y1656842D02*
G01X4692650Y1659890D01*
G01X4683506Y1669034D01*
G01X4683506Y1604010D01*
G01X4610100Y1669034D02*
G01X4641088Y1604010D01*
G01X4653534Y1669034D02*
G01X4610100Y1669034D01*
G01X4772406Y2432434D02*
G01X4772406Y2367410D01*
G01X4772406Y2432434D02*
G01X4744466Y2432434D01*
G01X4735322Y2429386D01*
G01X4732274Y2426338D01*
G01X4728972Y2420242D01*
G01X4728972Y2413892D01*
G01X4732274Y2407796D01*
G01X4735322Y2404748D01*
G01X4744466Y2401446D01*
G01X4772406Y2401446D01*
G01X4750816Y2401446D02*
G01X4728972Y2367410D01*
G01X4699000Y2420242D02*
G01X4692650Y2423290D01*
G01X4683506Y2432434D01*
G01X4683506Y2367410D01*
G01X4638040Y2432434D02*
G01X4647184Y2429386D01*
G01X4650232Y2423290D01*
G01X4650232Y2416940D01*
G01X4647184Y2410844D01*
G01X4641088Y2407796D01*
G01X4628642Y2404748D01*
G01X4619498Y2401446D01*
G01X4613148Y2395350D01*
G01X4610100Y2389254D01*
G01X4610100Y2379856D01*
G01X4613148Y2373760D01*
G01X4616196Y2370458D01*
G01X4625594Y2367410D01*
G01X4638040Y2367410D01*
G01X4647184Y2370458D01*
G01X4650232Y2373760D01*
G01X4653534Y2379856D01*
G01X4653534Y2389254D01*
G01X4650232Y2395350D01*
G01X4644136Y2401446D01*
G01X4634738Y2404748D01*
G01X4622546Y2407796D01*
G01X4616196Y2410844D01*
G01X4613148Y2416940D01*
G01X4613148Y2423290D01*
G01X4616196Y2429386D01*
G01X4625594Y2432434D01*
G01X4638040Y2432434D01*
G01X4772358Y2169734D02*
G01X4772358Y2104710D01*
G01X4772358Y2169734D02*
G01X4744418Y2169734D01*
G01X4735274Y2166686D01*
G01X4732226Y2163638D01*
G01X4728924Y2157542D01*
G01X4728924Y2151192D01*
G01X4732226Y2145096D01*
G01X4735274Y2142048D01*
G01X4744418Y2138746D01*
G01X4772358Y2138746D01*
G01X4750768Y2138746D02*
G01X4728924Y2104710D01*
G01X4698952Y2157542D02*
G01X4692602Y2160590D01*
G01X4683458Y2169734D01*
G01X4683458Y2104710D01*
G01X4613100Y2148144D02*
G01X4616148Y2138746D01*
G01X4622498Y2132650D01*
G01X4631642Y2129602D01*
G01X4634690Y2129602D01*
G01X4644088Y2132650D01*
G01X4650184Y2138746D01*
G01X4653486Y2148144D01*
G01X4653486Y2151192D01*
G01X4650184Y2160590D01*
G01X4644088Y2166686D01*
G01X4634690Y2169734D01*
G01X4631642Y2169734D01*
G01X4622498Y2166686D01*
G01X4616148Y2160590D01*
G01X4613100Y2148144D01*
G01X4613100Y2132650D01*
G01X4616148Y2117156D01*
G01X4622498Y2107758D01*
G01X4631642Y2104710D01*
G01X4637992Y2104710D01*
G01X4647136Y2107758D01*
G01X4650184Y2114108D01*
G01X4772423Y1410068D02*
G01X4772423Y1345044D01*
G01X4772423Y1410068D02*
G01X4744483Y1410068D01*
G01X4735339Y1407020D01*
G01X4732291Y1403972D01*
G01X4728989Y1397876D01*
G01X4728989Y1391526D01*
G01X4732291Y1385430D01*
G01X4735339Y1382382D01*
G01X4744483Y1379080D01*
G01X4772423Y1379080D01*
G01X4750833Y1379080D02*
G01X4728989Y1345044D01*
G01X4695715Y1394574D02*
G01X4695715Y1397876D01*
G01X4692667Y1403972D01*
G01X4689619Y1407020D01*
G01X4683523Y1410068D01*
G01X4671077Y1410068D01*
G01X4664981Y1407020D01*
G01X4661679Y1403972D01*
G01X4658631Y1397876D01*
G01X4658631Y1391526D01*
G01X4661679Y1385430D01*
G01X4668029Y1376032D01*
G01X4699017Y1345044D01*
G01X4655583Y1345044D01*
G01X4606815Y1410068D02*
G01X4616213Y1407020D01*
G01X4622309Y1397876D01*
G01X4625611Y1382382D01*
G01X4625611Y1372984D01*
G01X4622309Y1357490D01*
G01X4616213Y1348092D01*
G01X4606815Y1345044D01*
G01X4600719Y1345044D01*
G01X4591575Y1348092D01*
G01X4585225Y1357490D01*
G01X4582177Y1372984D01*
G01X4582177Y1382382D01*
G01X4585225Y1397876D01*
G01X4591575Y1407020D01*
G01X4600719Y1410068D01*
G01X4606815Y1410068D01*
G01X2901240Y1474102D02*
G01X2907590Y1471054D01*
G01X2913686Y1464704D01*
G01X2916734Y1458608D01*
G01X2916734Y1446162D01*
G01X2913686Y1440066D01*
G01X2907590Y1433716D01*
G01X2901240Y1430668D01*
G01X2892096Y1427620D01*
G01X2876602Y1427620D01*
G01X2867204Y1430668D01*
G01X2861108Y1433716D01*
G01X2854758Y1440066D01*
G01X2851710Y1446162D01*
G01X2851710Y1458608D01*
G01X2854758Y1464704D01*
G01X2861108Y1471054D01*
G01X2867204Y1474102D01*
G01X2916734Y1510424D02*
G01X2916734Y1544460D01*
G01X2892096Y1525918D01*
G01X2892096Y1535062D01*
G01X2889048Y1541412D01*
G01X2885746Y1544460D01*
G01X2876602Y1547508D01*
G01X2870252Y1547508D01*
G01X2861108Y1544460D01*
G01X2854758Y1538110D01*
G01X2851710Y1528966D01*
G01X2851710Y1519568D01*
G01X2854758Y1510424D01*
G01X2858060Y1507376D01*
G01X2864156Y1504074D01*
G01X2901240Y1580782D02*
G01X2904542Y1580782D01*
G01X2910638Y1583830D01*
G01X2913686Y1586878D01*
G01X2916734Y1592974D01*
G01X2916734Y1605420D01*
G01X2913686Y1611516D01*
G01X2910638Y1614818D01*
G01X2904542Y1617866D01*
G01X2898192Y1617866D01*
G01X2892096Y1614818D01*
G01X2882698Y1608468D01*
G01X2851710Y1577480D01*
G01X2851710Y1620914D01*
G01X3165217Y1075927D02*
G01X3158867Y1078975D01*
G01X3152771Y1085325D01*
G01X3149723Y1091421D01*
G01X3149723Y1103867D01*
G01X3152771Y1109963D01*
G01X3158867Y1116313D01*
G01X3165217Y1119361D01*
G01X3174361Y1122409D01*
G01X3189855Y1122409D01*
G01X3199253Y1119361D01*
G01X3205349Y1116313D01*
G01X3211699Y1109963D01*
G01X3214747Y1103867D01*
G01X3214747Y1091421D01*
G01X3211699Y1085325D01*
G01X3205349Y1078975D01*
G01X3199253Y1075927D01*
G01X3149723Y1039605D02*
G01X3149723Y1005569D01*
G01X3174361Y1024111D01*
G01X3174361Y1014967D01*
G01X3177409Y1008617D01*
G01X3180711Y1005569D01*
G01X3189855Y1002521D01*
G01X3196205Y1002521D01*
G01X3205349Y1005569D01*
G01X3211699Y1011919D01*
G01X3214747Y1021063D01*
G01X3214747Y1030461D01*
G01X3211699Y1039605D01*
G01X3208397Y1042653D01*
G01X3202301Y1045955D01*
G01X3149723Y966199D02*
G01X3149723Y932163D01*
G01X3174361Y950705D01*
G01X3174361Y941561D01*
G01X3177409Y935211D01*
G01X3180711Y932163D01*
G01X3189855Y929115D01*
G01X3196205Y929115D01*
G01X3205349Y932163D01*
G01X3211699Y938513D01*
G01X3214747Y947657D01*
G01X3214747Y957055D01*
G01X3211699Y966199D01*
G01X3208397Y969247D01*
G01X3202301Y972549D01*
G01X2639060Y2195898D02*
G01X2632710Y2198946D01*
G01X2626614Y2205296D01*
G01X2623566Y2211392D01*
G01X2623566Y2223838D01*
G01X2626614Y2229934D01*
G01X2632710Y2236284D01*
G01X2639060Y2239332D01*
G01X2648204Y2242380D01*
G01X2663698Y2242380D01*
G01X2673096Y2239332D01*
G01X2679192Y2236284D01*
G01X2685542Y2229934D01*
G01X2688590Y2223838D01*
G01X2688590Y2211392D01*
G01X2685542Y2205296D01*
G01X2679192Y2198946D01*
G01X2673096Y2195898D01*
G01X2623566Y2159576D02*
G01X2623566Y2125540D01*
G01X2648204Y2144082D01*
G01X2648204Y2134938D01*
G01X2651252Y2128588D01*
G01X2654554Y2125540D01*
G01X2663698Y2122492D01*
G01X2670048Y2122492D01*
G01X2679192Y2125540D01*
G01X2685542Y2131890D01*
G01X2688590Y2141034D01*
G01X2688590Y2150432D01*
G01X2685542Y2159576D01*
G01X2682240Y2162624D01*
G01X2676144Y2165926D01*
G01X2623566Y2061532D02*
G01X2666746Y2092520D01*
G01X2666746Y2046038D01*
G01X2623566Y2061532D02*
G01X2688590Y2061532D01*
G01X2756240Y1474102D02*
G01X2762590Y1471054D01*
G01X2768686Y1464704D01*
G01X2771734Y1458608D01*
G01X2771734Y1446162D01*
G01X2768686Y1440066D01*
G01X2762590Y1433716D01*
G01X2756240Y1430668D01*
G01X2747096Y1427620D01*
G01X2731602Y1427620D01*
G01X2722204Y1430668D01*
G01X2716108Y1433716D01*
G01X2709758Y1440066D01*
G01X2706710Y1446162D01*
G01X2706710Y1458608D01*
G01X2709758Y1464704D01*
G01X2716108Y1471054D01*
G01X2722204Y1474102D01*
G01X2771734Y1510424D02*
G01X2771734Y1544460D01*
G01X2747096Y1525918D01*
G01X2747096Y1535062D01*
G01X2744048Y1541412D01*
G01X2740746Y1544460D01*
G01X2731602Y1547508D01*
G01X2725252Y1547508D01*
G01X2716108Y1544460D01*
G01X2709758Y1538110D01*
G01X2706710Y1528966D01*
G01X2706710Y1519568D01*
G01X2709758Y1510424D01*
G01X2713060Y1507376D01*
G01X2719156Y1504074D01*
G01X2771734Y1614818D02*
G01X2771734Y1583830D01*
G01X2744048Y1580782D01*
G01X2747096Y1583830D01*
G01X2750144Y1592974D01*
G01X2750144Y1602372D01*
G01X2747096Y1611516D01*
G01X2740746Y1617866D01*
G01X2731602Y1620914D01*
G01X2725252Y1620914D01*
G01X2716108Y1617866D01*
G01X2709758Y1611516D01*
G01X2706710Y1602372D01*
G01X2706710Y1592974D01*
G01X2709758Y1583830D01*
G01X2713060Y1580782D01*
G01X2719156Y1577480D01*
G01X2601240Y1474102D02*
G01X2607590Y1471054D01*
G01X2613686Y1464704D01*
G01X2616734Y1458608D01*
G01X2616734Y1446162D01*
G01X2613686Y1440066D01*
G01X2607590Y1433716D01*
G01X2601240Y1430668D01*
G01X2592096Y1427620D01*
G01X2576602Y1427620D01*
G01X2567204Y1430668D01*
G01X2561108Y1433716D01*
G01X2554758Y1440066D01*
G01X2551710Y1446162D01*
G01X2551710Y1458608D01*
G01X2554758Y1464704D01*
G01X2561108Y1471054D01*
G01X2567204Y1474102D01*
G01X2616734Y1510424D02*
G01X2616734Y1544460D01*
G01X2592096Y1525918D01*
G01X2592096Y1535062D01*
G01X2589048Y1541412D01*
G01X2585746Y1544460D01*
G01X2576602Y1547508D01*
G01X2570252Y1547508D01*
G01X2561108Y1544460D01*
G01X2554758Y1538110D01*
G01X2551710Y1528966D01*
G01X2551710Y1519568D01*
G01X2554758Y1510424D01*
G01X2558060Y1507376D01*
G01X2564156Y1504074D01*
G01X2607590Y1614818D02*
G01X2613686Y1611516D01*
G01X2616734Y1602372D01*
G01X2616734Y1596276D01*
G01X2613686Y1586878D01*
G01X2604542Y1580782D01*
G01X2589048Y1577480D01*
G01X2573554Y1577480D01*
G01X2561108Y1580782D01*
G01X2554758Y1586878D01*
G01X2551710Y1596276D01*
G01X2551710Y1599324D01*
G01X2554758Y1608468D01*
G01X2561108Y1614818D01*
G01X2570252Y1617866D01*
G01X2573554Y1617866D01*
G01X2582698Y1614818D01*
G01X2589048Y1608468D01*
G01X2592096Y1599324D01*
G01X2592096Y1596276D01*
G01X2589048Y1586878D01*
G01X2582698Y1580782D01*
G01X2573554Y1577480D01*
G01X2905760Y2195898D02*
G01X2899410Y2198946D01*
G01X2893314Y2205296D01*
G01X2890266Y2211392D01*
G01X2890266Y2223838D01*
G01X2893314Y2229934D01*
G01X2899410Y2236284D01*
G01X2905760Y2239332D01*
G01X2914904Y2242380D01*
G01X2930398Y2242380D01*
G01X2939796Y2239332D01*
G01X2945892Y2236284D01*
G01X2952242Y2229934D01*
G01X2955290Y2223838D01*
G01X2955290Y2211392D01*
G01X2952242Y2205296D01*
G01X2945892Y2198946D01*
G01X2939796Y2195898D01*
G01X2890266Y2159576D02*
G01X2890266Y2125540D01*
G01X2914904Y2144082D01*
G01X2914904Y2134938D01*
G01X2917952Y2128588D01*
G01X2921254Y2125540D01*
G01X2930398Y2122492D01*
G01X2936748Y2122492D01*
G01X2945892Y2125540D01*
G01X2952242Y2131890D01*
G01X2955290Y2141034D01*
G01X2955290Y2150432D01*
G01X2952242Y2159576D01*
G01X2948940Y2162624D01*
G01X2942844Y2165926D01*
G01X2890266Y2049086D02*
G01X2955290Y2080074D01*
G01X2890266Y2092520D02*
G01X2890266Y2049086D01*
G01X2499360Y2195898D02*
G01X2493010Y2198946D01*
G01X2486914Y2205296D01*
G01X2483866Y2211392D01*
G01X2483866Y2223838D01*
G01X2486914Y2229934D01*
G01X2493010Y2236284D01*
G01X2499360Y2239332D01*
G01X2508504Y2242380D01*
G01X2523998Y2242380D01*
G01X2533396Y2239332D01*
G01X2539492Y2236284D01*
G01X2545842Y2229934D01*
G01X2548890Y2223838D01*
G01X2548890Y2211392D01*
G01X2545842Y2205296D01*
G01X2539492Y2198946D01*
G01X2533396Y2195898D01*
G01X2483866Y2159576D02*
G01X2483866Y2125540D01*
G01X2508504Y2144082D01*
G01X2508504Y2134938D01*
G01X2511552Y2128588D01*
G01X2514854Y2125540D01*
G01X2523998Y2122492D01*
G01X2530348Y2122492D01*
G01X2539492Y2125540D01*
G01X2545842Y2131890D01*
G01X2548890Y2141034D01*
G01X2548890Y2150432D01*
G01X2545842Y2159576D01*
G01X2542540Y2162624D01*
G01X2536444Y2165926D01*
G01X2483866Y2077026D02*
G01X2486914Y2086170D01*
G01X2493010Y2089218D01*
G01X2499360Y2089218D01*
G01X2505456Y2086170D01*
G01X2508504Y2080074D01*
G01X2511552Y2067628D01*
G01X2514854Y2058484D01*
G01X2520950Y2052134D01*
G01X2527046Y2049086D01*
G01X2536444Y2049086D01*
G01X2542540Y2052134D01*
G01X2545842Y2055182D01*
G01X2548890Y2064580D01*
G01X2548890Y2077026D01*
G01X2545842Y2086170D01*
G01X2542540Y2089218D01*
G01X2536444Y2092520D01*
G01X2527046Y2092520D01*
G01X2520950Y2089218D01*
G01X2514854Y2083122D01*
G01X2511552Y2073724D01*
G01X2508504Y2061532D01*
G01X2505456Y2055182D01*
G01X2499360Y2052134D01*
G01X2493010Y2052134D01*
G01X2486914Y2055182D01*
G01X2483866Y2064580D01*
G01X2483866Y2077026D01*
G01X2727960Y1075898D02*
G01X2721610Y1078946D01*
G01X2715514Y1085296D01*
G01X2712466Y1091392D01*
G01X2712466Y1103838D01*
G01X2715514Y1109934D01*
G01X2721610Y1116284D01*
G01X2727960Y1119332D01*
G01X2737104Y1122380D01*
G01X2752598Y1122380D01*
G01X2761996Y1119332D01*
G01X2768092Y1116284D01*
G01X2774442Y1109934D01*
G01X2777490Y1103838D01*
G01X2777490Y1091392D01*
G01X2774442Y1085296D01*
G01X2768092Y1078946D01*
G01X2761996Y1075898D01*
G01X2712466Y1039576D02*
G01X2712466Y1005540D01*
G01X2737104Y1024082D01*
G01X2737104Y1014938D01*
G01X2740152Y1008588D01*
G01X2743454Y1005540D01*
G01X2752598Y1002492D01*
G01X2758948Y1002492D01*
G01X2768092Y1005540D01*
G01X2774442Y1011890D01*
G01X2777490Y1021034D01*
G01X2777490Y1030432D01*
G01X2774442Y1039576D01*
G01X2771140Y1042624D01*
G01X2765044Y1045926D01*
G01X2734056Y932134D02*
G01X2743454Y935182D01*
G01X2749550Y941532D01*
G01X2752598Y950676D01*
G01X2752598Y953724D01*
G01X2749550Y963122D01*
G01X2743454Y969218D01*
G01X2734056Y972520D01*
G01X2731008Y972520D01*
G01X2721610Y969218D01*
G01X2715514Y963122D01*
G01X2712466Y953724D01*
G01X2712466Y950676D01*
G01X2715514Y941532D01*
G01X2721610Y935182D01*
G01X2734056Y932134D01*
G01X2749550Y932134D01*
G01X2765044Y935182D01*
G01X2774442Y941532D01*
G01X2777490Y950676D01*
G01X2777490Y957026D01*
G01X2774442Y966170D01*
G01X2768092Y969218D01*
G01X2453760Y1075898D02*
G01X2447410Y1078946D01*
G01X2441314Y1085296D01*
G01X2438266Y1091392D01*
G01X2438266Y1103838D01*
G01X2441314Y1109934D01*
G01X2447410Y1116284D01*
G01X2453760Y1119332D01*
G01X2462904Y1122380D01*
G01X2478398Y1122380D01*
G01X2487796Y1119332D01*
G01X2493892Y1116284D01*
G01X2500242Y1109934D01*
G01X2503290Y1103838D01*
G01X2503290Y1091392D01*
G01X2500242Y1085296D01*
G01X2493892Y1078946D01*
G01X2487796Y1075898D01*
G01X2438266Y1014938D02*
G01X2481446Y1045926D01*
G01X2481446Y999444D01*
G01X2438266Y1014938D02*
G01X2503290Y1014938D01*
G01X2438266Y950676D02*
G01X2441314Y960074D01*
G01X2450458Y966170D01*
G01X2465952Y969472D01*
G01X2475350Y969472D01*
G01X2490844Y966170D01*
G01X2500242Y960074D01*
G01X2503290Y950676D01*
G01X2503290Y944580D01*
G01X2500242Y935436D01*
G01X2490844Y929086D01*
G01X2475350Y926038D01*
G01X2465952Y926038D01*
G01X2450458Y929086D01*
G01X2441314Y935436D01*
G01X2438266Y944580D01*
G01X2438266Y950676D01*
G01X2591260Y1075898D02*
G01X2584910Y1078946D01*
G01X2578814Y1085296D01*
G01X2575766Y1091392D01*
G01X2575766Y1103838D01*
G01X2578814Y1109934D01*
G01X2584910Y1116284D01*
G01X2591260Y1119332D01*
G01X2600404Y1122380D01*
G01X2615898Y1122380D01*
G01X2625296Y1119332D01*
G01X2631392Y1116284D01*
G01X2637742Y1109934D01*
G01X2640790Y1103838D01*
G01X2640790Y1091392D01*
G01X2637742Y1085296D01*
G01X2631392Y1078946D01*
G01X2625296Y1075898D01*
G01X2575766Y1014938D02*
G01X2618946Y1045926D01*
G01X2618946Y999444D01*
G01X2575766Y1014938D02*
G01X2640790Y1014938D01*
G01X2587958Y969472D02*
G01X2584910Y963122D01*
G01X2575766Y953978D01*
G01X2640790Y953978D01*
G01X2910840Y3038602D02*
G01X2917190Y3035554D01*
G01X2923286Y3029204D01*
G01X2926334Y3023108D01*
G01X2926334Y3010662D01*
G01X2923286Y3004566D01*
G01X2917190Y2998216D01*
G01X2910840Y2995168D01*
G01X2901696Y2992120D01*
G01X2886202Y2992120D01*
G01X2876804Y2995168D01*
G01X2870708Y2998216D01*
G01X2864358Y3004566D01*
G01X2861310Y3010662D01*
G01X2861310Y3023108D01*
G01X2864358Y3029204D01*
G01X2870708Y3035554D01*
G01X2876804Y3038602D01*
G01X2926334Y3099562D02*
G01X2883154Y3068574D01*
G01X2883154Y3115056D01*
G01X2926334Y3099562D02*
G01X2861310Y3099562D01*
G01X2910840Y3148330D02*
G01X2914142Y3148330D01*
G01X2920238Y3151378D01*
G01X2923286Y3154426D01*
G01X2926334Y3160522D01*
G01X2926334Y3172968D01*
G01X2923286Y3179064D01*
G01X2920238Y3182366D01*
G01X2914142Y3185414D01*
G01X2907792Y3185414D01*
G01X2901696Y3182366D01*
G01X2892298Y3176016D01*
G01X2861310Y3145028D01*
G01X2861310Y3188462D01*
G01X3024557Y3138237D02*
G01X3018207Y3141285D01*
G01X3012111Y3147635D01*
G01X3009063Y3153731D01*
G01X3009063Y3166177D01*
G01X3012111Y3172273D01*
G01X3018207Y3178623D01*
G01X3024557Y3181671D01*
G01X3033701Y3184719D01*
G01X3049195Y3184719D01*
G01X3058593Y3181671D01*
G01X3064689Y3178623D01*
G01X3071039Y3172273D01*
G01X3074087Y3166177D01*
G01X3074087Y3153731D01*
G01X3071039Y3147635D01*
G01X3064689Y3141285D01*
G01X3058593Y3138237D01*
G01X3009063Y3077277D02*
G01X3052243Y3108265D01*
G01X3052243Y3061783D01*
G01X3009063Y3077277D02*
G01X3074087Y3077277D01*
G01X3009063Y3025461D02*
G01X3009063Y2991425D01*
G01X3033701Y3009967D01*
G01X3033701Y3000823D01*
G01X3036749Y2994473D01*
G01X3040051Y2991425D01*
G01X3049195Y2988377D01*
G01X3055545Y2988377D01*
G01X3064689Y2991425D01*
G01X3071039Y2997775D01*
G01X3074087Y3006919D01*
G01X3074087Y3016317D01*
G01X3071039Y3025461D01*
G01X3067737Y3028509D01*
G01X3061641Y3031811D01*
G01X3401060Y2625598D02*
G01X3394710Y2628646D01*
G01X3388614Y2634996D01*
G01X3385566Y2641092D01*
G01X3385566Y2653538D01*
G01X3388614Y2659634D01*
G01X3394710Y2665984D01*
G01X3401060Y2669032D01*
G01X3410204Y2672080D01*
G01X3425698Y2672080D01*
G01X3435096Y2669032D01*
G01X3441192Y2665984D01*
G01X3447542Y2659634D01*
G01X3450590Y2653538D01*
G01X3450590Y2641092D01*
G01X3447542Y2634996D01*
G01X3441192Y2628646D01*
G01X3435096Y2625598D01*
G01X3385566Y2564638D02*
G01X3428746Y2595626D01*
G01X3428746Y2549144D01*
G01X3385566Y2564638D02*
G01X3450590Y2564638D01*
G01X3385566Y2488184D02*
G01X3428746Y2519172D01*
G01X3428746Y2472690D01*
G01X3385566Y2488184D02*
G01X3450590Y2488184D01*
G01X3190240Y3038602D02*
G01X3196590Y3035554D01*
G01X3202686Y3029204D01*
G01X3205734Y3023108D01*
G01X3205734Y3010662D01*
G01X3202686Y3004566D01*
G01X3196590Y2998216D01*
G01X3190240Y2995168D01*
G01X3181096Y2992120D01*
G01X3165602Y2992120D01*
G01X3156204Y2995168D01*
G01X3150108Y2998216D01*
G01X3143758Y3004566D01*
G01X3140710Y3010662D01*
G01X3140710Y3023108D01*
G01X3143758Y3029204D01*
G01X3150108Y3035554D01*
G01X3156204Y3038602D01*
G01X3205734Y3099562D02*
G01X3162554Y3068574D01*
G01X3162554Y3115056D01*
G01X3205734Y3099562D02*
G01X3140710Y3099562D01*
G01X3205734Y3182366D02*
G01X3205734Y3151378D01*
G01X3178048Y3148330D01*
G01X3181096Y3151378D01*
G01X3184144Y3160522D01*
G01X3184144Y3169920D01*
G01X3181096Y3179064D01*
G01X3174746Y3185414D01*
G01X3165602Y3188462D01*
G01X3159252Y3188462D01*
G01X3150108Y3185414D01*
G01X3143758Y3179064D01*
G01X3140710Y3169920D01*
G01X3140710Y3160522D01*
G01X3143758Y3151378D01*
G01X3147060Y3148330D01*
G01X3153156Y3145028D01*
G01X3148599Y1932824D02*
G01X3151647Y1939174D01*
G01X3157997Y1945270D01*
G01X3164093Y1948318D01*
G01X3176539Y1948318D01*
G01X3182635Y1945270D01*
G01X3188985Y1939174D01*
G01X3192033Y1932824D01*
G01X3195081Y1923680D01*
G01X3195081Y1908186D01*
G01X3192033Y1898788D01*
G01X3188985Y1892692D01*
G01X3182635Y1886342D01*
G01X3176539Y1883294D01*
G01X3164093Y1883294D01*
G01X3157997Y1886342D01*
G01X3151647Y1892692D01*
G01X3148599Y1898788D01*
G01X3087639Y1948318D02*
G01X3118627Y1905138D01*
G01X3072145Y1905138D01*
G01X3087639Y1948318D02*
G01X3087639Y1883294D01*
G01X3004835Y1939174D02*
G01X3008137Y1945270D01*
G01X3017281Y1948318D01*
G01X3023377Y1948318D01*
G01X3032775Y1945270D01*
G01X3038871Y1936126D01*
G01X3042173Y1920632D01*
G01X3042173Y1905138D01*
G01X3038871Y1892692D01*
G01X3032775Y1886342D01*
G01X3023377Y1883294D01*
G01X3020329Y1883294D01*
G01X3011185Y1886342D01*
G01X3004835Y1892692D01*
G01X3001787Y1901836D01*
G01X3001787Y1905138D01*
G01X3004835Y1914282D01*
G01X3011185Y1920632D01*
G01X3020329Y1923680D01*
G01X3023377Y1923680D01*
G01X3032775Y1920632D01*
G01X3038871Y1914282D01*
G01X3042173Y1905138D01*
G01X3028760Y2195898D02*
G01X3022410Y2198946D01*
G01X3016314Y2205296D01*
G01X3013266Y2211392D01*
G01X3013266Y2223838D01*
G01X3016314Y2229934D01*
G01X3022410Y2236284D01*
G01X3028760Y2239332D01*
G01X3037904Y2242380D01*
G01X3053398Y2242380D01*
G01X3062796Y2239332D01*
G01X3068892Y2236284D01*
G01X3075242Y2229934D01*
G01X3078290Y2223838D01*
G01X3078290Y2211392D01*
G01X3075242Y2205296D01*
G01X3068892Y2198946D01*
G01X3062796Y2195898D01*
G01X3013266Y2134938D02*
G01X3056446Y2165926D01*
G01X3056446Y2119444D01*
G01X3013266Y2134938D02*
G01X3078290Y2134938D01*
G01X3013266Y2046038D02*
G01X3078290Y2077026D01*
G01X3013266Y2089472D02*
G01X3013266Y2046038D01*
G01X2766060Y2195898D02*
G01X2759710Y2198946D01*
G01X2753614Y2205296D01*
G01X2750566Y2211392D01*
G01X2750566Y2223838D01*
G01X2753614Y2229934D01*
G01X2759710Y2236284D01*
G01X2766060Y2239332D01*
G01X2775204Y2242380D01*
G01X2790698Y2242380D01*
G01X2800096Y2239332D01*
G01X2806192Y2236284D01*
G01X2812542Y2229934D01*
G01X2815590Y2223838D01*
G01X2815590Y2211392D01*
G01X2812542Y2205296D01*
G01X2806192Y2198946D01*
G01X2800096Y2195898D01*
G01X2750566Y2134938D02*
G01X2793746Y2165926D01*
G01X2793746Y2119444D01*
G01X2750566Y2134938D02*
G01X2815590Y2134938D01*
G01X2750566Y2073978D02*
G01X2753614Y2083122D01*
G01X2759710Y2086170D01*
G01X2766060Y2086170D01*
G01X2772156Y2083122D01*
G01X2775204Y2077026D01*
G01X2778252Y2064580D01*
G01X2781554Y2055436D01*
G01X2787650Y2049086D01*
G01X2793746Y2046038D01*
G01X2803144Y2046038D01*
G01X2809240Y2049086D01*
G01X2812542Y2052134D01*
G01X2815590Y2061532D01*
G01X2815590Y2073978D01*
G01X2812542Y2083122D01*
G01X2809240Y2086170D01*
G01X2803144Y2089472D01*
G01X2793746Y2089472D01*
G01X2787650Y2086170D01*
G01X2781554Y2080074D01*
G01X2778252Y2070676D01*
G01X2775204Y2058484D01*
G01X2772156Y2052134D01*
G01X2766060Y2049086D01*
G01X2759710Y2049086D01*
G01X2753614Y2052134D01*
G01X2750566Y2061532D01*
G01X2750566Y2073978D01*
G01X5097780Y5085334D02*
G01X5097780Y5020310D01*
G01X5097780Y5085334D02*
G01X5069840Y5085334D01*
G01X5060696Y5082286D01*
G01X5057648Y5079238D01*
G01X5054346Y5073142D01*
G01X5054346Y5066792D01*
G01X5057648Y5060696D01*
G01X5060696Y5057648D01*
G01X5069840Y5054346D01*
G01X5097780Y5054346D01*
G01X5076190Y5054346D02*
G01X5054346Y5020310D01*
G01X5021072Y5069840D02*
G01X5021072Y5073142D01*
G01X5018024Y5079238D01*
G01X5014976Y5082286D01*
G01X5008880Y5085334D01*
G01X4996434Y5085334D01*
G01X4990338Y5082286D01*
G01X4987036Y5079238D01*
G01X4983988Y5073142D01*
G01X4983988Y5066792D01*
G01X4987036Y5060696D01*
G01X4993386Y5051298D01*
G01X5024374Y5020310D01*
G01X4980940Y5020310D01*
G01X4913630Y5076190D02*
G01X4916932Y5082286D01*
G01X4926076Y5085334D01*
G01X4932172Y5085334D01*
G01X4941570Y5082286D01*
G01X4947666Y5073142D01*
G01X4950968Y5057648D01*
G01X4950968Y5042154D01*
G01X4947666Y5029708D01*
G01X4941570Y5023358D01*
G01X4932172Y5020310D01*
G01X4929124Y5020310D01*
G01X4919980Y5023358D01*
G01X4913630Y5029708D01*
G01X4910582Y5038852D01*
G01X4910582Y5042154D01*
G01X4913630Y5051298D01*
G01X4919980Y5057648D01*
G01X4929124Y5060696D01*
G01X4932172Y5060696D01*
G01X4941570Y5057648D01*
G01X4947666Y5051298D01*
G01X4950968Y5042154D01*
G01X5275580Y5758434D02*
G01X5275580Y5693410D01*
G01X5275580Y5758434D02*
G01X5247640Y5758434D01*
G01X5238496Y5755386D01*
G01X5235448Y5752338D01*
G01X5232146Y5746242D01*
G01X5232146Y5739892D01*
G01X5235448Y5733796D01*
G01X5238496Y5730748D01*
G01X5247640Y5727446D01*
G01X5275580Y5727446D01*
G01X5253990Y5727446D02*
G01X5232146Y5693410D01*
G01X5198872Y5742940D02*
G01X5198872Y5746242D01*
G01X5195824Y5752338D01*
G01X5192776Y5755386D01*
G01X5186680Y5758434D01*
G01X5174234Y5758434D01*
G01X5168138Y5755386D01*
G01X5164836Y5752338D01*
G01X5161788Y5746242D01*
G01X5161788Y5739892D01*
G01X5164836Y5733796D01*
G01X5171186Y5724398D01*
G01X5202174Y5693410D01*
G01X5158740Y5693410D01*
G01X5085334Y5758434D02*
G01X5116322Y5693410D01*
G01X5128768Y5758434D02*
G01X5085334Y5758434D01*
G01X7254113Y1745405D02*
G01X7254113Y1680381D01*
G01X7254113Y1745405D02*
G01X7226173Y1745405D01*
G01X7217029Y1742357D01*
G01X7213981Y1739309D01*
G01X7210679Y1733213D01*
G01X7210679Y1726863D01*
G01X7213981Y1720767D01*
G01X7217029Y1717719D01*
G01X7226173Y1714417D01*
G01X7254113Y1714417D01*
G01X7232523Y1714417D02*
G01X7210679Y1680381D01*
G01X7174357Y1745405D02*
G01X7140321Y1745405D01*
G01X7158863Y1720767D01*
G01X7149719Y1720767D01*
G01X7143369Y1717719D01*
G01X7140321Y1714417D01*
G01X7137273Y1705273D01*
G01X7137273Y1698923D01*
G01X7140321Y1689779D01*
G01X7146671Y1683429D01*
G01X7155815Y1680381D01*
G01X7165213Y1680381D01*
G01X7174357Y1683429D01*
G01X7177405Y1686731D01*
G01X7180707Y1692827D01*
G01X7088505Y1745405D02*
G01X7097903Y1742357D01*
G01X7103999Y1733213D01*
G01X7107301Y1717719D01*
G01X7107301Y1708321D01*
G01X7103999Y1692827D01*
G01X7097903Y1683429D01*
G01X7088505Y1680381D01*
G01X7082409Y1680381D01*
G01X7073265Y1683429D01*
G01X7066915Y1692827D01*
G01X7063867Y1708321D01*
G01X7063867Y1717719D01*
G01X7066915Y1733213D01*
G01X7073265Y1742357D01*
G01X7082409Y1745405D01*
G01X7088505Y1745405D01*
G04 Text End*

G04 PolygonModel Start*
G54D11*
G01X2799340Y5732421D02*
G01X2799340Y5828309D01*
G01X2799340Y5828309D02*
G01X2931460Y5828309D01*
G01X2931460Y5828309D02*
G01X2931460Y5732421D01*
G01X2799340Y5647179D02*
G01X2799340Y5551291D01*
G01X2799340Y5551291D02*
G01X2931460Y5551291D01*
G01X2931460Y5551291D02*
G01X2931460Y5647179D01*
G54D12*
G01X2626281Y3563457D02*
G01X2546284Y3563457D01*
G01X2682326Y3563503D02*
G01X2762324Y3563503D01*
G01X2626281Y3421489D02*
G01X2546284Y3421489D01*
G01X2682326Y3421537D02*
G01X2762324Y3421537D01*
G01X2515309Y3532475D02*
G01X2515309Y3452470D01*
G01X2793302Y3452523D02*
G01X2793302Y3532525D01*
G01X2762319Y3421537D02*
G03X2793302Y3452523I0J30983D01*
G01X2793302Y3532520D02*
G03X2762319Y3563503I-30983J0D01*
G01X2546289Y3563457D02*
G03X2515309Y3532475I3J-30983D01*
G01X2515309Y3452477D02*
G03X2546289Y3421489I30983J-5D01*
G01X3088719Y3421543D02*
G01X3168716Y3421543D01*
G01X3032674Y3421497D02*
G01X2952676Y3421497D01*
G01X3088719Y3563511D02*
G01X3168716Y3563511D01*
G01X3032674Y3563463D02*
G01X2952676Y3563463D01*
G01X3199691Y3452525D02*
G01X3199691Y3532530D01*
G01X2921699Y3532477D02*
G01X2921699Y3452475D01*
G01X2952681Y3563463D02*
G03X2921699Y3532477I0J-30983D01*
G01X2921699Y3452480D02*
G03X2952681Y3421497I30983J0D01*
G01X3168711Y3421543D02*
G03X3199691Y3452525I-3J30983D01*
G01X3199691Y3532523D02*
G03X3168711Y3563511I-30983J5D01*
G01X3550757Y2936319D02*
G01X3550757Y3016316D01*
G01X3550803Y2880274D02*
G01X3550803Y2800276D01*
G01X3408789Y2936319D02*
G01X3408789Y3016316D01*
G01X3408837Y2880274D02*
G01X3408837Y2800276D01*
G01X3519775Y3047291D02*
G01X3439770Y3047291D01*
G01X3439823Y2769299D02*
G01X3519825Y2769299D01*
G01X3408837Y2800281D02*
G03X3439823Y2769299I30983J0D01*
G01X3519820Y2769299D02*
G03X3550803Y2800281I0J30983D01*
G01X3550757Y3016311D02*
G03X3519775Y3047291I-30983J-3D01*
G01X3439777Y3047291D02*
G03X3408789Y3016311I-5J-30983D01*
G54D11*
G01X5027620Y1971309D02*
G01X5156113Y1971309D01*
G01X5156113Y1971309D02*
G01X5156113Y1787891D01*
G01X5156113Y1787891D02*
G01X5027620Y1787891D01*
G01X4932380Y1971309D02*
G01X4803887Y1971309D01*
G01X4803887Y1971309D02*
G01X4803887Y1787891D01*
G01X4803887Y1787891D02*
G01X4932380Y1787891D01*
G01X5027620Y1717309D02*
G01X5156113Y1717309D01*
G01X5156113Y1717309D02*
G01X5156113Y1533891D01*
G01X5156113Y1533891D02*
G01X5027620Y1533891D01*
G01X4932380Y1717309D02*
G01X4803887Y1717309D01*
G01X4803887Y1717309D02*
G01X4803887Y1533891D01*
G01X4803887Y1533891D02*
G01X4932380Y1533891D01*
G01X5027620Y2480709D02*
G01X5156113Y2480709D01*
G01X5156113Y2480709D02*
G01X5156113Y2297291D01*
G01X5156113Y2297291D02*
G01X5027620Y2297291D01*
G01X4932380Y2480709D02*
G01X4803887Y2480709D01*
G01X4803887Y2480709D02*
G01X4803887Y2297291D01*
G01X4803887Y2297291D02*
G01X4932380Y2297291D01*
G01X5027620Y2230709D02*
G01X5156113Y2230709D01*
G01X5156113Y2230709D02*
G01X5156113Y2047291D01*
G01X5156113Y2047291D02*
G01X5027620Y2047291D01*
G01X4932380Y2230709D02*
G01X4803887Y2230709D01*
G01X4803887Y2230709D02*
G01X4803887Y2047291D01*
G01X4803887Y2047291D02*
G01X4932380Y2047291D01*
G01X5027620Y1463309D02*
G01X5156113Y1463309D01*
G01X5156113Y1463309D02*
G01X5156113Y1279891D01*
G01X5156113Y1279891D02*
G01X5027620Y1279891D01*
G01X4932380Y1463309D02*
G01X4803887Y1463309D01*
G01X4803887Y1463309D02*
G01X4803887Y1279891D01*
G01X4803887Y1279891D02*
G01X4932380Y1279891D01*
G01X2929954Y1701861D02*
G01X2929954Y1751861D01*
G01X2845476Y1686619D02*
G01X2914716Y1686619D01*
G01X2830236Y1751861D02*
G01X2830236Y1701861D01*
G01X2830449Y1846139D02*
G01X2830449Y1796139D01*
G01X2930162Y1796139D02*
G01X2930162Y1846139D01*
G01X2914927Y1861381D02*
G01X2845684Y1861381D01*
G01X2930164Y1846139D02*
G03X2914924Y1861379I-15240J0D01*
G01X2845684Y1861379D02*
G03X2830444Y1846139I0J-15240D01*
G01X2830236Y1701861D02*
G03X2845476Y1686621I15240J0D01*
G01X2914716Y1686621D02*
G03X2929956Y1701861I0J15240D01*
G01X3132747Y1316139D02*
G01X3132747Y1266139D01*
G01X3217224Y1331381D02*
G01X3147984Y1331381D01*
G01X3232464Y1266139D02*
G01X3232464Y1316139D01*
G01X3232251Y1171862D02*
G01X3232251Y1221861D01*
G01X3132538Y1221861D02*
G01X3132538Y1171862D01*
G01X3147773Y1156619D02*
G01X3217016Y1156619D01*
G01X3132536Y1171862D02*
G03X3147776Y1156622I15240J0D01*
G01X3217016Y1156622D02*
G03X3232256Y1171862I0J15240D01*
G01X3232464Y1316139D02*
G03X3217224Y1331379I-15240J0D01*
G01X3147984Y1331379D02*
G03X3132744Y1316139I0J-15240D01*
G01X2604546Y2434339D02*
G01X2604546Y2384339D01*
G01X2689024Y2449581D02*
G01X2619784Y2449581D01*
G01X2704264Y2384339D02*
G01X2704264Y2434339D01*
G01X2704051Y2290061D02*
G01X2704051Y2340061D01*
G01X2604338Y2340061D02*
G01X2604338Y2290061D01*
G01X2619573Y2274819D02*
G01X2688816Y2274819D01*
G01X2604336Y2290061D02*
G03X2619576Y2274821I15240J0D01*
G01X2688816Y2274821D02*
G03X2704056Y2290061I0J15240D01*
G01X2704264Y2434339D02*
G03X2689024Y2449579I-15240J0D01*
G01X2619784Y2449579D02*
G03X2604544Y2434339I0J-15240D01*
G01X2779753Y1701861D02*
G01X2779753Y1751861D01*
G01X2695276Y1686619D02*
G01X2764516Y1686619D01*
G01X2680036Y1751861D02*
G01X2680036Y1701861D01*
G01X2680249Y1846139D02*
G01X2680249Y1796139D01*
G01X2779962Y1796139D02*
G01X2779962Y1846139D01*
G01X2764727Y1861381D02*
G01X2695484Y1861381D01*
G01X2779964Y1846139D02*
G03X2764724Y1861379I-15240J0D01*
G01X2695484Y1861379D02*
G03X2680244Y1846139I0J-15240D01*
G01X2680036Y1701861D02*
G03X2695276Y1686621I15240J0D01*
G01X2764516Y1686621D02*
G03X2779756Y1701861I0J15240D01*
G01X2631854Y1702662D02*
G01X2631854Y1752661D01*
G01X2547376Y1687419D02*
G01X2616616Y1687419D01*
G01X2532136Y1752661D02*
G01X2532136Y1702662D01*
G01X2532349Y1846939D02*
G01X2532349Y1796939D01*
G01X2632062Y1796939D02*
G01X2632062Y1846939D01*
G01X2616827Y1862181D02*
G01X2547584Y1862181D01*
G01X2632064Y1846939D02*
G03X2616824Y1862179I-15240J0D01*
G01X2547584Y1862179D02*
G03X2532344Y1846939I0J-15240D01*
G01X2532136Y1702662D02*
G03X2547376Y1687422I15240J0D01*
G01X2616616Y1687422D02*
G03X2631856Y1702662I0J15240D01*
G01X2871246Y2434339D02*
G01X2871246Y2384339D01*
G01X2955724Y2449581D02*
G01X2886484Y2449581D01*
G01X2970964Y2384339D02*
G01X2970964Y2434339D01*
G01X2970751Y2290061D02*
G01X2970751Y2340061D01*
G01X2871038Y2340061D02*
G01X2871038Y2290061D01*
G01X2886273Y2274819D02*
G01X2955516Y2274819D01*
G01X2871036Y2290061D02*
G03X2886276Y2274821I15240J0D01*
G01X2955516Y2274821D02*
G03X2970756Y2290061I0J15240D01*
G01X2970964Y2434339D02*
G03X2955724Y2449579I-15240J0D01*
G01X2886484Y2449579D02*
G03X2871244Y2434339I0J-15240D01*
G01X2477546Y2434339D02*
G01X2477546Y2384339D01*
G01X2562024Y2449581D02*
G01X2492784Y2449581D01*
G01X2577264Y2384339D02*
G01X2577264Y2434339D01*
G01X2577051Y2290061D02*
G01X2577051Y2340061D01*
G01X2477338Y2340061D02*
G01X2477338Y2290061D01*
G01X2492573Y2274819D02*
G01X2561816Y2274819D01*
G01X2477336Y2290061D02*
G03X2492576Y2274821I15240J0D01*
G01X2561816Y2274821D02*
G03X2577056Y2290061I0J15240D01*
G01X2577264Y2434339D02*
G03X2562024Y2449579I-15240J0D01*
G01X2492784Y2449579D02*
G03X2477544Y2434339I0J-15240D01*
G01X2693446Y1316739D02*
G01X2693446Y1266739D01*
G01X2777924Y1331981D02*
G01X2708684Y1331981D01*
G01X2793164Y1266739D02*
G01X2793164Y1316739D01*
G01X2792951Y1172461D02*
G01X2792951Y1222461D01*
G01X2693238Y1222461D02*
G01X2693238Y1172461D01*
G01X2708473Y1157219D02*
G01X2777716Y1157219D01*
G01X2693236Y1172461D02*
G03X2708476Y1157221I15240J0D01*
G01X2777716Y1157221D02*
G03X2792956Y1172461I0J15240D01*
G01X2793164Y1316739D02*
G03X2777924Y1331979I-15240J0D01*
G01X2708684Y1331979D02*
G03X2693444Y1316739I0J-15240D01*
G01X2426746Y1316739D02*
G01X2426746Y1266739D01*
G01X2511224Y1331981D02*
G01X2441984Y1331981D01*
G01X2526464Y1266739D02*
G01X2526464Y1316739D01*
G01X2526251Y1172461D02*
G01X2526251Y1222461D01*
G01X2426538Y1222461D02*
G01X2426538Y1172461D01*
G01X2441773Y1157219D02*
G01X2511016Y1157219D01*
G01X2426536Y1172461D02*
G03X2441776Y1157221I15240J0D01*
G01X2511016Y1157221D02*
G03X2526256Y1172461I0J15240D01*
G01X2526464Y1316739D02*
G03X2511224Y1331979I-15240J0D01*
G01X2441984Y1331979D02*
G03X2426744Y1316739I0J-15240D01*
G01X2566446Y1316739D02*
G01X2566446Y1266739D01*
G01X2650924Y1331981D02*
G01X2581684Y1331981D01*
G01X2666164Y1266739D02*
G01X2666164Y1316739D01*
G01X2665951Y1172461D02*
G01X2665951Y1222461D01*
G01X2566238Y1222461D02*
G01X2566238Y1172461D01*
G01X2581473Y1157219D02*
G01X2650716Y1157219D01*
G01X2566236Y1172461D02*
G03X2581476Y1157221I15240J0D01*
G01X2650716Y1157221D02*
G03X2665956Y1172461I0J15240D01*
G01X2666164Y1316739D02*
G03X2650924Y1331979I-15240J0D01*
G01X2581684Y1331979D02*
G03X2566444Y1316739I0J-15240D01*
G01X2945354Y2810761D02*
G01X2945354Y2860761D01*
G01X2860876Y2795519D02*
G01X2930116Y2795519D01*
G01X2845636Y2860761D02*
G01X2845636Y2810761D01*
G01X2845849Y2955039D02*
G01X2845849Y2905039D01*
G01X2945562Y2905039D02*
G01X2945562Y2955039D01*
G01X2930327Y2970281D02*
G01X2861084Y2970281D01*
G01X2945564Y2955039D02*
G03X2930324Y2970279I-15240J0D01*
G01X2861084Y2970279D02*
G03X2845844Y2955039I0J-15240D01*
G01X2845636Y2810761D02*
G03X2860876Y2795521I15240J0D01*
G01X2930116Y2795521D02*
G03X2945356Y2810761I0J15240D01*
G01X3085054Y2810761D02*
G01X3085054Y2860761D01*
G01X3000576Y2795519D02*
G01X3069816Y2795519D01*
G01X2985336Y2860761D02*
G01X2985336Y2810761D01*
G01X2985549Y2955039D02*
G01X2985549Y2905039D01*
G01X3085262Y2905039D02*
G01X3085262Y2955039D01*
G01X3070027Y2970281D02*
G01X3000784Y2970281D01*
G01X3085264Y2955039D02*
G03X3070024Y2970279I-15240J0D01*
G01X3000784Y2970279D02*
G03X2985544Y2955039I0J-15240D01*
G01X2985336Y2810761D02*
G03X3000576Y2795521I15240J0D01*
G01X3069816Y2795521D02*
G03X3085056Y2810761I0J15240D01*
G01X3580354Y2493261D02*
G01X3580354Y2543261D01*
G01X3495876Y2478019D02*
G01X3565116Y2478019D01*
G01X3480636Y2543261D02*
G01X3480636Y2493261D01*
G01X3480849Y2637539D02*
G01X3480849Y2587539D01*
G01X3580562Y2587539D02*
G01X3580562Y2637539D01*
G01X3565327Y2652781D02*
G01X3496084Y2652781D01*
G01X3580564Y2637539D02*
G03X3565324Y2652779I-15240J0D01*
G01X3496084Y2652779D02*
G03X3480844Y2637539I0J-15240D01*
G01X3480636Y2493261D02*
G03X3495876Y2478021I15240J0D01*
G01X3565116Y2478021D02*
G03X3580356Y2493261I0J15240D01*
G01X3212054Y2810761D02*
G01X3212054Y2860761D01*
G01X3127576Y2795519D02*
G01X3196816Y2795519D01*
G01X3112336Y2860761D02*
G01X3112336Y2810761D01*
G01X3112549Y2955039D02*
G01X3112549Y2905039D01*
G01X3212262Y2905039D02*
G01X3212262Y2955039D01*
G01X3197027Y2970281D02*
G01X3127784Y2970281D01*
G01X3212264Y2955039D02*
G03X3197024Y2970279I-15240J0D01*
G01X3127784Y2970279D02*
G03X3112544Y2955039I0J-15240D01*
G01X3112336Y2810761D02*
G03X3127576Y2795521I15240J0D01*
G01X3196816Y2795521D02*
G03X3212056Y2810761I0J15240D01*
G01X3167138Y1846254D02*
G01X3117139Y1846254D01*
G01X3182381Y1761776D02*
G01X3182381Y1831016D01*
G01X3117139Y1746536D02*
G01X3167138Y1746536D01*
G01X3022861Y1746749D02*
G01X3072861Y1746749D01*
G01X3072861Y1846462D02*
G01X3022861Y1846462D01*
G01X3007619Y1831227D02*
G01X3007619Y1761984D01*
G01X3022861Y1846464D02*
G03X3007621Y1831224I0J-15240D01*
G01X3007621Y1761984D02*
G03X3022861Y1746744I15240J0D01*
G01X3167138Y1746536D02*
G03X3182378Y1761776I0J15240D01*
G01X3182378Y1831016D02*
G03X3167138Y1846256I-15240J0D01*
G01X2998246Y2434339D02*
G01X2998246Y2384339D01*
G01X3082724Y2449581D02*
G01X3013484Y2449581D01*
G01X3097964Y2384339D02*
G01X3097964Y2434339D01*
G01X3097751Y2290061D02*
G01X3097751Y2340061D01*
G01X2998038Y2340061D02*
G01X2998038Y2290061D01*
G01X3013273Y2274819D02*
G01X3082516Y2274819D01*
G01X2998036Y2290061D02*
G03X3013276Y2274821I15240J0D01*
G01X3082516Y2274821D02*
G03X3097756Y2290061I0J15240D01*
G01X3097964Y2434339D02*
G03X3082724Y2449579I-15240J0D01*
G01X3013484Y2449579D02*
G03X2998244Y2434339I0J-15240D01*
G01X2731546Y2434339D02*
G01X2731546Y2384339D01*
G01X2816024Y2449581D02*
G01X2746784Y2449581D01*
G01X2831264Y2384339D02*
G01X2831264Y2434339D01*
G01X2831051Y2290061D02*
G01X2831051Y2340061D01*
G01X2731338Y2340061D02*
G01X2731338Y2290061D01*
G01X2746573Y2274819D02*
G01X2815816Y2274819D01*
G01X2731336Y2290061D02*
G03X2746576Y2274821I15240J0D01*
G01X2815816Y2274821D02*
G03X2831056Y2290061I0J15240D01*
G01X2831264Y2434339D02*
G03X2816024Y2449579I-15240J0D01*
G01X2746784Y2449579D02*
G03X2731544Y2434339I0J-15240D01*
G01X4937740Y5313121D02*
G01X4937740Y5409009D01*
G01X4937740Y5409009D02*
G01X5069860Y5409009D01*
G01X5069860Y5409009D02*
G01X5069860Y5313121D01*
G01X4937740Y5227879D02*
G01X4937740Y5131991D01*
G01X4937740Y5131991D02*
G01X5069860Y5131991D01*
G01X5069860Y5131991D02*
G01X5069860Y5227879D01*
G01X5247660Y5456479D02*
G01X5247660Y5360591D01*
G01X5247660Y5360591D02*
G01X5115540Y5360591D01*
G01X5115540Y5360591D02*
G01X5115540Y5456479D01*
G01X5247660Y5541721D02*
G01X5247660Y5637609D01*
G01X5247660Y5637609D02*
G01X5115540Y5637609D01*
G01X5115540Y5637609D02*
G01X5115540Y5541721D01*
G01X7287620Y1969209D02*
G01X7416113Y1969209D01*
G01X7416113Y1969209D02*
G01X7416113Y1785791D01*
G01X7416113Y1785791D02*
G01X7287620Y1785791D01*
G01X7192380Y1969209D02*
G01X7063887Y1969209D01*
G01X7063887Y1969209D02*
G01X7063887Y1785791D01*
G01X7063887Y1785791D02*
G01X7192380Y1785791D01*

M02*

