G04 Layer: TopSolderMaskLayer*
G04 EasyEDA Pro v3.2.148, 2026-09-01 12:52:47*
G04 Gerber Generator version 0.3*
G04 Scale: 100 percent, Rotated: No, Reflected: No*
G04 Dimensions in millimeters*
G04 Leading zeros omitted, absolute positions, 4 integers and 5 decimals*
G04 Generated by one-click*
G04 Object Configs: Pad,Via,Track,Text,Image,Dimension,BoardOutline,BoardCutout,CopperFilled,SolidRegion,FPCStiffener,Line,PlaneZone,ComponentProperty,ComponentSilkscreen,TearDrop*
G04 Layer Configs: 1,15,16,2,3,4,5,6,7,8,9,10,11,13,14,56*
G04 Copper Areas: 0*
%FSLAX45Y45*%
%MOMM*%
%AMRoundRect*1,1,$1,$2,$3*1,1,$1,$4,$5*1,1,$1,0-$2,0-$3*1,1,$1,0-$4,0-$5*20,1,$1,$2,$3,$4,$5,0*20,1,$1,$4,$5,0-$2,0-$3,0*20,1,$1,0-$2,0-$3,0-$4,0-$5,0*20,1,$1,0-$4,0-$5,$2,$3,0*4,1,4,$2,$3,$4,$5,0-$2,0-$3,0-$4,0-$5,$2,$3,0*%
%ADD10C,1.102*%
%ADD11C,0.602*%
%ADD12RoundRect,0.102X-0.4X0.45X0.4X0.45*%
%ADD13RoundRect,0.102X-0.3X0.135X0.3X0.135*%
%ADD14RoundRect,0.102X-0.135X0.3X0.135X0.3*%
%ADD15RoundRect,0.102X-0.25X0.27X0.25X0.27*%
%ADD16RoundRect,0.1088X-0.45X-0.4X-0.45X0.4*%
%ADD17RoundRect,0.102X-0.45X-0.4X-0.45X0.4*%
%ADD18RoundRect,0.102X-0.27X-0.25X-0.27X0.25*%
%ADD19RoundRect,0.1016X-0.705X0.67501X0.705X0.67501*%
%ADD20RoundRect,0.102X-0.85X0.85X0.85X0.85*%
%ADD21C,1.802*%
%ADD22RoundRect,0.1016X-0.432X-0.40324X-0.432X0.40324*%
%ADD23RoundRect,0.1016X-0.40324X0.432X0.40324X0.432*%
%ADD24RoundRect,0.1016X-0.68851X-0.56627X-0.68851X0.56627*%
%ADD25RoundRect,0.1016X-0.56627X0.68851X0.56627X0.68851*%
%ADD26O,0.38161X1.9016*%
%ADD27O,1.9016X0.38161*%
%ADD28RoundRect,0.102X-0.25019X-0.1397X-0.25019X0.1397*%
%ADD29RoundRect,0.102X-0.50038X-1.5X-0.50038X1.5*%
%ADD30RoundRect,0.1016X-0.28699X-0.75X-0.28699X0.75*%
%ADD31O,1.86159X3.60159*%
%ADD32RoundRect,0.1016X-0.28699X-1.10475X-0.28699X1.10475*%
%ADD33RoundRect,0.1016X-0.675X-0.705X-0.675X0.705*%
%ADD34RoundRect,0.10003X-0.3X-0.15X-0.3X0.15*%
%ADD35RoundRect,0.10003X-0.8X-0.8X-0.8X0.8*%
%ADD36C,1.70002*%
%ADD37RoundRect,0.102X-0.85X-0.85X-0.85X0.85*%
%ADD38RoundRect,0.102X-0.15X-0.3X-0.15X0.3*%
%ADD39RoundRect,0.1016X-0.86399X-0.74251X-0.86399X0.74251*%
%ADD40RoundRect,0.102X-0.9X0.9X0.9X0.9*%
%ADD41C,1.902*%
%ADD42RoundRect,0.102X-0.9X-0.9X-0.9X0.9*%
%ADD43RoundRect,0.102X-0.35X-0.62501X-0.35X0.62501*%
%ADD44RoundRect,0.102X-0.8X-0.8X-0.8X0.8*%
%ADD45C,1.702*%
G75*


G04 Pad Start*
G54D10*
G01X200000Y6800000D03*
G01X7800000Y6800000D03*
G01X7800000Y200000D03*
G01X200000Y200000D03*
G54D11*
G01X2654883Y5966302D03*
G01X4067797Y5041101D03*
G01X2057100Y5123700D03*
G54D12*
G01X2745002Y1266500D03*
G01X2604998Y1266500D03*
G54D13*
G01X4709003Y4011994D03*
G01X4709003Y3961981D03*
G01X4709003Y3911994D03*
G01X4709003Y3861981D03*
G54D14*
G01X4776023Y3844999D03*
G01X4826010Y3844999D03*
G01X4876023Y3844999D03*
G54D13*
G01X4942997Y3861981D03*
G01X4942997Y3911994D03*
G01X4942997Y3961981D03*
G01X4942997Y4011994D03*
G54D14*
G01X4876023Y4029001D03*
G01X4826010Y4029001D03*
G01X4776023Y4029001D03*
G54D15*
G01X4644288Y3708400D03*
G01X4728312Y3708400D03*
G54D17*
G01X1454800Y3420198D03*
G01X1454800Y3560202D03*
G54D18*
G01X5130800Y1037488D03*
G01X5130800Y1121512D03*
G54D17*
G01X4432500Y3911502D03*
G01X4432500Y3771498D03*
G01X2489200Y5632298D03*
G01X2489200Y5772302D03*
G54D12*
G01X2047502Y5362500D03*
G01X1907498Y5362500D03*
G54D17*
G01X2438400Y6013298D03*
G01X2438400Y6153302D03*
G54D19*
G01X3775200Y5289700D03*
G01X3575200Y5289700D03*
G01X4270300Y5291400D03*
G01X4070300Y5291400D03*
G54D20*
G01X2115000Y301500D03*
G54D21*
G01X2369000Y301500D03*
G01X2623000Y301500D03*
G01X2877000Y301500D03*
G01X3131000Y301500D03*
G01X3385000Y301500D03*
G54D17*
G01X3345000Y1194002D03*
G01X3345000Y1053998D03*
G01X2679700Y2901798D03*
G01X2679700Y3041802D03*
G01X2882900Y2901798D03*
G01X2882900Y3041802D03*
G01X2921000Y1213002D03*
G01X2921000Y1072998D03*
G54D11*
G01X4268413Y5045921D03*
G01X1047700Y6031200D03*
G54D17*
G01X1638300Y730098D03*
G01X1638300Y870102D03*
G54D22*
G01X1644600Y3571737D03*
G01X1644600Y3421064D03*
G54D23*
G01X1105064Y3420400D03*
G01X1255736Y3420400D03*
G54D24*
G01X2653500Y6343800D03*
G01X2653500Y6143800D03*
G01X2177300Y6141600D03*
G01X2177300Y6341600D03*
G54D25*
G01X2442500Y5362500D03*
G01X2242500Y5362500D03*
G01X2236800Y5118100D03*
G01X2436800Y5118100D03*
G54D26*
G01X2431694Y2625090D03*
G01X2481707Y2625090D03*
G01X2531694Y2625090D03*
G01X2581707Y2625090D03*
G01X2631694Y2625090D03*
G01X2681707Y2625090D03*
G01X2731694Y2625090D03*
G01X2781706Y2625090D03*
G01X2831694Y2625090D03*
G01X2881706Y2625090D03*
G01X2931693Y2625090D03*
G01X2981706Y2625090D03*
G01X3031693Y2625090D03*
G01X3081706Y2625090D03*
G01X3131693Y2625090D03*
G01X3181706Y2625090D03*
G54D27*
G01X3361690Y2445106D03*
G01X3361690Y2395093D03*
G01X3361690Y2345106D03*
G01X3361690Y2295093D03*
G01X3361690Y2245106D03*
G01X3361690Y2195093D03*
G01X3361690Y2145106D03*
G01X3361690Y2095094D03*
G01X3361690Y2045106D03*
G01X3361690Y1995094D03*
G01X3361690Y1945107D03*
G01X3361690Y1895094D03*
G01X3361690Y1845107D03*
G01X3361690Y1795094D03*
G01X3361690Y1745107D03*
G01X3361690Y1695094D03*
G54D26*
G01X3181706Y1515110D03*
G01X3131693Y1515110D03*
G01X3081706Y1515110D03*
G01X3031693Y1515110D03*
G01X2981706Y1515110D03*
G01X2931693Y1515110D03*
G01X2881706Y1515110D03*
G01X2831694Y1515110D03*
G01X2781706Y1515110D03*
G01X2731694Y1515110D03*
G01X2681707Y1515110D03*
G01X2631694Y1515110D03*
G01X2581707Y1515110D03*
G01X2531694Y1515110D03*
G01X2481707Y1515110D03*
G01X2431694Y1515110D03*
G54D27*
G01X2251710Y1695094D03*
G01X2251710Y1745107D03*
G01X2251710Y1795094D03*
G01X2251710Y1845107D03*
G01X2251710Y1895094D03*
G01X2251710Y1945107D03*
G01X2251710Y1995094D03*
G01X2251710Y2045106D03*
G01X2251710Y2095094D03*
G01X2251710Y2145106D03*
G01X2251710Y2195093D03*
G01X2251710Y2245106D03*
G01X2251710Y2295093D03*
G01X2251710Y2345106D03*
G01X2251710Y2395093D03*
G01X2251710Y2445106D03*
G54D28*
G01X2090420Y5816600D03*
G01X2090420Y5765800D03*
G01X2090420Y5715000D03*
G01X2090420Y5664200D03*
G01X2090420Y5613400D03*
G01X2090420Y5562600D03*
G01X2278380Y5562600D03*
G01X2278380Y5613400D03*
G01X2278380Y5664200D03*
G01X2278380Y5715000D03*
G01X2278380Y5765800D03*
G01X2278380Y5816600D03*
G54D29*
G01X2184400Y5689600D03*
G54D30*
G01X4074300Y5532552D03*
G01X3774300Y5532552D03*
G54D31*
G01X3924313Y5630799D03*
G54D30*
G01X3774300Y5872048D03*
G54D32*
G01X3924287Y5836564D03*
G54D30*
G01X4074300Y5872048D03*
G54D11*
G01X1256032Y6426601D03*
G54D33*
G01X4838700Y916000D03*
G01X4838700Y1116000D03*
G54D15*
G01X5027012Y3691500D03*
G01X4942988Y3691500D03*
G54D17*
G01X4432300Y4273702D03*
G01X4432300Y4133698D03*
G54D34*
G01X3717500Y3911499D03*
G01X3717500Y3846501D03*
G01X3715000Y4134001D03*
G01X3715000Y4198999D03*
G54D25*
G01X4125000Y4134000D03*
G01X3925000Y4134000D03*
G01X4125900Y3911600D03*
G01X3925900Y3911600D03*
G54D35*
G01X400000Y3093491D03*
G54D36*
G01X400000Y2843505D03*
G01X400000Y2593492D03*
G01X400000Y2343506D03*
G01X400000Y2093493D03*
G01X400000Y1843507D03*
G01X400000Y1593494D03*
G01X400000Y1343508D03*
G01X400000Y1093495D03*
G01X400000Y843509D03*
G54D37*
G01X4200000Y2663500D03*
G54D21*
G01X4200000Y2409500D03*
G01X4200000Y2155500D03*
G01X4200000Y1901500D03*
G01X4200000Y1647500D03*
G01X4200000Y1393500D03*
G01X4200000Y1139500D03*
G54D17*
G01X1638300Y1060298D03*
G01X1638300Y1200302D03*
G01X1638300Y1390498D03*
G01X1638300Y1530502D03*
G01X1638300Y1733398D03*
G01X1638300Y1873402D03*
G01X1651000Y2229002D03*
G01X1651000Y2088998D03*
G01X1651000Y2584602D03*
G01X1651000Y2444598D03*
G01X1651000Y2902102D03*
G01X1651000Y2762098D03*
G01X1651000Y3245002D03*
G01X1651000Y3104998D03*
G54D12*
G01X2292198Y1257300D03*
G01X2432202Y1257300D03*
G54D23*
G01X1434236Y863600D03*
G01X1283564Y863600D03*
G01X1434236Y1193800D03*
G01X1283564Y1193800D03*
G01X1434236Y1536700D03*
G01X1283564Y1536700D03*
G01X1446936Y1879600D03*
G01X1296264Y1879600D03*
G01X1446936Y2095500D03*
G01X1296264Y2095500D03*
G54D33*
G01X1045100Y6423220D03*
G01X1045100Y6223220D03*
G54D38*
G01X825503Y1221981D03*
G01X825503Y1064019D03*
G01X875490Y1064019D03*
G01X775490Y1064019D03*
G01X875490Y1221981D03*
G01X775490Y1221981D03*
G01X825503Y2136381D03*
G01X825503Y1978419D03*
G01X875490Y1978419D03*
G01X775490Y1978419D03*
G01X875490Y2136381D03*
G01X775490Y2136381D03*
G01X889003Y2936481D03*
G01X889003Y2778519D03*
G01X938990Y2778519D03*
G01X838990Y2778519D03*
G01X938990Y2936481D03*
G01X838990Y2936481D03*
G54D23*
G01X1459636Y2438400D03*
G01X1308964Y2438400D03*
G01X1472336Y2768600D03*
G01X1321664Y2768600D03*
G01X1459636Y3086100D03*
G01X1308964Y3086100D03*
G54D22*
G01X2425700Y1078636D03*
G01X2425700Y927964D03*
G54D37*
G01X400000Y4673600D03*
G54D21*
G01X400000Y4419600D03*
G01X400000Y4165600D03*
G01X400000Y3911600D03*
G01X400000Y3657600D03*
G54D39*
G01X3124200Y1035558D03*
G01X3124200Y717042D03*
G54D40*
G01X2253000Y3860800D03*
G54D41*
G01X2507000Y3860800D03*
G54D25*
G01X2427300Y685800D03*
G01X2627300Y685800D03*
G54D12*
G01X2749702Y1079500D03*
G01X2609698Y1079500D03*
G54D22*
G01X4775200Y4571136D03*
G01X4775200Y4420464D03*
G01X5016500Y4812436D03*
G01X5016500Y4661764D03*
G54D42*
G01X406400Y6428500D03*
G54D41*
G01X406400Y6174500D03*
G54D42*
G01X400000Y5528500D03*
G54D41*
G01X400000Y5274500D03*
G54D43*
G01X1593596Y6424600D03*
G01X1403604Y6424600D03*
G01X1498600Y6224600D03*
G54D24*
G01X1905000Y3583000D03*
G01X1905000Y3783000D03*
G54D11*
G01X1498200Y6043206D03*
G54D44*
G01X7708900Y6197600D03*
G54D45*
G01X7708900Y5943600D03*
G01X7708900Y5689600D03*
G01X7708900Y5435600D03*
G01X7708900Y5181600D03*
G01X7708900Y4927600D03*
G01X7708900Y4673600D03*
G01X7708900Y4419600D03*
G01X7708900Y4165600D03*
G01X7708900Y3911600D03*
G01X7708900Y3657600D03*
G01X7708900Y3403600D03*
G01X7708900Y3149600D03*
G01X7708900Y2895600D03*
G01X7708900Y2641600D03*
G01X7708900Y2387600D03*
G01X7708900Y2133600D03*
G01X7708900Y1879600D03*
G01X7708900Y1625600D03*
G01X7708900Y1371600D03*
G01X7708900Y1117600D03*
G01X7708900Y863600D03*
G54D44*
G01X5422900Y6197600D03*
G54D45*
G01X5422900Y5943600D03*
G01X5422900Y5689600D03*
G01X5422900Y5435600D03*
G01X5422900Y5181600D03*
G01X5422900Y4927600D03*
G01X5422900Y4673600D03*
G01X5422900Y4419600D03*
G01X5422900Y4165600D03*
G01X5422900Y3911600D03*
G01X5422900Y3657600D03*
G01X5422900Y3403600D03*
G01X5422900Y3149600D03*
G01X5422900Y2895600D03*
G01X5422900Y2641600D03*
G01X5422900Y2387600D03*
G01X5422900Y2133600D03*
G01X5422900Y1879600D03*
G01X5422900Y1625600D03*
G01X5422900Y1371600D03*
G01X5422900Y1117600D03*
G01X5422900Y863600D03*
G54D17*
G01X1765300Y5695798D03*
G01X1765300Y5835802D03*
G54D12*
G01X1759102Y5524500D03*
G01X1619098Y5524500D03*
G04 Pad End*

M02*

