G04 Layer: InnerLayer1*
G04 EasyEDA Pro v3.2.148, 2026-09-01 12:52:47*
G04 Gerber Generator version 0.3*
G04 Scale: 100 percent, Rotated: No, Reflected: No*
G04 Dimensions in millimeters*
G04 Leading zeros omitted, absolute positions, 4 integers and 5 decimals*
G04 Generated by one-click*
G04 Object Configs: Pad,Via,Track,Text,Image,Dimension,BoardOutline,BoardCutout,CopperFilled,SolidRegion,FPCStiffener,Line,PlaneZone,ComponentProperty,ComponentSilkscreen,TearDrop*
G04 Layer Configs: 1,15,16,2,3,4,5,6,7,8,9,10,11,13,14,56*
G04 Copper Areas: 37*
%FSLAX45Y45*%
%MOMM*%
%ADD10C,0.2032*%
%ADD11C,0.254*%
%ADD12R,1.7X1.7*%
%ADD13C,1.7*%
%ADD14R,1.6X1.6*%
%ADD15C,1.6*%
%ADD16R,1.8X1.8*%
%ADD17C,1.8056*%
%ADD18C,1.8*%
%ADD19C,0.4*%
%ADD20C,0.6*%
G75*


G04 Copper Start*
G36*
G01X35814Y6797700D02*
G01X37835Y6823384D01*
G01X43850Y6848436D01*
G01X53709Y6872239D01*
G01X67171Y6894206D01*
G01X83903Y6913797D01*
G01X103494Y6930529D01*
G01X125461Y6943991D01*
G01X149264Y6953850D01*
G01X174316Y6959865D01*
G01X200000Y6961886D01*
G01X7800000Y6961886D01*
G01X7825684Y6959865D01*
G01X7850736Y6953850D01*
G01X7874539Y6943991D01*
G01X7896506Y6930529D01*
G01X7916097Y6913797D01*
G01X7932829Y6894206D01*
G01X7946291Y6872239D01*
G01X7956150Y6848436D01*
G01X7962165Y6823384D01*
G01X7964186Y6797700D01*
G01X7964186Y197700D01*
G01X7962165Y172016D01*
G01X7956150Y146964D01*
G01X7946291Y123161D01*
G01X7932829Y101194D01*
G01X7916097Y81603D01*
G01X7896506Y64871D01*
G01X7874539Y51409D01*
G01X7850736Y41550D01*
G01X7825684Y35535D01*
G01X7800000Y33514D01*
G01X200000Y33514D01*
G01X174316Y35535D01*
G01X149264Y41550D01*
G01X125461Y51409D01*
G01X103494Y64871D01*
G01X83903Y81603D01*
G01X67171Y101194D01*
G01X53709Y123161D01*
G01X43850Y146964D01*
G01X37835Y172016D01*
G01X35814Y197700D01*
G01X35814Y300000D01*
G01X604186Y300000D01*
G01X606179Y272133D01*
G01X612118Y244833D01*
G01X621881Y218656D01*
G01X635271Y194135D01*
G01X652014Y171769D01*
G01X671769Y152014D01*
G01X694135Y135271D01*
G01X718656Y121881D01*
G01X744833Y112118D01*
G01X772133Y106179D01*
G01X800000Y104186D01*
G01X827867Y106179D01*
G01X855167Y112118D01*
G01X881344Y121881D01*
G01X905865Y135271D01*
G01X928231Y152014D01*
G01X947986Y171769D01*
G01X964729Y194135D01*
G01X978119Y218656D01*
G01X987882Y244833D01*
G01X993821Y272133D01*
G01X995814Y300000D01*
G01X993821Y327867D01*
G01X987882Y355167D01*
G01X978119Y381344D01*
G01X975303Y386500D01*
G01X1994186Y386500D01*
G01X1994186Y216500D01*
G01X1995939Y205433D01*
G01X2001026Y195449D01*
G01X2008949Y187526D01*
G01X2018933Y182439D01*
G01X2030000Y180686D01*
G01X2200000Y180686D01*
G01X2200000Y180686D01*
G01X2211067Y182439D01*
G01X2221051Y187526D01*
G01X2228974Y195449D01*
G01X2234061Y205433D01*
G01X2235814Y216500D01*
G01X2235814Y301500D01*
G01X2248186Y301500D01*
G01X2250022Y280521D01*
G01X2255472Y260179D01*
G01X2264372Y241093D01*
G01X2276451Y223842D01*
G01X2291342Y208951D01*
G01X2308593Y196872D01*
G01X2327679Y187972D01*
G01X2348021Y182522D01*
G01X2369000Y180686D01*
G01X2389979Y182522D01*
G01X2410321Y187972D01*
G01X2429407Y196872D01*
G01X2446658Y208951D01*
G01X2461549Y223842D01*
G01X2473628Y241093D01*
G01X2482528Y260179D01*
G01X2487978Y280521D01*
G01X2489814Y301500D01*
G01X2502186Y301500D01*
G01X2504022Y280521D01*
G01X2509472Y260179D01*
G01X2518372Y241093D01*
G01X2530451Y223842D01*
G01X2545342Y208951D01*
G01X2562593Y196872D01*
G01X2581679Y187972D01*
G01X2602021Y182522D01*
G01X2623000Y180686D01*
G01X2643979Y182522D01*
G01X2664321Y187972D01*
G01X2683407Y196872D01*
G01X2700658Y208951D01*
G01X2715549Y223842D01*
G01X2727628Y241093D01*
G01X2736528Y260179D01*
G01X2741978Y280521D01*
G01X2743814Y301500D01*
G01X2756186Y301500D01*
G01X2758022Y280521D01*
G01X2763472Y260179D01*
G01X2772372Y241093D01*
G01X2784451Y223842D01*
G01X2799342Y208951D01*
G01X2816593Y196872D01*
G01X2835679Y187972D01*
G01X2856021Y182522D01*
G01X2877000Y180686D01*
G01X2897979Y182522D01*
G01X2918321Y187972D01*
G01X2937407Y196872D01*
G01X2954658Y208951D01*
G01X2969549Y223842D01*
G01X2981628Y241093D01*
G01X2990528Y260179D01*
G01X2995978Y280521D01*
G01X2997814Y301500D01*
G01X3010186Y301500D01*
G01X3012022Y280521D01*
G01X3017472Y260179D01*
G01X3026372Y241093D01*
G01X3038451Y223842D01*
G01X3053342Y208951D01*
G01X3070593Y196872D01*
G01X3089679Y187972D01*
G01X3110021Y182522D01*
G01X3131000Y180686D01*
G01X3151979Y182522D01*
G01X3172321Y187972D01*
G01X3191407Y196872D01*
G01X3208658Y208951D01*
G01X3223549Y223842D01*
G01X3235628Y241093D01*
G01X3244528Y260179D01*
G01X3249978Y280521D01*
G01X3251814Y301500D01*
G01X3264186Y301500D01*
G01X3266022Y280521D01*
G01X3271472Y260179D01*
G01X3280372Y241093D01*
G01X3292451Y223842D01*
G01X3307342Y208951D01*
G01X3324593Y196872D01*
G01X3343679Y187972D01*
G01X3364021Y182522D01*
G01X3385000Y180686D01*
G01X3405979Y182522D01*
G01X3426321Y187972D01*
G01X3445407Y196872D01*
G01X3462658Y208951D01*
G01X3477549Y223842D01*
G01X3489628Y241093D01*
G01X3498528Y260179D01*
G01X3503978Y280521D01*
G01X3505814Y301500D01*
G01X3503978Y322479D01*
G01X3498528Y342821D01*
G01X3489628Y361907D01*
G01X3477549Y379158D01*
G01X3462658Y394049D01*
G01X3445407Y406128D01*
G01X3426321Y415028D01*
G01X3405979Y420478D01*
G01X3385000Y422314D01*
G01X3364021Y420478D01*
G01X3343679Y415028D01*
G01X3324593Y406128D01*
G01X3307342Y394049D01*
G01X3292451Y379158D01*
G01X3280372Y361907D01*
G01X3271472Y342821D01*
G01X3266022Y322479D01*
G01X3264186Y301500D01*
G01X3264186Y301500D01*
G01X3251814Y301500D01*
G01X3249978Y322479D01*
G01X3244528Y342821D01*
G01X3235628Y361907D01*
G01X3223549Y379158D01*
G01X3208658Y394049D01*
G01X3191407Y406128D01*
G01X3172321Y415028D01*
G01X3151979Y420478D01*
G01X3131000Y422314D01*
G01X3110021Y420478D01*
G01X3089679Y415028D01*
G01X3070593Y406128D01*
G01X3053342Y394049D01*
G01X3038451Y379158D01*
G01X3026372Y361907D01*
G01X3017472Y342821D01*
G01X3012022Y322479D01*
G01X3010186Y301500D01*
G01X3010186Y301500D01*
G01X2997814Y301500D01*
G01X2995978Y322479D01*
G01X2990528Y342821D01*
G01X2981628Y361907D01*
G01X2969549Y379158D01*
G01X2954658Y394049D01*
G01X2937407Y406128D01*
G01X2918321Y415028D01*
G01X2897979Y420478D01*
G01X2877000Y422314D01*
G01X2856021Y420478D01*
G01X2835679Y415028D01*
G01X2816593Y406128D01*
G01X2799342Y394049D01*
G01X2784451Y379158D01*
G01X2772372Y361907D01*
G01X2763472Y342821D01*
G01X2758022Y322479D01*
G01X2756186Y301500D01*
G01X2756186Y301500D01*
G01X2743814Y301500D01*
G01X2741978Y322479D01*
G01X2736528Y342821D01*
G01X2727628Y361907D01*
G01X2715549Y379158D01*
G01X2700658Y394049D01*
G01X2683407Y406128D01*
G01X2664321Y415028D01*
G01X2643979Y420478D01*
G01X2623000Y422314D01*
G01X2602021Y420478D01*
G01X2581679Y415028D01*
G01X2562593Y406128D01*
G01X2545342Y394049D01*
G01X2530451Y379158D01*
G01X2518372Y361907D01*
G01X2509472Y342821D01*
G01X2504022Y322479D01*
G01X2502186Y301500D01*
G01X2502186Y301500D01*
G01X2489814Y301500D01*
G01X2487978Y322479D01*
G01X2482528Y342821D01*
G01X2473628Y361907D01*
G01X2461549Y379158D01*
G01X2446658Y394049D01*
G01X2429407Y406128D01*
G01X2410321Y415028D01*
G01X2389979Y420478D01*
G01X2369000Y422314D01*
G01X2348021Y420478D01*
G01X2327679Y415028D01*
G01X2308593Y406128D01*
G01X2291342Y394049D01*
G01X2276451Y379158D01*
G01X2264372Y361907D01*
G01X2255472Y342821D01*
G01X2250022Y322479D01*
G01X2248186Y301500D01*
G01X2248186Y301500D01*
G01X2235814Y301500D01*
G01X2235814Y386500D01*
G01X2234061Y397567D01*
G01X2228974Y407551D01*
G01X2221051Y415474D01*
G01X2211067Y420561D01*
G01X2200000Y422314D01*
G01X2030000Y422314D01*
G01X2018933Y420561D01*
G01X2008949Y415474D01*
G01X2001026Y407551D01*
G01X1995939Y397567D01*
G01X1994186Y386500D01*
G01X975303Y386500D01*
G01X964729Y405865D01*
G01X947986Y428231D01*
G01X928231Y447986D01*
G01X905865Y464729D01*
G01X881344Y478119D01*
G01X855167Y487882D01*
G01X827867Y493821D01*
G01X807186Y495300D01*
G01X3068386Y495300D01*
G01X3070288Y480854D01*
G01X3075864Y467393D01*
G01X3084734Y455834D01*
G01X3096293Y446964D01*
G01X3109754Y441388D01*
G01X3124200Y439486D01*
G01X3138646Y441388D01*
G01X3152107Y446964D01*
G01X3163666Y455834D01*
G01X3172536Y467393D01*
G01X3178112Y480854D01*
G01X3180014Y495300D01*
G01X3178112Y509746D01*
G01X3172536Y523207D01*
G01X3163666Y534766D01*
G01X3152107Y543636D01*
G01X3138646Y549212D01*
G01X3124200Y551114D01*
G01X3109754Y549212D01*
G01X3096293Y543636D01*
G01X3084734Y534766D01*
G01X3075864Y523207D01*
G01X3070288Y509746D01*
G01X3068386Y495300D01*
G01X3068386Y495300D01*
G01X807186Y495300D01*
G01X800000Y495814D01*
G01X772133Y493821D01*
G01X744833Y487882D01*
G01X718656Y478119D01*
G01X694135Y464729D01*
G01X671769Y447986D01*
G01X652014Y428231D01*
G01X635271Y405865D01*
G01X621881Y381344D01*
G01X612118Y355167D01*
G01X606179Y327867D01*
G01X604186Y300000D01*
G01X604186Y300000D01*
G01X35814Y300000D01*
G01X35814Y854195D01*
G01X284680Y854195D01*
G01X284680Y832823D01*
G01X288607Y811815D01*
G01X296328Y791886D01*
G01X307579Y773715D01*
G01X321977Y757921D01*
G01X339032Y745042D01*
G01X358163Y735515D01*
G01X378719Y729667D01*
G01X400000Y727695D01*
G01X400000Y727695D01*
G01X421281Y729667D01*
G01X441837Y735515D01*
G01X460968Y745042D01*
G01X478023Y757921D01*
G01X492421Y773715D01*
G01X503672Y791886D01*
G01X511393Y811815D01*
G01X515320Y832823D01*
G01X515320Y854195D01*
G01X511393Y875203D01*
G01X506048Y889000D01*
G01X2546684Y889000D01*
G01X2548586Y874554D01*
G01X2554161Y861093D01*
G01X2563031Y849534D01*
G01X2574591Y840664D01*
G01X2588052Y835088D01*
G01X2602498Y833186D01*
G01X2616943Y835088D01*
G01X2630405Y840664D01*
G01X2641964Y849534D01*
G01X2650834Y861093D01*
G01X2656410Y874554D01*
G01X2658312Y889000D01*
G01X2865186Y889000D01*
G01X2867088Y874554D01*
G01X2872664Y861093D01*
G01X2881534Y849534D01*
G01X2893093Y840664D01*
G01X2906554Y835088D01*
G01X2921000Y833186D01*
G01X2935446Y835088D01*
G01X2948907Y840664D01*
G01X2960466Y849534D01*
G01X2969336Y861093D01*
G01X2970375Y863600D01*
G01X3289186Y863600D01*
G01X3291088Y849154D01*
G01X3296664Y835693D01*
G01X3305533Y824134D01*
G01X3317093Y815264D01*
G01X3330554Y809688D01*
G01X3345000Y807786D01*
G01X3359446Y809688D01*
G01X3372907Y815264D01*
G01X3384466Y824134D01*
G01X3393336Y835693D01*
G01X3398912Y849154D01*
G01X3400814Y863600D01*
G01X3399407Y874286D01*
G01X5307580Y874286D01*
G01X5307580Y852914D01*
G01X5311507Y831906D01*
G01X5319228Y811977D01*
G01X5330479Y793807D01*
G01X5344877Y778013D01*
G01X5361932Y765133D01*
G01X5381063Y755607D01*
G01X5401619Y749758D01*
G01X5422900Y747786D01*
G01X5444181Y749758D01*
G01X5464737Y755607D01*
G01X5483868Y765133D01*
G01X5500923Y778013D01*
G01X5515321Y793807D01*
G01X5526572Y811977D01*
G01X5534293Y831906D01*
G01X5538220Y852914D01*
G01X5538220Y874286D01*
G01X5534293Y895294D01*
G01X5526572Y915223D01*
G01X5515321Y933393D01*
G01X5500923Y949187D01*
G01X5483868Y962067D01*
G01X5464737Y971593D01*
G01X5444181Y977442D01*
G01X5422900Y979414D01*
G01X5422900Y979414D01*
G01X5401619Y977442D01*
G01X5381063Y971593D01*
G01X5361932Y962067D01*
G01X5344877Y949187D01*
G01X5330479Y933393D01*
G01X5319228Y915223D01*
G01X5311507Y895294D01*
G01X5307580Y874286D01*
G01X3399407Y874286D01*
G01X3398912Y878046D01*
G01X3393336Y891507D01*
G01X3384466Y903066D01*
G01X3372907Y911936D01*
G01X3359446Y917512D01*
G01X3345000Y919414D01*
G01X3330554Y917512D01*
G01X3317093Y911936D01*
G01X3305533Y903066D01*
G01X3296664Y891507D01*
G01X3291088Y878046D01*
G01X3289186Y863600D01*
G01X3289186Y863600D01*
G01X2970375Y863600D01*
G01X2974912Y874554D01*
G01X2976814Y889000D01*
G01X2974912Y903446D01*
G01X2969336Y916907D01*
G01X2960466Y928466D01*
G01X2948907Y937336D01*
G01X2935446Y942912D01*
G01X2921000Y944814D01*
G01X2906554Y942912D01*
G01X2893093Y937336D01*
G01X2881534Y928466D01*
G01X2872664Y916907D01*
G01X2867088Y903446D01*
G01X2865186Y889000D01*
G01X2865186Y889000D01*
G01X2658312Y889000D01*
G01X2656410Y903446D01*
G01X2650834Y916907D01*
G01X2641964Y928466D01*
G01X2630405Y937336D01*
G01X2616943Y942912D01*
G01X2602498Y944814D01*
G01X2588052Y942912D01*
G01X2574591Y937336D01*
G01X2563031Y928466D01*
G01X2554161Y916907D01*
G01X2548586Y903446D01*
G01X2546684Y889000D01*
G01X2546684Y889000D01*
G01X506048Y889000D01*
G01X503672Y895131D01*
G01X492421Y913302D01*
G01X478023Y929096D01*
G01X460968Y941976D01*
G01X441837Y951502D01*
G01X421281Y957350D01*
G01X400000Y959322D01*
G01X378719Y957350D01*
G01X358163Y951502D01*
G01X339032Y941976D01*
G01X321977Y929096D01*
G01X307579Y913302D01*
G01X296328Y895131D01*
G01X288607Y875203D01*
G01X284680Y854195D01*
G01X35814Y854195D01*
G01X35814Y1104181D01*
G01X284680Y1104181D01*
G01X284680Y1082809D01*
G01X288607Y1061801D01*
G01X296328Y1041873D01*
G01X307579Y1023702D01*
G01X321977Y1007908D01*
G01X339032Y995028D01*
G01X358163Y985502D01*
G01X378719Y979654D01*
G01X400000Y977682D01*
G01X400000Y977682D01*
G01X421281Y979654D01*
G01X441837Y985502D01*
G01X460968Y995028D01*
G01X467551Y1000000D01*
G01X6404186Y1000000D01*
G01X6406179Y972133D01*
G01X6412118Y944833D01*
G01X6421881Y918656D01*
G01X6435271Y894135D01*
G01X6452014Y871769D01*
G01X6471769Y852014D01*
G01X6494135Y835271D01*
G01X6518656Y821881D01*
G01X6544833Y812118D01*
G01X6572133Y806179D01*
G01X6600000Y804186D01*
G01X6627867Y806179D01*
G01X6655167Y812118D01*
G01X6681344Y821881D01*
G01X6705865Y835271D01*
G01X6728231Y852014D01*
G01X6747986Y871769D01*
G01X6749870Y874286D01*
G01X7593580Y874286D01*
G01X7593580Y852914D01*
G01X7597507Y831906D01*
G01X7605228Y811977D01*
G01X7616479Y793807D01*
G01X7630877Y778013D01*
G01X7647932Y765133D01*
G01X7667063Y755607D01*
G01X7687619Y749758D01*
G01X7708900Y747786D01*
G01X7730181Y749758D01*
G01X7750737Y755607D01*
G01X7769868Y765133D01*
G01X7786923Y778013D01*
G01X7801321Y793807D01*
G01X7812572Y811977D01*
G01X7820293Y831906D01*
G01X7824220Y852914D01*
G01X7824220Y874286D01*
G01X7820293Y895294D01*
G01X7812572Y915223D01*
G01X7801321Y933393D01*
G01X7786923Y949187D01*
G01X7769868Y962067D01*
G01X7750737Y971593D01*
G01X7730181Y977442D01*
G01X7708900Y979414D01*
G01X7708900Y979414D01*
G01X7687619Y977442D01*
G01X7667063Y971593D01*
G01X7647932Y962067D01*
G01X7630877Y949187D01*
G01X7616479Y933393D01*
G01X7605228Y915223D01*
G01X7597507Y895294D01*
G01X7593580Y874286D01*
G01X6749870Y874286D01*
G01X6764729Y894135D01*
G01X6778119Y918656D01*
G01X6787882Y944833D01*
G01X6793821Y972133D01*
G01X6795814Y1000000D01*
G01X6793821Y1027867D01*
G01X6787882Y1055167D01*
G01X6778119Y1081344D01*
G01X6764729Y1105865D01*
G01X6747986Y1128231D01*
G01X6747931Y1128286D01*
G01X7593580Y1128286D01*
G01X7593580Y1106914D01*
G01X7597507Y1085906D01*
G01X7605228Y1065977D01*
G01X7616479Y1047807D01*
G01X7630877Y1032013D01*
G01X7647932Y1019133D01*
G01X7667063Y1009607D01*
G01X7687619Y1003758D01*
G01X7708900Y1001786D01*
G01X7730181Y1003758D01*
G01X7750737Y1009607D01*
G01X7769868Y1019133D01*
G01X7786923Y1032013D01*
G01X7801321Y1047807D01*
G01X7812572Y1065977D01*
G01X7820293Y1085906D01*
G01X7824220Y1106914D01*
G01X7824220Y1128286D01*
G01X7820293Y1149294D01*
G01X7812572Y1169223D01*
G01X7801321Y1187393D01*
G01X7786923Y1203187D01*
G01X7769868Y1216067D01*
G01X7750737Y1225593D01*
G01X7730181Y1231442D01*
G01X7708900Y1233414D01*
G01X7708900Y1233414D01*
G01X7687619Y1231442D01*
G01X7667063Y1225593D01*
G01X7647932Y1216067D01*
G01X7630877Y1203187D01*
G01X7616479Y1187393D01*
G01X7605228Y1169223D01*
G01X7597507Y1149294D01*
G01X7593580Y1128286D01*
G01X6747931Y1128286D01*
G01X6728231Y1147986D01*
G01X6705865Y1164729D01*
G01X6681344Y1178119D01*
G01X6655167Y1187882D01*
G01X6627867Y1193821D01*
G01X6600000Y1195814D01*
G01X6572133Y1193821D01*
G01X6544833Y1187882D01*
G01X6518656Y1178119D01*
G01X6494135Y1164729D01*
G01X6471769Y1147986D01*
G01X6452014Y1128231D01*
G01X6435271Y1105865D01*
G01X6421881Y1081344D01*
G01X6412118Y1055167D01*
G01X6406179Y1027867D01*
G01X6404186Y1000000D01*
G01X6404186Y1000000D01*
G01X467551Y1000000D01*
G01X478023Y1007908D01*
G01X492421Y1023702D01*
G01X503672Y1041873D01*
G01X511393Y1061801D01*
G01X515320Y1082809D01*
G01X515320Y1104181D01*
G01X511393Y1125189D01*
G01X505849Y1139500D01*
G01X4079186Y1139500D01*
G01X4081022Y1118521D01*
G01X4086472Y1098179D01*
G01X4095372Y1079093D01*
G01X4107451Y1061842D01*
G01X4122342Y1046951D01*
G01X4139593Y1034872D01*
G01X4158679Y1025972D01*
G01X4179021Y1020521D01*
G01X4200000Y1018686D01*
G01X4220979Y1020521D01*
G01X4241321Y1025972D01*
G01X4260407Y1034872D01*
G01X4277658Y1046951D01*
G01X4292549Y1061842D01*
G01X4304628Y1079093D01*
G01X4313528Y1098179D01*
G01X4318679Y1117404D01*
G01X4582386Y1117404D01*
G01X4584298Y1101654D01*
G01X4589925Y1086819D01*
G01X4598938Y1073761D01*
G01X4610813Y1063240D01*
G01X4624862Y1055867D01*
G01X4640267Y1052070D01*
G01X4656133Y1052070D01*
G01X4671538Y1055867D01*
G01X4685587Y1063240D01*
G01X4697462Y1073761D01*
G01X4706475Y1086819D01*
G01X4712102Y1101654D01*
G01X4714014Y1117404D01*
G01X4712693Y1128286D01*
G01X5307580Y1128286D01*
G01X5307580Y1106914D01*
G01X5311507Y1085906D01*
G01X5319228Y1065977D01*
G01X5330479Y1047807D01*
G01X5344877Y1032013D01*
G01X5361932Y1019133D01*
G01X5381063Y1009607D01*
G01X5401619Y1003758D01*
G01X5422900Y1001786D01*
G01X5444181Y1003758D01*
G01X5464737Y1009607D01*
G01X5483868Y1019133D01*
G01X5500923Y1032013D01*
G01X5515321Y1047807D01*
G01X5526572Y1065977D01*
G01X5534293Y1085906D01*
G01X5538220Y1106914D01*
G01X5538220Y1128286D01*
G01X5534293Y1149294D01*
G01X5526572Y1169223D01*
G01X5515321Y1187393D01*
G01X5500923Y1203187D01*
G01X5483868Y1216067D01*
G01X5464737Y1225593D01*
G01X5444181Y1231442D01*
G01X5422900Y1233414D01*
G01X5422900Y1233414D01*
G01X5401619Y1231442D01*
G01X5381063Y1225593D01*
G01X5361932Y1216067D01*
G01X5344877Y1203187D01*
G01X5330479Y1187393D01*
G01X5319228Y1169223D01*
G01X5311507Y1149294D01*
G01X5307580Y1128286D01*
G01X4712693Y1128286D01*
G01X4712102Y1133154D01*
G01X4706475Y1147989D01*
G01X4697462Y1161047D01*
G01X4685587Y1171568D01*
G01X4671538Y1178941D01*
G01X4656133Y1182738D01*
G01X4640267Y1182738D01*
G01X4624862Y1178941D01*
G01X4610813Y1171568D01*
G01X4598938Y1161047D01*
G01X4589925Y1147989D01*
G01X4584298Y1133154D01*
G01X4582386Y1117404D01*
G01X4582386Y1117404D01*
G01X4318679Y1117404D01*
G01X4318978Y1118521D01*
G01X4320814Y1139500D01*
G01X4318978Y1160479D01*
G01X4313528Y1180821D01*
G01X4304628Y1199907D01*
G01X4292549Y1217158D01*
G01X4277658Y1232049D01*
G01X4260407Y1244128D01*
G01X4241321Y1253028D01*
G01X4220979Y1258478D01*
G01X4200000Y1260314D01*
G01X4200000Y1260314D01*
G01X4179021Y1258478D01*
G01X4158679Y1253028D01*
G01X4139593Y1244128D01*
G01X4122342Y1232049D01*
G01X4107451Y1217158D01*
G01X4095372Y1199907D01*
G01X4086472Y1180821D01*
G01X4081022Y1160479D01*
G01X4079186Y1139500D01*
G01X505849Y1139500D01*
G01X503672Y1145118D01*
G01X492421Y1163289D01*
G01X478023Y1179083D01*
G01X460968Y1191962D01*
G01X441837Y1201489D01*
G01X421281Y1207337D01*
G01X400000Y1209309D01*
G01X378719Y1207337D01*
G01X358163Y1201489D01*
G01X339032Y1191962D01*
G01X321977Y1179083D01*
G01X307579Y1163289D01*
G01X296328Y1145118D01*
G01X288607Y1125189D01*
G01X284680Y1104181D01*
G01X35814Y1104181D01*
G01X35814Y1354194D01*
G01X284680Y1354194D01*
G01X284680Y1332822D01*
G01X288607Y1311814D01*
G01X296328Y1291885D01*
G01X307579Y1273714D01*
G01X321977Y1257920D01*
G01X339032Y1245041D01*
G01X358163Y1235514D01*
G01X378719Y1229666D01*
G01X400000Y1227694D01*
G01X400000Y1227694D01*
G01X421281Y1229666D01*
G01X441837Y1235514D01*
G01X460968Y1245041D01*
G01X478023Y1257920D01*
G01X492421Y1273714D01*
G01X500407Y1286612D01*
G01X2103186Y1286612D01*
G01X2105088Y1272166D01*
G01X2110664Y1258705D01*
G01X2119534Y1247145D01*
G01X2131093Y1238275D01*
G01X2144554Y1232699D01*
G01X2159000Y1230798D01*
G01X2173446Y1232699D01*
G01X2186907Y1238275D01*
G01X2198466Y1247145D01*
G01X2207336Y1258705D01*
G01X2212912Y1272166D01*
G01X2214814Y1286612D01*
G01X2212912Y1301057D01*
G01X2207336Y1314519D01*
G01X2198466Y1326078D01*
G01X2186907Y1334948D01*
G01X2173446Y1340524D01*
G01X2159000Y1342426D01*
G01X2144554Y1340524D01*
G01X2131093Y1334948D01*
G01X2119534Y1326078D01*
G01X2110664Y1314519D01*
G01X2105088Y1301057D01*
G01X2103186Y1286612D01*
G01X2103186Y1286612D01*
G01X500407Y1286612D01*
G01X503672Y1291885D01*
G01X511393Y1311814D01*
G01X515320Y1332822D01*
G01X515320Y1354194D01*
G01X511393Y1375202D01*
G01X507868Y1384300D01*
G01X2428580Y1384300D01*
G01X2430482Y1369854D01*
G01X2436058Y1356393D01*
G01X2444928Y1344834D01*
G01X2456487Y1335964D01*
G01X2469949Y1330388D01*
G01X2484394Y1328486D01*
G01X2498840Y1330388D01*
G01X2512301Y1335964D01*
G01X2523861Y1344834D01*
G01X2532731Y1356393D01*
G01X2538306Y1369854D01*
G01X2539599Y1379669D01*
G01X2576704Y1379669D01*
G01X2578801Y1366240D01*
G01X2584082Y1353715D01*
G01X2592233Y1342838D01*
G01X2602772Y1334255D01*
G01X2615073Y1328473D01*
G01X2628406Y1325835D01*
G01X2641982Y1326499D01*
G01X2654995Y1330425D01*
G01X2666673Y1337380D01*
G01X2676324Y1346951D01*
G01X2686582Y1338033D01*
G01X2698691Y1331859D01*
G01X2711933Y1328795D01*
G01X2725523Y1329023D01*
G01X2738655Y1332529D01*
G01X2750551Y1339105D01*
G01X2760504Y1348361D01*
G01X2767924Y1359749D01*
G01X2772372Y1372593D01*
G01X2773420Y1384300D01*
G01X3125892Y1384300D01*
G01X3127793Y1369854D01*
G01X3133369Y1356393D01*
G01X3142239Y1344834D01*
G01X3153799Y1335964D01*
G01X3167260Y1330388D01*
G01X3181706Y1328486D01*
G01X3196151Y1330388D01*
G01X3209613Y1335964D01*
G01X3221172Y1344834D01*
G01X3230042Y1356393D01*
G01X3235618Y1369854D01*
G01X3236493Y1376500D01*
G01X3289186Y1376500D01*
G01X3291088Y1362054D01*
G01X3296664Y1348593D01*
G01X3305533Y1337033D01*
G01X3317093Y1328164D01*
G01X3330554Y1322588D01*
G01X3345000Y1320686D01*
G01X3359446Y1322588D01*
G01X3372907Y1328164D01*
G01X3384466Y1337033D01*
G01X3393336Y1348593D01*
G01X3398912Y1362054D01*
G01X3400814Y1376500D01*
G01X3398912Y1390946D01*
G01X3397854Y1393500D01*
G01X4079186Y1393500D01*
G01X4081022Y1372521D01*
G01X4086472Y1352179D01*
G01X4095372Y1333093D01*
G01X4107451Y1315842D01*
G01X4122342Y1300951D01*
G01X4139593Y1288872D01*
G01X4158679Y1279972D01*
G01X4179021Y1274521D01*
G01X4200000Y1272686D01*
G01X4220979Y1274521D01*
G01X4241321Y1279972D01*
G01X4260407Y1288872D01*
G01X4277658Y1300951D01*
G01X4292549Y1315842D01*
G01X4304628Y1333093D01*
G01X4313528Y1352179D01*
G01X4318978Y1372521D01*
G01X4319833Y1382286D01*
G01X5307580Y1382286D01*
G01X5307580Y1360914D01*
G01X5311507Y1339906D01*
G01X5319228Y1319977D01*
G01X5330479Y1301807D01*
G01X5344877Y1286013D01*
G01X5361932Y1273133D01*
G01X5381063Y1263607D01*
G01X5401619Y1257758D01*
G01X5422900Y1255786D01*
G01X5444181Y1257758D01*
G01X5464737Y1263607D01*
G01X5483868Y1273133D01*
G01X5500923Y1286013D01*
G01X5515321Y1301807D01*
G01X5526572Y1319977D01*
G01X5534293Y1339906D01*
G01X5538220Y1360914D01*
G01X5538220Y1382286D01*
G01X5538220Y1382286D01*
G01X7593580Y1382286D01*
G01X7593580Y1360914D01*
G01X7597507Y1339906D01*
G01X7605228Y1319977D01*
G01X7616479Y1301807D01*
G01X7630877Y1286013D01*
G01X7647932Y1273133D01*
G01X7667063Y1263607D01*
G01X7687619Y1257758D01*
G01X7708900Y1255786D01*
G01X7730181Y1257758D01*
G01X7750737Y1263607D01*
G01X7769868Y1273133D01*
G01X7786923Y1286013D01*
G01X7801321Y1301807D01*
G01X7812572Y1319977D01*
G01X7820293Y1339906D01*
G01X7824220Y1360914D01*
G01X7824220Y1382286D01*
G01X7820293Y1403294D01*
G01X7812572Y1423223D01*
G01X7801321Y1441393D01*
G01X7786923Y1457187D01*
G01X7769868Y1470067D01*
G01X7750737Y1479593D01*
G01X7730181Y1485442D01*
G01X7708900Y1487414D01*
G01X7708900Y1487414D01*
G01X7687619Y1485442D01*
G01X7667063Y1479593D01*
G01X7647932Y1470067D01*
G01X7630877Y1457187D01*
G01X7616479Y1441393D01*
G01X7605228Y1423223D01*
G01X7597507Y1403294D01*
G01X7593580Y1382286D01*
G01X5538220Y1382286D01*
G01X5534293Y1403294D01*
G01X5526572Y1423223D01*
G01X5515321Y1441393D01*
G01X5500923Y1457187D01*
G01X5483868Y1470067D01*
G01X5464737Y1479593D01*
G01X5444181Y1485442D01*
G01X5422900Y1487414D01*
G01X5422900Y1487414D01*
G01X5401619Y1485442D01*
G01X5381063Y1479593D01*
G01X5361932Y1470067D01*
G01X5344877Y1457187D01*
G01X5330479Y1441393D01*
G01X5319228Y1423223D01*
G01X5311507Y1403294D01*
G01X5307580Y1382286D01*
G01X4319833Y1382286D01*
G01X4320814Y1393500D01*
G01X4318978Y1414479D01*
G01X4313528Y1434821D01*
G01X4304628Y1453907D01*
G01X4292549Y1471158D01*
G01X4277658Y1486049D01*
G01X4260407Y1498128D01*
G01X4241321Y1507028D01*
G01X4220979Y1512478D01*
G01X4200000Y1514314D01*
G01X4200000Y1514314D01*
G01X4179021Y1512478D01*
G01X4158679Y1507028D01*
G01X4139593Y1498128D01*
G01X4122342Y1486049D01*
G01X4107451Y1471158D01*
G01X4095372Y1453907D01*
G01X4086472Y1434821D01*
G01X4081022Y1414479D01*
G01X4079186Y1393500D01*
G01X3397854Y1393500D01*
G01X3393336Y1404407D01*
G01X3384466Y1415966D01*
G01X3372907Y1424836D01*
G01X3359446Y1430412D01*
G01X3345000Y1432314D01*
G01X3330554Y1430412D01*
G01X3317093Y1424836D01*
G01X3305533Y1415966D01*
G01X3296664Y1404407D01*
G01X3291088Y1390946D01*
G01X3289186Y1376500D01*
G01X3289186Y1376500D01*
G01X3236493Y1376500D01*
G01X3237520Y1384300D01*
G01X3235618Y1398746D01*
G01X3230042Y1412207D01*
G01X3221172Y1423766D01*
G01X3209613Y1432636D01*
G01X3196151Y1438212D01*
G01X3181706Y1440114D01*
G01X3167260Y1438212D01*
G01X3153799Y1432636D01*
G01X3142239Y1423766D01*
G01X3133369Y1412207D01*
G01X3127793Y1398746D01*
G01X3125892Y1384300D01*
G01X3125892Y1384300D01*
G01X2773420Y1384300D01*
G01X2773584Y1386131D01*
G01X2771487Y1399560D01*
G01X2766207Y1412085D01*
G01X2758055Y1422961D01*
G01X2747517Y1431545D01*
G01X2735216Y1437327D01*
G01X2721882Y1439965D01*
G01X2708306Y1439301D01*
G01X2695293Y1435375D01*
G01X2683615Y1428420D01*
G01X2673964Y1418849D01*
G01X2663707Y1427767D01*
G01X2651598Y1433941D01*
G01X2638355Y1437005D01*
G01X2624765Y1436777D01*
G01X2611633Y1433271D01*
G01X2599738Y1426695D01*
G01X2589784Y1417438D01*
G01X2582364Y1406051D01*
G01X2577916Y1393207D01*
G01X2576704Y1379669D01*
G01X2576704Y1379669D01*
G01X2539599Y1379669D01*
G01X2540208Y1384300D01*
G01X2538306Y1398746D01*
G01X2532731Y1412207D01*
G01X2523861Y1423766D01*
G01X2512301Y1432636D01*
G01X2498840Y1438212D01*
G01X2484394Y1440114D01*
G01X2469949Y1438212D01*
G01X2456487Y1432636D01*
G01X2444928Y1423766D01*
G01X2436058Y1412207D01*
G01X2430482Y1398746D01*
G01X2428580Y1384300D01*
G01X2428580Y1384300D01*
G01X507868Y1384300D01*
G01X503672Y1395130D01*
G01X492421Y1413301D01*
G01X478023Y1429095D01*
G01X460968Y1441975D01*
G01X441837Y1451501D01*
G01X421281Y1457349D01*
G01X400000Y1459321D01*
G01X378719Y1457349D01*
G01X358163Y1451501D01*
G01X339032Y1441975D01*
G01X321977Y1429095D01*
G01X307579Y1413301D01*
G01X296328Y1395130D01*
G01X288607Y1375202D01*
G01X284680Y1354194D01*
G01X35814Y1354194D01*
G01X35814Y1604180D01*
G01X284680Y1604180D01*
G01X284680Y1582808D01*
G01X288607Y1561800D01*
G01X296328Y1541872D01*
G01X307579Y1523701D01*
G01X321977Y1507907D01*
G01X339032Y1495027D01*
G01X358163Y1485501D01*
G01X378719Y1479653D01*
G01X400000Y1477681D01*
G01X400000Y1477681D01*
G01X421281Y1479653D01*
G01X441837Y1485501D01*
G01X460968Y1495027D01*
G01X478023Y1507907D01*
G01X492421Y1523701D01*
G01X503672Y1541872D01*
G01X511393Y1561800D01*
G01X515320Y1582808D01*
G01X515320Y1604180D01*
G01X511393Y1625188D01*
G01X503672Y1645117D01*
G01X500030Y1651000D01*
G01X2525893Y1651000D01*
G01X2527795Y1636554D01*
G01X2533370Y1623093D01*
G01X2542240Y1611534D01*
G01X2553800Y1602664D01*
G01X2567261Y1597088D01*
G01X2581707Y1595186D01*
G01X2596153Y1597088D01*
G01X2609614Y1602664D01*
G01X2621173Y1611534D01*
G01X2630043Y1623093D01*
G01X2635619Y1636554D01*
G01X2637521Y1651000D01*
G01X2675880Y1651000D01*
G01X2675880Y1651000D01*
G01X2677874Y1636214D01*
G01X2683714Y1622485D01*
G01X2692982Y1610794D01*
G01X2705016Y1601975D01*
G01X2718956Y1596659D01*
G01X2733806Y1595226D01*
G01X2748506Y1597778D01*
G01X2762004Y1604133D01*
G01X2773337Y1613837D01*
G01X2781694Y1626197D01*
G01X2790051Y1613837D01*
G01X2801383Y1604133D01*
G01X2814881Y1597778D01*
G01X2829581Y1595226D01*
G01X2844431Y1596659D01*
G01X2858372Y1601975D01*
G01X2870406Y1610794D01*
G01X2879674Y1622485D01*
G01X2885514Y1636214D01*
G01X2887036Y1647500D01*
G01X4079186Y1647500D01*
G01X4081022Y1626521D01*
G01X4086472Y1606179D01*
G01X4095372Y1587093D01*
G01X4107451Y1569842D01*
G01X4122342Y1554951D01*
G01X4139593Y1542872D01*
G01X4158679Y1533972D01*
G01X4179021Y1528521D01*
G01X4200000Y1526686D01*
G01X4220979Y1528521D01*
G01X4241321Y1533972D01*
G01X4260407Y1542872D01*
G01X4277658Y1554951D01*
G01X4292549Y1569842D01*
G01X4304628Y1587093D01*
G01X4313528Y1606179D01*
G01X4318978Y1626521D01*
G01X4319833Y1636286D01*
G01X5307580Y1636286D01*
G01X5307580Y1614914D01*
G01X5311507Y1593906D01*
G01X5319228Y1573977D01*
G01X5330479Y1555807D01*
G01X5344877Y1540013D01*
G01X5361932Y1527133D01*
G01X5381063Y1517607D01*
G01X5401619Y1511758D01*
G01X5422900Y1509786D01*
G01X5444181Y1511758D01*
G01X5464737Y1517607D01*
G01X5483868Y1527133D01*
G01X5500923Y1540013D01*
G01X5515321Y1555807D01*
G01X5526572Y1573977D01*
G01X5534293Y1593906D01*
G01X5538220Y1614914D01*
G01X5538220Y1636286D01*
G01X5538220Y1636286D01*
G01X7593580Y1636286D01*
G01X7593580Y1614914D01*
G01X7597507Y1593906D01*
G01X7605228Y1573977D01*
G01X7616479Y1555807D01*
G01X7630877Y1540013D01*
G01X7647932Y1527133D01*
G01X7667063Y1517607D01*
G01X7687619Y1511758D01*
G01X7708900Y1509786D01*
G01X7730181Y1511758D01*
G01X7750737Y1517607D01*
G01X7769868Y1527133D01*
G01X7786923Y1540013D01*
G01X7801321Y1555807D01*
G01X7812572Y1573977D01*
G01X7820293Y1593906D01*
G01X7824220Y1614914D01*
G01X7824220Y1636286D01*
G01X7820293Y1657294D01*
G01X7812572Y1677223D01*
G01X7801321Y1695393D01*
G01X7786923Y1711187D01*
G01X7769868Y1724067D01*
G01X7750737Y1733593D01*
G01X7730181Y1739442D01*
G01X7708900Y1741414D01*
G01X7708900Y1741414D01*
G01X7687619Y1739442D01*
G01X7667063Y1733593D01*
G01X7647932Y1724067D01*
G01X7630877Y1711187D01*
G01X7616479Y1695393D01*
G01X7605228Y1677223D01*
G01X7597507Y1657294D01*
G01X7593580Y1636286D01*
G01X5538220Y1636286D01*
G01X5534293Y1657294D01*
G01X5526572Y1677223D01*
G01X5515321Y1695393D01*
G01X5500923Y1711187D01*
G01X5483868Y1724067D01*
G01X5464737Y1733593D01*
G01X5444181Y1739442D01*
G01X5422900Y1741414D01*
G01X5422900Y1741414D01*
G01X5401619Y1739442D01*
G01X5381063Y1733593D01*
G01X5361932Y1724067D01*
G01X5344877Y1711187D01*
G01X5330479Y1695393D01*
G01X5319228Y1677223D01*
G01X5311507Y1657294D01*
G01X5307580Y1636286D01*
G01X4319833Y1636286D01*
G01X4320814Y1647500D01*
G01X4318978Y1668479D01*
G01X4313528Y1688821D01*
G01X4304628Y1707907D01*
G01X4292549Y1725158D01*
G01X4277658Y1740049D01*
G01X4260407Y1752128D01*
G01X4241321Y1761028D01*
G01X4220979Y1766478D01*
G01X4200000Y1768314D01*
G01X4200000Y1768314D01*
G01X4179021Y1766478D01*
G01X4158679Y1761028D01*
G01X4139593Y1752128D01*
G01X4122342Y1740049D01*
G01X4107451Y1725158D01*
G01X4095372Y1707907D01*
G01X4086472Y1688821D01*
G01X4081022Y1668479D01*
G01X4079186Y1647500D01*
G01X2887036Y1647500D01*
G01X2887508Y1651000D01*
G01X2885514Y1665786D01*
G01X2879674Y1679515D01*
G01X2870406Y1691206D01*
G01X2858372Y1700025D01*
G01X2844431Y1705341D01*
G01X2829581Y1706774D01*
G01X2814881Y1704222D01*
G01X2801383Y1697867D01*
G01X2790051Y1688163D01*
G01X2781694Y1675803D01*
G01X2773337Y1688163D01*
G01X2762004Y1697867D01*
G01X2748506Y1704222D01*
G01X2733806Y1706774D01*
G01X2718956Y1705341D01*
G01X2705016Y1700025D01*
G01X2692982Y1691206D01*
G01X2683714Y1679515D01*
G01X2677874Y1665786D01*
G01X2675880Y1651000D01*
G01X2637521Y1651000D01*
G01X2635619Y1665446D01*
G01X2630043Y1678907D01*
G01X2621173Y1690466D01*
G01X2609614Y1699336D01*
G01X2596153Y1704912D01*
G01X2581707Y1706814D01*
G01X2567261Y1704912D01*
G01X2553800Y1699336D01*
G01X2542240Y1690466D01*
G01X2533370Y1678907D01*
G01X2527795Y1665446D01*
G01X2525893Y1651000D01*
G01X2525893Y1651000D01*
G01X500030Y1651000D01*
G01X492421Y1663288D01*
G01X478023Y1679082D01*
G01X460968Y1691961D01*
G01X441837Y1701488D01*
G01X421281Y1707336D01*
G01X400000Y1709308D01*
G01X378719Y1707336D01*
G01X358163Y1701488D01*
G01X339032Y1691961D01*
G01X321977Y1679082D01*
G01X307579Y1663288D01*
G01X296328Y1645117D01*
G01X288607Y1625188D01*
G01X284680Y1604180D01*
G01X35814Y1604180D01*
G01X35814Y1854193D01*
G01X284680Y1854193D01*
G01X284680Y1832821D01*
G01X288607Y1811813D01*
G01X296328Y1791884D01*
G01X307579Y1773713D01*
G01X321977Y1757919D01*
G01X339032Y1745040D01*
G01X358163Y1735513D01*
G01X378719Y1729665D01*
G01X400000Y1727693D01*
G01X400000Y1727693D01*
G01X421281Y1729665D01*
G01X429448Y1731988D01*
G01X2915986Y1731988D01*
G01X2917888Y1717543D01*
G01X2923464Y1704081D01*
G01X2932334Y1692522D01*
G01X2943893Y1683652D01*
G01X2957354Y1678076D01*
G01X2971800Y1676174D01*
G01X2986246Y1678076D01*
G01X2999707Y1683652D01*
G01X3011266Y1692522D01*
G01X3020136Y1704081D01*
G01X3025712Y1717543D01*
G01X3027614Y1731988D01*
G01X3025712Y1746434D01*
G01X3020136Y1759895D01*
G01X3011266Y1771455D01*
G01X2999707Y1780325D01*
G01X2986246Y1785901D01*
G01X2971800Y1787802D01*
G01X2957354Y1785901D01*
G01X2943893Y1780325D01*
G01X2932334Y1771455D01*
G01X2923464Y1759895D01*
G01X2917888Y1746434D01*
G01X2915986Y1731988D01*
G01X2915986Y1731988D01*
G01X429448Y1731988D01*
G01X441837Y1735513D01*
G01X460968Y1745040D01*
G01X478023Y1757919D01*
G01X492421Y1773713D01*
G01X503672Y1791884D01*
G01X504916Y1795094D01*
G01X3169986Y1795094D01*
G01X3171888Y1780648D01*
G01X3177464Y1767187D01*
G01X3186334Y1755628D01*
G01X3197893Y1746758D01*
G01X3211354Y1741182D01*
G01X3225800Y1739280D01*
G01X3240246Y1741182D01*
G01X3253707Y1746758D01*
G01X3265266Y1755628D01*
G01X3274136Y1767187D01*
G01X3279712Y1780648D01*
G01X3281614Y1795094D01*
G01X3279712Y1809540D01*
G01X3274136Y1823001D01*
G01X3265266Y1834561D01*
G01X3253707Y1843431D01*
G01X3249660Y1845107D01*
G01X3474786Y1845107D01*
G01X3476157Y1832814D01*
G01X3480201Y1821126D01*
G01X3486720Y1810615D01*
G01X3495394Y1801797D01*
G01X3505797Y1795107D01*
G01X3493437Y1786750D01*
G01X3483733Y1775417D01*
G01X3477378Y1761919D01*
G01X3474826Y1747220D01*
G01X3476259Y1732369D01*
G01X3481575Y1718429D01*
G01X3490394Y1706395D01*
G01X3502085Y1697127D01*
G01X3515814Y1691287D01*
G01X3530600Y1689293D01*
G01X3530600Y1689293D01*
G01X3545386Y1691287D01*
G01X3559115Y1697127D01*
G01X3570806Y1706395D01*
G01X3579625Y1718429D01*
G01X3584941Y1732369D01*
G01X3586374Y1747220D01*
G01X3583822Y1761919D01*
G01X3577467Y1775417D01*
G01X3567763Y1786750D01*
G01X3555403Y1795107D01*
G01X3567171Y1802943D01*
G01X3576591Y1813484D01*
G01X3583061Y1826054D01*
G01X3586166Y1839847D01*
G01X3599265Y1839520D01*
G01X3612079Y1842255D01*
G01X3623903Y1847903D01*
G01X3634084Y1856152D01*
G01X3642061Y1866547D01*
G01X3647395Y1878516D01*
G01X3649791Y1891399D01*
G01X3649272Y1901500D01*
G01X4079186Y1901500D01*
G01X4081022Y1880521D01*
G01X4086472Y1860179D01*
G01X4095372Y1841093D01*
G01X4107451Y1823842D01*
G01X4122342Y1808951D01*
G01X4139593Y1796872D01*
G01X4158679Y1787972D01*
G01X4179021Y1782521D01*
G01X4200000Y1780686D01*
G01X4220979Y1782521D01*
G01X4241321Y1787972D01*
G01X4260407Y1796872D01*
G01X4277658Y1808951D01*
G01X4292549Y1823842D01*
G01X4304628Y1841093D01*
G01X4313528Y1860179D01*
G01X4318978Y1880521D01*
G01X4319833Y1890286D01*
G01X5307580Y1890286D01*
G01X5307580Y1868914D01*
G01X5311507Y1847906D01*
G01X5319228Y1827977D01*
G01X5330479Y1809807D01*
G01X5344877Y1794013D01*
G01X5361932Y1781133D01*
G01X5381063Y1771607D01*
G01X5401619Y1765758D01*
G01X5422900Y1763786D01*
G01X5444181Y1765758D01*
G01X5464737Y1771607D01*
G01X5483868Y1781133D01*
G01X5500923Y1794013D01*
G01X5515321Y1809807D01*
G01X5526572Y1827977D01*
G01X5534293Y1847906D01*
G01X5538220Y1868914D01*
G01X5538220Y1879600D01*
G01X6852986Y1879600D01*
G01X6854888Y1865154D01*
G01X6860464Y1851693D01*
G01X6869334Y1840134D01*
G01X6880893Y1831264D01*
G01X6894354Y1825688D01*
G01X6908800Y1823786D01*
G01X6923246Y1825688D01*
G01X6936707Y1831264D01*
G01X6948266Y1840134D01*
G01X6957136Y1851693D01*
G01X6962712Y1865154D01*
G01X6964614Y1879600D01*
G01X6963207Y1890286D01*
G01X7593580Y1890286D01*
G01X7593580Y1868914D01*
G01X7597507Y1847906D01*
G01X7605228Y1827977D01*
G01X7616479Y1809807D01*
G01X7630877Y1794013D01*
G01X7647932Y1781133D01*
G01X7667063Y1771607D01*
G01X7687619Y1765758D01*
G01X7708900Y1763786D01*
G01X7730181Y1765758D01*
G01X7750737Y1771607D01*
G01X7769868Y1781133D01*
G01X7786923Y1794013D01*
G01X7801321Y1809807D01*
G01X7812572Y1827977D01*
G01X7820293Y1847906D01*
G01X7824220Y1868914D01*
G01X7824220Y1890286D01*
G01X7820293Y1911294D01*
G01X7812572Y1931223D01*
G01X7801321Y1949393D01*
G01X7786923Y1965187D01*
G01X7769868Y1978067D01*
G01X7750737Y1987593D01*
G01X7730181Y1993442D01*
G01X7708900Y1995414D01*
G01X7708900Y1995414D01*
G01X7687619Y1993442D01*
G01X7667063Y1987593D01*
G01X7647932Y1978067D01*
G01X7630877Y1965187D01*
G01X7616479Y1949393D01*
G01X7605228Y1931223D01*
G01X7597507Y1911294D01*
G01X7593580Y1890286D01*
G01X6963207Y1890286D01*
G01X6962712Y1894046D01*
G01X6957136Y1907507D01*
G01X6948266Y1919066D01*
G01X6936707Y1927936D01*
G01X6923246Y1933512D01*
G01X6908800Y1935414D01*
G01X6894354Y1933512D01*
G01X6880893Y1927936D01*
G01X6869334Y1919066D01*
G01X6860464Y1907507D01*
G01X6854888Y1894046D01*
G01X6852986Y1879600D01*
G01X6852986Y1879600D01*
G01X5538220Y1879600D01*
G01X5538220Y1890286D01*
G01X5534293Y1911294D01*
G01X5526572Y1931223D01*
G01X5515321Y1949393D01*
G01X5500923Y1965187D01*
G01X5483868Y1978067D01*
G01X5464737Y1987593D01*
G01X5444181Y1993442D01*
G01X5422900Y1995414D01*
G01X5422900Y1995414D01*
G01X5401619Y1993442D01*
G01X5381063Y1987593D01*
G01X5361932Y1978067D01*
G01X5344877Y1965187D01*
G01X5330479Y1949393D01*
G01X5319228Y1931223D01*
G01X5311507Y1911294D01*
G01X5307580Y1890286D01*
G01X4319833Y1890286D01*
G01X4320814Y1901500D01*
G01X4318978Y1922479D01*
G01X4313528Y1942821D01*
G01X4304628Y1961907D01*
G01X4292549Y1979158D01*
G01X4277658Y1994049D01*
G01X4260407Y2006128D01*
G01X4241321Y2015028D01*
G01X4220979Y2020478D01*
G01X4200000Y2022314D01*
G01X4200000Y2022314D01*
G01X4179021Y2020478D01*
G01X4158679Y2015028D01*
G01X4139593Y2006128D01*
G01X4122342Y1994049D01*
G01X4107451Y1979158D01*
G01X4095372Y1961907D01*
G01X4086472Y1942821D01*
G01X4081022Y1922479D01*
G01X4079186Y1901500D01*
G01X3649272Y1901500D01*
G01X3649118Y1904485D01*
G01X3645413Y1917053D01*
G01X3638879Y1928411D01*
G01X3629877Y1937933D01*
G01X3618903Y1945094D01*
G01X3629880Y1952257D01*
G01X3638883Y1961781D01*
G01X3645416Y1973143D01*
G01X3649120Y1985715D01*
G01X3649790Y1998805D01*
G01X3647390Y2011689D01*
G01X3642050Y2023659D01*
G01X3634067Y2034053D01*
G01X3623880Y2042300D01*
G01X3612050Y2047943D01*
G01X3599231Y2050671D01*
G01X3586129Y2050336D01*
G01X3582835Y2064365D01*
G01X3576059Y2077083D01*
G01X3566253Y2087643D01*
G01X3554070Y2095340D01*
G01X3540322Y2099661D01*
G01X3525927Y2100318D01*
G01X3511842Y2097268D01*
G01X3499009Y2090713D01*
G01X3488281Y2081091D01*
G01X3480374Y2069043D01*
G01X3475816Y2055372D01*
G01X3474909Y2040990D01*
G01X3477716Y2026855D01*
G01X3484047Y2013910D01*
G01X3493482Y2003017D01*
G01X3505391Y1994903D01*
G01X3495078Y1988157D01*
G01X3486496Y1979313D01*
G01X3480065Y1968801D01*
G01X3476097Y1957133D01*
G01X3474787Y1944880D01*
G01X3476197Y1932637D01*
G01X3480259Y1921003D01*
G01X3486776Y1910543D01*
G01X3495429Y1901768D01*
G01X3505797Y1895107D01*
G01X3495394Y1888416D01*
G01X3486720Y1879599D01*
G01X3480201Y1869088D01*
G01X3476157Y1857399D01*
G01X3474786Y1845107D01*
G01X3249660Y1845107D01*
G01X3240246Y1849006D01*
G01X3225800Y1850908D01*
G01X3211354Y1849006D01*
G01X3197893Y1843431D01*
G01X3186334Y1834561D01*
G01X3177464Y1823001D01*
G01X3171888Y1809540D01*
G01X3169986Y1795094D01*
G01X3169986Y1795094D01*
G01X504916Y1795094D01*
G01X511393Y1811813D01*
G01X515320Y1832821D01*
G01X515320Y1854193D01*
G01X511393Y1875201D01*
G01X503672Y1895129D01*
G01X492421Y1913300D01*
G01X488410Y1917700D01*
G01X3081198Y1917700D01*
G01X3083099Y1903254D01*
G01X3088675Y1889793D01*
G01X3097545Y1878234D01*
G01X3109105Y1869364D01*
G01X3122566Y1863788D01*
G01X3137012Y1861886D01*
G01X3151457Y1863788D01*
G01X3164918Y1869364D01*
G01X3176478Y1878234D01*
G01X3185348Y1889793D01*
G01X3190924Y1903254D01*
G01X3192825Y1917700D01*
G01X3190924Y1932146D01*
G01X3185348Y1945607D01*
G01X3176478Y1957166D01*
G01X3164918Y1966036D01*
G01X3151457Y1971612D01*
G01X3137012Y1973514D01*
G01X3122566Y1971612D01*
G01X3109105Y1966036D01*
G01X3097545Y1957166D01*
G01X3088675Y1945607D01*
G01X3083099Y1932146D01*
G01X3081198Y1917700D01*
G01X3081198Y1917700D01*
G01X488410Y1917700D01*
G01X478023Y1929094D01*
G01X460968Y1941974D01*
G01X441837Y1951500D01*
G01X421281Y1957348D01*
G01X400000Y1959320D01*
G01X378719Y1957348D01*
G01X358163Y1951500D01*
G01X339032Y1941974D01*
G01X321977Y1929094D01*
G01X307579Y1913300D01*
G01X296328Y1895129D01*
G01X288607Y1875201D01*
G01X284680Y1854193D01*
G01X35814Y1854193D01*
G01X35814Y2104179D01*
G01X284680Y2104179D01*
G01X284680Y2082807D01*
G01X288607Y2061799D01*
G01X296328Y2041871D01*
G01X307579Y2023700D01*
G01X321977Y2007906D01*
G01X339032Y1995026D01*
G01X358163Y1985500D01*
G01X378719Y1979652D01*
G01X400000Y1977680D01*
G01X400000Y1977680D01*
G01X421281Y1979652D01*
G01X441837Y1985500D01*
G01X460968Y1995026D01*
G01X478023Y2007906D01*
G01X492421Y2023700D01*
G01X503672Y2041871D01*
G01X511393Y2061799D01*
G01X515320Y2082807D01*
G01X515320Y2104179D01*
G01X511393Y2125187D01*
G01X503672Y2145116D01*
G01X492421Y2163287D01*
G01X478023Y2179081D01*
G01X460968Y2191960D01*
G01X454676Y2195093D01*
G01X3474786Y2195093D01*
G01X3476688Y2180648D01*
G01X3482264Y2167186D01*
G01X3491134Y2155627D01*
G01X3502693Y2146757D01*
G01X3516154Y2141181D01*
G01X3530600Y2139279D01*
G01X3545046Y2141181D01*
G01X3558507Y2146757D01*
G01X3569901Y2155500D01*
G01X4079186Y2155500D01*
G01X4081022Y2134521D01*
G01X4086472Y2114179D01*
G01X4095372Y2095093D01*
G01X4107451Y2077842D01*
G01X4122342Y2062951D01*
G01X4139593Y2050872D01*
G01X4158679Y2041972D01*
G01X4179021Y2036521D01*
G01X4200000Y2034686D01*
G01X4220979Y2036521D01*
G01X4241321Y2041972D01*
G01X4260407Y2050872D01*
G01X4277658Y2062951D01*
G01X4292549Y2077842D01*
G01X4304628Y2095093D01*
G01X4313528Y2114179D01*
G01X4318978Y2134521D01*
G01X4319833Y2144286D01*
G01X5307580Y2144286D01*
G01X5307580Y2122914D01*
G01X5311507Y2101906D01*
G01X5319228Y2081977D01*
G01X5330479Y2063807D01*
G01X5344877Y2048013D01*
G01X5361932Y2035133D01*
G01X5381063Y2025607D01*
G01X5401619Y2019758D01*
G01X5422900Y2017786D01*
G01X5444181Y2019758D01*
G01X5464737Y2025607D01*
G01X5483868Y2035133D01*
G01X5500923Y2048013D01*
G01X5515321Y2063807D01*
G01X5526572Y2081977D01*
G01X5534293Y2101906D01*
G01X5538220Y2122914D01*
G01X5538220Y2144286D01*
G01X5538220Y2144286D01*
G01X7593580Y2144286D01*
G01X7593580Y2122914D01*
G01X7597507Y2101906D01*
G01X7605228Y2081977D01*
G01X7616479Y2063807D01*
G01X7630877Y2048013D01*
G01X7647932Y2035133D01*
G01X7667063Y2025607D01*
G01X7687619Y2019758D01*
G01X7708900Y2017786D01*
G01X7730181Y2019758D01*
G01X7750737Y2025607D01*
G01X7769868Y2035133D01*
G01X7786923Y2048013D01*
G01X7801321Y2063807D01*
G01X7812572Y2081977D01*
G01X7820293Y2101906D01*
G01X7824220Y2122914D01*
G01X7824220Y2144286D01*
G01X7820293Y2165294D01*
G01X7812572Y2185223D01*
G01X7801321Y2203393D01*
G01X7786923Y2219187D01*
G01X7769868Y2232067D01*
G01X7750737Y2241593D01*
G01X7730181Y2247442D01*
G01X7708900Y2249414D01*
G01X7708900Y2249414D01*
G01X7687619Y2247442D01*
G01X7667063Y2241593D01*
G01X7647932Y2232067D01*
G01X7630877Y2219187D01*
G01X7616479Y2203393D01*
G01X7605228Y2185223D01*
G01X7597507Y2165294D01*
G01X7593580Y2144286D01*
G01X5538220Y2144286D01*
G01X5534293Y2165294D01*
G01X5526572Y2185223D01*
G01X5515321Y2203393D01*
G01X5500923Y2219187D01*
G01X5483868Y2232067D01*
G01X5464737Y2241593D01*
G01X5444181Y2247442D01*
G01X5422900Y2249414D01*
G01X5422900Y2249414D01*
G01X5401619Y2247442D01*
G01X5381063Y2241593D01*
G01X5361932Y2232067D01*
G01X5344877Y2219187D01*
G01X5330479Y2203393D01*
G01X5319228Y2185223D01*
G01X5311507Y2165294D01*
G01X5307580Y2144286D01*
G01X4319833Y2144286D01*
G01X4320814Y2155500D01*
G01X4318978Y2176479D01*
G01X4313528Y2196821D01*
G01X4304628Y2215907D01*
G01X4292549Y2233158D01*
G01X4277658Y2248049D01*
G01X4260407Y2260128D01*
G01X4241321Y2269028D01*
G01X4220979Y2274478D01*
G01X4200000Y2276314D01*
G01X4200000Y2276314D01*
G01X4179021Y2274478D01*
G01X4158679Y2269028D01*
G01X4139593Y2260128D01*
G01X4122342Y2248049D01*
G01X4107451Y2233158D01*
G01X4095372Y2215907D01*
G01X4086472Y2196821D01*
G01X4081022Y2176479D01*
G01X4079186Y2155500D01*
G01X3569901Y2155500D01*
G01X3570066Y2155627D01*
G01X3578936Y2167186D01*
G01X3584512Y2180648D01*
G01X3586414Y2195093D01*
G01X3584512Y2209539D01*
G01X3578936Y2223000D01*
G01X3570066Y2234560D01*
G01X3558507Y2243430D01*
G01X3545046Y2249006D01*
G01X3530600Y2250907D01*
G01X3516154Y2249006D01*
G01X3502693Y2243430D01*
G01X3491134Y2234560D01*
G01X3482264Y2223000D01*
G01X3476688Y2209539D01*
G01X3474786Y2195093D01*
G01X3474786Y2195093D01*
G01X454676Y2195093D01*
G01X441837Y2201487D01*
G01X421281Y2207335D01*
G01X400000Y2209307D01*
G01X378719Y2207335D01*
G01X358163Y2201487D01*
G01X339032Y2191960D01*
G01X321977Y2179081D01*
G01X307579Y2163287D01*
G01X296328Y2145116D01*
G01X288607Y2125187D01*
G01X284680Y2104179D01*
G01X35814Y2104179D01*
G01X35814Y2354192D01*
G01X284680Y2354192D01*
G01X284680Y2332820D01*
G01X288607Y2311812D01*
G01X296328Y2291883D01*
G01X307579Y2273712D01*
G01X321977Y2257918D01*
G01X339032Y2245039D01*
G01X358163Y2235512D01*
G01X378719Y2229664D01*
G01X400000Y2227692D01*
G01X400000Y2227692D01*
G01X421281Y2229664D01*
G01X441837Y2235512D01*
G01X460968Y2245039D01*
G01X478023Y2257918D01*
G01X492421Y2273712D01*
G01X503672Y2291883D01*
G01X511393Y2311812D01*
G01X515320Y2332820D01*
G01X515320Y2354192D01*
G01X511393Y2375200D01*
G01X503672Y2395128D01*
G01X492421Y2413299D01*
G01X478023Y2429093D01*
G01X460968Y2441973D01*
G01X441837Y2451499D01*
G01X421281Y2457347D01*
G01X400000Y2459319D01*
G01X378719Y2457347D01*
G01X358163Y2451499D01*
G01X339032Y2441973D01*
G01X321977Y2429093D01*
G01X307579Y2413299D01*
G01X296328Y2395128D01*
G01X288607Y2375200D01*
G01X284680Y2354192D01*
G01X35814Y2354192D01*
G01X35814Y2604178D01*
G01X284680Y2604178D01*
G01X284680Y2582806D01*
G01X288607Y2561798D01*
G01X296328Y2541870D01*
G01X307579Y2523699D01*
G01X321977Y2507905D01*
G01X339032Y2495025D01*
G01X358163Y2485499D01*
G01X378719Y2479651D01*
G01X400000Y2477679D01*
G01X400000Y2477679D01*
G01X421281Y2479651D01*
G01X441837Y2485499D01*
G01X449269Y2489200D01*
G01X2585786Y2489200D01*
G01X2587634Y2474958D01*
G01X2593054Y2461660D01*
G01X2601688Y2450184D01*
G01X2612965Y2441292D01*
G01X2626137Y2435571D01*
G01X2640333Y2433400D01*
G01X2654613Y2434924D01*
G01X2668031Y2440041D01*
G01X2679700Y2448413D01*
G01X2689848Y2440890D01*
G01X2701428Y2435841D01*
G01X2713846Y2433526D01*
G01X2726467Y2434063D01*
G01X2738644Y2437424D01*
G01X2749753Y2443438D01*
G01X2760820Y2437442D01*
G01X2772948Y2434077D01*
G01X2785522Y2433517D01*
G01X2797902Y2435787D01*
G01X2809458Y2440774D01*
G01X2819603Y2448224D01*
G01X2831286Y2439925D01*
G01X2844697Y2434874D01*
G01X2858952Y2433405D01*
G01X2873111Y2435614D01*
G01X2886241Y2441355D01*
G01X2897476Y2450250D01*
G01X2906076Y2461713D01*
G01X2911474Y2474988D01*
G01X2913314Y2489200D01*
G01X2966786Y2489200D01*
G01X2968688Y2474754D01*
G01X2974264Y2461293D01*
G01X2983134Y2449734D01*
G01X2994693Y2440864D01*
G01X3008154Y2435288D01*
G01X3022600Y2433386D01*
G01X3037046Y2435288D01*
G01X3043764Y2438071D01*
G01X3475231Y2438071D01*
G01X3478996Y2423840D01*
G01X3486350Y2411089D01*
G01X3496782Y2400704D01*
G01X3509566Y2393407D01*
G01X3523813Y2389706D01*
G01X3538532Y2389858D01*
G01X3541833Y2375513D01*
G01X3548770Y2362530D01*
G01X3558859Y2351812D01*
G01X3571400Y2344104D01*
G01X3585519Y2339943D01*
G01X3600236Y2339617D01*
G01X3614525Y2343151D01*
G01X3627394Y2350297D01*
G01X3637947Y2360559D01*
G01X3645451Y2373223D01*
G01X3649382Y2387408D01*
G01X3649469Y2402128D01*
G01X3647519Y2409500D01*
G01X4079186Y2409500D01*
G01X4081022Y2388521D01*
G01X4086472Y2368179D01*
G01X4095372Y2349093D01*
G01X4107451Y2331842D01*
G01X4122342Y2316951D01*
G01X4139593Y2304872D01*
G01X4158679Y2295972D01*
G01X4179021Y2290521D01*
G01X4200000Y2288686D01*
G01X4220979Y2290521D01*
G01X4241321Y2295972D01*
G01X4260407Y2304872D01*
G01X4277658Y2316951D01*
G01X4292549Y2331842D01*
G01X4304628Y2349093D01*
G01X4313528Y2368179D01*
G01X4318978Y2388521D01*
G01X4319833Y2398286D01*
G01X5307580Y2398286D01*
G01X5307580Y2376914D01*
G01X5311507Y2355906D01*
G01X5319228Y2335977D01*
G01X5330479Y2317807D01*
G01X5344877Y2302013D01*
G01X5361932Y2289133D01*
G01X5381063Y2279607D01*
G01X5401619Y2273758D01*
G01X5422900Y2271786D01*
G01X5444181Y2273758D01*
G01X5464737Y2279607D01*
G01X5483868Y2289133D01*
G01X5500923Y2302013D01*
G01X5515321Y2317807D01*
G01X5526572Y2335977D01*
G01X5534293Y2355906D01*
G01X5538220Y2376914D01*
G01X5538220Y2398286D01*
G01X5538220Y2398286D01*
G01X7593580Y2398286D01*
G01X7593580Y2376914D01*
G01X7597507Y2355906D01*
G01X7605228Y2335977D01*
G01X7616479Y2317807D01*
G01X7630877Y2302013D01*
G01X7647932Y2289133D01*
G01X7667063Y2279607D01*
G01X7687619Y2273758D01*
G01X7708900Y2271786D01*
G01X7730181Y2273758D01*
G01X7750737Y2279607D01*
G01X7769868Y2289133D01*
G01X7786923Y2302013D01*
G01X7801321Y2317807D01*
G01X7812572Y2335977D01*
G01X7820293Y2355906D01*
G01X7824220Y2376914D01*
G01X7824220Y2398286D01*
G01X7820293Y2419294D01*
G01X7812572Y2439223D01*
G01X7801321Y2457393D01*
G01X7786923Y2473187D01*
G01X7769868Y2486067D01*
G01X7750737Y2495593D01*
G01X7730181Y2501442D01*
G01X7708900Y2503414D01*
G01X7708900Y2503414D01*
G01X7687619Y2501442D01*
G01X7667063Y2495593D01*
G01X7647932Y2486067D01*
G01X7630877Y2473187D01*
G01X7616479Y2457393D01*
G01X7605228Y2439223D01*
G01X7597507Y2419294D01*
G01X7593580Y2398286D01*
G01X5538220Y2398286D01*
G01X5534293Y2419294D01*
G01X5526572Y2439223D01*
G01X5515321Y2457393D01*
G01X5500923Y2473187D01*
G01X5483868Y2486067D01*
G01X5464737Y2495593D01*
G01X5444181Y2501442D01*
G01X5422900Y2503414D01*
G01X5422900Y2503414D01*
G01X5401619Y2501442D01*
G01X5381063Y2495593D01*
G01X5361932Y2486067D01*
G01X5344877Y2473187D01*
G01X5330479Y2457393D01*
G01X5319228Y2439223D01*
G01X5311507Y2419294D01*
G01X5307580Y2398286D01*
G01X4319833Y2398286D01*
G01X4320814Y2409500D01*
G01X4318978Y2430479D01*
G01X4313528Y2450821D01*
G01X4304628Y2469907D01*
G01X4292549Y2487158D01*
G01X4277658Y2502049D01*
G01X4260407Y2514128D01*
G01X4241321Y2523028D01*
G01X4220979Y2528478D01*
G01X4200000Y2530314D01*
G01X4200000Y2530314D01*
G01X4179021Y2528478D01*
G01X4158679Y2523028D01*
G01X4139593Y2514128D01*
G01X4122342Y2502049D01*
G01X4107451Y2487158D01*
G01X4095372Y2469907D01*
G01X4086472Y2450821D01*
G01X4081022Y2430479D01*
G01X4079186Y2409500D01*
G01X3647519Y2409500D01*
G01X3645704Y2416358D01*
G01X3638350Y2429110D01*
G01X3627918Y2439495D01*
G01X3615134Y2446792D01*
G01X3600887Y2450493D01*
G01X3586168Y2450340D01*
G01X3582867Y2464686D01*
G01X3575930Y2477669D01*
G01X3565841Y2488387D01*
G01X3553300Y2496095D01*
G01X3539181Y2500256D01*
G01X3524464Y2500581D01*
G01X3510175Y2497048D01*
G01X3497306Y2489902D01*
G01X3486753Y2479640D01*
G01X3486753Y2479640D01*
G01X3479249Y2466976D01*
G01X3475318Y2452791D01*
G01X3475231Y2438071D01*
G01X3043764Y2438071D01*
G01X3050507Y2440864D01*
G01X3062066Y2449734D01*
G01X3070936Y2461293D01*
G01X3076512Y2474754D01*
G01X3078414Y2489200D01*
G01X3076512Y2503646D01*
G01X3070936Y2517107D01*
G01X3066116Y2523388D01*
G01X3563686Y2523388D01*
G01X3565588Y2508943D01*
G01X3571164Y2495481D01*
G01X3580034Y2483922D01*
G01X3591593Y2475052D01*
G01X3605054Y2469476D01*
G01X3619500Y2467574D01*
G01X3633946Y2469476D01*
G01X3647407Y2475052D01*
G01X3658966Y2483922D01*
G01X3667836Y2495481D01*
G01X3673412Y2508943D01*
G01X3675314Y2523388D01*
G01X3673412Y2537834D01*
G01X3667836Y2551295D01*
G01X3658966Y2562855D01*
G01X3647407Y2571725D01*
G01X3633946Y2577301D01*
G01X3624835Y2578500D01*
G01X4079186Y2578500D01*
G01X4080939Y2567433D01*
G01X4086026Y2557449D01*
G01X4093949Y2549526D01*
G01X4103933Y2544439D01*
G01X4115000Y2542686D01*
G01X4285000Y2542686D01*
G01X4296067Y2544439D01*
G01X4306051Y2549526D01*
G01X4313974Y2557449D01*
G01X4319061Y2567433D01*
G01X4320814Y2578500D01*
G01X4320814Y2652286D01*
G01X5307580Y2652286D01*
G01X5307580Y2630914D01*
G01X5311507Y2609906D01*
G01X5319228Y2589977D01*
G01X5330479Y2571807D01*
G01X5344877Y2556013D01*
G01X5361932Y2543133D01*
G01X5381063Y2533607D01*
G01X5401619Y2527758D01*
G01X5422900Y2525786D01*
G01X5444181Y2527758D01*
G01X5464737Y2533607D01*
G01X5483868Y2543133D01*
G01X5500923Y2556013D01*
G01X5515321Y2571807D01*
G01X5526572Y2589977D01*
G01X5534293Y2609906D01*
G01X5538220Y2630914D01*
G01X5538220Y2652286D01*
G01X5538220Y2652286D01*
G01X7593580Y2652286D01*
G01X7593580Y2630914D01*
G01X7597507Y2609906D01*
G01X7605228Y2589977D01*
G01X7616479Y2571807D01*
G01X7630877Y2556013D01*
G01X7647932Y2543133D01*
G01X7667063Y2533607D01*
G01X7687619Y2527758D01*
G01X7708900Y2525786D01*
G01X7730181Y2527758D01*
G01X7750737Y2533607D01*
G01X7769868Y2543133D01*
G01X7786923Y2556013D01*
G01X7801321Y2571807D01*
G01X7812572Y2589977D01*
G01X7820293Y2609906D01*
G01X7824220Y2630914D01*
G01X7824220Y2652286D01*
G01X7820293Y2673294D01*
G01X7812572Y2693223D01*
G01X7801321Y2711393D01*
G01X7786923Y2727187D01*
G01X7769868Y2740067D01*
G01X7750737Y2749593D01*
G01X7730181Y2755442D01*
G01X7708900Y2757414D01*
G01X7708900Y2757414D01*
G01X7687619Y2755442D01*
G01X7667063Y2749593D01*
G01X7647932Y2740067D01*
G01X7630877Y2727187D01*
G01X7616479Y2711393D01*
G01X7605228Y2693223D01*
G01X7597507Y2673294D01*
G01X7593580Y2652286D01*
G01X5538220Y2652286D01*
G01X5534293Y2673294D01*
G01X5526572Y2693223D01*
G01X5515321Y2711393D01*
G01X5500923Y2727187D01*
G01X5483868Y2740067D01*
G01X5464737Y2749593D01*
G01X5444181Y2755442D01*
G01X5422900Y2757414D01*
G01X5422900Y2757414D01*
G01X5401619Y2755442D01*
G01X5381063Y2749593D01*
G01X5361932Y2740067D01*
G01X5344877Y2727187D01*
G01X5330479Y2711393D01*
G01X5319228Y2693223D01*
G01X5311507Y2673294D01*
G01X5307580Y2652286D01*
G01X4320814Y2652286D01*
G01X4320814Y2748500D01*
G01X4319061Y2759567D01*
G01X4313974Y2769551D01*
G01X4306051Y2777474D01*
G01X4296067Y2782561D01*
G01X4285000Y2784314D01*
G01X4115000Y2784314D01*
G01X4103933Y2782561D01*
G01X4093949Y2777474D01*
G01X4086026Y2769551D01*
G01X4080939Y2759567D01*
G01X4079186Y2748500D01*
G01X4079186Y2578500D01*
G01X4079186Y2578500D01*
G01X3624835Y2578500D01*
G01X3619500Y2579202D01*
G01X3605054Y2577301D01*
G01X3591593Y2571725D01*
G01X3580034Y2562855D01*
G01X3571164Y2551295D01*
G01X3565588Y2537834D01*
G01X3563686Y2523388D01*
G01X3563686Y2523388D01*
G01X3066116Y2523388D01*
G01X3062066Y2528666D01*
G01X3050507Y2537536D01*
G01X3037046Y2543112D01*
G01X3022600Y2545014D01*
G01X3008154Y2543112D01*
G01X2994693Y2537536D01*
G01X2983134Y2528666D01*
G01X2974264Y2517107D01*
G01X2968688Y2503646D01*
G01X2966786Y2489200D01*
G01X2966786Y2489200D01*
G01X2913314Y2489200D01*
G01X2911474Y2503412D01*
G01X2906076Y2516687D01*
G01X2897476Y2528150D01*
G01X2886241Y2537045D01*
G01X2873111Y2542786D01*
G01X2858952Y2544995D01*
G01X2844697Y2543526D01*
G01X2831286Y2538475D01*
G01X2819603Y2530176D01*
G01X2809458Y2537626D01*
G01X2797902Y2542613D01*
G01X2785522Y2544883D01*
G01X2772948Y2544323D01*
G01X2760820Y2540958D01*
G01X2749753Y2534962D01*
G01X2749753Y2534962D01*
G01X2738644Y2540976D01*
G01X2726467Y2544337D01*
G01X2713846Y2544874D01*
G01X2701428Y2542559D01*
G01X2689848Y2537510D01*
G01X2679700Y2529987D01*
G01X2668031Y2538359D01*
G01X2654613Y2543476D01*
G01X2640333Y2545000D01*
G01X2626137Y2542829D01*
G01X2612965Y2537108D01*
G01X2601688Y2528216D01*
G01X2593054Y2516740D01*
G01X2587634Y2503442D01*
G01X2585786Y2489200D01*
G01X449269Y2489200D01*
G01X460968Y2495025D01*
G01X478023Y2507905D01*
G01X492421Y2523699D01*
G01X503672Y2541870D01*
G01X511393Y2561798D01*
G01X515320Y2582806D01*
G01X515320Y2604178D01*
G01X511393Y2625186D01*
G01X503672Y2645115D01*
G01X492421Y2663286D01*
G01X478023Y2679080D01*
G01X460968Y2691959D01*
G01X441837Y2701486D01*
G01X421281Y2707334D01*
G01X400000Y2709306D01*
G01X378719Y2707334D01*
G01X358163Y2701486D01*
G01X339032Y2691959D01*
G01X321977Y2679080D01*
G01X307579Y2663286D01*
G01X296328Y2645115D01*
G01X288607Y2625186D01*
G01X284680Y2604178D01*
G01X35814Y2604178D01*
G01X35814Y2854191D01*
G01X284680Y2854191D01*
G01X284680Y2832819D01*
G01X288607Y2811811D01*
G01X296328Y2791882D01*
G01X307579Y2773711D01*
G01X321977Y2757917D01*
G01X339032Y2745038D01*
G01X358163Y2735511D01*
G01X378719Y2729663D01*
G01X400000Y2727691D01*
G01X400000Y2727691D01*
G01X421281Y2729663D01*
G01X441837Y2735511D01*
G01X460968Y2745038D01*
G01X475352Y2755900D01*
G01X2877886Y2755900D01*
G01X2879823Y2741324D01*
G01X2885499Y2727760D01*
G01X2894521Y2716148D01*
G01X2906262Y2707296D01*
G01X2919907Y2701817D01*
G01X2934509Y2700092D01*
G01X2949056Y2702240D01*
G01X2962536Y2708112D01*
G01X2974015Y2717301D01*
G01X2982697Y2729169D01*
G01X2990546Y2718190D01*
G01X3000801Y2709415D01*
G01X3012862Y2703359D01*
G01X3026025Y2700375D01*
G01X3039519Y2700637D01*
G01X3052555Y2704131D01*
G01X3064372Y2710653D01*
G01X3074277Y2719820D01*
G01X3081693Y2731097D01*
G01X3090050Y2718737D01*
G01X3101383Y2709033D01*
G01X3114881Y2702678D01*
G01X3129580Y2700126D01*
G01X3144431Y2701559D01*
G01X3158371Y2706875D01*
G01X3170405Y2715694D01*
G01X3179673Y2727385D01*
G01X3185513Y2741114D01*
G01X3187507Y2755900D01*
G01X3185513Y2770686D01*
G01X3179673Y2784415D01*
G01X3170405Y2796106D01*
G01X3158371Y2804925D01*
G01X3144431Y2810241D01*
G01X3129580Y2811674D01*
G01X3114881Y2809122D01*
G01X3101383Y2802767D01*
G01X3090050Y2793063D01*
G01X3081693Y2780703D01*
G01X3074277Y2791980D01*
G01X3064372Y2801147D01*
G01X3052555Y2807669D01*
G01X3039519Y2811163D01*
G01X3026025Y2811425D01*
G01X3012862Y2808441D01*
G01X3000801Y2802385D01*
G01X2990546Y2793610D01*
G01X2982697Y2782631D01*
G01X2974015Y2794499D01*
G01X2962536Y2803688D01*
G01X2949056Y2809560D01*
G01X2934509Y2811708D01*
G01X2919907Y2809983D01*
G01X2906262Y2804504D01*
G01X2894521Y2795652D01*
G01X2885499Y2784040D01*
G01X2879823Y2770476D01*
G01X2877886Y2755900D01*
G01X2877886Y2755900D01*
G01X475352Y2755900D01*
G01X478023Y2757917D01*
G01X492421Y2773711D01*
G01X503672Y2791882D01*
G01X511393Y2811811D01*
G01X515320Y2832819D01*
G01X515320Y2838298D01*
G01X3655286Y2838298D01*
G01X3657198Y2822547D01*
G01X3662825Y2807712D01*
G01X3671838Y2794655D01*
G01X3683713Y2784134D01*
G01X3697762Y2776760D01*
G01X3713167Y2772964D01*
G01X3729033Y2772964D01*
G01X3744438Y2776760D01*
G01X3758487Y2784134D01*
G01X3770362Y2794655D01*
G01X3779375Y2807712D01*
G01X3785002Y2822547D01*
G01X3786914Y2838298D01*
G01X3785002Y2854048D01*
G01X3779375Y2868883D01*
G01X3770362Y2881940D01*
G01X3758487Y2892461D01*
G01X3744438Y2899835D01*
G01X3729033Y2903632D01*
G01X3713167Y2903632D01*
G01X3697762Y2899835D01*
G01X3683713Y2892461D01*
G01X3671838Y2881940D01*
G01X3662825Y2868883D01*
G01X3657198Y2854048D01*
G01X3655286Y2838298D01*
G01X3655286Y2838298D01*
G01X515320Y2838298D01*
G01X515320Y2854191D01*
G01X511393Y2875199D01*
G01X503672Y2895127D01*
G01X496763Y2906286D01*
G01X5307580Y2906286D01*
G01X5307580Y2884914D01*
G01X5311507Y2863906D01*
G01X5319228Y2843977D01*
G01X5330479Y2825807D01*
G01X5344877Y2810013D01*
G01X5361932Y2797133D01*
G01X5381063Y2787607D01*
G01X5401619Y2781758D01*
G01X5422900Y2779786D01*
G01X5444181Y2781758D01*
G01X5464737Y2787607D01*
G01X5483868Y2797133D01*
G01X5500923Y2810013D01*
G01X5515321Y2825807D01*
G01X5526572Y2843977D01*
G01X5534293Y2863906D01*
G01X5538220Y2884914D01*
G01X5538220Y2906286D01*
G01X5538220Y2906286D01*
G01X7593580Y2906286D01*
G01X7593580Y2884914D01*
G01X7597507Y2863906D01*
G01X7605228Y2843977D01*
G01X7616479Y2825807D01*
G01X7630877Y2810013D01*
G01X7647932Y2797133D01*
G01X7667063Y2787607D01*
G01X7687619Y2781758D01*
G01X7708900Y2779786D01*
G01X7730181Y2781758D01*
G01X7750737Y2787607D01*
G01X7769868Y2797133D01*
G01X7786923Y2810013D01*
G01X7801321Y2825807D01*
G01X7812572Y2843977D01*
G01X7820293Y2863906D01*
G01X7824220Y2884914D01*
G01X7824220Y2906286D01*
G01X7820293Y2927294D01*
G01X7812572Y2947223D01*
G01X7801321Y2965393D01*
G01X7786923Y2981187D01*
G01X7769868Y2994067D01*
G01X7750737Y3003593D01*
G01X7730181Y3009442D01*
G01X7708900Y3011414D01*
G01X7708900Y3011414D01*
G01X7687619Y3009442D01*
G01X7667063Y3003593D01*
G01X7647932Y2994067D01*
G01X7630877Y2981187D01*
G01X7616479Y2965393D01*
G01X7605228Y2947223D01*
G01X7597507Y2927294D01*
G01X7593580Y2906286D01*
G01X5538220Y2906286D01*
G01X5534293Y2927294D01*
G01X5526572Y2947223D01*
G01X5515321Y2965393D01*
G01X5500923Y2981187D01*
G01X5483868Y2994067D01*
G01X5464737Y3003593D01*
G01X5444181Y3009442D01*
G01X5422900Y3011414D01*
G01X5422900Y3011414D01*
G01X5401619Y3009442D01*
G01X5381063Y3003593D01*
G01X5361932Y2994067D01*
G01X5344877Y2981187D01*
G01X5330479Y2965393D01*
G01X5319228Y2947223D01*
G01X5311507Y2927294D01*
G01X5307580Y2906286D01*
G01X496763Y2906286D01*
G01X492421Y2913298D01*
G01X478023Y2929092D01*
G01X460968Y2941972D01*
G01X441837Y2951498D01*
G01X421281Y2957346D01*
G01X400000Y2959318D01*
G01X378719Y2957346D01*
G01X358163Y2951498D01*
G01X339032Y2941972D01*
G01X321977Y2929092D01*
G01X307579Y2913298D01*
G01X296328Y2895127D01*
G01X288607Y2875199D01*
G01X284680Y2854191D01*
G01X35814Y2854191D01*
G01X35814Y3253511D01*
G01X109185Y3253511D01*
G01X111170Y3234630D01*
G01X117037Y3216574D01*
G01X126529Y3200132D01*
G01X139233Y3186023D01*
G01X154593Y3174863D01*
G01X171937Y3167141D01*
G01X190508Y3163194D01*
G01X209493Y3163194D01*
G01X228064Y3167141D01*
G01X242327Y3173491D01*
G01X284186Y3173491D01*
G01X284186Y3013492D01*
G01X285939Y3002424D01*
G01X291026Y2992441D01*
G01X298949Y2984517D01*
G01X308933Y2979430D01*
G01X320000Y2977678D01*
G01X480000Y2977678D01*
G01X491067Y2979430D01*
G01X501051Y2984517D01*
G01X508974Y2992441D01*
G01X514061Y3002424D01*
G01X515814Y3013492D01*
G01X515814Y3173491D01*
G01X515814Y3173491D01*
G01X514061Y3184558D01*
G01X512460Y3187700D01*
G01X2827086Y3187700D01*
G01X2828988Y3173254D01*
G01X2834564Y3159793D01*
G01X2843434Y3148234D01*
G01X2854993Y3139364D01*
G01X2868454Y3133788D01*
G01X2882900Y3131886D01*
G01X2897346Y3133788D01*
G01X2910807Y3139364D01*
G01X2922366Y3148234D01*
G01X2931236Y3159793D01*
G01X2931440Y3160286D01*
G01X5307580Y3160286D01*
G01X5307580Y3138914D01*
G01X5311507Y3117906D01*
G01X5319228Y3097977D01*
G01X5330479Y3079807D01*
G01X5344877Y3064013D01*
G01X5361932Y3051133D01*
G01X5381063Y3041607D01*
G01X5401619Y3035758D01*
G01X5422900Y3033786D01*
G01X5444181Y3035758D01*
G01X5464737Y3041607D01*
G01X5483868Y3051133D01*
G01X5500923Y3064013D01*
G01X5515321Y3079807D01*
G01X5526572Y3097977D01*
G01X5534293Y3117906D01*
G01X5538220Y3138914D01*
G01X5538220Y3160286D01*
G01X5538220Y3160286D01*
G01X7593580Y3160286D01*
G01X7593580Y3138914D01*
G01X7597507Y3117906D01*
G01X7605228Y3097977D01*
G01X7616479Y3079807D01*
G01X7630877Y3064013D01*
G01X7647932Y3051133D01*
G01X7667063Y3041607D01*
G01X7687619Y3035758D01*
G01X7708900Y3033786D01*
G01X7730181Y3035758D01*
G01X7750737Y3041607D01*
G01X7769868Y3051133D01*
G01X7786923Y3064013D01*
G01X7801321Y3079807D01*
G01X7812572Y3097977D01*
G01X7820293Y3117906D01*
G01X7824220Y3138914D01*
G01X7824220Y3160286D01*
G01X7820293Y3181294D01*
G01X7812572Y3201223D01*
G01X7801321Y3219393D01*
G01X7786923Y3235187D01*
G01X7769868Y3248067D01*
G01X7750737Y3257593D01*
G01X7730181Y3263442D01*
G01X7708900Y3265414D01*
G01X7708900Y3265414D01*
G01X7687619Y3263442D01*
G01X7667063Y3257593D01*
G01X7647932Y3248067D01*
G01X7630877Y3235187D01*
G01X7616479Y3219393D01*
G01X7605228Y3201223D01*
G01X7597507Y3181294D01*
G01X7593580Y3160286D01*
G01X5538220Y3160286D01*
G01X5534293Y3181294D01*
G01X5526572Y3201223D01*
G01X5515321Y3219393D01*
G01X5500923Y3235187D01*
G01X5483868Y3248067D01*
G01X5464737Y3257593D01*
G01X5444181Y3263442D01*
G01X5422900Y3265414D01*
G01X5422900Y3265414D01*
G01X5401619Y3263442D01*
G01X5381063Y3257593D01*
G01X5361932Y3248067D01*
G01X5344877Y3235187D01*
G01X5330479Y3219393D01*
G01X5319228Y3201223D01*
G01X5311507Y3181294D01*
G01X5307580Y3160286D01*
G01X2931440Y3160286D01*
G01X2936812Y3173254D01*
G01X2938714Y3187700D01*
G01X2936812Y3202146D01*
G01X2931236Y3215607D01*
G01X2922366Y3227166D01*
G01X2910807Y3236036D01*
G01X2897346Y3241612D01*
G01X2882900Y3243514D01*
G01X2868454Y3241612D01*
G01X2854993Y3236036D01*
G01X2843434Y3227166D01*
G01X2834564Y3215607D01*
G01X2828988Y3202146D01*
G01X2827086Y3187700D01*
G01X2827086Y3187700D01*
G01X512460Y3187700D01*
G01X508974Y3194542D01*
G01X501051Y3202465D01*
G01X491067Y3207552D01*
G01X480000Y3209305D01*
G01X320000Y3209305D01*
G01X308933Y3207552D01*
G01X298949Y3202465D01*
G01X291026Y3194542D01*
G01X285939Y3184558D01*
G01X284186Y3173491D01*
G01X242327Y3173491D01*
G01X245408Y3174863D01*
G01X260768Y3186023D01*
G01X273471Y3200132D01*
G01X282964Y3216574D01*
G01X288831Y3234630D01*
G01X290816Y3253511D01*
G01X288831Y3272393D01*
G01X282964Y3290449D01*
G01X273471Y3306891D01*
G01X260768Y3321000D01*
G01X245408Y3332160D01*
G01X228064Y3339882D01*
G01X227037Y3340100D01*
G01X2658488Y3340100D01*
G01X2660401Y3324350D01*
G01X2666027Y3309515D01*
G01X2675040Y3296457D01*
G01X2686916Y3285936D01*
G01X2700964Y3278563D01*
G01X2716369Y3274766D01*
G01X2732235Y3274766D01*
G01X2747640Y3278563D01*
G01X2761689Y3285936D01*
G01X2773565Y3296457D01*
G01X2782578Y3309515D01*
G01X2788204Y3324350D01*
G01X2790116Y3340100D01*
G01X2924884Y3340100D01*
G01X2926796Y3324350D01*
G01X2932422Y3309515D01*
G01X2941435Y3296457D01*
G01X2953311Y3285936D01*
G01X2967360Y3278563D01*
G01X2982765Y3274766D01*
G01X2998631Y3274766D01*
G01X3014036Y3278563D01*
G01X3028084Y3285936D01*
G01X3039960Y3296457D01*
G01X3048973Y3309515D01*
G01X3054599Y3324350D01*
G01X3056512Y3340100D01*
G01X3054599Y3355850D01*
G01X3048973Y3370685D01*
G01X3039960Y3383743D01*
G01X3028084Y3394264D01*
G01X3014036Y3401637D01*
G01X2998631Y3405434D01*
G01X2982765Y3405434D01*
G01X2967360Y3401637D01*
G01X2953311Y3394264D01*
G01X2941435Y3383743D01*
G01X2932422Y3370685D01*
G01X2926796Y3355850D01*
G01X2924884Y3340100D01*
G01X2924884Y3340100D01*
G01X2790116Y3340100D01*
G01X2788204Y3355850D01*
G01X2782578Y3370685D01*
G01X2773565Y3383743D01*
G01X2761689Y3394264D01*
G01X2747640Y3401637D01*
G01X2732235Y3405434D01*
G01X2716369Y3405434D01*
G01X2700964Y3401637D01*
G01X2686916Y3394264D01*
G01X2675040Y3383743D01*
G01X2666027Y3370685D01*
G01X2660401Y3355850D01*
G01X2658488Y3340100D01*
G01X2658488Y3340100D01*
G01X227037Y3340100D01*
G01X209493Y3343829D01*
G01X190508Y3343829D01*
G01X171937Y3339882D01*
G01X154593Y3332160D01*
G01X139233Y3321000D01*
G01X126529Y3306891D01*
G01X117037Y3290449D01*
G01X111170Y3272393D01*
G01X109185Y3253511D01*
G01X109185Y3253511D01*
G01X35814Y3253511D01*
G01X35814Y3414286D01*
G01X5307580Y3414286D01*
G01X5307580Y3392914D01*
G01X5311507Y3371906D01*
G01X5319228Y3351977D01*
G01X5330479Y3333807D01*
G01X5344877Y3318013D01*
G01X5361932Y3305133D01*
G01X5381063Y3295607D01*
G01X5401619Y3289758D01*
G01X5422900Y3287786D01*
G01X5444181Y3289758D01*
G01X5464737Y3295607D01*
G01X5483868Y3305133D01*
G01X5500923Y3318013D01*
G01X5515321Y3333807D01*
G01X5526572Y3351977D01*
G01X5534293Y3371906D01*
G01X5538220Y3392914D01*
G01X5538220Y3414286D01*
G01X7593580Y3414286D01*
G01X7593580Y3392914D01*
G01X7597507Y3371906D01*
G01X7605228Y3351977D01*
G01X7616479Y3333807D01*
G01X7630877Y3318013D01*
G01X7647932Y3305133D01*
G01X7667063Y3295607D01*
G01X7687619Y3289758D01*
G01X7708900Y3287786D01*
G01X7730181Y3289758D01*
G01X7750737Y3295607D01*
G01X7769868Y3305133D01*
G01X7786923Y3318013D01*
G01X7801321Y3333807D01*
G01X7812572Y3351977D01*
G01X7820293Y3371906D01*
G01X7824220Y3392914D01*
G01X7824220Y3414286D01*
G01X7820293Y3435294D01*
G01X7812572Y3455223D01*
G01X7801321Y3473393D01*
G01X7786923Y3489187D01*
G01X7769868Y3502067D01*
G01X7750737Y3511593D01*
G01X7730181Y3517442D01*
G01X7708900Y3519414D01*
G01X7708900Y3519414D01*
G01X7687619Y3517442D01*
G01X7667063Y3511593D01*
G01X7647932Y3502067D01*
G01X7630877Y3489187D01*
G01X7616479Y3473393D01*
G01X7605228Y3455223D01*
G01X7597507Y3435294D01*
G01X7593580Y3414286D01*
G01X5538220Y3414286D01*
G01X5534293Y3435294D01*
G01X5526572Y3455223D01*
G01X5515321Y3473393D01*
G01X5500923Y3489187D01*
G01X5483868Y3502067D01*
G01X5464737Y3511593D01*
G01X5444181Y3517442D01*
G01X5422900Y3519414D01*
G01X5422900Y3519414D01*
G01X5401619Y3517442D01*
G01X5381063Y3511593D01*
G01X5361932Y3502067D01*
G01X5344877Y3489187D01*
G01X5330479Y3473393D01*
G01X5319228Y3455223D01*
G01X5311507Y3435294D01*
G01X5307580Y3414286D01*
G01X35814Y3414286D01*
G01X35814Y3657600D01*
G01X279186Y3657600D01*
G01X281022Y3636621D01*
G01X286472Y3616279D01*
G01X295372Y3597193D01*
G01X307451Y3579942D01*
G01X322342Y3565051D01*
G01X339593Y3552972D01*
G01X358679Y3544072D01*
G01X379021Y3538622D01*
G01X400000Y3536786D01*
G01X400000Y3536786D01*
G01X420979Y3538622D01*
G01X441321Y3544072D01*
G01X460407Y3552972D01*
G01X477658Y3565051D01*
G01X492549Y3579942D01*
G01X504628Y3597193D01*
G01X513528Y3616279D01*
G01X518978Y3636621D01*
G01X520814Y3657600D01*
G01X519143Y3676700D01*
G01X2659186Y3676700D01*
G01X2661098Y3660950D01*
G01X2666725Y3646115D01*
G01X2675737Y3633057D01*
G01X2687613Y3622536D01*
G01X2701662Y3615163D01*
G01X2717067Y3611366D01*
G01X2732933Y3611366D01*
G01X2748338Y3615163D01*
G01X2762386Y3622536D01*
G01X2774262Y3633057D01*
G01X2783275Y3646115D01*
G01X2788901Y3660950D01*
G01X2790037Y3670300D01*
G01X2937584Y3670300D01*
G01X2939496Y3654550D01*
G01X2945122Y3639715D01*
G01X2954135Y3626657D01*
G01X2966011Y3616136D01*
G01X2980060Y3608763D01*
G01X2995465Y3604966D01*
G01X3011331Y3604966D01*
G01X3018772Y3606800D01*
G01X4668586Y3606800D01*
G01X4670488Y3592354D01*
G01X4676064Y3578893D01*
G01X4684934Y3567334D01*
G01X4696493Y3558464D01*
G01X4709954Y3552888D01*
G01X4724400Y3550986D01*
G01X4738846Y3552888D01*
G01X4752307Y3558464D01*
G01X4763866Y3567334D01*
G01X4772736Y3578893D01*
G01X4778312Y3592354D01*
G01X4780214Y3606800D01*
G01X4887174Y3606800D01*
G01X4889076Y3592354D01*
G01X4894652Y3578893D01*
G01X4903522Y3567334D01*
G01X4915081Y3558464D01*
G01X4928543Y3552888D01*
G01X4942988Y3550986D01*
G01X4957434Y3552888D01*
G01X4970895Y3558464D01*
G01X4982455Y3567334D01*
G01X4991325Y3578893D01*
G01X4996900Y3592354D01*
G01X4998802Y3606800D01*
G01X4996900Y3621246D01*
G01X4991325Y3634707D01*
G01X4982455Y3646266D01*
G01X4970895Y3655136D01*
G01X4957434Y3660712D01*
G01X4942988Y3662614D01*
G01X4928543Y3660712D01*
G01X4915081Y3655136D01*
G01X4903522Y3646266D01*
G01X4894652Y3634707D01*
G01X4889076Y3621246D01*
G01X4887174Y3606800D01*
G01X4887174Y3606800D01*
G01X4780214Y3606800D01*
G01X4778312Y3621246D01*
G01X4772736Y3634707D01*
G01X4763866Y3646266D01*
G01X4752307Y3655136D01*
G01X4738846Y3660712D01*
G01X4724400Y3662614D01*
G01X4709954Y3660712D01*
G01X4696493Y3655136D01*
G01X4684934Y3646266D01*
G01X4676064Y3634707D01*
G01X4670488Y3621246D01*
G01X4668586Y3606800D01*
G01X4668586Y3606800D01*
G01X3018772Y3606800D01*
G01X3026736Y3608763D01*
G01X3040784Y3616136D01*
G01X3052660Y3626657D01*
G01X3061673Y3639715D01*
G01X3067299Y3654550D01*
G01X3068967Y3668286D01*
G01X5307580Y3668286D01*
G01X5307580Y3646914D01*
G01X5311507Y3625906D01*
G01X5319228Y3605977D01*
G01X5330479Y3587807D01*
G01X5344877Y3572013D01*
G01X5361932Y3559133D01*
G01X5381063Y3549607D01*
G01X5401619Y3543758D01*
G01X5422900Y3541786D01*
G01X5444181Y3543758D01*
G01X5464737Y3549607D01*
G01X5483868Y3559133D01*
G01X5500923Y3572013D01*
G01X5515321Y3587807D01*
G01X5526572Y3605977D01*
G01X5534293Y3625906D01*
G01X5538220Y3646914D01*
G01X5538220Y3668286D01*
G01X7593580Y3668286D01*
G01X7593580Y3646914D01*
G01X7597507Y3625906D01*
G01X7605228Y3605977D01*
G01X7616479Y3587807D01*
G01X7630877Y3572013D01*
G01X7647932Y3559133D01*
G01X7667063Y3549607D01*
G01X7687619Y3543758D01*
G01X7708900Y3541786D01*
G01X7730181Y3543758D01*
G01X7750737Y3549607D01*
G01X7769868Y3559133D01*
G01X7786923Y3572013D01*
G01X7801321Y3587807D01*
G01X7812572Y3605977D01*
G01X7820293Y3625906D01*
G01X7824220Y3646914D01*
G01X7824220Y3668286D01*
G01X7820293Y3689294D01*
G01X7812572Y3709223D01*
G01X7801321Y3727393D01*
G01X7786923Y3743187D01*
G01X7769868Y3756067D01*
G01X7750737Y3765593D01*
G01X7730181Y3771442D01*
G01X7708900Y3773414D01*
G01X7708900Y3773414D01*
G01X7687619Y3771442D01*
G01X7667063Y3765593D01*
G01X7647932Y3756067D01*
G01X7630877Y3743187D01*
G01X7616479Y3727393D01*
G01X7605228Y3709223D01*
G01X7597507Y3689294D01*
G01X7593580Y3668286D01*
G01X5538220Y3668286D01*
G01X5534293Y3689294D01*
G01X5526572Y3709223D01*
G01X5515321Y3727393D01*
G01X5500923Y3743187D01*
G01X5483868Y3756067D01*
G01X5464737Y3765593D01*
G01X5444181Y3771442D01*
G01X5422900Y3773414D01*
G01X5422900Y3773414D01*
G01X5401619Y3771442D01*
G01X5381063Y3765593D01*
G01X5361932Y3756067D01*
G01X5344877Y3743187D01*
G01X5330479Y3727393D01*
G01X5319228Y3709223D01*
G01X5311507Y3689294D01*
G01X5307580Y3668286D01*
G01X3068967Y3668286D01*
G01X3069212Y3670300D01*
G01X3067299Y3686050D01*
G01X3061673Y3700885D01*
G01X3052660Y3713943D01*
G01X3040784Y3724464D01*
G01X3026736Y3731837D01*
G01X3011331Y3735634D01*
G01X2995465Y3735634D01*
G01X2980060Y3731837D01*
G01X2966011Y3724464D01*
G01X2954135Y3713943D01*
G01X2945122Y3700885D01*
G01X2939496Y3686050D01*
G01X2937584Y3670300D01*
G01X2937584Y3670300D01*
G01X2790037Y3670300D01*
G01X2790814Y3676700D01*
G01X2788901Y3692450D01*
G01X2783275Y3707285D01*
G01X2774262Y3720343D01*
G01X2762386Y3730864D01*
G01X2748338Y3738237D01*
G01X2732933Y3742034D01*
G01X2717067Y3742034D01*
G01X2701662Y3738237D01*
G01X2687613Y3730864D01*
G01X2675737Y3720343D01*
G01X2666725Y3707285D01*
G01X2661098Y3692450D01*
G01X2659186Y3676700D01*
G01X2659186Y3676700D01*
G01X519143Y3676700D01*
G01X518978Y3678579D01*
G01X513528Y3698921D01*
G01X504628Y3718007D01*
G01X492549Y3735258D01*
G01X477658Y3750149D01*
G01X460407Y3762228D01*
G01X441321Y3771128D01*
G01X420979Y3776578D01*
G01X400000Y3778414D01*
G01X379021Y3776578D01*
G01X358679Y3771128D01*
G01X339593Y3762228D01*
G01X322342Y3750149D01*
G01X307451Y3735258D01*
G01X295372Y3718007D01*
G01X286472Y3698921D01*
G01X281022Y3678579D01*
G01X279186Y3657600D01*
G01X35814Y3657600D01*
G01X35814Y3911600D01*
G01X279186Y3911600D01*
G01X281022Y3890621D01*
G01X286472Y3870279D01*
G01X295372Y3851193D01*
G01X307451Y3833942D01*
G01X322342Y3819051D01*
G01X339593Y3806972D01*
G01X358679Y3798072D01*
G01X379021Y3792622D01*
G01X400000Y3790786D01*
G01X400000Y3790786D01*
G01X420979Y3792622D01*
G01X441321Y3798072D01*
G01X460407Y3806972D01*
G01X477658Y3819051D01*
G01X492549Y3833942D01*
G01X504628Y3851193D01*
G01X513528Y3870279D01*
G01X518978Y3890621D01*
G01X520814Y3911600D01*
G01X518978Y3932579D01*
G01X514096Y3950800D01*
G01X2127186Y3950800D01*
G01X2127186Y3770800D01*
G01X2128939Y3759733D01*
G01X2134026Y3749749D01*
G01X2141949Y3741826D01*
G01X2151933Y3736739D01*
G01X2163000Y3734986D01*
G01X2343000Y3734986D01*
G01X2343000Y3734986D01*
G01X2354067Y3736739D01*
G01X2364051Y3741826D01*
G01X2371974Y3749749D01*
G01X2377061Y3759733D01*
G01X2378814Y3770800D01*
G01X2378814Y3860800D01*
G01X2381186Y3860800D01*
G01X2383098Y3838953D01*
G01X2388774Y3817769D01*
G01X2398042Y3797893D01*
G01X2410621Y3779928D01*
G01X2426129Y3764421D01*
G01X2444093Y3751842D01*
G01X2463969Y3742574D01*
G01X2485153Y3736898D01*
G01X2507000Y3734986D01*
G01X2528847Y3736898D01*
G01X2550031Y3742574D01*
G01X2569907Y3751842D01*
G01X2587872Y3764421D01*
G01X2603379Y3779928D01*
G01X2615958Y3797893D01*
G01X2625226Y3817769D01*
G01X2630902Y3838953D01*
G01X2632814Y3860800D01*
G01X2630902Y3882647D01*
G01X2625226Y3903831D01*
G01X2621650Y3911499D01*
G01X3550986Y3911499D01*
G01X3552888Y3897054D01*
G01X3558464Y3883592D01*
G01X3567334Y3872033D01*
G01X3578893Y3863163D01*
G01X3592354Y3857587D01*
G01X3606800Y3855685D01*
G01X3621246Y3857587D01*
G01X3631853Y3861981D01*
G01X4541586Y3861981D01*
G01X4543488Y3847535D01*
G01X4549064Y3834074D01*
G01X4557934Y3822515D01*
G01X4569493Y3813645D01*
G01X4582954Y3808069D01*
G01X4597400Y3806167D01*
G01X4611846Y3808069D01*
G01X4625307Y3813645D01*
G01X4636866Y3822515D01*
G01X4645736Y3834074D01*
G01X4651312Y3847535D01*
G01X4653214Y3861981D01*
G01X4651312Y3876427D01*
G01X4645736Y3889888D01*
G01X4636866Y3901448D01*
G01X4625307Y3910317D01*
G01X4611846Y3915893D01*
G01X4597400Y3917795D01*
G01X4582954Y3915893D01*
G01X4569493Y3910317D01*
G01X4557934Y3901448D01*
G01X4549064Y3889888D01*
G01X4543488Y3876427D01*
G01X4541586Y3861981D01*
G01X4541586Y3861981D01*
G01X3631853Y3861981D01*
G01X3634707Y3863163D01*
G01X3646266Y3872033D01*
G01X3655136Y3883592D01*
G01X3660712Y3897054D01*
G01X3662614Y3911499D01*
G01X3661194Y3922286D01*
G01X5307580Y3922286D01*
G01X5307580Y3900914D01*
G01X5311507Y3879906D01*
G01X5319228Y3859977D01*
G01X5330479Y3841807D01*
G01X5344877Y3826013D01*
G01X5361932Y3813133D01*
G01X5381063Y3803607D01*
G01X5401619Y3797758D01*
G01X5422900Y3795786D01*
G01X5444181Y3797758D01*
G01X5464737Y3803607D01*
G01X5483868Y3813133D01*
G01X5500923Y3826013D01*
G01X5515321Y3841807D01*
G01X5526572Y3859977D01*
G01X5534293Y3879906D01*
G01X5538220Y3900914D01*
G01X5538220Y3922286D01*
G01X7593580Y3922286D01*
G01X7593580Y3900914D01*
G01X7597507Y3879906D01*
G01X7605228Y3859977D01*
G01X7616479Y3841807D01*
G01X7630877Y3826013D01*
G01X7647932Y3813133D01*
G01X7667063Y3803607D01*
G01X7687619Y3797758D01*
G01X7708900Y3795786D01*
G01X7730181Y3797758D01*
G01X7750737Y3803607D01*
G01X7769868Y3813133D01*
G01X7786923Y3826013D01*
G01X7801321Y3841807D01*
G01X7812572Y3859977D01*
G01X7820293Y3879906D01*
G01X7824220Y3900914D01*
G01X7824220Y3922286D01*
G01X7820293Y3943294D01*
G01X7812572Y3963223D01*
G01X7801321Y3981393D01*
G01X7786923Y3997187D01*
G01X7769868Y4010067D01*
G01X7750737Y4019593D01*
G01X7730181Y4025442D01*
G01X7708900Y4027414D01*
G01X7708900Y4027414D01*
G01X7687619Y4025442D01*
G01X7667063Y4019593D01*
G01X7647932Y4010067D01*
G01X7630877Y3997187D01*
G01X7616479Y3981393D01*
G01X7605228Y3963223D01*
G01X7597507Y3943294D01*
G01X7593580Y3922286D01*
G01X5538220Y3922286D01*
G01X5534293Y3943294D01*
G01X5526572Y3963223D01*
G01X5515321Y3981393D01*
G01X5500923Y3997187D01*
G01X5483868Y4010067D01*
G01X5464737Y4019593D01*
G01X5444181Y4025442D01*
G01X5422900Y4027414D01*
G01X5422900Y4027414D01*
G01X5401619Y4025442D01*
G01X5381063Y4019593D01*
G01X5361932Y4010067D01*
G01X5344877Y3997187D01*
G01X5330479Y3981393D01*
G01X5319228Y3963223D01*
G01X5311507Y3943294D01*
G01X5307580Y3922286D01*
G01X3661194Y3922286D01*
G01X3660712Y3925945D01*
G01X3655136Y3939406D01*
G01X3646266Y3950966D01*
G01X3634707Y3959836D01*
G01X3621246Y3965412D01*
G01X3606800Y3967313D01*
G01X3592354Y3965412D01*
G01X3578893Y3959836D01*
G01X3567334Y3950966D01*
G01X3558464Y3939406D01*
G01X3552888Y3925945D01*
G01X3550986Y3911499D01*
G01X3550986Y3911499D01*
G01X2621650Y3911499D01*
G01X2615958Y3923707D01*
G01X2603379Y3941672D01*
G01X2587872Y3957179D01*
G01X2569907Y3969758D01*
G01X2550031Y3979026D01*
G01X2528847Y3984702D01*
G01X2507000Y3986614D01*
G01X2485153Y3984702D01*
G01X2463969Y3979026D01*
G01X2444093Y3969758D01*
G01X2426129Y3957179D01*
G01X2410621Y3941672D01*
G01X2398042Y3923707D01*
G01X2388774Y3903831D01*
G01X2383098Y3882647D01*
G01X2381186Y3860800D01*
G01X2381186Y3860800D01*
G01X2378814Y3860800D01*
G01X2378814Y3950800D01*
G01X2377061Y3961867D01*
G01X2371974Y3971851D01*
G01X2364051Y3979774D01*
G01X2354067Y3984861D01*
G01X2343000Y3986614D01*
G01X2163000Y3986614D01*
G01X2151933Y3984861D01*
G01X2141949Y3979774D01*
G01X2134026Y3971851D01*
G01X2128939Y3961867D01*
G01X2127186Y3950800D01*
G01X514096Y3950800D01*
G01X513528Y3952921D01*
G01X504628Y3972007D01*
G01X492549Y3989258D01*
G01X477658Y4004149D01*
G01X460407Y4016228D01*
G01X441321Y4025128D01*
G01X420979Y4030578D01*
G01X400000Y4032414D01*
G01X379021Y4030578D01*
G01X358679Y4025128D01*
G01X339593Y4016228D01*
G01X322342Y4004149D01*
G01X307451Y3989258D01*
G01X295372Y3972007D01*
G01X286472Y3952921D01*
G01X281022Y3932579D01*
G01X279186Y3911600D01*
G01X35814Y3911600D01*
G01X35814Y4165600D01*
G01X279186Y4165600D01*
G01X281022Y4144621D01*
G01X286472Y4124279D01*
G01X295372Y4105193D01*
G01X307451Y4087942D01*
G01X322342Y4073051D01*
G01X339593Y4060972D01*
G01X358679Y4052072D01*
G01X379021Y4046622D01*
G01X400000Y4044786D01*
G01X400000Y4044786D01*
G01X420979Y4046622D01*
G01X441321Y4052072D01*
G01X460407Y4060972D01*
G01X477658Y4073051D01*
G01X492549Y4087942D01*
G01X504628Y4105193D01*
G01X513528Y4124279D01*
G01X516133Y4134001D01*
G01X3550986Y4134001D01*
G01X3552888Y4119555D01*
G01X3558464Y4106094D01*
G01X3567334Y4094534D01*
G01X3578893Y4085664D01*
G01X3592354Y4080088D01*
G01X3606800Y4078187D01*
G01X3621246Y4080088D01*
G01X3634707Y4085664D01*
G01X3646266Y4094534D01*
G01X3655136Y4106094D01*
G01X3660712Y4119555D01*
G01X3662614Y4134001D01*
G01X3660712Y4148446D01*
G01X3655136Y4161908D01*
G01X3646266Y4173467D01*
G01X3642593Y4176286D01*
G01X5307580Y4176286D01*
G01X5307580Y4154914D01*
G01X5311507Y4133906D01*
G01X5319228Y4113977D01*
G01X5330479Y4095807D01*
G01X5344877Y4080013D01*
G01X5361932Y4067133D01*
G01X5381063Y4057607D01*
G01X5401619Y4051758D01*
G01X5422900Y4049786D01*
G01X5444181Y4051758D01*
G01X5464737Y4057607D01*
G01X5483868Y4067133D01*
G01X5500923Y4080013D01*
G01X5515321Y4095807D01*
G01X5526572Y4113977D01*
G01X5534293Y4133906D01*
G01X5538220Y4154914D01*
G01X5538220Y4176286D01*
G01X7593580Y4176286D01*
G01X7593580Y4154914D01*
G01X7597507Y4133906D01*
G01X7605228Y4113977D01*
G01X7616479Y4095807D01*
G01X7630877Y4080013D01*
G01X7647932Y4067133D01*
G01X7667063Y4057607D01*
G01X7687619Y4051758D01*
G01X7708900Y4049786D01*
G01X7730181Y4051758D01*
G01X7750737Y4057607D01*
G01X7769868Y4067133D01*
G01X7786923Y4080013D01*
G01X7801321Y4095807D01*
G01X7812572Y4113977D01*
G01X7820293Y4133906D01*
G01X7824220Y4154914D01*
G01X7824220Y4176286D01*
G01X7820293Y4197294D01*
G01X7812572Y4217223D01*
G01X7801321Y4235393D01*
G01X7786923Y4251187D01*
G01X7769868Y4264067D01*
G01X7750737Y4273593D01*
G01X7730181Y4279442D01*
G01X7708900Y4281414D01*
G01X7708900Y4281414D01*
G01X7687619Y4279442D01*
G01X7667063Y4273593D01*
G01X7647932Y4264067D01*
G01X7630877Y4251187D01*
G01X7616479Y4235393D01*
G01X7605228Y4217223D01*
G01X7597507Y4197294D01*
G01X7593580Y4176286D01*
G01X5538220Y4176286D01*
G01X5534293Y4197294D01*
G01X5526572Y4217223D01*
G01X5515321Y4235393D01*
G01X5500923Y4251187D01*
G01X5483868Y4264067D01*
G01X5464737Y4273593D01*
G01X5444181Y4279442D01*
G01X5422900Y4281414D01*
G01X5422900Y4281414D01*
G01X5401619Y4279442D01*
G01X5381063Y4273593D01*
G01X5361932Y4264067D01*
G01X5344877Y4251187D01*
G01X5330479Y4235393D01*
G01X5319228Y4217223D01*
G01X5311507Y4197294D01*
G01X5307580Y4176286D01*
G01X3642593Y4176286D01*
G01X3634707Y4182337D01*
G01X3621246Y4187913D01*
G01X3606800Y4189815D01*
G01X3592354Y4187913D01*
G01X3578893Y4182337D01*
G01X3567334Y4173467D01*
G01X3558464Y4161908D01*
G01X3552888Y4148446D01*
G01X3550986Y4134001D01*
G01X3550986Y4134001D01*
G01X516133Y4134001D01*
G01X518978Y4144621D01*
G01X520814Y4165600D01*
G01X518978Y4186579D01*
G01X513528Y4206921D01*
G01X504628Y4226007D01*
G01X492549Y4243258D01*
G01X477658Y4258149D01*
G01X460407Y4270228D01*
G01X441321Y4279128D01*
G01X420979Y4284578D01*
G01X400000Y4286414D01*
G01X379021Y4284578D01*
G01X358679Y4279128D01*
G01X339593Y4270228D01*
G01X322342Y4258149D01*
G01X307451Y4243258D01*
G01X295372Y4226007D01*
G01X286472Y4206921D01*
G01X281022Y4186579D01*
G01X279186Y4165600D01*
G01X35814Y4165600D01*
G01X35814Y4419600D01*
G01X279186Y4419600D01*
G01X281022Y4398621D01*
G01X286472Y4378279D01*
G01X295372Y4359193D01*
G01X307451Y4341942D01*
G01X322342Y4327051D01*
G01X339593Y4314972D01*
G01X358679Y4306072D01*
G01X379021Y4300622D01*
G01X400000Y4298786D01*
G01X400000Y4298786D01*
G01X420979Y4300622D01*
G01X441321Y4306072D01*
G01X460407Y4314972D01*
G01X477658Y4327051D01*
G01X492549Y4341942D01*
G01X504628Y4359193D01*
G01X513528Y4378279D01*
G01X518978Y4398621D01*
G01X520814Y4419600D01*
G01X520738Y4420464D01*
G01X4833686Y4420464D01*
G01X4835588Y4406018D01*
G01X4841164Y4392557D01*
G01X4850034Y4380997D01*
G01X4861593Y4372127D01*
G01X4875054Y4366551D01*
G01X4889500Y4364650D01*
G01X4903946Y4366551D01*
G01X4917407Y4372127D01*
G01X4928966Y4380997D01*
G01X4937836Y4392557D01*
G01X4943412Y4406018D01*
G01X4945314Y4420464D01*
G01X4944021Y4430286D01*
G01X5307580Y4430286D01*
G01X5307580Y4408914D01*
G01X5311507Y4387906D01*
G01X5319228Y4367977D01*
G01X5330479Y4349807D01*
G01X5344877Y4334013D01*
G01X5361932Y4321133D01*
G01X5381063Y4311607D01*
G01X5401619Y4305758D01*
G01X5422900Y4303786D01*
G01X5444181Y4305758D01*
G01X5464737Y4311607D01*
G01X5483868Y4321133D01*
G01X5500923Y4334013D01*
G01X5515321Y4349807D01*
G01X5526572Y4367977D01*
G01X5534293Y4387906D01*
G01X5538220Y4408914D01*
G01X5538220Y4430286D01*
G01X7593580Y4430286D01*
G01X7593580Y4408914D01*
G01X7597507Y4387906D01*
G01X7605228Y4367977D01*
G01X7616479Y4349807D01*
G01X7630877Y4334013D01*
G01X7647932Y4321133D01*
G01X7667063Y4311607D01*
G01X7687619Y4305758D01*
G01X7708900Y4303786D01*
G01X7730181Y4305758D01*
G01X7750737Y4311607D01*
G01X7769868Y4321133D01*
G01X7786923Y4334013D01*
G01X7801321Y4349807D01*
G01X7812572Y4367977D01*
G01X7820293Y4387906D01*
G01X7824220Y4408914D01*
G01X7824220Y4430286D01*
G01X7820293Y4451294D01*
G01X7812572Y4471223D01*
G01X7801321Y4489393D01*
G01X7786923Y4505187D01*
G01X7769868Y4518067D01*
G01X7750737Y4527593D01*
G01X7730181Y4533442D01*
G01X7708900Y4535414D01*
G01X7708900Y4535414D01*
G01X7687619Y4533442D01*
G01X7667063Y4527593D01*
G01X7647932Y4518067D01*
G01X7630877Y4505187D01*
G01X7616479Y4489393D01*
G01X7605228Y4471223D01*
G01X7597507Y4451294D01*
G01X7593580Y4430286D01*
G01X5538220Y4430286D01*
G01X5534293Y4451294D01*
G01X5526572Y4471223D01*
G01X5515321Y4489393D01*
G01X5500923Y4505187D01*
G01X5483868Y4518067D01*
G01X5464737Y4527593D01*
G01X5444181Y4533442D01*
G01X5422900Y4535414D01*
G01X5422900Y4535414D01*
G01X5401619Y4533442D01*
G01X5381063Y4527593D01*
G01X5361932Y4518067D01*
G01X5344877Y4505187D01*
G01X5330479Y4489393D01*
G01X5319228Y4471223D01*
G01X5311507Y4451294D01*
G01X5307580Y4430286D01*
G01X4944021Y4430286D01*
G01X4943412Y4434909D01*
G01X4937836Y4448371D01*
G01X4928966Y4459930D01*
G01X4917407Y4468800D01*
G01X4903946Y4474376D01*
G01X4889500Y4476278D01*
G01X4875054Y4474376D01*
G01X4861593Y4468800D01*
G01X4850034Y4459930D01*
G01X4841164Y4448371D01*
G01X4835588Y4434909D01*
G01X4833686Y4420464D01*
G01X4833686Y4420464D01*
G01X520738Y4420464D01*
G01X518978Y4440579D01*
G01X513528Y4460921D01*
G01X504628Y4480007D01*
G01X492549Y4497258D01*
G01X477658Y4512149D01*
G01X460407Y4524228D01*
G01X441321Y4533128D01*
G01X420979Y4538578D01*
G01X400000Y4540414D01*
G01X379021Y4538578D01*
G01X358679Y4533128D01*
G01X339593Y4524228D01*
G01X322342Y4512149D01*
G01X307451Y4497258D01*
G01X295372Y4480007D01*
G01X286472Y4460921D01*
G01X281022Y4440579D01*
G01X279186Y4419600D01*
G01X35814Y4419600D01*
G01X35814Y4833595D01*
G01X109185Y4833595D01*
G01X111170Y4814713D01*
G01X117037Y4796657D01*
G01X126529Y4780215D01*
G01X139233Y4766106D01*
G01X154593Y4754946D01*
G01X171937Y4747224D01*
G01X190508Y4743277D01*
G01X209493Y4743277D01*
G01X228064Y4747224D01*
G01X245408Y4754946D01*
G01X250437Y4758600D01*
G01X279186Y4758600D01*
G01X279186Y4588600D01*
G01X280939Y4577533D01*
G01X286026Y4567549D01*
G01X293949Y4559626D01*
G01X303933Y4554539D01*
G01X315000Y4552786D01*
G01X485000Y4552786D01*
G01X496067Y4554539D01*
G01X506051Y4559626D01*
G01X513974Y4567549D01*
G01X516242Y4572000D01*
G01X4516186Y4572000D01*
G01X4518088Y4557554D01*
G01X4523664Y4544093D01*
G01X4532534Y4532534D01*
G01X4544093Y4523664D01*
G01X4557554Y4518088D01*
G01X4572000Y4516186D01*
G01X4586446Y4518088D01*
G01X4599907Y4523664D01*
G01X4611466Y4532534D01*
G01X4620336Y4544093D01*
G01X4625912Y4557554D01*
G01X4627814Y4572000D01*
G01X4625912Y4586446D01*
G01X4620336Y4599907D01*
G01X4611466Y4611466D01*
G01X4599907Y4620336D01*
G01X4586446Y4625912D01*
G01X4572000Y4627814D01*
G01X4557554Y4625912D01*
G01X4544093Y4620336D01*
G01X4532534Y4611466D01*
G01X4523664Y4599907D01*
G01X4518088Y4586446D01*
G01X4516186Y4572000D01*
G01X4516186Y4572000D01*
G01X516242Y4572000D01*
G01X519061Y4577533D01*
G01X520814Y4588600D01*
G01X520814Y4684286D01*
G01X5307580Y4684286D01*
G01X5307580Y4662914D01*
G01X5311507Y4641906D01*
G01X5319228Y4621977D01*
G01X5330479Y4603807D01*
G01X5344877Y4588013D01*
G01X5361932Y4575133D01*
G01X5381063Y4565607D01*
G01X5401619Y4559758D01*
G01X5422900Y4557786D01*
G01X5444181Y4559758D01*
G01X5464737Y4565607D01*
G01X5483868Y4575133D01*
G01X5500923Y4588013D01*
G01X5515321Y4603807D01*
G01X5526572Y4621977D01*
G01X5534293Y4641906D01*
G01X5538220Y4662914D01*
G01X5538220Y4684286D01*
G01X7593580Y4684286D01*
G01X7593580Y4662914D01*
G01X7597507Y4641906D01*
G01X7605228Y4621977D01*
G01X7616479Y4603807D01*
G01X7630877Y4588013D01*
G01X7647932Y4575133D01*
G01X7667063Y4565607D01*
G01X7687619Y4559758D01*
G01X7708900Y4557786D01*
G01X7730181Y4559758D01*
G01X7750737Y4565607D01*
G01X7769868Y4575133D01*
G01X7786923Y4588013D01*
G01X7801321Y4603807D01*
G01X7812572Y4621977D01*
G01X7820293Y4641906D01*
G01X7824220Y4662914D01*
G01X7824220Y4684286D01*
G01X7820293Y4705294D01*
G01X7812572Y4725223D01*
G01X7801321Y4743393D01*
G01X7786923Y4759187D01*
G01X7769868Y4772067D01*
G01X7750737Y4781593D01*
G01X7730181Y4787442D01*
G01X7708900Y4789414D01*
G01X7708900Y4789414D01*
G01X7687619Y4787442D01*
G01X7667063Y4781593D01*
G01X7647932Y4772067D01*
G01X7630877Y4759187D01*
G01X7616479Y4743393D01*
G01X7605228Y4725223D01*
G01X7597507Y4705294D01*
G01X7593580Y4684286D01*
G01X5538220Y4684286D01*
G01X5534293Y4705294D01*
G01X5526572Y4725223D01*
G01X5515321Y4743393D01*
G01X5500923Y4759187D01*
G01X5483868Y4772067D01*
G01X5464737Y4781593D01*
G01X5444181Y4787442D01*
G01X5422900Y4789414D01*
G01X5422900Y4789414D01*
G01X5401619Y4787442D01*
G01X5381063Y4781593D01*
G01X5361932Y4772067D01*
G01X5344877Y4759187D01*
G01X5330479Y4743393D01*
G01X5319228Y4725223D01*
G01X5311507Y4705294D01*
G01X5307580Y4684286D01*
G01X520814Y4684286D01*
G01X520814Y4758600D01*
G01X520814Y4758600D01*
G01X519061Y4769667D01*
G01X513974Y4779651D01*
G01X506051Y4787574D01*
G01X496067Y4792661D01*
G01X485000Y4794414D01*
G01X315000Y4794414D01*
G01X303933Y4792661D01*
G01X293949Y4787574D01*
G01X286026Y4779651D01*
G01X280939Y4769667D01*
G01X279186Y4758600D01*
G01X250437Y4758600D01*
G01X260768Y4766106D01*
G01X273471Y4780215D01*
G01X282964Y4796657D01*
G01X288831Y4814713D01*
G01X290017Y4826000D01*
G01X4719386Y4826000D01*
G01X4721288Y4811554D01*
G01X4726864Y4798093D01*
G01X4735734Y4786534D01*
G01X4747293Y4777664D01*
G01X4760754Y4772088D01*
G01X4775200Y4770186D01*
G01X4789646Y4772088D01*
G01X4803107Y4777664D01*
G01X4814666Y4786534D01*
G01X4823536Y4798093D01*
G01X4829112Y4811554D01*
G01X4831014Y4826000D01*
G01X4829112Y4840446D01*
G01X4823536Y4853907D01*
G01X4814666Y4865466D01*
G01X4803107Y4874336D01*
G01X4789646Y4879912D01*
G01X4775200Y4881814D01*
G01X4760754Y4879912D01*
G01X4747293Y4874336D01*
G01X4735734Y4865466D01*
G01X4726864Y4853907D01*
G01X4721288Y4840446D01*
G01X4719386Y4826000D01*
G01X4719386Y4826000D01*
G01X290017Y4826000D01*
G01X290816Y4833595D01*
G01X288831Y4852476D01*
G01X282964Y4870532D01*
G01X273471Y4886974D01*
G01X260768Y4901083D01*
G01X259231Y4902200D01*
G01X2170986Y4902200D01*
G01X2172899Y4886450D01*
G01X2178525Y4871615D01*
G01X2187538Y4858557D01*
G01X2199414Y4848036D01*
G01X2213462Y4840663D01*
G01X2228867Y4836866D01*
G01X2244733Y4836866D01*
G01X2260138Y4840663D01*
G01X2274187Y4848036D01*
G01X2286063Y4858557D01*
G01X2295076Y4871615D01*
G01X2300702Y4886450D01*
G01X2302614Y4902200D01*
G01X2300702Y4917950D01*
G01X2295076Y4932785D01*
G01X2289889Y4940300D01*
G01X4001983Y4940300D01*
G01X4003896Y4924550D01*
G01X4009522Y4909715D01*
G01X4018535Y4896657D01*
G01X4030411Y4886136D01*
G01X4044459Y4878763D01*
G01X4059864Y4874966D01*
G01X4075730Y4874966D01*
G01X4091135Y4878763D01*
G01X4105184Y4886136D01*
G01X4117060Y4896657D01*
G01X4126073Y4909715D01*
G01X4131699Y4924550D01*
G01X4133367Y4938286D01*
G01X5307580Y4938286D01*
G01X5307580Y4916914D01*
G01X5311507Y4895906D01*
G01X5319228Y4875977D01*
G01X5330479Y4857807D01*
G01X5344877Y4842013D01*
G01X5361932Y4829133D01*
G01X5381063Y4819607D01*
G01X5401619Y4813758D01*
G01X5422900Y4811786D01*
G01X5444181Y4813758D01*
G01X5464737Y4819607D01*
G01X5483868Y4829133D01*
G01X5500923Y4842013D01*
G01X5515321Y4857807D01*
G01X5526572Y4875977D01*
G01X5534293Y4895906D01*
G01X5538220Y4916914D01*
G01X5538220Y4938286D01*
G01X7593580Y4938286D01*
G01X7593580Y4916914D01*
G01X7597507Y4895906D01*
G01X7605228Y4875977D01*
G01X7616479Y4857807D01*
G01X7630877Y4842013D01*
G01X7647932Y4829133D01*
G01X7667063Y4819607D01*
G01X7687619Y4813758D01*
G01X7708900Y4811786D01*
G01X7730181Y4813758D01*
G01X7750737Y4819607D01*
G01X7769868Y4829133D01*
G01X7786923Y4842013D01*
G01X7801321Y4857807D01*
G01X7812572Y4875977D01*
G01X7820293Y4895906D01*
G01X7824220Y4916914D01*
G01X7824220Y4938286D01*
G01X7820293Y4959294D01*
G01X7812572Y4979223D01*
G01X7801321Y4997393D01*
G01X7786923Y5013187D01*
G01X7769868Y5026067D01*
G01X7750737Y5035593D01*
G01X7730181Y5041442D01*
G01X7708900Y5043414D01*
G01X7708900Y5043414D01*
G01X7687619Y5041442D01*
G01X7667063Y5035593D01*
G01X7647932Y5026067D01*
G01X7630877Y5013187D01*
G01X7616479Y4997393D01*
G01X7605228Y4979223D01*
G01X7597507Y4959294D01*
G01X7593580Y4938286D01*
G01X5538220Y4938286D01*
G01X5534293Y4959294D01*
G01X5526572Y4979223D01*
G01X5515321Y4997393D01*
G01X5500923Y5013187D01*
G01X5483868Y5026067D01*
G01X5464737Y5035593D01*
G01X5444181Y5041442D01*
G01X5422900Y5043414D01*
G01X5422900Y5043414D01*
G01X5401619Y5041442D01*
G01X5381063Y5035593D01*
G01X5361932Y5026067D01*
G01X5344877Y5013187D01*
G01X5330479Y4997393D01*
G01X5319228Y4979223D01*
G01X5311507Y4959294D01*
G01X5307580Y4938286D01*
G01X4133367Y4938286D01*
G01X4133611Y4940300D01*
G01X4131699Y4956050D01*
G01X4126073Y4970885D01*
G01X4117060Y4983943D01*
G01X4105184Y4994464D01*
G01X4091135Y5001837D01*
G01X4075730Y5005634D01*
G01X4059864Y5005634D01*
G01X4044459Y5001837D01*
G01X4030411Y4994464D01*
G01X4018535Y4983943D01*
G01X4009522Y4970885D01*
G01X4003896Y4956050D01*
G01X4001983Y4940300D01*
G01X4001983Y4940300D01*
G01X2289889Y4940300D01*
G01X2286063Y4945843D01*
G01X2274187Y4956364D01*
G01X2260138Y4963737D01*
G01X2244733Y4967534D01*
G01X2228867Y4967534D01*
G01X2213462Y4963737D01*
G01X2199414Y4956364D01*
G01X2187538Y4945843D01*
G01X2178525Y4932785D01*
G01X2172899Y4917950D01*
G01X2170986Y4902200D01*
G01X2170986Y4902200D01*
G01X259231Y4902200D01*
G01X245408Y4912243D01*
G01X228064Y4919965D01*
G01X209493Y4923912D01*
G01X190508Y4923912D01*
G01X171937Y4919965D01*
G01X154593Y4912243D01*
G01X139233Y4901083D01*
G01X126529Y4886974D01*
G01X117037Y4870532D01*
G01X111170Y4852476D01*
G01X109185Y4833595D01*
G01X109185Y4833595D01*
G01X35814Y4833595D01*
G01X35814Y5274500D01*
G01X274186Y5274500D01*
G01X276098Y5252653D01*
G01X281774Y5231469D01*
G01X291042Y5211593D01*
G01X303621Y5193628D01*
G01X319128Y5178121D01*
G01X337093Y5165542D01*
G01X356969Y5156274D01*
G01X378153Y5150598D01*
G01X400000Y5148686D01*
G01X421847Y5150598D01*
G01X443031Y5156274D01*
G01X462907Y5165542D01*
G01X480872Y5178121D01*
G01X495036Y5192286D01*
G01X5307580Y5192286D01*
G01X5307580Y5170914D01*
G01X5311507Y5149906D01*
G01X5319228Y5129977D01*
G01X5330479Y5111807D01*
G01X5344877Y5096013D01*
G01X5361932Y5083133D01*
G01X5381063Y5073607D01*
G01X5401619Y5067758D01*
G01X5422900Y5065786D01*
G01X5444181Y5067758D01*
G01X5464737Y5073607D01*
G01X5483868Y5083133D01*
G01X5500923Y5096013D01*
G01X5515321Y5111807D01*
G01X5526572Y5129977D01*
G01X5534293Y5149906D01*
G01X5538220Y5170914D01*
G01X5538220Y5192286D01*
G01X7593580Y5192286D01*
G01X7593580Y5170914D01*
G01X7597507Y5149906D01*
G01X7605228Y5129977D01*
G01X7616479Y5111807D01*
G01X7630877Y5096013D01*
G01X7647932Y5083133D01*
G01X7667063Y5073607D01*
G01X7687619Y5067758D01*
G01X7708900Y5065786D01*
G01X7730181Y5067758D01*
G01X7750737Y5073607D01*
G01X7769868Y5083133D01*
G01X7786923Y5096013D01*
G01X7801321Y5111807D01*
G01X7812572Y5129977D01*
G01X7820293Y5149906D01*
G01X7824220Y5170914D01*
G01X7824220Y5192286D01*
G01X7820293Y5213294D01*
G01X7812572Y5233223D01*
G01X7801321Y5251393D01*
G01X7786923Y5267187D01*
G01X7769868Y5280067D01*
G01X7750737Y5289593D01*
G01X7730181Y5295442D01*
G01X7708900Y5297414D01*
G01X7708900Y5297414D01*
G01X7687619Y5295442D01*
G01X7667063Y5289593D01*
G01X7647932Y5280067D01*
G01X7630877Y5267187D01*
G01X7616479Y5251393D01*
G01X7605228Y5233223D01*
G01X7597507Y5213294D01*
G01X7593580Y5192286D01*
G01X5538220Y5192286D01*
G01X5534293Y5213294D01*
G01X5526572Y5233223D01*
G01X5515321Y5251393D01*
G01X5500923Y5267187D01*
G01X5483868Y5280067D01*
G01X5464737Y5289593D01*
G01X5444181Y5295442D01*
G01X5422900Y5297414D01*
G01X5422900Y5297414D01*
G01X5401619Y5295442D01*
G01X5381063Y5289593D01*
G01X5361932Y5280067D01*
G01X5344877Y5267187D01*
G01X5330479Y5251393D01*
G01X5319228Y5233223D01*
G01X5311507Y5213294D01*
G01X5307580Y5192286D01*
G01X495036Y5192286D01*
G01X496379Y5193628D01*
G01X508958Y5211593D01*
G01X518226Y5231469D01*
G01X523902Y5252653D01*
G01X525814Y5274500D01*
G01X523902Y5296347D01*
G01X518226Y5317531D01*
G01X508958Y5337407D01*
G01X502451Y5346700D01*
G01X4846386Y5346700D01*
G01X4848288Y5332254D01*
G01X4853864Y5318793D01*
G01X4862734Y5307234D01*
G01X4874293Y5298364D01*
G01X4887754Y5292788D01*
G01X4902200Y5290886D01*
G01X4916646Y5292788D01*
G01X4930107Y5298364D01*
G01X4941666Y5307234D01*
G01X4950536Y5318793D01*
G01X4956112Y5332254D01*
G01X4958014Y5346700D01*
G01X4956112Y5361146D01*
G01X4950536Y5374607D01*
G01X4941666Y5386166D01*
G01X4930107Y5395036D01*
G01X4916646Y5400612D01*
G01X4902200Y5402514D01*
G01X4887754Y5400612D01*
G01X4874293Y5395036D01*
G01X4862734Y5386166D01*
G01X4853864Y5374607D01*
G01X4848288Y5361146D01*
G01X4846386Y5346700D01*
G01X4846386Y5346700D01*
G01X502451Y5346700D01*
G01X496379Y5355372D01*
G01X480872Y5370879D01*
G01X462907Y5383458D01*
G01X443031Y5392726D01*
G01X421847Y5398402D01*
G01X400000Y5400314D01*
G01X400000Y5400314D01*
G01X378153Y5398402D01*
G01X356969Y5392726D01*
G01X337093Y5383458D01*
G01X319128Y5370879D01*
G01X303621Y5355372D01*
G01X291042Y5337407D01*
G01X281774Y5317531D01*
G01X276098Y5296347D01*
G01X274186Y5274500D01*
G01X35814Y5274500D01*
G01X35814Y5684198D01*
G01X104283Y5684198D01*
G01X107134Y5664910D01*
G01X113832Y5646599D01*
G01X124097Y5630022D01*
G01X137506Y5615867D01*
G01X153503Y5604719D01*
G01X171426Y5597041D01*
G01X190531Y5593150D01*
G01X210029Y5593207D01*
G01X229112Y5597210D01*
G01X246989Y5604994D01*
G01X262920Y5616235D01*
G01X276245Y5630469D01*
G01X274705Y5624572D01*
G01X274186Y5618500D01*
G01X274186Y5618500D01*
G01X274186Y5438500D01*
G01X275939Y5427433D01*
G01X281026Y5417449D01*
G01X288949Y5409526D01*
G01X298933Y5404439D01*
G01X310000Y5402686D01*
G01X490000Y5402686D01*
G01X501067Y5404439D01*
G01X511051Y5409526D01*
G01X518974Y5417449D01*
G01X524061Y5427433D01*
G01X525814Y5438500D01*
G01X525814Y5446286D01*
G01X5307580Y5446286D01*
G01X5307580Y5424914D01*
G01X5311507Y5403906D01*
G01X5319228Y5383977D01*
G01X5330479Y5365807D01*
G01X5344877Y5350013D01*
G01X5361932Y5337133D01*
G01X5381063Y5327607D01*
G01X5401619Y5321758D01*
G01X5422900Y5319786D01*
G01X5444181Y5321758D01*
G01X5464737Y5327607D01*
G01X5483868Y5337133D01*
G01X5500923Y5350013D01*
G01X5515321Y5365807D01*
G01X5526572Y5383977D01*
G01X5534293Y5403906D01*
G01X5538220Y5424914D01*
G01X5538220Y5446286D01*
G01X7593580Y5446286D01*
G01X7593580Y5424914D01*
G01X7597507Y5403906D01*
G01X7605228Y5383977D01*
G01X7616479Y5365807D01*
G01X7630877Y5350013D01*
G01X7647932Y5337133D01*
G01X7667063Y5327607D01*
G01X7687619Y5321758D01*
G01X7708900Y5319786D01*
G01X7730181Y5321758D01*
G01X7750737Y5327607D01*
G01X7769868Y5337133D01*
G01X7786923Y5350013D01*
G01X7801321Y5365807D01*
G01X7812572Y5383977D01*
G01X7820293Y5403906D01*
G01X7824220Y5424914D01*
G01X7824220Y5446286D01*
G01X7820293Y5467294D01*
G01X7812572Y5487223D01*
G01X7801321Y5505393D01*
G01X7786923Y5521187D01*
G01X7769868Y5534067D01*
G01X7750737Y5543593D01*
G01X7730181Y5549442D01*
G01X7708900Y5551414D01*
G01X7708900Y5551414D01*
G01X7687619Y5549442D01*
G01X7667063Y5543593D01*
G01X7647932Y5534067D01*
G01X7630877Y5521187D01*
G01X7616479Y5505393D01*
G01X7605228Y5487223D01*
G01X7597507Y5467294D01*
G01X7593580Y5446286D01*
G01X5538220Y5446286D01*
G01X5534293Y5467294D01*
G01X5526572Y5487223D01*
G01X5515321Y5505393D01*
G01X5500923Y5521187D01*
G01X5483868Y5534067D01*
G01X5464737Y5543593D01*
G01X5444181Y5549442D01*
G01X5422900Y5551414D01*
G01X5422900Y5551414D01*
G01X5401619Y5549442D01*
G01X5381063Y5543593D01*
G01X5361932Y5534067D01*
G01X5344877Y5521187D01*
G01X5330479Y5505393D01*
G01X5319228Y5487223D01*
G01X5311507Y5467294D01*
G01X5307580Y5446286D01*
G01X525814Y5446286D01*
G01X525814Y5532552D01*
G01X3540986Y5532552D01*
G01X3542898Y5516801D01*
G01X3548525Y5501967D01*
G01X3557538Y5488909D01*
G01X3569413Y5478388D01*
G01X3583462Y5471015D01*
G01X3598867Y5467218D01*
G01X3614733Y5467218D01*
G01X3630138Y5471015D01*
G01X3644187Y5478388D01*
G01X3656062Y5488909D01*
G01X3665075Y5501967D01*
G01X3670702Y5516801D01*
G01X3672614Y5532552D01*
G01X3670702Y5548302D01*
G01X3665075Y5563137D01*
G01X3656680Y5575300D01*
G01X5011486Y5575300D01*
G01X5013388Y5560854D01*
G01X5018964Y5547393D01*
G01X5027834Y5535834D01*
G01X5039393Y5526964D01*
G01X5052854Y5521388D01*
G01X5067300Y5519486D01*
G01X5081746Y5521388D01*
G01X5095207Y5526964D01*
G01X5106766Y5535834D01*
G01X5115636Y5547393D01*
G01X5121212Y5560854D01*
G01X5123114Y5575300D01*
G01X5121212Y5589746D01*
G01X5115636Y5603207D01*
G01X5106766Y5614766D01*
G01X5095207Y5623636D01*
G01X5081746Y5629212D01*
G01X5067300Y5631114D01*
G01X5052854Y5629212D01*
G01X5039393Y5623636D01*
G01X5027834Y5614766D01*
G01X5018964Y5603207D01*
G01X5013388Y5589746D01*
G01X5011486Y5575300D01*
G01X5011486Y5575300D01*
G01X3656680Y5575300D01*
G01X3656062Y5576195D01*
G01X3644187Y5586716D01*
G01X3630138Y5594089D01*
G01X3614733Y5597886D01*
G01X3598867Y5597886D01*
G01X3583462Y5594089D01*
G01X3569413Y5586716D01*
G01X3557538Y5576195D01*
G01X3548525Y5563137D01*
G01X3542898Y5548302D01*
G01X3540986Y5532552D01*
G01X3540986Y5532552D01*
G01X525814Y5532552D01*
G01X525814Y5613400D01*
G01X2319086Y5613400D01*
G01X2320988Y5598954D01*
G01X2326564Y5585493D01*
G01X2335434Y5573934D01*
G01X2346993Y5565064D01*
G01X2360454Y5559488D01*
G01X2374900Y5557586D01*
G01X2389346Y5559488D01*
G01X2402807Y5565064D01*
G01X2414366Y5573934D01*
G01X2423236Y5585493D01*
G01X2428812Y5598954D01*
G01X2430714Y5613400D01*
G01X2428812Y5627846D01*
G01X2423236Y5641307D01*
G01X2414366Y5652866D01*
G01X2402807Y5661736D01*
G01X2389346Y5667312D01*
G01X2374900Y5669214D01*
G01X2360454Y5667312D01*
G01X2346993Y5661736D01*
G01X2335434Y5652866D01*
G01X2326564Y5641307D01*
G01X2320988Y5627846D01*
G01X2319086Y5613400D01*
G01X2319086Y5613400D01*
G01X525814Y5613400D01*
G01X525814Y5618500D01*
G01X524061Y5629567D01*
G01X518974Y5639551D01*
G01X511051Y5647474D01*
G01X501067Y5652561D01*
G01X490000Y5654314D01*
G01X310000Y5654314D01*
G01X300814Y5653116D01*
G01X292243Y5649602D01*
G01X284860Y5644007D01*
G01X292109Y5662107D01*
G01X295544Y5681300D01*
G01X295035Y5700286D01*
G01X5307580Y5700286D01*
G01X5307580Y5678914D01*
G01X5311507Y5657906D01*
G01X5319228Y5637977D01*
G01X5330479Y5619807D01*
G01X5344877Y5604013D01*
G01X5361932Y5591133D01*
G01X5381063Y5581607D01*
G01X5401619Y5575758D01*
G01X5422900Y5573786D01*
G01X5444181Y5575758D01*
G01X5464737Y5581607D01*
G01X5483868Y5591133D01*
G01X5500923Y5604013D01*
G01X5515321Y5619807D01*
G01X5526572Y5637977D01*
G01X5534293Y5657906D01*
G01X5538220Y5678914D01*
G01X5538220Y5700286D01*
G01X7593580Y5700286D01*
G01X7593580Y5678914D01*
G01X7597507Y5657906D01*
G01X7605228Y5637977D01*
G01X7616479Y5619807D01*
G01X7630877Y5604013D01*
G01X7647932Y5591133D01*
G01X7667063Y5581607D01*
G01X7687619Y5575758D01*
G01X7708900Y5573786D01*
G01X7730181Y5575758D01*
G01X7750737Y5581607D01*
G01X7769868Y5591133D01*
G01X7786923Y5604013D01*
G01X7801321Y5619807D01*
G01X7812572Y5637977D01*
G01X7820293Y5657906D01*
G01X7824220Y5678914D01*
G01X7824220Y5700286D01*
G01X7820293Y5721294D01*
G01X7812572Y5741223D01*
G01X7801321Y5759393D01*
G01X7786923Y5775187D01*
G01X7769868Y5788067D01*
G01X7750737Y5797593D01*
G01X7730181Y5803442D01*
G01X7708900Y5805414D01*
G01X7708900Y5805414D01*
G01X7687619Y5803442D01*
G01X7667063Y5797593D01*
G01X7647932Y5788067D01*
G01X7630877Y5775187D01*
G01X7616479Y5759393D01*
G01X7605228Y5741223D01*
G01X7597507Y5721294D01*
G01X7593580Y5700286D01*
G01X5538220Y5700286D01*
G01X5534293Y5721294D01*
G01X5526572Y5741223D01*
G01X5515321Y5759393D01*
G01X5500923Y5775187D01*
G01X5483868Y5788067D01*
G01X5464737Y5797593D01*
G01X5444181Y5803442D01*
G01X5422900Y5805414D01*
G01X5422900Y5805414D01*
G01X5401619Y5803442D01*
G01X5381063Y5797593D01*
G01X5361932Y5788067D01*
G01X5344877Y5775187D01*
G01X5330479Y5759393D01*
G01X5319228Y5741223D01*
G01X5311507Y5721294D01*
G01X5307580Y5700286D01*
G01X295035Y5700286D01*
G01X295022Y5700791D01*
G01X290565Y5719773D01*
G01X282358Y5737459D01*
G01X270740Y5753118D01*
G01X256193Y5766101D01*
G01X239319Y5775869D01*
G01X220816Y5782020D01*
G01X201452Y5784297D01*
G01X182028Y5782608D01*
G01X163347Y5777021D01*
G01X146185Y5767767D01*
G01X131251Y5755232D01*
G01X119164Y5739932D01*
G01X110425Y5722502D01*
G01X105395Y5703664D01*
G01X104283Y5684198D01*
G01X35814Y5684198D01*
G01X35814Y5892800D01*
G01X2222566Y5892800D01*
G01X2224468Y5878354D01*
G01X2230044Y5864893D01*
G01X2238914Y5853334D01*
G01X2250473Y5844464D01*
G01X2263934Y5838888D01*
G01X2278380Y5836986D01*
G01X2292826Y5838888D01*
G01X2300339Y5842000D01*
G01X2589069Y5842000D01*
G01X2590982Y5826250D01*
G01X2596608Y5811415D01*
G01X2605621Y5798357D01*
G01X2617497Y5787836D01*
G01X2631545Y5780463D01*
G01X2646950Y5776666D01*
G01X2662816Y5776666D01*
G01X2678221Y5780463D01*
G01X2692270Y5787836D01*
G01X2704146Y5798357D01*
G01X2713159Y5811415D01*
G01X2718785Y5826250D01*
G01X2720697Y5842000D01*
G01X2718785Y5857750D01*
G01X2713159Y5872585D01*
G01X2704146Y5885643D01*
G01X2692270Y5896164D01*
G01X2678221Y5903537D01*
G01X2662816Y5907334D01*
G01X2646950Y5907334D01*
G01X2631545Y5903537D01*
G01X2617497Y5896164D01*
G01X2605621Y5885643D01*
G01X2596608Y5872585D01*
G01X2590982Y5857750D01*
G01X2589069Y5842000D01*
G01X2589069Y5842000D01*
G01X2300339Y5842000D01*
G01X2306287Y5844464D01*
G01X2317846Y5853334D01*
G01X2326716Y5864893D01*
G01X2332292Y5878354D01*
G01X2334194Y5892800D01*
G01X2332292Y5907246D01*
G01X2326716Y5920707D01*
G01X2317846Y5932266D01*
G01X2306287Y5941136D01*
G01X2292826Y5946712D01*
G01X2278380Y5948614D01*
G01X2263934Y5946712D01*
G01X2250473Y5941136D01*
G01X2238914Y5932266D01*
G01X2230044Y5920707D01*
G01X2224468Y5907246D01*
G01X2222566Y5892800D01*
G01X2222566Y5892800D01*
G01X35814Y5892800D01*
G01X35814Y5954286D01*
G01X5307580Y5954286D01*
G01X5307580Y5932914D01*
G01X5311507Y5911906D01*
G01X5319228Y5891977D01*
G01X5330479Y5873807D01*
G01X5344877Y5858013D01*
G01X5361932Y5845133D01*
G01X5381063Y5835607D01*
G01X5401619Y5829758D01*
G01X5422900Y5827786D01*
G01X5444181Y5829758D01*
G01X5464737Y5835607D01*
G01X5483868Y5845133D01*
G01X5500923Y5858013D01*
G01X5515321Y5873807D01*
G01X5526572Y5891977D01*
G01X5534293Y5911906D01*
G01X5538220Y5932914D01*
G01X5538220Y5954286D01*
G01X5534293Y5975294D01*
G01X5526572Y5995223D01*
G01X5523614Y6000000D01*
G01X6404186Y6000000D01*
G01X6406179Y5972133D01*
G01X6412118Y5944833D01*
G01X6421881Y5918656D01*
G01X6435271Y5894135D01*
G01X6452014Y5871769D01*
G01X6471769Y5852014D01*
G01X6494135Y5835271D01*
G01X6518656Y5821881D01*
G01X6544833Y5812118D01*
G01X6572133Y5806179D01*
G01X6600000Y5804186D01*
G01X6627867Y5806179D01*
G01X6655167Y5812118D01*
G01X6681344Y5821881D01*
G01X6705865Y5835271D01*
G01X6728231Y5852014D01*
G01X6747986Y5871769D01*
G01X6764729Y5894135D01*
G01X6778119Y5918656D01*
G01X6787882Y5944833D01*
G01X6789938Y5954286D01*
G01X7593580Y5954286D01*
G01X7593580Y5932914D01*
G01X7597507Y5911906D01*
G01X7605228Y5891977D01*
G01X7616479Y5873807D01*
G01X7630877Y5858013D01*
G01X7647932Y5845133D01*
G01X7667063Y5835607D01*
G01X7687619Y5829758D01*
G01X7708900Y5827786D01*
G01X7730181Y5829758D01*
G01X7750737Y5835607D01*
G01X7769868Y5845133D01*
G01X7786923Y5858013D01*
G01X7801321Y5873807D01*
G01X7812572Y5891977D01*
G01X7820293Y5911906D01*
G01X7824220Y5932914D01*
G01X7824220Y5954286D01*
G01X7820293Y5975294D01*
G01X7812572Y5995223D01*
G01X7801321Y6013393D01*
G01X7786923Y6029187D01*
G01X7769868Y6042067D01*
G01X7750737Y6051593D01*
G01X7730181Y6057442D01*
G01X7708900Y6059414D01*
G01X7708900Y6059414D01*
G01X7687619Y6057442D01*
G01X7667063Y6051593D01*
G01X7647932Y6042067D01*
G01X7630877Y6029187D01*
G01X7616479Y6013393D01*
G01X7605228Y5995223D01*
G01X7597507Y5975294D01*
G01X7593580Y5954286D01*
G01X6789938Y5954286D01*
G01X6793821Y5972133D01*
G01X6795814Y6000000D01*
G01X6793821Y6027867D01*
G01X6787882Y6055167D01*
G01X6778119Y6081344D01*
G01X6764729Y6105865D01*
G01X6755944Y6117600D01*
G01X7593086Y6117600D01*
G01X7594839Y6106533D01*
G01X7599926Y6096549D01*
G01X7607849Y6088626D01*
G01X7617833Y6083539D01*
G01X7628900Y6081786D01*
G01X7788900Y6081786D01*
G01X7799967Y6083539D01*
G01X7809951Y6088626D01*
G01X7817874Y6096549D01*
G01X7822961Y6106533D01*
G01X7824714Y6117600D01*
G01X7824714Y6277600D01*
G01X7822961Y6288667D01*
G01X7817874Y6298651D01*
G01X7809951Y6306574D01*
G01X7799967Y6311661D01*
G01X7788900Y6313414D01*
G01X7628900Y6313414D01*
G01X7617833Y6311661D01*
G01X7607849Y6306574D01*
G01X7599926Y6298651D01*
G01X7594839Y6288667D01*
G01X7593086Y6277600D01*
G01X7593086Y6117600D01*
G01X7593086Y6117600D01*
G01X6755944Y6117600D01*
G01X6747986Y6128231D01*
G01X6728231Y6147986D01*
G01X6705865Y6164729D01*
G01X6681344Y6178119D01*
G01X6655167Y6187882D01*
G01X6627867Y6193821D01*
G01X6600000Y6195814D01*
G01X6572133Y6193821D01*
G01X6544833Y6187882D01*
G01X6518656Y6178119D01*
G01X6494135Y6164729D01*
G01X6471769Y6147986D01*
G01X6452014Y6128231D01*
G01X6435271Y6105865D01*
G01X6421881Y6081344D01*
G01X6412118Y6055167D01*
G01X6406179Y6027867D01*
G01X6404186Y6000000D01*
G01X6404186Y6000000D01*
G01X5523614Y6000000D01*
G01X5515321Y6013393D01*
G01X5500923Y6029187D01*
G01X5483868Y6042067D01*
G01X5464737Y6051593D01*
G01X5444181Y6057442D01*
G01X5422900Y6059414D01*
G01X5422900Y6059414D01*
G01X5401619Y6057442D01*
G01X5381063Y6051593D01*
G01X5361932Y6042067D01*
G01X5344877Y6029187D01*
G01X5330479Y6013393D01*
G01X5319228Y5995223D01*
G01X5311507Y5975294D01*
G01X5307580Y5954286D01*
G01X35814Y5954286D01*
G01X35814Y6174500D01*
G01X280586Y6174500D01*
G01X282498Y6152653D01*
G01X288174Y6131469D01*
G01X297442Y6111593D01*
G01X310021Y6093628D01*
G01X325528Y6078121D01*
G01X343493Y6065542D01*
G01X363369Y6056274D01*
G01X384553Y6050598D01*
G01X406400Y6048686D01*
G01X428247Y6050598D01*
G01X449431Y6056274D01*
G01X452919Y6057900D01*
G01X4010886Y6057900D01*
G01X4012798Y6042150D01*
G01X4018425Y6027315D01*
G01X4027438Y6014257D01*
G01X4039313Y6003736D01*
G01X4053362Y5996363D01*
G01X4068767Y5992566D01*
G01X4084633Y5992566D01*
G01X4100038Y5996363D01*
G01X4114087Y6003736D01*
G01X4125962Y6014257D01*
G01X4134975Y6027315D01*
G01X4140602Y6042150D01*
G01X4142514Y6057900D01*
G01X4140602Y6073650D01*
G01X4134975Y6088485D01*
G01X4125962Y6101543D01*
G01X4114087Y6112064D01*
G01X4103538Y6117600D01*
G01X5307086Y6117600D01*
G01X5308839Y6106533D01*
G01X5313926Y6096549D01*
G01X5321849Y6088626D01*
G01X5331833Y6083539D01*
G01X5342900Y6081786D01*
G01X5502900Y6081786D01*
G01X5513967Y6083539D01*
G01X5523951Y6088626D01*
G01X5531874Y6096549D01*
G01X5536961Y6106533D01*
G01X5538714Y6117600D01*
G01X5538714Y6277600D01*
G01X5536961Y6288667D01*
G01X5531874Y6298651D01*
G01X5523951Y6306574D01*
G01X5513967Y6311661D01*
G01X5502900Y6313414D01*
G01X5342900Y6313414D01*
G01X5331833Y6311661D01*
G01X5321849Y6306574D01*
G01X5313926Y6298651D01*
G01X5308839Y6288667D01*
G01X5307086Y6277600D01*
G01X5307086Y6117600D01*
G01X5307086Y6117600D01*
G01X4103538Y6117600D01*
G01X4100038Y6119437D01*
G01X4084633Y6123234D01*
G01X4068767Y6123234D01*
G01X4053362Y6119437D01*
G01X4039313Y6112064D01*
G01X4027438Y6101543D01*
G01X4018425Y6088485D01*
G01X4012798Y6073650D01*
G01X4010886Y6057900D01*
G01X4010886Y6057900D01*
G01X452919Y6057900D01*
G01X469307Y6065542D01*
G01X487272Y6078121D01*
G01X502779Y6093628D01*
G01X515358Y6111593D01*
G01X524626Y6131469D01*
G01X530302Y6152653D01*
G01X532214Y6174500D01*
G01X530302Y6196347D01*
G01X524626Y6217531D01*
G01X520709Y6225931D01*
G01X1204186Y6225931D01*
G01X1206098Y6210180D01*
G01X1211725Y6195345D01*
G01X1220738Y6182288D01*
G01X1232613Y6171767D01*
G01X1246662Y6164394D01*
G01X1262067Y6160597D01*
G01X1277933Y6160597D01*
G01X1293338Y6164394D01*
G01X1307387Y6171767D01*
G01X1319262Y6182288D01*
G01X1328275Y6195345D01*
G01X1333902Y6210180D01*
G01X1335814Y6225931D01*
G01X1333902Y6241681D01*
G01X1328275Y6256516D01*
G01X1319262Y6269573D01*
G01X1307387Y6280094D01*
G01X1293338Y6287468D01*
G01X1277933Y6291265D01*
G01X1262067Y6291265D01*
G01X1246662Y6287468D01*
G01X1232613Y6280094D01*
G01X1220738Y6269573D01*
G01X1211725Y6256516D01*
G01X1206098Y6241681D01*
G01X1204186Y6225931D01*
G01X1204186Y6225931D01*
G01X520709Y6225931D01*
G01X515358Y6237407D01*
G01X502779Y6255372D01*
G01X487272Y6270879D01*
G01X469307Y6283458D01*
G01X449431Y6292726D01*
G01X428247Y6298402D01*
G01X406400Y6300314D01*
G01X406400Y6300314D01*
G01X384553Y6298402D01*
G01X363369Y6292726D01*
G01X343493Y6283458D01*
G01X325528Y6270879D01*
G01X310021Y6255372D01*
G01X297442Y6237407D01*
G01X288174Y6217531D01*
G01X282498Y6196347D01*
G01X280586Y6174500D01*
G01X35814Y6174500D01*
G01X35814Y6584198D01*
G01X110683Y6584198D01*
G01X113535Y6564910D01*
G01X120232Y6546598D01*
G01X130498Y6530022D01*
G01X143906Y6515867D01*
G01X159903Y6504719D01*
G01X177826Y6497041D01*
G01X196931Y6493150D01*
G01X216429Y6493207D01*
G01X235512Y6497210D01*
G01X253389Y6504994D01*
G01X269320Y6516235D01*
G01X282645Y6530469D01*
G01X281105Y6524572D01*
G01X280586Y6518500D01*
G01X280586Y6518500D01*
G01X280586Y6338500D01*
G01X282339Y6327433D01*
G01X287426Y6317449D01*
G01X295349Y6309526D01*
G01X305333Y6304439D01*
G01X316400Y6302686D01*
G01X496400Y6302686D01*
G01X507467Y6304439D01*
G01X517451Y6309526D01*
G01X525374Y6317449D01*
G01X530461Y6327433D01*
G01X532214Y6338500D01*
G01X532214Y6518500D01*
G01X530461Y6529567D01*
G01X525374Y6539551D01*
G01X517451Y6547474D01*
G01X507467Y6552561D01*
G01X496400Y6554314D01*
G01X316400Y6554314D01*
G01X307214Y6553116D01*
G01X298643Y6549602D01*
G01X291260Y6544007D01*
G01X298509Y6562107D01*
G01X301944Y6581300D01*
G01X301422Y6600791D01*
G01X296965Y6619773D01*
G01X288758Y6637459D01*
G01X277140Y6653118D01*
G01X262593Y6666101D01*
G01X245719Y6675869D01*
G01X227217Y6682020D01*
G01X207852Y6684297D01*
G01X188428Y6682608D01*
G01X169747Y6677021D01*
G01X152585Y6667767D01*
G01X137651Y6655232D01*
G01X125564Y6639932D01*
G01X116825Y6622502D01*
G01X111795Y6603664D01*
G01X110683Y6584198D01*
G01X35814Y6584198D01*
G01X35814Y6797700D01*
G37*
G54D10*
G01X35814Y6797700D02*
G02X200000Y6961886I164186J0D01*
G01X7800000Y6961886D01*
G02X7964186Y6797700I0J-164186D01*
G01X7964186Y197700D01*
G02X7800000Y33514I-164186J0D01*
G01X200000Y33514D01*
G02X35814Y197700I0J164186D01*
G01X35814Y6797700D01*
G01X274186Y5618500D02*
G01X274186Y5438500D01*
G03X310000Y5402686I35814J0D01*
G01X490000Y5402686D01*
G03X525814Y5438500I0J35814D01*
G01X525814Y5618500D01*
G03X490000Y5654314I-35814J0D01*
G01X310000Y5654314D01*
G03X284860Y5644007I0J-35814D01*
G03X119164Y5739932I-84860J44488D01*
G03X276245Y5630469I80836J-51437D01*
G03X274186Y5618500I33755J-11969D01*
G01X109185Y4833595D02*
G03X290816Y4833595I90815J0D01*
G03X109185Y4833595I-90815J0D01*
G01X109185Y3253511D02*
G03X290816Y3253511I90815J0D01*
G03X109185Y3253511I-90815J0D01*
G01X280586Y6518500D02*
G01X280586Y6338500D01*
G03X316400Y6302686I35814J0D01*
G01X496400Y6302686D01*
G03X532214Y6338500I0J35814D01*
G01X532214Y6518500D01*
G03X496400Y6554314I-35814J0D01*
G01X316400Y6554314D01*
G03X291260Y6544007I0J-35814D01*
G03X125564Y6639932I-84860J44488D01*
G03X282645Y6530469I80836J-51437D01*
G03X280586Y6518500I33755J-11969D01*
G01X400000Y5400314D02*
G03X400000Y5148686I0J-125814D01*
G03X400000Y5400314I0J125814D01*
G01X400000Y4298786D02*
G03X400000Y4540414I0J120814D01*
G03X400000Y4298786I0J-120814D01*
G01X400000Y3790786D02*
G03X400000Y4032414I0J120814D01*
G03X400000Y3790786I0J-120814D01*
G01X400000Y4044786D02*
G03X400000Y4286414I0J120814D01*
G03X400000Y4044786I0J-120814D01*
G01X400000Y3536786D02*
G03X400000Y3778414I0J120814D01*
G03X400000Y3536786I0J-120814D01*
G01X520814Y4758600D02*
G03X485000Y4794414I-35814J0D01*
G01X315000Y4794414D01*
G03X279186Y4758600I0J-35814D01*
G01X279186Y4588600D01*
G03X315000Y4552786I35814J0D01*
G01X485000Y4552786D01*
G03X520814Y4588600I0J35814D01*
G01X520814Y4758600D01*
G01X406400Y6300314D02*
G03X406400Y6048686I0J-125814D01*
G03X406400Y6300314I0J125814D01*
G01X400000Y727695D02*
G03X400000Y959322I0J115814D01*
G03X400000Y727695I0J-115814D01*
G01X400000Y1477681D02*
G03X400000Y1709308I0J115814D01*
G03X400000Y1477681I0J-115814D01*
G01X400000Y1227694D02*
G03X400000Y1459321I0J115814D01*
G03X400000Y1227694I0J-115814D01*
G01X400000Y977682D02*
G03X400000Y1209309I0J115814D01*
G03X400000Y977682I0J-115814D01*
G01X400000Y1977680D02*
G03X400000Y2209307I0J115814D01*
G03X400000Y1977680I0J-115814D01*
G01X400000Y1727693D02*
G03X400000Y1959320I0J115814D01*
G03X400000Y1727693I0J-115814D01*
G01X400000Y2477679D02*
G03X400000Y2709306I0J115814D01*
G03X400000Y2477679I0J-115814D01*
G01X400000Y2727691D02*
G03X400000Y2959318I0J115814D01*
G03X400000Y2727691I0J-115814D01*
G01X400000Y2227692D02*
G03X400000Y2459319I0J115814D01*
G03X400000Y2227692I0J-115814D01*
G01X515814Y3173491D02*
G03X480000Y3209305I-35814J0D01*
G01X320000Y3209305D01*
G03X284186Y3173491I0J-35814D01*
G01X284186Y3013492D01*
G03X320000Y2977678I35814J0D01*
G01X480000Y2977678D01*
G03X515814Y3013492I0J35814D01*
G01X515814Y3173491D01*
G01X604186Y300000D02*
G03X995814Y300000I195814J0D01*
G03X604186Y300000I-195814J0D01*
G01X1204186Y6225931D02*
G03X1335814Y6225931I65814J0D01*
G03X1204186Y6225931I-65814J0D01*
G01X2200000Y180686D02*
G03X2235814Y216500I0J35814D01*
G01X2235814Y386500D01*
G03X2200000Y422314I-35814J0D01*
G01X2030000Y422314D01*
G03X1994186Y386500I0J-35814D01*
G01X1994186Y216500D01*
G03X2030000Y180686I35814J0D01*
G01X2200000Y180686D01*
G01X2103186Y1286612D02*
G03X2214814Y1286612I55814J0D01*
G03X2103186Y1286612I-55814J0D01*
G01X2343000Y3734986D02*
G03X2378814Y3770800I0J35814D01*
G01X2378814Y3950800D01*
G03X2343000Y3986614I-35814J0D01*
G01X2163000Y3986614D01*
G03X2127186Y3950800I0J-35814D01*
G01X2127186Y3770800D01*
G03X2163000Y3734986I35814J0D01*
G01X2343000Y3734986D01*
G01X2170986Y4902200D02*
G03X2302614Y4902200I65814J0D01*
G03X2170986Y4902200I-65814J0D01*
G01X2222566Y5892800D02*
G03X2334194Y5892800I55814J0D01*
G03X2222566Y5892800I-55814J0D01*
G01X2248186Y301500D02*
G03X2489814Y301500I120814J0D01*
G03X2248186Y301500I-120814J0D01*
G01X2319086Y5613400D02*
G03X2430714Y5613400I55814J0D01*
G03X2319086Y5613400I-55814J0D01*
G01X2381186Y3860800D02*
G03X2632814Y3860800I125814J0D01*
G03X2381186Y3860800I-125814J0D01*
G01X2428580Y1384300D02*
G03X2540208Y1384300I55814J0D01*
G03X2428580Y1384300I-55814J0D01*
G01X2502186Y301500D02*
G03X2743814Y301500I120814J0D01*
G03X2502186Y301500I-120814J0D01*
G01X2525893Y1651000D02*
G03X2637521Y1651000I55814J0D01*
G03X2525893Y1651000I-55814J0D01*
G01X2546684Y889000D02*
G03X2658312Y889000I55814J0D01*
G03X2546684Y889000I-55814J0D01*
G01X2576704Y1379669D02*
G03X2676324Y1346951I55784J1831D01*
G03X2773584Y1386131I41476J37349D01*
G03X2673964Y1418849I-55784J-1831D01*
G03X2576704Y1379669I-41476J-37349D01*
G01X2749753Y2534962D02*
G03X2679700Y2529987I-31953J-45762D01*
G03X2585786Y2489200I-38100J-40787D01*
G03X2679700Y2448413I55814J0D01*
G03X2749753Y2443438I38100J40787D01*
G03X2819603Y2448224I31953J45762D01*
G03X2913314Y2489200I37897J40976D01*
G03X2819603Y2530176I-55814J0D01*
G03X2749753Y2534962I-37897J-40976D01*
G01X2589069Y5842000D02*
G03X2720697Y5842000I65814J0D01*
G03X2589069Y5842000I-65814J0D01*
G01X2658488Y3340100D02*
G03X2790116Y3340100I65814J0D01*
G03X2658488Y3340100I-65814J0D01*
G01X2659186Y3676700D02*
G03X2790814Y3676700I65814J0D01*
G03X2659186Y3676700I-65814J0D01*
G01X2675880Y1651000D02*
G03X2781694Y1626197I55814J0D01*
G03X2887508Y1651000I50000J24803D01*
G03X2781694Y1675803I-55814J0D01*
G03X2675880Y1651000I-50000J-24803D01*
G01X2756186Y301500D02*
G03X2997814Y301500I120814J0D01*
G03X2756186Y301500I-120814J0D01*
G01X2827086Y3187700D02*
G03X2938714Y3187700I55814J0D01*
G03X2827086Y3187700I-55814J0D01*
G01X2865186Y889000D02*
G03X2976814Y889000I55814J0D01*
G03X2865186Y889000I-55814J0D01*
G01X2877886Y2755900D02*
G03X2982697Y2729169I55814J0D01*
G03X3081693Y2731097I48997J26731D01*
G03X3187507Y2755900I50000J24803D01*
G03X3081693Y2780703I-55814J0D01*
G03X2982697Y2782631I-50000J-24803D01*
G03X2877886Y2755900I-48997J-26731D01*
G01X2915986Y1731988D02*
G03X3027614Y1731988I55814J0D01*
G03X2915986Y1731988I-55814J0D01*
G01X2924884Y3340100D02*
G03X3056512Y3340100I65814J0D01*
G03X2924884Y3340100I-65814J0D01*
G01X2937584Y3670300D02*
G03X3069212Y3670300I65814J0D01*
G03X2937584Y3670300I-65814J0D01*
G01X2966786Y2489200D02*
G03X3078414Y2489200I55814J0D01*
G03X2966786Y2489200I-55814J0D01*
G01X3010186Y301500D02*
G03X3251814Y301500I120814J0D01*
G03X3010186Y301500I-120814J0D01*
G01X3068386Y495300D02*
G03X3180014Y495300I55814J0D01*
G03X3068386Y495300I-55814J0D01*
G01X3081198Y1917700D02*
G03X3192825Y1917700I55814J0D01*
G03X3081198Y1917700I-55814J0D01*
G01X3125892Y1384300D02*
G03X3237520Y1384300I55814J0D01*
G03X3125892Y1384300I-55814J0D01*
G01X3169986Y1795094D02*
G03X3281614Y1795094I55814J0D01*
G03X3169986Y1795094I-55814J0D01*
G01X3264186Y301500D02*
G03X3505814Y301500I120814J0D01*
G03X3264186Y301500I-120814J0D01*
G01X3289186Y1376500D02*
G03X3400814Y1376500I55814J0D01*
G03X3289186Y1376500I-55814J0D01*
G01X3289186Y863600D02*
G03X3400814Y863600I55814J0D01*
G03X3289186Y863600I-55814J0D01*
G01X3474786Y2195093D02*
G03X3586414Y2195093I55814J0D01*
G03X3474786Y2195093I-55814J0D01*
G01X3486753Y2479640D02*
G03X3538532Y2389858I43847J-34534D01*
G03X3637947Y2360559I55568J5235D01*
G03X3586168Y2450340I-43847J34534D01*
G03X3486753Y2479640I-55568J-5235D01*
G01X3530600Y1689293D02*
G03X3555403Y1795107I0J55814D01*
G03X3586166Y1839847I-24803J50000D01*
G03X3647395Y1878516I7934J55247D01*
G03X3618903Y1945094I-53295J16578D01*
G03X3647390Y2011689I-24803J50000D01*
G03X3586129Y2050336I-53290J-16596D01*
G03X3499009Y2090713I-55529J-5636D01*
G03X3505391Y1994903I31591J-46013D01*
G03X3474787Y1944880I25209J-49797D01*
G03X3505797Y1895107I55813J227D01*
G03X3474786Y1845107I24803J-50000D01*
G03X3505797Y1795107I55814J0D01*
G03X3530600Y1689293I24803J-50000D01*
G01X3540986Y5532552D02*
G03X3672614Y5532552I65814J0D01*
G03X3540986Y5532552I-65814J0D01*
G01X3550986Y3911499D02*
G03X3662614Y3911499I55814J0D01*
G03X3550986Y3911499I-55814J0D01*
G01X3550986Y4134001D02*
G03X3662614Y4134001I55814J0D01*
G03X3550986Y4134001I-55814J0D01*
G01X3563686Y2523388D02*
G03X3675314Y2523388I55814J0D01*
G03X3563686Y2523388I-55814J0D01*
G01X3655286Y2838298D02*
G03X3786914Y2838298I65814J0D01*
G03X3655286Y2838298I-65814J0D01*
G01X4001983Y4940300D02*
G03X4133611Y4940300I65814J0D01*
G03X4001983Y4940300I-65814J0D01*
G01X4010886Y6057900D02*
G03X4142514Y6057900I65814J0D01*
G03X4010886Y6057900I-65814J0D01*
G01X4079186Y2578500D02*
G03X4115000Y2542686I35814J0D01*
G01X4285000Y2542686D01*
G03X4320814Y2578500I0J35814D01*
G01X4320814Y2748500D01*
G03X4285000Y2784314I-35814J0D01*
G01X4115000Y2784314D01*
G03X4079186Y2748500I0J-35814D01*
G01X4079186Y2578500D01*
G01X4200000Y2276314D02*
G03X4200000Y2034686I0J-120814D01*
G03X4200000Y2276314I0J120814D01*
G01X4200000Y2530314D02*
G03X4200000Y2288686I0J-120814D01*
G03X4200000Y2530314I0J120814D01*
G01X4200000Y1514314D02*
G03X4200000Y1272686I0J-120814D01*
G03X4200000Y1514314I0J120814D01*
G01X4200000Y1260314D02*
G03X4200000Y1018686I0J-120814D01*
G03X4200000Y1260314I0J120814D01*
G01X4200000Y2022314D02*
G03X4200000Y1780686I0J-120814D01*
G03X4200000Y2022314I0J120814D01*
G01X4200000Y1768314D02*
G03X4200000Y1526686I0J-120814D01*
G03X4200000Y1768314I0J120814D01*
G01X4516186Y4572000D02*
G03X4627814Y4572000I55814J0D01*
G03X4516186Y4572000I-55814J0D01*
G01X4541586Y3861981D02*
G03X4653214Y3861981I55814J0D01*
G03X4541586Y3861981I-55814J0D01*
G01X4582386Y1117404D02*
G03X4714014Y1117404I65814J0D01*
G03X4582386Y1117404I-65814J0D01*
G01X4668586Y3606800D02*
G03X4780214Y3606800I55814J0D01*
G03X4668586Y3606800I-55814J0D01*
G01X4719386Y4826000D02*
G03X4831014Y4826000I55814J0D01*
G03X4719386Y4826000I-55814J0D01*
G01X4833686Y4420464D02*
G03X4945314Y4420464I55814J0D01*
G03X4833686Y4420464I-55814J0D01*
G01X4846386Y5346700D02*
G03X4958014Y5346700I55814J0D01*
G03X4846386Y5346700I-55814J0D01*
G01X4887174Y3606800D02*
G03X4998802Y3606800I55814J0D01*
G03X4887174Y3606800I-55814J0D01*
G01X5011486Y5575300D02*
G03X5123114Y5575300I55814J0D01*
G03X5011486Y5575300I-55814J0D01*
G01X5422900Y1233414D02*
G03X5422900Y1001786I0J-115814D01*
G03X5422900Y1233414I0J115814D01*
G01X5422900Y979414D02*
G03X5422900Y747786I0J-115814D01*
G03X5422900Y979414I0J115814D01*
G01X5422900Y1487414D02*
G03X5422900Y1255786I0J-115814D01*
G03X5422900Y1487414I0J115814D01*
G01X5422900Y5297414D02*
G03X5422900Y5065786I0J-115814D01*
G03X5422900Y5297414I0J115814D01*
G01X5422900Y5551414D02*
G03X5422900Y5319786I0J-115814D01*
G03X5422900Y5551414I0J115814D01*
G01X5422900Y4789414D02*
G03X5422900Y4557786I0J-115814D01*
G03X5422900Y4789414I0J115814D01*
G01X5422900Y5043414D02*
G03X5422900Y4811786I0J-115814D01*
G03X5422900Y5043414I0J115814D01*
G01X5422900Y4535414D02*
G03X5422900Y4303786I0J-115814D01*
G03X5422900Y4535414I0J115814D01*
G01X5422900Y3773414D02*
G03X5422900Y3541786I0J-115814D01*
G03X5422900Y3773414I0J115814D01*
G01X5422900Y4027414D02*
G03X5422900Y3795786I0J-115814D01*
G03X5422900Y4027414I0J115814D01*
G01X5422900Y4281414D02*
G03X5422900Y4049786I0J-115814D01*
G03X5422900Y4281414I0J115814D01*
G01X5422900Y3265414D02*
G03X5422900Y3033786I0J-115814D01*
G03X5422900Y3265414I0J115814D01*
G01X5422900Y3011414D02*
G03X5422900Y2779786I0J-115814D01*
G03X5422900Y3011414I0J115814D01*
G01X5422900Y2249414D02*
G03X5422900Y2017786I0J-115814D01*
G03X5422900Y2249414I0J115814D01*
G01X5422900Y2503414D02*
G03X5422900Y2271786I0J-115814D01*
G03X5422900Y2503414I0J115814D01*
G01X5422900Y2757414D02*
G03X5422900Y2525786I0J-115814D01*
G03X5422900Y2757414I0J115814D01*
G01X5422900Y1995414D02*
G03X5422900Y1763786I0J-115814D01*
G03X5422900Y1995414I0J115814D01*
G01X5422900Y1741414D02*
G03X5422900Y1509786I0J-115814D01*
G03X5422900Y1741414I0J115814D01*
G01X5422900Y3519414D02*
G03X5422900Y3287786I0J-115814D01*
G03X5422900Y3519414I0J115814D01*
G01X5422900Y6059414D02*
G03X5422900Y5827786I0J-115814D01*
G03X5422900Y6059414I0J115814D01*
G01X5307086Y6117600D02*
G03X5342900Y6081786I35814J0D01*
G01X5502900Y6081786D01*
G03X5538714Y6117600I0J35814D01*
G01X5538714Y6277600D01*
G03X5502900Y6313414I-35814J0D01*
G01X5342900Y6313414D01*
G03X5307086Y6277600I0J-35814D01*
G01X5307086Y6117600D01*
G01X5422900Y5805414D02*
G03X5422900Y5573786I0J-115814D01*
G03X5422900Y5805414I0J115814D01*
G01X6404186Y6000000D02*
G03X6795814Y6000000I195814J0D01*
G03X6404186Y6000000I-195814J0D01*
G01X6404186Y1000000D02*
G03X6795814Y1000000I195814J0D01*
G03X6404186Y1000000I-195814J0D01*
G01X6852986Y1879600D02*
G03X6964614Y1879600I55814J0D01*
G03X6852986Y1879600I-55814J0D01*
G01X7593086Y6117600D02*
G03X7628900Y6081786I35814J0D01*
G01X7788900Y6081786D01*
G03X7824714Y6117600I0J35814D01*
G01X7824714Y6277600D01*
G03X7788900Y6313414I-35814J0D01*
G01X7628900Y6313414D01*
G03X7593086Y6277600I0J-35814D01*
G01X7593086Y6117600D01*
G01X7708900Y6059414D02*
G03X7708900Y5827786I0J-115814D01*
G03X7708900Y6059414I0J115814D01*
G01X7708900Y5297414D02*
G03X7708900Y5065786I0J-115814D01*
G03X7708900Y5297414I0J115814D01*
G01X7708900Y5551414D02*
G03X7708900Y5319786I0J-115814D01*
G03X7708900Y5551414I0J115814D01*
G01X7708900Y5805414D02*
G03X7708900Y5573786I0J-115814D01*
G03X7708900Y5805414I0J115814D01*
G01X7708900Y4789414D02*
G03X7708900Y4557786I0J-115814D01*
G03X7708900Y4789414I0J115814D01*
G01X7708900Y5043414D02*
G03X7708900Y4811786I0J-115814D01*
G03X7708900Y5043414I0J115814D01*
G01X7708900Y4535414D02*
G03X7708900Y4303786I0J-115814D01*
G03X7708900Y4535414I0J115814D01*
G01X7708900Y4027414D02*
G03X7708900Y3795786I0J-115814D01*
G03X7708900Y4027414I0J115814D01*
G01X7708900Y4281414D02*
G03X7708900Y4049786I0J-115814D01*
G03X7708900Y4281414I0J115814D01*
G01X7708900Y3773414D02*
G03X7708900Y3541786I0J-115814D01*
G03X7708900Y3773414I0J115814D01*
G01X7708900Y3265414D02*
G03X7708900Y3033786I0J-115814D01*
G03X7708900Y3265414I0J115814D01*
G01X7708900Y2757414D02*
G03X7708900Y2525786I0J-115814D01*
G03X7708900Y2757414I0J115814D01*
G01X7708900Y3011414D02*
G03X7708900Y2779786I0J-115814D01*
G03X7708900Y3011414I0J115814D01*
G01X7708900Y2503414D02*
G03X7708900Y2271786I0J-115814D01*
G03X7708900Y2503414I0J115814D01*
G01X7708900Y2249414D02*
G03X7708900Y2017786I0J-115814D01*
G03X7708900Y2249414I0J115814D01*
G01X7708900Y1487414D02*
G03X7708900Y1255786I0J-115814D01*
G03X7708900Y1487414I0J115814D01*
G01X7708900Y1233414D02*
G03X7708900Y1001786I0J-115814D01*
G03X7708900Y1233414I0J115814D01*
G01X7708900Y979414D02*
G03X7708900Y747786I0J-115814D01*
G03X7708900Y979414I0J115814D01*
G01X7708900Y1995414D02*
G03X7708900Y1763786I0J-115814D01*
G03X7708900Y1995414I0J115814D01*
G01X7708900Y1741414D02*
G03X7708900Y1509786I0J-115814D01*
G03X7708900Y1741414I0J115814D01*
G01X7708900Y3519414D02*
G03X7708900Y3287786I0J-115814D01*
G03X7708900Y3519414I0J115814D01*
G54D11*
G01X400000Y3657600D02*
G01X400000Y3546946D01*
G01X400000Y3657600D02*
G01X400000Y3768254D01*
G01X400000Y3657600D02*
G01X289346Y3657600D01*
G01X400000Y3657600D02*
G01X510654Y3657600D01*
G01X406400Y6428500D02*
G01X406400Y6544154D01*
G01X406400Y6428500D02*
G01X406400Y6312846D01*
G01X406400Y6428500D02*
G01X522054Y6428500D01*
G01X406400Y6428500D02*
G01X290746Y6428500D01*
G01X2369000Y301500D02*
G01X2258346Y301500D01*
G01X2369000Y301500D02*
G01X2479654Y301500D01*
G01X2369000Y301500D02*
G01X2369000Y412154D01*
G01X2369000Y301500D02*
G01X2369000Y190846D01*
G01X2507000Y3860800D02*
G01X2391346Y3860800D01*
G01X2507000Y3860800D02*
G01X2622654Y3860800D01*
G01X2507000Y3860800D02*
G01X2507000Y3976454D01*
G01X2507000Y3860800D02*
G01X2507000Y3745146D01*
G01X2877000Y301500D02*
G01X2766346Y301500D01*
G01X2877000Y301500D02*
G01X2987654Y301500D01*
G01X2877000Y301500D02*
G01X2877000Y412154D01*
G01X2877000Y301500D02*
G01X2877000Y190846D01*
G01X5422900Y863600D02*
G01X5422900Y969254D01*
G01X5422900Y863600D02*
G01X5422900Y757946D01*
G01X5422900Y863600D02*
G01X5528554Y863600D01*
G01X5422900Y863600D02*
G01X5317246Y863600D01*
G01X7708900Y6197600D02*
G01X7708900Y6303254D01*
G01X7708900Y6197600D02*
G01X7708900Y6091946D01*
G01X7708900Y6197600D02*
G01X7814554Y6197600D01*
G01X7708900Y6197600D02*
G01X7603246Y6197600D01*
G01X7708900Y863600D02*
G01X7708900Y969254D01*
G01X7708900Y863600D02*
G01X7708900Y757946D01*
G01X7708900Y863600D02*
G01X7814554Y863600D01*
G01X7708900Y863600D02*
G01X7603246Y863600D01*
G01X7708900Y1117600D02*
G01X7708900Y1223254D01*
G01X7708900Y1117600D02*
G01X7708900Y1011946D01*
G01X7708900Y1117600D02*
G01X7814554Y1117600D01*
G01X7708900Y1117600D02*
G01X7603246Y1117600D01*
G04 Copper End*

G04 Pad Start*
G54D12*
G01X2115000Y301500D03*
G54D13*
G01X2369000Y301500D03*
G01X2623000Y301500D03*
G01X2877000Y301500D03*
G01X3131000Y301500D03*
G01X3385000Y301500D03*
G54D14*
G01X400000Y3093491D03*
G54D15*
G01X400000Y2843505D03*
G01X400000Y2593492D03*
G01X400000Y2343506D03*
G01X400000Y2093493D03*
G01X400000Y1843507D03*
G01X400000Y1593494D03*
G01X400000Y1343508D03*
G01X400000Y1093495D03*
G01X400000Y843509D03*
G54D12*
G01X4200000Y2663500D03*
G54D13*
G01X4200000Y2409500D03*
G01X4200000Y2155500D03*
G01X4200000Y1901500D03*
G01X4200000Y1647500D03*
G01X4200000Y1393500D03*
G01X4200000Y1139500D03*
G54D12*
G01X400000Y4673600D03*
G54D13*
G01X400000Y4419600D03*
G01X400000Y4165600D03*
G01X400000Y3911600D03*
G01X400000Y3657600D03*
G54D16*
G01X2253000Y3860800D03*
G54D18*
G01X2507000Y3860800D03*
G54D16*
G01X406400Y6428500D03*
G54D18*
G01X406400Y6174500D03*
G54D16*
G01X400000Y5528500D03*
G54D18*
G01X400000Y5274500D03*
G54D14*
G01X7708900Y6197600D03*
G54D15*
G01X7708900Y5943600D03*
G01X7708900Y5689600D03*
G01X7708900Y5435600D03*
G01X7708900Y5181600D03*
G01X7708900Y4927600D03*
G01X7708900Y4673600D03*
G01X7708900Y4419600D03*
G01X7708900Y4165600D03*
G01X7708900Y3911600D03*
G01X7708900Y3657600D03*
G01X7708900Y3403600D03*
G01X7708900Y3149600D03*
G01X7708900Y2895600D03*
G01X7708900Y2641600D03*
G01X7708900Y2387600D03*
G01X7708900Y2133600D03*
G01X7708900Y1879600D03*
G01X7708900Y1625600D03*
G01X7708900Y1371600D03*
G01X7708900Y1117600D03*
G01X7708900Y863600D03*
G54D14*
G01X5422900Y6197600D03*
G54D15*
G01X5422900Y5943600D03*
G01X5422900Y5689600D03*
G01X5422900Y5435600D03*
G01X5422900Y5181600D03*
G01X5422900Y4927600D03*
G01X5422900Y4673600D03*
G01X5422900Y4419600D03*
G01X5422900Y4165600D03*
G01X5422900Y3911600D03*
G01X5422900Y3657600D03*
G01X5422900Y3403600D03*
G01X5422900Y3149600D03*
G01X5422900Y2895600D03*
G01X5422900Y2641600D03*
G01X5422900Y2387600D03*
G01X5422900Y2133600D03*
G01X5422900Y1879600D03*
G01X5422900Y1625600D03*
G01X5422900Y1371600D03*
G01X5422900Y1117600D03*
G01X5422900Y863600D03*
G04 Pad End*

G04 Via Start*
G54D19*
G01X825503Y1905000D03*
G54D20*
G01X4838700Y647700D03*
G01X5130800Y825500D03*
G54D19*
G01X2291498Y1092200D03*
G01X1447800Y721498D03*
G01X1447800Y1054100D03*
G01X1447800Y1384300D03*
G01X1447800Y1739900D03*
G01X1447800Y2233102D03*
G01X1447800Y2603500D03*
G01X1460500Y2908300D03*
G01X2484394Y1384300D03*
G01X1460500Y3263900D03*
G01X825503Y952500D03*
G01X2632488Y1381500D03*
G01X2717800Y1384300D03*
G01X4889500Y4420464D03*
G01X2631694Y2768600D03*
G01X2781706Y2489200D03*
G01X2717800Y2489200D03*
G01X2641600Y2489200D03*
G01X2857500Y2489200D03*
G01X3022600Y2489200D03*
G01X3081706Y2501900D03*
G01X3181706Y2501900D03*
G01X3131693Y2755900D03*
G01X3031693Y2755900D03*
G01X2933700Y2755900D03*
G01X3225800Y1795094D03*
G01X4597400Y3861981D03*
G01X2079500Y1204000D03*
G01X2602498Y889000D03*
G01X2921000Y889000D03*
G54D20*
G01X1047600Y5924820D03*
G54D19*
G01X787400Y2705100D03*
G01X2581707Y1651000D03*
G01X2731694Y1651000D03*
G01X2831694Y1651000D03*
G01X4876800Y3771900D03*
G01X3131693Y1694000D03*
G01X3594100Y1895094D03*
G54D20*
G01X4076700Y6057900D03*
G01X3340100Y5283200D03*
G01X3606800Y5532552D03*
G54D19*
G01X3530600Y1745107D03*
G01X3530600Y1845107D03*
G01X3530600Y1945107D03*
G01X3530600Y2044700D03*
G01X3530600Y2195093D03*
G01X3594100Y1995094D03*
G01X3594100Y2395093D03*
G01X3530600Y2445106D03*
G54D20*
G01X4648200Y1117404D03*
G01X4268413Y5131335D03*
G01X4267200Y5727700D03*
G01X4067797Y4940300D03*
G54D19*
G01X3225800Y2095094D03*
G01X5029200Y3771900D03*
G01X3149600Y2320188D03*
G01X3479800Y3149600D03*
G01X4644288Y3784600D03*
G01X3048000Y1694900D03*
G54D20*
G01X2438400Y3492500D03*
G01X3302000Y3492500D03*
G54D19*
G01X4724400Y3606800D03*
G54D20*
G01X2724302Y3340100D03*
G54D19*
G01X4942988Y3606800D03*
G54D20*
G01X2725000Y3676700D03*
G01X3003398Y3670300D03*
G01X2990698Y3340100D03*
G01X3721100Y2838298D03*
G54D19*
G01X3606800Y4203700D03*
G01X3606800Y3848100D03*
G01X4279900Y4273702D03*
G01X4279900Y3771498D03*
G01X4775200Y4826000D03*
G01X4572000Y4572000D03*
G01X3403600Y2607412D03*
G01X3137012Y1917700D03*
G01X3619500Y2523388D03*
G01X2971800Y1731988D03*
G01X2159000Y1286612D03*
G01X3606800Y3911499D03*
G01X3606800Y4134001D03*
G01X4711700Y4229100D03*
G01X4902200Y5346700D03*
G01X5067300Y5575300D03*
G01X2882900Y3187700D03*
G01X3124200Y495300D03*
G01X3345000Y863600D03*
G01X3345000Y1376500D03*
G01X3181706Y1384300D03*
G54D20*
G01X1270000Y6225931D03*
G01X1592266Y6592630D03*
G54D19*
G01X6908800Y1879600D03*
G01X2865400Y5880100D03*
G01X2374900Y5613400D03*
G01X2278380Y5892800D03*
G01X2090420Y5905500D03*
G54D20*
G01X2236800Y4902200D03*
G01X2654883Y5842000D03*
G54D19*
G01X2184400Y5580804D03*
G01X1619098Y5359400D03*
G01X2184400Y5778500D03*
G01X2174800Y5961181D03*
G04 Via End*

M02*

