G04 Layer: BottomLayer*
G04 EasyEDA Pro v3.2.148, 2026-09-01 12:52:47*
G04 Gerber Generator version 0.3*
G04 Scale: 100 percent, Rotated: No, Reflected: No*
G04 Dimensions in millimeters*
G04 Leading zeros omitted, absolute positions, 4 integers and 5 decimals*
G04 Generated by one-click*
G04 Object Configs: Pad,Via,Track,Text,Image,Dimension,BoardOutline,BoardCutout,CopperFilled,SolidRegion,FPCStiffener,Line,PlaneZone,ComponentProperty,ComponentSilkscreen,TearDrop*
G04 Layer Configs: 1,15,16,2,3,4,5,6,7,8,9,10,11,13,14,56*
G04 Copper Areas: 0*
%FSLAX45Y45*%
%MOMM*%
%ADD10R,0.86401X0.80648*%
%ADD11R,0.8X0.9*%
%ADD12R,0.9X0.8*%
%ADD13R,1.7X1.7*%
%ADD14C,1.7*%
%ADD15R,1.13254X1.37701*%
%ADD16R,1.6X1.6*%
%ADD17C,1.6*%
%ADD18R,0.54X0.5*%
%ADD19R,0.5021X0.54*%
%ADD20R,0.5X0.54*%
%ADD21R,1.8X1.8*%
%ADD22C,1.8*%
%ADD23C,0.4*%
%ADD24C,0.6*%
%ADD25C,0.1016*%
%ADD26C,0.3*%
%ADD27C,0.1524*%
%ADD28C,0.25*%
%ADD29C,0.5*%
G75*


G04 Pad Start*
G54D10*
G01X2865400Y5765136D03*
G01X2865400Y5614463D03*
G54D11*
G01X2724302Y3492500D03*
G01X2584298Y3492500D03*
G01X2990698Y3492500D03*
G01X3130702Y3492500D03*
G54D12*
G01X3479800Y2838298D03*
G01X3479800Y2978302D03*
G54D13*
G01X2115000Y301500D03*
G54D14*
G01X2369000Y301500D03*
G01X2623000Y301500D03*
G01X2877000Y301500D03*
G01X3131000Y301500D03*
G01X3385000Y301500D03*
G54D15*
G01X5080000Y1879600D03*
G01X4880000Y1879600D03*
G01X5080000Y1625600D03*
G01X4880000Y1625600D03*
G01X5080000Y2389000D03*
G01X4880000Y2389000D03*
G01X5080000Y2139000D03*
G01X4880000Y2139000D03*
G01X5080000Y1371600D03*
G01X4880000Y1371600D03*
G54D16*
G01X400000Y3093491D03*
G54D17*
G01X400000Y2843505D03*
G01X400000Y2593492D03*
G01X400000Y2343506D03*
G01X400000Y2093493D03*
G01X400000Y1843507D03*
G01X400000Y1593494D03*
G01X400000Y1343508D03*
G01X400000Y1093495D03*
G01X400000Y843509D03*
G54D13*
G01X4200000Y2663500D03*
G54D14*
G01X4200000Y2409500D03*
G01X4200000Y2155500D03*
G01X4200000Y1901500D03*
G01X4200000Y1647500D03*
G01X4200000Y1393500D03*
G01X4200000Y1139500D03*
G54D18*
G01X2880200Y1816012D03*
G01X2880200Y1731988D03*
G01X3182500Y1201988D03*
G01X3182500Y1286012D03*
G01X2654300Y2320188D03*
G01X2654300Y2404212D03*
G01X2730000Y1816012D03*
G01X2730000Y1731988D03*
G01X2582100Y1816812D03*
G01X2582100Y1732789D03*
G01X2921000Y2320188D03*
G01X2921000Y2404212D03*
G01X2527300Y2320188D03*
G01X2527300Y2404212D03*
G01X2743200Y1202588D03*
G01X2743200Y1286612D03*
G01X2476500Y1202588D03*
G01X2476500Y1286612D03*
G01X2616200Y1202588D03*
G01X2616200Y1286612D03*
G01X2895600Y2924912D03*
G01X2895600Y2840888D03*
G01X3035300Y2924912D03*
G01X3035300Y2840888D03*
G01X3530600Y2607412D03*
G01X3530600Y2523388D03*
G01X3162300Y2924912D03*
G01X3162300Y2840888D03*
G54D20*
G01X3052988Y1796500D03*
G01X3137012Y1796500D03*
G54D18*
G01X3048000Y2320188D03*
G01X3048000Y2404212D03*
G01X2781300Y2320188D03*
G01X2781300Y2404212D03*
G54D13*
G01X400000Y4673600D03*
G54D14*
G01X400000Y4419600D03*
G01X400000Y4165600D03*
G01X400000Y3911600D03*
G01X400000Y3657600D03*
G54D21*
G01X2253000Y3860800D03*
G54D22*
G01X2507000Y3860800D03*
G54D10*
G01X5003800Y5345836D03*
G01X5003800Y5195164D03*
G01X5181600Y5423764D03*
G01X5181600Y5574436D03*
G54D21*
G01X406400Y6428500D03*
G54D22*
G01X406400Y6174500D03*
G54D21*
G01X400000Y5528500D03*
G54D22*
G01X400000Y5274500D03*
G54D16*
G01X7708900Y6197600D03*
G54D17*
G01X7708900Y5943600D03*
G01X7708900Y5689600D03*
G01X7708900Y5435600D03*
G01X7708900Y5181600D03*
G01X7708900Y4927600D03*
G01X7708900Y4673600D03*
G01X7708900Y4419600D03*
G01X7708900Y4165600D03*
G01X7708900Y3911600D03*
G01X7708900Y3657600D03*
G01X7708900Y3403600D03*
G01X7708900Y3149600D03*
G01X7708900Y2895600D03*
G01X7708900Y2641600D03*
G01X7708900Y2387600D03*
G01X7708900Y2133600D03*
G01X7708900Y1879600D03*
G01X7708900Y1625600D03*
G01X7708900Y1371600D03*
G01X7708900Y1117600D03*
G01X7708900Y863600D03*
G54D16*
G01X5422900Y6197600D03*
G54D17*
G01X5422900Y5943600D03*
G01X5422900Y5689600D03*
G01X5422900Y5435600D03*
G01X5422900Y5181600D03*
G01X5422900Y4927600D03*
G01X5422900Y4673600D03*
G01X5422900Y4419600D03*
G01X5422900Y4165600D03*
G01X5422900Y3911600D03*
G01X5422900Y3657600D03*
G01X5422900Y3403600D03*
G01X5422900Y3149600D03*
G01X5422900Y2895600D03*
G01X5422900Y2641600D03*
G01X5422900Y2387600D03*
G01X5422900Y2133600D03*
G01X5422900Y1879600D03*
G01X5422900Y1625600D03*
G01X5422900Y1371600D03*
G01X5422900Y1117600D03*
G01X5422900Y863600D03*
G54D15*
G01X7340000Y1877500D03*
G01X7140000Y1877500D03*
G04 Pad End*

G04 Via Start*
G54D23*
G01X825503Y1905000D03*
G54D24*
G01X4838700Y647700D03*
G01X5130800Y825500D03*
G54D23*
G01X2291498Y1092200D03*
G01X1447800Y721498D03*
G01X1447800Y1054100D03*
G01X1447800Y1384300D03*
G01X1447800Y1739900D03*
G01X1447800Y2233102D03*
G01X1447800Y2603500D03*
G01X1460500Y2908300D03*
G01X2484394Y1384300D03*
G01X1460500Y3263900D03*
G01X825503Y952500D03*
G01X2632488Y1381500D03*
G01X2717800Y1384300D03*
G01X4889500Y4420464D03*
G01X2631694Y2768600D03*
G01X2781706Y2489200D03*
G01X2717800Y2489200D03*
G01X2641600Y2489200D03*
G01X2857500Y2489200D03*
G01X3022600Y2489200D03*
G01X3081706Y2501900D03*
G01X3181706Y2501900D03*
G01X3131693Y2755900D03*
G01X3031693Y2755900D03*
G01X2933700Y2755900D03*
G01X3225800Y1795094D03*
G01X4597400Y3861981D03*
G01X2079500Y1204000D03*
G01X2602498Y889000D03*
G01X2921000Y889000D03*
G54D24*
G01X1047600Y5924820D03*
G54D23*
G01X787400Y2705100D03*
G01X2581707Y1651000D03*
G01X2731694Y1651000D03*
G01X2831694Y1651000D03*
G01X4876800Y3771900D03*
G01X3131693Y1694000D03*
G01X3594100Y1895094D03*
G54D24*
G01X4076700Y6057900D03*
G01X3340100Y5283200D03*
G01X3606800Y5532552D03*
G54D23*
G01X3530600Y1745107D03*
G01X3530600Y1845107D03*
G01X3530600Y1945107D03*
G01X3530600Y2044700D03*
G01X3530600Y2195093D03*
G01X3594100Y1995094D03*
G01X3594100Y2395093D03*
G01X3530600Y2445106D03*
G54D24*
G01X4648200Y1117404D03*
G01X4268413Y5131335D03*
G01X4267200Y5727700D03*
G01X4067797Y4940300D03*
G54D23*
G01X3225800Y2095094D03*
G01X5029200Y3771900D03*
G01X3149600Y2320188D03*
G01X3479800Y3149600D03*
G01X4644288Y3784600D03*
G01X3048000Y1694900D03*
G54D24*
G01X2438400Y3492500D03*
G01X3302000Y3492500D03*
G54D23*
G01X4724400Y3606800D03*
G54D24*
G01X2724302Y3340100D03*
G54D23*
G01X4942988Y3606800D03*
G54D24*
G01X2725000Y3676700D03*
G01X3003398Y3670300D03*
G01X2990698Y3340100D03*
G01X3721100Y2838298D03*
G54D23*
G01X3606800Y4203700D03*
G01X3606800Y3848100D03*
G01X4279900Y4273702D03*
G01X4279900Y3771498D03*
G01X4775200Y4826000D03*
G01X4572000Y4572000D03*
G01X3403600Y2607412D03*
G01X3137012Y1917700D03*
G01X3619500Y2523388D03*
G01X2971800Y1731988D03*
G01X2159000Y1286612D03*
G01X3606800Y3911499D03*
G01X3606800Y4134001D03*
G01X4711700Y4229100D03*
G01X4902200Y5346700D03*
G01X5067300Y5575300D03*
G01X2882900Y3187700D03*
G01X3124200Y495300D03*
G01X3345000Y863600D03*
G01X3345000Y1376500D03*
G01X3181706Y1384300D03*
G54D24*
G01X1270000Y6225931D03*
G01X1592266Y6592630D03*
G54D23*
G01X6908800Y1879600D03*
G01X2865400Y5880100D03*
G01X2374900Y5613400D03*
G01X2278380Y5892800D03*
G01X2090420Y5905500D03*
G54D24*
G01X2236800Y4902200D03*
G01X2654883Y5842000D03*
G54D23*
G01X2184400Y5580804D03*
G01X1619098Y5359400D03*
G01X2184400Y5778500D03*
G01X2174800Y5961181D03*
G04 Via End*

G04 Track Start*
G54D25*
G01X4882400Y2389000D02*
G01X4220500Y2389000D01*
G01X4200000Y2409500D01*
G01X4878400Y1879600D02*
G01X4221900Y1879600D01*
G01X4200000Y1901500D01*
G01X4878400Y1625600D02*
G01X4749800Y1625600D01*
G01X4521200Y1397000D01*
G01X4203500Y1397000D01*
G01X4200000Y1393500D01*
G01X4865700Y1371600D02*
G01X4737100Y1371600D01*
G01X4508500Y1143000D01*
G01X4203500Y1143000D01*
G01X4200000Y1139500D01*
G01X5422902Y2641401D02*
G01X4222099Y2641401D01*
G01X4200000Y2663500D01*
G54D26*
G01X3035300Y2840888D02*
G01X3161900Y2840888D01*
G01X3168100Y2847088D01*
G01X3035300Y2840888D02*
G01X2895600Y2840888D01*
G54D25*
G01X4199500Y2664000D02*
G01X4200000Y2663500D01*
G54D27*
G01X2641600Y2489200D02*
G01X2578100Y2489200D01*
G01X2527300Y2438400D01*
G01X2527300Y2404212D01*
G01X2717800Y2489200D02*
G01X2654300Y2425700D01*
G01X2654300Y2404212D01*
G01X2781706Y2489200D02*
G01X2781706Y2404618D01*
G01X2781300Y2404212D01*
G01X2857500Y2489200D02*
G01X2921000Y2425700D01*
G01X2921000Y2404212D01*
G01X3048000Y2404212D02*
G01X3048000Y2463800D01*
G01X3022600Y2489200D01*
G54D26*
G01X2895600Y2840888D02*
G01X2933700Y2802788D01*
G01X2933700Y2755900D01*
G01X3035300Y2840888D02*
G01X3035300Y2759507D01*
G01X3031693Y2755900D01*
G01X3168100Y2792307D02*
G01X3131693Y2755900D01*
G01X3168100Y2847088D02*
G01X3168100Y2792307D01*
G01X2895600Y2924912D02*
G01X3035300Y2924912D01*
G01X3161900Y2924912D01*
G54D25*
G01X4889500Y4420464D02*
G01X5421836Y4420464D01*
G01X5422902Y4419398D01*
G54D27*
G01X2527300Y2320188D02*
G01X2654300Y2320188D01*
G01X2781300Y2320188D01*
G01X2476500Y1286612D02*
G01X2476500Y1376406D01*
G01X2484394Y1384300D01*
G01X2616200Y1299312D02*
G01X2632488Y1315600D01*
G01X2632488Y1381500D01*
G01X2743200Y1299312D02*
G01X2743200Y1358900D01*
G01X2717800Y1384300D01*
G01X3052988Y1796500D02*
G01X3048000Y1791512D01*
G01X3048000Y1694900D01*
G01X2581707Y1651000D02*
G01X2582100Y1651393D01*
G01X2582100Y1732789D01*
G01X2731694Y1734795D02*
G01X2730500Y1735988D01*
G01X2870200Y1689506D02*
G01X2831694Y1651000D01*
G01X2866700Y1816812D02*
G01X2867500Y1816012D01*
G54D25*
G01X4200000Y1393500D02*
G01X4199500Y1394000D01*
G54D27*
G01X2880200Y1816012D02*
G01X3033477Y1816012D01*
G01X3052988Y1796500D01*
G01X2582100Y1816812D02*
G01X2866700Y1816812D01*
G01X3180000Y1201988D02*
G01X2743800Y1201988D01*
G01X2743200Y1202588D01*
G01X2616200Y1202588D01*
G01X2476500Y1202588D01*
G54D28*
G01X3530600Y2445106D02*
G01X3530600Y2523388D01*
G54D25*
G01X5065700Y1371600D02*
G01X5422706Y1371600D01*
G01X5422902Y1371404D01*
G01X5078400Y1625600D02*
G01X5422705Y1625600D01*
G01X5422902Y1625403D01*
G01X5078400Y1879600D02*
G01X5422705Y1879600D01*
G01X5422902Y1879403D01*
G01X5077400Y2139000D02*
G01X5417304Y2139000D01*
G01X5422902Y2133402D01*
G01X5082400Y2389000D02*
G01X5421304Y2389000D01*
G01X5422902Y2387402D01*
G54D27*
G01X3145206Y1795094D02*
G01X3225800Y1795094D01*
G54D26*
G01X3479800Y2978302D02*
G01X3479800Y3149600D01*
G54D27*
G01X2781300Y2320188D02*
G01X2921000Y2320188D01*
G01X3048000Y2320188D01*
G01X3149600Y2320188D01*
G54D29*
G01X2584298Y3492500D02*
G01X2438400Y3492500D01*
G01X3130702Y3492500D02*
G01X3302000Y3492500D01*
G54D25*
G01X4597400Y3861981D02*
G01X5002872Y3861981D01*
G01X5207000Y3657600D02*
G01X5422701Y3657600D01*
G01X5422902Y3657399D01*
G54D29*
G01X2990698Y3492500D02*
G01X2990698Y3340100D01*
G54D26*
G01X3479800Y2838298D02*
G01X3721100Y2838298D01*
G54D25*
G01X5002872Y3861981D02*
G01X5207000Y3657600D01*
G54D29*
G01X2724302Y3492500D02*
G01X2724302Y3340100D01*
G54D26*
G01X3162300Y2924912D02*
G01X3324809Y2924912D01*
G01X3378200Y2978302D01*
G01X3479800Y2978302D01*
G54D25*
G01X3530600Y1745107D02*
G01X4136207Y1139500D01*
G01X4200000Y1139500D01*
G54D27*
G01X3530600Y2607412D02*
G01X3403600Y2607412D01*
G01X3137012Y1796500D02*
G01X3137012Y1917700D01*
G01X3140812Y1790700D02*
G01X3141812Y1791700D01*
G54D28*
G01X3530600Y2523388D02*
G01X3619500Y2523388D01*
G54D27*
G01X2582100Y1732789D02*
G01X2731694Y1732789D01*
G01X2870200Y1732789D01*
G01X2731694Y1651000D02*
G01X2731694Y1732789D01*
G01X2731694Y1734795D01*
G01X2870200Y1732789D02*
G01X2870200Y1689506D01*
G01X2880200Y1731988D02*
G01X2971800Y1731988D01*
G01X2476500Y1286612D02*
G01X2616200Y1286612D01*
G01X2743200Y1286612D01*
G01X2476500Y1286612D02*
G01X2159000Y1286612D01*
G01X5016500Y5345836D02*
G01X5015636Y5346700D01*
G01X4902200Y5346700D01*
G01X5169764Y5575300D02*
G01X5067300Y5575300D01*
G54D25*
G01X5410405Y4914899D02*
G01X5422902Y4927397D01*
G01X4953000Y4914900D02*
G01X5410405Y4914899D01*
G01X2865399Y5614464D02*
G01X4253436Y5614464D01*
G01X4953000Y4914900D01*
G01X4199500Y1394000D02*
G01X3981707Y1394000D01*
G01X3530600Y1845107D01*
G01X3991300Y1647500D02*
G01X4200000Y1647500D01*
G01X3530600Y1945107D02*
G01X3947693Y1945107D01*
G01X3991300Y1901500D01*
G01X4200000Y1901500D01*
G01X3594100Y1995094D02*
G01X3950894Y1995094D01*
G01X3987800Y2032000D01*
G01X4521200Y2032000D01*
G01X3530600Y2044700D02*
G01X3619500Y2044700D01*
G01X3984300Y2409500D01*
G01X4200000Y2409500D01*
G01X3987800Y2959100D02*
G01X4432100Y3403400D01*
G01X5422902Y3403400D01*
G01X4521200Y2032000D02*
G01X4628200Y2139000D01*
G01X4877400Y2139000D01*
G54D27*
G01X2079500Y1204000D02*
G01X2475089Y1204000D01*
G01X2476500Y1202588D01*
G54D25*
G01X3530600Y2195093D02*
G01X3999507Y2664000D01*
G01X4199500Y2664000D01*
G01X3594100Y1895094D02*
G01X3743706Y1895094D01*
G01X3991300Y1647500D01*
G01X3594100Y2395093D02*
G01X3987800Y2788793D01*
G01X3987800Y2959100D01*
G54D27*
G01X3254512Y1286012D02*
G01X3345000Y1376500D01*
G01X3181706Y1384300D02*
G01X3181706Y1286806D01*
G01X3182500Y1286012D01*
G01X3180000Y1286012D02*
G01X3182500Y1286012D01*
G01X3182500Y1286012D02*
G01X3254512Y1286012D01*
G54D26*
G01X3479800Y2850998D02*
G01X3471614Y2842812D01*
G01X3180195Y2842811D01*
G01X3172009Y2850997D01*
G54D25*
G01X400000Y5274500D02*
G01X753300Y5274500D01*
G01X1714500Y6235700D01*
G01X4216400Y6235700D01*
G01X4610100Y5842000D02*
G01X4610100Y5499100D01*
G01X4914036Y5195164D01*
G01X5003800Y5195164D01*
G01X4216400Y6235700D02*
G01X4610100Y5842000D01*
G01X5181600Y5423764D02*
G01X4888636Y5423764D01*
G01X4800600Y5511800D02*
G01X4800600Y5842000D01*
G01X4203700Y6438900D01*
G01X1714500Y6438900D01*
G01X802100Y5526500D01*
G01X402000Y5526500D02*
G01X400000Y5528500D01*
G01X4888636Y5423764D02*
G01X4800600Y5511800D01*
G01X802100Y5526500D02*
G01X402000Y5526500D01*
G01X5181600Y5423764D02*
G01X5411270Y5423764D01*
G01X5422902Y5435396D01*
G01X5003800Y5195164D02*
G01X5409135Y5195164D01*
G01X5422902Y5181396D01*
G54D29*
G01X2724302Y3492500D02*
G01X2725000Y3493197D01*
G01X2725000Y3676700D01*
G54D25*
G01X3175000Y4292600D02*
G01X1054100Y4292600D01*
G01X927100Y4165600D01*
G01X400000Y4165600D01*
G01X3606800Y3911499D02*
G01X3340201Y3911499D01*
G01X3200400Y4051300D01*
G01X1054100Y4051300D01*
G01X914400Y3911600D01*
G01X400000Y3911600D01*
G54D29*
G01X2990698Y3492500D02*
G01X3003398Y3505200D01*
G01X3003398Y3670300D01*
G54D25*
G01X7708900Y1879600D02*
G01X7342100Y1879600D01*
G01X7340000Y1877500D01*
G01X7140000Y1877500D02*
G01X7137900Y1879600D01*
G01X6908800Y1879600D01*
G01X3606800Y4134001D02*
G01X3333599Y4134001D01*
G01X3175000Y4292600D01*
G01X2387600Y5613400D02*
G01X2864336Y5613400D01*
G01X2865400Y5614463D01*
G01X2278380Y5892800D02*
G01X2278380Y5709920D01*
G01X2374900Y5613400D01*
G54D26*
G01X2865400Y5765136D02*
G01X2865400Y5880100D01*
G04 Track End*

M02*

