G04 Layer: BottomSolderMaskLayer*
G04 EasyEDA Pro v3.2.148, 2026-09-01 12:52:47*
G04 Gerber Generator version 0.3*
G04 Scale: 100 percent, Rotated: No, Reflected: No*
G04 Dimensions in millimeters*
G04 Leading zeros omitted, absolute positions, 4 integers and 5 decimals*
G04 Generated by one-click*
G04 Object Configs: Pad,Via,Track,Text,Image,Dimension,BoardOutline,BoardCutout,CopperFilled,SolidRegion,FPCStiffener,Line,PlaneZone,ComponentProperty,ComponentSilkscreen,TearDrop*
G04 Layer Configs: 1,15,16,2,3,4,5,6,7,8,9,10,11,13,14,56*
G04 Copper Areas: 0*
%FSLAX45Y45*%
%MOMM*%
%AMRoundRect*1,1,$1,$2,$3*1,1,$1,$4,$5*1,1,$1,0-$2,0-$3*1,1,$1,0-$4,0-$5*20,1,$1,$2,$3,$4,$5,0*20,1,$1,$4,$5,0-$2,0-$3,0*20,1,$1,0-$2,0-$3,0-$4,0-$5,0*20,1,$1,0-$4,0-$5,$2,$3,0*4,1,4,$2,$3,$4,$5,0-$2,0-$3,0-$4,0-$5,$2,$3,0*%
%ADD10RoundRect,0.1016X-0.432X-0.40324X-0.432X0.40324*%
%ADD11RoundRect,0.102X-0.4X0.45X0.4X0.45*%
%ADD12RoundRect,0.102X-0.45X-0.4X-0.45X0.4*%
%ADD13RoundRect,0.102X-0.85X0.85X0.85X0.85*%
%ADD14C,1.802*%
%ADD15RoundRect,0.1016X-0.56627X0.68851X0.56627X0.68851*%
%ADD16RoundRect,0.10003X-0.8X-0.8X-0.8X0.8*%
%ADD17C,1.7015*%
%ADD18C,1.70002*%
%ADD19RoundRect,0.102X-0.85X-0.85X-0.85X0.85*%
%ADD20RoundRect,0.102X-0.27X-0.25X-0.27X0.25*%
%ADD21RoundRect,0.102X-0.25X0.27X0.25X0.27*%
%ADD22RoundRect,0.102X-0.9X0.9X0.9X0.9*%
%ADD23C,1.902*%
%ADD24RoundRect,0.102X-0.9X-0.9X-0.9X0.9*%
%ADD25RoundRect,0.102X-0.8X-0.8X-0.8X0.8*%
%ADD26C,1.702*%
G75*


G04 Pad Start*
G54D10*
G01X2865400Y5765136D03*
G01X2865400Y5614463D03*
G54D11*
G01X2724302Y3492500D03*
G01X2584298Y3492500D03*
G01X2990698Y3492500D03*
G01X3130702Y3492500D03*
G54D12*
G01X3479800Y2838298D03*
G01X3479800Y2978302D03*
G54D13*
G01X2115000Y301500D03*
G54D14*
G01X2369000Y301500D03*
G01X2623000Y301500D03*
G01X2877000Y301500D03*
G01X3131000Y301500D03*
G01X3385000Y301500D03*
G54D15*
G01X5080000Y1879600D03*
G01X4880000Y1879600D03*
G01X5080000Y1625600D03*
G01X4880000Y1625600D03*
G01X5080000Y2389000D03*
G01X4880000Y2389000D03*
G01X5080000Y2139000D03*
G01X4880000Y2139000D03*
G01X5080000Y1371600D03*
G01X4880000Y1371600D03*
G54D16*
G01X400000Y3093491D03*
G54D18*
G01X400000Y2843505D03*
G01X400000Y2593492D03*
G01X400000Y2343506D03*
G01X400000Y2093493D03*
G01X400000Y1843507D03*
G01X400000Y1593494D03*
G01X400000Y1343508D03*
G01X400000Y1093495D03*
G01X400000Y843509D03*
G54D19*
G01X4200000Y2663500D03*
G54D14*
G01X4200000Y2409500D03*
G01X4200000Y2155500D03*
G01X4200000Y1901500D03*
G01X4200000Y1647500D03*
G01X4200000Y1393500D03*
G01X4200000Y1139500D03*
G54D20*
G01X2880200Y1816012D03*
G01X2880200Y1731988D03*
G01X3182500Y1201988D03*
G01X3182500Y1286012D03*
G01X2654300Y2320188D03*
G01X2654300Y2404212D03*
G01X2730000Y1816012D03*
G01X2730000Y1731988D03*
G01X2582100Y1816812D03*
G01X2582100Y1732789D03*
G01X2921000Y2320188D03*
G01X2921000Y2404212D03*
G01X2527300Y2320188D03*
G01X2527300Y2404212D03*
G01X2743200Y1202588D03*
G01X2743200Y1286612D03*
G01X2476500Y1202588D03*
G01X2476500Y1286612D03*
G01X2616200Y1202588D03*
G01X2616200Y1286612D03*
G01X2895600Y2924912D03*
G01X2895600Y2840888D03*
G01X3035300Y2924912D03*
G01X3035300Y2840888D03*
G01X3530600Y2607412D03*
G01X3530600Y2523388D03*
G01X3162300Y2924912D03*
G01X3162300Y2840888D03*
G54D21*
G01X3052988Y1796500D03*
G01X3137012Y1796500D03*
G54D20*
G01X3048000Y2320188D03*
G01X3048000Y2404212D03*
G01X2781300Y2320188D03*
G01X2781300Y2404212D03*
G54D19*
G01X400000Y4673600D03*
G54D14*
G01X400000Y4419600D03*
G01X400000Y4165600D03*
G01X400000Y3911600D03*
G01X400000Y3657600D03*
G54D22*
G01X2253000Y3860800D03*
G54D23*
G01X2507000Y3860800D03*
G54D10*
G01X5003800Y5345836D03*
G01X5003800Y5195164D03*
G01X5181600Y5423764D03*
G01X5181600Y5574436D03*
G54D24*
G01X406400Y6428500D03*
G54D23*
G01X406400Y6174500D03*
G54D24*
G01X400000Y5528500D03*
G54D23*
G01X400000Y5274500D03*
G54D25*
G01X7708900Y6197600D03*
G54D26*
G01X7708900Y5943600D03*
G01X7708900Y5689600D03*
G01X7708900Y5435600D03*
G01X7708900Y5181600D03*
G01X7708900Y4927600D03*
G01X7708900Y4673600D03*
G01X7708900Y4419600D03*
G01X7708900Y4165600D03*
G01X7708900Y3911600D03*
G01X7708900Y3657600D03*
G01X7708900Y3403600D03*
G01X7708900Y3149600D03*
G01X7708900Y2895600D03*
G01X7708900Y2641600D03*
G01X7708900Y2387600D03*
G01X7708900Y2133600D03*
G01X7708900Y1879600D03*
G01X7708900Y1625600D03*
G01X7708900Y1371600D03*
G01X7708900Y1117600D03*
G01X7708900Y863600D03*
G54D25*
G01X5422900Y6197600D03*
G54D26*
G01X5422900Y5943600D03*
G01X5422900Y5689600D03*
G01X5422900Y5435600D03*
G01X5422900Y5181600D03*
G01X5422900Y4927600D03*
G01X5422900Y4673600D03*
G01X5422900Y4419600D03*
G01X5422900Y4165600D03*
G01X5422900Y3911600D03*
G01X5422900Y3657600D03*
G01X5422900Y3403600D03*
G01X5422900Y3149600D03*
G01X5422900Y2895600D03*
G01X5422900Y2641600D03*
G01X5422900Y2387600D03*
G01X5422900Y2133600D03*
G01X5422900Y1879600D03*
G01X5422900Y1625600D03*
G01X5422900Y1371600D03*
G01X5422900Y1117600D03*
G01X5422900Y863600D03*
G54D15*
G01X7340000Y1877500D03*
G01X7140000Y1877500D03*
G04 Pad End*

M02*

